<svg width="100" height="33" viewBox="0 0 100 33" fill="none" xmlns="http://www.w3.org/2000/svg">
<path d="M28.2814 3.94889C28.5421 2.71406 28.807 1.48349 29.0847 0.176025H57.7721C56.0887 9.68722 54.4137 19.1343 52.7516 28.5344C52.2602 28.778 51.8287 28.6797 51.4142 28.6797C44.4539 28.6882 37.4893 28.6797 30.5289 28.6883C30.1444 28.6883 29.7641 28.7224 29.3795 28.7395C27.5978 28.7096 25.8161 28.6754 24.03 28.6455C24.0129 28.5686 24.0001 28.4917 23.983 28.4105C24.2095 27.1885 24.4829 25.9708 24.6539 24.7402C24.7949 23.6977 25.2179 22.6935 25.0726 21.6168C25.2563 21.0357 25.47 20.4674 25.5768 19.8564C26.1237 16.6177 26.7048 13.3874 27.2603 10.153C27.6149 8.08921 27.9396 6.02118 28.2814 3.95316V3.94889ZM51.316 10.8323C51.4826 10.5161 51.4057 10.3367 51.3501 10.1572C50.3204 6.58947 47.1756 4.17107 43.4242 4.04716C37.4038 3.85488 31.7808 8.22593 30.4947 14.1053C29.1616 20.1812 33.1994 25.1632 39.4334 24.988C43.8301 24.8641 47.1286 22.6551 49.6368 19.1471C50.5298 17.8995 50.4657 16.4382 50.7349 14.9855H41.1425C40.8989 16.0579 40.5913 17.0663 40.6511 18.3054H46.4877C44.4539 20.6042 42.1893 21.8134 39.3565 21.7407C36.498 21.6681 34.195 19.6599 33.7036 16.9039C32.7935 11.8193 38.2071 6.48265 43.343 7.37993C45.4751 7.75166 46.9706 8.93521 47.9191 10.828H51.3245L51.316 10.8323Z" fill="#188CB2"/>
<path d="M28.2815 3.9489C27.9439 6.01692 27.6149 8.08493 27.2603 10.1487C26.7048 13.3832 26.1237 16.6134 25.5768 19.8522C25.4743 20.4632 25.2564 21.0314 25.0726 21.6125C24.9445 21.3775 24.7864 21.1554 24.6881 20.9075C23.1285 16.9979 21.5775 13.0798 20.0137 9.17023C19.6932 8.37122 19.4539 7.52947 18.8643 6.67492C13.3439 14.0027 7.89609 21.228 2.32439 28.6242H6.12716C7.80209 26.4066 9.46419 24.2061 11.0878 22.0569H21.334C21.5391 22.5568 21.71 23.0183 21.9151 23.4712C22.65 25.0991 23.0858 26.8467 23.9831 28.402C24.0002 28.4789 24.013 28.5558 24.0301 28.637C25.3845 30.0855 27.0381 31.1665 28.5849 32.3799C28.3883 32.6534 28.0978 32.5551 27.8414 32.5551C18.8045 32.5594 9.76329 32.5637 0.726371 32.5637C0.538369 32.5637 0.350367 32.5423 0 32.5252C1.69202 22.9755 3.36695 13.4943 5.02906 4.11125C5.3196 3.85061 5.55461 3.89761 5.78106 3.89761C12.9337 3.89761 20.0906 3.89761 27.2432 3.89761C27.5893 3.89761 27.9354 3.9318 28.2772 3.95316L28.2815 3.9489Z" fill="#E35E2A"/>
<path d="M63.2285 27.7098C61.8014 28.4789 60.3316 28.8335 58.7592 28.6712C57.0715 28.496 56.1272 27.4192 56.1485 25.7486C56.1955 22.5782 58.7763 20.1897 61.9424 20.3905C63.5447 20.4931 64.3224 21.1468 64.7667 22.8046C64.301 23.1037 63.7498 22.9627 63.267 23.0995C62.1774 21.4502 60.3786 21.3006 59.0455 22.732C58.3106 23.5225 57.9559 24.4838 57.9175 25.552C57.8747 26.6929 58.4217 27.2697 59.571 27.291C60.3444 27.3039 61.0879 27.1287 61.763 26.7869C61.9766 26.4664 62.1048 26.1545 62.0792 25.7657C61.4852 25.4495 60.8016 25.8084 60.1863 25.5478C60.1137 25.1034 60.3359 24.7359 60.5153 24.2958H64.3352C63.9464 25.4965 63.5832 26.6074 63.2243 27.7098H63.2285Z" fill="#231815"/>
<path d="M78.038 23.3815C78.6319 22.9713 79.2643 22.6166 80.0163 22.5739C81.234 22.5055 81.8493 23.1935 81.5246 24.3557C81.1357 25.7486 80.6615 27.1201 80.2342 28.4661C79.6445 28.5729 79.1532 28.5643 78.5251 28.4746C78.9994 26.9749 79.4608 25.5093 79.9223 24.0523C78.9054 23.625 78.2687 23.8686 77.7944 24.9624C77.3073 26.0819 76.957 27.2611 76.5297 28.4703C76.034 28.5942 75.5085 28.5472 74.9018 28.496C75.1923 26.9279 75.9785 25.5349 76.1665 24.001C75.1282 23.6378 74.5001 23.9412 74.0387 25.1077C73.6028 26.2058 73.2653 27.3466 72.8765 28.4917H71.1887C71.8083 26.5561 72.4107 24.6889 73.026 22.7747C73.6199 22.7491 74.2138 22.4756 74.718 23.0183C76.6621 22.3432 77.0424 22.3816 78.038 23.3729V23.3815Z" fill="#231815"/>
<path d="M96.1246 28.2994C95.6119 28.4618 95.0992 28.6284 94.548 28.5643C93.7319 28.4703 93.1978 28.0516 92.997 27.2483C92.6338 25.7999 93.467 23.8087 94.7531 23.0311C95.911 22.3304 96.8083 22.4201 98.0901 23.4028C98.4362 22.5269 99.1455 22.638 100 22.7961C99.2352 25.1205 98.7396 27.5175 97.6073 29.6795C96.9108 31.0126 94.0395 31.4143 92.8261 30.4828C92.3731 30.1324 92.3048 29.906 92.3945 28.9318C92.8902 28.8335 93.373 28.9831 93.843 29.0343C94.8941 30.1752 95.7828 30.0128 96.3853 28.5814C96.5476 28.2652 96.4323 28.1969 96.1289 28.2994H96.1246ZM97.5176 24.9538C97.4706 24.2617 97.18 23.7532 96.4237 23.7404C95.5777 23.7275 94.6078 25.1162 94.6249 26.2442C94.6334 26.915 94.9154 27.3594 95.6375 27.368C96.5605 27.3808 97.5261 26.1246 97.5218 24.9496L97.5176 24.9538Z" fill="#231815"/>
<path d="M62.9507 10.5375H64.9504C65.0572 11.8749 65.1726 13.1994 65.2708 14.524C65.3648 15.8187 65.4418 17.1133 65.5272 18.4464C64.9717 18.6857 64.4505 18.519 63.9036 18.5874C63.8096 17.9379 63.7284 17.3782 63.6429 16.8014H60.4768C59.9042 17.2543 59.6692 17.9849 59.1223 18.5319H57.332C59.2548 15.793 61.1049 13.1567 62.9507 10.5332V10.5375ZM63.4976 12.6226C62.6132 13.4515 61.8825 14.2975 61.2886 15.3615C62.1432 15.417 62.8824 15.511 63.6643 15.2931C63.6045 14.3616 63.5532 13.4943 63.4976 12.6226Z" fill="#231815"/>
<path d="M81.0032 14.8316C81.2981 14.3958 81.3322 14.0497 80.9349 13.8575C80.2256 13.5071 79.6915 13.9002 79.2172 14.4172C78.7515 14.3574 78.3028 14.3018 77.8371 14.242C78.5507 12.6782 81.0075 11.9945 82.3406 12.9516C83.0798 13.4857 82.9559 14.1907 82.7465 14.9257C82.4132 16.0921 81.8193 17.1988 81.9048 18.5276C81.2553 18.5319 80.6144 18.831 80.1017 18.1601C79.7641 18.3011 79.4266 18.4763 79.0677 18.5874C78.0422 18.8993 77.1193 18.5361 76.833 17.7371C76.5083 16.8185 76.9868 15.7802 77.9311 15.3572C78.6489 15.0325 79.4394 15.0966 80.1914 14.9598C80.452 14.9128 80.717 14.8786 80.999 14.8359L81.0032 14.8316ZM78.4951 17.2842C79.841 17.5961 80.2897 17.3056 80.6144 15.9682C78.7258 16.0622 78.525 16.1818 78.4951 17.2842Z" fill="#231815"/>
<path d="M86.8954 28.5045H85.1991C85.8315 26.5433 86.4467 24.6547 87.0748 22.7021C87.6688 22.8431 88.3225 22.3944 88.7455 23.1806C89.3138 22.8986 89.9333 22.5825 90.6383 22.5696C91.8262 22.5483 92.4585 23.2618 92.1509 24.4027C91.7877 25.7657 91.3262 27.0988 90.9075 28.4404C90.335 28.5857 89.8137 28.5686 89.2198 28.4618C89.5445 26.962 90.241 25.5862 90.4802 24.1121C89.5488 23.5908 88.6899 23.8771 88.1601 24.9496C87.8055 25.6631 87.5918 26.445 87.3269 27.2013C87.1774 27.6286 87.0407 28.0602 86.8954 28.5002V28.5045Z" fill="#231815"/>
<path d="M69.1975 24.0224C68.4541 23.4242 67.8687 23.8258 67.2961 24.3557C66.8133 24.3257 66.3219 24.3941 65.8477 24.2018C66.6467 22.7064 68.9625 22.0484 70.3084 22.9072C71.0861 23.4028 71.0135 24.1207 70.8041 24.847C70.458 26.0477 69.8897 27.1928 69.9025 28.5216C69.2787 28.4618 68.6506 28.7737 68.1293 28.1456C67.873 28.261 67.5739 28.4191 67.2577 28.5302C66.2066 28.9104 65.2153 28.5942 64.882 27.7867C64.4889 26.8253 65.0487 25.6802 66.1211 25.2871C66.8518 25.0222 67.6294 25.0265 68.39 24.9496C68.9326 24.894 69.4026 24.7573 69.189 24.0138L69.1975 24.0224ZM68.7617 25.8981C67.779 26.0605 66.7535 25.8255 66.3775 27.0048C67.4115 27.8422 68.1464 27.5175 68.7617 25.8981Z" fill="#231815"/>
<path d="M70.7358 16.8569C70.1675 16.263 69.4326 16.2502 68.8216 15.9725C68.2362 15.7033 67.7064 15.3914 67.685 14.6693C67.6637 14.0027 68.014 13.5071 68.5524 13.1354C69.5052 12.4731 71.5391 12.3663 72.4193 12.9431C72.8166 13.2037 73.0944 13.5498 73.1456 14.101C72.6671 14.195 72.2227 14.2847 71.7869 14.3745C70.6119 13.49 70.0863 13.4729 69.3685 14.3018C69.7872 14.9086 70.5221 14.8274 71.099 15.0752C71.7142 15.3401 72.3466 15.5708 72.4577 16.3271C72.5816 17.1475 72.1202 17.7158 71.4921 18.1559C69.8684 19.2967 67.3005 18.7241 66.5613 17.0578C67.0142 16.686 67.5654 16.7758 68.0738 16.7159C69.0609 17.7585 69.753 17.8141 70.7358 16.8612V16.8569Z" fill="#231815"/>
<path d="M83.7122 22.7662C84.3146 22.7106 84.806 22.6722 85.4085 22.8089C84.8017 24.7017 84.1993 26.5689 83.5883 28.4661C83.0371 28.6028 82.5158 28.5515 81.8621 28.496C82.4816 26.5732 83.0841 24.706 83.7122 22.7705V22.7662Z" fill="#231815"/>
<path d="M74.9231 18.5575C74.2779 18.5575 73.7823 18.6643 73.2396 18.4635C73.8549 16.5621 74.4659 14.6735 75.0812 12.7807C75.6537 12.7123 76.175 12.6483 76.7818 12.8234C76.1579 14.7547 75.5469 16.6305 74.9231 18.5575Z" fill="#231815"/>
<path d="M28.5891 32.3842C27.0423 31.1707 25.3888 30.0897 24.0343 28.6412C25.816 28.6712 27.5978 28.7053 29.3838 28.7352C29.1445 29.9573 29.1873 31.2391 28.5934 32.3842H28.5891Z" fill="#B22023"/>
<path d="M77.0851 11.9176H75.5084C75.376 11.4092 75.6922 11.0417 75.8033 10.6101C76.3331 10.435 76.8544 10.4991 77.4696 10.5674C77.3415 11.0161 77.2261 11.4262 77.0851 11.9176Z" fill="#231815"/>
<path d="M85.6733 21.9116C85.1136 22.0184 84.5966 22.0398 84.054 21.8945C84.1095 21.3818 84.2377 20.9203 84.5368 20.5016C85.0324 20.4461 85.5238 20.4033 86.0536 20.5358C86.1134 21.0571 85.8571 21.4673 85.6733 21.9116Z" fill="#231815"/>
<path d="M51.316 10.8366H47.9106C46.962 8.94377 45.4666 7.76021 43.3345 7.38847C38.2029 6.49119 32.785 11.8322 33.6951 16.9125C34.1907 19.6684 36.4895 21.6766 39.348 21.7493C42.1808 21.8176 44.4497 20.6127 46.4792 18.314H40.6426C40.5828 17.0791 40.8904 16.0665 41.134 14.994H50.7264C50.4572 16.451 50.5255 17.908 49.6283 19.1557C47.1201 22.6594 43.8216 24.8727 39.4249 24.9966C33.1866 25.1718 29.1531 20.1897 30.4862 14.1138C31.7766 8.23448 37.3953 3.85917 43.4156 4.05572C47.1714 4.17535 50.3119 6.59801 51.3416 10.1658C51.3929 10.3495 51.4698 10.529 51.3075 10.8409L51.316 10.8366Z" fill="#F4FAFB"/>
<path d="M23.9873 28.4105C23.0943 26.851 22.6542 25.1034 21.9193 23.4797C21.7142 23.0311 21.5433 22.5654 21.3382 22.0654H11.0921C9.46842 24.2147 7.80631 26.4109 6.13138 28.6327H2.32861C7.90458 21.2365 13.3481 14.007 18.8685 6.68346C19.4582 7.53802 19.6974 8.37975 20.0179 9.17876C21.5817 13.0884 23.1327 17.0065 24.6923 20.9161C24.7906 21.1639 24.9444 21.3861 25.0769 21.6211C25.2221 22.6978 24.7991 23.7062 24.6581 24.7445C24.4915 25.975 24.218 27.1928 23.9873 28.4148V28.4105ZM17.8089 13.0841C16.3647 15.0154 15.0615 16.7544 13.6557 18.6344H20.0136C19.2702 16.7629 18.5908 15.0453 17.8089 13.0841Z" fill="#FDF9F5"/>
<path d="M17.8089 13.0841C18.5908 15.0453 19.2702 16.7629 20.0136 18.6344H13.6558C15.0615 16.7544 16.3604 15.0154 17.8089 13.0841Z" fill="#DD6634"/>
</svg>
