<svg width="75" height="24" viewBox="0 0 75 24" fill="none" xmlns="http://www.w3.org/2000/svg">
<path d="M47.4216 20.3978C46.3512 20.9676 45.2489 21.2303 44.0696 21.11C42.8038 20.9803 42.0956 20.1826 42.1116 18.9449C42.1468 16.5962 44.0824 14.8268 46.457 14.9755C47.6587 15.0515 48.242 15.5358 48.5752 16.764C48.2259 16.9855 47.8125 16.8811 47.4504 16.9824C46.6333 15.7605 45.2841 15.6498 44.2843 16.7102C43.7331 17.2958 43.4671 18.008 43.4383 18.7993C43.4062 19.6445 43.8164 20.0718 44.6785 20.0876C45.2585 20.0971 45.8161 19.9673 46.3224 19.7141C46.4826 19.4767 46.5788 19.2456 46.5596 18.9576C46.1141 18.7233 45.6014 18.9892 45.1399 18.7961C45.0854 18.4669 45.2521 18.1947 45.3867 17.8687H48.2516C47.96 18.7582 47.6876 19.5812 47.4184 20.3978H47.4216Z" fill="white"/>
<path d="M58.5285 17.1911C58.974 16.8872 59.4483 16.6245 60.0123 16.5928C60.9256 16.5422 61.387 17.0518 61.1435 17.9128C60.8519 18.9447 60.4962 19.9608 60.1757 20.9579C59.7335 21.037 59.3649 21.0307 58.8939 20.9642C59.2496 19.8532 59.5957 18.7675 59.9418 17.6881C59.1791 17.3715 58.7016 17.552 58.3459 18.3623C57.9806 19.1916 57.7178 20.0653 57.3973 20.9611C57.0256 21.0529 56.6314 21.018 56.1764 20.9801C56.3943 19.8184 56.9839 18.7864 57.1249 17.6501C56.3462 17.381 55.8752 17.6058 55.5291 18.4699C55.2022 19.2834 54.949 20.1286 54.6574 20.9769H53.3916C53.8563 19.543 54.3081 18.1597 54.7696 16.7416C55.215 16.7226 55.6604 16.52 56.0386 16.922C57.4967 16.4219 57.7819 16.4504 58.5285 17.1848V17.1911Z" fill="white"/>
<path d="M72.0932 20.8345C71.7087 20.9548 71.3241 21.0782 70.9107 21.0307C70.2987 20.9611 69.8981 20.6509 69.7475 20.0558C69.4751 18.9827 70.1 17.5077 71.0646 16.9316C71.933 16.4125 72.606 16.4789 73.5673 17.207C73.8269 16.5581 74.3589 16.6404 74.9998 16.7575C74.4262 18.4794 74.0544 20.2552 73.2052 21.8569C72.6829 22.8445 70.5294 23.142 69.6193 22.452C69.2796 22.1924 69.2283 22.0247 69.2956 21.303C69.6674 21.2302 70.0295 21.3409 70.382 21.3789C71.1703 22.2241 71.8369 22.1038 72.2887 21.0434C72.4105 20.8092 72.324 20.7585 72.0964 20.8345H72.0932ZM73.1379 18.356C73.1027 17.8432 72.8848 17.4665 72.3176 17.457C71.683 17.4475 70.9556 18.4763 70.9684 19.3119C70.9748 19.8089 71.1863 20.1381 71.7279 20.1444C72.4201 20.1539 73.1443 19.2233 73.1411 18.3528L73.1379 18.356Z" fill="white"/>
<path d="M47.213 7.67601H48.7128C48.7929 8.66677 48.8794 9.64805 48.9531 10.6293C49.0236 11.5884 49.0813 12.5475 49.1454 13.5351C48.7288 13.7124 48.3379 13.5889 47.9277 13.6396C47.8572 13.1585 47.7963 12.7438 47.7322 12.3165H45.3576C44.9282 12.652 44.7519 13.1933 44.3417 13.5984H42.999C44.4411 11.5694 45.8287 9.6164 47.213 7.67285V7.67601ZM47.6232 9.22072C46.9599 9.8348 46.4119 10.4615 45.9665 11.2497C46.6074 11.2909 47.1618 11.3605 47.7482 11.1991C47.7033 10.509 47.6649 9.86646 47.6232 9.22072Z" fill="white"/>
<path d="M60.7526 10.8573C60.9737 10.5344 60.9993 10.278 60.7013 10.1356C60.1693 9.87601 59.7688 10.1672 59.4131 10.5502C59.0638 10.5059 58.7273 10.4648 58.378 10.4205C58.9131 9.26193 60.7558 8.75546 61.7556 9.4645C62.31 9.86018 62.2171 10.3825 62.06 10.9269C61.8101 11.7911 61.3646 12.6109 61.4287 13.5953C60.9416 13.5985 60.461 13.8201 60.0764 13.3231C59.8232 13.4276 59.5701 13.5573 59.3009 13.6396C58.5318 13.8707 57.8396 13.6017 57.6249 13.0097C57.3814 12.3292 57.7403 11.56 58.4485 11.2466C58.9869 11.006 59.5797 11.0535 60.1437 10.9522C60.3392 10.9174 60.5379 10.8921 60.7494 10.8604L60.7526 10.8573ZM58.8715 12.6742C59.8809 12.9053 60.2174 12.69 60.461 11.6993C59.0445 11.7689 58.8939 11.8575 58.8715 12.6742Z" fill="white"/>
<path d="M65.1716 20.9864H63.8994C64.3737 19.5335 64.8352 18.1344 65.3062 16.6878C65.7517 16.7923 66.242 16.4599 66.5592 17.0423C66.9854 16.8334 67.4501 16.5992 67.9788 16.5897C68.8697 16.5739 69.344 17.1025 69.1133 17.9477C68.8409 18.9574 68.4948 19.945 68.1807 20.9389C67.7513 21.0466 67.3604 21.0339 66.9149 20.9548C67.1585 19.8437 67.6808 18.8245 67.8603 17.7324C67.1617 17.3462 66.5176 17.5583 66.1202 18.3528C65.8542 18.8814 65.694 19.4607 65.4953 20.021C65.3831 20.3375 65.2806 20.6572 65.1716 20.9833V20.9864Z" fill="white"/>
<path d="M51.8984 17.6659C51.3408 17.2227 50.9017 17.5203 50.4723 17.9128C50.1102 17.8906 49.7417 17.9413 49.386 17.7988C49.9852 16.691 51.7221 16.2035 52.7315 16.8397C53.3148 17.2069 53.2603 17.7387 53.1033 18.2768C52.8437 19.1663 52.4175 20.0146 52.4271 20.999C51.9592 20.9547 51.4882 21.1858 51.0972 20.7205C50.9049 20.8059 50.6806 20.9231 50.4435 21.0054C49.6552 21.2871 48.9117 21.0528 48.6617 20.4546C48.3669 19.7424 48.7867 18.8941 49.5911 18.6029C50.139 18.4066 50.7223 18.4098 51.2927 18.3528C51.6997 18.3116 52.0522 18.2103 51.8919 17.6596L51.8984 17.6659ZM51.5715 19.0555C50.8344 19.1758 50.0653 19.0017 49.7833 19.8753C50.5588 20.4957 51.11 20.2552 51.5715 19.0555Z" fill="white"/>
<path d="M53.0518 12.3577C52.6256 11.9177 52.0744 11.9082 51.6161 11.7024C51.1771 11.503 50.7797 11.2719 50.7637 10.737C50.7477 10.2432 51.0105 9.87602 51.4142 9.60063C52.1289 9.10999 53.6542 9.03086 54.3144 9.45818C54.6124 9.65127 54.8207 9.90766 54.8592 10.316C54.5002 10.3856 54.167 10.4521 53.8401 10.5186C52.9588 9.86335 52.5647 9.85069 52.0263 10.4648C52.3404 10.9143 52.8915 10.8541 53.3242 11.0377C53.7856 11.234 54.2599 11.4049 54.3432 11.9652C54.4362 12.5729 54.0901 12.9939 53.619 13.32C52.4012 14.1651 50.4753 13.7409 49.9209 12.5064C50.2606 12.2311 50.674 12.2975 51.0553 12.2532C51.7956 13.0256 52.3147 13.0667 53.0518 12.3608V12.3577Z" fill="white"/>
<path d="M62.7841 16.7353C63.2359 16.6942 63.6044 16.6657 64.0563 16.767C63.6012 18.1693 63.1494 19.5525 62.6911 20.958C62.2777 21.0593 61.8868 21.0213 61.3965 20.9801C61.8611 19.5557 62.313 18.1724 62.7841 16.7385V16.7353Z" fill="white"/>
<path d="M56.1923 13.6175C55.7084 13.6175 55.3367 13.6966 54.9297 13.5478C55.3911 12.1392 55.8494 10.7401 56.3109 9.33785C56.7403 9.2872 57.1312 9.23972 57.5863 9.3695C57.1184 10.8003 56.6602 12.1899 56.1923 13.6175Z" fill="white"/>
<path d="M21.442 23.8608C20.2819 22.9618 19.0417 22.161 18.0259 21.0879C19.3622 21.11 20.6985 21.1354 22.038 21.1575C21.8586 22.0628 21.8906 23.0124 21.4452 23.8608H21.442Z" fill="white"/>
<path d="M57.8138 8.69846H56.6313C56.532 8.32178 56.7691 8.04956 56.8524 7.72986C57.2498 7.60008 57.6408 7.64755 58.1022 7.6982C58.0061 8.03057 57.9196 8.33444 57.8138 8.69846Z" fill="white"/>
<path d="M64.2551 16.1022C63.8353 16.1814 63.4475 16.1972 63.0405 16.0896C63.0822 15.7097 63.1783 15.3679 63.4026 15.0577C63.7744 15.0165 64.1429 14.9849 64.5403 15.083C64.5851 15.4692 64.3929 15.773 64.2551 16.1022Z" fill="white"/>
<path fill-rule="evenodd" clip-rule="evenodd" d="M21.5617 1.16708C21.4429 1.71686 21.3264 2.2554 21.2111 2.79504V2.7982C21.1192 3.3472 21.029 3.89621 20.9388 4.44507C20.7773 5.42785 20.6159 6.41016 20.4452 7.39117C20.2681 8.40987 20.0875 9.428 19.9069 10.4463C19.6627 11.8232 19.4184 13.2004 19.1826 14.5797C19.1201 14.9327 19.0089 15.2665 18.8977 15.6005C18.8662 15.6948 18.8348 15.7891 18.8045 15.8839C18.8772 16.4167 18.7599 16.9255 18.6424 17.4348C18.584 17.688 18.5255 17.9413 18.4904 18.1978C18.4023 18.8242 18.278 19.4461 18.1536 20.0677C18.097 20.3507 18.0404 20.6336 17.9873 20.9169C17.993 20.9437 17.9981 20.97 18.0031 20.9959C18.0094 21.0279 18.0155 21.0594 18.0226 21.0909C18.6983 21.1021 19.3732 21.1141 20.0477 21.1261C20.7103 21.1378 21.3725 21.1496 22.0347 21.1606C22.1313 21.1563 22.2275 21.1507 22.3237 21.145C22.5145 21.1338 22.7049 21.1226 22.8967 21.1226C25.5069 21.1194 28.1178 21.1194 30.7287 21.1194C33.3396 21.1194 35.9506 21.1194 38.5607 21.1163C38.6292 21.1163 38.6982 21.1198 38.7682 21.1234C39.0163 21.136 39.2764 21.1493 39.5637 21.0086C40.3313 16.7208 41.1025 12.4197 41.8766 8.10252C42.3597 5.40821 42.8439 2.70761 43.3291 0H21.8136C21.7281 0.397226 21.6443 0.784871 21.5617 1.16708ZM38.4887 7.8913C38.6029 7.67519 38.5612 7.54559 38.5215 7.422C38.5185 7.41276 38.5155 7.40355 38.5126 7.39434C37.7403 4.75124 35.3818 2.95963 32.5681 2.86784C29.6834 2.77683 26.9203 4.06575 25.0493 6.14436C23.9894 7.32064 23.2147 8.75018 22.8647 10.3255C21.8648 14.8267 24.89 18.5175 29.5687 18.3877C31.6536 18.3297 33.4094 17.6528 34.8942 16.5067C35.7602 15.8395 36.5342 15.0123 37.2276 14.0543C37.7275 13.3644 37.8275 12.5863 37.93 11.7885C37.9649 11.5174 38 11.2441 38.0512 10.9712H30.8569C30.8564 10.9733 30.8559 10.9754 30.8554 10.9775H30.8505C30.8218 11.1024 30.7919 11.2261 30.7621 11.3495C30.6021 12.0118 30.4441 12.666 30.482 13.4371H34.8594C34.7876 13.5174 34.7153 13.596 34.6426 13.6728C33.1747 15.2183 31.539 16.0269 29.5174 15.9757C27.3735 15.9219 25.6463 14.4341 25.2777 12.3925C25.011 10.9207 25.4683 9.42051 26.3544 8.17836C27.7376 6.24532 30.159 4.93869 32.5008 5.34317C34.0999 5.61856 35.2215 6.49537 35.933 7.89763H38.4823C38.4817 7.89869 38.4812 7.89974 38.4806 7.90079L38.487 7.89763H38.4823C38.4834 7.89551 38.4845 7.8934 38.4855 7.8913H38.4887Z" fill="white"/>
<path fill-rule="evenodd" clip-rule="evenodd" d="M21.0259 3.92088C21.0875 3.54564 21.1491 3.17036 21.2111 2.79508L21.2079 2.79824C21.1392 2.794 21.0703 2.78907 21.0012 2.78414C20.8125 2.77066 20.6224 2.75708 20.4324 2.75708H4.3358C4.31348 2.75708 4.29105 2.75648 4.26843 2.75588C4.11892 2.75187 3.96107 2.74764 3.77179 2.91535C3.17652 6.23472 2.57905 9.57069 1.97904 12.9209C1.32255 16.5863 0.663027 20.2688 0 23.9651C0.108792 23.9704 0.196711 23.9762 0.272399 23.9812C0.379528 23.9882 0.462153 23.9936 0.544779 23.9936C7.31751 23.9936 14.0935 23.9905 20.8662 23.9873L20.881 23.9873C20.921 23.9873 20.9621 23.9904 21.0034 23.9936C21.1609 24.0057 21.3219 24.018 21.4386 23.8575C21.1321 23.6199 20.8199 23.3892 20.5077 23.1585C19.6387 22.5162 18.7699 21.8741 18.0226 21.0847C18.0168 21.0578 18.0117 21.0315 18.0067 21.0056C18.0006 20.974 17.9946 20.9429 17.9876 20.9118C17.9714 20.8839 17.9555 20.8559 17.9397 20.8278C17.556 20.1508 17.2859 19.4272 17.0154 18.7029C16.8339 18.2168 16.6523 17.7304 16.4363 17.2577C16.4131 17.2071 16.3905 17.1563 16.3683 17.1054C16.3413 17.0436 16.3149 16.9813 16.2888 16.9185C16.2416 16.8051 16.1954 16.6902 16.1482 16.5729C16.1013 16.4566 16.0536 16.338 16.0031 16.2163H8.3191C7.94313 16.7079 7.56441 17.2028 7.1835 17.7005C6.33069 18.815 5.46693 19.9437 4.59858 21.0815H1.74651C1.74811 21.0794 1.74972 21.0773 1.75133 21.0752H1.74329C3.88727 18.2639 6.00679 15.486 8.12176 12.7141C10.129 10.0834 12.1322 7.45797 14.1482 4.81458C14.2761 4.99772 14.3821 5.18006 14.4739 5.36107C14.6314 5.67061 14.7472 5.97628 14.8606 6.2754C14.9109 6.40813 14.9607 6.53958 15.0135 6.6695C15.6889 8.33752 16.3612 10.0077 17.0334 11.6775C17.5283 12.9071 18.0232 14.1365 18.5193 15.3648C18.53 15.3916 18.5417 15.418 18.5541 15.4441C18.5979 15.5349 18.6506 15.6218 18.7034 15.7088C18.7379 15.7658 18.7724 15.8227 18.8045 15.8808C18.836 15.7823 18.8689 15.6843 18.9018 15.5863C19.0125 15.256 19.1233 14.9257 19.1826 14.5766C19.4184 13.1973 19.6627 11.8201 19.9069 10.4431C20.0875 9.42485 20.2681 8.40673 20.4452 7.38804C20.646 6.23367 20.8359 5.0775 21.0259 3.92088Z" fill="white"/>
<path d="M13.3566 9.5625C13.943 11.0154 14.4525 12.2879 15.0101 13.6743H10.2417C11.296 12.2816 12.2702 10.9933 13.3566 9.5625Z" fill="white"/>
</svg>
