<svg width="100" height="33" viewBox="0 0 100 33" fill="none" xmlns="http://www.w3.org/2000/svg">
<path d="M63.2285 27.5337C61.8014 28.3028 60.3316 28.6574 58.7592 28.4951C57.0715 28.3199 56.1272 27.2431 56.1485 25.5725C56.1955 22.4021 58.7763 20.0136 61.9424 20.2144C63.5447 20.317 64.3224 20.9707 64.7667 22.6285C64.301 22.9276 63.7498 22.7866 63.267 22.9234C62.1774 21.2741 60.3786 21.1245 59.0455 22.5559C58.3106 23.3464 57.9559 24.3078 57.9175 25.3759C57.8747 26.5168 58.4217 27.0936 59.571 27.115C60.3444 27.1278 61.0879 26.9526 61.763 26.6108C61.9766 26.2903 62.1048 25.9784 62.0792 25.5896C61.4852 25.2734 60.8016 25.6323 60.1863 25.3717C60.1137 24.9273 60.3359 24.5598 60.5153 24.1197H64.3352C63.9464 25.3204 63.5832 26.4313 63.2243 27.5337H63.2285Z" fill="white"/>
<path d="M78.038 23.2055C78.6319 22.7953 79.2643 22.4407 80.0163 22.3979C81.234 22.3296 81.8493 23.0175 81.5246 24.1797C81.1357 25.5726 80.6615 26.9442 80.2342 28.2901C79.6445 28.3969 79.1532 28.3884 78.5251 28.2986C78.9994 26.7989 79.4608 25.3333 79.9223 23.8763C78.9054 23.449 78.2687 23.6926 77.7944 24.7864C77.3073 25.9059 76.957 27.0852 76.5297 28.2944C76.034 28.4183 75.5085 28.3713 74.9018 28.32C75.1923 26.7519 75.9785 25.359 76.1665 23.825C75.1282 23.4619 74.5001 23.7652 74.0387 24.9317C73.6028 26.0298 73.2653 27.1706 72.8765 28.3157H71.1887C71.8083 26.3802 72.4107 24.513 73.026 22.5988C73.6199 22.5731 74.2138 22.2997 74.718 22.8423C76.6621 22.1672 77.0424 22.2057 78.038 23.1969V23.2055Z" fill="white"/>
<path d="M96.1246 28.1234C95.6119 28.2857 95.0992 28.4524 94.548 28.3883C93.7319 28.2943 93.1978 27.8755 92.997 27.0723C92.6338 25.6238 93.467 23.6327 94.7531 22.855C95.911 22.1543 96.8083 22.244 98.0901 23.2268C98.4362 22.3508 99.1455 22.4619 100 22.62C99.2352 24.9444 98.7396 27.3414 97.6073 29.5035C96.9108 30.8366 94.0395 31.2382 92.8261 30.3067C92.3731 29.9564 92.3048 29.7299 92.3945 28.7557C92.8902 28.6575 93.373 28.807 93.843 28.8583C94.8941 29.9991 95.7828 29.8367 96.3853 28.4054C96.5476 28.0892 96.4323 28.0208 96.1289 28.1234H96.1246ZM97.5176 24.7778C97.4706 24.0856 97.18 23.5771 96.4237 23.5643C95.5777 23.5515 94.6078 24.9401 94.6249 26.0682C94.6334 26.739 94.9154 27.1834 95.6375 27.1919C96.5605 27.2047 97.5261 25.9485 97.5218 24.7735L97.5176 24.7778Z" fill="white"/>
<path d="M62.9507 10.3614H64.9504C65.0572 11.6988 65.1726 13.0234 65.2708 14.3479C65.3648 15.6426 65.4418 16.9372 65.5272 18.2704C64.9717 18.5096 64.4505 18.343 63.9036 18.4113C63.8096 17.7619 63.7284 17.2022 63.6429 16.6253H60.4768C59.9042 17.0782 59.6692 17.8089 59.1223 18.3558H57.332C59.2548 15.617 61.1049 12.9807 62.9507 10.3572V10.3614ZM63.4976 12.4466C62.6132 13.2755 61.8825 14.1215 61.2886 15.1854C62.1432 15.241 62.8824 15.335 63.6643 15.117C63.6045 14.1856 63.5532 13.3182 63.4976 12.4466Z" fill="white"/>
<path d="M81.0034 14.6555C81.2982 14.2197 81.3324 13.8736 80.935 13.6814C80.2257 13.331 79.6916 13.7241 79.2173 14.2411C78.7516 14.1813 78.303 14.1257 77.8372 14.0659C78.5508 12.5021 81.0076 11.8184 82.3407 12.7755C83.0799 13.3096 82.956 14.0146 82.7466 14.7495C82.4134 15.916 81.8195 17.0227 81.9049 18.3515C81.2554 18.3558 80.6145 18.6549 80.1018 17.984C79.7642 18.125 79.4267 18.3002 79.0678 18.4113C78.0423 18.7232 77.1194 18.36 76.8331 17.561C76.5084 16.6424 76.9869 15.6041 77.9312 15.1811C78.6491 14.8564 79.4395 14.9205 80.1915 14.7837C80.4522 14.7367 80.7171 14.7025 80.9991 14.6598L81.0034 14.6555ZM78.4952 17.1081C79.8412 17.42 80.2898 17.1295 80.6145 15.7921C78.726 15.8861 78.5251 16.0057 78.4952 17.1081Z" fill="white"/>
<path d="M86.8955 28.3284H85.1992C85.8316 26.3672 86.4469 24.4786 87.075 22.526C87.6689 22.667 88.3226 22.2183 88.7456 23.0045C89.3139 22.7225 89.9335 22.4064 90.6385 22.3935C91.8263 22.3722 92.4587 23.0857 92.151 24.2266C91.7878 25.5896 91.3264 26.9227 90.9076 28.2643C90.3351 28.4096 89.8138 28.3925 89.2199 28.2857C89.5446 26.7859 90.2411 25.4101 90.4804 23.936C89.5489 23.4147 88.6901 23.701 88.1602 24.7735C87.8056 25.487 87.592 26.2689 87.3271 27.0252C87.1775 27.4525 87.0408 27.884 86.8955 28.3241V28.3284Z" fill="white"/>
<path d="M69.1976 23.8464C68.4542 23.2482 67.8688 23.6498 67.2963 24.1796C66.8134 24.1497 66.3221 24.2181 65.8478 24.0258C66.6468 22.5303 68.9626 21.8723 70.3086 22.7312C71.0862 23.2268 71.0136 23.9446 70.8042 24.671C70.4581 25.8717 69.8898 27.0167 69.9027 28.3456C69.2788 28.2858 68.6507 28.5977 68.1295 27.9696C67.8731 28.0849 67.574 28.243 67.2578 28.3541C66.2067 28.7344 65.2154 28.4182 64.8821 27.6107C64.4891 26.6493 65.0488 25.5042 66.1212 25.1111C66.8519 24.8462 67.6295 24.8505 68.3901 24.7735C68.9327 24.718 69.4027 24.5813 69.1891 23.8378L69.1976 23.8464ZM68.7618 25.7221C67.7791 25.8845 66.7536 25.6495 66.3776 26.8288C67.4116 27.6662 68.1465 27.3415 68.7618 25.7221Z" fill="white"/>
<path d="M70.7358 16.681C70.1675 16.0871 69.4326 16.0742 68.8216 15.7965C68.2362 15.5273 67.7064 15.2154 67.685 14.4933C67.6637 13.8268 68.014 13.3311 68.5524 12.9594C69.5052 12.2971 71.5391 12.1903 72.4193 12.7671C72.8166 13.0277 73.0944 13.3738 73.1456 13.925C72.6671 14.019 72.2227 14.1088 71.7869 14.1985C70.6119 13.314 70.0863 13.2969 69.3685 14.1258C69.7872 14.7326 70.5221 14.6514 71.099 14.8992C71.7142 15.1641 72.3466 15.3949 72.4577 16.1512C72.5816 16.9715 72.1202 17.5398 71.4921 17.9799C69.8684 19.1207 67.3005 18.5482 66.5613 16.8818C67.0142 16.5101 67.5654 16.5998 68.0738 16.54C69.0609 17.5825 69.753 17.6381 70.7358 16.6853V16.681Z" fill="white"/>
<path d="M83.7122 22.5901C84.3146 22.5345 84.806 22.4961 85.4085 22.6328C84.8017 24.5256 84.1993 26.3928 83.5883 28.2899C83.0371 28.4267 82.5158 28.3754 81.8621 28.3198C82.4816 26.3971 83.0841 24.5299 83.7122 22.5943V22.5901Z" fill="white"/>
<path d="M74.923 18.3814C74.2778 18.3814 73.7821 18.4882 73.2395 18.2874C73.8548 16.386 74.4658 14.4974 75.0811 12.6046C75.6536 12.5362 76.1749 12.4721 76.7816 12.6473C76.1578 14.5786 75.5468 16.4543 74.923 18.3814Z" fill="white"/>
<path d="M28.5892 32.2083C27.0425 30.9948 25.3889 29.9138 24.0344 28.4653C25.8162 28.4952 27.5979 28.5294 29.3839 28.5593C29.1447 29.7813 29.1874 31.0632 28.5935 32.2083H28.5892Z" fill="white"/>
<path d="M77.0851 11.7416H75.5084C75.376 11.2332 75.6922 10.8657 75.8033 10.4342C76.3331 10.259 76.8544 10.3231 77.4696 10.3914C77.3415 10.8401 77.2261 11.2503 77.0851 11.7416Z" fill="white"/>
<path d="M85.6733 21.7357C85.1136 21.8425 84.5966 21.8639 84.054 21.7186C84.1095 21.2059 84.2377 20.7444 84.5368 20.3257C85.0324 20.2701 85.5238 20.2274 86.0536 20.3598C86.1134 20.8811 85.8571 21.2913 85.6733 21.7357Z" fill="white"/>
<path fill-rule="evenodd" clip-rule="evenodd" d="M28.749 1.57534C28.5906 2.31747 28.4353 3.04443 28.2816 3.77287V3.77713C28.1591 4.51822 28.0388 5.2593 27.9185 6.00019C27.7032 7.32678 27.4879 8.65273 27.2604 9.97693C27.0242 11.352 26.7835 12.7263 26.5426 14.1008C26.217 15.9595 25.8913 17.8185 25.5769 19.6804C25.4936 20.1569 25.3453 20.6074 25.197 21.0582C25.1551 21.1855 25.1132 21.3128 25.0727 21.4408C25.1697 22.16 25.0133 22.8467 24.8566 23.5342C24.7787 23.876 24.7008 24.218 24.654 24.5642C24.5365 25.4097 24.3707 26.2492 24.2049 27.0882C24.1295 27.4703 24.054 27.8522 23.9832 28.2345C23.9908 28.2708 23.9976 28.3062 24.0043 28.3412C24.0126 28.3844 24.0207 28.427 24.0302 28.4695C24.9311 28.4846 25.831 28.5008 26.7303 28.5169C27.6138 28.5328 28.4967 28.5487 29.3797 28.5635C29.5085 28.5578 29.6368 28.5501 29.765 28.5425C30.0195 28.5273 30.2733 28.5122 30.529 28.5122C34.0092 28.508 37.4905 28.508 40.9717 28.5079C44.4529 28.5079 47.9342 28.5079 51.4144 28.5037C51.5056 28.5037 51.5977 28.5084 51.6911 28.5133C52.0218 28.5304 52.3686 28.5483 52.7517 28.3584C53.7748 22.5725 54.8027 16.7688 55.8345 10.9434C56.479 7.3044 57.125 3.65694 57.7722 0H29.0848C28.971 0.536179 28.8592 1.05943 28.749 1.57534ZM51.3183 10.652C51.4706 10.3603 51.415 10.1854 51.362 10.0185C51.3581 10.0061 51.3541 9.99364 51.3503 9.98121C50.3205 6.41344 47.1758 3.99504 43.4243 3.87113C39.578 3.74829 35.8939 5.48805 33.3993 8.29376C31.986 9.88158 30.953 11.8113 30.4863 13.9378C29.1532 20.0137 33.1867 24.9957 39.425 24.8205C42.2057 24.7422 44.5472 23.828 46.5273 22.2803C47.6814 21.3798 48.7128 20.2636 49.6369 18.9711C50.3035 18.0398 50.4368 16.9895 50.5735 15.9126C50.6199 15.5467 50.6667 15.1778 50.735 14.8094H41.1426C41.142 14.8123 41.1413 14.8151 41.1407 14.818H41.1341C41.0958 14.9865 41.056 15.1535 41.0162 15.3201C40.8029 16.2141 40.5923 17.0971 40.6427 18.1379H46.4793C46.3838 18.2461 46.2878 18.3518 46.1912 18.4551C44.2337 20.542 42.0525 21.6338 39.3566 21.5647C36.4981 21.4921 34.1951 19.4838 33.7037 16.7279C33.3481 14.7413 33.9579 12.7162 35.1392 11.0395C36.9836 8.43021 40.2121 6.66647 43.3345 7.21245C45.4667 7.58418 46.9621 8.76774 47.9107 10.6606H51.3098C51.309 10.662 51.3083 10.6634 51.3075 10.6648L51.3161 10.6606H51.3098C51.3112 10.6577 51.3127 10.6549 51.3141 10.652H51.3183Z" fill="white"/>
<path fill-rule="evenodd" clip-rule="evenodd" d="M28.0345 5.29251C28.1166 4.786 28.1988 4.27942 28.2815 3.77285L28.2772 3.77711C28.1856 3.77139 28.0937 3.76474 28.0016 3.75808C27.7499 3.73988 27.4966 3.72156 27.2432 3.72156H5.78106C5.75131 3.72156 5.7214 3.72075 5.69124 3.71993C5.49189 3.71452 5.28142 3.70881 5.02906 3.9352C4.23533 8.41599 3.43868 12.9192 2.63864 17.4415C1.76335 22.3892 0.884008 27.3599 0 32.3491C0.145062 32.3562 0.262291 32.364 0.363212 32.3708C0.506044 32.3803 0.616208 32.3876 0.726371 32.3876C9.75548 32.3876 18.7889 32.3833 27.818 32.3791L27.8414 32.3791C27.8947 32.3791 27.9494 32.3833 28.0045 32.3876C28.2145 32.4039 28.4292 32.4205 28.5849 32.2039C28.1761 31.8832 27.7598 31.5717 27.3436 31.2603C26.185 30.3934 25.0266 29.5266 24.0301 28.4609C24.0224 28.4247 24.0157 28.3892 24.009 28.3543C24.0008 28.3116 23.9928 28.2696 23.9835 28.2276C23.9618 28.1897 23.9403 28.1516 23.9192 28.1135C23.4079 27.1999 23.0477 26.2233 22.6872 25.2459C22.4453 24.5898 22.2031 23.9333 21.9151 23.2952C21.8849 23.2285 21.8554 23.1617 21.8265 23.0946C21.789 23.0076 21.7523 22.9199 21.716 22.8314C21.6539 22.6802 21.593 22.527 21.5309 22.3708C21.4685 22.2138 21.4048 22.0537 21.3375 21.8894H11.0921C10.5912 22.5524 10.0867 23.22 9.57918 23.8913C8.44172 25.3961 7.28965 26.9203 6.13144 28.4567H2.32867C2.33082 28.4538 2.33296 28.451 2.33511 28.4481H2.32439C5.18386 24.6523 8.01068 20.9015 10.8314 17.1588C13.507 13.6087 16.177 10.0659 18.8643 6.49887C19.0352 6.7465 19.1766 6.99306 19.2991 7.23782C19.5088 7.65521 19.6631 8.06739 19.8141 8.47074C19.8812 8.64991 19.9476 8.82734 20.018 9.00271C20.9185 11.2541 21.8148 13.5082 22.7109 15.762C23.3709 17.422 24.0309 19.0818 24.6924 20.74C24.7067 20.7762 24.7222 20.8118 24.7387 20.8469C24.7972 20.9694 24.8675 21.0869 24.9378 21.2043C24.9839 21.2812 25.0299 21.3582 25.0726 21.4365C25.1147 21.3035 25.1585 21.1712 25.2023 21.039C25.35 20.5931 25.4977 20.1473 25.5768 19.6761C25.8912 17.8142 26.2169 15.9552 26.5426 14.0965C26.7834 12.722 27.0242 11.3477 27.2603 9.97263C27.5281 8.41441 27.7812 6.85376 28.0345 5.29251Z" fill="white"/>
<path d="M17.8089 12.908C18.5908 14.8692 19.2702 16.5868 20.0136 18.4583H13.6558C15.0615 16.5783 16.3604 14.8393 17.8089 12.908Z" fill="white"/>
</svg>
