<svg width="100" height="40" viewBox="0 0 100 40" fill="none" xmlns="http://www.w3.org/2000/svg">
<path d="M92.1137 7.81118C85.4543 7.8539 78.7948 7.81545 72.131 7.84108C69.4442 7.84963 69.897 7.37975 69.8073 10.1563C69.7816 10.985 70.0379 11.2584 70.8752 11.2413C73.3314 11.1943 75.7918 11.2242 78.248 11.2242C79.9481 11.2242 79.9268 11.2242 79.9524 12.8816C79.9994 15.5941 79.8499 18.3109 79.9866 21.0233C79.978 23.676 79.9097 27.8195 79.9866 28.3492C79.9866 28.4944 79.9951 29.9425 79.9866 30.5192C79.9823 30.7883 80.0165 31.1557 80.371 31.1471C81.3065 31.1215 82.2762 31.4718 83.1732 30.9335C83.5876 30.5875 83.3697 30.1177 83.3697 29.7161C83.3868 23.975 83.3996 18.2297 83.3569 12.4886C83.3483 11.5275 83.5918 11.1687 84.6085 11.1986C86.8255 11.2712 89.0467 11.2199 91.268 11.2199C93.4294 11.2199 93.3653 11.2199 93.4465 9.10549C93.4892 8.01622 93.1218 7.79837 92.1009 7.80691L92.1137 7.81118Z" fill="#B32C39"/>
<path d="M98.3461 11.2114C99.2602 11.1815 99.9821 10.4211 99.9565 9.51556C99.9351 8.60998 99.179 7.87098 98.2777 7.87525C97.3721 7.87525 96.6289 8.61425 96.6203 9.52411C96.6118 10.5066 97.3679 11.2456 98.3461 11.2114Z" fill="#B32C39"/>
<path d="M3.17827 19.6094C3.18681 18.7807 2.44782 18.0417 1.59349 18.0247C0.730618 18.0118 0.0172556 18.7124 0.00016902 19.5838C-0.0126459 20.4381 0.704989 21.1814 1.55932 21.1942C2.37093 21.207 3.16545 20.4253 3.17399 19.6094H3.17827Z" fill="#B32C39"/>
<path d="M9.2098 19.6137C9.21834 18.7679 8.49643 18.0332 7.64638 18.0247C6.75361 18.0161 6.08296 18.6825 6.07015 19.5753C6.0616 20.4424 6.76642 21.1857 7.61221 21.1899C8.43236 21.1985 9.20125 20.4381 9.2098 19.6094V19.6137Z" fill="#B32C39"/>
<path d="M15.4506 13.3558C14.5664 13.3472 13.8188 14.0606 13.8188 14.9106C13.8188 15.7094 14.6305 16.5253 15.4293 16.5296C16.2836 16.5339 17.014 15.8034 17.0268 14.932C17.0397 14.035 16.3647 13.3643 15.4506 13.3558Z" fill="#B32C39"/>
<path d="M11.8924 19.6265C11.9137 20.4723 12.6613 21.1771 13.5199 21.1643C14.3742 21.1515 15.079 20.4168 15.0534 19.5539C15.0278 18.6782 14.3229 18.0076 13.443 18.0289C12.5844 18.0503 11.8668 18.7893 11.8924 19.6308V19.6265Z" fill="#B32C39"/>
<path d="M2.32395 16.5125C3.18255 16.5296 3.90446 15.829 3.93009 14.9534C3.95572 14.0649 3.28507 13.36 2.40084 13.343C1.52088 13.3259 0.811793 14.0008 0.786163 14.8765C0.760533 15.7009 1.50807 16.4954 2.32395 16.5125Z" fill="#B32C39"/>
<path d="M19.6283 3.24908C20.5168 3.30888 21.3327 2.55707 21.3497 1.66857C21.3626 0.852691 20.615 0.0667101 19.7991 0.0368086C18.9405 0.00690717 18.2186 0.686097 18.1716 1.57033C18.1247 2.46737 18.7569 3.19355 19.6283 3.25335V3.24908Z" fill="#B32C39"/>
<path d="M15.032 10.0751C15.8778 10.0922 16.6382 9.34897 16.6467 8.49891C16.6553 7.66595 15.8992 6.88424 15.0748 6.86715C14.2717 6.85006 13.4515 7.65313 13.4515 8.45193C13.4515 9.29771 14.1905 10.0581 15.032 10.0751Z" fill="#B32C39"/>
<path d="M19.7607 21.16C20.6279 21.143 21.3412 20.4125 21.3156 19.5667C21.2943 18.6953 20.5809 18.0119 19.7095 18.0289C18.821 18.046 18.1418 18.738 18.1546 19.6137C18.1717 20.4766 18.8979 21.1814 19.7565 21.1643L19.7607 21.16Z" fill="#B32C39"/>
<path d="M15.0235 3.83003C15.8736 3.85139 16.6297 3.12521 16.6468 2.27088C16.6639 1.42083 15.9334 0.673292 15.0834 0.664749C14.1991 0.651934 13.4772 1.34394 13.4644 2.21108C13.4516 3.06541 14.1735 3.81294 15.0278 3.8343L15.0235 3.83003Z" fill="#B32C39"/>
<path d="M35.5273 12.1811C36.4286 12.1939 37.1292 11.5361 37.1377 10.6689C37.1463 9.77187 36.3731 8.98589 35.5017 9.00725C34.6773 9.0286 33.9426 9.7975 33.9554 10.6219C33.9682 11.5232 34.6217 12.1683 35.5273 12.1768V12.1811Z" fill="#B32C39"/>
<path d="M28.3766 12.5911C29.231 12.557 29.9614 11.8094 29.9358 10.9893C29.9059 10.0922 29.1156 9.37888 28.2143 9.43014C27.3386 9.4814 26.7022 10.2033 26.7491 11.0961C26.7919 11.9846 27.4967 12.6253 28.3809 12.5911H28.3766Z" fill="#B32C39"/>
<path d="M15.0705 35.5256C14.1137 35.4786 13.4302 36.1748 13.4345 37.1317C13.4345 38.08 14.1307 38.7677 15.0748 38.7506C15.9505 38.7378 16.7493 37.9433 16.6681 37.0719C16.5827 36.1321 16.0359 35.5683 15.0705 35.5213V35.5256Z" fill="#B32C39"/>
<path d="M7.03131 14.791C6.96724 15.6283 7.64216 16.4228 8.48794 16.4997C9.31237 16.5766 10.1154 15.8846 10.1881 15.0345C10.2607 14.1759 9.59857 13.407 8.7357 13.3558C7.85147 13.3002 7.09539 13.9367 7.03131 14.791Z" fill="#B32C39"/>
<path d="M24.3229 16.5339C25.1259 16.4783 25.8607 15.6582 25.8308 14.8551C25.7966 13.9965 25.0704 13.3301 24.1862 13.3515C23.3233 13.3729 22.6057 14.099 22.6142 14.9363C22.6228 15.7821 23.4856 16.5894 24.3229 16.5339Z" fill="#B32C39"/>
<path d="M24.2844 25.4573C25.1772 25.4231 25.8051 24.7354 25.7838 23.8213C25.7582 22.9114 25.0961 22.2579 24.2033 22.2579C23.3233 22.2579 22.5502 23.078 22.5929 23.9622C22.6313 24.761 23.4515 25.4829 24.2844 25.453V25.4573Z" fill="#B32C39"/>
<path d="M19.7052 11.7667C18.8167 11.8009 18.1461 12.5057 18.1632 13.3942C18.1802 14.2571 18.915 14.9747 19.7736 14.9619C20.5937 14.9491 21.3498 14.1546 21.3284 13.3259C21.3071 12.4801 20.5339 11.7411 19.7052 11.771V11.7667Z" fill="#B32C39"/>
<path d="M31.0763 25.8631C31.9648 25.8631 32.6397 25.1925 32.644 24.2954C32.644 23.4027 31.9861 22.7021 31.1105 22.6722C30.2561 22.6423 29.53 23.3172 29.4702 24.1929C29.4103 25.0857 30.1579 25.8588 31.0763 25.8631Z" fill="#B32C39"/>
<path d="M33.4001 19.6692C33.4214 18.7508 32.802 18.0375 31.9349 17.9862C31.0507 17.935 30.2134 18.691 30.1963 19.5624C30.1792 20.3655 30.9396 21.1387 31.7768 21.1729C32.6867 21.207 33.3787 20.5663 33.4001 19.6692Z" fill="#B32C39"/>
<path d="M7.0697 8.51601C7.93257 8.5032 8.62457 7.77702 8.61603 6.9056C8.60749 6.02138 7.91121 5.34646 7.02271 5.35927C6.15557 5.37209 5.45075 6.09399 5.46783 6.95259C5.48492 7.81119 6.21964 8.52883 7.0697 8.51601Z" fill="#B32C39"/>
<path d="M24.4468 10.0752C25.3097 10.0453 26.0145 9.30199 25.9931 8.44766C25.9718 7.60615 25.2029 6.85007 24.3827 6.87143C23.5711 6.89279 22.8236 7.68731 22.8321 8.50747C22.8449 9.34043 23.6309 10.1051 24.4468 10.0752Z" fill="#B32C39"/>
<path d="M32.6355 14.8978C32.6269 14.0051 31.9306 13.3301 31.0379 13.3515C30.1195 13.3771 29.4659 14.0478 29.4744 14.9448C29.4873 15.7863 30.2562 16.5509 31.0763 16.5339C31.9093 16.5168 32.6397 15.7479 32.6312 14.8978H32.6355Z" fill="#B32C39"/>
<path d="M35.6811 14.9747C35.758 15.8547 36.2407 16.4612 37.1634 16.551C37.9408 16.6278 38.7311 15.7949 38.7524 14.9448C38.7738 14.052 38.1032 13.3686 37.2018 13.3643C36.3518 13.3643 35.6085 14.1076 35.6854 14.9704L35.6811 14.9747Z" fill="#B32C39"/>
<path d="M9.59422 10.9081C9.5216 11.8052 10.1794 12.5399 11.0679 12.5826C11.9223 12.6253 12.6997 11.9077 12.7211 11.0576C12.7467 10.2247 11.9863 9.40451 11.1534 9.44295C10.2478 9.48567 9.66684 9.96409 9.58995 10.9081H9.59422Z" fill="#B32C39"/>
<path d="M19.7052 9.06705C20.5724 9.07132 21.3199 8.37077 21.3456 7.52926C21.3669 6.71765 20.6108 5.94021 19.7693 5.91885C18.9064 5.89322 18.1888 6.5895 18.1632 7.47373C18.1376 8.3665 18.8125 9.06278 19.7052 9.07132V9.06705Z" fill="#B32C39"/>
<path d="M32.4774 8.50746C33.43 8.50746 33.8913 7.92225 34.0237 7.14908C34.0835 6.15379 33.4086 5.36354 32.5543 5.35927C31.5846 5.355 31.119 5.96584 30.9994 6.83725C30.8798 7.67877 31.6316 8.51601 32.4774 8.51173V8.50746Z" fill="#B32C39"/>
<path d="M24.4296 3.83001C25.2626 3.81293 25.9888 3.06966 25.993 2.21961C25.9973 1.37382 25.2669 0.651917 24.404 0.66046C23.5369 0.669003 22.8363 1.37382 22.8363 2.24524C22.8363 3.06966 23.6137 3.84283 24.4254 3.82574L24.4296 3.83001Z" fill="#B32C39"/>
<path d="M37.0609 22.6679C36.1895 22.6978 35.5274 23.4197 35.5487 24.3211C35.5658 25.2053 36.2834 25.9229 37.1335 25.9016C37.9707 25.8802 38.7439 25.1198 38.7567 24.3125C38.7653 23.4625 37.9237 22.6423 37.0651 22.6722L37.0609 22.6679Z" fill="#B32C39"/>
<path d="M35.6 27.166C34.7926 27.1361 33.9469 27.9007 33.9298 28.6781C33.9084 29.4983 34.6346 30.3099 35.4419 30.3697C36.3005 30.4295 37.1292 29.6563 37.1591 28.7721C37.1848 27.9391 36.4671 27.2001 35.6043 27.166H35.6Z" fill="#B32C39"/>
<path d="M28.5219 29.7503C29.3549 29.7503 30.1707 28.9899 30.1835 28.2125C30.1964 27.418 29.2822 26.5209 28.4834 26.5466C27.6078 26.5722 26.9713 27.2685 26.9798 28.1912C26.9884 29.1565 27.5821 29.7546 28.5262 29.7503H28.5219Z" fill="#B32C39"/>
<path d="M19.7094 33.2958C20.5424 33.3043 21.3369 32.561 21.3711 31.7366C21.4053 30.8695 20.5937 30.045 19.7137 30.0536C18.8508 30.0621 18.1588 30.7798 18.1631 31.6725C18.1631 32.5738 18.8423 33.2829 19.7094 33.2915V33.2958Z" fill="#B32C39"/>
<path d="M24.6731 35.517C23.7931 35.5085 22.9645 36.3244 22.9901 37.1701C23.0157 37.9775 23.7974 38.725 24.6347 38.7464C25.4292 38.7635 26.2109 37.9818 26.2194 37.1531C26.228 36.3158 25.4804 35.5256 24.6774 35.517H24.6731Z" fill="#B32C39"/>
<path d="M28.9447 5.54295C29.8332 5.52159 30.5295 4.8125 30.5039 3.94963C30.4782 3.08248 29.7392 2.39902 28.8636 2.42892C27.9708 2.45882 27.283 3.17219 27.313 4.03933C27.3429 4.94492 28.0178 5.5643 28.9447 5.54295Z" fill="#B32C39"/>
<path d="M24.6304 29.0882C23.7504 29.1096 22.9388 29.9468 22.9901 30.7798C23.0371 31.5743 23.8914 32.356 24.6646 32.3218C25.4805 32.2834 26.2323 31.4846 26.2195 30.6815C26.2024 29.8571 25.4207 29.0711 24.6347 29.0882H24.6304Z" fill="#B32C39"/>
<path d="M10.7006 5.56431C11.6233 5.49169 12.0632 4.90221 12.1487 4.18457C12.1444 3.14229 11.4097 2.3136 10.628 2.39903C9.72664 2.49728 9.23114 3.06113 9.18415 3.97099C9.14143 4.83386 9.87615 5.63266 10.7006 5.56431Z" fill="#B32C39"/>
<path d="M28.9064 33.8126C28.0819 33.8126 27.3045 34.5559 27.2746 35.376C27.2447 36.1321 28.0691 36.9907 28.8423 37.0121C29.718 37.0377 30.5082 36.2517 30.5125 35.3547C30.5125 34.4875 29.8119 33.8126 28.9106 33.8126H28.9064Z" fill="#B32C39"/>
<path d="M37.74 17.9819C36.8814 18.0076 36.2279 18.7423 36.2919 19.6479C36.356 20.5577 36.8643 21.1002 37.7785 21.16C38.6029 21.2156 39.3205 20.4168 39.2992 19.5496C39.2778 18.644 38.5943 17.952 37.74 17.9777V17.9819Z" fill="#B32C39"/>
<path d="M19.7863 24.1801C18.9107 24.1801 18.146 24.9789 18.1631 25.8759C18.1802 26.8114 18.8039 27.4052 19.7564 27.3881C20.5809 27.3753 21.4053 26.5936 21.4053 25.8375C21.4053 25.1241 20.4826 24.1844 19.7863 24.1801Z" fill="#B32C39"/>
<path d="M25.9375 17.9905C25.1387 17.9691 24.3741 18.7637 24.4125 19.618C24.4552 20.5236 24.9123 21.0832 25.8734 21.1729C26.7619 21.0832 27.3172 20.6432 27.3642 19.6863C27.4069 18.7508 26.7833 18.0076 25.9375 17.9862V17.9905Z" fill="#B32C39"/>
<path d="M19.7736 36.1663C18.8339 36.1449 18.1974 36.7344 18.1675 37.6528C18.1376 38.5926 18.7228 39.2333 19.6455 39.2718C20.5254 39.306 21.4011 38.5328 21.4054 37.7254C21.4054 36.9651 20.5938 36.1877 19.7736 36.1663Z" fill="#B32C39"/>
<path d="M4.0155 12.1554C4.95526 12.1554 5.39524 11.5489 5.51485 10.6903C5.45932 9.7505 4.96808 9.18665 4.09239 9.04995C3.29787 8.92608 2.5546 9.73769 2.58023 10.6347C2.60586 11.5489 3.0672 12.1512 4.0155 12.1554Z" fill="#B32C39"/>
<path d="M15.3823 22.2066C14.6434 22.2408 13.8659 23.1207 13.8873 23.8982C13.9129 24.8294 14.5494 25.4744 15.4379 25.4701C16.352 25.4659 16.9799 24.8336 16.9757 23.9195C16.9757 23.0652 16.1384 22.1724 15.3781 22.2066H15.3823Z" fill="#B32C39"/>
<path d="M32.5415 30.8225C31.6914 30.9335 31.0806 31.412 31.0336 32.356C30.9866 33.2958 31.6188 34.0177 32.4646 34.0305C33.3616 34.0433 34.0451 33.3812 34.0536 32.4884C34.0622 31.664 33.2719 30.7285 32.5372 30.8267L32.5415 30.8225Z" fill="#B32C39"/>
<path d="M7.04412 30.9378C6.09581 30.9549 5.53623 31.5444 5.54904 32.5098C5.56186 33.4794 6.15989 34.0647 7.0911 34.0262C8.02232 33.9878 8.65879 33.3342 8.63316 32.4457C8.60753 31.5316 7.96252 30.9165 7.04412 30.9378Z" fill="#B32C39"/>
<path d="M8.57332 25.735C9.53871 25.6965 9.9915 25.1925 10.0769 24.5261C10.0769 23.3258 9.46182 22.6679 8.5605 22.6594C7.82578 22.6508 6.91592 23.5735 7.0099 24.3253C7.12096 25.1967 7.56094 25.7734 8.57332 25.7307V25.735Z" fill="#B32C39"/>
<path d="M11.3627 26.6747C10.3973 26.632 9.93598 27.1745 9.83773 27.8452C9.82065 29.0284 10.4699 29.7717 11.2944 29.7503C12.0675 29.7289 12.9389 28.8917 12.9048 28.1271C12.8578 27.1873 12.2768 26.7174 11.3627 26.6747Z" fill="#B32C39"/>
<path d="M3.89168 24.5261C3.89168 23.5351 3.02881 22.6423 2.31544 22.6594C1.64052 22.6765 0.786198 23.5564 0.794741 24.2228C0.807556 25.1327 1.45257 25.7392 2.38379 25.7307C3.34064 25.7222 3.80624 25.2053 3.88741 24.5261H3.89168Z" fill="#B32C39"/>
<path d="M4.23764 27.1916C3.53709 27.1147 2.62724 28.1228 2.72975 28.8618C2.84082 29.652 3.20818 30.2714 4.16502 30.2458C5.07061 30.2244 5.69854 29.5709 5.67291 28.7892C5.56612 27.8024 5.06634 27.2813 4.23764 27.1916Z" fill="#B32C39"/>
<path d="M15.1688 29.289C14.2461 29.3274 13.6523 29.8357 13.6694 30.7456C13.6865 31.5572 14.1948 32.1424 15.062 32.2279C15.7412 32.2919 16.7279 31.3693 16.7365 30.7285C16.745 29.9938 15.9676 29.2591 15.1688 29.289Z" fill="#B32C39"/>
<path d="M10.7177 33.9963C9.79935 33.9963 9.3252 34.385 9.3252 35.3333C9.3252 36.209 9.72246 36.807 10.5939 36.8668C11.4995 36.9309 11.9053 36.3201 12.0163 35.4956C11.9223 34.6755 11.7344 33.9963 10.7135 33.992L10.7177 33.9963Z" fill="#B32C39"/>
<path d="M99.9052 30.9464C99.2346 31.5316 97.1799 31.5316 96.5306 30.9464C96.5264 29.588 96.505 26.8712 96.505 26.8712C96.505 26.8712 96.4751 16.6577 96.4367 14.932C96.4238 14.3254 96.6545 14.1247 97.2696 14.0948C100.003 13.9495 100.008 13.9282 99.9992 16.5937C99.9949 17.8153 99.918 29.4427 99.9095 30.9464H99.9052Z" fill="#B32C39"/>
<path d="M70.9051 22.2749C70.9179 21.7495 70.8581 21.16 70.4309 20.7286C70.4779 20.5919 70.4394 20.4979 70.2899 20.4638C70.1874 20.31 70.0849 20.1562 69.9824 20.0024C70.0166 19.8572 69.9482 19.7888 69.8158 19.7632C69.6876 19.4172 69.4185 19.2079 69.1024 19.0456L69.1409 19.0584L69.1366 19.037H69.111C68.6966 18.7893 68.278 18.5501 67.7825 18.4988C67.5134 18.1186 67.5177 17.6872 67.5177 17.2472C67.5219 15.9401 67.5219 14.6373 67.5177 13.3301C67.5048 9.83166 65.5741 7.86244 62.0884 7.84535C57.4964 7.824 52.9001 7.87098 48.3081 7.81545C47.2744 7.80264 47.0608 8.16573 47.0693 9.11403C47.0821 10.5279 47.0864 11.9461 47.0864 13.36H47.0522V29.9511H47.1719C47.1633 30.0707 47.159 30.1945 47.1505 30.3142C47.1035 30.9933 47.3897 31.2027 48.0475 31.1984C54.1731 31.177 60.2986 31.1984 66.4284 31.1642C67.8423 31.1557 69.0042 30.5192 69.8329 29.336C69.9781 29.3018 70.0379 29.2078 70.0208 29.0583C70.3497 28.7635 70.5761 28.4218 70.5761 27.9605C71.3322 26.1023 70.8623 24.1673 70.9008 22.2664L70.9051 22.2749ZM50.3927 17.6488C50.4226 16.1494 50.4439 14.6501 50.4781 13.1507C50.508 11.7966 51.0847 11.2242 52.4516 11.2199C55.6938 11.2114 58.9402 11.2071 62.1824 11.2199C63.592 11.2242 64.1388 11.7539 64.1473 13.1379C64.1601 14.7184 64.126 16.2989 64.1089 17.8794C59.7817 17.8965 55.4588 17.9093 51.1317 17.9307C50.8455 17.9307 50.5849 17.8837 50.3884 17.6488H50.3927ZM50.2901 22.5056C50.2731 22.4586 50.256 22.4159 50.2389 22.3689C50.256 22.4159 50.2773 22.4543 50.2901 22.5056ZM67.6757 26.4526C67.287 27.529 66.5309 27.9092 65.3818 27.8964C61.2255 27.8494 57.065 27.8793 52.9087 27.8751C51.1231 27.8751 50.7771 27.6059 50.3713 25.9186C50.3799 25.453 50.3884 24.9917 50.3927 24.5261C50.3841 23.8255 50.3756 23.125 50.367 22.4244C50.5336 22.1041 50.4952 21.7752 50.4354 21.442C50.7259 21.1515 51.1018 21.2455 51.4478 21.2455C56.185 21.2412 60.918 21.2583 65.6552 21.2327C66.7018 21.2284 67.4066 21.5829 67.6842 22.6295C67.6885 22.7064 67.6971 22.7833 67.7013 22.8602C67.6458 23.5778 67.5903 24.2911 67.7355 25.0045C67.7184 25.4872 67.6971 25.9699 67.68 26.4526H67.6757Z" fill="#B32C39"/>
</svg>
