<svg width="100" height="21" viewBox="0 0 100 21" fill="none" xmlns="http://www.w3.org/2000/svg">
<g clip-path="url(#clip0_404_2133)">
<path d="M16.2659 2.14815H27.4449V4.71085H19.1712V8.44862H24.6793V11.0113H19.1712V15.1964H27.7013V17.7591H16.267V2.14815H16.2659Z" fill="#1C1C1B"/>
<path d="M26.896 6.66151H29.8706L32.4734 14.3963L34.8903 6.66151H37.7725L33.7748 17.758H31.1016L26.8949 6.66151H26.896Z" fill="#1C1C1B"/>
<path d="M37.316 12.2331C37.316 8.8481 39.6405 6.45009 42.9639 6.45009C46.2872 6.45009 48.5886 8.8481 48.5886 12.2331C48.5886 15.6182 46.2179 17.9694 42.8946 17.9694C39.5712 17.9694 37.3171 15.6182 37.3171 12.2331H37.316ZM45.6602 12.3032V12.2098C45.6602 10.0944 44.6371 8.82473 42.9639 8.82473C41.2906 8.82473 40.2445 10.0944 40.2445 12.2098V12.3032C40.2445 14.3719 41.2433 15.5948 42.9177 15.5948C44.592 15.5948 45.6602 14.3719 45.6602 12.3032Z" fill="#1C1C1B"/>
<path d="M49.8977 1.93561H52.803V17.7569H49.8977V1.93561Z" fill="#1C1C1B"/>
<path d="M54.4608 13.3147V6.66151H57.343V13.15C57.343 14.6311 58.0405 15.5013 59.3419 15.5013C60.8523 15.5013 61.4805 14.2083 61.4805 12.3043V6.66263H64.3627V17.7591H61.4805V16.1846C60.8996 17.3363 59.8996 17.9717 58.4827 17.9717C55.9954 17.9717 54.4619 16.1846 54.4619 13.317L54.4608 13.3147Z" fill="#1C1C1B"/>
<path d="M66.9963 14.8192V9.01279H65.4386V6.66152H66.9963V4.56952L69.8081 2.97047V6.66152H71.9698V9.01279H69.785V14.5377C69.785 15.0785 70.0403 15.3133 70.5749 15.3366H71.8532V17.758H69.6222C67.5079 17.6401 67.0425 16.653 66.9963 14.8192Z" fill="#1C1C1B"/>
<path d="M73.28 2.19489H76.2778V5.03911H73.28V2.19489ZM73.3262 6.66152H76.2316V17.758H73.3262V6.66152Z" fill="#1C1C1B"/>
<path d="M77.5406 12.2331C77.5406 8.8481 79.8651 6.45009 83.1885 6.45009C86.5119 6.45009 88.8132 8.8481 88.8132 12.2331C88.8132 15.6182 86.4425 17.9694 83.1192 17.9694C79.7958 17.9694 77.5418 15.6182 77.5418 12.2331H77.5406ZM85.8848 12.3032V12.2098C85.8848 10.0944 84.8617 8.82473 83.1885 8.82473C81.5153 8.82473 80.4691 10.0944 80.4691 12.2098V12.3032C80.4691 14.3719 81.468 15.5948 83.1412 15.5948C84.8144 15.5948 85.8837 14.3719 85.8837 12.3032H85.8848Z" fill="#1C1C1B"/>
<path d="M90.0992 6.66152H92.9815V8.47199C93.5623 7.17896 94.6316 6.42673 96.1893 6.42673C98.5831 6.42673 100.001 8.04914 100.001 11.1048V17.758H97.1189V11.2695C97.1189 9.71829 96.538 8.91821 95.1904 8.91821C93.8428 8.91821 92.9826 10.0466 92.9826 12.1152V17.7569H90.1003V6.66152H90.0992Z" fill="#1C1C1B"/>
<path d="M9.95688 10.0365C5.36842 10.2658 3.21335 11.9583 1.86795 14.0458C1.07588 15.2743 0.564344 16.6386 0 17.9216C5.56643 20.9283 12.7544 17.758 13.2945 10.1033C12.0558 10.0054 10.9503 9.98647 9.95688 10.0365Z" fill="#1C1C1B"/>
<path d="M10.332 9.40992C11.2275 9.43885 12.2099 9.41437 13.2945 9.32758C13.1383 7.11874 12.4277 5.28379 11.3628 3.86167C8.73798 0.359802 3.95921 -0.628333 0 1.5104C1.54782 5.03342 2.70731 9.16845 10.332 9.40992Z" fill="#1C1C1B"/>
<path d="M12.1692 19.8044C11.6742 19.8044 11.2737 19.3982 11.2737 18.8975C11.2737 18.3956 11.6753 17.9906 12.1692 17.9906C12.6631 17.9906 13.0647 18.3956 13.0658 18.8975C13.0658 19.3982 12.6653 19.8044 12.1692 19.8044ZM12.1692 17.758C11.5488 17.758 11.0449 18.2688 11.0449 18.8975C11.0449 19.5262 11.5488 20.0359 12.1692 20.0359C12.7897 20.0359 13.2946 19.5262 13.2946 18.8975C13.2946 18.2688 12.7908 17.758 12.1692 17.758Z" fill="#1C1C1B"/>
<path d="M11.739 18.7128H11.5707V18.6004H12.0481V18.7128H11.8809V19.1946H11.739V18.7128Z" fill="#1C1C1B"/>
<path d="M12.1075 18.5993H12.332L12.4398 18.9787L12.552 18.5993H12.7709V19.1935H12.6312V18.7139L12.4827 19.1935H12.3716L12.2286 18.7161V19.1935H12.1075V18.5993Z" fill="#1C1C1B"/>
</g>
<defs>
<clipPath id="clip0_404_2133">
<rect width="100" height="19.6481" fill="white" transform="translate(0 0.387756)"/>
</clipPath>
</defs>
</svg>
