<svg width="100" height="20" viewBox="0 0 100 20" fill="none" xmlns="http://www.w3.org/2000/svg">
<g clip-path="url(#clip0_404_2310)">
<path d="M16.2659 1.73706H27.4449V4.2658H19.1712V7.95406H24.6793V10.4828H19.1712V14.6125H27.7013V17.1412H16.267V1.73706H16.2659Z" fill="white"/>
<path d="M26.8961 6.19067H29.8708L32.4736 13.823L34.8904 6.19067H37.7727L33.775 17.1401H31.1017L26.895 6.19067H26.8961Z" fill="white"/>
<path d="M37.3159 11.6883C37.3159 8.34817 39.6404 5.98193 42.9638 5.98193C46.2871 5.98193 48.5885 8.34817 48.5885 11.6883C48.5885 15.0285 46.2178 17.3486 42.8945 17.3486C39.5711 17.3486 37.317 15.0285 37.317 11.6883H37.3159ZM45.6601 11.7575V11.6653C45.6601 9.57795 44.637 8.32511 42.9638 8.32511C41.2905 8.32511 40.2443 9.57795 40.2443 11.6653V11.7575C40.2443 13.7987 41.2432 15.0055 42.9176 15.0055C44.5919 15.0055 45.6601 13.7987 45.6601 11.7575Z" fill="white"/>
<path d="M49.8977 1.52734H52.803V17.139H49.8977V1.52734Z" fill="white"/>
<path d="M54.4609 12.7557V6.19067H57.3432V12.5932C57.3432 14.0547 58.0406 14.9134 59.342 14.9134C60.8524 14.9134 61.4806 13.6375 61.4806 11.7587V6.19177H64.3628V17.1412H61.4806V15.5875C60.8997 16.724 59.8998 17.351 58.4829 17.351C55.9956 17.351 54.462 15.5875 54.462 12.7579L54.4609 12.7557Z" fill="white"/>
<path d="M66.9964 14.2403V8.51084H65.4387V6.19072H66.9964V4.12644L69.8083 2.54858V6.19072H71.9699V8.51084H69.7852V13.9625C69.7852 14.4961 70.0404 14.7278 70.575 14.7509H71.8533V17.1402H69.6224C67.508 17.0238 67.0426 16.0498 66.9964 14.2403Z" fill="white"/>
<path d="M73.28 1.7832H76.2778V4.58974H73.28V1.7832ZM73.3262 6.19066H76.2316V17.1401H73.3262V6.19066Z" fill="white"/>
<path d="M77.5405 11.6883C77.5405 8.34817 79.865 5.98193 83.1884 5.98193C86.5117 5.98193 88.8131 8.34817 88.8131 11.6883C88.8131 15.0285 86.4424 17.3486 83.1191 17.3486C79.7957 17.3486 77.5416 15.0285 77.5416 11.6883H77.5405ZM85.8847 11.7575V11.6653C85.8847 9.57795 84.8616 8.32511 83.1884 8.32511C81.5151 8.32511 80.469 9.57795 80.469 11.6653V11.7575C80.469 13.7987 81.4678 15.0055 83.1411 15.0055C84.8143 15.0055 85.8836 13.7987 85.8836 11.7575H85.8847Z" fill="white"/>
<path d="M90.0991 6.19067H92.9813V7.97715C93.5622 6.70125 94.6315 5.95898 96.1892 5.95898C98.583 5.95898 100.001 7.5599 100.001 10.5751V17.1401H97.1188V10.7376C97.1188 9.20693 96.5379 8.41745 95.1903 8.41745C93.8427 8.41745 92.9824 9.53085 92.9824 11.5721V17.139H90.1002V6.19067H90.0991Z" fill="white"/>
<path d="M9.95688 9.52107C5.36842 9.74726 3.21335 11.4174 1.86795 13.4772C1.07588 14.6895 0.564344 16.0356 0 17.3016C5.56643 20.2685 12.7544 17.1402 13.2945 9.58695C12.0558 9.49033 10.9503 9.47166 9.95688 9.52107Z" fill="white"/>
<path d="M10.332 8.90248C11.2275 8.93103 12.2099 8.90687 13.2945 8.82122C13.1383 6.64165 12.4277 4.83102 11.3628 3.42775C8.73798 -0.0277256 3.95921 -1.00277 0 1.10763C1.54782 4.58396 2.70731 8.66421 10.332 8.90248Z" fill="white"/>
<path d="M12.1692 19.1594C11.6742 19.1594 11.2737 18.7586 11.2737 18.2645C11.2737 17.7693 11.6753 17.3696 12.1692 17.3696C12.6631 17.3696 13.0647 17.7693 13.0658 18.2645C13.0658 18.7586 12.6653 19.1594 12.1692 19.1594ZM12.1692 17.1401C11.5488 17.1401 11.0449 17.6441 11.0449 18.2645C11.0449 18.8849 11.5488 19.3878 12.1692 19.3878C12.7897 19.3878 13.2946 18.8849 13.2946 18.2645C13.2946 17.6441 12.7908 17.1401 12.1692 17.1401Z" fill="white"/>
<path d="M11.7391 18.0828H11.5708V17.9719H12.0482V18.0828H11.881V18.5583H11.7391V18.0828Z" fill="white"/>
<path d="M12.1077 17.9702H12.3321L12.4399 18.3446L12.5521 17.9702H12.771V18.5566H12.6313V18.0833L12.4828 18.5566H12.3717L12.2287 18.0855V18.5566H12.1077V17.9702Z" fill="white"/>
</g>
<defs>
<clipPath id="clip0_404_2310">
<rect width="100" height="19.3878" fill="white"/>
</clipPath>
</defs>
</svg>
