<svg width="100" height="64" viewBox="0 0 100 64" fill="none" xmlns="http://www.w3.org/2000/svg">
<path d="M20.2116 16.8228C21.1616 16.5675 33.1476 16.4712 35.2736 16.6972C35.3029 16.9441 35.3573 17.2078 35.3573 17.4715C35.3657 22.8116 35.3699 28.1518 35.3657 33.4919C35.3657 35.1953 34.3822 36.2206 32.6789 36.2373C29.8875 36.2666 27.096 36.2457 24.3046 36.2457C18.9979 36.2457 13.6912 36.2331 8.38454 36.2499C6.02834 36.2583 4.00695 35.4966 2.33292 33.8225C0.809551 32.2992 0.035312 30.441 0.0227568 28.3234C-0.0149089 21.8072 0.00183134 15.2869 0.0185716 8.76651C0.0311269 4.05411 3.81443 0.609794 8.17947 0.630719C14.5492 0.6642 20.9147 0.672566 27.2843 0.62653C30.4315 0.605605 34.3404 2.67722 35.2443 7.17199C35.2695 7.28918 35.3071 7.40218 35.3071 7.51936C35.3071 9.82952 35.3071 12.1355 35.3071 14.5461C34.851 14.567 34.4366 14.6005 34.0181 14.6005C28.9081 14.6005 23.7982 14.6005 18.6882 14.6005C17.7758 14.6005 16.8844 14.6884 16.0516 15.1027C14.7793 15.7388 14.0637 16.7433 14.0595 18.1829C14.0511 20.8153 14.0469 23.4436 14.093 26.076C14.1181 27.5156 14.6705 28.7502 15.8507 29.6375C16.8384 30.3824 17.9307 30.6503 19.1737 30.4075C20.2325 30.2025 21.1992 29.8049 22.0907 29.219C22.7645 28.7795 23.162 28.1518 23.0909 27.3441C23.0323 26.6912 22.936 26.0174 22.7184 25.4022C21.9191 23.1506 21.0737 20.9116 20.2241 18.6809C19.9939 18.0699 19.8558 17.4882 20.2116 16.8186V16.8228Z" fill="url(#paint0_linear_404_2266)"/>
<path d="M76.7519 14.249H69.8549C69.7879 14.1694 69.7042 14.1192 69.6916 14.0565C69.1811 11.65 67.4484 11.3445 65.6196 11.3613C63.5605 11.378 62.0915 12.4452 61.3257 14.3075C60.2417 16.9525 60.2124 19.677 61.242 22.3429C62.4054 25.3436 65.3517 26.3062 68.2269 25.4733C69.6289 25.0674 70.2441 23.9458 70.5203 22.6024C70.5914 22.2592 70.6082 21.9035 70.6542 21.4892C69.8339 21.1962 68.9718 21.3971 68.1348 21.3594C67.2727 21.3217 66.4105 21.351 65.5108 21.351C65.2429 20.5098 65.4061 19.6896 65.3768 18.8818C65.3517 18.1034 65.3726 17.3292 65.3726 16.488H77.3378C77.3378 17.664 77.3838 18.8274 77.3294 19.9909C77.2373 21.9495 77.0281 23.8914 76.3794 25.7621C75.3331 28.7795 73.2741 30.7214 70.1604 31.4371C67.2057 32.115 64.2427 32.0816 61.3382 31.1357C57.6637 29.943 55.2489 27.4403 54.1734 23.7826C53.0016 19.8026 53.0476 15.8016 54.7426 11.943C56.291 8.41916 59.0406 6.32661 62.8072 5.59841C65.0671 5.16316 67.3187 5.22175 69.5703 5.78255C73.3327 6.72001 76.5426 9.82115 76.756 14.2531L76.7519 14.249Z" fill="url(#paint1_linear_404_2266)"/>
<path d="M78.2459 5.3808H86.0678C87.0053 7.75374 87.9511 10.1434 88.9974 12.7842C89.9641 10.1811 90.8388 7.8207 91.7302 5.40591H99.5647C97.5475 9.57843 95.568 13.6631 93.5675 17.8021C95.6935 22.4559 97.8279 27.1181 99.9999 31.8723H92.0483C91.1318 29.265 90.2069 26.62 89.2192 23.8119C88.5747 24.7451 88.3362 25.6868 87.9595 26.5573C87.5828 27.4194 87.2438 28.2941 86.8881 29.1646C86.5198 30.0644 86.1474 30.9641 85.7707 31.8807H77.8232C80.1334 27.3315 82.3975 22.8702 84.6868 18.3629C82.5691 14.0983 80.4473 9.81279 78.2501 5.3808H78.2459Z" fill="url(#paint2_linear_404_2266)"/>
<path d="M52.3069 62.9925C52.2608 62.415 52.1771 61.8751 52.1771 61.3352C52.1771 55.4887 52.1855 49.6463 52.1939 43.7998C52.1939 43.5654 52.219 43.3352 52.2441 42.9586C52.6668 42.9376 53.0811 42.9 53.4954 42.9C58.1283 42.8958 62.7654 42.9 67.3982 42.8958C69.0848 42.8958 70.7756 42.8665 72.4622 42.8497C72.843 42.8497 73.2239 42.8497 73.6675 42.8497C73.6968 43.3143 73.7344 43.6575 73.7344 44.0048C73.747 49.1064 73.7595 54.2039 73.7512 59.3055C73.7512 59.8495 73.701 60.4061 73.5712 60.9335C73.2406 62.2811 72.2362 63.0678 70.8426 63.072C64.9123 63.0846 58.982 63.0762 53.0476 63.072C52.8216 63.072 52.5914 63.026 52.2985 62.9925H52.3069ZM55.7051 45.6705V60.1843C57.6386 60.3726 69.1309 60.3057 70.0934 60.0881C70.5036 59.2092 70.2525 58.2215 70.2901 57.2673C70.332 56.288 70.2985 55.3087 70.2985 54.3252C70.2985 53.3836 70.311 52.4419 70.311 51.5045C70.311 50.5252 70.3362 49.5417 70.3027 48.5624C70.2734 47.604 70.445 46.6289 70.1813 45.6705H55.701H55.7051Z" fill="url(#paint3_linear_404_2266)"/>
<path d="M44.5938 31.8137V5.51888C45.4642 5.29288 49.7665 5.24267 51.3485 5.44355V31.7593C50.524 31.956 46.205 31.9979 44.5938 31.8137Z" fill="url(#paint4_linear_404_2266)"/>
<path d="M80.9913 63.0051H77.8944C77.8484 56.3089 78.066 49.6756 77.999 42.9711H85.9381C85.5489 45.9174 85.1722 48.78 84.783 51.7179C85.2601 51.7556 85.6786 51.7849 86.2394 51.8267C85.5656 55.1873 84.9044 58.4977 84.239 61.8249H81.3178C81.5647 59.2343 82.2803 56.7944 82.5984 54.208C82.2008 54.1285 81.8325 54.0574 81.3303 53.9569C81.4852 51.2157 82.1255 48.5163 82.3724 45.6914H80.9913V63.0009V63.0051Z" fill="url(#paint5_linear_404_2266)"/>
<path d="M3.93998 55.3673V62.913C3.37081 63.1976 2.8142 63.0344 2.28269 63.0637C1.78049 63.0929 1.27828 63.0678 0.709106 63.0678V53.0613C1.03136 53.0362 1.33268 52.9902 1.63401 52.9902C7.45126 52.986 13.2685 53.032 19.0858 52.9651C21.1699 52.94 22.1785 54.2959 22.1325 56.0118C22.0948 57.3469 22.1618 58.6819 22.1074 60.0169C22.0865 60.5903 21.94 61.1762 21.7349 61.7161C21.4461 62.4694 20.7891 62.9339 20.0316 63.0176C19.0314 63.1264 18.0102 63.0427 16.8719 63.0427C17.1188 62.2936 17.3197 61.6742 17.5205 61.059C17.9516 60.9167 18.345 60.787 18.8388 60.6238C18.8388 59.1799 18.8681 57.7737 18.8263 56.3675C18.8096 55.7523 18.3785 55.405 17.7465 55.3296C17.5917 55.3129 17.4327 55.3213 17.2736 55.3213C13.1053 55.3213 8.94115 55.3213 4.77281 55.3213C4.54263 55.3213 4.31246 55.3422 3.93161 55.3589L3.93998 55.3673Z" fill="url(#paint6_linear_404_2266)"/>
<path d="M21.1406 46.9553C21.1406 48.0434 21.1908 49.0186 21.128 49.9853C21.0694 50.8516 20.6342 51.5422 19.7386 52.0025H2.01478C1.76368 51.2032 1.92271 50.3829 1.89342 49.5752C1.86831 48.7549 1.88923 47.9346 1.88923 47.1813C1.97293 47.0809 1.99386 47.0516 2.02315 47.0265C2.05245 47.0013 2.08593 46.9595 2.11523 46.9595C8.07896 46.9386 14.0469 46.9176 20.0106 46.9009C20.3203 46.9009 20.63 46.9302 21.1406 46.9511V46.9553ZM17.826 50.1192C17.8637 49.7342 17.9013 49.5082 17.9013 49.278C17.9013 49.1734 17.8302 49.0688 17.78 48.9348H5.21637V50.115H17.8218L17.826 50.1192Z" fill="url(#paint7_linear_404_2266)"/>
<path d="M95.0072 50.5461C95.0072 51.3831 95.0072 52.0444 95.0072 52.7056C95.0072 55.0953 95.0072 57.4892 95.0114 59.8788C95.0114 60.9125 94.7058 61.8333 93.8563 62.4527C93.4629 62.7414 92.9523 62.98 92.4752 63.026C91.5084 63.1139 90.5291 63.0511 89.4787 63.0511C89.6377 62.0969 89.7842 61.2264 89.939 60.3183C90.3785 60.2764 90.7593 60.2387 91.2657 60.1885C91.362 59.8914 91.5503 59.5775 91.5545 59.2636C91.5754 56.4806 91.5629 53.6975 91.5545 50.9186C91.5545 50.8516 91.4959 50.7805 91.408 50.5754H87.1309V47.8677H99.4224V50.5461H95.003H95.0072Z" fill="url(#paint8_linear_404_2266)"/>
<path d="M47.8121 44.687C47.3727 46.2313 46.9667 47.6458 46.5482 49.119H42.6854C42.8486 48.487 42.9951 47.9053 43.1625 47.2566C42.1204 46.993 41.1076 47.1604 40.1074 47.1311C39.0862 47.1018 38.0651 47.1227 37.0481 47.1227H30.9253C29.9167 47.1227 28.9081 47.1227 27.7531 47.1227C28.113 45.6412 28.6947 44.4233 29.176 43.0548C30.4231 42.9962 31.6577 42.9878 32.9928 43.0757C32.8463 43.5821 32.7249 44.0174 32.5617 44.5824C32.9802 44.6033 33.3527 44.641 33.721 44.641C37.9604 44.641 42.1999 44.6409 46.4352 44.6451C46.8537 44.6451 47.2764 44.6703 47.8121 44.6912V44.687Z" fill="url(#paint9_linear_404_2266)"/>
<path d="M5.17039 56.288H17.395C17.395 57.5519 17.4536 58.7656 17.3783 59.9667C17.3155 60.967 16.5538 61.6491 15.5954 61.6533C12.1762 61.67 8.757 61.6617 5.29176 61.6617C5.03647 60.7451 5.20387 59.8453 5.17458 58.9623C5.14528 58.1044 5.16621 57.2464 5.16621 56.288H5.17039ZM8.31757 59.7742H14.2185C14.2604 59.1925 14.298 58.6693 14.3357 58.1713C13.348 57.8867 9.2885 57.8742 8.32175 58.1253V59.7742H8.31757Z" fill="url(#paint10_linear_404_2266)"/>
<path d="M35.6712 48.9307H39.0485C39.0778 49.232 39.1281 49.5333 39.1281 49.8346C39.1364 53.1325 39.149 56.4303 39.1406 59.724C39.1364 61.9295 38.0148 63.0176 35.7842 63.026C35.0434 63.026 34.3027 63.026 33.4866 63.026C33.5786 62.0885 34.0013 61.398 34.311 60.6447C34.6751 60.5735 35.0183 60.5024 35.487 60.4103C35.5414 59.9667 35.6461 59.5189 35.6461 59.0711C35.667 56.129 35.667 53.1869 35.6712 50.2448C35.6712 49.8221 35.6712 49.3994 35.6712 48.9265V48.9307Z" fill="url(#paint11_linear_404_2266)"/>
<path d="M22.2957 43.7579V45.817H0.78864C0.76353 45.5198 0.730049 45.2185 0.717494 44.9214C0.704939 44.6075 0.717494 44.2936 0.717494 43.896C1.6968 43.6951 2.67192 43.8249 3.63031 43.7998C4.60961 43.7747 5.59311 43.7956 6.5766 43.7956H9.58148C9.55219 43.465 9.53126 43.2264 9.50615 42.9377H13.3732C13.5155 43.1762 13.6745 43.4315 13.8754 43.7621H22.3041L22.2957 43.7579Z" fill="url(#paint12_linear_404_2266)"/>
<path d="M29.6866 50.6842H33.0556C32.7166 52.7056 32.1055 54.5847 31.6201 56.4931C31.1304 58.414 30.624 60.3308 30.1176 62.2685H26.6022C27.5982 58.3513 28.6236 54.5261 29.6824 50.6842H29.6866Z" fill="url(#paint13_linear_404_2266)"/>
<path d="M41.1285 50.6842H44.6105C45.6275 54.5052 46.6445 58.3052 47.6573 62.1011C46.7868 62.3689 45.4517 62.3982 44.1585 62.1764C43.1709 58.4266 42.1706 54.6308 41.1327 50.6842H41.1285Z" fill="url(#paint14_linear_404_2266)"/>
<path d="M99.435 42.9669V45.4654C98.5561 45.6579 89.1062 45.7207 87.1476 45.5449V42.9669H99.435Z" fill="url(#paint15_linear_404_2266)"/>
<path d="M99.4852 62.8628H96.2669C95.8065 60.0295 95.7438 57.1376 95.3462 54.1494C96.3966 54.0197 97.4345 54.0783 98.598 54.116C99.0039 56.9953 99.1714 59.8663 99.481 62.8586L99.4852 62.8628Z" fill="url(#paint16_linear_404_2266)"/>
<path d="M87.0723 54.1453C88.1604 54.1453 89.1649 54.1453 90.1693 54.1453C90.3116 54.9404 89.5582 60.7368 89.0309 62.8335H85.8586C86.2688 59.8997 86.6705 57.0497 87.0765 54.1453H87.0723Z" fill="url(#paint17_linear_404_2266)"/>
<path d="M56.3957 59.2511V56.5559C57.9483 56.4261 59.501 56.5726 61.0746 56.468V54.2081H57.0778C56.8225 53.2832 56.8142 52.6721 57.0276 51.358H61.1332V49.3952H56.4459V46.6791H69.4447C69.6624 47.491 69.4824 48.3447 69.5703 49.3282C68.0092 49.4496 66.4901 49.3157 64.9416 49.4078C64.7072 50.0271 64.8035 50.6256 64.8579 51.3371H68.9634V54.0657C67.6577 54.3461 66.285 54.0323 64.883 54.2541V56.4261H66.0632C65.9879 55.8946 65.9209 55.4385 65.8456 54.907H68.75C69.0304 56.2922 69.3192 57.7235 69.6247 59.2469H56.3915L56.3957 59.2511Z" fill="url(#paint18_linear_404_2266)"/>
<defs>
<linearGradient id="paint0_linear_404_2266" x1="17.6838" y1="0.170357" x2="17.6838" y2="35.6514" gradientUnits="userSpaceOnUse">
<stop stop-color="#1A305D"/>
<stop offset="1" stop-color="#0F1936"/>
</linearGradient>
<linearGradient id="paint1_linear_404_2266" x1="65.3601" y1="0.170368" x2="65.3601" y2="35.6514" gradientUnits="userSpaceOnUse">
<stop stop-color="#1A305D"/>
<stop offset="1" stop-color="#0F1936"/>
</linearGradient>
<linearGradient id="paint2_linear_404_2266" x1="88.9095" y1="0.170385" x2="88.9095" y2="35.6514" gradientUnits="userSpaceOnUse">
<stop stop-color="#1A305D"/>
<stop offset="1" stop-color="#0F1936"/>
</linearGradient>
<linearGradient id="paint3_linear_404_2266" x1="62.9662" y1="42.4061" x2="62.9662" y2="63.524" gradientUnits="userSpaceOnUse">
<stop stop-color="#1A305D"/>
<stop offset="1" stop-color="#0F1936"/>
</linearGradient>
<linearGradient id="paint4_linear_404_2266" x1="47.9711" y1="0.170354" x2="47.9711" y2="35.6514" gradientUnits="userSpaceOnUse">
<stop stop-color="#1A305D"/>
<stop offset="1" stop-color="#0F1936"/>
</linearGradient>
<linearGradient id="paint5_linear_404_2266" x1="82.0627" y1="42.4061" x2="82.0627" y2="63.524" gradientUnits="userSpaceOnUse">
<stop stop-color="#1A305D"/>
<stop offset="1" stop-color="#0F1936"/>
</linearGradient>
<linearGradient id="paint6_linear_404_2266" x1="11.4229" y1="42.4061" x2="11.4229" y2="63.524" gradientUnits="userSpaceOnUse">
<stop stop-color="#1A305D"/>
<stop offset="1" stop-color="#0F1936"/>
</linearGradient>
<linearGradient id="paint7_linear_404_2266" x1="11.5149" y1="42.4061" x2="11.5149" y2="63.524" gradientUnits="userSpaceOnUse">
<stop stop-color="#1A305D"/>
<stop offset="1" stop-color="#0F1936"/>
</linearGradient>
<linearGradient id="paint8_linear_404_2266" x1="93.2829" y1="42.4061" x2="93.2829" y2="63.524" gradientUnits="userSpaceOnUse">
<stop stop-color="#1A305D"/>
<stop offset="1" stop-color="#0F1936"/>
</linearGradient>
<linearGradient id="paint9_linear_404_2266" x1="37.7805" y1="42.4061" x2="37.7805" y2="63.524" gradientUnits="userSpaceOnUse">
<stop stop-color="#1A305D"/>
<stop offset="1" stop-color="#0F1936"/>
</linearGradient>
<linearGradient id="paint10_linear_404_2266" x1="11.2848" y1="42.4061" x2="11.2848" y2="63.524" gradientUnits="userSpaceOnUse">
<stop stop-color="#1A305D"/>
<stop offset="1" stop-color="#0F1936"/>
</linearGradient>
<linearGradient id="paint11_linear_404_2266" x1="36.3157" y1="42.4061" x2="36.3157" y2="63.524" gradientUnits="userSpaceOnUse">
<stop stop-color="#1A305D"/>
<stop offset="1" stop-color="#0F1936"/>
</linearGradient>
<linearGradient id="paint12_linear_404_2266" x1="11.5066" y1="42.4061" x2="11.5066" y2="63.524" gradientUnits="userSpaceOnUse">
<stop stop-color="#1A305D"/>
<stop offset="1" stop-color="#0F1936"/>
</linearGradient>
<linearGradient id="paint13_linear_404_2266" x1="29.8289" y1="42.4062" x2="29.8289" y2="63.524" gradientUnits="userSpaceOnUse">
<stop stop-color="#1A305D"/>
<stop offset="1" stop-color="#0F1936"/>
</linearGradient>
<linearGradient id="paint14_linear_404_2266" x1="44.3929" y1="42.4062" x2="44.3929" y2="63.524" gradientUnits="userSpaceOnUse">
<stop stop-color="#1A305D"/>
<stop offset="1" stop-color="#0F1936"/>
</linearGradient>
<linearGradient id="paint15_linear_404_2266" x1="93.2913" y1="42.4062" x2="93.2913" y2="63.5239" gradientUnits="userSpaceOnUse">
<stop stop-color="#1A305D"/>
<stop offset="1" stop-color="#0F1936"/>
</linearGradient>
<linearGradient id="paint16_linear_404_2266" x1="97.4178" y1="42.4061" x2="97.4178" y2="63.524" gradientUnits="userSpaceOnUse">
<stop stop-color="#1A305D"/>
<stop offset="1" stop-color="#0F1936"/>
</linearGradient>
<linearGradient id="paint17_linear_404_2266" x1="88.0181" y1="42.4061" x2="88.0181" y2="63.524" gradientUnits="userSpaceOnUse">
<stop stop-color="#1A305D"/>
<stop offset="1" stop-color="#0F1936"/>
</linearGradient>
<linearGradient id="paint18_linear_404_2266" x1="63.0123" y1="42.4061" x2="63.0123" y2="63.524" gradientUnits="userSpaceOnUse">
<stop stop-color="#1A305D"/>
<stop offset="1" stop-color="#0F1936"/>
</linearGradient>
</defs>
</svg>
