<svg width="100" height="26" viewBox="0 0 100 26" fill="none" xmlns="http://www.w3.org/2000/svg">
<path d="M12.3503 0.968567C5.5178 0.968567 0 6.50254 0 13.3512C0 14.5689 0.182039 15.7865 0.550162 16.9354C0.78479 16.6199 0.999191 16.3003 1.20146 15.9524C2.06715 14.6862 2.90049 13.42 3.73382 12.1174L4.34871 11.1344C4.54693 10.8189 4.74919 10.4831 4.93123 10.1514C5.33172 9.50011 5.7322 8.83264 6.0801 8.18539C6.26214 7.85368 6.44822 7.5341 6.64644 7.1862C6.84466 6.85449 7.01456 6.53491 7.1966 6.18701C7.37864 5.83911 7.56472 5.50335 7.7144 5.18782L8.21602 4.17244L8.26456 4.10772C8.53155 3.55756 9.19903 3.33911 9.76537 3.58992C10.1659 3.82455 10.4167 4.24122 10.4005 4.72261C10.4005 5.30514 10.2832 5.92406 10.2346 6.50658C10.1861 7.08911 10.1699 7.70805 10.1173 8.32293C10.0688 9.52439 10.0526 10.7582 10.0526 11.9556C10.0526 13.153 10.1173 14.3545 10.2346 15.5236C10.2994 16.0899 10.4005 16.6563 10.5016 17.2226C10.5866 17.7242 10.7524 18.2218 10.983 18.6708C11.0477 18.8043 11.1489 18.9378 11.25 19.0551C11.3147 19.1037 11.2662 19.0713 11.3147 19.0713C11.3633 19.0713 11.3309 19.0713 11.3633 19.0713L11.4118 19.0551H11.428L11.4927 19.0389C11.4927 19.0389 11.5574 18.9904 11.5777 18.9742C11.7597 18.8407 11.9094 18.6749 12.0793 18.4928C12.4474 18.06 12.7791 17.6271 13.0785 17.1579C13.394 16.6765 13.6934 16.1587 13.9806 15.6409C14.5631 14.5891 15.1133 13.5252 15.6311 12.4411C15.8819 11.8909 16.1489 11.3569 16.3997 10.7906C16.6505 10.2404 16.9013 9.67406 17.1319 9.14008C17.3665 8.57374 18.0138 8.30675 18.5801 8.5252C18.9482 8.65869 19.195 8.97423 19.2638 9.35853C19.2638 9.49203 19.2799 9.67406 19.3123 9.86015L19.377 10.3779C19.4256 10.7097 19.462 11.0616 19.5429 11.3933C19.6602 12.077 19.7937 12.7606 19.9757 13.4119C20.1578 14.0632 20.3762 14.7307 20.6594 15.3618C20.9264 15.9969 21.2743 16.5794 21.7112 17.1296C21.7961 17.2631 21.7759 17.4451 21.6626 17.53C21.5494 17.615 21.3956 17.615 21.2945 17.53C20.7282 17.0284 20.2265 16.4621 19.7937 15.8472C19.3608 15.2323 18.9927 14.581 18.661 13.9136C18.4264 13.4645 18.2605 13.0114 18.0461 12.5462C17.9126 12.8132 17.7953 13.0964 17.6618 13.3472C17.1117 14.4637 16.5777 15.564 15.9466 16.6805C15.6311 17.2631 15.3115 17.8132 14.9474 18.3634C14.5793 18.9297 14.1788 19.4799 13.746 19.9815C13.4951 20.2809 13.1958 20.5317 12.9126 20.7825C12.8277 20.8472 12.7306 20.916 12.6133 20.9645L12.415 21.0818L12.2977 21.1304H12.2816L12.2168 21.1466H12.1683L12.0833 21.1627C12.0186 21.1789 11.966 21.2113 11.9013 21.2113C11.7678 21.2275 11.6343 21.2598 11.5008 21.276C11.2015 21.2922 10.8859 21.2598 10.6189 21.1587C10.3519 21.0576 10.1011 20.9079 9.87055 20.7258C9.53884 20.4265 9.23544 20.0745 9.03722 19.6579C8.72168 19.0228 8.48705 18.3391 8.35356 17.6393C8.22007 17.0042 8.11893 16.3407 8.05421 15.7056C7.92071 14.4394 7.87217 13.1894 7.85599 11.9233V10.1393C7.62136 10.5721 7.40696 11.005 7.17233 11.4055C6.99029 11.7372 6.80421 12.0891 6.60599 12.4208L6.03964 13.4362C5.27104 14.8035 4.47411 16.1385 3.64078 17.4694C3.12298 18.3351 2.57282 19.1846 2.02265 20.0381C5.75647 25.7542 13.4223 27.3399 19.1424 23.6061C24.8584 19.8723 26.4442 12.2064 22.7104 6.48636C20.4086 3.06808 16.5413 0.968567 12.3584 0.968567H12.3503Z" fill="url(#paint0_linear_404_2245)"/>
<path d="M35.4207 17.7889V9.57293H35.2225L32.589 17.8254H31.9377L29.3042 9.59315H29.106V17.8092H28.0219V8.73959H29.9555L32.2897 15.9564L34.5712 8.73959H36.521V17.8415H35.4207V17.793V17.7889Z" fill="url(#paint1_linear_404_2245)"/>
<path d="M38.1028 9.90464V8.71936H39.2881V9.90464H38.1028ZM38.119 17.7889V10.7865H39.2678V17.7889H38.119Z" fill="url(#paint2_linear_404_2245)"/>
<path d="M46.2864 15.5034C46.2864 16.8707 45.7686 17.9022 43.5033 17.9022C40.6513 17.9022 40.4855 16.2679 40.4855 14.2695C40.4855 12.2712 40.6513 10.6369 43.5033 10.6369C45.7686 10.6369 46.2864 11.6886 46.2864 13.0357H45.2023C45.2023 11.9192 44.818 11.3852 43.5033 11.3852C41.7355 11.3852 41.6384 12.3359 41.6384 14.2372C41.6384 16.1385 41.7233 17.0891 43.5033 17.0891C44.822 17.0891 45.2023 16.539 45.2023 15.4386L46.2864 15.5034Z" fill="url(#paint3_linear_404_2245)"/>
<path d="M48.5396 11.5389C49.0898 11.2072 49.7896 10.738 50.4409 10.7218C50.5744 10.7056 50.7079 10.7056 50.8414 10.7056C51.0235 10.7056 51.1731 10.7056 51.3916 10.7218L51.3066 11.5551C51.1246 11.5389 50.9749 11.5389 50.805 11.5389C50.6715 11.5389 50.538 11.5389 50.3722 11.5551C49.7573 11.5713 49.106 12.0365 48.6205 12.3035V17.8213H47.4717V10.7865H48.3738L48.5396 11.5349V11.5389Z" fill="url(#paint4_linear_404_2245)"/>
<path d="M57.8722 14.3059C57.8722 16.3043 57.7063 17.9386 54.8058 17.9386C51.9054 17.9386 51.7395 16.3043 51.7395 14.3059C51.7395 12.3075 51.9054 10.6732 54.8058 10.6732C57.7063 10.6732 57.8722 12.3075 57.8722 14.3059ZM52.9045 14.3059C52.9045 16.2072 52.9895 17.1579 54.8058 17.1579C56.6222 17.1579 56.7071 16.2234 56.7071 14.3059C56.7071 12.3885 56.6222 11.454 54.8058 11.454C52.9895 11.454 52.9045 12.3723 52.9045 14.3059Z" fill="url(#paint5_linear_404_2245)"/>
<path d="M59.9879 19.4233C60.4207 19.4718 60.9871 19.488 61.6222 19.488C63.39 19.488 63.6206 19.0066 63.6408 17.1538C63.123 17.4532 62.3908 17.789 61.6424 17.8051C59.0736 17.8537 58.924 16.4702 58.924 14.2898C58.924 12.1093 59.0574 10.6571 61.5251 10.6571C62.3584 10.6571 63.1432 11.0414 63.7419 11.4257L63.8592 10.7906H64.7613V17.0082C64.7613 19.5244 64.195 20.293 61.877 20.293C61.1934 20.293 60.5097 20.2283 59.8584 20.1271L59.9919 19.4273L59.9879 19.4233ZM63.6367 12.0729C63.1351 11.7574 62.504 11.4378 61.8851 11.4378C60.1861 11.4378 60.0688 12.3885 60.0688 14.2898C60.0688 16.1911 60.1861 17.0406 61.8851 17.0406C62.5 17.0406 63.1513 16.7089 63.6367 16.458V12.0729Z" fill="url(#paint6_linear_404_2245)"/>
<path d="M71.0558 17.789L70.9385 17.1538C70.3721 17.522 69.6197 17.9224 68.8066 17.9224C66.2378 17.971 66.0881 16.5228 66.0881 14.2898C66.0881 12.0568 66.2216 10.6571 68.7702 10.6571C69.6035 10.6571 70.3519 11.0414 70.9223 11.3893L71.0396 10.7744H71.9417V17.7768H71.0598V17.793L71.0558 17.789ZM70.8211 12.0365C70.3398 11.7695 69.6885 11.454 69.0695 11.454C67.3705 11.454 67.2532 12.4046 67.2532 14.3059C67.2532 16.2072 67.3705 17.1579 69.0695 17.1579C69.6844 17.1579 70.3195 16.8262 70.8211 16.5228V12.0406V12.0365Z" fill="url(#paint7_linear_404_2245)"/>
<path d="M74.3892 11.4054C74.907 11.0899 75.6068 10.7056 76.3552 10.6732C77.5405 10.6247 78.1392 10.9402 78.4385 11.4418C78.9887 11.1101 79.7047 10.6935 80.5057 10.6732C82.9046 10.6085 83.0745 11.8221 83.0745 13.5252V17.793H81.9256V13.594C81.9256 12.1457 81.8406 11.4418 80.2751 11.4418C79.7088 11.4418 79.1262 11.7736 78.6408 12.077C78.7581 12.5786 78.8067 13.0923 78.7743 13.6263V17.8253H77.7751V13.6101C77.7751 12.1619 77.6902 11.458 76.1246 11.458C75.5745 11.458 74.9919 11.7898 74.5429 12.0406V17.8092H73.394V10.8067H74.2962L74.3973 11.4054H74.3892Z" fill="url(#paint8_linear_404_2245)"/>
<path d="M84.4902 9.90464V8.71936H85.6755V9.90464H84.4902ZM84.5226 17.7889V10.7865H85.6715V17.7889H84.5226Z" fill="url(#paint9_linear_404_2245)"/>
<path d="M88.1271 11.4055C88.6934 11.0899 89.4458 10.7056 90.2589 10.6733C92.8277 10.6085 92.9774 11.8221 92.9774 13.5252V17.793H91.8285V13.594C91.8285 12.1458 91.7112 11.4419 90.0122 11.4419C89.3973 11.4419 88.746 11.7736 88.2606 12.0568V17.8254H87.1117V10.7906H88.0138L88.1311 11.4055H88.1271Z" fill="url(#paint10_linear_404_2245)"/>
<path d="M95.2265 19.4233C95.6594 19.4718 96.2257 19.488 96.8608 19.488C98.6286 19.488 98.8592 19.0066 98.8794 17.1538C98.3616 17.4532 97.6294 17.789 96.881 17.8051C94.3123 17.8537 94.1626 16.4702 94.1626 14.2898C94.1626 12.1093 94.2961 10.6571 96.7637 10.6571C97.5971 10.6571 98.3818 11.0414 98.9806 11.4257L99.0979 10.7906H100V17.0082C100 19.5244 99.4336 20.293 97.1157 20.293C96.432 20.293 95.7484 20.2283 95.0971 20.1271L95.2306 19.4273L95.2265 19.4233ZM98.8592 12.0729C98.3576 11.7574 97.7265 11.4378 97.1076 11.4378C95.4086 11.4378 95.2912 12.3885 95.2912 14.2898C95.2912 16.1911 95.4086 17.0406 97.1076 17.0406C97.7225 17.0406 98.3738 16.7089 98.8592 16.458V12.0729Z" fill="url(#paint11_linear_404_2245)"/>
<defs>
<linearGradient id="paint0_linear_404_2245" x1="-1.92961" y1="16.7412" x2="97.856" y2="-7.29601" gradientUnits="userSpaceOnUse">
<stop stop-color="#5EB532"/>
<stop offset="0.3" stop-color="#3AABDA"/>
<stop offset="0.98" stop-color="#5EB532"/>
</linearGradient>
<linearGradient id="paint1_linear_404_2245" x1="-0.837375" y1="21.2679" x2="98.9442" y2="-2.77335" gradientUnits="userSpaceOnUse">
<stop stop-color="#5EB532"/>
<stop offset="0.3" stop-color="#3AABDA"/>
<stop offset="0.98" stop-color="#5EB532"/>
</linearGradient>
<linearGradient id="paint2_linear_404_2245" x1="-0.493497" y1="22.6959" x2="99.2921" y2="-1.3413" gradientUnits="userSpaceOnUse">
<stop stop-color="#5EB532"/>
<stop offset="0.3" stop-color="#3AABDA"/>
<stop offset="0.98" stop-color="#5EB532"/>
</linearGradient>
<linearGradient id="paint3_linear_404_2245" x1="0.00409281" y1="24.755" x2="99.7856" y2="0.713717" gradientUnits="userSpaceOnUse">
<stop stop-color="#5EB532"/>
<stop offset="0.3" stop-color="#3AABDA"/>
<stop offset="0.98" stop-color="#5EB532"/>
</linearGradient>
<linearGradient id="paint4_linear_404_2245" x1="0.258882" y1="25.8189" x2="100.045" y2="1.78165" gradientUnits="userSpaceOnUse">
<stop stop-color="#5EB532"/>
<stop offset="0.3" stop-color="#3AABDA"/>
<stop offset="0.98" stop-color="#5EB532"/>
</linearGradient>
<linearGradient id="paint5_linear_404_2245" x1="0.631103" y1="27.3601" x2="100.413" y2="3.31888" gradientUnits="userSpaceOnUse">
<stop stop-color="#5EB532"/>
<stop offset="0.3" stop-color="#3AABDA"/>
<stop offset="0.98" stop-color="#5EB532"/>
</linearGradient>
<linearGradient id="paint6_linear_404_2245" x1="1.27835" y1="30.0543" x2="101.064" y2="6.01714" gradientUnits="userSpaceOnUse">
<stop stop-color="#5EB532"/>
<stop offset="0.3" stop-color="#3AABDA"/>
<stop offset="0.98" stop-color="#5EB532"/>
</linearGradient>
<linearGradient id="paint7_linear_404_2245" x1="1.44412" y1="30.7461" x2="101.23" y2="6.70479" gradientUnits="userSpaceOnUse">
<stop stop-color="#5EB532"/>
<stop offset="0.3" stop-color="#3AABDA"/>
<stop offset="0.98" stop-color="#5EB532"/>
</linearGradient>
<linearGradient id="paint8_linear_404_2245" x1="1.91343" y1="32.6838" x2="101.695" y2="8.64651" gradientUnits="userSpaceOnUse">
<stop stop-color="#5EB532"/>
<stop offset="0.3" stop-color="#3AABDA"/>
<stop offset="0.98" stop-color="#5EB532"/>
</linearGradient>
<linearGradient id="paint9_linear_404_2245" x1="2.05112" y1="33.2623" x2="101.837" y2="9.22112" gradientUnits="userSpaceOnUse">
<stop stop-color="#5EB532"/>
<stop offset="0.3" stop-color="#3AABDA"/>
<stop offset="0.98" stop-color="#5EB532"/>
</linearGradient>
<linearGradient id="paint10_linear_404_2245" x1="2.56072" y1="35.3658" x2="102.342" y2="11.3286" gradientUnits="userSpaceOnUse">
<stop stop-color="#5EB532"/>
<stop offset="0.3" stop-color="#3AABDA"/>
<stop offset="0.98" stop-color="#5EB532"/>
</linearGradient>
<linearGradient id="paint11_linear_404_2245" x1="3.21199" y1="38.0802" x2="102.998" y2="14.039" gradientUnits="userSpaceOnUse">
<stop stop-color="#5EB532"/>
<stop offset="0.3" stop-color="#3AABDA"/>
<stop offset="0.98" stop-color="#5EB532"/>
</linearGradient>
</defs>
</svg>
