<svg width="80" height="20" viewBox="0 0 80 20" fill="none" xmlns="http://www.w3.org/2000/svg">
<path d="M9.88026 0C4.41424 0 0 4.42718 0 9.90614C0 10.8803 0.145631 11.8544 0.440129 12.7735C0.627832 12.521 0.799353 12.2654 0.961165 11.987C1.65372 10.9741 2.32039 9.96116 2.98705 8.91909L3.47896 8.13268C3.63754 7.88025 3.79935 7.61164 3.94498 7.34627C4.26537 6.82524 4.58576 6.29126 4.86408 5.77346C5.00971 5.50809 5.15858 5.25243 5.31715 4.97411C5.47573 4.70874 5.61165 4.45307 5.75728 4.17476C5.90291 3.89644 6.05178 3.62783 6.17152 3.3754L6.57281 2.5631L6.61165 2.51132C6.82524 2.07119 7.35922 1.89643 7.8123 2.09708C8.13269 2.28478 8.33333 2.61812 8.32039 3.00324C8.32039 3.46926 8.22654 3.96439 8.1877 4.43041C8.14887 4.89643 8.13592 5.39158 8.09385 5.88349C8.05502 6.84466 8.04207 7.83171 8.04207 8.78964C8.04207 9.74756 8.09385 10.7087 8.1877 11.644C8.23948 12.0971 8.32039 12.5502 8.40129 13.0032C8.46926 13.4045 8.60194 13.8026 8.78641 14.1618C8.83819 14.2686 8.91909 14.3754 9 14.4693C9.05178 14.5081 9.01294 14.4822 9.05178 14.4822C9.09061 14.4822 9.06472 14.4822 9.09061 14.4822L9.12945 14.4693H9.14239L9.19417 14.4563C9.19417 14.4563 9.24595 14.4175 9.26214 14.4045C9.40777 14.2977 9.52751 14.165 9.66343 14.0194C9.95793 13.6731 10.2233 13.3269 10.4628 12.9515C10.7152 12.5663 10.9547 12.1521 11.1845 11.7379C11.6505 10.8964 12.0906 10.0453 12.5049 9.17799C12.7055 8.73786 12.9191 8.31068 13.1197 7.8576C13.3204 7.41748 13.521 6.9644 13.7055 6.53721C13.8932 6.08414 14.411 5.87055 14.8641 6.04531C15.1586 6.1521 15.356 6.40453 15.411 6.71197C15.411 6.81877 15.4239 6.9644 15.4498 7.11326L15.5016 7.5275C15.5405 7.79287 15.5696 8.07443 15.6343 8.3398C15.7282 8.88673 15.835 9.43365 15.9806 9.95469C16.1262 10.4757 16.301 11.0097 16.5275 11.5146C16.7411 12.0226 17.0194 12.4887 17.3689 12.9288C17.4369 13.0356 17.4207 13.1812 17.3301 13.2492C17.2395 13.3171 17.1165 13.3171 17.0356 13.2492C16.5825 12.8479 16.1812 12.3948 15.835 11.9029C15.4887 11.411 15.1942 10.89 14.9288 10.356C14.7411 9.99676 14.6084 9.6343 14.4369 9.26213C14.3301 9.47573 14.2362 9.70226 14.1294 9.90291C13.6893 10.7961 13.2621 11.6764 12.7573 12.5696C12.5049 13.0356 12.2492 13.4757 11.9579 13.9159C11.6634 14.3689 11.343 14.8091 10.9968 15.2104C10.7961 15.4498 10.5566 15.6505 10.3301 15.8511C10.2621 15.9029 10.1845 15.9579 10.0906 15.9968L9.93204 16.0906L9.83819 16.1294H9.82524L9.77346 16.1424H9.73463L9.66667 16.1553C9.61489 16.1683 9.57281 16.1942 9.52104 16.1942C9.41424 16.2071 9.30744 16.233 9.20065 16.2459C8.96116 16.2589 8.70874 16.233 8.49514 16.1521C8.28155 16.0712 8.08091 15.9515 7.89644 15.8058C7.63107 15.5663 7.38835 15.2848 7.22977 14.9515C6.97735 14.4434 6.78964 13.8964 6.68285 13.3366C6.57605 12.8285 6.49515 12.2977 6.44337 11.7896C6.33657 10.7767 6.29773 9.7767 6.28479 8.76375V7.33656C6.09709 7.68284 5.92557 8.02912 5.73786 8.34951C5.59223 8.61488 5.44337 8.89644 5.28479 9.16181L4.83172 9.9741C4.21683 11.068 3.57929 12.1359 2.91262 13.2006C2.49838 13.8932 2.05825 14.5728 1.61812 15.2557C4.60518 19.8285 10.7379 21.0971 15.3139 18.11C19.8867 15.123 21.1553 8.99029 18.1683 4.41423C16.3269 1.67961 13.233 0 9.88673 0H9.88026Z" fill="white"/>
<path d="M28.3366 13.4563V6.88346H28.178L26.0712 13.4854H25.5502L23.4434 6.89964H23.2848V13.4725H22.4175V6.2168H23.9644L25.8317 11.9903L27.657 6.2168H29.2168V13.4984H28.3366V13.4595V13.4563Z" fill="white"/>
<path d="M30.4824 7.14891V6.20068H31.4306V7.14891H30.4824ZM30.4954 13.4564V7.85441H31.4145V13.4564H30.4954Z" fill="white"/>
<path d="M37.029 11.6278C37.029 12.7217 36.6147 13.5469 34.8024 13.5469C32.5209 13.5469 32.3882 12.2395 32.3882 10.6408C32.3882 9.04206 32.5209 7.73462 34.8024 7.73462C36.6147 7.73462 37.029 8.57604 37.029 9.65371H36.1616C36.1616 8.76051 35.8542 8.33333 34.8024 8.33333C33.3882 8.33333 33.3105 9.09384 33.3105 10.6149C33.3105 12.1359 33.3785 12.8964 34.8024 12.8964C35.8574 12.8964 36.1616 12.4563 36.1616 11.576L37.029 11.6278Z" fill="white"/>
<path d="M38.8319 8.45622C39.272 8.19084 39.8319 7.81544 40.3529 7.8025C40.4597 7.78955 40.5665 7.78955 40.6733 7.78955C40.819 7.78955 40.9387 7.78955 41.1135 7.8025L41.0455 8.46916C40.8999 8.45622 40.7801 8.45622 40.6442 8.45622C40.5374 8.45622 40.4306 8.45622 40.2979 8.46916C39.806 8.48211 39.285 8.85428 38.8966 9.06787V13.4821H37.9775V7.85428H38.6992L38.8319 8.45299V8.45622Z" fill="white"/>
<path d="M46.2977 10.6698C46.2977 12.2685 46.1651 13.576 43.8447 13.576C41.5243 13.576 41.3916 12.2685 41.3916 10.6698C41.3916 9.07111 41.5243 7.76367 43.8447 7.76367C46.1651 7.76367 46.2977 9.07111 46.2977 10.6698ZM42.3236 10.6698C42.3236 12.1908 42.3916 12.9514 43.8447 12.9514C45.2977 12.9514 45.3657 12.2038 45.3657 10.6698C45.3657 9.13583 45.2977 8.38826 43.8447 8.38826C42.3916 8.38826 42.3236 9.12289 42.3236 10.6698Z" fill="white"/>
<path d="M47.9903 14.7637C48.3366 14.8025 48.7896 14.8155 49.2977 14.8155C50.712 14.8155 50.8964 14.4303 50.9126 12.9481C50.4984 13.1876 49.9126 13.4562 49.3139 13.4692C47.2589 13.508 47.1392 12.4012 47.1392 10.6569C47.1392 8.91255 47.246 7.75073 49.2201 7.75073C49.8867 7.75073 50.5146 8.05817 50.9935 8.36562L51.0874 7.85753H51.8091V12.8316C51.8091 14.8446 51.356 15.4595 49.5016 15.4595C48.9547 15.4595 48.4078 15.4077 47.8867 15.3268L47.9935 14.7669L47.9903 14.7637ZM50.9094 8.88342C50.5081 8.63099 50.0032 8.37533 49.5081 8.37533C48.1489 8.37533 48.055 9.13585 48.055 10.6569C48.055 12.1779 48.1489 12.8575 49.5081 12.8575C50 12.8575 50.521 12.5922 50.9094 12.3915V8.88342Z" fill="white"/>
<path d="M56.8447 13.4562L56.7509 12.9481C56.2978 13.2426 55.6958 13.563 55.0454 13.563C52.9903 13.6019 52.8706 12.4433 52.8706 10.6569C52.8706 8.87048 52.9774 7.75073 55.0162 7.75073C55.6829 7.75073 56.2816 8.05817 56.7379 8.33649L56.8318 7.84459H57.5535V13.4465H56.848V13.4595L56.8447 13.4562ZM56.657 8.85429C56.2719 8.6407 55.7509 8.38827 55.2557 8.38827C53.8965 8.38827 53.8026 9.14879 53.8026 10.6698C53.8026 12.1909 53.8965 12.9514 55.2557 12.9514C55.7476 12.9514 56.2557 12.686 56.657 12.4433V8.85753V8.85429Z" fill="white"/>
<path d="M59.5115 8.34945C59.9257 8.09702 60.4856 7.78958 61.0843 7.76369C62.0325 7.72486 62.5114 7.97728 62.7509 8.37858C63.1911 8.1132 63.7639 7.77987 64.4047 7.76369C66.3237 7.71191 66.4597 8.68278 66.4597 10.0452V13.4595H65.5406V10.1003C65.5406 8.94169 65.4726 8.37858 64.2202 8.37858C63.7671 8.37858 63.3011 8.64395 62.9127 8.88667C63.0066 9.28796 63.0454 9.69896 63.0195 10.1261V13.4854H62.2202V10.1132C62.2202 8.95463 62.1522 8.39152 60.8998 8.39152C60.4597 8.39152 59.9937 8.6569 59.6344 8.85755V13.4724H58.7153V7.87048H59.437L59.5179 8.34945H59.5115Z" fill="white"/>
<path d="M67.5923 7.14891V6.20068H68.5405V7.14891H67.5923ZM67.6182 13.4564V7.85441H68.5373V13.4564H67.6182Z" fill="white"/>
<path d="M70.5018 8.34946C70.9548 8.09703 71.5568 7.78959 72.2073 7.7637C74.2623 7.71192 74.382 8.68279 74.382 10.0452V13.4595H73.4629V10.1003C73.4629 8.94169 73.3691 8.37858 72.0098 8.37858C71.5179 8.37858 70.9969 8.64395 70.6085 8.87049V13.4854H69.6895V7.85755H70.4111L70.505 8.34946H70.5018Z" fill="white"/>
<path d="M76.1812 14.7637C76.5275 14.8025 76.9806 14.8155 77.4887 14.8155C78.9029 14.8155 79.0874 14.4303 79.1035 12.9481C78.6893 13.1876 78.1035 13.4562 77.5048 13.4692C75.4498 13.508 75.3301 12.4012 75.3301 10.6569C75.3301 8.91255 75.4369 7.75073 77.411 7.75073C78.0776 7.75073 78.7055 8.05817 79.1844 8.36562L79.2783 7.85753H80V12.8316C80 14.8446 79.5469 15.4595 77.6925 15.4595C77.1456 15.4595 76.5987 15.4077 76.0776 15.3268L76.1844 14.7669L76.1812 14.7637ZM79.0874 8.88342C78.6861 8.63099 78.1812 8.37533 77.6861 8.37533C76.3268 8.37533 76.233 9.13585 76.233 10.6569C76.233 12.1779 76.3268 12.8575 77.6861 12.8575C78.178 12.8575 78.699 12.5922 79.0874 12.3915V8.88342Z" fill="white"/>
</svg>
