<svg width="123" height="30" viewBox="0 0 123 30" fill="none" xmlns="http://www.w3.org/2000/svg">
<path d="M15.1789 0C6.78155 0 0 6.73293 0 15.0654C0 16.5469 0.223732 18.0283 0.676167 19.4261C0.964532 19.0422 1.22804 18.6534 1.47663 18.2301C2.5406 16.6896 3.56479 15.1491 4.58898 13.5643L5.3447 12.3683C5.58832 11.9844 5.83691 11.5759 6.06064 11.1723C6.55285 10.3799 7.04506 9.56785 7.47264 8.78037C7.69637 8.37679 7.92507 7.98797 8.16869 7.56471C8.41231 7.16112 8.62113 6.77231 8.84486 6.34904C9.06859 5.92577 9.29729 5.51726 9.48125 5.13337L10.0978 3.89801L10.1574 3.81926C10.4856 3.1499 11.3059 2.88413 12.002 3.18928C12.4942 3.47474 12.8024 3.98168 12.7825 4.56737C12.7825 5.2761 12.6383 6.02911 12.5787 6.73784C12.519 7.44657 12.4991 8.19961 12.4345 8.94771C12.3748 10.4095 12.355 11.9106 12.355 13.3674C12.355 14.8243 12.4345 16.286 12.5787 17.7084C12.6582 18.3974 12.7825 19.0865 12.9068 19.7755C13.0112 20.3858 13.2151 20.9912 13.4985 21.5375C13.578 21.6999 13.7023 21.8623 13.8266 22.0051C13.9062 22.0641 13.8465 22.0248 13.9062 22.0248C13.9658 22.0248 13.9261 22.0248 13.9658 22.0248L14.0255 22.0051H14.0454L14.1249 21.9854C14.1249 21.9854 14.2045 21.9263 14.2293 21.9066C14.4531 21.7442 14.637 21.5424 14.8458 21.3209C15.2983 20.7943 15.706 20.2677 16.0739 19.6968C16.4617 19.1111 16.8296 18.4811 17.1826 17.8511C17.8985 16.5715 18.5747 15.2771 19.2111 13.958C19.5193 13.2887 19.8475 12.639 20.1557 11.95C20.464 11.2806 20.7722 10.5916 21.0556 9.9419C21.344 9.25285 22.1395 8.92803 22.8355 9.1938C23.288 9.35622 23.5913 9.74011 23.6758 10.2077C23.6758 10.3701 23.6957 10.5916 23.7354 10.818L23.815 11.4479C23.8746 11.8515 23.9194 12.2797 24.0188 12.6833C24.163 13.5151 24.3271 14.3468 24.5508 15.1392C24.7745 15.9316 25.043 16.7437 25.3911 17.5115C25.7192 18.2842 26.1468 18.993 26.6837 19.6623C26.7881 19.8247 26.7633 20.0462 26.6241 20.1496C26.4848 20.2529 26.2959 20.2529 26.1716 20.1496C25.4756 19.5393 24.8591 18.8502 24.3271 18.1021C23.7951 17.354 23.3427 16.5616 22.935 15.7496C22.6466 15.2032 22.4428 14.652 22.1793 14.086C22.0152 14.4108 21.871 14.7554 21.7069 15.0605C21.0308 16.4189 20.3745 17.7576 19.5989 19.116C19.2111 19.8248 18.8183 20.4941 18.3709 21.1635C17.9184 21.8525 17.4262 22.5219 16.8942 23.1322C16.586 23.4964 16.2181 23.8015 15.87 24.1067C15.7656 24.1854 15.6463 24.2691 15.5021 24.3281L15.2585 24.4709L15.1143 24.5299H15.0944L15.0149 24.5496H14.9552L14.8508 24.5693C14.7713 24.589 14.7066 24.6284 14.6271 24.6284C14.463 24.648 14.2989 24.6874 14.1349 24.7071C13.767 24.7268 13.3792 24.6874 13.051 24.5644C12.7229 24.4413 12.4146 24.2592 12.1312 24.0378C11.7235 23.6735 11.3507 23.2453 11.107 22.7384C10.7192 21.9657 10.4309 21.1339 10.2668 20.2825C10.1027 19.5098 9.97843 18.7026 9.89888 17.9299C9.73481 16.3894 9.67515 14.8686 9.65526 13.3281V11.1576C9.3669 11.6842 9.10339 12.2108 8.81503 12.6981C8.59129 13.1017 8.36259 13.5299 8.11897 13.9334L7.42292 15.1688C6.47827 16.8323 5.49883 18.4565 4.47463 20.0758C3.83824 21.129 3.16207 22.1626 2.48591 23.2011C7.07489 30.1555 16.4965 32.0848 23.5266 27.542C30.5518 22.9993 32.5007 13.6726 27.9118 6.71324C25.0828 2.55437 20.3297 0 15.1889 0H15.1789Z" fill="white"/>
<path d="M43.5331 20.4645V10.4685H43.2895L40.0529 20.5088H39.2524L36.0158 10.4931H35.7721V20.4891H34.4397V9.45459H36.8162L39.685 18.235L42.4891 9.45459H44.8855V20.5285H43.5331V20.4694V20.4645Z" fill="white"/>
<path d="M46.8295 10.872V9.42993H48.2862V10.872H46.8295ZM46.8494 20.4645V11.9449H48.2613V20.4645H46.8494Z" fill="white"/>
<path d="M56.8875 17.6838C56.8875 19.3473 56.2511 20.6024 53.4669 20.6024C49.9618 20.6024 49.7579 18.614 49.7579 16.1826C49.7579 13.7513 49.9618 11.7629 53.4669 11.7629C56.2511 11.7629 56.8875 13.0426 56.8875 14.6815H55.5551C55.5551 13.3231 55.0827 12.6735 53.4669 12.6735C51.2942 12.6735 51.1749 13.8301 51.1749 16.1433C51.1749 18.4565 51.2793 19.6131 53.4669 19.6131C55.0877 19.6131 55.5551 18.9437 55.5551 17.605L56.8875 17.6838Z" fill="white"/>
<path d="M59.6568 12.8606C60.333 12.457 61.1931 11.8861 61.9936 11.8664C62.1576 11.8467 62.3217 11.8467 62.4858 11.8467C62.7095 11.8467 62.8934 11.8467 63.1619 11.8664L63.0575 12.8802C62.8338 12.8606 62.6498 12.8606 62.441 12.8606C62.2769 12.8606 62.1129 12.8606 61.909 12.8802C61.1533 12.8999 60.3529 13.4659 59.7562 13.7908V20.504H58.3442V11.9451H59.453L59.6568 12.8556V12.8606Z" fill="white"/>
<path d="M71.1267 16.2268C71.1267 18.6582 70.9229 20.6466 67.3581 20.6466C63.7933 20.6466 63.5895 18.6582 63.5895 16.2268C63.5895 13.7955 63.7933 11.8071 67.3581 11.8071C70.9229 11.8071 71.1267 13.7955 71.1267 16.2268ZM65.0214 16.2268C65.0214 18.5401 65.1258 19.6967 67.3581 19.6967C69.5905 19.6967 69.6949 18.5597 69.6949 16.2268C69.6949 13.8939 69.5905 12.757 67.3581 12.757C65.1258 12.757 65.0214 13.8742 65.0214 16.2268Z" fill="white"/>
<path d="M73.727 22.453C74.259 22.5121 74.9551 22.5318 75.7356 22.5318C77.9083 22.5318 78.1917 21.9461 78.2166 19.6919C77.5802 20.0561 76.6803 20.4646 75.7605 20.4843C72.6034 20.5434 72.4194 18.8601 72.4194 16.2073C72.4194 13.5545 72.5835 11.7876 75.6163 11.7876C76.6405 11.7876 77.605 12.2552 78.3409 12.7227L78.485 11.95H79.5938V19.5147C79.5938 22.576 78.8977 23.5112 76.0489 23.5112C75.2086 23.5112 74.3684 23.4324 73.5679 23.3094L73.732 22.4579L73.727 22.453ZM78.2116 13.5102C77.5951 13.1263 76.8195 12.7375 76.0588 12.7375C73.9706 12.7375 73.8265 13.8941 73.8265 16.2073C73.8265 18.5205 73.9706 19.5541 76.0588 19.5541C76.8145 19.5541 77.615 19.1505 78.2116 18.8454V13.5102Z" fill="white"/>
<path d="M87.3299 20.4646L87.1857 19.6919C86.4896 20.1398 85.5649 20.627 84.5655 20.627C81.4084 20.6861 81.2245 18.9241 81.2245 16.2073C81.2245 13.4905 81.3886 11.7876 84.5208 11.7876C85.545 11.7876 86.4648 12.2552 87.1658 12.6784L87.31 11.9303H88.4187V20.4499H87.3348V20.4695L87.3299 20.4646ZM87.0415 13.4659C86.4499 13.1411 85.6494 12.7572 84.8887 12.7572C82.8006 12.7572 82.6564 13.9138 82.6564 16.227C82.6564 18.5402 82.8006 19.6968 84.8887 19.6968C85.6444 19.6968 86.425 19.2932 87.0415 18.9241V13.4708V13.4659Z" fill="white"/>
<path d="M91.4267 12.6981C92.0631 12.3142 92.9232 11.8466 93.843 11.8072C95.2997 11.7482 96.0356 12.1321 96.4035 12.7424C97.0796 12.3388 97.9596 11.8319 98.9441 11.8072C101.892 11.7285 102.101 13.205 102.101 15.2771V20.4695H100.689V15.3607C100.689 13.5988 100.585 12.7424 98.6607 12.7424C97.9646 12.7424 97.2487 13.146 96.6521 13.5151C96.7962 14.1254 96.8559 14.7504 96.8161 15.4001V20.5089H95.5881V15.3804C95.5881 13.6184 95.4837 12.7621 93.5596 12.7621C92.8834 12.7621 92.1675 13.1656 91.6156 13.4708V20.4892H90.2036V11.9697H91.3123L91.4366 12.6981H91.4267Z" fill="white"/>
<path d="M103.841 10.872V9.42993H105.298V10.872H103.841ZM103.881 20.4645V11.9449H105.293V20.4645H103.881Z" fill="white"/>
<path d="M108.311 12.698C109.007 12.3141 109.932 11.8466 110.931 11.8072C114.088 11.7285 114.272 13.205 114.272 15.277V20.4695H112.86V15.3607C112.86 13.5987 112.716 12.7423 110.628 12.7423C109.872 12.7423 109.072 13.1459 108.475 13.4904V20.5088H107.063V11.9499H108.172L108.316 12.698H108.311Z" fill="white"/>
<path d="M117.036 22.453C117.568 22.5121 118.265 22.5318 119.045 22.5318C121.218 22.5318 121.501 21.9461 121.526 19.6919C120.89 20.0561 119.99 20.4646 119.07 20.4843C115.913 20.5434 115.729 18.8601 115.729 16.2073C115.729 13.5545 115.893 11.7876 118.926 11.7876C119.95 11.7876 120.914 12.2552 121.65 12.7227L121.794 11.95H122.903V19.5147C122.903 22.576 122.207 23.5112 119.358 23.5112C118.518 23.5112 117.678 23.4324 116.877 23.3094L117.041 22.4579L117.036 22.453ZM121.501 13.5102C120.885 13.1263 120.109 12.7375 119.348 12.7375C117.26 12.7375 117.116 13.8941 117.116 16.2073C117.116 18.5205 117.26 19.5541 119.348 19.5541C120.104 19.5541 120.905 19.1505 121.501 18.8454V13.5102Z" fill="white"/>
</svg>
