<svg width="100" height="47" viewBox="0 0 100 47" fill="none" xmlns="http://www.w3.org/2000/svg">
<path d="M86.0891 18.1604C81.122 18.469 83.3507 24.94 88.8455 24.599C94.2182 24.2653 91.3829 17.8302 86.0891 18.1604Z" fill="#E78D29"/>
<path d="M83.9931 14.1623C75.1534 14.1623 67.9862 21.3295 67.9862 30.1692C67.9862 39.0088 75.1534 46.176 83.9931 46.176C92.8328 46.176 100 39.0088 100 30.1692C100 21.3295 92.8328 14.1623 83.9931 14.1623ZM83.9931 44.5C76.0794 44.5 69.6659 38.09 69.6659 30.1763C69.6659 22.2626 76.0758 15.8491 83.9895 15.8491C91.9032 15.8491 98.3168 22.259 98.3168 30.1727C98.3168 38.0865 91.9032 44.5 83.9931 44.5ZM83.5086 2.98615C79.7078 5.85734 80.3682 10.2646 80.3682 10.2646C80.3682 10.2646 77.978 4.06285 74.8771 0.272873C74.4572 5.1539 75.9861 11.6177 75.9861 11.6177C75.9861 11.6177 74.0444 7.60877 69.2854 7.38625C73.2333 9.65449 74.7658 13.7423 75.1139 14.8406C77.4683 13.387 80.1565 12.5759 82.92 12.479C82.6077 11.4597 81.5023 7.15655 83.505 2.98974L83.5086 2.98615Z" fill="#E78D29"/>
<path d="M1.39253 31.7411V35.0897H0V26.4581H2.93579C3.92994 26.4581 4.68004 26.695 5.17891 27.1688C5.67778 27.6425 5.9326 28.2885 5.93619 29.114C5.93619 29.9287 5.67778 30.5711 5.16456 31.0413C4.65133 31.5078 3.90841 31.7447 2.93938 31.7447H1.39253V31.7411ZM4.51136 29.114C4.51136 28.6259 4.37498 28.2526 4.10221 27.9942C3.82945 27.7358 3.39159 27.6102 2.78864 27.6102H1.39612V30.6034H2.78864C3.93712 30.6034 4.51136 30.1081 4.51136 29.114ZM11.6893 35.0932L9.53594 31.6442H8.54538V35.0932H7.15286V26.4617H10.1999C11.1869 26.4617 11.9334 26.7022 12.443 27.1831C12.9527 27.664 13.2075 28.2993 13.2075 29.0925C13.2075 29.7636 13.0173 30.3199 12.6404 30.7542C12.26 31.192 11.7145 31.4684 11.0003 31.5832L13.2685 35.0932H11.6893ZM8.54538 30.6537H10.0815C11.2084 30.6537 11.7683 30.1584 11.7683 29.1642C11.7683 28.6905 11.6319 28.3244 11.3591 28.0588C11.0864 27.7932 10.6593 27.6604 10.0815 27.6604H8.54538V30.6537ZM19.6102 33.2198H15.9674L15.307 35.0897H13.8176L16.9975 26.5945H18.5981L21.7636 35.0897H20.2706L19.6102 33.2198ZM19.219 32.1431L17.787 28.1091L16.355 32.1431H19.2154H19.219ZM28.8052 27.14C29.4907 27.6461 29.9716 28.3782 30.1619 29.2073H28.694C28.5109 28.7479 28.1879 28.3603 27.7716 28.0947C27.3158 27.8112 26.7882 27.664 26.2499 27.6784C25.7402 27.6712 25.2414 27.8004 24.7999 28.0552C24.3692 28.3101 24.0211 28.6833 23.7986 29.1319C23.5509 29.6416 23.4289 30.2086 23.4433 30.7757C23.4253 31.3643 23.5545 31.9457 23.8094 32.4769C24.039 32.9327 24.3979 33.3095 24.843 33.5572C25.3167 33.8156 25.8515 33.9448 26.3898 33.934C27.0682 33.9448 27.7249 33.7043 28.2346 33.2593C28.7478 32.8142 29.0565 32.2077 29.1641 31.4325H25.995V30.406H30.3341V31.7375C30.2408 32.3584 30.0111 32.9506 29.6558 33.4674C29.2969 33.9914 28.8124 34.4149 28.2489 34.7092C27.6316 35.0251 26.9425 35.1866 26.2499 35.1722C25.4711 35.1866 24.703 34.9928 24.0247 34.6087C23.3894 34.2427 22.8726 33.7007 22.5353 33.0511C21.8354 31.6119 21.8354 29.9287 22.5353 28.4895C22.8726 27.8399 23.3859 27.3015 24.0211 26.9355C24.6994 26.555 25.4639 26.3648 26.2391 26.3792C27.2656 26.3792 28.1233 26.6304 28.8052 27.1365V27.14ZM40.1751 26.5909V35.0861H38.7683V28.7156L36.3134 35.0861H35.0895L32.6203 28.7156V35.0861H31.2278V26.5909H32.9146L35.7284 33.3777L38.4919 26.5909H40.1787H40.1751ZM46.9978 33.2162H43.3586L42.6982 35.0861H41.2016L44.3814 26.5909H45.9821L49.1512 35.0861H47.6582L46.9978 33.2162ZM46.6066 32.1395L45.1746 28.1055L43.7426 32.1395H46.603H46.6066ZM55.1161 26.4545V27.5779H52.7079V35.0861H51.301V27.5779H48.9072V26.4545H55.1161ZM57.2551 26.4545V35.0861H55.8626V26.4545H57.2551ZM65.1402 27.1759C65.8472 27.7251 66.3461 28.4967 66.5578 29.3652H65.0791C64.8889 28.8628 64.5516 28.4285 64.1065 28.1234C63.622 27.8076 63.0514 27.6461 62.4735 27.664C61.989 27.6569 61.5117 27.7861 61.099 28.0409C60.6862 28.3065 60.356 28.6797 60.1443 29.1212C59.6813 30.1656 59.6813 31.3535 60.1443 32.3979C60.356 32.8394 60.6862 33.2162 61.099 33.4818C61.5117 33.7366 61.989 33.8694 62.4735 33.8586C63.0514 33.8766 63.622 33.7187 64.1065 33.4028C64.548 33.1014 64.8853 32.6743 65.0791 32.1754H66.5578C66.3496 33.0439 65.8472 33.812 65.1402 34.3575C64.4403 34.8923 63.5574 35.1578 62.4987 35.1578C61.7414 35.1722 60.9913 34.9784 60.3345 34.6015C59.71 34.2355 59.204 33.6971 58.881 33.0475C58.1955 31.6047 58.1955 29.9287 58.881 28.4859C59.2076 27.8399 59.7136 27.298 60.3345 26.9283C60.9913 26.5479 61.7378 26.3505 62.4987 26.3648C63.5574 26.3648 64.4367 26.634 65.1402 27.1723V27.1759ZM73.1328 31.7375V35.0861H71.7403V26.4545H74.6761C75.6702 26.4545 76.4168 26.6914 76.9192 27.1652C77.4217 27.6389 77.6729 28.2849 77.6765 29.1104C77.6765 29.9251 77.4181 30.5675 76.9049 31.0377C76.3916 31.5043 75.6487 31.7411 74.6797 31.7411H73.1328V31.7375ZM76.2552 29.1104C76.2552 28.6223 76.1189 28.249 75.8461 27.9906C75.5733 27.7322 75.1355 27.6066 74.5325 27.6066H73.1364V30.5998H74.5289C75.681 30.5998 76.2588 30.1046 76.2588 29.1104H76.2552ZM80.0668 34.0022H83.0492V35.0897H78.6706V26.4581H80.0632V34.0022H80.0668ZM89.4304 33.2198H85.7876L85.1272 35.0897H83.6342L86.8141 26.5945H88.4147L91.5838 35.0897H90.0908L89.4304 33.2198ZM89.0392 32.1431L87.6072 28.1091L86.1752 32.1431H89.0356H89.0392ZM97.1791 26.4581L94.3079 31.9457V35.0897H92.9046V31.9457L90.019 26.4581H91.6341L93.6152 30.4563L95.5963 26.4581H97.1791Z" fill="#231815"/>
</svg>
