<svg width="80" height="37" viewBox="0 0 80 37" fill="none" xmlns="http://www.w3.org/2000/svg">
<path d="M68.8713 14.3101C64.8976 14.557 66.6806 19.7338 71.0764 19.461C75.3746 19.194 73.1063 14.046 68.8713 14.3101Z" fill="white"/>
<path d="M67.1947 11.1115C60.1229 11.1115 54.3892 16.8453 54.3892 23.917C54.3892 30.9888 60.1229 36.7225 67.1947 36.7225C74.2664 36.7225 80.0002 30.9888 80.0002 23.917C80.0002 16.8453 74.2664 11.1115 67.1947 11.1115ZM67.1947 35.3817C60.8637 35.3817 55.7329 30.2537 55.7329 23.9228C55.7329 17.5918 60.8608 12.461 67.1918 12.461C73.5228 12.461 78.6536 17.5889 78.6536 23.9199C78.6536 30.2509 73.5228 35.3817 67.1947 35.3817ZM66.8071 2.17062C63.7665 4.46757 64.2948 7.99339 64.2948 7.99339C64.2948 7.99339 62.3826 3.03198 59.9018 0C59.5659 3.90482 60.789 9.07583 60.789 9.07583C60.789 9.07583 59.2357 5.86871 55.4285 5.6907C58.5868 7.50529 59.8128 10.7756 60.0913 11.6542C61.9748 10.4913 64.1254 9.84244 66.3362 9.76492C66.0864 8.9495 65.2021 5.50694 66.8042 2.17349L66.8071 2.17062Z" fill="white"/>
<path d="M1.11402 25.1747V27.8535H0V20.9483H2.34863C3.14395 20.9483 3.74403 21.1378 4.14313 21.5168C4.54222 21.8958 4.74608 22.4126 4.74895 23.073C4.74895 23.7247 4.54222 24.2387 4.13164 24.6148C3.72106 24.988 3.12673 25.1775 2.35151 25.1775H1.11402V25.1747ZM3.60909 23.073C3.60909 22.6825 3.49998 22.3839 3.28177 22.1772C3.06356 21.9704 2.71328 21.8699 2.23092 21.8699H1.11689V24.2645H2.23092C3.1497 24.2645 3.60909 23.8683 3.60909 23.073ZM9.35147 27.8564L7.62876 25.0972H6.83631V27.8564H5.72228V20.9512H8.15993C8.9495 20.9512 9.54671 21.1435 9.95442 21.5283C10.3621 21.913 10.566 22.4212 10.566 23.0557C10.566 23.5927 10.4138 24.0377 10.1123 24.3851C9.80799 24.7354 9.37157 24.9565 8.8002 25.0483L10.6148 27.8564H9.35147ZM6.83631 24.3047H8.06518C8.96673 24.3047 9.41464 23.9085 9.41464 23.1132C9.41464 22.7342 9.30553 22.4413 9.08732 22.2288C8.86911 22.0164 8.52744 21.9101 8.06518 21.9101H6.83631V24.3047ZM15.6882 26.3576H12.7739L12.2456 27.8535H11.0541L13.598 21.0574H14.8785L17.4109 27.8535H16.2165L15.6882 26.3576ZM15.3752 25.4963L14.2296 22.269L13.084 25.4963H15.3724H15.3752ZM23.0442 21.4938C23.5926 21.8986 23.9773 22.4844 24.1295 23.1476H22.9552C22.8087 22.7801 22.5503 22.47 22.2173 22.2575C21.8526 22.0307 21.4306 21.913 20.9999 21.9245C20.5922 21.9187 20.1931 22.0221 19.8399 22.226C19.4954 22.4298 19.2169 22.7284 19.0389 23.0873C18.8408 23.495 18.7431 23.9487 18.7546 24.4023C18.7403 24.8732 18.8436 25.3383 19.0475 25.7633C19.2312 26.1279 19.5184 26.4294 19.8744 26.6275C20.2534 26.8342 20.6812 26.9376 21.1119 26.929C21.6545 26.9376 22.18 26.7452 22.5877 26.3892C22.9982 26.0332 23.2452 25.5479 23.3313 24.9278H20.796V24.1066H24.2673V25.1718C24.1927 25.6685 24.0089 26.1423 23.7247 26.5557C23.4375 26.9749 23.0499 27.3137 22.5991 27.5491C22.1053 27.8018 21.554 27.931 20.9999 27.9195C20.3768 27.931 19.7624 27.776 19.2198 27.4688C18.7116 27.1759 18.2981 26.7423 18.0282 26.2227C17.4683 25.0713 17.4683 23.7247 18.0282 22.5734C18.2981 22.0537 18.7087 21.623 19.2169 21.3302C19.7595 21.0258 20.3711 20.8736 20.9913 20.8851C21.8124 20.8851 22.4987 21.0861 23.0442 21.4909V21.4938ZM32.1401 21.0545V27.8506H31.0146V22.7543L29.0507 27.8506H28.0716L26.0963 22.7543V27.8506H24.9822V21.0545H26.3317L28.5827 26.4839L30.7935 21.0545H32.143H32.1401ZM37.5982 26.3547H34.6869L34.1586 27.8506H32.9613L35.5051 21.0545H36.7857L39.321 27.8506H38.1265L37.5982 26.3547ZM37.2853 25.4934L36.1397 22.2662L34.9941 25.4934H37.2824H37.2853ZM44.0929 20.9454V21.8441H42.1663V27.8506H41.0408V21.8441H39.1257V20.9454H44.0929ZM45.8041 20.9454V27.8506H44.6901V20.9454H45.8041ZM52.1121 21.5225C52.6777 21.9618 53.0768 22.5791 53.2462 23.2739H52.0633C51.9111 22.872 51.6412 22.5246 51.2852 22.2805C50.8976 22.0279 50.4411 21.8986 49.9788 21.913C49.5912 21.9073 49.2093 22.0106 48.8792 22.2145C48.549 22.4269 48.2848 22.7256 48.1154 23.0787C47.745 23.9142 47.745 24.8646 48.1154 25.7001C48.2848 26.0533 48.549 26.3547 48.8792 26.5672C49.2093 26.7711 49.5912 26.8773 49.9788 26.8687C50.4411 26.883 50.8976 26.7567 51.2852 26.504C51.6384 26.2629 51.9083 25.9212 52.0633 25.5221H53.2462C53.0797 26.2169 52.6777 26.8314 52.1121 27.2678C51.5522 27.6956 50.8459 27.908 49.9989 27.908C49.3931 27.9195 48.793 27.7645 48.2676 27.463C47.768 27.1702 47.3632 26.7395 47.1048 26.2198C46.5564 25.0656 46.5564 23.7247 47.1048 22.5705C47.366 22.0537 47.7709 21.6201 48.2676 21.3244C48.793 21.0201 49.3902 20.8621 49.9989 20.8736C50.8459 20.8736 51.5494 21.089 52.1121 21.5196V21.5225ZM58.5063 25.1718V27.8506H57.3922V20.9454H59.7409C60.5362 20.9454 61.1334 21.1349 61.5354 21.5139C61.9373 21.8929 62.1383 22.4097 62.1412 23.0701C62.1412 23.7219 61.9345 24.2358 61.5239 24.6119C61.1133 24.9852 60.519 25.1747 59.7437 25.1747H58.5063V25.1718ZM61.0042 23.0701C61.0042 22.6796 60.8951 22.381 60.6769 22.1743C60.4587 21.9676 60.1084 21.8671 59.626 21.8671H58.5091V24.2616H59.6232C60.5448 24.2616 61.0071 23.8654 61.0071 23.0701H61.0042ZM64.0534 26.9835H66.4394V27.8535H62.9365V20.9483H64.0505V26.9835H64.0534ZM71.5443 26.3576H68.6301L68.1018 27.8535H66.9074L69.4512 21.0574H70.7318L73.2671 27.8535H72.0726L71.5443 26.3576ZM71.2314 25.4963L70.0858 22.269L68.9402 25.4963H71.2285H71.2314ZM77.7432 20.9483L75.4463 25.3383V27.8535H74.3237V25.3383L72.0152 20.9483H73.3073L74.8922 24.1468L76.477 20.9483H77.7432Z" fill="white"/>
</svg>
