<svg width="100" height="47" viewBox="0 0 100 47" fill="none" xmlns="http://www.w3.org/2000/svg">
<path d="M86.0891 18.6295C81.122 18.9381 83.3507 25.4091 88.8455 25.0681C94.2182 24.7343 91.3829 18.2993 86.0891 18.6295Z" fill="#E78D29"/>
<path d="M83.9931 14.6313C75.1534 14.6313 67.9862 21.7985 67.9862 30.6382C67.9862 39.4779 75.1534 46.6451 83.9931 46.6451C92.8328 46.6451 100 39.4779 100 30.6382C100 21.7985 92.8328 14.6313 83.9931 14.6313ZM83.9931 44.9691C76.0794 44.9691 69.6659 38.5591 69.6659 30.6454C69.6659 22.7317 76.0758 16.3182 83.9895 16.3182C91.9032 16.3182 98.3168 22.7281 98.3168 30.6418C98.3168 38.5555 91.9032 44.9691 83.9931 44.9691ZM83.5086 3.45522C79.7078 6.32641 80.3682 10.7337 80.3682 10.7337C80.3682 10.7337 77.978 4.53192 74.8771 0.741943C74.4572 5.62297 75.9861 12.0867 75.9861 12.0867C75.9861 12.0867 74.0444 8.07784 69.2854 7.85532C73.2333 10.1236 74.7658 14.2114 75.1139 15.3096C77.4683 13.8561 80.1565 13.045 82.92 12.9481C82.6077 11.9288 81.5023 7.62562 83.505 3.45881L83.5086 3.45522Z" fill="#E78D29"/>
<path d="M1.39253 32.2102V35.5587H0V26.9272H2.93579C3.92994 26.9272 4.68004 27.164 5.17891 27.6378C5.67778 28.1115 5.9326 28.7576 5.93619 29.583C5.93619 30.3977 5.67778 31.0402 5.16456 31.5103C4.65133 31.9769 3.90841 32.2138 2.93938 32.2138H1.39253V32.2102ZM4.51136 29.583C4.51136 29.0949 4.37498 28.7217 4.10221 28.4633C3.82945 28.2049 3.39159 28.0792 2.78864 28.0792H1.39612V31.0725H2.78864C3.93712 31.0725 4.51136 30.5772 4.51136 29.583ZM11.6893 35.5623L9.53594 32.1133H8.54538V35.5623H7.15286V26.9308H10.1999C11.1869 26.9308 11.9334 27.1712 12.443 27.6521C12.9527 28.1331 13.2075 28.7683 13.2075 29.5615C13.2075 30.2326 13.0173 30.7889 12.6404 31.2232C12.26 31.661 11.7145 31.9374 11.0003 32.0523L13.2685 35.5623H11.6893ZM8.54538 31.1227H10.0815C11.2084 31.1227 11.7683 30.6274 11.7683 29.6333C11.7683 29.1595 11.6319 28.7934 11.3591 28.5279C11.0864 28.2623 10.6593 28.1295 10.0815 28.1295H8.54538V31.1227ZM19.6102 33.6888H15.9674L15.307 35.5587H13.8176L16.9975 27.0636H18.5981L21.7636 35.5587H20.2706L19.6102 33.6888ZM19.219 32.6121L17.787 28.5781L16.355 32.6121H19.2154H19.219ZM28.8052 27.6091C29.4907 28.1151 29.9716 28.8473 30.1619 29.6763H28.694C28.5109 29.2169 28.1879 28.8293 27.7716 28.5638C27.3158 28.2802 26.7882 28.1331 26.2499 28.1474C25.7402 28.1403 25.2414 28.2695 24.7999 28.5243C24.3692 28.7791 24.0211 29.1523 23.7986 29.601C23.5509 30.1106 23.4289 30.6777 23.4433 31.2447C23.4253 31.8333 23.5545 32.4147 23.8094 32.9459C24.039 33.4017 24.3979 33.7786 24.843 34.0262C25.3167 34.2846 25.8515 34.4138 26.3898 34.403C27.0682 34.4138 27.7249 34.1733 28.2346 33.7283C28.7478 33.2833 29.0565 32.6767 29.1641 31.9015H25.995V30.8751H30.3341V32.2066C30.2408 32.8275 30.0111 33.4197 29.6558 33.9365C29.2969 34.4605 28.8124 34.884 28.2489 35.1783C27.6316 35.4941 26.9425 35.6556 26.2499 35.6412C25.4711 35.6556 24.703 35.4618 24.0247 35.0778C23.3894 34.7117 22.8726 34.1698 22.5353 33.5201C21.8354 32.081 21.8354 30.3977 22.5353 28.9585C22.8726 28.3089 23.3859 27.7706 24.0211 27.4045C24.6994 27.0241 25.4639 26.8339 26.2391 26.8482C27.2656 26.8482 28.1233 27.0994 28.8052 27.6055V27.6091ZM40.1751 27.06V35.5551H38.7683V29.1846L36.3134 35.5551H35.0895L32.6203 29.1846V35.5551H31.2278V27.06H32.9146L35.7284 33.8467L38.4919 27.06H40.1787H40.1751ZM46.9978 33.6852H43.3586L42.6982 35.5551H41.2016L44.3814 27.06H45.9821L49.1512 35.5551H47.6582L46.9978 33.6852ZM46.6066 32.6085L45.1746 28.5745L43.7426 32.6085H46.603H46.6066ZM55.1161 26.9236V28.0469H52.7079V35.5551H51.301V28.0469H48.9072V26.9236H55.1161ZM57.2551 26.9236V35.5551H55.8626V26.9236H57.2551ZM65.1402 27.645C65.8472 28.1941 66.3461 28.9657 66.5578 29.8343H65.0791C64.8889 29.3318 64.5516 28.8975 64.1065 28.5925C63.622 28.2766 63.0514 28.1151 62.4735 28.1331C61.989 28.1259 61.5117 28.2551 61.099 28.5099C60.6862 28.7755 60.356 29.1488 60.1443 29.5902C59.6813 30.6346 59.6813 31.8226 60.1443 32.8669C60.356 33.3084 60.6862 33.6852 61.099 33.9508C61.5117 34.2056 61.989 34.3384 62.4735 34.3277C63.0514 34.3456 63.622 34.1877 64.1065 33.8719C64.548 33.5704 64.8853 33.1433 65.0791 32.6444H66.5578C66.3496 33.513 65.8472 34.281 65.1402 34.8265C64.4403 35.3613 63.5574 35.6269 62.4987 35.6269C61.7414 35.6412 60.9913 35.4474 60.3345 35.0706C59.71 34.7045 59.204 34.1662 58.881 33.5166C58.1955 32.0738 58.1955 30.3977 58.881 28.955C59.2076 28.3089 59.7136 27.767 60.3345 27.3973C60.9913 27.0169 61.7378 26.8195 62.4987 26.8339C63.5574 26.8339 64.4367 27.103 65.1402 27.6414V27.645ZM73.1328 32.2066V35.5551H71.7403V26.9236H74.6761C75.6702 26.9236 76.4168 27.1605 76.9192 27.6342C77.4217 28.108 77.6729 28.754 77.6765 29.5794C77.6765 30.3941 77.4181 31.0366 76.9049 31.5067C76.3916 31.9733 75.6487 32.2102 74.6797 32.2102H73.1328V32.2066ZM76.2552 29.5794C76.2552 29.0913 76.1189 28.7181 75.8461 28.4597C75.5733 28.2013 75.1355 28.0757 74.5325 28.0757H73.1364V31.0689H74.5289C75.681 31.0689 76.2588 30.5736 76.2588 29.5794H76.2552ZM80.0668 34.4712H83.0492V35.5587H78.6706V26.9272H80.0632V34.4712H80.0668ZM89.4304 33.6888H85.7876L85.1272 35.5587H83.6342L86.8141 27.0636H88.4147L91.5838 35.5587H90.0908L89.4304 33.6888ZM89.0392 32.6121L87.6072 28.5781L86.1752 32.6121H89.0356H89.0392ZM97.1791 26.9272L94.3079 32.4147V35.5587H92.9046V32.4147L90.019 26.9272H91.6341L93.6152 30.9253L95.5963 26.9272H97.1791Z" fill="white"/>
</svg>
