<svg width="48" height="48" viewBox="0 0 48 48" fill="none" xmlns="http://www.w3.org/2000/svg">
<path d="M23.4812 9C14.9166 9 8 15.9574 8 24.5676C8 26.0984 8.22819 27.6292 8.68963 29.0736C8.98374 28.6769 9.25249 28.2751 9.50603 27.8378C10.5912 26.2459 11.6358 24.6541 12.6804 23.0164L13.4511 21.7806C13.6996 21.3839 13.9531 20.9618 14.1813 20.5447C14.6833 19.7259 15.1853 18.8868 15.6214 18.0731C15.8496 17.656 16.0829 17.2542 16.3314 16.8169C16.5798 16.3998 16.7928 15.998 17.021 15.5607C17.2492 15.1233 17.4824 14.7012 17.67 14.3045L18.2988 13.0279L18.3597 12.9466C18.6944 12.2549 19.531 11.9803 20.241 12.2956C20.743 12.5906 21.0574 13.1144 21.0371 13.7196C21.0371 14.452 20.89 15.2301 20.8292 15.9624C20.7683 16.6948 20.748 17.4729 20.6821 18.246C20.6213 19.7565 20.601 21.3076 20.601 22.813C20.601 24.3184 20.6821 25.8289 20.8292 27.2987C20.9103 28.0107 21.0371 28.7227 21.1638 29.4347C21.2703 30.0654 21.4782 30.6909 21.7673 31.2554C21.8484 31.4233 21.9752 31.5911 22.1019 31.7386C22.1831 31.7996 22.1222 31.7589 22.1831 31.7589C22.2439 31.7589 22.2034 31.7589 22.2439 31.7589L22.3048 31.7386H22.3251L22.4062 31.7182C22.4062 31.7182 22.4873 31.6572 22.5127 31.6369C22.7409 31.469 22.9285 31.2605 23.1415 31.0316C23.6029 30.4875 24.0187 29.9433 24.394 29.3533C24.7895 28.7481 25.1647 28.0971 25.5247 27.4462C26.2549 26.1239 26.9446 24.7863 27.5936 23.4233C27.908 22.7316 28.2427 22.0603 28.5571 21.3483C28.8715 20.6566 29.1859 19.9446 29.4749 19.2733C29.769 18.5613 30.5804 18.2256 31.2903 18.5003C31.7517 18.6681 32.061 19.0648 32.1472 19.5479C32.1472 19.7158 32.1675 19.9446 32.2081 20.1786L32.2892 20.8295C32.3501 21.2466 32.3957 21.689 32.4971 22.1061C32.6442 22.9656 32.8115 23.8251 33.0397 24.6439C33.2679 25.4627 33.5417 26.3019 33.8967 27.0952C34.2313 27.8937 34.6674 28.6261 35.2151 29.3177C35.3216 29.4856 35.2962 29.7144 35.1542 29.8212C35.0122 29.928 34.8196 29.928 34.6928 29.8212C33.9829 29.1906 33.3541 28.4786 32.8115 27.7055C32.2689 26.9325 31.8075 26.1137 31.3917 25.2745C31.0976 24.71 30.8897 24.1404 30.6209 23.5555C30.4536 23.8912 30.3065 24.2472 30.1392 24.5625C29.4496 25.9662 28.7802 27.3495 27.9892 28.7532C27.5936 29.4856 27.193 30.1772 26.7367 30.8689C26.2752 31.5809 25.7732 32.2726 25.2306 32.9032C24.9162 33.2796 24.541 33.5949 24.1861 33.9102C24.0796 33.9916 23.9579 34.078 23.8108 34.1391L23.5623 34.2866L23.4153 34.3476H23.395L23.3139 34.3679H23.253L23.1465 34.3883C23.0654 34.4086 22.9995 34.4493 22.9183 34.4493C22.751 34.4696 22.5837 34.5103 22.4163 34.5307C22.0411 34.551 21.6456 34.5103 21.3109 34.3832C20.9762 34.256 20.6618 34.0679 20.3728 33.839C19.957 33.4627 19.5767 33.0202 19.3282 32.4964C18.9327 31.6979 18.6386 30.8384 18.4712 29.9586C18.3039 29.1601 18.1771 28.326 18.096 27.5275C17.9287 25.9357 17.8678 24.3642 17.8475 22.7723V20.5295C17.5534 21.0737 17.2847 21.6178 16.9906 22.1213C16.7624 22.5384 16.5291 22.9808 16.2806 23.3979L15.5707 24.6744C14.6073 26.3934 13.6083 28.0717 12.5637 29.7449C11.9147 30.8333 11.225 31.9013 10.5354 32.9744C15.2158 40.1607 24.825 42.1543 31.9951 37.4601C39.1602 32.7659 41.1479 23.1283 36.4676 15.937C33.5823 11.6395 28.7346 9 23.4913 9H23.4812Z" fill="white"/>
</svg>
