<svg width="48" height="48" viewBox="0 0 48 48" fill="none" xmlns="http://www.w3.org/2000/svg">
<path d="M26.3631 19.1458C21.5988 19.4417 23.7365 25.6443 29.0068 25.3175C34.1601 24.9976 31.4406 18.8293 26.3631 19.1458Z" fill="white"/>
<path d="M24.3531 15.3135C15.8745 15.3135 9 22.1836 9 30.6568C9 39.1299 15.8745 46 24.3531 46C32.8317 46 39.7061 39.1299 39.7061 30.6568C39.7061 22.1836 32.8317 15.3135 24.3531 15.3135ZM24.3531 44.3934C16.7626 44.3934 10.611 38.2493 10.611 30.6636C10.611 23.078 16.7592 16.9304 24.3496 16.9304C31.9401 16.9304 38.0916 23.0746 38.0916 30.6602C38.0916 38.2458 31.9401 44.3934 24.3531 44.3934ZM23.8883 4.60078C20.2428 7.35293 20.8762 11.5775 20.8762 11.5775C20.8762 11.5775 18.5836 5.63284 15.6094 2C15.2066 6.67866 16.6731 12.8744 16.6731 12.8744C16.6731 12.8744 14.8108 9.03174 10.2461 8.81845C14.0328 10.9927 15.5027 14.911 15.8366 15.9637C18.0948 14.5704 20.6731 13.793 23.3238 13.7001C23.0243 12.7231 21.964 8.59828 23.8849 4.60422L23.8883 4.60078Z" fill="white"/>
<path d="M13.9367 32.1604V35.3701H12.6011V27.0964H15.4169C16.3705 27.0964 17.0865 27.3235 17.5684 27.7776C18.0504 28.2317 18.2913 28.8509 18.2948 29.6422C18.2948 30.4231 18.0469 31.0389 17.5547 31.4896C17.0624 31.9368 16.3498 32.1638 15.4204 32.1638H13.9367V32.1604ZM16.9316 29.6422C16.9316 29.1743 16.8008 28.8165 16.5392 28.5688C16.2775 28.3211 15.8576 28.2007 15.2793 28.2007H13.9402V31.0699H15.2758C16.3808 31.0699 16.935 30.5951 16.935 29.6422H16.9316ZM20.5874 34.3311H23.448V35.3735H19.2483V27.0999H20.584V34.3311H20.5874ZM29.5686 33.5812H26.0746L25.4412 35.3735H24.0092L27.0591 27.2306H28.5944L31.6341 35.3735H30.202L29.5686 33.5812ZM29.1934 32.5491L27.8199 28.6824L26.4464 32.5491H29.19H29.1934ZM37.0007 27.0999L34.2468 32.3599V35.3735H32.9008V32.3599L30.1332 27.0999H31.6822L33.5825 30.9322L35.4826 27.0999H37.0007Z" fill="white"/>
</svg>
