<svg width="48" height="48" viewBox="0 0 48 48" fill="none" xmlns="http://www.w3.org/2000/svg">
<path d="M23.7739 36.5301C22.5959 35.6059 21.3365 34.7826 20.3049 33.6794C21.6619 33.7022 23.0189 33.7283 24.3792 33.751C24.1969 34.6817 24.2295 35.658 23.7772 36.5301H23.7739Z" fill="white"/>
<path fill-rule="evenodd" clip-rule="evenodd" d="M23.8954 13.1998C23.7747 13.765 23.6564 14.3187 23.5393 14.8735V14.8767C23.4461 15.4411 23.3544 16.0055 23.2628 16.5698C23.0988 17.5802 22.9349 18.59 22.7616 19.5985C22.5817 20.6458 22.3984 21.6925 22.215 22.7394C21.9669 24.1549 21.7189 25.5708 21.4794 26.9888C21.416 27.3517 21.3031 27.6948 21.1901 28.0382C21.1582 28.1351 21.1263 28.2321 21.0954 28.3295C21.1693 28.8773 21.0502 29.4003 20.9309 29.9239C20.8715 30.1842 20.8122 30.4447 20.7765 30.7084C20.6871 31.3524 20.5608 31.9917 20.4345 32.6307C20.3771 32.9217 20.3196 33.2125 20.2656 33.5037C20.2714 33.5314 20.2766 33.5583 20.2817 33.585C20.288 33.6179 20.2942 33.6503 20.3014 33.6827C20.9876 33.6942 21.673 33.7065 22.3579 33.7188C23.0308 33.7309 23.7032 33.743 24.3757 33.7543C24.4738 33.7499 24.5715 33.7441 24.6691 33.7383C24.8629 33.7267 25.0563 33.7152 25.251 33.7152C27.9018 33.712 30.5533 33.712 33.2049 33.712C35.856 33.712 38.5072 33.712 41.1575 33.7087C41.227 33.7087 41.2972 33.7124 41.3683 33.716C41.6201 33.7291 41.8843 33.7427 42.1761 33.5981C42.9554 29.1906 43.7384 24.7696 44.5244 20.332C45.0151 17.5614 45.507 14.7843 45.9998 12H24.1511C24.0644 12.4084 23.9793 12.8069 23.8954 13.1998ZM41.0844 20.1127C41.2004 19.8905 41.1581 19.7573 41.1177 19.6302C41.1147 19.6207 41.1117 19.6113 41.1087 19.6018C40.3245 16.8845 37.9294 15.0427 35.0722 14.9483C32.1122 14.8538 29.2784 16.2076 27.3778 18.3839C26.3318 19.5803 25.5675 21.0255 25.2186 22.6152C24.2033 27.2426 27.2752 31.037 32.0264 30.9036C34.1614 30.8434 35.9564 30.1364 37.4722 28.9401C38.3363 28.2594 39.1098 27.4193 39.8038 26.4486C40.3115 25.7393 40.413 24.9394 40.5171 24.1192C40.5525 23.8406 40.5881 23.5596 40.6401 23.279H33.3345C33.334 23.2812 33.3335 23.2834 33.333 23.2855H33.328C33.2989 23.4139 33.2685 23.541 33.2383 23.6679C33.0758 24.3488 32.9154 25.0213 32.9538 25.8141H37.399C37.3334 25.8884 37.2674 25.9612 37.2011 26.0325C35.7047 27.637 34.0374 28.4768 31.9742 28.4239C29.7972 28.3686 28.0431 26.8391 27.6689 24.7402C27.4002 23.239 27.8553 21.7089 28.7412 20.4378C30.1423 18.4341 32.6139 17.0752 35.0039 17.4931C36.6278 17.7762 37.7668 18.6776 38.4892 20.1192H41.0779C41.0774 20.1203 41.0768 20.1214 41.0763 20.1225L41.0828 20.1192H41.0779C41.0791 20.117 41.0802 20.1149 41.0813 20.1127H41.0844Z" fill="white"/>
<path fill-rule="evenodd" clip-rule="evenodd" d="M23.3513 16.0314C23.4139 15.6455 23.4765 15.2596 23.5395 14.8736L23.5362 14.8769C23.4665 14.8725 23.3965 14.8674 23.3264 14.8624C23.1347 14.8485 22.9417 14.8345 22.7487 14.8345H6.40292C6.38026 14.8345 6.35748 14.8339 6.33452 14.8333C6.18268 14.8292 6.02239 14.8248 5.83019 14.9973C5.22569 18.4098 4.61897 21.8393 4.00967 25.2835C3.34303 29.0518 2.67329 32.8376 2 36.6376C2.11049 36.643 2.19977 36.649 2.27664 36.6541C2.38541 36.6613 2.46931 36.6669 2.55321 36.6669C9.423 36.6669 16.296 36.6637 23.1658 36.6604L23.2043 36.6604C23.2449 36.6604 23.2866 36.6637 23.3286 36.6669C23.4885 36.6793 23.652 36.692 23.7706 36.527C23.4592 36.2827 23.1422 36.0455 22.8252 35.8084C21.9428 35.1481 21.0605 34.488 20.3016 33.6763C20.2958 33.6487 20.2906 33.6217 20.2855 33.5951C20.2793 33.5625 20.2731 33.5306 20.2661 33.4986C20.2504 33.4713 20.235 33.4438 20.2197 33.4163C19.8289 32.7192 19.554 31.9738 19.2788 31.2277C19.0946 30.728 18.9102 30.228 18.6908 29.742C18.6614 29.6773 18.6331 29.6123 18.6052 29.547C18.5902 29.5118 18.5754 29.4765 18.5607 29.441C18.5059 29.3089 18.4526 29.175 18.3982 29.038C18.3506 28.9184 18.3021 28.7965 18.2509 28.6714H10.4479C10.0662 29.1767 9.68158 29.6855 9.2948 30.1972C8.42877 31.3429 7.55162 32.5033 6.66981 33.6731H3.77358C3.77522 33.6709 3.77686 33.6687 3.77849 33.6666H3.77028C5.94785 30.776 8.10056 27.9196 10.2487 25.0694C12.2866 22.3653 14.3204 19.6668 16.3673 16.9498C16.4939 17.1333 16.5993 17.316 16.6908 17.4974C16.8544 17.8205 16.9739 18.1395 17.0907 18.4516C17.1418 18.588 17.1924 18.7232 17.2459 18.8567C17.9318 20.5714 18.6145 22.2883 19.297 24.0048C19.7996 25.2691 20.3022 26.5331 20.806 27.796C20.8173 27.8245 20.8296 27.8525 20.8426 27.8802C20.8869 27.9725 20.9399 28.0611 20.9929 28.1496C21.028 28.2082 21.0631 28.2668 21.0956 28.3264C21.1276 28.2252 21.161 28.1244 21.1944 28.0237C21.3069 27.6841 21.4194 27.3446 21.4796 26.9857C21.7191 25.5677 21.9671 24.1518 22.2151 22.7362C22.3985 21.6894 22.5819 20.6427 22.7618 19.5954C22.9657 18.4088 23.1584 17.2203 23.3513 16.0314Z" fill="white"/>
<path d="M15.5635 21.8308C16.159 23.3245 16.6764 24.6327 17.2426 26.058H12.4004C13.471 24.6262 14.4603 23.3017 15.5635 21.8308Z" fill="white"/>
</svg>
