<svg width="25" height="24" viewBox="0 0 25 24" fill="none" xmlns="http://www.w3.org/2000/svg">
<g clip-path="url(#clip0_1150_19985)">
<path d="M21.1523 3.51473C18.8858 1.24819 15.8723 0 12.667 0C9.46168 0 6.44823 1.24819 4.18168 3.51473C1.91523 5.78123 0.666992 8.79469 0.666992 12C0.666992 15.2053 1.91523 18.2188 4.18168 20.4853C6.44823 22.7518 9.46168 24 12.667 24C15.8723 24 18.8858 22.7518 21.1523 20.4853C23.4188 18.2188 24.667 15.2053 24.667 12C24.667 8.79469 23.4188 5.78123 21.1523 3.51473ZM22.9225 7.83806L22.0639 8.33372C22.0262 8.35552 21.9905 8.35266 21.9673 8.34642C21.944 8.34019 21.9117 8.32486 21.8899 8.28708L20.4939 5.86912C20.4588 5.80833 20.4797 5.73023 20.5406 5.69513L21.3959 5.20134C22.0295 6.01158 22.5412 6.89817 22.9225 7.83806ZM14.1904 1.0417V2.02889C14.1904 2.09916 14.1332 2.15625 14.063 2.15625H11.271C11.2007 2.15625 11.1436 2.09911 11.1436 2.02889V1.0417C11.6443 0.973125 12.1529 0.9375 12.667 0.9375C13.1811 0.9375 13.6897 0.973125 14.1904 1.0417ZM3.93812 5.20134L4.7934 5.69513C4.85424 5.73028 4.87515 5.80833 4.84004 5.86912L3.44405 8.28708C3.42226 8.32486 3.38996 8.34019 3.36671 8.34642C3.34351 8.35266 3.30784 8.35542 3.27005 8.33372L2.41149 7.83806C2.79282 6.89817 3.30446 6.01158 3.93812 5.20134ZM2.41149 16.1619L3.27005 15.6663C3.30784 15.6445 3.34346 15.6473 3.36671 15.6536C3.38996 15.6598 3.4223 15.6751 3.44405 15.7129L4.84004 18.1309C4.87515 18.1917 4.85424 18.2698 4.7934 18.3049L3.93812 18.7987C3.30446 17.9884 2.79282 17.1018 2.41149 16.1619ZM11.1436 22.9583V21.9711C11.1436 21.9008 11.2007 21.8438 11.271 21.8438H14.063C14.1332 21.8438 14.1904 21.9009 14.1904 21.9711V22.9583C13.6897 23.0269 13.1811 23.0625 12.667 23.0625C12.1529 23.0625 11.6443 23.0269 11.1436 22.9583ZM15.1279 22.7892V21.9712C15.1279 21.384 14.6502 20.9063 14.063 20.9063H11.271C10.6839 20.9063 10.2061 21.384 10.2061 21.9712V22.7892C8.19104 22.3337 6.34116 21.3189 4.84463 19.8224C4.74666 19.7244 4.65146 19.6245 4.55766 19.5235L5.26215 19.1168C5.7707 18.8232 5.94549 18.1706 5.65191 17.6621L4.25593 15.2442C4.11371 14.9978 3.88407 14.8216 3.60934 14.748C3.33455 14.6744 3.04763 14.7122 2.8013 14.8545L2.09185 15.264C1.77109 14.2202 1.60449 13.1229 1.60449 12C1.60449 10.8771 1.77109 9.77981 2.09185 8.736L2.8013 9.14559C2.96537 9.24033 3.14748 9.2887 3.33198 9.2887C3.42446 9.2887 3.5176 9.27656 3.60934 9.25195C3.88407 9.17836 4.11371 9.00211 4.25593 8.75583L5.65191 6.33787C5.94549 5.82937 5.77065 5.17683 5.26215 4.8832L4.55766 4.47647C4.65146 4.37555 4.74666 4.27556 4.84463 4.17764C6.34116 2.68106 8.19104 1.66636 10.2061 1.21083V2.02884C10.2061 2.616 10.6838 3.0937 11.271 3.0937H14.063C14.6501 3.0937 15.1279 2.616 15.1279 2.02884V1.21083C17.1429 1.66631 18.9928 2.68106 20.4894 4.17764C20.5873 4.27561 20.6825 4.37555 20.7763 4.47647L20.0718 4.8832C19.5633 5.17683 19.3885 5.82937 19.6821 6.33787L21.0781 8.75583C21.2203 9.00216 21.4499 9.17836 21.7246 9.25195C21.8164 9.27652 21.9095 9.2887 22.002 9.2887C22.1866 9.2887 22.3686 9.24033 22.5327 9.14559L23.2421 8.736C23.5629 9.77981 23.7295 10.8771 23.7295 12C23.7295 13.1229 23.5629 14.2202 23.2421 15.264L22.5327 14.8544C22.2864 14.7122 21.9994 14.6744 21.7246 14.748C21.4499 14.8216 21.2203 14.9978 21.0781 15.2441L19.6821 17.6621C19.3885 18.1706 19.5633 18.8231 20.0718 19.1168L20.7763 19.5235C20.6825 19.6244 20.5873 19.7244 20.4894 19.8223C18.9928 21.3189 17.1429 22.3336 15.1279 22.7892ZM21.3959 18.7987L20.5406 18.3049C20.4797 18.2697 20.4588 18.1917 20.4939 18.1309L21.8899 15.7129C21.9117 15.6751 21.944 15.6598 21.9673 15.6536C21.9905 15.6473 22.0262 15.6445 22.0639 15.6663L22.9225 16.1619C22.5412 17.1018 22.0295 17.9884 21.3959 18.7987Z" fill="white"/>
<path d="M12.667 4.03125C8.27302 4.03125 4.69824 7.60603 4.69824 12C4.69824 13.7619 5.26173 15.4319 6.32776 16.8292C7.35938 18.1815 8.82263 19.1852 10.4479 19.6555C10.4914 19.6681 10.5353 19.6741 10.5784 19.6741C10.7818 19.6741 10.9691 19.5407 11.0285 19.3355C11.1004 19.0868 10.9572 18.8269 10.7086 18.7549C9.27484 18.34 7.98376 17.4541 7.07312 16.2605C6.1328 15.028 5.63574 13.5547 5.63574 12C5.63574 8.12297 8.78996 4.96875 12.667 4.96875C16.544 4.96875 19.6982 8.12297 19.6982 12C19.6982 13.5547 19.2012 15.028 18.2609 16.2606C17.3503 17.4542 16.0592 18.3401 14.6256 18.755C14.3769 18.827 14.2336 19.0869 14.3056 19.3356C14.3776 19.5843 14.6377 19.7275 14.8862 19.6555C16.5115 19.1852 17.9747 18.1814 19.0063 16.8292C20.0723 15.4318 20.6357 13.7619 20.6357 12C20.6357 7.60603 17.061 4.03125 12.667 4.03125Z" fill="white"/>
<path d="M15.0646 16.6532C15.138 16.4799 15.1007 16.2795 14.9698 16.1443C14.6628 15.8274 14.4047 15.4251 14.2064 14.9589C15.2224 15.02 16.2283 14.4935 16.73 13.5518C17.3675 12.355 17.0062 10.8731 15.8895 10.1047C15.8894 10.1047 15.8894 10.1047 15.8894 10.1047C15.7142 9.9841 15.5277 9.88581 15.3319 9.81067C15.3328 9.78278 15.3332 9.75493 15.3332 9.72714C15.3332 8.2569 14.137 7.06079 12.6668 7.06079C11.1989 7.06079 10.0279 8.21007 10.001 9.67735C9.99997 9.72924 10.0005 9.78113 10.0026 9.83298C9.80741 9.90784 9.6215 10.0057 9.44666 10.1257C8.32817 10.8936 7.96564 12.376 8.60347 13.5739C8.92208 14.1723 9.44961 14.6229 10.0888 14.8428C10.423 14.9577 10.7716 15.0046 11.1165 14.984C10.9196 15.4397 10.6652 15.8333 10.364 16.1444C10.233 16.2796 10.1957 16.48 10.2691 16.6533C10.3426 16.8266 10.5125 16.9392 10.7008 16.9392H14.633C14.8212 16.9391 14.9912 16.8265 15.0646 16.6532ZM11.645 16.0016C11.9196 15.5478 12.1362 15.0262 12.2842 14.4563C12.3293 14.2828 12.2715 14.0988 12.1352 13.9823C11.999 13.8658 11.8083 13.8371 11.6438 13.9085C10.8241 14.2646 9.85203 13.9241 9.43105 13.1333C9.02441 12.3697 9.26436 11.3881 9.97733 10.8986C10.1694 10.7668 10.3818 10.6762 10.6087 10.6293C10.8619 10.5771 11.025 10.3297 10.9732 10.0764C10.9477 9.95171 10.936 9.82318 10.9383 9.69456C10.9558 8.74342 11.715 7.99838 12.6669 7.99838C13.6202 7.99838 14.3957 8.77393 14.3957 9.72723C14.3957 9.83757 14.3849 9.94923 14.3635 10.0591C14.3146 10.3108 14.477 10.5551 14.728 10.6074C14.9545 10.6546 15.1664 10.7454 15.358 10.8772H15.358C16.0698 11.3669 16.3089 12.3482 15.9025 13.1111C15.4801 13.9041 14.5059 14.2434 13.6847 13.8837C13.5206 13.8117 13.3299 13.8397 13.1933 13.9557C13.0567 14.0717 12.9981 14.2553 13.0424 14.4289C13.1907 15.0098 13.4096 15.5407 13.6886 16.0017H11.645V16.0016Z" fill="white"/>
<path d="M12.667 19.9688C12.9259 19.9688 13.1357 19.7589 13.1357 19.5C13.1357 19.2411 12.9259 19.0312 12.667 19.0312C12.4081 19.0312 12.1982 19.2411 12.1982 19.5C12.1982 19.7589 12.4081 19.9688 12.667 19.9688Z" fill="white"/>
</g>
<defs>
<clipPath id="clip0_1150_19985">
<rect width="24" height="24" fill="white" transform="translate(0.666992)"/>
</clipPath>
</defs>
</svg>
