<svg width="37" height="36" viewBox="0 0 37 36" fill="none" xmlns="http://www.w3.org/2000/svg">
<path d="M3.79857 31.1999H12.7984V32.4001H10.3987C9.07331 32.4001 7.99896 33.4744 7.99896 34.7998C7.99896 35.4628 8.53614 36 9.19917 36H28.399C29.0621 36 29.5992 35.4628 29.5992 34.7998C29.5992 33.4744 28.5249 32.4001 27.1995 32.4001H24.7998V31.1999H33.7996C35.4555 31.1978 36.7977 29.8562 36.7998 28.1997V3.00019C36.7977 1.34436 35.4562 0.00210933 33.7996 0H3.79998C2.14415 0.00210933 0.801914 1.34366 0.799805 3.00019V28.1997C0.801914 29.8555 2.14344 31.1978 3.79998 31.1999H3.79857ZM28.3983 34.7998H9.19847C9.19847 34.1368 9.73564 33.5996 10.3987 33.5996H27.1981C27.8604 33.5996 28.3983 34.1368 28.3983 34.7998ZM23.5982 32.4001H13.9986V31.1999H23.5982V32.4001ZM33.7982 30.0004H3.79857C2.80437 30.0004 1.9986 29.1946 1.9986 28.2004V26.4004H35.5982V28.2004C35.5982 29.1946 34.7924 30.0004 33.7982 30.0004ZM3.79857 1.20092H33.7982C34.7924 1.20092 35.5982 2.00669 35.5982 3.00089V25.2002H1.9986V3.00089C1.9986 2.00669 2.80437 1.20092 3.79857 1.20092Z" fill="white"/>
<path fill-rule="evenodd" clip-rule="evenodd" d="M20.5981 27.6H16.9982C16.667 27.6 16.3984 27.8686 16.3984 28.1998C16.3984 28.5309 16.667 28.7995 16.9982 28.7995H20.5981C20.9293 28.7995 21.1979 28.5309 21.1979 28.1998C21.1979 27.8686 20.9293 27.6 20.5981 27.6Z" fill="white"/>
<path fill-rule="evenodd" clip-rule="evenodd" d="M3.7892 6.00038H33.7889C34.12 6.00038 34.3886 5.73179 34.3886 5.40063C34.3886 5.06946 34.12 4.80087 33.7889 4.80087H3.7892C3.45804 4.80087 3.18945 5.06946 3.18945 5.40063C3.18945 5.73179 3.45804 6.00038 3.7892 6.00038Z" fill="white"/>
<path d="M4.39077 3.60068C4.72201 3.60068 4.99053 3.33217 4.99053 3.00094C4.99053 2.66971 4.72201 2.40118 4.39077 2.40118C4.05954 2.40118 3.79102 2.66971 3.79102 3.00094C3.79102 3.33217 4.05954 3.60068 4.39077 3.60068Z" fill="white"/>
<path d="M6.79019 3.60068C7.12142 3.60068 7.38994 3.33217 7.38994 3.00094C7.38994 2.66971 7.12142 2.40118 6.79019 2.40118C6.45895 2.40118 6.19043 2.66971 6.19043 3.00094C6.19043 3.33217 6.45895 3.60068 6.79019 3.60068Z" fill="white"/>
<path d="M9.19058 3.60068C9.52181 3.60068 9.79033 3.33217 9.79033 3.00094C9.79033 2.66971 9.52181 2.40118 9.19058 2.40118C8.85934 2.40118 8.59082 2.66971 8.59082 3.00094C8.59082 3.33217 8.85934 3.60068 9.19058 3.60068Z" fill="white"/>
<path d="M31.9985 8.40073H5.5988C4.6046 8.40073 3.79883 9.2065 3.79883 10.2007V21.0005C3.79883 21.9947 4.6046 22.8004 5.5988 22.8004H31.9985C32.9927 22.8004 33.7985 21.9947 33.7985 21.0005V10.2007C33.7985 9.2065 32.9927 8.40073 31.9985 8.40073ZM4.99904 21.0005V10.2007C4.99904 9.86953 5.26763 9.60094 5.5988 9.60094H13.3984V21.6009H5.5988C5.26763 21.6009 4.99904 21.3324 4.99904 21.0012V21.0005ZM14.5986 21.6002V9.60024H22.9987V21.6002H14.5986ZM32.5983 21.0005C32.5983 21.3317 32.3297 21.6002 31.9985 21.6002H24.1989V9.60024H31.9985C32.3297 9.60024 32.5983 9.86883 32.5983 10.2V20.9998V21.0005Z" fill="white"/>
<path fill-rule="evenodd" clip-rule="evenodd" d="M12.1226 12.3234C12.0192 12.1252 11.8139 12.0007 11.5903 12.0007H6.79019C6.45902 12.0007 6.19043 12.2693 6.19043 12.6005C6.19043 12.9316 6.45902 13.2002 6.79019 13.2002H10.4372L9.17725 15.0002H7.38994C7.05878 15.0002 6.79019 15.2688 6.79019 15.6C6.79019 15.9311 7.05878 16.1997 7.38994 16.1997H8.33703L6.89706 18.2556C6.76628 18.4307 6.74167 18.6634 6.83167 18.8624C6.92237 19.0614 7.11361 19.1957 7.33158 19.2125C7.54954 19.2294 7.75978 19.1261 7.8793 18.9433L9.80161 16.1997H10.9892C11.3203 16.1997 11.5889 15.9311 11.5889 15.6C11.5889 15.2688 11.3203 15.0002 10.9892 15.0002H10.6418L12.0818 12.9443C12.2098 12.7608 12.2252 12.5217 12.1212 12.3234H12.1226Z" fill="white"/>
<path fill-rule="evenodd" clip-rule="evenodd" d="M21.1899 12.0007H16.3898C16.0586 12.0007 15.79 12.2693 15.79 12.6004C15.79 12.9316 16.0586 13.2002 16.3898 13.2002H20.0368L18.7769 15.0002H16.9896C16.6584 15.0002 16.3898 15.2688 16.3898 15.5999C16.3898 15.9311 16.6584 16.1997 16.9896 16.1997H17.9366L16.4967 18.2556C16.3659 18.4307 16.3413 18.6634 16.4313 18.8624C16.522 19.0613 16.7132 19.1956 16.9312 19.2125C17.1492 19.2294 17.3594 19.126 17.4789 18.9432L19.4012 16.1997H20.5888C20.9199 16.1997 21.1885 15.9311 21.1885 15.5999C21.1885 15.2688 20.9199 15.0002 20.5888 15.0002H20.2414L21.6814 12.9443C21.8094 12.7608 21.8248 12.521 21.7215 12.3227C21.6181 12.1244 21.4128 12 21.1885 12L21.1899 12.0007Z" fill="white"/>
<path fill-rule="evenodd" clip-rule="evenodd" d="M30.7895 12.0007H25.9894C25.6582 12.0007 25.3896 12.2693 25.3896 12.6004C25.3896 12.9316 25.6582 13.2002 25.9894 13.2002H29.6364L28.3765 15.0002H26.5892C26.258 15.0002 25.9894 15.2688 25.9894 15.5999C25.9894 15.9311 26.258 16.1997 26.5892 16.1997H27.5362L26.0963 18.2556C25.9655 18.4307 25.9409 18.6634 26.0309 18.8624C26.1216 19.0613 26.3128 19.1956 26.5308 19.2125C26.7488 19.2294 26.959 19.126 27.0785 18.9432L29.0008 16.1997H30.1884C30.5195 16.1997 30.7881 15.9311 30.7881 15.5999C30.7881 15.2688 30.5195 15.0002 30.1884 15.0002H29.841L31.281 12.9443C31.409 12.7608 31.4245 12.521 31.3211 12.3227C31.2177 12.1244 31.0124 12 30.7881 12L30.7895 12.0007Z" fill="white"/>
</svg>
