<svg width="36" height="36" viewBox="0 0 36 36" fill="none" xmlns="http://www.w3.org/2000/svg">
<path d="M17.2799 8.08235L18.0004 8.83092L18.7209 8.08235C22.3123 4.35099 26.1414 3.97536 29.0202 5.29125C31.962 6.63595 34.1004 9.82357 34.1004 13.6072C34.1004 17.4529 32.5229 20.4132 30.2872 22.9308C28.451 24.9984 26.2253 26.7141 24.0788 28.3687C23.5717 28.7596 23.0689 29.1472 22.5768 29.5351C21.6799 30.2422 20.8623 30.8771 20.0691 31.3406C19.2755 31.8043 18.6015 32.0378 18.0004 32.0378C17.3992 32.0378 16.7252 31.8043 15.9317 31.3406C15.1385 30.8771 14.3209 30.2422 13.424 29.5351C12.9319 29.1471 12.4291 28.7596 11.9219 28.3686C9.77549 26.7141 7.54983 24.9984 5.71363 22.9308C3.47784 20.4132 1.90039 17.4529 1.90039 13.6072C1.90039 9.82357 4.03881 6.63594 6.9806 5.29125C9.85934 3.97536 13.6885 4.35099 17.2799 8.08235Z" stroke="white" stroke-width="2"/>
</svg>
