<svg width="367" height="374" viewBox="0 0 367 374" fill="none" xmlns="http://www.w3.org/2000/svg">
<g clip-path="url(#clip0_1521_9403)">
<path d="M188.635 374C280.055 374 354.166 299.986 354.166 208.686C354.166 117.386 280.055 43.3723 188.635 43.3723C97.214 43.3723 23.103 117.386 23.103 208.686C23.103 299.986 97.214 374 188.635 374Z" fill="#F3F0FF"/>
<path fill-rule="evenodd" clip-rule="evenodd" d="M4.61006 331.888H332.427C333.234 331.888 333.887 331.236 333.887 330.43C333.887 329.625 333.234 328.973 332.427 328.973H4.61006C3.80367 328.973 3.15039 329.625 3.15039 330.43C3.15039 331.236 3.80367 331.888 4.61006 331.888Z" fill="#123958"/>
<path fill-rule="evenodd" clip-rule="evenodd" d="M344.983 331.888H365.044C365.847 331.888 366.503 331.236 366.503 330.43C366.503 329.625 365.85 328.973 365.044 328.973H344.983C344.18 328.973 343.526 329.625 343.526 330.43C343.526 331.236 344.18 331.888 344.983 331.888Z" fill="#123958"/>
<path fill-rule="evenodd" clip-rule="evenodd" d="M16.3965 78.382C16.3284 77.6107 16.2978 76.8291 16.2978 76.0408C16.2978 61.0759 28.4617 48.928 43.4463 48.928C56.3384 48.928 67.1413 57.9225 69.9076 69.9651C72.0137 69.2821 74.2628 68.9151 76.5969 68.9151C88.5839 68.9151 98.3184 78.6335 98.3184 90.6081C98.3184 102.583 88.5873 112.301 76.5969 112.301H17.4989C8.11819 112.301 0.5 104.693 0.5 95.3246C0.5 85.9562 7.52956 78.9495 16.3965 78.382Z" fill="#ECE8FA"/>
<path fill-rule="evenodd" clip-rule="evenodd" d="M281.819 18.7877C281.859 18.295 281.883 17.7989 281.883 17.296C281.883 7.75091 274.126 0.00341797 264.568 0.00341797C256.344 0.00341797 249.454 5.73928 247.688 13.4222C246.344 12.9873 244.908 12.7528 243.421 12.7528C235.776 12.7528 229.566 18.9542 229.566 26.5895C229.566 34.2249 235.776 40.4263 243.421 40.4263H281.118C287.103 40.4263 291.961 35.5739 291.961 29.5968C291.961 23.6197 287.477 19.1513 281.822 18.7911L281.819 18.7877Z" fill="#ECE8FA"/>
<path d="M64.1541 278.07H41.354V315.829H64.1541V278.07Z" fill="#E9E3E3"/>
<path fill-rule="evenodd" clip-rule="evenodd" d="M65.6135 278.07C65.6135 277.265 64.9603 276.613 64.1539 276.613H41.3537C40.5473 276.613 39.894 277.265 39.894 278.07V315.829C39.894 316.634 40.5473 317.287 41.3537 317.287H64.1539C64.9603 317.287 65.6135 316.634 65.6135 315.829V278.07ZM62.6976 279.528V314.375H42.8134V279.528H62.6976Z" fill="#123958"/>
<path fill-rule="evenodd" clip-rule="evenodd" d="M76.6243 327.134C76.6243 320.94 71.5954 315.921 65.396 315.921H40.1189C33.9161 315.921 28.8906 320.943 28.8906 327.134V330.121H76.6277V327.134H76.6243Z" fill="#4399A4"/>
<path fill-rule="evenodd" clip-rule="evenodd" d="M78.0807 330.125V327.138C78.0807 320.141 72.402 314.467 65.3928 314.467H40.1157C33.1099 314.467 27.4277 320.138 27.4277 327.138V330.125C27.4277 330.93 28.081 331.582 28.8874 331.582H76.6245C77.4308 331.582 78.0841 330.93 78.0841 330.125H78.0807ZM75.1648 327.138V328.67H30.3437V327.138C30.3437 321.749 34.7193 317.379 40.1157 317.379H65.3928C70.7892 317.379 75.1648 321.749 75.1648 327.138Z" fill="#123958"/>
<path fill-rule="evenodd" clip-rule="evenodd" d="M200.85 327.134C200.85 320.94 195.821 315.921 189.622 315.921H164.344C158.142 315.921 153.116 320.943 153.116 327.134V330.121H200.853V327.134H200.85Z" fill="#4399A4"/>
<path fill-rule="evenodd" clip-rule="evenodd" d="M202.309 330.125V327.138C202.309 320.141 196.63 314.467 189.621 314.467H164.344C157.338 314.467 151.656 320.138 151.656 327.138V330.125C151.656 330.93 152.31 331.582 153.116 331.582H200.853C201.659 331.582 202.309 330.93 202.309 330.125ZM199.393 327.138V328.67H154.572V327.138C154.572 321.749 158.948 317.379 164.344 317.379H189.621C195.018 317.379 199.393 321.749 199.393 327.138Z" fill="#123958"/>
<path d="M188.383 278.07H165.583V315.829H188.383V278.07Z" fill="#E9E3E3"/>
<path fill-rule="evenodd" clip-rule="evenodd" d="M189.839 278.07C189.839 277.265 189.186 276.613 188.383 276.613H165.583C164.776 276.613 164.123 277.265 164.123 278.07V315.829C164.123 316.634 164.776 317.287 165.583 317.287H188.383C189.189 317.287 189.839 316.634 189.839 315.829V278.07ZM186.923 279.528V314.375H167.039V279.528H186.923Z" fill="#123958"/>
<path d="M64.1541 200.609H41.354V222.733H64.1541V200.609Z" fill="white"/>
<path fill-rule="evenodd" clip-rule="evenodd" d="M65.6135 200.609C65.6135 199.804 64.9603 199.151 64.1539 199.151H41.3537C40.5473 199.151 39.894 199.804 39.894 200.609V222.734C39.894 223.539 40.5473 224.191 41.3537 224.191H64.1539C64.9603 224.191 65.6135 223.539 65.6135 222.734V200.609ZM62.6976 202.067V221.279H42.8134V202.067H62.6976Z" fill="#123958"/>
<path d="M188.383 200.609H165.583V222.733H188.383V200.609Z" fill="white"/>
<path fill-rule="evenodd" clip-rule="evenodd" d="M189.839 200.609C189.839 199.804 189.186 199.151 188.383 199.151H165.583C164.776 199.151 164.123 199.804 164.123 200.609V222.734C164.123 223.539 164.776 224.191 165.583 224.191H188.383C189.189 224.191 189.839 223.539 189.839 222.734V200.609ZM186.923 202.067V221.279H167.039V202.067H186.923Z" fill="#123958"/>
<path fill-rule="evenodd" clip-rule="evenodd" d="M213.251 153.037C213.251 150.977 212.431 149.003 210.975 147.545C209.515 146.088 207.539 145.272 205.477 145.272H24.2562C22.1942 145.272 20.2174 146.091 18.7577 147.545C17.298 149.003 16.4814 150.977 16.4814 153.037V192.845C16.4814 194.904 17.3014 196.878 18.7577 198.336C20.2174 199.793 22.1942 200.609 24.2562 200.609H205.477C207.539 200.609 209.515 199.79 210.975 198.336C212.435 196.878 213.251 194.904 213.251 192.845V153.037Z" fill="white"/>
<path fill-rule="evenodd" clip-rule="evenodd" d="M214.711 153.037C214.711 150.59 213.738 148.245 212.006 146.516C210.274 144.786 207.927 143.814 205.477 143.814H24.2598C21.81 143.814 19.4622 144.786 17.7304 146.516C15.9985 148.245 15.0254 150.59 15.0254 153.037V192.845C15.0254 195.291 15.9985 197.636 17.7304 199.365C19.4622 201.095 21.81 202.067 24.2598 202.067H205.48C207.93 202.067 210.278 201.095 212.01 199.365C213.742 197.636 214.715 195.291 214.715 192.845V153.037H214.711ZM211.795 153.037V192.845C211.795 194.516 211.128 196.124 209.944 197.306C208.76 198.489 207.154 199.155 205.477 199.155H24.2598C22.5857 199.155 20.9764 198.489 19.7923 197.306C18.6082 196.124 17.9413 194.516 17.9413 192.845V153.037C17.9413 151.365 18.6082 149.758 19.7923 148.575C20.9764 147.393 22.5823 146.727 24.2598 146.727H205.48C207.154 146.727 208.764 147.393 209.948 148.575C211.132 149.758 211.799 151.365 211.799 153.037H211.795Z" fill="#123958"/>
<path fill-rule="evenodd" clip-rule="evenodd" d="M213.251 230.498C213.251 228.439 212.431 226.464 210.975 225.007C209.515 223.549 207.539 222.733 205.477 222.733H24.2562C22.1942 222.733 20.2174 223.552 18.7577 225.007C17.298 226.464 16.4814 228.439 16.4814 230.498V270.306C16.4814 272.365 17.3014 274.339 18.7577 275.797C20.2174 277.255 22.1942 278.07 24.2562 278.07H205.477C207.539 278.07 209.515 277.251 210.975 275.797C212.435 274.339 213.251 272.365 213.251 270.306V230.498Z" fill="white"/>
<path fill-rule="evenodd" clip-rule="evenodd" d="M214.711 230.498C214.711 228.052 213.738 225.707 212.006 223.977C210.274 222.248 207.927 221.276 205.477 221.276H24.2598C21.81 221.276 19.4622 222.248 17.7304 223.977C15.9985 225.707 15.0254 228.052 15.0254 230.498V270.306C15.0254 272.753 15.9985 275.097 17.7304 276.827C19.4622 278.556 21.81 279.528 24.2598 279.528H205.48C207.93 279.528 210.278 278.556 212.01 276.827C213.742 275.097 214.715 272.753 214.715 270.306V230.498H214.711ZM211.795 230.498V270.306C211.795 271.978 211.128 273.585 209.944 274.768C208.76 275.95 207.154 276.616 205.477 276.616H24.2598C22.5857 276.616 20.9764 275.95 19.7923 274.768C18.6082 273.585 17.9413 271.981 17.9413 270.306V230.498C17.9413 228.826 18.6082 227.219 19.7923 226.037C20.9764 224.854 22.5823 224.188 24.2598 224.188H205.48C207.154 224.188 208.764 224.854 209.948 226.037C211.132 227.219 211.799 228.826 211.799 230.498H211.795Z" fill="#123958"/>
<path fill-rule="evenodd" clip-rule="evenodd" d="M69.6766 145.272H35.4338C35.4338 145.272 23.5353 180.017 18.5949 194.445C18.1083 195.869 18.3363 197.439 19.2141 198.662C20.092 199.885 21.504 200.612 23.0079 200.612H50.7212L69.6732 145.272H69.6766Z" fill="#FEBC24"/>
<path fill-rule="evenodd" clip-rule="evenodd" d="M71.0578 145.745C71.2109 145.299 71.1394 144.81 70.8638 144.426C70.5916 144.042 70.1493 143.818 69.6764 143.818H35.4336C34.811 143.818 34.2564 144.215 34.0556 144.803C34.0556 144.803 22.1571 179.548 17.2166 193.976C16.577 195.845 16.8798 197.904 18.0298 199.511C19.1799 201.119 21.0342 202.07 23.0111 202.07H50.7244C51.3471 202.07 51.9017 201.676 52.1025 201.085L71.0544 145.745H71.0578ZM67.6383 146.73L49.6833 199.158H23.0111C21.9767 199.158 21.0036 198.659 20.4014 197.819C19.7991 196.977 19.6392 195.899 19.9761 194.921L36.4782 146.733H67.6383V146.73Z" fill="#123958"/>
<path fill-rule="evenodd" clip-rule="evenodd" d="M69.6766 222.733H35.4338C35.4338 222.733 23.5353 257.478 18.5949 271.906C18.1083 273.33 18.3363 274.9 19.2141 276.123C20.0886 277.346 21.504 278.074 23.0079 278.074H50.7212L69.6732 222.733H69.6766Z" fill="#FEBC24"/>
<path fill-rule="evenodd" clip-rule="evenodd" d="M71.0578 223.206C71.2109 222.761 71.1394 222.272 70.8638 221.888C70.5916 221.504 70.1493 221.279 69.6764 221.279H35.4336C34.811 221.279 34.2564 221.673 34.0556 222.265C34.0556 222.265 22.1571 257.01 17.2166 271.438C16.577 273.306 16.8798 275.366 18.0298 276.973C19.1799 278.58 21.0342 279.532 23.0111 279.532H50.7244C51.3471 279.532 51.9017 279.134 52.1025 278.546L71.0544 223.206H71.0578ZM67.6383 224.191L49.6833 276.619H23.0111C21.9767 276.619 21.0036 276.12 20.4014 275.281C19.7991 274.441 19.6392 273.361 19.9761 272.382L36.4782 224.195H67.6383V224.191Z" fill="#123958"/>
<path fill-rule="evenodd" clip-rule="evenodd" d="M141.465 145.272H107.222L88.2705 200.612H122.513L141.465 145.272Z" fill="#FEBC24"/>
<path fill-rule="evenodd" clip-rule="evenodd" d="M142.847 145.745C143 145.299 142.928 144.81 142.653 144.426C142.381 144.042 141.938 143.818 141.465 143.818H107.223C106.6 143.818 106.045 144.215 105.845 144.803L86.8926 200.144C86.7395 200.589 86.8109 201.078 87.0865 201.462C87.3621 201.846 87.8011 202.07 88.274 202.07H122.517C123.139 202.07 123.694 201.676 123.895 201.085L142.847 145.745ZM139.427 146.73L121.472 199.158H90.3121L108.267 146.73H139.427Z" fill="#123958"/>
<path fill-rule="evenodd" clip-rule="evenodd" d="M141.465 222.733H107.222L88.2705 278.074H122.513L141.465 222.733Z" fill="#FEBC24"/>
<path fill-rule="evenodd" clip-rule="evenodd" d="M142.847 223.206C143 222.761 142.928 222.272 142.653 221.888C142.381 221.504 141.938 221.279 141.465 221.279H107.223C106.6 221.279 106.045 221.673 105.845 222.265L86.8926 277.605C86.7395 278.05 86.8109 278.539 87.0865 278.923C87.3621 279.307 87.8011 279.532 88.274 279.532H122.517C123.139 279.532 123.694 279.134 123.895 278.546L142.847 223.206ZM139.427 224.191L121.472 276.619H90.3121L108.267 224.191H139.427Z" fill="#123958"/>
<path fill-rule="evenodd" clip-rule="evenodd" d="M211.142 151.436C211.628 150.012 211.4 148.443 210.523 147.219C209.648 145.996 208.233 145.269 206.729 145.269H179.015L160.063 200.609H194.306C194.306 200.609 206.205 165.864 211.145 151.436H211.142Z" fill="#FEBC24"/>
<path fill-rule="evenodd" clip-rule="evenodd" d="M212.52 151.909C213.16 150.04 212.857 147.98 211.707 146.373C210.557 144.766 208.702 143.814 206.725 143.814H179.012C178.389 143.814 177.835 144.212 177.631 144.8L158.679 200.14C158.526 200.585 158.597 201.075 158.873 201.459C159.145 201.842 159.587 202.067 160.06 202.067H194.303C194.926 202.067 195.48 201.673 195.684 201.081L212.523 151.909H212.52ZM209.76 150.967L193.258 199.155H162.098L180.053 146.727H206.725C207.76 146.727 208.733 147.226 209.335 148.065C209.937 148.908 210.094 149.985 209.76 150.964V150.967Z" fill="#123958"/>
<path fill-rule="evenodd" clip-rule="evenodd" d="M211.142 228.901C211.628 227.477 211.4 225.907 210.523 224.684C209.648 223.461 208.233 222.733 206.729 222.733H179.015L160.063 278.074H194.306C194.306 278.074 206.205 243.329 211.145 228.901H211.142Z" fill="#FEBC24"/>
<path fill-rule="evenodd" clip-rule="evenodd" d="M212.52 229.373C213.16 227.504 212.857 225.442 211.707 223.838C210.557 222.231 208.702 221.279 206.725 221.279H179.012C178.389 221.279 177.835 221.673 177.631 222.265L158.679 277.605C158.526 278.05 158.597 278.539 158.873 278.923C159.145 279.307 159.587 279.532 160.06 279.532H194.303C194.926 279.532 195.48 279.134 195.684 278.546L212.523 229.373H212.52ZM209.76 228.432L193.258 276.619H162.098L180.053 224.191H206.725C207.76 224.191 208.733 224.691 209.335 225.53C209.937 226.373 210.094 227.45 209.76 228.429V228.432Z" fill="#123958"/>
<path fill-rule="evenodd" clip-rule="evenodd" d="M337.334 321.076C337.334 321.076 308.671 244.559 297.307 214.221C296.596 212.322 294.775 211.061 292.744 211.061C290.713 211.061 288.892 212.322 288.181 214.221C276.817 244.559 248.154 321.076 248.154 321.076H337.337H337.334Z" fill="#FEBC24"/>
<path fill-rule="evenodd" clip-rule="evenodd" d="M337.333 322.533C337.81 322.533 338.259 322.299 338.531 321.908C338.803 321.514 338.865 321.015 338.698 320.569C338.698 320.569 310.035 244.053 298.671 213.715C297.745 211.245 295.384 209.61 292.744 209.61C290.103 209.61 287.739 211.248 286.817 213.715C275.452 244.053 246.79 320.569 246.79 320.569C246.623 321.018 246.684 321.517 246.956 321.908C247.228 322.299 247.678 322.533 248.154 322.533H337.337H337.333ZM335.231 319.621H250.253L289.545 214.735C290.046 213.403 291.318 212.519 292.744 212.519C294.169 212.519 295.442 213.403 295.942 214.735L335.234 319.621H335.231Z" fill="#123958"/>
<path fill-rule="evenodd" clip-rule="evenodd" d="M345.469 322.992C345.469 321.099 344.717 319.285 343.377 317.949C342.036 316.611 340.219 315.86 338.327 315.86H247.164C245.269 315.86 243.452 316.611 242.115 317.949C240.774 319.288 240.022 321.103 240.022 322.992C240.022 324.885 240.774 326.699 242.115 328.035C243.456 329.374 245.273 330.125 247.164 330.125H338.327C340.223 330.125 342.04 329.374 343.377 328.035C344.717 326.696 345.469 324.881 345.469 322.992Z" fill="#FE9609"/>
<path fill-rule="evenodd" clip-rule="evenodd" d="M238.562 322.992C238.562 325.269 239.468 327.454 241.08 329.064C242.693 330.675 244.881 331.579 247.161 331.579H338.324C340.603 331.579 342.791 330.675 344.404 329.064C346.017 327.454 346.922 325.269 346.922 322.992C346.922 320.715 346.017 318.53 344.404 316.92C342.791 315.309 340.603 314.405 338.324 314.405H247.161C244.881 314.405 242.693 315.309 241.08 316.92C239.468 318.53 238.562 320.715 238.562 322.992ZM344.009 322.992V323.009C344.009 324.497 343.411 325.942 342.346 327.005C341.281 328.069 339.834 328.667 338.327 328.667H247.164C245.657 328.667 244.211 328.069 243.146 327.005C242.081 325.942 241.482 324.497 241.482 322.992C241.482 321.487 242.081 320.043 243.146 318.979C244.211 317.915 245.657 317.317 247.164 317.317H338.327C339.834 317.317 341.281 317.915 342.346 318.979C343.411 320.043 344.009 321.487 344.009 322.992Z" fill="#123958"/>
<path fill-rule="evenodd" clip-rule="evenodd" d="M329.672 300.613H255.82L263.537 280.017H321.955L329.672 300.613Z" fill="white"/>
<path fill-rule="evenodd" clip-rule="evenodd" d="M329.671 302.071C330.148 302.071 330.597 301.836 330.869 301.445C331.141 301.054 331.206 300.552 331.036 300.106L323.319 279.508C323.104 278.94 322.56 278.563 321.954 278.563H263.537C262.928 278.563 262.383 278.94 262.172 279.508L254.456 300.106C254.289 300.555 254.35 301.054 254.622 301.445C254.894 301.839 255.344 302.071 255.82 302.071H329.671ZM327.568 299.158H257.923L264.547 281.475H320.944L327.568 299.158Z" fill="#123958"/>
<path fill-rule="evenodd" clip-rule="evenodd" d="M314.122 259.106H271.369L279.086 238.507H306.408L314.125 259.106H314.122Z" fill="white"/>
<path fill-rule="evenodd" clip-rule="evenodd" d="M314.122 260.564C314.601 260.564 315.047 260.329 315.319 259.938C315.592 259.548 315.653 259.045 315.486 258.6L307.769 238.004C307.555 237.437 307.01 237.06 306.405 237.06H279.083C278.474 237.06 277.929 237.437 277.718 238.004L270.001 258.6C269.835 259.048 269.896 259.548 270.168 259.938C270.44 260.333 270.89 260.564 271.366 260.564H314.118H314.122ZM312.019 257.652H273.469L280.093 239.968H305.391L312.016 257.652H312.019Z" fill="#123958"/>
</g>
<defs>
<clipPath id="clip0_1521_9403">
<rect width="366" height="374" fill="white" transform="translate(0.5)"/>
</clipPath>
</defs>
</svg>
