<?xml version="1.0" encoding="UTF-8"?><svg id="_圖層_2" xmlns="http://www.w3.org/2000/svg" viewBox="0 0 134.02 24.83"><defs><style>.cls-1{fill:#f3f;}.cls-2{fill:#5932ea;}.cls-3{fill:#1a1a1a;}</style></defs><g id="_圖層_1-2"><g><g><path class="cls-1" d="M12.42,0c3.43,0,6.21,2.78,6.21,6.21s-2.78,6.21-6.21,6.21c3.43,0,6.21,2.78,6.21,6.21s-2.78,6.21-6.21,6.21c6.86,0,12.42-5.56,12.42-12.42S19.27,0,12.42,0Z"/><path class="cls-2" d="M6.21,18.63c0-3.43,2.78-6.21,6.21-6.21-3.43,0-6.21-2.78-6.21-6.21S8.99,0,12.42,0C5.56,0,0,5.56,0,12.42s5.56,12.42,12.42,12.42c-3.43,0-6.21-2.78-6.21-6.21Z"/></g><g><polygon class="cls-3" points="134.02 5.96 125.33 5.96 125.33 8.2 128.56 8.2 128.56 18.38 130.79 18.38 130.79 8.2 134.02 8.2 134.02 5.96"/><polygon class="cls-3" points="95.53 5.96 86.84 5.96 86.84 8.2 90.06 8.2 90.06 18.38 92.3 18.38 92.3 8.2 95.53 8.2 95.53 5.96"/><polygon class="cls-3" points="122.22 8.2 122.22 5.96 114.77 5.96 114.77 6.45 114.77 6.45 114.77 18.38 114.77 18.38 117.01 18.38 122.22 18.38 122.22 16.14 117.01 16.14 117.01 13.29 121.6 13.29 121.6 11.05 117.01 11.05 117.01 8.2 122.22 8.2"/><path class="cls-3" d="M111.67,14.72c0-1.16-.54-2.19-1.38-2.86,.47-.62,.76-1.39,.76-2.23,0-2.02-1.64-3.66-3.66-3.66h-4.41v12.42h0s5.03,0,5.03,0h0c2.02,0,3.66-1.64,3.66-3.66Zm-4.28-6.52h0c.79,0,1.43,.64,1.43,1.43s-.64,1.43-1.43,1.43h0s-2.17,0-2.17,0v-2.86h2.17Zm.62,7.95h0s-2.79,0-2.79,0v-2.86h2.79c.79,0,1.43,.64,1.43,1.43s-.64,1.43-1.43,1.43Z"/><path class="cls-3" d="M38.47,11.05h0s-2.61,0-2.61,0h0c-.79,0-1.43-.64-1.43-1.43s.64-1.43,1.43-1.43h1.99c.79,0,1.43,.64,1.43,1.43h2.24c0-2.02-1.64-3.66-3.66-3.66h-1.99s0,0,0,0c-2.02,0-3.66,1.64-3.66,3.66s1.64,3.66,3.66,3.66h0s2.61,0,2.61,0h0c.79,0,1.43,.64,1.43,1.43s-.64,1.43-1.43,1.43h0s-2.61,0-2.61,0c-.79,0-1.43-.64-1.43-1.43h-2.24c0,2.02,1.64,3.66,3.66,3.66h0s0,0,0,0h2.61c2.02,0,3.66-1.64,3.66-3.66s-1.64-3.66-3.66-3.66Z"/><path class="cls-3" d="M82.39,18.38h2.58l-3.19-5.52c1.16-.62,1.94-1.83,1.94-3.24,0-2.02-1.64-3.66-3.66-3.66h-5.03v12.42h2.24v-5.09h2.18l2.94,5.09Zm-5.12-10.18h2.79c.79,0,1.43,.64,1.43,1.43s-.64,1.43-1.43,1.43h0s-2.79,0-2.79,0v-2.86Z"/><path class="cls-3" d="M67.9,5.96h-3.11l-4.03,12.42h2.35l.93-2.86h4.62l.93,2.86h2.35l-4.03-12.42Zm-3.14,7.33l1.58-4.87,1.58,4.87h-3.17Z"/><polygon class="cls-3" points="55.42 5.96 55.42 5.96 54.74 5.96 51.45 13.02 48.16 5.96 47.47 5.96 47.47 5.96 45.24 5.96 45.24 18.38 47.47 18.38 47.47 9.79 50.15 15.52 50.28 15.52 52.61 15.52 52.75 15.52 55.42 9.79 55.42 18.38 57.66 18.38 57.66 5.96 55.42 5.96"/></g></g></g></svg>