<?xml version="1.0" encoding="UTF-8"?><svg id="_圖層_2" xmlns="http://www.w3.org/2000/svg" viewBox="0 0 123.65 123.65"><defs><style>.cls-1{fill:#f3f;}.cls-2{fill:#5932ea;}</style></defs><g id="_圖層_1-2"><g><path class="cls-1" d="M61.82,0c17.07,0,30.91,13.84,30.91,30.91s-13.84,30.91-30.91,30.91c17.07,0,30.91,13.84,30.91,30.91s-13.84,30.91-30.91,30.91c34.14,0,61.82-27.68,61.82-61.82S95.97,0,61.82,0Z"/><path class="cls-2" d="M30.91,92.74c0-17.07,13.84-30.91,30.91-30.91-17.07,0-30.91-13.84-30.91-30.91S44.75,0,61.82,0C27.68,0,0,27.68,0,61.82s27.68,61.82,61.82,61.82c-17.07,0-30.91-13.84-30.91-30.91Z"/></g></g></svg>