<svg width="30" height="30" viewBox="0 0 30 30" fill="none" xmlns="http://www.w3.org/2000/svg">
<path d="M9.87034 11.8949C9.74292 10.9605 10.0544 9.95529 10.6844 9.21199C11.81 7.83867 13.3107 7.90238 13.3673 7.83867C13.3037 7.77496 12.8647 6.96088 12.2418 7.46349L5.24776 12.8364C5.12034 12.9639 5 13.0842 5 13.2753C5 13.4594 5 13.5868 5.12742 13.7779L6.87593 15.9017C7.00335 16.0857 7.18741 16.1494 7.37854 16.1494C7.50596 16.1494 7.62631 16.0857 7.75373 16.022L10.1252 14.2097L9.87034 11.8949Z" fill="#2B3240"/>
<path d="M19.3703 7.27235C19.1863 7.02459 18.7474 6.96088 18.4925 7.20864L17.6785 7.83159C17.8625 7.95901 17.9899 8.07936 18.1811 8.27049C23.7381 15.0167 23.7381 14.8256 23.9929 15.3919C24.6159 14.8327 24.9911 14.769 24.9911 14.3301C25.0548 13.8912 24.9273 14.0823 19.3703 7.27235Z" fill="#2B3240"/>
<path d="M17.1829 9.02086C17.0555 8.89344 16.8715 8.7731 16.6237 8.83681L13.2541 9.14829C12.6311 9.21199 12.0082 9.52347 11.633 10.0261C11.2578 10.5287 11.0738 11.1516 11.1304 11.7746L11.4419 15.0875C11.5693 16.0857 12.3197 16.7723 13.2541 16.7723C13.693 16.7723 14.1885 16.5883 14.5 16.2131C14.7477 15.9017 14.8752 15.5265 14.8752 15.1513V12.9639C14.8752 12.8364 14.8752 12.7798 14.9389 12.7161C15.0026 12.6524 15.1229 12.6524 15.1867 12.7798C21.4303 20.2127 18.9315 18.712 22.4922 16.5883C22.6196 16.4609 22.6762 16.3405 22.7399 16.1494C22.7399 15.9653 22.6762 15.8379 22.6125 15.6468L17.1829 9.02086Z" fill="#2B3240"/>
<path d="M16.1211 15.7671C15.9937 16.2061 15.8096 16.6449 15.4344 17.0131C14.8752 17.636 14.0611 18.0112 13.247 18.0112C11.81 18.0112 10.5641 17.0131 10.2455 15.6397L8.43331 17.0131C8.24925 17.1405 8.12183 17.1971 7.9307 17.2608L9.74292 19.5119L12.0507 22.386C12.9285 23.5115 14.5495 22.7612 14.9247 21.7631C15.484 21.8905 16.4892 21.2038 16.7369 20.5738C16.8007 20.5738 17.2962 20.6375 17.7351 20.2623L18.0466 20.0145C18.2943 19.8305 18.4217 19.6393 18.5492 19.3916C18.6766 19.3916 18.9244 19.3916 19.1721 19.2641C18.9315 19.2005 18.6837 18.889 16.1211 15.7671Z" fill="#2B3240"/>
</svg>
