<svg width="1014" height="246" viewBox="0 0 1014 246" fill="none" xmlns="http://www.w3.org/2000/svg">
<path d="M88.2191 35.2304H68.4896C65.765 23.5809 58.5779 17.7561 46.928 17.7561C38.1907 17.7561 31.4733 21.2322 26.7758 28.1843C22.7359 34.2909 20.716 42.4174 20.716 52.5637C20.716 64.0253 23.2526 72.7624 28.3259 78.7751C32.7416 83.9422 38.7074 86.5258 46.2234 86.5258C52.706 86.5258 57.8732 84.8347 61.7252 81.4526C65.5771 78.0705 67.8319 73.2322 68.4896 66.9377H88.6419C87.9842 79.1509 83.2867 88.5926 74.5494 95.2629C67.0334 101.088 57.4035 104 45.6597 104C30.6277 104 18.9779 98.7389 10.7103 88.2168C3.5701 79.1039 0 67.0786 0 52.1409C0 35.0425 4.6975 21.7959 14.0925 12.4011C22.2662 4.1337 32.9295 0 46.0825 0C61.6782 0 73.4689 5.21409 81.4547 15.6423C85.4006 20.8094 87.6554 27.3388 88.2191 35.2304Z" fill="#C6BBEE"/>
<path d="M149.66 0C163.941 0 175.403 4.55646 184.046 13.6694C193.441 23.5339 198.138 36.3108 198.138 52C198.138 67.5014 193.441 80.2782 184.046 90.3306C175.496 99.4436 164.035 104 149.66 104C135.192 104 123.683 99.4436 115.134 90.3306C105.739 80.2782 101.041 67.5014 101.041 52C101.041 36.4986 105.739 23.7218 115.134 13.6694C123.777 4.55646 135.286 0 149.66 0ZM149.66 17.7561C140.641 17.7561 133.548 21.2791 128.381 28.3252C123.965 34.4318 121.757 42.3234 121.757 52C121.757 63.0858 124.623 71.776 130.353 78.0705C135.333 83.5194 141.768 86.2439 149.66 86.2439C158.679 86.2439 165.726 82.7209 170.799 75.6748C175.215 69.5682 177.422 61.6766 177.422 52C177.422 40.9142 174.557 32.224 168.826 25.9295C163.847 20.4806 157.458 17.7561 149.66 17.7561Z" fill="#C6BBEE"/>
<path d="M236.129 23.9566V102.45H215.413V1.55014H246.416L264.737 81.8753L282.352 1.55014H313.638V102.45H292.922V23.9566L275.024 102.45H254.308L236.129 23.9566Z" fill="#C6BBEE"/>
<path d="M356.444 1.55014V102.45H335.728V1.55014H356.444Z" fill="#C6BBEE"/>
<path d="M439.863 102.45L399.277 32.6938V102.45H378.561V1.55014H399.841L439.863 70.1789V1.55014H460.579V102.45H439.863Z" fill="#C6BBEE"/>
<path d="M570.433 47.4905V102.45H558.031L555.495 88.0759C548.073 98.692 537.973 104 525.196 104C510.352 104 498.467 98.5511 489.542 87.6531C481.744 78.0705 477.845 66.2331 477.845 52.1409C477.845 35.5122 482.918 22.3595 493.065 12.6829C501.896 4.22764 513.123 0 526.746 0C539.711 0 550.233 3.42909 558.313 10.2873C565.265 16.112 569.305 23.8157 570.433 33.3984H550.985C547.133 22.9702 539.053 17.7561 526.746 17.7561C517.351 17.7561 510.164 21.1382 505.184 27.9024C500.769 33.9151 498.561 41.8537 498.561 51.7182C498.561 62.6161 501.614 71.3062 507.721 77.7886C512.982 83.4255 519.559 86.2439 527.451 86.2439C535.812 86.2439 542.67 83.1906 548.026 77.084C550.75 73.8898 552.394 69.8031 552.958 64.8239H529.987V47.4905H570.433Z" fill="#C6BBEE"/>
<path d="M692.37 31.9892H672.923C672.265 21.7489 665.219 16.6287 651.784 16.6287C646.429 16.6287 642.154 17.7091 638.96 19.8699C635.859 22.0307 634.309 24.9431 634.309 28.607C634.309 32.1771 635.624 34.8546 638.255 36.6396C640.886 38.4246 645.959 40.0217 653.475 41.4309L669.259 44.3902C678.56 46.1753 685.324 49.2286 689.552 53.5501C693.78 57.8717 695.893 63.9783 695.893 71.8699C695.893 82.6739 691.76 90.8943 683.492 96.5312C676.352 101.51 666.722 104 654.602 104C640.792 104 630.269 100.806 623.035 94.4174C616.74 88.8744 613.311 81.1707 612.748 71.3062H632.9C633.651 82.0163 641.214 87.3713 655.589 87.3713C661.977 87.3713 666.957 86.2439 670.527 83.9892C674.191 81.6405 676.023 78.4463 676.023 74.4065C676.023 70.4607 674.567 67.4074 671.654 65.2466C668.836 63.0858 663.95 61.3478 656.998 60.0325L642.906 57.355C632.665 55.4761 625.337 52.5167 620.921 48.477C616.6 44.3433 614.439 38.4246 614.439 30.7209C614.439 20.2927 618.244 12.4011 625.854 7.04607C632.43 2.34869 641.355 0 652.629 0C666.252 0 676.493 3.10027 683.351 9.30082C689.27 14.7498 692.276 22.3126 692.37 31.9892Z" fill="#C6BBEE"/>
<path d="M756.53 0C770.81 0 782.272 4.55646 790.915 13.6694C800.31 23.5339 805.008 36.3108 805.008 52C805.008 67.5014 800.31 80.2782 790.915 90.3306C782.366 99.4436 770.904 104 756.53 104C742.061 104 730.553 99.4436 722.003 90.3306C712.608 80.2782 707.911 67.5014 707.911 52C707.911 36.4986 712.608 23.7218 722.003 13.6694C730.646 4.55646 742.155 0 756.53 0ZM756.53 17.7561C747.51 17.7561 740.417 21.2791 735.25 28.3252C730.834 34.4318 728.627 42.3234 728.627 52C728.627 63.0858 731.492 71.776 737.223 78.0705C742.202 83.5194 748.638 86.2439 756.53 86.2439C765.549 86.2439 772.595 82.7209 777.668 75.6748C782.084 69.5682 784.292 61.6766 784.292 52C784.292 40.9142 781.427 32.224 775.696 25.9295C770.716 20.4806 764.328 17.7561 756.53 17.7561Z" fill="#C6BBEE"/>
<path d="M866.11 0C880.39 0 891.852 4.55646 900.496 13.6694C909.891 23.5339 914.588 36.3108 914.588 52C914.588 67.5014 909.891 80.2782 900.496 90.3306C891.946 99.4436 880.484 104 866.11 104C851.642 104 840.133 99.4436 831.583 90.3306C822.188 80.2782 817.491 67.5014 817.491 52C817.491 36.4986 822.188 23.7218 831.583 13.6694C840.227 4.55646 851.736 0 866.11 0ZM866.11 17.7561C857.091 17.7561 849.997 21.2791 844.83 28.3252C840.415 34.4318 838.207 42.3234 838.207 52C838.207 63.0858 841.072 71.776 846.803 78.0705C851.783 83.5194 858.218 86.2439 866.11 86.2439C875.129 86.2439 882.175 82.7209 887.249 75.6748C891.664 69.5682 893.872 61.6766 893.872 52C893.872 40.9142 891.007 32.224 885.276 25.9295C880.296 20.4806 873.908 17.7561 866.11 17.7561Z" fill="#C6BBEE"/>
<path d="M993.165 102.45L952.578 32.6938V102.45H931.862V1.55014H953.142L993.165 70.1789V1.55014H1013.88V102.45H993.165Z" fill="#C6BBEE"/>
<path fill-rule="evenodd" clip-rule="evenodd" d="M736.837 100.451C742.672 102.817 749.276 104 756.648 104C771.023 104 782.485 99.4436 791.034 90.3306C800.429 80.2782 805.127 67.5014 805.127 52C805.127 36.3108 800.429 23.5339 791.034 13.6694C787.013 9.43007 782.382 6.17681 777.142 3.90962L769.949 21.139C772.083 22.3892 774.038 23.9861 775.814 25.9295C781.545 32.224 784.411 40.9142 784.411 52C784.411 61.6766 782.203 69.5682 777.787 75.6748C772.714 82.7209 765.668 86.2439 756.648 86.2439C751.907 86.2439 747.69 85.2603 744 83.2931L736.837 100.451ZM866.229 0C880.509 0 891.971 4.55646 900.614 13.6694C910.009 23.5339 914.707 36.3108 914.707 52C914.707 67.5014 910.009 80.2782 900.614 90.3306C892.065 99.4436 880.603 104 866.229 104C851.76 104 840.251 99.4436 831.702 90.3306C822.307 80.2782 817.61 67.5014 817.61 52C817.61 36.4986 822.307 23.7218 831.702 13.6694C840.345 4.55646 851.854 0 866.229 0ZM866.229 17.7561C857.209 17.7561 850.116 21.2791 844.949 28.3252C840.533 34.4318 838.326 42.3234 838.326 52C838.326 63.0858 841.191 71.776 846.922 78.0705C851.901 83.5194 858.337 86.2439 866.229 86.2439C875.248 86.2439 882.294 82.7209 887.367 75.6748C891.783 69.5682 893.991 61.6766 893.991 52C893.991 40.9142 891.125 32.224 885.394 25.9295C880.415 20.4806 874.026 17.7561 866.229 17.7561ZM952.697 32.6938L993.284 102.45H1014V1.55014H993.284V70.1789L953.261 1.55014H931.981V102.45H952.697V32.6938Z" fill="#DED9F2"/>
<rect x="407" y="234" width="200" height="12" rx="6" fill="url(#paint0_linear_547_4142)"/>
<path d="M491.254 224.28C488.414 224.28 486.314 222.66 486.314 220.34C486.314 218.44 487.474 217.18 488.834 216.46V216.38C487.714 215.56 486.874 214.42 486.874 212.86C486.874 210.48 488.774 208.96 491.354 208.96C493.974 208.96 495.654 210.52 495.654 212.88C495.654 214.36 494.714 215.58 493.754 216.28V216.38C495.114 217.12 496.234 218.3 496.234 220.34C496.234 222.58 494.234 224.28 491.254 224.28ZM492.194 215.56C492.914 214.8 493.254 213.96 493.254 213.08C493.254 211.86 492.514 211.02 491.294 211.02C490.274 211.02 489.474 211.68 489.474 212.86C489.474 214.24 490.634 214.94 492.194 215.56ZM491.314 222.2C492.594 222.2 493.494 221.5 493.494 220.22C493.494 218.68 492.114 218.06 490.214 217.26C489.394 217.9 488.834 218.9 488.834 220C488.834 221.34 489.934 222.2 491.314 222.2ZM503.671 224.28C500.871 224.28 498.351 222.02 498.351 216.8C498.351 211.3 501.091 208.94 504.091 208.94C505.891 208.94 507.211 209.68 508.111 210.62L506.531 212.36C506.031 211.78 505.111 211.3 504.271 211.3C502.471 211.3 501.051 212.68 501.051 216.8C501.051 220.64 502.171 222.06 503.631 222.06C504.731 222.06 505.631 221.14 505.631 219.34C505.631 217.58 504.791 216.78 503.531 216.78C502.711 216.78 501.771 217.22 501.031 218.44L500.911 216.44C501.691 215.34 503.071 214.7 504.071 214.7C506.551 214.7 508.331 216.16 508.331 219.34C508.331 222.38 506.191 224.28 503.671 224.28ZM513.608 218.32C511.488 218.32 509.988 216.56 509.988 213.6C509.988 210.64 511.488 208.94 513.608 208.94C515.728 208.94 517.228 210.64 517.228 213.6C517.228 216.56 515.728 218.32 513.608 218.32ZM513.608 216.66C514.468 216.66 515.128 215.76 515.128 213.6C515.128 211.42 514.468 210.6 513.608 210.6C512.728 210.6 512.068 211.42 512.068 213.6C512.068 215.76 512.728 216.66 513.608 216.66ZM514.088 224.28L522.128 208.94H523.888L515.828 224.28H514.088ZM524.368 224.28C522.268 224.28 520.768 222.54 520.768 219.56C520.768 216.6 522.268 214.88 524.368 214.88C526.468 214.88 527.968 216.6 527.968 219.56C527.968 222.54 526.468 224.28 524.368 224.28ZM524.368 222.62C525.228 222.62 525.908 221.74 525.908 219.56C525.908 217.38 525.228 216.56 524.368 216.56C523.508 216.56 522.828 217.38 522.828 219.56C522.828 221.74 523.508 222.62 524.368 222.62Z" fill="#C6BBEE"/>
<defs>
<linearGradient id="paint0_linear_547_4142" x1="407" y1="234" x2="607" y2="234" gradientUnits="userSpaceOnUse">
<stop stop-color="#C6BBEE"/>
<stop offset="1" stop-color="#DED9F2" stop-opacity="0"/>
</linearGradient>
</defs>
</svg>
