<svg width="30" height="30" viewBox="0 0 30 30" fill="none" xmlns="http://www.w3.org/2000/svg">
<path d="M24.9336 11.7752V9.58693C24.9336 9.01107 24.3356 8.4928 23.6711 8.4928H6.26246C5.59801 8.4928 5 9.01107 5 9.58693V11.7752C7.0598 11.7752 8.72093 13.2148 8.72093 15C8.72093 16.7851 7.0598 18.2248 5 18.2248V20.4131C5 20.9889 5.59801 21.5072 6.26246 21.5072H23.7376C24.402 21.5072 25 20.9889 25 20.4131V18.2248C22.9402 18.2248 21.2791 16.7851 21.3455 15C21.2791 13.2724 22.8738 11.8328 24.9336 11.7752ZM12.4419 20.4131H11.1794V18.2248H12.4419V20.4131ZM12.4419 16.0941H11.1794V13.9059H12.4419V16.0941ZM12.4419 11.7752H11.1794V9.58693H12.4419V11.7752Z" fill="#2B3240"/>
</svg>
