<svg width="30" height="30" viewBox="0 0 30 30" fill="none" xmlns="http://www.w3.org/2000/svg">
<path d="M15 5C13.0222 5 11.0888 5.58649 9.4443 6.6853C7.79981 7.78412 6.51809 9.3459 5.76121 11.1732C5.00433 13.0004 4.8063 15.0111 5.19215 16.9509C5.578 18.8907 6.53041 20.6725 7.92894 22.0711C9.32746 23.4696 11.1093 24.422 13.0491 24.8078C14.9889 25.1937 16.9996 24.9957 18.8268 24.2388C20.6541 23.4819 22.2159 22.2002 23.3147 20.5557C24.4135 18.9112 25 16.9778 25 15C24.9972 12.3487 23.9427 9.80678 22.068 7.93202C20.1932 6.05727 17.6513 5.0028 15 5ZM16.1538 19.6154H15.7692V20.3846C15.7692 20.5886 15.6882 20.7843 15.5439 20.9285C15.3997 21.0728 15.204 21.1538 15 21.1538C14.796 21.1538 14.6003 21.0728 14.4561 20.9285C14.3118 20.7843 14.2308 20.5886 14.2308 20.3846V19.6154H12.6923C12.4883 19.6154 12.2926 19.5343 12.1484 19.3901C12.0041 19.2458 11.9231 19.0502 11.9231 18.8462C11.9231 18.6421 12.0041 18.4465 12.1484 18.3022C12.2926 18.158 12.4883 18.0769 12.6923 18.0769H16.1538C16.4599 18.0769 16.7534 17.9554 16.9697 17.739C17.1861 17.5226 17.3077 17.2291 17.3077 16.9231C17.3077 16.6171 17.1861 16.3236 16.9697 16.1072C16.7534 15.8908 16.4599 15.7692 16.1538 15.7692H13.8462C13.1321 15.7692 12.4473 15.4856 11.9424 14.9807C11.4375 14.4758 11.1538 13.791 11.1538 13.0769C11.1538 12.3629 11.4375 11.6781 11.9424 11.1732C12.4473 10.6683 13.1321 10.3846 13.8462 10.3846H14.2308V9.61538C14.2308 9.41137 14.3118 9.21571 14.4561 9.07146C14.6003 8.9272 14.796 8.84615 15 8.84615C15.204 8.84615 15.3997 8.9272 15.5439 9.07146C15.6882 9.21571 15.7692 9.41137 15.7692 9.61538V10.3846H17.3077C17.5117 10.3846 17.7074 10.4657 17.8516 10.6099C17.9959 10.7542 18.0769 10.9498 18.0769 11.1538C18.0769 11.3579 17.9959 11.5535 17.8516 11.6978C17.7074 11.842 17.5117 11.9231 17.3077 11.9231H13.8462C13.5401 11.9231 13.2467 12.0446 13.0303 12.261C12.8139 12.4774 12.6923 12.7709 12.6923 13.0769C12.6923 13.3829 12.8139 13.6764 13.0303 13.8928C13.2467 14.1092 13.5401 14.2308 13.8462 14.2308H16.1538C16.8679 14.2308 17.5527 14.5144 18.0576 15.0193C18.5625 15.5242 18.8462 16.209 18.8462 16.9231C18.8462 17.6371 18.5625 18.3219 18.0576 18.8268C17.5527 19.3317 16.8679 19.6154 16.1538 19.6154Z" fill="#FFFFFF"/>
</svg>
