<svg width="40" height="40" viewBox="0 0 40 40" fill="none" xmlns="http://www.w3.org/2000/svg">
<path fill-rule="evenodd" clip-rule="evenodd" d="M20.5151 3.00874C17.2984 2.90162 14.0485 3.77921 11.2427 5.65208C8.09144 7.75781 5.88915 10.8674 4.87476 14.3435C4.59464 14.3093 4.25919 14.3244 3.86088 14.4371C2.37374 14.859 1.25525 16.0776 0.752327 17.1508C0.10004 18.5495 -0.175057 20.3992 0.115127 22.3088C0.403301 24.2123 1.20747 25.7815 2.21331 26.7556C3.22217 27.7303 4.36128 28.0471 5.49285 27.8092C7.17763 27.4496 8.01298 27.1806 7.77711 25.611L6.63498 18.0023C6.86532 13.8844 8.9972 10.0079 12.5629 7.62403C17.3356 4.43603 23.5929 4.64021 28.1454 8.135C31.3123 10.5631 33.1509 14.2012 33.3632 18.0204L32.5645 23.3428C30.7832 28.2176 26.367 31.5942 21.2569 32.0735H17.8541C16.976 32.0735 16.2689 32.7806 16.2689 33.6577V34.4935C16.2689 35.3711 16.976 36.0782 17.8541 36.0782H22.1445C23.0221 36.0782 23.7262 35.3711 23.7262 34.4935V34.0565C27.5796 33.116 30.9431 30.7478 33.1333 27.4451L34.5078 27.8097C35.6263 28.0999 36.779 27.7303 37.7874 26.7561C38.7932 25.7815 39.5969 24.2129 39.8855 22.3093C40.1767 20.3997 39.8936 18.553 39.2488 17.1513C38.6016 15.7497 37.6375 14.8595 36.5245 14.5402C36.0583 14.4059 35.5524 14.3566 35.1184 14.3435C34.201 11.2003 32.3126 8.3417 29.5908 6.25458C26.9147 4.20116 23.7317 3.11435 20.5151 3.00874Z" fill="#9680EA"/>
<path fill-rule="evenodd" clip-rule="evenodd" d="M25.5367 16.6973C26.6708 16.6973 27.5901 17.6166 27.5927 18.7537C27.5901 19.8878 26.6708 20.8096 25.5367 20.8096C24.3996 20.8096 23.4778 19.8878 23.4778 18.7537C23.4778 17.6171 24.4001 16.6973 25.5367 16.6973ZM19.9996 16.6973C21.1362 16.6973 22.0555 17.6166 22.0555 18.7537C22.0555 19.8878 21.1362 20.8096 19.9996 20.8096C18.862 20.8096 17.9426 19.8878 17.9426 18.7537C17.9426 17.6171 18.862 16.6973 19.9996 16.6973ZM14.4644 16.6973C15.5985 16.6973 16.5204 17.6166 16.5204 18.7537C16.5204 19.8878 15.5985 20.8096 14.4644 20.8096C13.3278 20.8096 12.408 19.8878 12.408 18.7537C12.408 17.6171 13.3278 16.6973 14.4644 16.6973ZM19.9996 7.86499C13.9696 7.86499 9.11035 12.5643 9.11035 18.7537C9.11035 21.7265 10.2344 24.3537 12.0655 26.2814L11.4157 29.1943C11.2015 30.1529 11.8664 30.7976 12.7279 30.3179L15.5724 28.7311C16.9242 29.318 18.4194 29.6424 19.9996 29.6424C26.0316 29.6424 30.8878 24.9462 30.8878 18.7537C30.8878 12.5643 26.0316 7.86499 19.9996 7.86499Z" fill="#9680EA"/>
</svg>
