<svg width="30" height="30" viewBox="0 0 30 30" fill="none" xmlns="http://www.w3.org/2000/svg">
<path d="M8.25584 16.6188C7.95942 16.6188 7.69787 16.6246 7.43632 16.6188C6.12856 16.5723 5.03004 15.5028 5.01841 14.195C4.99516 11.9457 4.99516 9.69054 5.01841 7.43539C5.03004 6.13344 6.13437 5.06398 7.43632 5.01167C7.5235 5.00586 7.61068 5.00586 7.69787 5.00586C12.5685 5.00586 17.4334 5.00586 22.3041 5.00586C23.327 5.00586 24.1175 5.40109 24.6522 6.27875C24.8964 6.67979 24.9952 7.12152 24.9952 7.5865C24.9952 9.73704 25.0068 11.8876 24.9894 14.0381C24.9777 15.5261 23.8966 16.5955 22.4087 16.6188C22.1995 16.6246 21.9902 16.6188 21.7577 16.6188C21.7519 16.7176 21.7461 16.8048 21.7461 16.8861C21.7461 18.7054 21.7519 20.5188 21.7461 22.338C21.7403 23.4656 21.2404 24.3142 20.2 24.7734C19.8746 24.9187 19.4851 24.9826 19.1248 24.9826C16.3756 25 13.6322 24.9942 10.883 24.9884C9.36017 24.9826 8.26166 23.8841 8.25584 22.3555C8.25003 20.5362 8.25584 18.7228 8.25584 16.9036C8.25584 16.828 8.25584 16.7408 8.25584 16.6188ZM21.7635 15.2296C21.9902 15.2296 22.1937 15.2296 22.4029 15.2296C23.1236 15.218 23.6002 14.7472 23.606 14.0207C23.6118 11.8818 23.6118 9.74867 23.606 7.60975C23.606 6.87741 23.1236 6.4008 22.3855 6.4008C17.4683 6.4008 12.5453 6.4008 7.62812 6.4008C6.87834 6.4008 6.40754 6.87741 6.40754 7.633C6.40173 8.3421 6.40754 9.05701 6.40754 9.77192C6.40754 11.1901 6.40754 12.6083 6.40754 14.0207C6.40754 14.5263 6.62841 14.9041 7.08177 15.125C7.45956 15.3052 7.86061 15.2122 8.24422 15.2296C8.24422 13.8173 8.24422 12.4397 8.24422 11.0564C8.1861 11.0506 8.1396 11.0448 8.09891 11.0506C7.65718 11.0913 7.32007 10.7135 7.33169 10.3415C7.34332 9.94047 7.65137 9.66148 8.10473 9.65567C8.40115 9.64986 8.69758 9.64986 8.99981 9.64986C13.0045 9.64986 17.0091 9.64986 21.0138 9.64986C21.3857 9.64986 21.7577 9.64405 22.1239 9.68473C22.4726 9.72542 22.7051 10.0567 22.6819 10.4055C22.6586 10.7484 22.3796 11.0274 22.0309 11.0506C21.9437 11.0564 21.8624 11.0564 21.7694 11.0622C21.7635 12.4514 21.7635 13.8231 21.7635 15.2296ZM14.3064 15.7644C14.3064 15.9039 14.3064 15.9852 14.3064 16.0608C14.3064 17.5545 14.3064 19.0541 14.3064 20.5479C14.3064 21.0128 14.6435 21.3209 15.0911 21.2744C15.4514 21.2395 15.7014 20.9373 15.7014 20.5246C15.7014 19.0309 15.7014 17.5313 15.7014 16.0375C15.7014 15.962 15.7014 15.8864 15.7014 15.7469C16.2419 16.2933 16.7359 16.7931 17.2358 17.2872C17.5555 17.6068 17.9739 17.6243 18.2646 17.3395C18.561 17.0489 18.5436 16.6246 18.2181 16.2991C17.3346 15.4156 16.4511 14.5322 15.5677 13.6487C15.1957 13.2767 14.8179 13.2767 14.4459 13.6487C13.9751 14.1137 13.5101 14.5845 13.0451 15.0495C12.615 15.4796 12.1791 15.9097 11.749 16.3456C11.5398 16.5548 11.4875 16.8106 11.5805 17.0896C11.6793 17.3627 11.8827 17.508 12.1675 17.5371C12.4 17.5604 12.5918 17.4732 12.7545 17.3104C13.2544 16.8106 13.7601 16.3107 14.3064 15.7644Z" fill="#2B3240"/>
</svg>
