<svg width="30" height="30" viewBox="0 0 30 30" fill="none" xmlns="http://www.w3.org/2000/svg">
<path d="M6.92037 12.0287L12.1194 15.6353L12.5878 15.9631C12.822 16.1505 13.0094 16.291 13.1967 16.3847C13.3372 16.4784 13.5714 16.6189 13.7588 16.7594C13.9461 16.8999 14.1803 16.9936 14.4145 17.0404C14.6019 17.1341 14.7892 17.1341 14.9766 17.1341C15.1639 17.1341 15.3513 17.0873 15.5386 17.0404C15.7728 16.9468 15.9602 16.8531 16.1944 16.7594C16.4286 16.6189 16.6159 16.5252 16.7564 16.3847C16.897 16.2442 17.1311 16.1505 17.3653 15.9631L17.8337 15.6353L23.0796 12.0287C23.5948 11.654 24.0632 11.1856 24.4379 10.6704C24.7658 10.202 24.9532 9.59312 25 8.98422C25 8.00062 24.2037 7.20436 23.2201 7.20436H6.77986C6.26464 7.15753 5.79625 7.39172 5.46838 7.76643C5.14052 8.18797 5 8.70319 5 9.21842C5.04684 9.78048 5.23419 10.2957 5.6089 10.7172C5.98361 11.2325 6.40515 11.654 6.92037 12.0287Z" fill="#2B3240"/>
<path d="M23.829 13.1997C21.3934 14.839 19.5667 16.1037 18.3021 17.0404C17.8806 17.3683 17.5527 17.6025 17.2717 17.743C16.9438 17.9304 16.5691 18.1177 16.2412 18.2582C15.8665 18.4456 15.445 18.5393 15.0234 18.5393C14.6019 18.5393 14.1803 18.4456 13.8056 18.2582C13.4309 18.1177 13.103 17.9304 12.7752 17.743C12.4941 17.5557 12.1663 17.3215 11.7447 17.0404C10.7611 16.291 8.88759 15.0264 6.2178 13.1997C5.79625 12.9186 5.42155 12.5908 5.09368 12.2161V21.0217C5.09368 21.4901 5.28103 21.9585 5.6089 22.2863C5.93677 22.6142 6.35831 22.8016 6.8267 22.8016H23.1733C24.1569 22.8016 24.9532 22.0053 24.9532 21.0217V12.2629C24.5785 12.5908 24.2037 12.9186 23.829 13.1997Z" fill="#2B3240"/>
</svg>
