<?xml version="1.0" encoding="utf-8"?>
<!-- Generator: Adobe Illustrator 24.1.2, SVG Export Plug-In . SVG Version: 6.00 Build 0)  -->
<svg version="1.1" id="Layer_1" xmlns="http://www.w3.org/2000/svg" xmlns:xlink="http://www.w3.org/1999/xlink" x="0px" y="0px"
	 viewBox="0 0 305 96" style="enable-background:new 0 0 305 96;" xml:space="preserve">
<style type="text/css">
	.st0{fill:url(#SVGID_1_);}
	.st1{fill:url(#SVGID_2_);}
</style>
<g>
	<path d="M66.86,29.29h29.1v6.59H74.42v9.62h14.34v6.59H74.42v10.77h22.2v6.59H66.86V29.29z"/>
	<path d="M94.53,40.91h7.74l6.78,19.9l6.29-19.9h7.5l-10.41,28.55h-6.96L94.53,40.91z"/>
	<path d="M121.65,55.25c0-8.71,6.05-14.88,14.7-14.88c8.59,0,14.64,6.17,14.64,14.88c0,8.59-6.17,14.76-14.82,14.76
		C127.58,70.01,121.65,63.96,121.65,55.25z M143.37,55.43v-0.24c0-5.44-2.66-8.71-7.02-8.71c-4.42,0-7.08,3.27-7.08,8.71v0.24
		c0,5.32,2.6,8.47,6.96,8.47C140.65,63.9,143.37,60.75,143.37,55.43z"/>
	<path d="M154.4,28.75h7.56v40.71h-7.56V28.75z"/>
	<path d="M166.28,58.03V40.91h7.5v16.7c0,3.81,1.81,6.05,5.2,6.05c3.93,0,5.57-3.33,5.57-8.23V40.91h7.5v28.55h-7.5v-4.05
		c-1.51,2.96-4.11,4.6-7.8,4.6C170.27,70.01,166.28,65.41,166.28,58.03z"/>
	<path d="M198.91,61.9V46.96h-4.05v-6.05h4.05v-5.38l7.32-4.11v9.5h5.63v6.05h-5.69v14.22c0,1.39,0.67,2,2.06,2.06h3.33v6.23h-5.81
		C200.24,69.16,199.03,66.62,198.91,61.9z"/>
	<path d="M215.26,29.41h7.8v7.32h-7.8V29.41z M215.38,40.91h7.56v28.55h-7.56V40.91z"/>
	<path d="M226.36,55.25c0-8.71,6.05-14.88,14.7-14.88c8.59,0,14.64,6.17,14.64,14.88c0,8.59-6.17,14.76-14.82,14.76
		C232.28,70.01,226.36,63.96,226.36,55.25z M248.07,55.43v-0.24c0-5.44-2.66-8.71-7.02-8.71c-4.42,0-7.08,3.27-7.08,8.71v0.24
		c0,5.32,2.6,8.47,6.96,8.47C245.35,63.9,248.07,60.75,248.07,55.43z"/>
	<path d="M259.05,40.91h7.5v4.66c1.51-3.33,4.3-5.26,8.35-5.26c6.23,0,9.92,4.17,9.92,12.04v17.12h-7.5v-16.7
		c0-3.99-1.51-6.05-5.02-6.05c-3.57,0-5.75,2.9-5.75,8.23v14.52h-7.5L259.05,40.91L259.05,40.91z"/>
</g>
<path d="M56.29,72.25c-0.11,0-0.18,0.01-0.37,0.01h-0.19v-0.94h0.26c0.33,0,0.48,0,0.6,0.06c0.23,0.12,0.24,0.34,0.24,0.4
	C56.82,72.23,56.41,72.25,56.29,72.25 M57.39,71.79c0-0.35-0.15-0.59-0.34-0.75c-0.26-0.21-0.53-0.21-0.93-0.22h-0.96v3.02h0.56
	v-1.12h0.5l0.6,1.12h0.64l-0.67-1.23C56.97,72.57,57.39,72.37,57.39,71.79 M56.2,74.73c-1.29,0-2.33-1.04-2.33-2.33
	c0-1.29,1.04-2.33,2.33-2.33c1.29,0,2.33,1.04,2.33,2.33C58.53,73.68,57.49,74.73,56.2,74.73 M56.2,69.46
	c-1.62,0-2.93,1.31-2.93,2.93s1.31,2.93,2.93,2.93s2.93-1.31,2.93-2.93C59.13,70.78,57.81,69.46,56.2,69.46"/>
<g>
	<path d="M51.41,47.98c2.33,0.07,4.89,0.01,7.71-0.21c-0.41-5.69-2.26-10.41-5.03-14.06c0.13,1,0.21,2.02,0.21,3.06
		C54.3,40.84,53.25,44.66,51.41,47.98z"/>
	<path d="M50.44,49.59c-4.16,6.26-11.27,10.39-19.35,10.39c-0.58,0-1.15-0.03-1.71-0.07c-2.06,3.16-3.39,6.67-4.86,9.97
		c14.49,7.74,33.2-0.42,34.61-20.12C55.9,49.51,53.02,49.47,50.44,49.59z"/>
	
		<radialGradient id="SVGID_1_" cx="280.3726" cy="83.8379" r="19.7585" fx="260.6584" fy="85.1598" gradientTransform="matrix(-0.8331 -0.5531 -0.4978 0.7498 314.7193 128.5927)" gradientUnits="userSpaceOnUse">
		<stop  offset="0.1698" style="stop-color:#ECECEC"/>
		<stop  offset="0.2146" style="stop-color:#D6D6D6"/>
		<stop  offset="0.3543" style="stop-color:#969696"/>
		<stop  offset="0.4875" style="stop-color:#606060"/>
		<stop  offset="0.6108" style="stop-color:#373737"/>
		<stop  offset="0.722" style="stop-color:#191919"/>
		<stop  offset="0.8171" style="stop-color:#060606"/>
		<stop  offset="0.8851" style="stop-color:#000000"/>
	</radialGradient>
	<path class="st0" d="M24.52,27.65c4.03,9.07,7.05,19.71,26.9,20.33c1.84-3.33,2.89-7.15,2.89-11.22c0-1.04-0.08-2.06-0.21-3.06
		C47.27,24.69,34.83,22.15,24.52,27.65z"/>
	
		<radialGradient id="SVGID_2_" cx="240.2682" cy="53.58" r="8.3038" fx="235.7133" fy="53.6767" gradientTransform="matrix(-0.4226 -0.9063 -2.3873 1.1132 269.3763 212.8923)" gradientUnits="userSpaceOnUse">
		<stop  offset="0.1155" style="stop-color:#ECECEC"/>
		<stop  offset="0.1694" style="stop-color:#E1E1E1"/>
		<stop  offset="0.2654" style="stop-color:#C2C2C2"/>
		<stop  offset="0.3924" style="stop-color:#909090"/>
		<stop  offset="0.5455" style="stop-color:#4C4C4C"/>
		<stop  offset="0.6987" style="stop-color:#000000"/>
	</radialGradient>
	<path class="st1" d="M50.44,49.59c-11.94,0.59-17.55,4.95-21.06,10.32c0.57,0.04,1.13,0.07,1.71,0.07
		C39.17,59.98,46.28,55.85,50.44,49.59z"/>
</g>
</svg>
