<?xml version="1.0" encoding="utf-8"?>
<!-- Generator: Adobe Illustrator 26.5.0, SVG Export Plug-In . SVG Version: 6.00 Build 0)  -->
<svg version="1.1" id="圖層_1" xmlns="http://www.w3.org/2000/svg" xmlns:xlink="http://www.w3.org/1999/xlink" x="0px" y="0px"
	 viewBox="0 0 64 64" style="enable-background:new 0 0 64 64;" xml:space="preserve">
<style type="text/css">
	.st0{fill:url(#SVGID_1_);}
	.st1{fill:url(#SVGID_00000132047185332766848330000008957735181306887306_);}
	.st2{fill:url(#SVGID_00000166647458301413665270000013658159077745278086_);}
</style>
<g>
	
		<linearGradient id="SVGID_1_" gradientUnits="userSpaceOnUse" x1="16.092" y1="49.8464" x2="49.1431" y2="16.7954" gradientTransform="matrix(1 0 0 -1 0 66)">
		<stop  offset="0" style="stop-color:#47BFEE"/>
		<stop  offset="0.5" style="stop-color:#00A8EA"/>
	</linearGradient>
	<path class="st0" d="M51.8,16L35.9,6.8c-2.5-1.4-5.6-1.4-8,0L12,16c-2.5,1.4-4,4.1-4,6.9v18.2c0,2.9,1.5,5.5,4.1,6.9L28,57.2
		c2.5,1.4,5.6,1.4,8,0L51.9,48c2.5-1.4,4.1-4.1,4.1-6.9V22.9C55.8,20,54.3,17.4,51.8,16z M32,46.4c-8,0-14.5-6.4-14.5-14.4
		S23.9,17.7,32,17.7c7.9,0,14.5,6.4,14.5,14.4S39.9,46.4,32,46.4z M39.2,32c0,4-3.3,7.2-7.2,7.2S24.7,36,24.7,32s3.3-7.2,7.2-7.2
		S39.2,28.1,39.2,32z"/>
	<g>
		
			<linearGradient id="SVGID_00000173149245025418860460000007348615425613504138_" gradientUnits="userSpaceOnUse" x1="26.7846" y1="50.0556" x2="41.8957" y2="34.9445" gradientTransform="matrix(1 0 0 -1 0 66)">
			<stop  offset="2.366437e-09" style="stop-color:#0078D2"/>
			<stop  offset="1" style="stop-color:#0078D2;stop-opacity:0"/>
		</linearGradient>
		<path style="fill:url(#SVGID_00000173149245025418860460000007348615425613504138_);" d="M51.8,16L39.4,8.8
			C27,9.5,17.5,19.6,17.5,32l0,0l0,0c0-7.9,6.4-14.4,14.5-14.4S46.4,24.1,46.4,32l0,0h9.5v-9.1C55.8,20,54.3,17.4,51.8,16z"/>
	</g>
	<g>
		
			<linearGradient id="SVGID_00000001643268669764902220000001721861241685857720_" gradientUnits="userSpaceOnUse" x1="31.4395" y1="18.6646" x2="17.3096" y2="32.7946" gradientTransform="matrix(1 0 0 -1 0 66)">
			<stop  offset="3.313012e-08" style="stop-color:#0078D2"/>
			<stop  offset="1" style="stop-color:#0078D2;stop-opacity:0"/>
		</linearGradient>
		<path style="fill:url(#SVGID_00000001643268669764902220000001721861241685857720_);" d="M43.8,40.2c-2.6,3.7-6.9,6.2-11.8,6.2
			c-8,0-14.5-6.4-14.5-14.4H8v9.1c0,1,0.2,1.8,0.5,2.7c4.3,3.9,9.9,6.2,16.2,6.2C32.8,50.1,39.4,46.2,43.8,40.2L43.8,40.2z"/>
	</g>
</g>
</svg>
