<?xml version="1.0" encoding="utf-8"?>
<!-- Generator: Adobe Illustrator 27.4.1, SVG Export Plug-In . SVG Version: 6.00 Build 0)  -->
<svg version="1.1" id="圖層_1" xmlns="http://www.w3.org/2000/svg" xmlns:xlink="http://www.w3.org/1999/xlink" x="0px" y="0px"
	 viewBox="0 0 324 72" style="enable-background:new 0 0 324 72;" xml:space="preserve">
<style type="text/css">
	.st0{fill:#00A8EA;}
	.st1{fill:url(#SVGID_1_);}
	.st2{fill:url(#SVGID_00000114040939220407942480000008606751277939352739_);}
	.st3{fill:url(#SVGID_00000110470352728058419370000014759310489603361166_);}
	.st4{fill:url(#SVGID_00000099639437523197396100000004929338615610406785_);}
</style>
<g>
	<g>
		<path class="st0" d="M82,22.7c4.6-3.3,10-5,16.3-5c5.2,0,9.3,1.2,12.2,3.6c2.9,2.4,4.3,5.6,4.3,9.8c0,0.8-0.1,1.6-0.2,2.4
			c-0.1,0.8-0.3,1.7-0.5,2.6c-1.4,5.5-4.5,9.9-9.1,13.2c-4.6,3.3-10,5-16.3,5c-5.2,0-9.3-1.2-12.2-3.5c-2.9-2.4-4.4-5.6-4.4-9.7
			c0-0.8,0.1-1.6,0.2-2.4c0.1-0.8,0.3-1.7,0.5-2.5C74.4,30.5,77.4,26.1,82,22.7z M84.9,37.8c-0.1,0.5-0.1,1.1-0.1,1.6
			c0,1.9,0.5,3.5,1.6,4.6c1.1,1.1,2.6,1.7,4.6,1.7c2.5,0,4.7-0.9,6.6-2.6c1.9-1.8,3.3-4.1,4-7c0.2-0.6,0.3-1.2,0.4-1.8
			c0.1-0.6,0.1-1.1,0.1-1.7c0-2-0.5-3.5-1.6-4.6c-1.1-1.1-2.6-1.7-4.5-1.7c-2.5,0-4.7,0.9-6.7,2.7c-2,1.8-3.3,4.1-4.1,7
			C85.1,36.6,85,37.2,84.9,37.8z M130.3,44.5h18l-2.4,9.1h-30.2l9.1-35H137L130.3,44.5z M165.5,44.5h22.6l-2.3,9.1H151l9.1-35h34.2
			l-2.4,9.1h-22.1l-1.1,4.4h19l-2,7.7h-19L165.5,44.5z"/>
		<linearGradient id="SVGID_1_" gradientUnits="userSpaceOnUse" x1="259.7781" y1="19.5215" x2="259.7781" y2="53.8193">
			<stop  offset="0.3" style="stop-color:#FAFAFA"/>
			<stop  offset="1" style="stop-color:#787878"/>
		</linearGradient>
		<path class="st1" d="M226.6,18.5c2.8,0,4.9,0.1,6.3,0.4c1.4,0.3,2.5,0.8,3.6,1.6c0.8,0.6,1.5,1.4,1.9,2.3c0.4,0.9,0.7,1.8,0.7,2.8
			c0,0.1,0,0.3,0,0.5c0,0.2,0,0.3,0,0.5c0,0.2-0.1,0.3-0.1,0.5c0,0.2-0.1,0.3-0.1,0.5c-0.4,1.6-1.2,3-2.2,4.1
			c-1.1,1.1-2.5,2.1-4.4,2.8c1.5,0.6,2.7,1.4,3.5,2.4c0.8,1,1.2,2.3,1.2,3.7c0,0.4,0,0.7-0.1,1.1c-0.1,0.4-0.1,0.8-0.2,1.2
			c-0.7,2.6-2.1,4.8-4.4,6.7c-2.3,1.9-5,3.1-8,3.5c-0.1,0-0.1,0-0.2,0c-0.1,0-0.2,0-0.2,0c-0.8,0.1-1.7,0.2-2.6,0.2
			c-0.9,0.1-2,0.1-3.3,0.1h-20.1l9.1-35H226.6z M211.7,45.3h7.6c1.9,0,3.3-0.2,4.2-0.7c0.9-0.5,1.5-1.3,1.8-2.5
			c0.1-0.2,0.1-0.3,0.1-0.4c0-0.1,0-0.3,0-0.4c0-0.9-0.4-1.5-1.3-1.8c-0.9-0.3-1.8-0.5-2.8-0.5c-0.1,0-0.1,0-0.2,0
			c-0.1,0-0.2,0-0.3,0h-7.3L211.7,45.3z M215.1,32.1h6.1c0.2,0,0.4,0,0.7,0c0.2,0,0.4,0,0.7,0c1-0.1,1.9-0.3,2.8-0.6
			c0.9-0.3,1.4-1,1.7-2.1c0-0.1,0.1-0.3,0.1-0.4c0-0.1,0-0.2,0-0.3c0-0.7-0.4-1.2-1.1-1.5c-0.7-0.2-1.4-0.4-2.2-0.4
			c-0.2,0-0.4-0.1-0.6-0.1c-0.2,0-0.4,0-0.6,0h-6.2L215.1,32.1z M254.5,44.5h22.6l-2.3,9.1H240l9.1-35h34.2l-2.4,9.1h-22.1l-1.1,4.4
			h19l-2,7.7h-19L254.5,44.5z M301.4,53.5h-12.1l6.8-25.9h-11.7l2.4-9.1H322l-2.4,9.1h-11.5L301.4,53.5z"/>
	</g>
	<g>
		
			<linearGradient id="SVGID_00000098186905315616131690000012895137337994545299_" gradientUnits="userSpaceOnUse" x1="12.1112" y1="16.0357" x2="53.6958" y2="57.6202">
			<stop  offset="0" style="stop-color:#47BFEE"/>
			<stop  offset="0.5" style="stop-color:#00A8EA"/>
		</linearGradient>
		<path style="fill:url(#SVGID_00000098186905315616131690000012895137337994545299_);" d="M57.1,15.8l-20-11.5
			c-3.1-1.8-7-1.8-10.1,0l-20,11.5C3.9,17.6,2,20.9,2,24.5v22.9c0,3.6,1.9,6.9,5.1,8.7l20,11.5c3.1,1.8,7,1.8,10.1,0l20-11.5
			c3.1-1.8,5.1-5.1,5.1-8.7V24.5C62.1,20.9,60.2,17.6,57.1,15.8z M32.1,54.1C22,54.1,13.9,46,13.9,36c0-10,8.1-18.1,18.2-18.1
			c10,0,18.2,8.1,18.2,18.1C50.3,46,42.1,54.1,32.1,54.1z M41.2,36c0,5-4.1,9-9.1,9S23,41,23,36s4.1-9,9.1-9S41.2,31,41.2,36z"/>
		<g>
			
				<linearGradient id="SVGID_00000015327663285965523820000013324945173370075285_" gradientUnits="userSpaceOnUse" x1="25.5713" y1="15.7657" x2="44.5839" y2="34.7784">
				<stop  offset="2.366437e-09" style="stop-color:#0078D2"/>
				<stop  offset="1" style="stop-color:#0078D2;stop-opacity:0"/>
			</linearGradient>
			<path style="fill:url(#SVGID_00000015327663285965523820000013324945173370075285_);" d="M57.1,15.8l-15.7-9
				C25.9,7.6,13.9,20.4,13.9,36l0,0v0c0-10,8.1-18.1,18.2-18.1S50.3,26,50.3,36v0h11.9V24.5C62.1,20.9,60.2,17.6,57.1,15.8z"/>
		</g>
		<g>
			
				<linearGradient id="SVGID_00000041284129626689868040000009316930610203142824_" gradientUnits="userSpaceOnUse" x1="31.4422" y1="55.2474" x2="13.6641" y2="37.4692">
				<stop  offset="3.313012e-08" style="stop-color:#0078D2"/>
				<stop  offset="1" style="stop-color:#0078D2;stop-opacity:0"/>
			</linearGradient>
			<path style="fill:url(#SVGID_00000041284129626689868040000009316930610203142824_);" d="M47,46.3c-3.3,4.7-8.7,7.8-14.9,7.8
				C22,54.1,13.9,46,13.9,36H2v11.5c0,1.2,0.2,2.3,0.6,3.4C8,55.8,15.1,58.7,23,58.7C33.1,58.7,41.5,53.8,47,46.3L47,46.3z"/>
		</g>
	</g>
</g>
</svg>
