<svg width="30" height="30" viewBox="0 0 30 30" fill="none" xmlns="http://www.w3.org/2000/svg">
<path d="M15 5C13.0222 5 11.0888 5.58649 9.4443 6.6853C7.79981 7.78412 6.51809 9.3459 5.76121 11.1732C5.00433 13.0004 4.8063 15.0111 5.19215 16.9509C5.578 18.8907 6.53041 20.6725 7.92894 22.0711C9.32746 23.4696 11.1093 24.422 13.0491 24.8078C14.9889 25.1937 16.9996 24.9957 18.8268 24.2388C20.6541 23.4819 22.2159 22.2002 23.3147 20.5557C24.4135 18.9112 25 16.9778 25 15C24.9972 12.3487 23.9427 9.80678 22.068 7.93202C20.1932 6.05727 17.6513 5.0028 15 5ZM15 21.1538C14.7718 21.1538 14.5487 21.0862 14.359 20.9594C14.1692 20.8326 14.0213 20.6524 13.934 20.4416C13.8467 20.2307 13.8238 19.9987 13.8683 19.7749C13.9128 19.5511 14.0227 19.3455 14.1841 19.1841C14.3455 19.0227 14.5511 18.9128 14.7749 18.8683C14.9987 18.8238 15.2307 18.8467 15.4416 18.934C15.6524 19.0213 15.8326 19.1692 15.9594 19.359C16.0862 19.5487 16.1538 19.7718 16.1538 20C16.1538 20.306 16.0323 20.5995 15.8159 20.8159C15.5995 21.0323 15.306 21.1538 15 21.1538ZM15.7692 16.4692V16.5385C15.7692 16.7425 15.6882 16.9381 15.5439 17.0824C15.3997 17.2266 15.204 17.3077 15 17.3077C14.796 17.3077 14.6003 17.2266 14.4561 17.0824C14.3118 16.9381 14.2308 16.7425 14.2308 16.5385V15.7692C14.2308 15.5652 14.3118 15.3696 14.4561 15.2253C14.6003 15.081 14.796 15 15 15C16.2721 15 17.3077 14.1346 17.3077 13.0769C17.3077 12.0192 16.2721 11.1538 15 11.1538C13.7279 11.1538 12.6923 12.0192 12.6923 13.0769V13.4615C12.6923 13.6655 12.6113 13.8612 12.467 14.0055C12.3227 14.1497 12.1271 14.2308 11.9231 14.2308C11.7191 14.2308 11.5234 14.1497 11.3792 14.0055C11.2349 13.8612 11.1538 13.6655 11.1538 13.4615V13.0769C11.1538 11.1683 12.8788 9.61538 15 9.61538C17.1212 9.61538 18.8462 11.1683 18.8462 13.0769C18.8462 14.7481 17.5231 16.1471 15.7692 16.4692Z" fill="#2B3240"/>
</svg>
