<svg width="30" height="30" viewBox="0 0 30 30" fill="none" xmlns="http://www.w3.org/2000/svg">
<path d="M11 15C12.9344 15 14.5 13.4344 14.5 11.5C14.5 9.56562 12.9344 8 11 8C9.06563 8 7.5 9.56562 7.5 11.5C7.5 13.4344 9.06563 15 11 15ZM13.4 16H13.1406C12.4906 16.3125 11.7688 16.5 11 16.5C10.2312 16.5 9.5125 16.3125 8.85938 16H8.6C6.6125 16 5 17.6125 5 19.6V20.5C5 21.3281 5.67188 22 6.5 22H15.5C16.3281 22 17 21.3281 17 20.5V19.6C17 17.6125 15.3875 16 13.4 16ZM20 15C21.6562 15 23 13.6562 23 12C23 10.3438 21.6562 9 20 9C18.3438 9 17 10.3438 17 12C17 13.6562 18.3438 15 20 15ZM21.5 16H21.3813C20.9469 16.15 20.4875 16.25 20 16.25C19.5125 16.25 19.0531 16.15 18.6187 16H18.5C17.8625 16 17.275 16.1844 16.7594 16.4812C17.5219 17.3031 18 18.3938 18 19.6V20.8C18 20.8688 17.9844 20.9344 17.9812 21H23.5C24.3281 21 25 20.3281 25 19.5C25 17.5656 23.4344 16 21.5 16Z" fill="#2B3240"/>
</svg>
