<svg width="40" height="40" viewBox="0 0 40 40" fill="none" xmlns="http://www.w3.org/2000/svg">
<g clip-path="url(#clip0_753_9503)">
<path d="M37.1577 31.2251C35.3331 33.8263 32.0089 34.7224 29.2046 33.5673C29.3163 34.1056 29.3749 34.6634 29.3749 35.2345V38.8282C29.3749 39.2392 29.3038 39.6337 29.1733 40.0001H37.578C38.2249 40.0001 38.7499 39.4751 38.7499 38.8282V35.2345C38.7499 33.6845 38.1437 32.2743 37.1577 31.2251Z" fill="#9680EA"/>
<path d="M10.625 35.2345C10.625 34.6634 10.6836 34.1056 10.7953 33.5673C7.9918 34.722 4.66727 33.8269 2.84219 31.2251C1.85625 32.2743 1.25 33.6845 1.25 35.2345V38.8282C1.25 39.4751 1.775 40.0001 2.42188 40.0001H10.8266C10.6961 39.6337 10.625 39.2392 10.625 38.8282V35.2345Z" fill="#9680EA"/>
<path d="M12.1875 16.4844H14.1406V20.7812C14.1406 21.4309 14.6685 21.9531 15.3123 21.9531C15.6201 21.9531 15.9225 21.8318 16.1471 21.6038L21.1934 16.4844H27.8125C30.6126 16.4844 32.8906 14.2063 32.8906 11.4062V5.07812C32.8906 2.27805 30.6126 0 27.8125 0H12.1875C9.38742 0 7.10938 2.27805 7.10938 5.07812V11.4062C7.10938 14.2063 9.38742 16.4844 12.1875 16.4844ZM12.9688 4.76562H27.0312C27.6784 4.76562 28.2031 5.29031 28.2031 5.9375C28.2031 6.58469 27.6784 7.10938 27.0312 7.10938H12.9688C12.3216 7.10938 11.7969 6.58469 11.7969 5.9375C11.7969 5.29031 12.3216 4.76562 12.9688 4.76562ZM12.9688 9.45312H24.6875C25.3347 9.45312 25.8594 9.97781 25.8594 10.625C25.8594 11.2722 25.3347 11.7969 24.6875 11.7969H12.9688C12.3216 11.7969 11.7969 11.2722 11.7969 10.625C11.7969 9.97781 12.3216 9.45312 12.9688 9.45312Z" fill="#9680EA"/>
<path d="M31.7188 31.7188C34.0918 31.7188 36.0156 29.795 36.0156 27.4219C36.0156 25.0488 34.0918 23.125 31.7188 23.125C29.3457 23.125 27.4219 25.0488 27.4219 27.4219C27.4219 29.795 29.3457 31.7188 31.7188 31.7188Z" fill="#9680EA"/>
<path d="M8.28125 31.7188C10.6543 31.7188 12.5781 29.795 12.5781 27.4219C12.5781 25.0488 10.6543 23.125 8.28125 23.125C5.90815 23.125 3.98438 25.0488 3.98438 27.4219C3.98438 29.795 5.90815 31.7188 8.28125 31.7188Z" fill="#9680EA"/>
<path d="M14.5611 31.2251C13.5748 32.2741 12.9688 33.6845 12.9688 35.2345V38.8282C12.9688 39.4754 13.4934 40.0001 14.1406 40.0001H25.8594C26.5066 40.0001 27.0312 39.4754 27.0312 38.8282V35.2345C27.0312 33.6845 26.4252 32.2741 25.4389 31.2251C22.7866 35.0067 17.2136 35.007 14.5611 31.2251Z" fill="#9680EA"/>
<path d="M20 31.7188C22.3731 31.7188 24.2969 29.795 24.2969 27.4219C24.2969 25.0488 22.3731 23.125 20 23.125C17.6269 23.125 15.7031 25.0488 15.7031 27.4219C15.7031 29.795 17.6269 31.7188 20 31.7188Z" fill="#9680EA"/>
</g>
<defs>
<clipPath id="clip0_753_9503">
<rect width="40" height="40" fill="white"/>
</clipPath>
</defs>
</svg>
