<svg width="30" height="30" viewBox="0 0 30 30" fill="none" xmlns="http://www.w3.org/2000/svg">
<path d="M10.5556 20.5556C10.8704 20.5556 11.1344 20.4489 11.3478 20.2356C11.5611 20.0222 11.6674 19.7585 11.6667 19.4444C11.6667 19.1296 11.56 18.8656 11.3467 18.6522C11.1333 18.4389 10.8696 18.3326 10.5556 18.3333C10.2407 18.3333 9.97667 18.44 9.76333 18.6533C9.55 18.8667 9.44371 19.1304 9.44445 19.4444C9.44445 19.7593 9.55111 20.0233 9.76445 20.2367C9.97778 20.45 10.2415 20.5563 10.5556 20.5556ZM10.5556 16.1111C10.8704 16.1111 11.1344 16.0044 11.3478 15.7911C11.5611 15.5778 11.6674 15.3141 11.6667 15C11.6667 14.6852 11.56 14.4211 11.3467 14.2078C11.1333 13.9944 10.8696 13.8881 10.5556 13.8889C10.2407 13.8889 9.97667 13.9956 9.76333 14.2089C9.55 14.4222 9.44371 14.6859 9.44445 15C9.44445 15.3148 9.55111 15.5789 9.76445 15.7922C9.97778 16.0056 10.2415 16.1119 10.5556 16.1111ZM10.5556 11.6667C10.8704 11.6667 11.1344 11.56 11.3478 11.3467C11.5611 11.1333 11.6674 10.8696 11.6667 10.5556C11.6667 10.2407 11.56 9.97667 11.3467 9.76333C11.1333 9.55 10.8696 9.44371 10.5556 9.44445C10.2407 9.44445 9.97667 9.55111 9.76333 9.76445C9.55 9.97778 9.44371 10.2415 9.44445 10.5556C9.44445 10.8704 9.55111 11.1344 9.76445 11.3478C9.97778 11.5611 10.2415 11.6674 10.5556 11.6667ZM15 20.5556H19.4444C19.7593 20.5556 20.0233 20.4489 20.2367 20.2356C20.45 20.0222 20.5563 19.7585 20.5556 19.4444C20.5556 19.1296 20.4489 18.8656 20.2356 18.6522C20.0222 18.4389 19.7585 18.3326 19.4444 18.3333H15C14.6852 18.3333 14.4211 18.44 14.2078 18.6533C13.9944 18.8667 13.8881 19.1304 13.8889 19.4444C13.8889 19.7593 13.9956 20.0233 14.2089 20.2367C14.4222 20.45 14.6859 20.5563 15 20.5556ZM15 16.1111H19.4444C19.7593 16.1111 20.0233 16.0044 20.2367 15.7911C20.45 15.5778 20.5563 15.3141 20.5556 15C20.5556 14.6852 20.4489 14.4211 20.2356 14.2078C20.0222 13.9944 19.7585 13.8881 19.4444 13.8889H15C14.6852 13.8889 14.4211 13.9956 14.2078 14.2089C13.9944 14.4222 13.8881 14.6859 13.8889 15C13.8889 15.3148 13.9956 15.5789 14.2089 15.7922C14.4222 16.0056 14.6859 16.1119 15 16.1111ZM15 11.6667H19.4444C19.7593 11.6667 20.0233 11.56 20.2367 11.3467C20.45 11.1333 20.5563 10.8696 20.5556 10.5556C20.5556 10.2407 20.4489 9.97667 20.2356 9.76333C20.0222 9.55 19.7585 9.44371 19.4444 9.44445H15C14.6852 9.44445 14.4211 9.55111 14.2078 9.76445C13.9944 9.97778 13.8881 10.2415 13.8889 10.5556C13.8889 10.8704 13.9956 11.1344 14.2089 11.3478C14.4222 11.5611 14.6859 11.6674 15 11.6667ZM7.22222 25C6.61111 25 6.08778 24.7822 5.65222 24.3467C5.21667 23.9111 4.99926 23.3881 5 22.7778V7.22222C5 6.61111 5.21778 6.08778 5.65334 5.65222C6.08889 5.21667 6.61185 4.99926 7.22222 5H22.7778C23.3889 5 23.9122 5.21778 24.3478 5.65334C24.7833 6.08889 25.0007 6.61185 25 7.22222V22.7778C25 23.3889 24.7822 23.9122 24.3467 24.3478C23.9111 24.7833 23.3881 25.0007 22.7778 25H7.22222Z" fill="#FFFFFF"/>
</svg>
