<svg width="44" height="40" viewBox="0 0 44 40" fill="none" xmlns="http://www.w3.org/2000/svg">
<path d="M33.6713 10.353V16.5151C33.6713 22.6927 33.6713 28.8703 33.6713 35.0557C33.6713 36.8407 32.4684 38.0358 30.6756 38.0358H21.8205H13.3535C11.6073 38.0358 10.3811 36.8174 10.3811 35.079C10.3811 28.8936 10.3811 22.7004 10.3811 16.5151V10.353H33.6713ZM18.7162 23.43C18.3282 23.2747 17.9168 23.1894 17.4978 23.1894C16.6518 23.1894 15.8525 23.5231 15.2471 24.1207C13.9355 25.409 13.9355 27.3957 15.2471 28.7539C16.1163 29.6541 17.133 30.7019 18.1807 31.6797C19.2362 32.6731 20.571 33.2164 21.9214 33.2164C23.2718 33.2164 24.6532 32.6498 25.732 31.6254C26.6711 30.7251 27.5713 29.8094 28.5725 28.7849C29.8763 27.4501 29.9151 25.4633 28.6501 24.1672C28.037 23.5386 27.2143 23.1894 26.3529 23.1894C26.0036 23.1894 25.6621 23.2437 25.3362 23.3524C25.3362 21.4044 25.3362 19.4642 25.3362 17.5162C25.3362 16.0106 24.5368 14.8465 23.202 14.4041C22.8139 14.2799 22.4259 14.2101 22.0378 14.2101C20.1597 14.2101 18.7317 15.7002 18.7317 17.6792C18.7317 19.5961 18.7317 21.5053 18.7317 23.4222M35.239 8.79304H8.82115V9.34406C8.82115 17.9198 8.82115 26.4955 8.82115 35.0712C8.82115 37.6788 10.7303 39.5802 13.3457 39.5802C16.1707 39.5802 18.9956 39.5802 21.8128 39.5802C24.63 39.5802 27.7188 39.5802 30.6679 39.5802C33.3221 39.5802 35.2157 37.6866 35.2157 35.0402C35.2157 26.48 35.2157 17.9198 35.2157 9.36734V8.78528L35.239 8.79304ZM20.2839 26.6585C20.2839 26.4877 20.2839 26.3092 20.2839 26.1385C20.2839 23.3213 20.2839 20.5041 20.2839 17.6869C20.2839 16.5306 21.0522 15.77 22.0378 15.77C22.2551 15.77 22.4802 15.8088 22.713 15.8864C23.4037 16.1115 23.7763 16.678 23.784 17.524C23.784 20.3101 23.784 23.0885 23.784 25.8746C23.784 26.0609 23.784 26.2394 23.784 26.4256C23.8306 26.4489 23.8849 26.48 23.9315 26.5032C24.304 26.0997 24.6688 25.6884 25.0646 25.3081C25.4526 24.9356 25.9105 24.7493 26.3606 24.7493C26.8107 24.7493 27.2143 24.92 27.548 25.2615C28.2155 25.9445 28.1922 26.9689 27.4782 27.7062C26.5546 28.653 25.6233 29.5921 24.6688 30.5078C23.8616 31.2839 22.8993 31.672 21.937 31.672C20.9746 31.672 20.0511 31.2994 19.2517 30.5544C18.2661 29.6231 17.3115 28.653 16.3724 27.6829C15.6584 26.9456 15.6662 25.9134 16.3492 25.2382C16.6751 24.9123 17.0942 24.7493 17.5133 24.7493C17.9634 24.7493 18.4213 24.9356 18.7938 25.3003C19.2595 25.7582 19.7018 26.2394 20.2839 26.6662V26.6585Z" fill="#BDBDBD"/>
<path d="M25.1577 1.54441H35.2157C37.2413 1.54441 39.1117 2.35153 40.4931 3.81057C41.8668 5.26184 42.5575 7.17101 42.4411 9.1733C42.3247 11.2687 41.5408 12.9295 40.0662 14.1868C40.0662 12.4717 40.0662 10.7488 40.0662 9.03361C40.0662 8.52916 40.0119 7.99366 39.9188 7.44264C39.6161 5.68093 38.2968 4.54009 36.0073 4.0434C35.6503 3.96579 35.3089 3.95803 35.0295 3.95803H34.882H34.7501C28.6811 3.95803 22.6121 3.95803 16.5432 3.95803H9.08502H8.97637H8.90652C8.84444 3.95803 8.78235 3.95803 8.72026 3.95803C7.04393 3.95803 4.1957 4.59441 3.99392 8.87063C3.90855 10.6246 3.93183 12.3863 3.94736 14.0937C3.94736 14.1247 3.94736 14.1635 3.94736 14.1946C3.59812 13.8841 3.27992 13.5426 2.99277 13.1546C1.45613 11.1057 1.13017 8.45154 2.1158 6.05345C3.10919 3.64759 5.22013 1.99454 7.75792 1.62978C8.10716 1.58321 8.46416 1.55217 8.82116 1.55217C14.2693 1.55217 19.7096 1.55217 25.1577 1.55217M25.1577 0C19.7096 0 14.2693 0 8.82116 0C8.39431 0 7.9597 0.0310454 7.54062 0.0931321C0.967197 1.03995 -2.23802 8.7775 1.75104 14.0859C2.72114 15.3742 3.96288 16.3055 5.51504 16.9341V16.3133C5.51504 13.8531 5.42191 11.3929 5.53833 8.94048C5.64698 6.7364 6.57051 5.51019 8.72026 5.51019C8.76683 5.51019 8.82116 5.51019 8.86772 5.51019C8.90652 5.51019 8.93757 5.51019 8.97637 5.51019C9.06174 5.51019 9.14711 5.51019 9.23248 5.51019H16.5432C22.6121 5.51019 28.6811 5.51019 34.7501 5.51019C34.8432 5.51019 34.9286 5.51019 35.0217 5.51019C35.239 5.51019 35.4641 5.51019 35.6736 5.56452C37.1404 5.88271 38.1726 6.47253 38.3899 7.71427C38.4675 8.14887 38.5141 8.599 38.5141 9.04137C38.5296 11.4627 38.5141 13.8841 38.5141 16.3133C38.5141 16.4995 38.5141 16.6858 38.5141 16.9419C38.7547 16.841 38.9487 16.7712 39.1194 16.678C42.1151 15.1181 43.7914 12.6657 43.9855 9.27419C44.2726 4.22189 40.268 0.00776083 35.208 0C31.8553 0 28.5026 0 25.1499 0H25.1577Z" fill="#BDBDBD"/>
</svg>
