<svg width="42" height="39" viewBox="0 0 42 39" fill="none" xmlns="http://www.w3.org/2000/svg">
<path fill-rule="evenodd" clip-rule="evenodd" d="M42 16.6047C42 7.45046 32.5774 -0.00012207 21 -0.00012207C9.42258 -0.00012207 -2.47955e-05 7.45046 -2.47955e-05 16.6047C-2.47955e-05 24.8115 7.46866 31.6882 17.5624 32.9871C18.2471 33.1294 19.1785 33.4275 19.4113 33.9968C19.6213 34.5128 19.5482 35.3224 19.4797 35.8472C19.4797 35.8472 19.2332 37.2929 19.1785 37.5998L19.1706 37.6435C19.0713 38.1951 18.8186 39.5989 20.9954 38.7029C23.2369 37.7822 33.0887 31.7639 37.4941 26.822C40.5391 23.5704 41.9954 20.2699 41.9954 16.6047H42ZM16.7315 12.1791H15.2569C15.0332 12.1791 14.846 12.357 14.846 12.575V21.489C14.846 21.7069 15.0287 21.8849 15.2569 21.8849H16.7315C16.9552 21.8849 17.1423 21.7069 17.1423 21.489V12.575C17.1423 12.357 16.9597 12.1791 16.7315 12.1791ZM25.3963 12.1791H26.8708L26.8662 12.1835C27.0945 12.1835 27.2771 12.3615 27.2771 12.5794V21.4934C27.2771 21.7114 27.0945 21.8893 26.8662 21.8893H25.3917C25.3552 21.8893 25.3186 21.8849 25.2867 21.876H25.2821C25.273 21.8715 25.2639 21.8671 25.2547 21.8671C25.2502 21.8626 25.241 21.8626 25.241 21.8626C25.2365 21.8582 25.2273 21.8537 25.2228 21.8537C25.2182 21.8493 25.2091 21.8448 25.2045 21.8448C25.2 21.8404 25.1908 21.8404 25.1908 21.8404L25.1634 21.827C25.1223 21.8003 25.0858 21.7692 25.0584 21.7292L20.8584 16.2046V21.4979C20.8584 21.7158 20.6758 21.8938 20.4475 21.8938H18.973C18.7447 21.8938 18.5621 21.7158 18.5621 21.4979V12.5839C18.5621 12.3659 18.7493 12.188 18.973 12.188H20.4475H20.4613H20.4841H20.5069H20.5252C20.5343 12.1924 20.5388 12.1924 20.5479 12.1924H20.548H20.5617C20.5641 12.1936 20.5663 12.1948 20.5682 12.1959C20.5736 12.1989 20.5778 12.2013 20.5845 12.2013C20.5891 12.2058 20.5936 12.2058 20.5982 12.2058H20.5982C20.6028 12.2058 20.6062 12.208 20.6096 12.2102C20.613 12.2124 20.6165 12.2147 20.621 12.2147C20.6256 12.2191 20.6347 12.2191 20.6347 12.2191C20.6383 12.2209 20.6412 12.2233 20.644 12.2256C20.6482 12.2292 20.652 12.2325 20.6576 12.2325C20.6621 12.2369 20.6712 12.2414 20.6712 12.2414C20.6758 12.2436 20.6792 12.2458 20.6827 12.248C20.6861 12.2503 20.6895 12.2525 20.6941 12.2547C20.6941 12.2591 20.7032 12.2636 20.7032 12.2636C20.7078 12.2658 20.7112 12.2692 20.7146 12.2725C20.718 12.2758 20.7215 12.2792 20.726 12.2814L20.7352 12.2903C20.7397 12.2992 20.758 12.317 20.758 12.317C20.7671 12.3303 20.7899 12.357 20.7899 12.357L24.9854 17.8727V12.575C24.9854 12.357 25.168 12.1791 25.3963 12.1791ZM13.1843 19.6611H9.18062V12.5797C9.18062 12.3617 8.99801 12.1793 8.76975 12.1793H7.29518C7.07148 12.1793 6.88431 12.3573 6.88431 12.5797V21.4937C6.88431 21.6004 6.92997 21.6983 6.99844 21.7695L7.00301 21.7739L7.00758 21.7784C7.08063 21.8451 7.18106 21.8896 7.29062 21.8896H13.1752C13.3989 21.8896 13.5815 21.7116 13.5815 21.4892V20.0525C13.5815 19.8345 13.3989 19.6522 13.1752 19.6522L13.1843 19.6611ZM35.4124 14.0115C35.4124 14.2339 35.2298 14.4118 35.0061 14.4118V14.3896H31.0024V15.8975H35.0061C35.2298 15.8975 35.4124 16.0754 35.4124 16.2978V17.7346C35.4124 17.957 35.2298 18.1349 35.0061 18.1349H31.0024V19.6428H35.0061C35.2298 19.6428 35.4124 19.8252 35.4124 20.0432V21.4799C35.4124 21.7023 35.2298 21.8802 35.0061 21.8802H29.1215C29.0119 21.8802 28.9115 21.8357 28.8385 21.769C28.8339 21.7646 28.8339 21.7646 28.8339 21.7646L28.8293 21.7601C28.7608 21.6889 28.7152 21.5911 28.7152 21.4843V12.5703C28.7152 12.4636 28.7608 12.3657 28.8293 12.2945C28.8293 12.2901 28.8339 12.2856 28.8339 12.2856H28.8385C28.9115 12.2189 29.0119 12.1744 29.1215 12.1744H35.0061C35.2298 12.1744 35.4124 12.3524 35.4124 12.5748V14.0115Z" fill="#9680EA"/>
</svg>
