<svg width="44" height="44" viewBox="0 0 44 44" fill="none" xmlns="http://www.w3.org/2000/svg">
<path d="M23.0475 44H20.319L18.9848 43.7601C14.937 43.093 11.5339 41.1441 8.8654 37.9659C6.81903 35.5297 5.57473 32.7188 5.18494 29.623C4.74269 26.1749 5.09499 22.8318 6.22686 19.691C7.02892 17.4648 8.21326 15.8157 9.83985 14.6538C9.91481 14.5939 9.95979 14.5639 10.0048 14.5339C10.5744 14.1591 11.1741 14.0767 11.6988 14.2865C12.216 14.5039 12.5833 14.9912 12.7183 15.6583C13.0631 17.2999 13.5503 18.5292 14.2624 19.5261C14.6747 20.1033 15.1319 20.5306 15.6416 20.8154L15.7915 17.8246C16.0389 12.8623 17.673 8.4473 20.6638 4.68439C22.0206 2.97535 23.4448 1.57363 25.0189 0.404277C25.776 -0.15791 26.4281 -0.030481 26.8404 0.171906C27.2527 0.374294 27.7474 0.824043 27.7549 1.75353C27.7774 3.92732 28.452 6.02615 29.7638 7.99005C30.5583 9.18189 31.4128 10.3662 32.2374 11.5206C32.8071 12.3151 33.3767 13.1097 33.9314 13.9118C36.0902 17.0225 37.4095 20.0583 37.9792 23.1991C38.6913 27.1569 38.4065 30.5825 37.1097 33.6708C35.7529 36.894 33.5866 39.48 30.6633 41.354C28.4295 42.7932 25.9334 43.6552 23.2424 43.9101L23.055 43.985L23.0475 44ZM20.5064 42.5008H22.8001C22.8826 42.4709 22.98 42.4409 23.085 42.4334C25.5361 42.1935 27.8148 41.4139 29.8462 40.1097C32.5072 38.4006 34.4861 36.0394 35.7229 33.1011C36.9073 30.2901 37.1621 27.1419 36.5025 23.4764C35.9703 20.5456 34.726 17.7046 32.6946 14.7738C32.1399 13.9792 31.5778 13.1922 31.0156 12.4051C30.1835 11.2432 29.3215 10.0439 28.512 8.82959C27.0353 6.61832 26.2782 4.24214 26.2482 1.77601C26.2482 1.55863 26.2032 1.53615 26.1583 1.51366C26.1208 1.49117 26.0833 1.47618 25.9034 1.60361C24.4342 2.698 23.1 4.00977 21.8257 5.61388C19.0372 9.12192 17.5081 13.2521 17.2757 17.892L17.0433 22.457L16.3987 22.6069L16.1513 22.5844C16.0539 22.5694 15.949 22.5469 15.844 22.517C14.7271 22.1797 13.8051 21.4825 13.0181 20.3882C12.1786 19.2113 11.6089 17.8021 11.2266 15.9506C11.1816 15.7407 11.1141 15.6658 11.0992 15.6583C11.0842 15.6583 10.9792 15.6583 10.7993 15.7707L10.6944 15.8532C9.32264 16.8351 8.3182 18.2518 7.62109 20.1783C6.57167 23.0941 6.24186 26.2049 6.65413 29.4131C7.01393 32.2166 8.1383 34.7651 9.99727 36.9839C12.4334 39.8848 15.5292 41.6613 19.2096 42.2685L20.4914 42.4858L20.5064 42.5008ZM21.7357 42.201C21.4659 42.201 21.196 42.186 20.9187 42.1485C18.4825 41.8262 16.766 40.327 15.949 37.8159C15.4467 36.2568 15.5067 34.5553 16.1513 32.5914L16.5411 31.3995L17.4031 32.314C17.5531 32.4714 17.703 32.6363 17.8454 32.8012C18.1452 33.1386 18.4226 33.4534 18.7299 33.6857C18.9323 33.8357 19.2846 33.9556 19.7194 34.0156C19.8768 34.038 19.9367 34.0156 19.9367 34.0156C19.9517 34.0006 20.0042 33.8956 20.0192 33.6558L20.0642 32.9512C20.1316 31.9167 20.1991 30.8523 20.3715 29.7954C20.5814 28.5511 21.1885 27.3593 22.2829 26.0475L23.07 25.103L23.5497 26.2349C23.6022 26.3623 23.6547 26.4972 23.6996 26.6247C23.7896 26.8496 23.8645 27.0519 23.9545 27.2094L24.022 27.3218C24.5692 28.2288 25.1313 29.1583 25.7385 30.0353C26.9378 31.7593 27.5825 33.5133 27.7099 35.3948C27.8373 37.3587 27.0728 39.3226 25.671 40.6419C24.5766 41.6688 23.1974 42.2085 21.7207 42.2085L21.7357 42.201ZM17.2382 34.3529C17.0284 35.4623 17.0733 36.4367 17.3732 37.3512C18.0028 39.3001 19.2621 40.4095 21.1136 40.6569C22.4328 40.8293 23.6921 40.432 24.6516 39.5325C25.7385 38.5206 26.3232 37.0064 26.2182 35.4772C26.1133 33.8731 25.5586 32.3665 24.5167 30.8748C23.8795 29.9678 23.3024 29.0083 22.7477 28.0864L22.6952 27.9964C22.238 28.701 21.9681 29.3607 21.8557 30.0353C21.6908 31.0097 21.6308 32.0367 21.5633 33.0336L21.5184 33.7457C21.4734 34.3829 21.2635 34.8551 20.8812 35.1699C20.6338 35.3723 20.1991 35.5897 19.517 35.4922C18.8124 35.3948 18.2502 35.1849 17.8304 34.8701C17.613 34.7052 17.4181 34.5253 17.2382 34.3454V34.3529Z" fill="#BDBDBD"/>
</svg>
