<svg width="30" height="31" viewBox="0 0 30 31" fill="none" xmlns="http://www.w3.org/2000/svg">
<path d="M27.4994 4.20947H2.50032C2.22435 4.20947 2.00053 4.43329 2.00053 4.70926C2.00053 4.98523 2.22435 5.20906 2.50032 5.20906H27.5C27.776 5.20906 27.9998 4.98523 27.9998 4.70926C27.9998 4.43329 27.776 4.20947 27.5 4.20947H27.4994Z" fill="#828282"/>
<path d="M2.99985 3.2093C3.27588 3.2093 3.49964 2.98554 3.49964 2.70951C3.49964 2.43348 3.27588 2.20972 2.99985 2.20972C2.72382 2.20972 2.50005 2.43348 2.50005 2.70951C2.50005 2.98554 2.72382 3.2093 2.99985 3.2093Z" fill="#828282"/>
<path d="M4.99989 3.2093C5.27592 3.2093 5.49968 2.98554 5.49968 2.70951C5.49968 2.43348 5.27592 2.20972 4.99989 2.20972C4.72386 2.20972 4.5001 2.43348 4.5001 2.70951C4.5001 2.98554 4.72386 3.2093 4.99989 3.2093Z" fill="#828282"/>
<path d="M6.99993 3.2093C7.27596 3.2093 7.49973 2.98554 7.49973 2.70951C7.49973 2.43348 7.27596 2.20972 6.99993 2.20972C6.7239 2.20972 6.50014 2.43348 6.50014 2.70951C6.50014 2.98554 6.7239 3.2093 6.99993 3.2093Z" fill="#828282"/>
<path d="M27.4993 0.209473H2.50015C1.12029 0.21123 0.00175778 1.32917 0 2.70961V27.7093C0.00175778 29.0892 1.1197 30.2077 2.50015 30.2095H27.4999C28.8797 30.2077 29.9982 29.0898 30 27.7093V2.70961C29.9982 1.32976 28.8803 0.21123 27.4999 0.209473H27.4993ZM28.9992 27.7087C28.9992 28.5372 28.3278 29.2087 27.4993 29.2087H2.50015C1.67165 29.2087 1.00018 28.5372 1.00018 27.7087V2.70903C1.00018 1.88053 1.67165 1.20906 2.50015 1.20906H27.4999C28.3284 1.20906 28.9998 1.88053 28.9998 2.70903V27.7087H28.9992Z" fill="#828282"/>
<path d="M24.4993 17.2096C25.3278 17.2096 25.9993 16.5381 25.9993 15.7096V7.70994C25.9993 6.88144 25.3278 6.20996 24.4993 6.20996H5.50005C4.67156 6.20996 4.00008 6.88144 4.00008 7.70994V15.7096C4.00008 16.5381 4.67156 17.2096 5.50005 17.2096H9.26346C7.22854 20.1193 7.69493 24.0913 10.3474 26.4514C12.9999 28.8115 16.9994 28.8109 19.6525 26.4514C22.3056 24.0918 22.7714 20.1193 20.7365 17.2096H24.4999H24.4993ZM24.4993 16.2094H23.0491C23.2513 15.2285 24.0182 14.4616 24.9991 14.2594V15.7096C24.9991 15.9856 24.7753 16.2094 24.4993 16.2094ZM24.9991 7.70935V9.15952C24.0182 8.95737 23.2513 8.19039 23.0491 7.20955H24.4993C24.7753 7.20955 24.9991 7.43338 24.9991 7.70935ZM22.039 7.20955C22.2616 8.74234 23.4657 9.94642 24.9991 10.1697V13.2499C23.4663 13.4725 22.2622 14.6766 22.039 16.21H19.8892C19.5465 15.876 19.1703 15.5778 18.7672 15.3199C19.5705 14.2887 20.0047 13.0172 19.9994 11.71C20.0199 9.96106 19.2324 8.30114 17.8654 7.21014H22.0396L22.039 7.20955ZM19.5763 25.0797L18.868 24.3713C19.4914 23.6126 19.8758 22.6862 19.9736 21.7095H20.9738C20.8712 22.951 20.3826 24.1299 19.5769 25.0797H19.5763ZM9.0244 21.7095H10.0246C10.1218 22.6862 10.5068 23.6126 11.1302 24.3713L10.4218 25.0797C9.6156 24.1299 9.12752 22.951 9.02499 21.7095H9.0244ZM14.9985 7.20955C17.2039 7.20955 18.9986 9.22807 18.9986 11.7095C19.0062 12.8514 18.606 13.9588 17.8701 14.8325C17.4248 14.6303 16.9596 14.4756 16.4815 14.3707C17.0615 14.1323 17.4559 13.585 17.4986 12.9592C17.4986 12.0985 16.6532 11.4019 15.4989 11.2437V9.75892C16.093 9.87435 16.4991 10.1779 16.4991 10.4591C16.4991 10.7403 16.7229 10.9589 16.9989 10.9589C17.2748 10.9589 17.4986 10.7351 17.4986 10.4591C17.4986 9.59837 16.6532 8.90171 15.4989 8.74351V8.70894C15.4989 8.43297 15.2751 8.20914 14.9991 8.20914C14.7231 8.20914 14.4993 8.43297 14.4993 8.70894V8.74351C13.345 8.90171 12.4995 9.59779 12.4995 10.4591C12.4995 11.3204 13.345 12.0165 14.4993 12.1747V13.6588C13.9052 13.5434 13.4991 13.2399 13.4991 12.9587C13.4991 12.6774 13.2753 12.4589 12.9993 12.4589C12.7234 12.4589 12.4995 12.6827 12.4995 12.9587C12.5423 13.5844 12.9366 14.1317 13.5167 14.3702C13.0392 14.4744 12.5734 14.6291 12.128 14.8319C11.3921 13.9582 10.9925 12.8509 10.9996 11.7089C10.9996 9.22749 12.7937 7.20897 14.9991 7.20897L14.9985 7.20955ZM14.9985 25.2092C12.7896 25.2092 10.9984 23.4186 10.9984 21.2091C10.9984 18.9996 12.789 17.209 14.9985 17.209C17.208 17.209 18.9986 18.9996 18.9986 21.2091C18.9963 23.4169 17.2069 25.2063 14.9985 25.2092ZM15.4983 13.6594V12.2596C16.0924 12.3751 16.4985 12.6786 16.4985 12.9598C16.4985 13.2411 16.0924 13.544 15.4983 13.66V13.6594ZM14.4981 11.1593C13.904 11.0439 13.4979 10.7403 13.4979 10.4591C13.4979 10.1779 13.904 9.87493 14.4981 9.75892V11.1587V11.1593ZM18.1602 17.3408C17.4014 16.7174 16.475 16.3324 15.4983 16.2346V15.2344C16.7399 15.3369 17.9188 15.8256 18.8685 16.6312L18.1602 17.3402V17.3408ZM14.4981 15.235V16.2352C13.5214 16.333 12.595 16.7174 11.8363 17.3408L11.1279 16.6324C12.0782 15.8262 13.2565 15.3381 14.4981 15.2356V15.235ZM11.129 18.0474C10.5056 18.8062 10.1213 19.7326 10.0234 20.7093H9.02323C9.12576 19.4677 9.61443 18.2888 10.4201 17.339L11.1285 18.0474H11.129ZM11.8363 25.0785C12.595 25.702 13.5214 26.0863 14.4981 26.1842V27.1844C13.2565 27.0818 12.0777 26.5932 11.1279 25.7875L11.8363 25.0791V25.0785ZM15.4983 26.1842C16.475 26.0863 17.4014 25.702 18.1602 25.0785L18.8685 25.7869C17.9182 26.5932 16.7399 27.0812 15.4983 27.1838V26.1836V26.1842ZM19.9724 20.7099C19.8752 19.7331 19.4902 18.8068 18.8668 18.048L19.5752 17.3396C20.3814 18.29 20.8695 19.4683 20.972 20.7099H19.9718H19.9724ZM9.99821 11.71C9.99294 13.0172 10.4271 14.2887 11.231 15.3199C10.8279 15.5778 10.4517 15.876 10.1089 16.21H7.95919C7.73653 14.6766 6.53187 13.4725 4.9985 13.2499V10.1697C6.53128 9.947 7.73536 8.74292 7.9586 7.20955H12.1327C10.7658 8.30055 9.97829 9.96048 9.99879 11.7095L9.99821 11.71ZM5.4983 7.21014H6.94846C6.74632 8.19098 5.97934 8.95796 4.9985 9.1601V7.70994C4.9985 7.43397 5.22233 7.21014 5.4983 7.21014ZM4.9985 15.7102V14.26C5.97934 14.4621 6.74632 15.2291 6.94846 16.21H5.4983C5.22233 16.21 4.9985 15.9861 4.9985 15.7102Z" fill="#828282"/>
<path d="M15.296 18.3064C15.1149 18.1921 14.884 18.1921 14.703 18.3064C14.4862 18.4664 12.5784 19.9066 12.5028 21.3251C12.4753 21.8003 12.6692 22.2614 13.0272 22.5749C13.2124 22.743 13.4409 22.8555 13.687 22.8989L13.6712 22.9645C13.5956 23.2633 13.6624 23.5797 13.8516 23.8229C14.0409 24.066 14.3315 24.2084 14.6391 24.209H15.3592C15.6668 24.209 15.9569 24.0672 16.1467 23.8252C16.3366 23.5832 16.4039 23.2668 16.3295 22.9686L16.3125 22.9006C16.5586 22.8573 16.7871 22.7454 16.9723 22.5778C17.332 22.2643 17.5266 21.802 17.499 21.3251C17.4199 19.9095 15.5127 18.4664 15.296 18.3064ZM16.2961 21.8419C16.135 21.9403 15.9393 21.9649 15.7588 21.911C15.5924 21.8823 15.4225 21.9397 15.3077 22.0639C15.1928 22.1882 15.1483 22.361 15.1893 22.5251L15.3598 23.2094H14.6403L14.8102 22.5245C14.8518 22.3604 14.8073 22.1864 14.6925 22.0628C14.5776 21.9391 14.4077 21.8811 14.2407 21.9098C14.0597 21.9643 13.864 21.9385 13.7028 21.8395C13.5657 21.727 13.4913 21.5554 13.503 21.3784C13.5358 20.7608 14.3473 19.8919 15.003 19.3447C15.6581 19.8913 16.4696 20.7608 16.503 21.3784C16.5135 21.5571 16.4368 21.7305 16.2967 21.8419H16.2961Z" fill="#828282"/>
<path d="M7.5001 10.2095C6.6716 10.2095 6.00013 10.8809 6.00013 11.7094C6.00013 12.5379 6.6716 13.2094 7.5001 13.2094C8.3286 13.2094 9.00007 12.5379 9.00007 11.7094C9.00007 10.8809 8.3286 10.2095 7.5001 10.2095ZM7.5001 12.2092C7.22413 12.2092 7.0003 11.9854 7.0003 11.7094C7.0003 11.4335 7.22413 11.2097 7.5001 11.2097C7.77607 11.2097 7.99989 11.4335 7.99989 11.7094C7.99989 11.9854 7.77607 12.2092 7.5001 12.2092Z" fill="#828282"/>
<path d="M22.4999 13.2094C23.3284 13.2094 23.9999 12.5379 23.9999 11.7094C23.9999 10.8809 23.3284 10.2095 22.4999 10.2095C21.6714 10.2095 21 10.8809 21 11.7094C21 12.5379 21.6714 13.2094 22.4999 13.2094ZM22.4999 11.2097C22.7759 11.2097 22.9997 11.4335 22.9997 11.7094C22.9997 11.9854 22.7759 12.2092 22.4999 12.2092C22.224 12.2092 22.0001 11.9854 22.0001 11.7094C22.0001 11.4335 22.224 11.2097 22.4999 11.2097Z" fill="#828282"/>
<path d="M6.98533 19.3294C7.02751 19.197 7.00876 19.0522 6.93494 18.9345C6.86052 18.8167 6.73806 18.7376 6.60037 18.7183L4.10023 18.2185C4.06741 18.2114 4.03402 18.2085 4.00003 18.2085C3.7434 18.2097 3.53012 18.4048 3.50493 18.6597C3.47973 18.9145 3.65199 19.1477 3.90277 19.1987L4.80275 19.3792C3.37368 20.1965 2.94595 21.2582 2.87388 22.0967C2.72623 23.8117 3.9766 25.5062 5.27618 26.156C5.43614 26.2357 5.62656 26.2245 5.77539 26.1255C5.92421 26.0271 6.00976 25.8566 5.99863 25.6779C5.98749 25.4992 5.88261 25.3404 5.72266 25.2607C4.74182 24.7703 3.76273 23.4162 3.86937 22.1823C3.94906 21.267 4.60647 20.5235 5.78593 20.0003L5.51465 21.0872C5.46661 21.2618 5.517 21.4493 5.64648 21.5764C5.77597 21.7035 5.96406 21.7504 6.13808 21.6989C6.3121 21.6473 6.44452 21.5061 6.48436 21.3291L6.98415 19.3294H6.98533Z" fill="#828282"/>
<path d="M23.0658 18.9345C23.1396 18.8167 23.262 18.7376 23.3997 18.7183L25.8999 18.2185C25.9327 18.2114 25.9661 18.2085 26.0001 18.2085C26.2567 18.2085 26.4723 18.4024 26.4981 18.6585C26.5239 18.9145 26.3516 19.1477 26.1003 19.1987L25.2003 19.3792C26.6294 20.1965 27.0571 21.2582 27.1292 22.0967C27.2768 23.8117 26.0235 25.5062 24.7269 26.156C24.4796 26.2802 24.1784 26.1806 24.0542 25.9333C23.93 25.6861 24.0296 25.3849 24.2769 25.2607C25.2583 24.7703 26.2368 23.4162 26.1307 22.1823C26.0516 21.267 25.3936 20.5235 24.2142 20.0003L24.4855 21.0872C24.5452 21.352 24.3823 21.6162 24.1187 21.6819C23.855 21.7475 23.5872 21.591 23.5152 21.3291L23.0154 19.3294C22.9732 19.197 22.9919 19.0522 23.0658 18.9345Z" fill="#828282"/>
</svg>
