<svg width="37" height="40" viewBox="0 0 37 40" fill="none" xmlns="http://www.w3.org/2000/svg">
<path d="M31.8526 0V1.56832C33.7816 1.56832 34.3384 2.79945 34.4638 3.18369C34.5579 3.48167 34.6128 3.83454 34.6207 4.17173C34.6363 8.14742 34.6285 12.1153 34.6285 16.091V19.4001V23.862C34.6285 27.4534 34.6285 31.0449 34.6285 34.6363C34.6285 36.0557 33.5307 37.1613 32.1349 37.1613C32.08 37.1613 32.0251 37.1613 31.9702 37.1613C31.735 37.1457 31.4291 37.0437 31.1233 36.9418C30.1117 36.5889 29.1002 36.1968 28.1278 35.8204C27.5005 35.5773 26.8653 35.4597 26.238 35.4597C25.446 35.4597 24.654 35.6558 23.8777 36.04C22.3564 36.7849 20.7567 37.5221 19.1257 38.2278C18.7806 38.3768 18.4513 38.4474 18.1063 38.4474C17.722 38.4474 17.3221 38.3533 16.9143 38.1729C15.4636 37.5142 14.0051 36.8477 12.5622 36.1811C11.6918 35.7812 10.79 35.5773 9.86473 35.5773C9.21388 35.5773 8.54734 35.6793 7.88081 35.8753C7.47305 35.9929 7.07312 36.1262 6.66536 36.2596C5.83415 36.5262 5.04215 36.7849 4.25799 36.9575C4.14037 36.981 4.0149 36.9967 3.88943 36.9967C2.71319 36.9967 1.55264 35.8753 1.55264 34.7304C1.55264 24.4972 1.55264 14.256 1.55264 4.02273C1.55264 2.75239 2.525 1.71731 3.81886 1.61537C3.99922 1.59968 4.17957 1.59184 4.35993 1.59184H5.55185H12.3427H19.1335C23.3758 1.59184 27.626 1.59184 31.8683 1.57616L31.8839 0.00783729M12.5936 13.2523H15.2127H17.8318H19.8471H20.7097H21.0861H22.772H24.458C25.7126 13.2523 26.9673 13.2523 28.2141 13.2523C29.7902 13.2523 31.0527 12.1545 31.2958 10.6018C31.5389 9.01783 30.6763 7.58282 29.2021 7.11233C28.6767 6.94765 28.1513 6.92412 27.7593 6.92412C24.2776 6.92412 20.7881 6.92412 17.3064 6.92412H8.43756C8.16311 6.92412 7.78671 6.92413 7.37895 7.02607C6.13213 7.33189 5.25387 8.218 4.97157 9.45697C4.76769 10.3431 4.97942 11.2762 5.56754 12.0055C6.18702 12.7818 7.15154 13.2523 8.16311 13.2523C9.64517 13.2523 11.1272 13.2523 12.6093 13.2523M23.3523 14.9931H20.7097H18.067C18.0357 14.9931 18.0122 14.9931 17.9808 14.9931H15.3303H12.5858C11.0488 14.9931 9.50402 14.9931 7.96707 14.9931C6.26544 14.9931 5.06567 16.1145 4.90884 17.8396C4.75201 19.5099 5.82631 20.9449 7.45736 21.2429C7.73966 21.2978 8.04548 21.3213 8.39835 21.3213H18.0514C21.3292 21.3213 24.6069 21.3213 27.8847 21.3213H27.9788C28.0337 21.3213 28.0965 21.3213 28.1513 21.3213C28.418 21.3213 28.8257 21.2978 29.257 21.0782C29.6961 20.8586 30.2921 20.5607 30.7391 19.9961C31.4997 19.0394 31.586 17.7691 30.9586 16.6869C30.3313 15.5891 29.3197 14.9853 28.1121 14.9853C26.5281 14.9853 24.9363 14.9853 23.3523 14.9853M13.0249 29.3746C14.6795 29.3746 16.3341 29.3746 17.9886 29.3746C18.9296 29.3746 19.7844 29.0374 20.396 28.4258C20.9763 27.8377 21.2978 27.0378 21.2978 26.1753C21.2978 24.2933 19.9647 23.0308 17.9808 23.0308H16.0831H14.3815H13.1268H11.6448H10.1627C9.4805 23.0308 8.79828 23.0308 8.11606 23.0308C7.19859 23.0308 6.36738 23.3836 5.76358 23.9953C5.17546 24.5991 4.86963 25.4068 4.88532 26.285C4.92453 28.1278 6.22623 29.3746 8.1239 29.3746C9.75495 29.3746 11.386 29.3746 13.0171 29.3746M31.8918 0H31.8761C27.6338 0.0156832 23.3915 0.0156746 19.1492 0.0156746C14.6167 0.0156746 10.0921 0.0156746 5.56754 0.0156746C5.16761 0.0156746 4.77553 0.0156746 4.37561 0.0156746C4.15605 0.0156746 3.93648 0.0235229 3.71692 0.0470477C1.62321 0.211721 0.0078416 1.92903 0 4.0149C0 14.2482 0 24.4893 0 34.7226C0 36.7693 1.89767 38.5571 3.90512 38.5571C4.14037 38.5571 4.37561 38.5336 4.61086 38.4787C5.87336 38.2043 7.10449 37.7495 8.3513 37.3731C8.86885 37.2162 9.37855 37.1378 9.88826 37.1378C10.5783 37.1378 11.2605 37.2868 11.9349 37.5926C13.3856 38.2592 14.8441 38.9257 16.3027 39.5844C16.9065 39.8589 17.526 40 18.1376 40C18.6865 40 19.2354 39.8902 19.7765 39.655C21.4076 38.9571 23.0151 38.22 24.6069 37.4358C25.1715 37.1613 25.7205 37.0202 26.2772 37.0202C26.7163 37.0202 27.1555 37.1064 27.6024 37.279C28.614 37.6632 29.6256 38.0553 30.645 38.416C31.0527 38.5571 31.4919 38.6983 31.9153 38.7218C32.0016 38.7218 32.0878 38.7297 32.1741 38.7297C34.4325 38.7297 36.236 36.9261 36.236 34.6363C36.236 29.555 36.236 24.4815 36.236 19.4001C36.236 14.3188 36.236 9.24525 36.2282 4.16389C36.2282 3.66987 36.1498 3.15232 35.9929 2.68966C35.5695 1.3958 34.2599 0 31.8918 0ZM12.6015 11.6761C11.1194 11.6761 9.63733 11.6761 8.16311 11.6761C7.10449 11.6761 6.28112 10.7508 6.50069 9.802C6.65752 9.13546 7.09665 8.70418 7.76318 8.5395C7.99059 8.48461 8.23368 8.48461 8.46893 8.48461C11.4174 8.48461 14.3658 8.48461 17.3143 8.48461C20.7959 8.48461 24.2854 8.48461 27.7671 8.48461C28.0965 8.48461 28.4336 8.5003 28.7395 8.60224C29.4923 8.83749 29.8765 9.54323 29.751 10.3509C29.6334 11.1272 29.0296 11.6605 28.2141 11.6683C26.9594 11.6683 25.7126 11.6683 24.458 11.6683C23.3366 11.6683 22.2074 11.6683 21.0861 11.6683H20.7097C20.4195 11.6683 20.1294 11.6683 19.8471 11.6683C19.2668 11.6683 18.6944 11.6683 18.1141 11.6683H17.8318C16.091 11.6683 14.3423 11.6683 12.6015 11.6683V11.6761ZM23.3444 16.5536C24.9284 16.5536 26.5203 16.5536 28.1043 16.5536C28.7944 16.5536 29.257 16.9065 29.5864 17.4711C29.8922 17.9965 29.8608 18.5689 29.4923 19.0237C29.257 19.3217 28.8649 19.5099 28.5199 19.6903C28.4101 19.7452 28.2768 19.753 28.1357 19.753C28.0494 19.753 27.9553 19.753 27.869 19.753C24.5913 19.753 21.3135 19.753 18.0357 19.753C14.7579 19.753 11.5977 19.753 8.38267 19.753C8.16311 19.753 7.94354 19.7373 7.72398 19.6981C6.89277 19.5491 6.37522 18.8355 6.45364 17.9808C6.53989 17.079 7.05744 16.5615 7.95138 16.5615C9.48834 16.5615 11.0253 16.5615 12.5622 16.5615C14.3893 16.5615 16.2164 16.5615 18.0435 16.5615C19.8079 16.5615 21.5722 16.5615 23.3366 16.5615L23.3444 16.5536ZM13.0171 27.7985C11.386 27.7985 9.75495 27.7985 8.1239 27.7985C7.06528 27.7985 6.47716 27.2339 6.45364 26.238C6.43011 25.2892 7.12017 24.5913 8.1239 24.5834C8.80612 24.5834 9.4805 24.5834 10.1627 24.5834C11.1508 24.5834 12.1388 24.5834 13.1268 24.5834C14.1149 24.5834 15.1029 24.5834 16.0831 24.5834C16.7183 24.5834 17.3456 24.5834 17.9808 24.5834C19.1021 24.5834 19.7295 25.1559 19.7295 26.1674C19.7295 27.1241 19.0237 27.7985 17.9808 27.7985C16.3262 27.7985 14.6716 27.7985 13.0249 27.7985H13.0171Z" fill="#BDBDBD"/>
</svg>
