<svg width="44" height="44" viewBox="0 0 44 44" fill="none" xmlns="http://www.w3.org/2000/svg">
<path d="M40.9901 44H21.4027C21.3639 43.8914 21.2631 43.9224 21.1855 43.8991C19.6728 43.4102 18.7264 42.4092 18.5557 40.8106C18.4161 39.4991 18.5247 38.1799 18.5092 36.8607C18.5014 36.1623 18.5092 36.1623 17.8265 36.1623C13.1488 36.1623 8.46336 36.1623 3.78565 36.1623C1.27225 36.1623 -0.00772235 34.1524 3.505e-05 32.3908C0.038822 22.7993 0.01555 13.2078 0.0233074 3.60847C0.0233074 1.55979 1.58254 0.00776014 3.6305 0C10.6432 0 17.6559 0 24.6686 0C26.7243 0 28.2758 1.55203 28.2758 3.6007C28.2758 5.80458 28.2835 8.00847 28.268 10.2123C28.268 10.5616 28.3378 10.6547 28.7024 10.6547C32.6121 10.6392 36.5141 10.6392 40.4238 10.6469C42.0374 10.6469 43.4104 11.6868 43.8759 13.231C43.9069 13.3397 43.8371 13.5026 44 13.5647V41.1443C43.8526 41.2451 43.8759 41.4159 43.8216 41.5555C43.3949 42.6963 42.6114 43.4646 41.4478 43.8448C41.2927 43.8991 41.0987 43.806 40.9901 43.9767V44ZM18.4937 30.9164C18.5325 30.2878 18.5402 29.6515 18.4937 29.0229C18.4937 28.8522 18.5092 28.6815 18.5092 28.5108C18.5092 23.8469 18.5092 19.1831 18.5092 14.5192C18.5092 14.0303 18.5557 13.5492 18.7109 13.0836C19.122 11.8885 19.9909 11.1668 21.1467 10.7478C21.7673 10.6081 22.4034 10.6857 23.0318 10.6392C24.0169 10.6392 25.0099 10.6392 25.9951 10.6624C26.3209 10.6702 26.3907 10.5848 26.3907 10.2667C26.3752 8.13263 26.3829 5.99859 26.3829 3.86455C26.3829 2.54533 25.7313 1.88571 24.4126 1.88571C17.5705 1.88571 10.7285 1.88571 3.89425 1.88571C2.55222 1.88571 1.90836 2.53757 1.90836 3.89559C1.90836 13.3474 1.91611 22.7915 1.89284 32.2434C1.89284 33.2988 2.49792 34.2455 3.86322 34.2377C8.60299 34.1989 13.335 34.2222 18.0748 34.2222C18.1291 34.2222 18.1911 34.2222 18.2454 34.2222C18.4549 34.2533 18.5169 34.1601 18.5092 33.9584C18.4937 32.9418 18.4937 31.9252 18.4937 30.9086V30.9164ZM20.4485 27.3312C20.4485 31.6148 20.4718 35.8907 20.433 40.1742C20.4175 41.4624 21.3174 42.122 22.4034 42.122C28.3145 42.0988 34.2257 42.1065 40.1368 42.1065C41.4556 42.1065 42.1072 41.4469 42.1072 40.1277C42.1072 31.5915 42.1072 23.0631 42.1072 14.527C42.1072 13.2078 41.4478 12.5481 40.1291 12.5481C34.2179 12.5481 28.3068 12.5637 22.3956 12.5326C21.3174 12.5326 20.4175 13.1845 20.4253 14.4804C20.4641 18.764 20.4408 23.0399 20.4408 27.3235L20.4485 27.3312Z" fill="#BDBDBD"/>
<path d="M18.4937 30.9164C14.5607 30.9164 10.6277 30.9164 6.68691 30.9164C6.4697 30.9164 6.26025 30.9009 6.0508 30.8698C5.59311 30.7922 5.29833 30.4585 5.2673 29.9852C5.2673 29.8688 5.2673 29.7524 5.2673 29.6437C5.2673 21.9302 5.2673 14.2166 5.2673 6.49523C5.2673 5.54074 5.56984 5.24585 6.53176 5.24585C11.6284 5.24585 16.7172 5.24585 21.8138 5.24585C22.7447 5.24585 23.0473 5.54849 23.0473 6.47971C23.0473 7.86877 23.0473 9.25784 23.0473 10.6469C22.4189 10.6857 21.7828 10.6081 21.1622 10.7555C21.1622 9.68465 21.1545 8.60599 21.1622 7.53509C21.1622 7.25572 21.1157 7.13156 20.7976 7.13156C16.3759 7.13932 11.9542 7.13932 7.53246 7.13156C7.22217 7.13156 7.15235 7.22469 7.15235 7.51957C7.15235 14.5503 7.16011 21.5809 7.15235 28.6116C7.15235 28.9686 7.27647 29.0307 7.59452 29.0307C11.2327 29.0229 14.8632 29.0229 18.5014 29.0229C18.5557 29.6515 18.548 30.2878 18.5014 30.9164H18.4937Z" fill="#BDBDBD"/>
<path d="M25.6848 18.182C25.6848 18.5855 25.6925 18.9813 25.6848 19.3848C25.6693 19.9979 25.2504 20.4402 24.7229 20.4402C24.1954 20.4402 23.7687 19.9979 23.7532 19.3926C23.7377 18.5778 23.7377 17.7629 23.7532 16.9404C23.7687 16.304 24.1566 15.9083 24.7151 15.9005C25.2736 15.9005 25.6615 16.304 25.6848 16.9326C25.7003 17.3439 25.6848 17.7629 25.6848 18.182Z" fill="#BDBDBD"/>
<path d="M39.5317 36.5037C39.5317 36.946 39.5395 37.3884 39.5317 37.8307C39.5162 38.3584 39.1206 38.7464 38.6086 38.7541C38.0656 38.7541 37.6544 38.3739 37.6467 37.8229C37.6389 36.9383 37.6389 36.0459 37.6467 35.1612C37.6467 34.6335 38.0578 34.2377 38.5698 34.2222C39.0896 34.2067 39.5162 34.6257 39.5317 35.169C39.5395 35.6113 39.5317 36.0536 39.5317 36.4959V36.5037Z" fill="#BDBDBD"/>
<path d="M37.476 28.0839C37.476 29.2402 37.1968 30.2102 36.5451 31.0638C35.3195 32.6779 33.0776 32.8409 31.6735 31.382C31.3554 31.0561 31.2236 31.0716 30.921 31.3897C29.4782 32.8875 27.1277 32.6779 25.9563 30.9164C24.7849 29.1626 24.8392 27.3389 25.8477 25.5231C26.5769 24.2194 27.6629 23.2106 28.7024 22.1629C29.3075 21.5499 29.9281 20.9601 30.5487 20.3626C31.0451 19.8892 31.5416 19.8504 32.0226 20.3315C33.4112 21.7128 34.8928 23.0088 36.103 24.5608C36.933 25.6162 37.5071 26.7802 37.476 28.0762V28.0839ZM35.591 28.0839C35.6143 27.2381 35.1954 26.4698 34.6446 25.7559C33.7214 24.5608 32.5966 23.5598 31.5416 22.4966C31.3554 22.3104 31.2236 22.3414 31.0529 22.5199C30.3315 23.2571 29.5945 23.9711 28.8731 24.7083C28.3223 25.267 27.8026 25.8645 27.438 26.5707C26.8639 27.6649 26.8174 28.7668 27.5078 29.8222C28.0896 30.7068 29.1291 30.7068 29.7652 29.8688C30.0367 29.5118 30.2151 29.1083 30.3547 28.6815C30.5332 28.1382 30.8745 27.8511 31.3244 27.8589C31.7511 27.8589 32.0769 28.146 32.2553 28.6737C32.4182 29.1548 32.6044 29.6127 32.9535 29.9929C33.5818 30.6758 34.4274 30.6603 35.0247 29.9386C35.4436 29.4342 35.591 28.8289 35.5987 28.0839H35.591Z" fill="#BDBDBD"/>
<path d="M30.89 32.7944L29.2765 34.1912C28.9429 34.4783 29.1446 35.0215 29.5868 35.0215H32.8061C33.2405 35.0215 33.4499 34.4783 33.1164 34.1912L31.5028 32.7944C31.3244 32.6392 31.0607 32.6392 30.8822 32.7944H30.89Z" fill="#BDBDBD"/>
</svg>
