<svg width="44" height="44" viewBox="0 0 44 44" fill="none" xmlns="http://www.w3.org/2000/svg">
<path d="M37.9862 23.2021C37.4164 20.0607 36.0969 17.0168 33.9376 13.9128C33.3828 13.1106 32.813 12.3234 32.2432 11.5286C31.4185 10.374 30.5638 9.18945 29.769 7.99735C28.457 6.02553 27.7822 3.92625 27.7597 1.7595C27.7522 0.822317 27.2574 0.379969 26.8451 0.177539C26.4327 -0.0323893 25.7804 -0.159846 25.0232 0.409959C23.4487 1.57956 22.0242 2.98158 20.6672 4.69099C17.6757 8.4472 16.0413 12.8707 15.7938 17.834L15.6439 20.8255C15.1341 20.5406 14.6767 20.1207 14.2644 19.5359C13.5521 18.5312 13.0573 17.3017 12.7199 15.6672C12.5774 15 12.2176 14.5126 11.7002 14.2952C11.1829 14.0778 10.5756 14.1677 10.0058 14.5426C9.96085 14.5726 9.92336 14.6026 9.84089 14.6626C8.21394 15.8247 7.02935 17.4741 6.22713 19.7008C5.09501 22.8423 4.74264 26.1861 5.18498 29.6349C5.58235 32.7314 6.81942 35.5429 8.86622 37.9796C11.5353 41.1585 14.9391 43.1078 18.9877 43.7751L20.3223 44H23.0514L23.2388 43.9325C25.9304 43.6701 28.427 42.8154 30.6612 41.3759C33.5852 39.494 35.752 36.9074 37.109 33.691C38.4136 30.6021 38.6985 27.1758 37.9787 23.2171L37.9862 23.2021ZM20.9221 42.1406C18.4854 41.8182 16.7685 40.3188 15.9513 37.8071C15.449 36.2477 15.5089 34.5457 16.1537 32.5814L16.5436 31.3893L17.4058 32.304C17.5557 32.4615 17.7057 32.6264 17.8481 32.7913C18.148 33.1287 18.4254 33.4436 18.7328 33.676C18.9353 33.826 19.2876 33.9459 19.7225 34.0059C19.8799 34.0284 19.9399 34.0059 19.9399 34.0059C19.9549 33.9909 20.0074 33.886 20.0224 33.6461L20.0674 32.9338C20.1349 31.8992 20.1948 30.8345 20.3748 29.7849C20.5847 28.5403 21.192 27.3482 22.2866 26.0362L23.0738 25.0915L23.5537 26.2236C23.6062 26.3511 23.6586 26.4785 23.7036 26.606C23.7936 26.8309 23.8686 27.0333 23.9585 27.1908L24.0185 27.2957C24.5658 28.2029 25.1356 29.1401 25.7429 30.0173C26.9425 31.7417 27.5873 33.4961 27.7148 35.378C27.8422 37.3423 27.0775 39.3066 25.6755 40.6262C24.5808 41.6533 23.2013 42.1931 21.7243 42.1931C21.4544 42.1931 21.1845 42.1781 20.9071 42.1406H20.9221Z" fill="white"/>
</svg>
