<svg width="30" height="30" viewBox="0 0 30 30" fill="none" xmlns="http://www.w3.org/2000/svg">
<path d="M24.8894 0V1.17624C26.3362 1.17624 26.7538 2.09959 26.8479 2.38777C26.9184 2.61125 26.9596 2.8759 26.9655 3.12879C26.9773 6.11056 26.9714 9.08645 26.9714 12.0682V14.5501V17.8965C26.9714 20.5901 26.9714 23.2837 26.9714 25.9773C26.9714 27.0418 26.148 27.871 25.1012 27.871C25.06 27.871 25.0188 27.871 24.9776 27.871C24.8012 27.8592 24.5719 27.7828 24.3425 27.7063C23.5838 27.4417 22.8251 27.1476 22.0959 26.8653C21.6254 26.683 21.149 26.5948 20.6785 26.5948C20.0845 26.5948 19.4905 26.7418 18.9083 27.03C17.7673 27.5887 16.5675 28.1415 15.3442 28.6709C15.0855 28.7826 14.8385 28.8355 14.5797 28.8355C14.2915 28.8355 13.9916 28.7649 13.6857 28.6297C12.5977 28.1357 11.5038 27.6358 10.4217 27.1359C9.76887 26.8359 9.09253 26.683 8.39855 26.683C7.91041 26.683 7.41051 26.7595 6.91061 26.9065C6.60478 26.9947 6.30484 27.0947 5.99902 27.1947C5.37561 27.3946 4.78161 27.5887 4.19349 27.7181C4.10527 27.7357 4.01117 27.7475 3.91708 27.7475C3.0349 27.7475 2.16448 26.9065 2.16448 26.0478C2.16448 18.3729 2.16448 10.692 2.16448 3.01705C2.16448 2.0643 2.89375 1.28798 3.86414 1.21153C3.99941 1.19976 4.13468 1.19388 4.26995 1.19388H5.16389H10.257H15.3501C18.5319 1.19388 21.7195 1.19388 24.9012 1.18212L24.913 0.00587797M10.4452 9.93923H12.4095H14.3738H15.8853H16.5322H16.8145H18.079H19.3435C20.2845 9.93923 21.2254 9.93923 22.1606 9.93923C23.3427 9.93923 24.2896 9.11585 24.4719 7.95138C24.6542 6.76337 24.0073 5.68712 22.9016 5.33424C22.5075 5.21074 22.1135 5.19309 21.8194 5.19309C19.2082 5.19309 16.5911 5.19309 13.9798 5.19309H7.32817C7.12233 5.19309 6.84003 5.19309 6.53421 5.26955C5.5991 5.49892 4.9404 6.1635 4.72868 7.09273C4.57577 7.7573 4.73456 8.45716 5.17565 9.00412C5.64027 9.58636 6.36365 9.93923 7.12233 9.93923C8.23388 9.93923 9.34542 9.93923 10.457 9.93923M18.5142 11.2449H16.5322H14.5503C14.5268 11.2449 14.5091 11.2449 14.4856 11.2449H12.4977H10.4393C9.28661 11.2449 8.12801 11.2449 6.9753 11.2449C5.69908 11.2449 4.79926 12.0859 4.68163 13.3797C4.56401 14.6324 5.36973 15.7087 6.59302 15.9322C6.80474 15.9733 7.03411 15.991 7.29877 15.991H14.5385C16.9969 15.991 19.4552 15.991 21.9135 15.991H21.9841C22.0253 15.991 22.0723 15.991 22.1135 15.991C22.3135 15.991 22.6193 15.9733 22.9428 15.8087C23.2721 15.644 23.7191 15.4205 24.0543 14.9971C24.6248 14.2796 24.6895 13.3268 24.219 12.5152C23.7485 11.6918 22.9898 11.239 22.0841 11.239C20.8961 11.239 19.7022 11.239 18.5142 11.239M10.7687 22.031C12.0096 22.031 13.2505 22.031 14.4915 22.031C15.1972 22.031 15.8383 21.7781 16.297 21.3194C16.7322 20.8783 16.9733 20.2784 16.9733 19.6314C16.9733 18.22 15.9735 17.2731 14.4856 17.2731H13.0623H11.7861H10.8451H9.73358H8.62204C8.11037 17.2731 7.59871 17.2731 7.08704 17.2731C6.39894 17.2731 5.77553 17.5377 5.32268 17.9965C4.88159 18.4493 4.65223 19.0551 4.66399 19.7138C4.69339 21.0959 5.66967 22.031 7.09292 22.031C8.31621 22.031 9.5395 22.031 10.7628 22.031M24.9188 0H24.9071C21.7253 0.0117624 18.5436 0.0117559 15.3619 0.0117559C11.9626 0.0117559 8.5691 0.0117559 5.17565 0.0117559C4.87571 0.0117559 4.58165 0.0117559 4.28171 0.0117559C4.11704 0.0117559 3.95236 0.0176422 3.78769 0.0352858C2.21741 0.158791 1.00588 1.44677 1 3.01117C1 10.6861 1 18.367 1 26.042C1 27.5769 2.42325 28.9179 3.92884 28.9179C4.10527 28.9179 4.28171 28.9002 4.45815 28.859C5.40502 28.6532 6.32837 28.3121 7.26348 28.0298C7.65164 27.9122 8.03392 27.8534 8.41619 27.8534C8.93374 27.8534 9.4454 27.9651 9.95119 28.1945C11.0392 28.6944 12.1331 29.1943 13.227 29.6883C13.6799 29.8941 14.1445 30 14.6032 30C15.0149 30 15.4266 29.9177 15.8324 29.7412C17.0557 29.2178 18.2613 28.665 19.4552 28.0768C19.8787 27.871 20.2903 27.7651 20.7079 27.7651C21.0372 27.7651 21.3666 27.8298 21.7018 27.9592C22.4605 28.2474 23.2192 28.5415 23.9837 28.812C24.2896 28.9179 24.6189 29.0237 24.9365 29.0414C25.0012 29.0414 25.0659 29.0472 25.1306 29.0472C26.8243 29.0472 28.177 27.6946 28.177 25.9773C28.177 22.1662 28.177 18.3611 28.177 14.5501C28.177 10.7391 28.177 6.93393 28.1711 3.12292C28.1711 2.7524 28.1123 2.36424 27.9947 2.01725C27.6771 1.04685 26.695 0 24.9188 0ZM10.4511 8.75711C9.33954 8.75711 8.22799 8.75711 7.12233 8.75711C6.32837 8.75711 5.71084 8.06313 5.87551 7.3515C5.99314 6.8516 6.32249 6.52813 6.82239 6.40463C6.99294 6.36346 7.17526 6.36345 7.3517 6.36345C9.56303 6.36345 11.7744 6.36345 13.9857 6.36345C16.5969 6.36345 19.2141 6.36345 21.8253 6.36345C22.0723 6.36345 22.3252 6.37522 22.5546 6.45168C23.1192 6.62811 23.4074 7.15742 23.3133 7.76318C23.2251 8.34542 22.7722 8.74534 22.1606 8.75122C21.2196 8.75122 20.2845 8.75122 19.3435 8.75122C18.5025 8.75122 17.6556 8.75122 16.8145 8.75122H16.5322C16.3146 8.75122 16.097 8.75122 15.8853 8.75122C15.4501 8.75122 15.0208 8.75122 14.5856 8.75122H14.3738C13.0682 8.75122 11.7567 8.75122 10.4511 8.75122V8.75711ZM18.5083 12.4152C19.6963 12.4152 20.8902 12.4152 22.0782 12.4152C22.5958 12.4152 22.9428 12.6799 23.1898 13.1033C23.4191 13.4974 23.3956 13.9267 23.1192 14.2678C22.9428 14.4913 22.6487 14.6324 22.3899 14.7677C22.3076 14.8089 22.2076 14.8147 22.1017 14.8147C22.0371 14.8147 21.9665 14.8147 21.9018 14.8147C19.4434 14.8147 16.9851 14.8147 14.5268 14.8147C12.0684 14.8147 9.69829 14.8147 7.287 14.8147C7.12233 14.8147 6.95766 14.803 6.79298 14.7736C6.16957 14.6618 5.78142 14.1266 5.84023 13.4856C5.90492 12.8093 6.29308 12.4211 6.96354 12.4211C8.11625 12.4211 9.26897 12.4211 10.4217 12.4211C11.792 12.4211 13.1623 12.4211 14.5326 12.4211C15.8559 12.4211 17.1792 12.4211 18.5025 12.4211L18.5083 12.4152ZM10.7628 20.8489C9.5395 20.8489 8.31621 20.8489 7.09292 20.8489C6.29896 20.8489 5.85787 20.4254 5.84023 19.6785C5.82258 18.9669 6.34013 18.4434 7.09292 18.4376C7.60459 18.4376 8.11037 18.4376 8.62204 18.4376C9.36307 18.4376 10.1041 18.4376 10.8451 18.4376C11.5862 18.4376 12.3272 18.4376 13.0623 18.4376C13.5387 18.4376 14.0092 18.4376 14.4856 18.4376C15.3266 18.4376 15.7971 18.8669 15.7971 19.6256C15.7971 20.3431 15.2678 20.8489 14.4856 20.8489C13.2447 20.8489 12.0037 20.8489 10.7687 20.8489H10.7628Z" fill="#828282"/>
</svg>
