<svg width="30" height="30" viewBox="0 0 30 30" fill="none" xmlns="http://www.w3.org/2000/svg">
<g clip-path="url(#clip0_1674_13323)">
<g clip-path="url(#clip1_1674_13323)">
<g clip-path="url(#clip2_1674_13323)">
<path d="M26.1859 17.5646C25.8422 13.0904 23.7591 10.2867 21.9214 7.81248C20.2197 5.52193 18.75 3.54392 18.75 0.626071C18.75 0.391696 18.6188 0.177477 18.4106 0.0700744C18.2019 -0.0379725 17.951 -0.0202772 17.7612 0.117653C15.0012 2.09261 12.6984 5.42127 11.8939 8.59728C11.3355 10.8084 11.2616 13.2942 11.2512 14.936C8.7024 14.3916 8.12502 10.579 8.11893 10.5374C8.09022 10.3397 7.96939 10.1676 7.79361 10.0736C7.61602 9.98086 7.40725 9.97412 7.22719 10.0632C7.09354 10.1279 3.94652 11.727 3.76342 18.1114C3.75059 18.3238 3.75 18.5368 3.75 18.7498C3.75 24.9524 8.79697 29.9991 15 29.9991C15.0086 29.9996 15.0177 30.0009 15.025 29.9991C15.0275 29.9991 15.0299 29.9991 15.0329 29.9991C21.2207 29.9813 26.25 24.9414 26.25 18.7498C26.25 18.4379 26.1859 17.5646 26.1859 17.5646ZM15 28.7491C12.9321 28.7491 11.25 26.9573 11.25 24.7547C11.25 24.6796 11.2494 24.6039 11.2549 24.5112C11.2799 23.5823 11.4563 22.9482 11.6498 22.5264C12.0124 23.3052 12.6605 24.0211 13.7134 24.0211C14.0589 24.0211 14.3384 23.7415 14.3384 23.3961C14.3384 22.5063 14.3568 21.4798 14.5783 20.5533C14.7755 19.7318 15.2466 18.8578 15.8436 18.1572C16.1091 19.0666 16.6267 19.8026 17.1321 20.5209C17.8553 21.5487 18.603 22.6113 18.7342 24.4233C18.7421 24.5307 18.7501 24.6387 18.7501 24.7547C18.75 26.9572 17.0679 28.7491 15 28.7491Z" fill="white"/>
</g>
</g>
</g>
<defs>
<clipPath id="clip0_1674_13323">
<rect width="30" height="30" fill="white"/>
</clipPath>
<clipPath id="clip1_1674_13323">
<rect width="30" height="30" fill="white"/>
</clipPath>
<clipPath id="clip2_1674_13323">
<rect width="30" height="30" fill="white"/>
</clipPath>
</defs>
</svg>
