<svg width="44" height="44" viewBox="0 0 44 44" fill="none" xmlns="http://www.w3.org/2000/svg">
<path d="M29.4305 26.2016H29.4046C29.1372 26.2016 28.8871 26.2965 28.706 26.4691C28.5248 26.6416 28.43 26.8832 28.4213 27.1593C28.4213 27.4267 28.5162 27.6769 28.6973 27.8667C28.8785 28.0565 29.12 28.1601 29.3874 28.1687C29.6375 28.1687 29.8877 28.0651 30.0688 27.8753C30.2586 27.6855 30.3707 27.4267 30.3707 27.1679C30.3707 26.6416 29.9394 26.2102 29.4133 26.193L29.4305 26.2016Z" fill="white"/>
<path d="M15.9746 24.1655C15.5951 24.1655 15.2155 24.1655 14.836 24.1655H14.2667C13.4128 24.1655 13.0764 23.829 13.0678 22.9576C13.0678 22.7419 13.0678 22.5176 13.0678 22.3019C13.0678 21.9396 13.0678 21.5686 13.0678 21.2062C13.0505 20.7231 12.7572 20.4039 12.3346 20.3953C11.8947 20.3953 11.6014 20.7317 11.5928 21.2321C11.5928 21.4996 11.5928 21.7757 11.5928 22.0431C11.5928 22.3968 11.5928 22.7592 11.5928 23.1129C11.5842 23.7686 11.196 24.1482 10.5318 24.1568C10.3335 24.1568 10.1437 24.1568 9.94531 24.1568H9.32426C9.12587 24.1568 8.92748 24.1568 8.72909 24.1568C8.16843 24.1568 7.84066 24.4243 7.83203 24.8815C7.83203 25.0972 7.89241 25.2784 8.0218 25.4164C8.17706 25.5804 8.41858 25.6666 8.72047 25.6753C9.09137 25.6753 9.46227 25.6753 9.83318 25.6753C9.98844 25.6753 10.1523 25.6753 10.3076 25.6753H10.3852C11.2823 25.6753 11.5928 26.0031 11.6014 26.909C11.6014 27.0729 11.6014 27.2455 11.6014 27.4094C11.6014 27.8062 11.5928 28.2117 11.6187 28.6086C11.6273 28.8157 11.7222 29.0486 11.8429 29.2039C12.0327 29.4282 12.2915 29.4886 12.5934 29.3764C12.9125 29.2557 13.0764 29.0227 13.085 28.6862C13.085 28.3757 13.085 28.0737 13.085 27.7717C13.085 27.4353 13.085 27.0988 13.085 26.7623C13.1023 26.0204 13.4387 25.6839 14.1891 25.6839C14.422 25.6839 14.6463 25.6839 14.8791 25.6839C15.2587 25.6839 15.6468 25.6839 16.0263 25.6839C16.5353 25.6666 16.8458 25.3733 16.8372 24.9161C16.8372 24.4674 16.5094 24.1827 16.0005 24.1741L15.9746 24.1655Z" fill="white"/>
<path d="M34.925 20.6542H34.9078C34.3989 20.6628 33.9417 21.1201 33.9331 21.6377C33.9331 21.8879 34.028 22.1295 34.2091 22.3193C34.3989 22.5091 34.6576 22.6212 34.925 22.6212C35.201 22.6212 35.4512 22.5263 35.6237 22.3452C35.8048 22.164 35.8997 21.9138 35.8997 21.6377C35.8997 21.3703 35.7876 21.1114 35.5978 20.9303C35.4167 20.7491 35.1752 20.6542 34.9336 20.6542H34.925Z" fill="white"/>
<path d="M43.8353 34.7945C43.8094 34.4063 43.7749 34.0267 43.749 33.6384C43.6455 32.0251 43.5334 30.4031 43.4212 28.7898L43.3264 27.4094C43.1883 25.3906 43.0417 23.3718 42.9037 21.3529C42.8778 20.9388 42.852 20.5247 42.8261 20.1106C42.7657 19.0839 42.7053 18.0314 42.5587 16.9961C42.1878 14.2784 40.6524 12.3027 38.1079 11.2674C35.5633 10.2408 33.1395 10.6031 30.9055 12.3545C29.8187 13.2 28.7664 14.1145 27.7485 14.9859C27.3776 15.3051 27.0326 15.4345 26.5927 15.4173C25.8423 15.3914 25.0746 15.3914 24.3328 15.4C24.0309 15.4 23.729 15.4 23.4271 15.4C23.3064 15.4 23.1942 15.4 23.0735 15.3914H23.0217C23.0217 15.029 23.0131 14.6753 23.0045 14.3216C22.9872 13.4502 22.97 12.622 23.039 11.7851C23.1683 10.3788 24.2983 9.37804 25.7991 9.35215C26.1269 9.35215 26.4461 9.35215 26.7738 9.35215C27.1361 9.35215 27.4984 9.35215 27.8607 9.35215C29.8791 9.31764 31.6473 8.01491 32.2597 6.09961C32.8894 4.12393 32.1821 2.02745 30.5001 0.888626C30.0774 0.603921 29.5944 0.422752 29.12 0.250203C28.9044 0.172556 28.6887 0.094902 28.4817 0H21.7365L21.7106 0.00863588C21.0809 0.431381 20.9084 0.905887 21.1931 1.40628C21.4432 1.84628 21.8659 1.89804 22.1678 1.89804H22.1764C23.8411 1.89804 25.7991 1.88941 27.7399 1.89804C29.258 1.90666 30.4138 2.97648 30.5519 4.49491C30.6812 5.8753 29.6289 7.16942 28.2057 7.36785C27.6278 7.45413 27.0326 7.4455 26.4461 7.43687C26.1873 7.43687 25.9199 7.43687 25.6611 7.43687C24.4967 7.46275 23.4702 7.86824 22.6077 8.64471C21.5036 9.64549 20.9947 10.9396 21.0551 12.5961C21.0809 13.2431 21.0723 13.8902 21.0637 14.5631C21.0637 14.8306 21.0637 15.1067 21.0637 15.3827H20.2356C19.0798 15.3827 17.993 15.3828 16.8889 15.3741C16.8027 15.3741 16.6733 15.2706 16.587 15.2016C16.1385 14.8306 15.6986 14.4596 15.2587 14.0886C14.5514 13.502 13.8268 12.8894 13.1023 12.3028C11.6014 11.0863 9.71241 10.5427 7.77166 10.7671C5.82227 10.9914 4.09715 11.9663 2.90682 13.502C1.94938 14.7357 1.45772 16.1851 1.34559 18.04C1.23346 20.0502 1.07819 22.0949 0.931559 24.0706C0.853929 25.1318 0.776301 26.1929 0.698671 27.2541C0.603789 28.6604 0.508906 30.0667 0.414025 31.4643C0.327769 32.7326 0.241517 34.0008 0.155261 35.269C0.129384 35.6141 0.0948794 35.9592 0.0517515 36.2957C0.0345003 36.4596 0.0172512 36.6235 0 36.7875V38.5906V38.6165C0.00862559 38.651 0.017252 38.6769 0.0345032 38.7114C0.0603799 38.7718 0.077629 38.8322 0.0862546 38.8839C0.577913 41.7828 3.15697 43.9741 6.09829 43.9914H6.14142C8.18568 43.9914 9.8418 43.1718 11.2046 41.498C12.3087 40.1349 13.4559 38.7545 14.56 37.4259L15.181 36.6839C15.9228 35.7867 16.8717 35.3122 17.993 35.2604C18.0534 35.2604 18.0965 35.2345 18.1483 35.2259L26.3857 35.2863C27.4294 35.4329 28.3092 35.9851 29.12 37.0031C30.5691 38.8149 31.8888 40.411 33.1568 41.8863C34.3299 43.258 36.0464 44 37.7974 44C38.5305 44 39.2809 43.8706 39.9969 43.5945C42.4293 42.6714 44.0423 40.342 43.9992 37.7969C43.9819 36.7874 43.9043 35.7608 43.8353 34.7686V34.7945ZM34.925 24.571H34.9164C34.1487 24.571 33.4242 24.269 32.8808 23.7255C32.3201 23.1647 32.0096 22.4055 32.0182 21.5945C32.0268 19.9984 33.312 18.7561 34.9423 18.7561H34.9595C35.7272 18.7561 36.4518 19.0667 37.0038 19.6188C37.5472 20.171 37.8491 20.9043 37.8405 21.6722C37.8319 23.2424 36.4949 24.571 34.9337 24.5796L34.925 24.571ZM29.4219 30.0667C27.7917 30.0667 26.4978 28.7984 26.4892 27.1765C26.4892 26.4173 26.7997 25.6667 27.3518 25.1059C27.9038 24.5537 28.6456 24.2431 29.396 24.2431H29.4219C31.009 24.2518 32.3028 25.5631 32.3028 27.1506C32.3028 28.7726 31.0435 30.058 29.4391 30.058H29.4305L29.4219 30.0667ZM15.3277 27.582H15.0258C15.0172 27.7373 15.0085 27.8925 15.0085 28.0392C14.9913 28.4361 14.9827 28.8071 14.9137 29.1867C14.6894 30.4722 13.6112 31.3522 12.2656 31.3522C12.2225 31.3522 12.1793 31.3522 12.1362 31.3522C10.8596 31.3004 9.78142 30.2392 9.66929 28.9365C9.64341 28.6173 9.65203 28.298 9.65203 27.9616C9.65203 27.8408 9.65203 27.7114 9.65203 27.5906H9.33289C9.04825 27.5906 8.78948 27.5906 8.53071 27.5906C7.05574 27.5733 5.89128 26.4086 5.87403 24.942C5.85678 23.4667 7.01261 22.2933 8.49621 22.2674C8.7636 22.2674 9.03962 22.2674 9.33289 22.2674H9.66066C9.66066 22.1467 9.66066 22.0173 9.66066 21.8965C9.66066 21.5686 9.64341 21.258 9.66929 20.9475C9.79005 19.4894 10.9028 18.4973 12.3864 18.4973C12.4209 18.4973 12.4554 18.4973 12.4899 18.4973C13.8441 18.5404 14.9482 19.6878 14.9913 21.12C14.9999 21.3874 14.9913 21.6549 14.9913 21.9396C14.9913 22.0431 14.9913 22.1467 14.9913 22.2588C15.25 22.2588 15.4916 22.2588 15.7331 22.2588C15.8797 22.2588 16.0264 22.2588 16.173 22.2588C17.6135 22.2933 18.7693 23.4926 18.7607 24.9333C18.752 26.3396 17.5703 27.5475 16.1816 27.582C15.897 27.582 15.6209 27.582 15.3363 27.582H15.3277Z" fill="white"/>
</svg>
