<svg width="30" height="31" viewBox="0 0 30 31" fill="none" xmlns="http://www.w3.org/2000/svg">
<path d="M2.49897 26.6549H9.99882V27.6551H7.99906C6.89459 27.6551 5.9993 28.5504 5.9993 29.6549C5.9993 30.2074 6.44694 30.655 6.99947 30.655H22.9994C23.5519 30.655 23.9995 30.2074 23.9995 29.6549C23.9995 28.5504 23.1042 27.6551 21.9998 27.6551H20V26.6549H27.4999C28.8797 26.6532 29.9982 25.5352 30 24.1548V3.15519C29.9982 1.77533 28.8803 0.656787 27.4999 0.655029H2.50014C1.12029 0.656787 0.00175778 1.77474 0 3.15519V24.1548C0.00175778 25.5346 1.1197 26.6532 2.50014 26.6549H2.49897ZM22.9988 29.6549H6.99888C6.99888 29.1023 7.44653 28.6547 7.99906 28.6547H21.9986C22.5505 28.6547 22.9988 29.1023 22.9988 29.6549ZM18.9987 27.6551H10.999V26.6549H18.9987V27.6551ZM27.4987 25.6553H2.49897C1.67047 25.6553 0.999 24.9839 0.999 24.1554V22.6554H28.9986V24.1554C28.9986 24.9839 28.3272 25.6553 27.4987 25.6553ZM2.49897 1.6558H27.4987C28.3272 1.6558 28.9986 2.32727 28.9986 3.15577V21.6552H0.999V3.15577C0.999 2.32727 1.67047 1.6558 2.49897 1.6558Z" fill="#828282"/>
<path fill-rule="evenodd" clip-rule="evenodd" d="M16.499 23.655H13.4991C13.2231 23.655 12.9993 23.8789 12.9993 24.1548C12.9993 24.4308 13.2231 24.6546 13.4991 24.6546H16.499C16.775 24.6546 16.9988 24.4308 16.9988 24.1548C16.9988 23.8789 16.775 23.655 16.499 23.655Z" fill="#828282"/>
<path fill-rule="evenodd" clip-rule="evenodd" d="M2.4916 5.65535H27.4913C27.7673 5.65535 27.9911 5.43153 27.9911 5.15556C27.9911 4.87959 27.7673 4.65576 27.4913 4.65576H2.4916C2.21562 4.65576 1.99181 4.87959 1.99181 5.15556C1.99181 5.43153 2.21562 5.65535 2.4916 5.65535Z" fill="#828282"/>
<path d="M2.99258 3.65558C3.26861 3.65558 3.49238 3.43183 3.49238 3.1558C3.49238 2.87977 3.26861 2.65601 2.99258 2.65601C2.71655 2.65601 2.49279 2.87977 2.49279 3.1558C2.49279 3.43183 2.71655 3.65558 2.99258 3.65558Z" fill="#828282"/>
<path d="M4.99214 3.65558C5.26817 3.65558 5.49194 3.43183 5.49194 3.1558C5.49194 2.87977 5.26817 2.65601 4.99214 2.65601C4.71611 2.65601 4.49234 2.87977 4.49234 3.1558C4.49234 3.43183 4.71611 3.65558 4.99214 3.65558Z" fill="#828282"/>
<path d="M6.99218 3.65558C7.26821 3.65558 7.49198 3.43183 7.49198 3.1558C7.49198 2.87977 7.26821 2.65601 6.99218 2.65601C6.71615 2.65601 6.49239 2.87977 6.49239 3.1558C6.49239 3.43183 6.71615 3.65558 6.99218 3.65558Z" fill="#828282"/>
<path d="M25.9988 7.65576H3.99906C3.17056 7.65576 2.49908 8.32724 2.49908 9.15574V18.1556C2.49908 18.9841 3.17056 19.6555 3.99906 19.6555H25.9988C26.8273 19.6555 27.4988 18.9841 27.4988 18.1556V9.15574C27.4988 8.32724 26.8273 7.65576 25.9988 7.65576ZM3.49926 18.1556V9.15574C3.49926 8.87977 3.72309 8.65594 3.99906 8.65594H10.4987V18.6559H3.99906C3.72309 18.6559 3.49926 18.4321 3.49926 18.1562V18.1556ZM11.4989 18.6553V8.65535H18.499V18.6553H11.4989ZM26.4986 18.1556C26.4986 18.4315 26.2748 18.6553 25.9988 18.6553H19.4991V8.65535H25.9988C26.2748 8.65535 26.4986 8.87918 26.4986 9.15515V18.155V18.1556Z" fill="#828282"/>
<path fill-rule="evenodd" clip-rule="evenodd" d="M9.4358 10.9247C9.34967 10.7595 9.17858 10.6558 8.99226 10.6558H4.99214C4.71617 10.6558 4.49234 10.8796 4.49234 11.1555C4.49234 11.4315 4.71617 11.6553 4.99214 11.6553H8.03134L6.98136 13.1553H5.49194C5.21597 13.1553 4.99214 13.3791 4.99214 13.6551C4.99214 13.9311 5.21597 14.1549 5.49194 14.1549H6.28118L5.0812 15.8682C4.97222 16.0141 4.95171 16.208 5.02671 16.3738C5.10229 16.5396 5.26166 16.6515 5.4433 16.6656C5.62494 16.6797 5.80013 16.5935 5.89974 16.4412L7.50166 14.1549H8.49129C8.76726 14.1549 8.99109 13.9311 8.99109 13.6551C8.99109 13.3791 8.76726 13.1553 8.49129 13.1553H8.20185L9.40182 11.4421C9.50846 11.2891 9.52135 11.0899 9.43464 10.9247H9.4358Z" fill="#828282"/>
<path fill-rule="evenodd" clip-rule="evenodd" d="M16.9919 10.6556H12.9918C12.7159 10.6556 12.492 10.8794 12.492 11.1554C12.492 11.4314 12.7159 11.6552 12.9918 11.6552H16.031L14.981 13.1552H13.4916C13.2156 13.1552 12.9918 13.379 12.9918 13.655C12.9918 13.9309 13.2156 14.1548 13.4916 14.1548H14.2809L13.0809 15.868C12.9719 16.0139 12.9514 16.2078 13.0264 16.3737C13.102 16.5395 13.2613 16.6514 13.443 16.6654C13.6246 16.6795 13.7998 16.5934 13.8994 16.441L15.5013 14.1548H16.491C16.7669 14.1548 16.9908 13.9309 16.9908 13.655C16.9908 13.379 16.7669 13.1552 16.491 13.1552H16.2015L17.4015 11.4419C17.5081 11.289 17.521 11.0892 17.4349 10.924C17.3488 10.7587 17.1777 10.655 16.9908 10.655L16.9919 10.6556Z" fill="#828282"/>
<path fill-rule="evenodd" clip-rule="evenodd" d="M24.9916 10.6556H20.9915C20.7155 10.6556 20.4917 10.8794 20.4917 11.1554C20.4917 11.4314 20.7155 11.6552 20.9915 11.6552H24.0307L22.9807 13.1552H21.4913C21.2153 13.1552 20.9915 13.379 20.9915 13.655C20.9915 13.9309 21.2153 14.1548 21.4913 14.1548H22.2805L21.0806 15.868C20.9716 16.0139 20.9511 16.2078 21.0261 16.3737C21.1017 16.5395 21.261 16.6514 21.4427 16.6654C21.6243 16.6795 21.7995 16.5934 21.8991 16.441L23.501 14.1548H24.4907C24.7666 14.1548 24.9905 13.9309 24.9905 13.655C24.9905 13.379 24.7666 13.1552 24.4907 13.1552H24.2012L25.4012 11.4419C25.5078 11.289 25.5207 11.0892 25.4346 10.924C25.3484 10.7587 25.1774 10.655 24.9905 10.655L24.9916 10.6556Z" fill="#828282"/>
</svg>
