<svg width="44" height="44" viewBox="0 0 44 44" fill="none" xmlns="http://www.w3.org/2000/svg">
<path d="M8.8196 10.807H35.2095C35.2095 11.0165 35.2095 11.2027 35.2095 11.389C35.2095 19.9476 35.2095 28.5063 35.2095 37.0573C35.2095 39.7032 33.3162 41.5888 30.6625 41.5965C24.8894 41.5965 19.1164 41.5965 13.3434 41.5965C10.7284 41.5965 8.8196 39.6955 8.8196 37.0883C8.8196 28.5141 8.8196 19.9399 8.8196 11.3657C8.8196 11.195 8.8196 11.0243 8.8196 10.8148V10.807ZM19.9079 22.9428C19.9544 22.9661 20.0087 22.9971 20.0553 23.0204C20.0553 23.2066 20.0553 23.3851 20.0553 23.5713C20.0553 26.357 20.0553 29.1348 20.0553 31.9205C20.0553 32.7663 20.4277 33.3327 21.1261 33.5577C22.4219 33.9845 23.5548 33.162 23.5626 31.7498C23.5703 28.9331 23.5626 26.1164 23.5626 23.2997C23.5626 23.129 23.5626 22.9506 23.5626 22.7799C24.1445 23.2144 24.5868 23.6955 25.0524 24.1455C25.7818 24.8594 26.8215 24.8749 27.4966 24.2076C28.1794 23.5403 28.1872 22.5005 27.4733 21.7634C26.5267 20.7857 25.58 19.8157 24.5946 18.8924C22.9806 17.3793 20.7769 17.4025 19.1785 18.9389C18.2241 19.8545 17.3007 20.8012 16.3696 21.7401C15.6479 22.4772 15.6324 23.5015 16.2997 24.1843C16.9748 24.8827 18.0301 24.8671 18.7827 24.1378C19.1785 23.7575 19.5354 23.3385 19.9156 22.9428H19.9079Z" fill="white"/>
<path d="M5.51407 18.9311C3.95442 18.3104 2.71291 17.3715 1.75073 16.0834C-2.23763 10.7837 0.967026 3.03977 7.53929 2.09311C7.9583 2.03104 8.39283 2 8.8196 2C17.6111 2 26.4103 2 35.2095 2C40.2687 2 44.2726 6.21339 43.9855 11.2726C43.7915 14.6634 42.1154 17.1154 39.1203 18.6751C38.9418 18.7682 38.7556 18.8303 38.515 18.9389C38.515 18.6828 38.515 18.4966 38.515 18.3104C38.515 15.8894 38.515 13.4685 38.515 11.0398C38.515 10.5975 38.4685 10.1474 38.3909 9.7129C38.1736 8.47139 37.1416 7.88167 35.6751 7.56353C35.3802 7.50146 35.0621 7.50922 34.7517 7.50922C26.2473 7.50922 17.743 7.50922 9.23861 7.50922C9.12222 7.50922 8.99807 7.50922 8.88168 7.50922C6.63143 7.4549 5.6615 8.68089 5.55287 10.9389C5.43648 13.3909 5.52959 15.8506 5.52183 18.3104C5.52183 18.4966 5.52183 18.6828 5.52183 18.9311H5.51407Z" fill="white"/>
</svg>
