<svg width="44" height="40" viewBox="0 0 44 40" fill="none" xmlns="http://www.w3.org/2000/svg">
<path d="M33.6683 10.3621V16.5872V35.0682C33.6683 36.8534 32.4652 38.0488 30.6722 38.0565H21.8082H13.3477C11.6013 38.0565 10.3749 36.8379 10.3749 35.0992C10.3749 28.913 10.3749 22.719 10.3749 16.5328V10.3699H33.6683M17.4848 24.2714C17.8341 24.2714 18.1756 24.2171 18.5016 24.1084C18.5016 26.0567 18.5016 27.9971 18.5016 29.9454C18.5016 31.4512 19.3011 32.6154 20.6361 33.0579C21.0242 33.1821 21.4123 33.2519 21.8004 33.2519C23.6788 33.2519 25.0992 31.7616 25.107 29.7824C25.107 27.8652 25.107 25.9557 25.107 24.0386C25.4951 24.1938 25.9064 24.2792 26.3256 24.2792C27.1716 24.2792 27.9711 23.9454 28.5765 23.3478C29.8883 22.0593 29.8883 20.0722 28.5765 18.7139C27.7072 17.8135 26.6904 16.7657 25.6425 15.7877C24.5869 14.7942 23.2519 14.2508 21.9013 14.2508C20.5197 14.2508 19.1691 14.8174 18.0902 15.842C17.151 16.7424 16.2507 17.6583 15.2494 18.6829C13.9454 20.0179 13.9066 22.0049 15.1718 23.3012C15.7849 23.9299 16.6077 24.2792 17.4693 24.2792M35.2052 8.82527H8.82254C8.82254 9.03484 8.82254 9.2056 8.82254 9.37636C8.82254 17.9532 8.82254 26.5301 8.82254 35.107C8.82254 37.715 10.732 39.6167 13.3477 39.6167C16.1653 39.6167 18.9906 39.6167 21.8082 39.6167C24.6257 39.6167 27.715 39.6167 30.6722 39.6167C33.3268 39.6167 35.2207 37.7228 35.2207 35.076C35.2207 26.5146 35.2207 17.9532 35.2207 9.39965V8.8175L35.2052 8.82527ZM17.4693 22.7268C17.0346 22.7268 16.6155 22.556 16.2817 22.2145C15.6142 21.5315 15.6375 20.5069 16.3516 19.7695C17.2752 18.8226 18.2067 17.8834 19.1614 16.9675C19.9686 16.1913 20.9311 15.8032 21.8936 15.8032C22.856 15.8032 23.7797 16.1758 24.5792 16.9209C25.5649 17.8523 26.5196 18.8226 27.4588 19.7928C28.1729 20.5302 28.1652 21.5625 27.4821 22.2378C27.1561 22.5638 26.737 22.7268 26.3178 22.7268C25.8676 22.7268 25.4097 22.5405 25.0371 22.1757C24.5714 21.7178 24.129 21.2365 23.5468 20.8096C23.5468 20.9804 23.5468 21.1589 23.5468 21.3297C23.5468 24.1472 23.5468 26.9648 23.5468 29.7824C23.5468 30.9389 22.7784 31.6995 21.7926 31.6995C21.5753 31.6995 21.3502 31.6607 21.1174 31.5831C20.4266 31.358 20.054 30.7914 20.0462 29.9454C20.0462 27.1588 20.0462 24.3801 20.0462 21.5936C20.0462 21.4073 20.0462 21.2288 20.0462 21.0425C19.9997 21.0192 19.9453 20.9881 19.8987 20.9649C19.5262 21.3685 19.1614 21.7799 18.7655 22.1602C18.3774 22.5328 17.9195 22.719 17.4693 22.719V22.7268Z" fill="#BDBDBD"/>
<path d="M25.2933 1.55238H35.213C37.2388 1.55238 39.1094 2.35961 40.4911 3.81885C41.8649 5.27032 42.5557 7.17974 42.4393 9.18231C42.3229 11.278 41.5389 12.9313 40.0642 14.1965C40.0642 12.4811 40.0642 10.758 40.0642 9.04259C40.0642 8.53807 40.0098 8.0025 39.9167 7.45141C39.614 5.68946 38.2944 4.54846 36.0047 4.0517C35.6476 3.97408 35.3139 3.96632 35.0267 3.96632H34.8792H34.7473C28.9336 3.96632 23.1122 3.96632 17.2985 3.96632H12.1602H9.22619H9.07871H8.97004H8.90795C8.84585 3.96632 8.78376 3.96632 8.72166 3.96632C7.0451 3.96632 4.19649 4.6028 3.99468 8.8796C3.9093 10.6338 3.93258 12.3957 3.94811 14.1033C3.94811 14.1344 3.94811 14.1732 3.94811 14.2042C3.59882 13.8938 3.28058 13.5522 2.99339 13.1642C1.45654 11.115 1.13054 8.46045 2.1163 6.06203C3.10982 3.65585 5.22105 2.00257 7.75919 1.63776C8.10848 1.59119 8.46552 1.56014 8.82257 1.56014C14.3102 1.56014 19.8056 1.56014 25.2933 1.56014M25.2933 0.00776188C19.8056 0.00776188 14.3102 0.00776188 8.81481 0.00776188C8.3879 0.00776188 7.95324 0.0388094 7.5341 0.100904C0.967542 1.04785 -2.23812 8.78645 1.75149 14.0878C2.72173 15.3763 3.96363 16.3077 5.51601 16.9364C5.51601 16.6881 5.51601 16.5018 5.51601 16.3155C5.51601 13.855 5.42286 11.3944 5.53929 8.94169C5.64796 6.73732 6.57162 5.51094 8.72166 5.51094C8.76824 5.51094 8.82257 5.51094 8.86914 5.51094C8.90019 5.51094 8.939 5.51094 8.97781 5.51094C9.06319 5.51094 9.14857 5.51094 9.23395 5.51094C11.9273 5.51094 14.6129 5.51094 17.3063 5.51094C23.12 5.51094 28.9414 5.51094 34.755 5.51094C34.8482 5.51094 34.9335 5.51094 35.0267 5.51094C35.244 5.51094 35.4614 5.51094 35.6709 5.56527C37.1379 5.88351 38.1703 6.47341 38.3876 7.71531C38.4652 8.14998 38.5118 8.60017 38.5118 9.04259C38.5273 11.4643 38.5118 13.886 38.5118 16.3155C38.5118 16.5018 38.5118 16.6881 38.5118 16.9442C38.7524 16.8433 38.9464 16.7734 39.1172 16.6803C42.1133 15.1202 43.7899 12.6674 43.9839 9.27545C44.2866 4.22246 40.2815 0 35.2207 0C31.9142 0 28.6076 0 25.301 0L25.2933 0.00776188Z" fill="#BDBDBD"/>
</svg>
