<svg width="30" height="30" viewBox="0 0 30 30" fill="none" xmlns="http://www.w3.org/2000/svg">
<path d="M27.5694 24.1634C26.5137 23.698 23.1481 22.7327 23.3328 21.5176C23.4476 20.7773 25.8338 21.0176 25.8784 19.452C25.9135 18.1367 24.1926 17.9515 23.6276 17.9117C18.5956 17.4117 13.4639 17.2564 8.50754 18.4468V10.4442C12.3936 7.07804 16.6602 14.6709 21.1717 10.7496C21.3967 10.5521 21.5216 10.2637 21.5116 9.96419V2.71189C21.511 2.34614 21.3112 2.01028 20.9906 1.83561C20.6699 1.66094 20.279 1.67442 19.9713 1.87195C16.2299 4.20303 12.0338 -2.78961 7.66174 1.32684C7.41673 1.5572 7.50641 0.896616 7.50641 18.683C4.67536 19.4784 0.148603 21.2392 0.00382649 24.1599C-0.15619 27.556 4.7457 28.6363 6.59086 29.0213C12.9329 30.4169 18.7503 30.1766 24.5719 29.1966C26.1075 28.9364 29.3085 28.4364 29.829 27.0109C29.9919 26.5185 29.8958 25.9769 29.574 25.5702C29.0482 24.9254 28.3536 24.4389 27.5682 24.1646L27.5694 24.1634ZM20.5117 2.7113V9.96888C16.7955 13.2003 12.8391 6.46787 8.50754 9.1688V1.91122C12.2037 -1.29496 16.1754 5.41751 20.5117 2.7113ZM28.8946 26.6897C28.5793 27.5402 25.2735 28.08 24.3931 28.2301C18.731 29.1855 13.0489 29.4404 6.79191 28.0601C2.79034 27.185 0.91 25.9242 0.99499 24.2086C1.10518 21.9326 5.30136 20.367 7.49704 19.707V22.0328C6.34176 22.1881 5.49654 22.888 5.49654 23.7484C5.49654 24.749 6.59672 25.4992 7.9976 25.4992C9.39847 25.4992 10.4987 24.729 10.4987 23.7484C10.4987 22.888 9.65344 22.1881 8.49816 22.0328V19.4321C13.3848 18.2065 18.5018 18.3665 23.5033 18.8618C24.6287 18.972 24.8591 19.207 24.8538 19.3618C24.8538 19.9872 22.5479 19.792 22.3182 21.3025C22.0128 23.5181 25.7641 24.4735 27.1749 25.079C27.7827 25.2929 28.3237 25.6622 28.7452 26.1493C28.9703 26.4793 28.9105 26.6346 28.8952 26.6897H28.8946ZM8.00756 24.0186C8.28363 24.0186 8.50754 23.7947 8.50754 23.5187V23.0685C9.10247 23.1834 9.50808 23.4888 9.50808 23.769C9.50808 24.0491 8.86802 24.5192 8.00756 24.5192C7.14711 24.5192 6.50705 24.1242 6.50705 23.769C6.50705 23.4138 6.91207 23.184 7.50758 23.0685V23.5187C7.50758 23.7947 7.73149 24.0186 8.00756 24.0186Z" fill="#828282"/>
<path d="M20.5115 23.0176C19.4067 23.0176 18.511 23.9132 18.511 25.0181C18.511 26.1229 19.4067 27.0186 20.5115 27.0186C21.6164 27.0186 22.512 26.1229 22.512 25.0181C22.512 23.9132 21.6164 23.0176 20.5115 23.0176ZM20.5115 26.0186C19.9588 26.0186 19.511 25.5708 19.511 25.0181C19.511 24.4653 19.9588 24.0175 20.5115 24.0175C21.0643 24.0175 21.5121 24.4653 21.5121 25.0181C21.5121 25.5708 21.0643 26.0186 20.5115 26.0186Z" fill="#828282"/>
</svg>
