<svg width="24" height="24" viewBox="0 0 24 24" fill="none" xmlns="http://www.w3.org/2000/svg">
<path fill-rule="evenodd" clip-rule="evenodd" d="M8.98303 10.0717C8.98303 10.7823 9.76854 11.3964 10.7795 11.5398V8.60303C9.76854 8.74647 8.98303 9.36054 8.98303 10.0712V10.0717Z" fill="white"/>
<path fill-rule="evenodd" clip-rule="evenodd" d="M11.6781 15.3972C12.6891 15.2538 13.4746 14.6397 13.4746 13.9291C13.4746 13.2185 12.6891 12.6044 11.6781 12.4609V15.3977V15.3972Z" fill="white"/>
<path d="M11.2291 6.00001C10.363 5.9986 9.50628 6.17017 8.71389 6.50346C8.42306 6.62299 8.14256 6.76502 7.87532 6.92721C7.26764 7.29425 6.7307 7.75832 6.28857 8.29974V15.7005C6.73119 16.2415 7.26813 16.7055 7.8763 17.0721C8.14158 17.2338 8.42012 17.3749 8.70897 17.494C9.50284 17.8291 10.3611 18.0016 11.2291 18.0007C14.7018 18.0007 17.5171 15.3143 17.5171 12.0006C17.5171 8.68694 14.7018 6.00048 11.2291 6.00048V6.00001ZM14.3731 13.9286C14.3731 15.1136 13.1995 16.0947 11.6781 16.2588V16.7144C11.6781 16.9512 11.4772 17.1429 11.2291 17.1429C10.981 17.1429 10.7801 16.9512 10.7801 16.7144V16.2588C9.25868 16.0947 8.08508 15.1136 8.08508 13.9286C8.08508 13.6919 8.286 13.5002 8.53409 13.5002C8.78217 13.5002 8.98309 13.6919 8.98309 13.9286C8.98309 14.6392 9.7686 15.2533 10.7796 15.3968V12.4014C9.25819 12.2373 8.08459 11.2562 8.08459 10.0712C8.08459 8.88616 9.25819 7.90505 10.7796 7.74098V7.28535C10.7796 7.04862 10.9805 6.8569 11.2286 6.8569C11.4767 6.8569 11.6776 7.04862 11.6776 7.28535V7.74098C13.199 7.90505 14.3726 8.88616 14.3726 10.0712C14.3726 10.3079 14.1717 10.4996 13.9236 10.4996C13.6755 10.4996 13.4746 10.3079 13.4746 10.0712C13.4746 9.36054 12.6891 8.74647 11.6781 8.60303V11.5984C13.1995 11.7625 14.3731 12.7436 14.3731 13.9286Z" fill="white"/>
<path fill-rule="evenodd" clip-rule="evenodd" d="M8.08435 18.1583C7.84708 18.0505 7.61717 17.9296 7.39463 17.796C6.99868 17.556 6.62779 17.2799 6.28784 16.9714V18.8573H8.08435V18.1583Z" fill="white"/>
<path fill-rule="evenodd" clip-rule="evenodd" d="M6.28784 7.02866C6.62828 6.72022 6.99868 6.44459 7.39512 6.20458C7.61766 6.07145 7.84757 5.95004 8.08435 5.84223V5.14331H6.28784V7.02913V7.02866Z" fill="white"/>
<path fill-rule="evenodd" clip-rule="evenodd" d="M4.05626 1.28581H10.3163C10.6837 1.28721 11.0148 1.07346 11.1504 0.747202L11.4638 0H2.90918L3.22358 0.747202C3.35868 1.07299 3.68929 1.28674 4.05626 1.28581Z" fill="white"/>
<path d="M8.98304 18.5098V18.8572C8.98304 19.3306 8.5807 19.7146 8.08454 19.7146H6.28803C5.79186 19.7146 5.38953 19.3306 5.38953 18.8572V5.14271C5.38953 4.66926 5.79186 4.28535 6.28803 4.28535H8.08454C8.5807 4.28535 8.98304 4.66926 8.98304 5.14271V5.49006C10.7584 4.92567 12.6949 5.05224 14.3726 5.84303V2.14265C14.3691 1.07013 13.534 0.165891 12.4193 0.0280762L11.9846 1.06544C11.7134 1.71795 11.0517 2.14499 10.3163 2.14312H4.05627C3.32086 2.14546 2.65915 1.71795 2.38798 1.06544L1.95322 0.0280762C0.838568 0.165891 0.00343876 1.07013 0 2.14265V21.8573C0.00147376 23.0399 1.00609 23.9985 2.24551 24H12.1266C13.366 23.9985 14.3706 23.0399 14.3721 21.8573V18.1564C12.6944 18.9472 10.7574 19.0742 8.98206 18.5094L8.98304 18.5098ZM12.5761 22.2862C12.5761 22.5229 12.3751 22.7146 12.127 22.7146H2.246C1.99792 22.7146 1.797 22.5229 1.797 22.2862C1.797 22.0494 1.99792 21.8577 2.246 21.8577H12.127C12.3751 21.8577 12.5761 22.0494 12.5761 22.2862Z" fill="white"/>
<path fill-rule="evenodd" clip-rule="evenodd" d="M23.9186 11.8124L21.594 9.59419C21.4186 9.42684 21.1185 9.54544 21.1185 9.78216V11.1987H19.4526C19.3755 11.1987 19.3136 11.2583 19.3136 11.3314V12.6955C19.3136 12.7691 19.376 12.8282 19.4526 12.8282H21.1185V14.2185C21.1185 14.4552 21.4186 14.5738 21.594 14.4065L23.9186 12.1883C24.0272 12.0847 24.0272 11.9164 23.9186 11.8124Z" fill="white"/>
</svg>
