<svg width="44" height="44" viewBox="0 0 44 44" fill="none" xmlns="http://www.w3.org/2000/svg">
<path d="M20.5326 0C21.5074 0 22.4821 0 23.4568 0C23.5836 0.0317219 23.7025 0.0634437 23.8293 0.0793047C24.5821 0.182401 25.3429 0.229984 26.0799 0.380663C31.4765 1.44335 35.9143 4.11592 39.2981 8.44596C43.1257 13.347 44.5838 18.938 43.7914 25.092C43.3714 28.3435 42.2698 31.3809 40.3996 34.0773C35.1852 41.5716 27.9976 44.8231 18.9398 43.8238C15.6511 43.459 12.6239 42.2615 9.88198 40.3978C4.5408 36.7736 1.31548 31.7695 0.253587 25.3855C0.150567 24.751 0.0792461 24.1166 0 23.4821C0 22.5067 0 21.5312 0 20.5558C0.0633968 20.0165 0.118869 19.4773 0.198115 18.9459C0.974726 13.799 3.23324 9.41348 7.04497 5.86855C10.199 2.93428 13.9156 1.07854 18.1711 0.341011C18.9557 0.206192 19.7481 0.111027 20.5406 0H20.5326ZM22.7753 10.04C22.7753 11.1582 22.7595 12.2764 22.7912 13.3946C22.7912 13.5849 22.91 13.8387 23.0606 13.9576C25.2874 15.7579 27.5222 17.5501 29.7648 19.3266C29.8916 19.4297 30.1373 19.4773 30.2878 19.4297C32.5939 18.6763 34.892 17.8991 37.1981 17.1378C37.4358 17.0585 37.5309 16.9395 37.5785 16.7016C38.0223 14.7665 38.4898 12.8394 38.9257 10.8965C38.9653 10.7061 38.9257 10.4365 38.8147 10.2858C36.7305 7.29604 34.0362 5.01999 30.7395 3.45769C30.5652 3.37045 30.2878 3.36252 30.1056 3.4339C27.7678 4.35383 25.438 5.28963 23.1002 6.21749C22.8387 6.32059 22.7674 6.46334 22.7674 6.72504C22.7832 7.82738 22.7674 8.92972 22.7674 10.04H22.7753ZM21.2062 10.0796C21.2062 8.94558 21.2062 7.81152 21.2062 6.68539C21.2062 6.45541 21.1508 6.32852 20.921 6.24129C18.5436 5.31342 16.1662 4.36176 13.7888 3.4339C13.6382 3.37838 13.4164 3.37838 13.2737 3.44976C9.94538 5.02792 7.21931 7.32776 5.11929 10.3651C5.04005 10.4841 5.00043 10.6824 5.04005 10.8251C5.49175 12.7919 5.9593 14.7428 6.40308 16.7095C6.46647 16.9792 6.59327 17.0822 6.83101 17.1616C9.10537 17.9149 11.3797 18.6683 13.6541 19.4376C13.8839 19.5169 14.0424 19.4931 14.2326 19.3424C16.4594 17.5422 18.7021 15.7658 20.9289 13.9576C21.0794 13.8387 21.1904 13.5849 21.1983 13.3946C21.2221 12.2922 21.2142 11.1899 21.2142 10.0876L21.2062 10.0796ZM1.56907 23.9976C1.58492 24.0928 1.59284 24.1166 1.59284 24.1483C1.91775 27.3839 2.97965 30.3579 4.72306 33.0859C4.79439 33.197 4.9608 33.2763 5.09552 33.3001C7.33818 33.6649 9.58085 34.0297 11.8235 34.3786C11.9503 34.4024 12.1563 34.3072 12.2435 34.1962C13.3292 32.7687 14.399 31.3412 15.4609 29.8979C15.5481 29.7869 15.5798 29.5807 15.5481 29.4459C14.8903 26.7416 14.2167 24.0373 13.5352 21.3409C13.4956 21.1982 13.3371 21.0316 13.1945 20.9761C10.8963 20.191 8.59027 19.4217 6.28421 18.6683C6.16534 18.6287 5.94345 18.6842 5.86421 18.7794C4.46948 20.4289 3.0906 22.0943 1.70379 23.7597C1.63247 23.839 1.59285 23.9421 1.56115 23.9976H1.56907ZM42.46 24.2435C42.3649 24.0373 42.3095 23.8073 42.1668 23.6407C40.8355 22.0229 39.4962 20.421 38.1649 18.8111C38.0223 18.6366 37.8955 18.5732 37.6656 18.6525C35.3834 19.4297 33.0931 20.1831 30.8029 20.9602C30.6603 21.0078 30.4939 21.1744 30.4543 21.3171C29.7648 24.0293 29.0912 26.7416 28.4256 29.4617C28.3939 29.5807 28.4176 29.7551 28.481 29.8424C29.5746 31.3095 30.6841 32.7687 31.8014 34.2279C31.8728 34.3152 32.0392 34.3865 32.1501 34.3707C34.3928 34.0217 36.6354 33.6649 38.8781 33.2921C39.0208 33.2683 39.203 33.1653 39.2743 33.0463C40.994 30.3658 42.0242 27.4394 42.46 24.2355V24.2435ZM13.4005 35.3223C14.8111 37.5349 16.2217 39.7475 17.6322 41.9443C17.6956 42.0395 17.8224 42.1188 17.9334 42.1426C20.8338 42.7373 23.7342 42.6818 26.6108 42.0157C26.7535 41.9839 26.9199 41.8571 26.9912 41.7302C28.164 39.7 29.329 37.6618 30.478 35.6158C30.5494 35.4889 30.5256 35.2192 30.4384 35.1003C29.4003 33.6966 28.3463 32.3008 27.2765 30.9209C27.1814 30.794 26.9754 30.683 26.8248 30.683C23.5995 30.6672 20.3821 30.6672 17.1568 30.683C17.0141 30.683 16.816 30.7702 16.7288 30.8813C15.6115 32.3484 14.51 33.8314 13.3847 35.3223H13.4005Z" fill="white"/>
</svg>
