<svg width="30" height="31" viewBox="0 0 30 31" fill="none" xmlns="http://www.w3.org/2000/svg">
<path fill-rule="evenodd" clip-rule="evenodd" d="M28.3923 30.2089H1.60709C1.18085 30.2089 0.772144 30.0396 0.470729 29.7382C0.169315 29.4367 0 29.028 0 28.6017V1.81656C0 0.929015 0.719543 0.209473 1.60709 0.209473H28.3923C29.2799 0.209473 29.9994 0.929015 29.9994 1.81656V28.6018C29.9994 29.4893 29.2799 30.2089 28.3923 30.2089ZM8.34848 25.1107C9.64074 27.5887 12.205 29.1412 14.9997 29.1375C17.7944 29.1413 20.3589 27.5888 21.651 25.1107C22.9432 22.6327 22.7482 19.6413 21.1453 17.3519H25.178C26.0656 17.3519 26.7851 16.6325 26.7851 15.7449V7.17362C26.7851 6.28607 26.0656 5.56653 25.178 5.56653H4.82132C3.93378 5.56653 3.21424 6.28602 3.21424 7.17362V15.7449C3.21424 16.6325 3.93372 17.352 4.82132 17.352H8.85357C7.25095 19.6415 7.05623 22.6327 8.34848 25.1107ZM6.96409 1.81656C6.96409 1.52075 6.72428 1.28088 6.42841 1.28088C6.1326 1.28088 5.89274 1.52075 5.89274 1.81656C5.89274 2.11237 6.13254 2.35224 6.42841 2.35224C6.72422 2.35224 6.96409 2.11237 6.96409 1.81656ZM4.82132 1.81656C4.82132 1.52075 4.58152 1.28088 4.28565 1.28088C3.98978 1.28088 3.74997 1.52075 3.74997 1.81656C3.74997 2.11237 3.98984 2.35224 4.28565 2.35224C4.58146 2.35224 4.82132 2.11237 4.82132 1.81656ZM2.6785 1.81656C2.6785 1.52075 2.43869 1.28088 2.14282 1.28088C1.84696 1.28088 1.60715 1.52075 1.60715 1.81656C1.60715 2.11237 1.84702 2.35224 2.14282 2.35224C2.43863 2.35224 2.6785 2.11237 2.6785 1.81656ZM28.3923 3.42371H1.60709C1.31122 3.42371 1.07141 3.66358 1.07141 3.95938C1.07141 4.25519 1.31122 4.49506 1.60709 4.49506H28.3923C28.6881 4.49506 28.9279 4.25519 28.9279 3.95938C28.9279 3.66358 28.6881 3.42371 28.3923 3.42371ZM10.9403 15.327C10.0791 14.2222 9.61402 12.8601 9.61975 11.4593C9.5978 9.5856 10.4414 7.80663 11.9061 6.63795H7.43404C7.19525 8.2804 5.90514 9.57051 4.26269 9.8093V13.1092C5.90514 13.348 7.19525 14.6381 7.43404 16.2806H9.73759C10.1049 15.9226 10.5079 15.603 10.9403 15.327ZM6.94125 13.0664C6.05364 13.0664 5.33416 12.3468 5.33416 11.4593C5.33416 10.5717 6.0537 9.85218 6.94125 9.85218C7.82879 9.85218 8.54833 10.5717 8.54833 11.4593C8.54833 12.3468 7.82879 13.0664 6.94125 13.0664ZM13.3697 21.8203C13.4056 21.1587 14.2751 20.2277 14.9768 19.6416C15.6786 20.2276 16.548 21.1587 16.584 21.8203C16.5953 22.0103 16.514 22.1941 16.3659 22.3137C16.1932 22.419 15.9838 22.4458 15.7901 22.3877C15.6113 22.3569 15.4291 22.4187 15.306 22.5518C15.1828 22.6849 15.1354 22.8713 15.1799 23.0471L15.3626 23.7805H14.5917L14.7706 23.0471C14.8144 22.8715 14.7667 22.6857 14.6436 22.553C14.5205 22.4203 14.3388 22.3587 14.1604 22.3893C13.9664 22.4475 13.7567 22.4202 13.584 22.3143C13.4371 22.1938 13.3574 22.0099 13.3697 21.8203ZM8.57576 22.1733H9.64717C9.75166 23.2201 10.1638 24.2125 10.8316 25.0254L10.0725 25.7845C9.20895 24.7665 8.68556 23.5037 8.57576 22.1733ZM25.1553 16.2806H23.6018C23.8184 15.2294 24.6398 14.408 25.691 14.1914V15.7449C25.691 16.0407 25.4512 16.2806 25.1553 16.2806ZM10.8316 18.2498L10.0725 17.4907C9.20895 18.5087 8.68556 19.7714 8.57576 21.1019H9.64717C9.75166 20.0551 10.1638 19.0627 10.8316 18.2498ZM15.5124 28.0387V26.9673C16.5592 26.8627 17.5516 26.4506 18.3645 25.7829L19.1236 26.542C18.1055 27.4055 16.8429 27.9288 15.5124 28.0387ZM19.122 25.0254L19.8811 25.7844C20.7447 24.7665 21.2681 23.5037 21.3779 22.1733H20.3064C20.202 23.2201 19.7898 24.2125 19.122 25.0254ZM20.3064 21.1019C20.202 20.0551 19.7898 19.0627 19.122 18.2498L19.8811 17.4907C20.7447 18.5087 21.2681 19.7715 21.3779 21.1019H20.3064ZM19.2624 21.6376C19.2624 19.2707 17.3437 17.3519 14.9768 17.3519C12.6099 17.3519 10.6911 19.2707 10.6911 21.6376C10.6911 24.0045 12.6099 25.9232 14.9768 25.9232C17.3426 25.9205 19.2598 24.0034 19.2624 21.6376ZM17.0907 23.1038C16.8925 23.2835 16.6475 23.4035 16.3841 23.4499L16.4023 23.5228C16.4815 23.8426 16.4092 24.1811 16.2062 24.4406C16.0031 24.7001 15.692 24.8518 15.3624 24.8518H14.591C14.2611 24.8516 13.9497 24.6995 13.7468 24.4394C13.5439 24.1792 13.4721 23.8401 13.5523 23.5201L13.5694 23.4499C13.3057 23.4031 13.0606 23.2828 12.8623 23.1027C12.4771 22.767 12.2689 22.272 12.2981 21.7619C12.3806 20.2442 14.4243 18.6987 14.6553 18.5273C14.8483 18.4013 15.0975 18.4013 15.2906 18.5273C15.5231 18.6987 17.5668 20.2416 17.6477 21.7619C17.6788 22.2711 17.4733 22.7662 17.0907 23.1038ZM10.8302 26.542C11.8482 27.4055 13.1109 27.9288 14.4414 28.0387V26.9673C13.3946 26.8628 12.4022 26.4506 11.5893 25.7829L10.8302 26.542ZM13.388 14.3108C12.8761 14.4227 12.3774 14.5884 11.9004 14.8052C11.1122 13.8693 10.6835 12.6829 10.6912 11.4593C10.6912 8.80057 12.6139 6.63795 14.9769 6.63795C17.3399 6.63795 19.2625 8.80057 19.2625 11.4593C19.2703 12.6827 18.8416 13.8689 18.0535 14.8047C17.5764 14.5879 17.0778 14.4221 16.5658 14.3102C17.1873 14.0548 17.6098 13.4684 17.6554 12.798C17.6554 11.8755 16.7496 11.1292 15.5126 10.96V9.37C16.149 9.49423 16.584 9.81944 16.584 10.12C16.584 10.4158 16.8239 10.6556 17.1197 10.6556C17.4155 10.6556 17.6554 10.4158 17.6554 10.12C17.6554 9.19747 16.7495 8.45121 15.5125 8.28195V8.24498C15.5125 7.94917 15.2727 7.7093 14.9769 7.7093C14.6811 7.7093 14.4412 7.94911 14.4412 8.24498V8.28195C13.2042 8.45127 12.2984 9.19747 12.2984 10.12C12.2984 11.0425 13.2043 11.7887 14.4412 11.958V13.5485C13.8048 13.4243 13.3698 13.099 13.3698 12.7985C13.3698 12.5027 13.13 12.2628 12.8341 12.2628C12.5383 12.2628 12.2984 12.5027 12.2984 12.7985C12.3441 13.4689 12.7665 14.0553 13.388 14.3108ZM15.5124 12.0485V13.5485C16.1488 13.4247 16.5838 13.0996 16.5838 12.7985C16.5838 12.4975 16.1488 12.1728 15.5124 12.0485ZM18.3645 17.4923C17.5516 16.8246 16.5592 16.4125 15.5124 16.3079V15.2365C16.8429 15.3464 18.1056 15.8697 19.1236 16.7333L18.3645 17.4923ZM4.26269 14.1913V15.7449C4.26269 16.0407 4.50255 16.2805 4.79836 16.2805H6.35189C6.13529 15.2294 5.31388 14.408 4.26269 14.1913ZM19.0137 15.327C19.8749 14.2222 20.34 12.8601 20.3342 11.4593C20.3562 9.5856 19.5125 7.80657 18.0479 6.63795H22.5199C22.7587 8.2804 24.0488 9.57051 25.6913 9.8093V13.1092C24.0486 13.3478 22.7583 14.638 22.5194 16.2806H20.2159C19.8487 15.9226 19.4459 15.6031 19.0137 15.327ZM24.6198 11.4592C24.6198 10.5717 23.9003 9.85212 23.0127 9.85212C22.1252 9.85212 21.4056 10.5717 21.4056 11.4592C21.4056 12.3468 22.1251 13.0663 23.0127 13.0663C23.9003 13.0663 24.6198 12.3468 24.6198 11.4592ZM11.5893 17.4923C12.4021 16.8246 13.3946 16.4125 14.4414 16.3079V15.2365C13.1109 15.3464 11.8483 15.8697 10.8302 16.7333L11.5893 17.4923ZM14.4414 9.37V10.87C13.805 10.7457 13.37 10.421 13.37 10.12C13.37 9.8189 13.805 9.49375 14.4414 9.37ZM6.94133 11.9949C7.23718 11.9949 7.47701 11.7551 7.47701 11.4593C7.47701 11.1634 7.23718 10.9236 6.94133 10.9236C6.64549 10.9236 6.40566 11.1634 6.40566 11.4593C6.40566 11.7551 6.64549 11.9949 6.94133 11.9949ZM23.5481 11.4593C23.5481 11.7551 23.3083 11.9949 23.0124 11.9949C22.7166 11.9949 22.4767 11.7551 22.4767 11.4593C22.4767 11.1634 22.7166 10.9236 23.0124 10.9236C23.3083 10.9236 23.5481 11.1634 23.5481 11.4593ZM25.691 8.72716V7.17362C25.691 6.87776 25.4511 6.63795 25.1553 6.63795H23.6018C23.8184 7.68908 24.6398 8.51049 25.691 8.72716ZM4.79836 6.63788H6.35189C6.13523 7.68907 5.31382 8.51048 4.26269 8.72709V7.17355C4.26269 6.87775 4.50249 6.63788 4.79836 6.63788ZM6.99453 19.3294C7.03672 19.197 7.01797 19.0523 6.94414 18.9345C6.86973 18.8167 6.74727 18.7376 6.60958 18.7183L4.10943 18.2185C4.07662 18.2115 4.04322 18.2085 4.00924 18.2085C3.7526 18.2097 3.53932 18.4048 3.51413 18.6597C3.48893 18.9146 3.6612 19.1478 3.91197 19.1987L4.81195 19.3792C3.38288 20.1966 2.95516 21.2583 2.88309 22.0967C2.73543 23.8117 3.9858 25.5062 5.28538 26.156C5.44534 26.2357 5.63577 26.2246 5.78459 26.1256C5.93342 26.0271 6.01896 25.8566 6.00783 25.6779C5.9967 25.4992 5.89182 25.3404 5.73186 25.2607C4.75102 24.7703 3.77194 23.4162 3.87858 22.1823C3.95826 21.2671 4.61567 20.5235 5.79514 20.0003L5.52386 21.0872C5.47581 21.2618 5.5262 21.4493 5.65569 21.5764C5.78518 21.7036 5.97326 21.7505 6.14728 21.6989C6.3213 21.6473 6.45372 21.5061 6.49356 21.3292L6.99336 19.3294H6.99453ZM23.409 18.7183C23.2713 18.7376 23.1489 18.8167 23.0751 18.9345C23.0012 19.0523 22.9825 19.197 23.0247 19.3294L23.5245 21.3292C23.5965 21.5911 23.8643 21.7475 24.128 21.6819C24.3916 21.6163 24.5545 21.352 24.4948 21.0872L24.2235 20.0003C25.4029 20.5235 26.0609 21.2671 26.14 22.1823C26.2461 23.4162 25.2676 24.7703 24.2862 25.2607C24.0389 25.385 23.9393 25.6861 24.0635 25.9334C24.1877 26.1806 24.4889 26.2802 24.7362 26.156C26.0328 25.5062 27.2861 23.8117 27.1385 22.0967C27.0664 21.2583 26.6387 20.1966 25.2096 19.3792L26.1096 19.1987C26.3609 19.1478 26.5332 18.9146 26.5074 18.6585C26.4816 18.4025 26.266 18.2085 26.0094 18.2085C25.9754 18.2085 25.942 18.2115 25.9092 18.2185L23.409 18.7183Z" fill="white"/>
</svg>
