<svg width="44" height="44" viewBox="0 0 44 44" fill="none" xmlns="http://www.w3.org/2000/svg">
<path d="M38.0675 7.00517C34.801 3.45492 30.7807 1.23209 26.1086 0.399513C18.8924 -0.888629 12.4929 0.941476 7.09055 5.8427C3.31363 9.26728 0.997231 13.6737 0.204158 18.9362C0.149192 19.2975 0.109931 19.6667 0.0628177 20.028L0 20.5542V23.4761C0.0314089 23.6725 0.0549655 23.8767 0.0785221 24.0731C0.133488 24.5051 0.188453 24.9371 0.259123 25.3691C1.31132 31.6998 4.54643 36.7503 9.87808 40.3634C12.5164 42.1542 15.5631 43.3088 18.9317 43.8036C19.2929 43.8586 19.6541 43.8979 20.0153 43.9372L20.5571 44H23.4781C23.7294 43.9607 23.9728 43.9293 24.2241 43.8979C24.7659 43.8272 25.2998 43.7565 25.8338 43.6623C30.0504 42.9318 33.7802 41.0781 36.929 38.1641C40.8158 34.5667 43.1244 30.1525 43.7839 25.0549C44.6869 18.1743 42.7553 12.0949 38.0675 6.99732V7.00517ZM15.9086 20.8291C17.746 19.3368 19.5991 17.8601 21.4444 16.3835L22.0019 15.9358L26.3285 19.3918C26.9017 19.8473 27.4906 20.3186 28.056 20.7977C28.1188 20.8527 28.1816 21.0255 28.1659 21.0883C27.789 22.6514 27.3964 24.2066 27.0116 25.7618L26.4148 28.1653C26.3756 28.3302 26.3442 28.3538 26.1871 28.3538H26.1793C24.7894 28.3538 23.3996 28.3459 22.0098 28.3459C20.6199 28.3459 19.2301 28.3459 17.8402 28.3538C17.6832 28.3538 17.6439 28.3302 17.6047 28.1653L16.9765 25.644C16.5996 24.128 16.2148 22.6043 15.8458 21.0805C15.8301 21.0098 15.8772 20.8527 15.9164 20.8134L15.9086 20.8291ZM37.9419 13.7522C37.7063 14.7419 37.4786 15.7316 37.2509 16.7212C37.2116 16.8862 37.1645 16.9411 36.9839 17.004C34.5419 17.813 32.0998 18.622 29.6578 19.4546C29.4929 19.5096 29.4144 19.4939 29.273 19.3761C28.4486 18.7163 27.6241 18.0486 26.7996 17.3889C25.5747 16.407 24.3497 15.4331 23.1326 14.4434C23.0384 14.3727 22.952 14.1921 22.952 14.0664C22.9363 13.1553 22.9363 12.2441 22.9363 11.333V9.49506C22.9363 8.6232 22.9363 7.7435 22.9363 6.87164C22.9363 6.67528 22.9677 6.62815 23.1405 6.55746C24.2005 6.14117 25.2606 5.71703 26.3128 5.30074C27.5848 4.79805 28.849 4.2875 30.1211 3.79267C30.1761 3.76911 30.2467 3.76125 30.3174 3.76125C30.4038 3.76125 30.4901 3.77696 30.553 3.80838C33.7959 5.34001 36.4814 7.60997 38.5308 10.5633C38.5858 10.6418 38.6172 10.7989 38.5936 10.901C38.3738 11.8514 38.1539 12.8097 37.9262 13.7601L37.9419 13.7522ZM27.3178 2.8894C25.559 3.58845 23.8315 4.27965 22.0961 4.97085C22.049 4.98656 21.9626 4.99441 21.9234 4.97085C20.0624 4.24038 18.2093 3.50991 16.3405 2.77158L16.1991 2.7166C18.6333 1.64053 24.6324 1.63267 27.7497 2.7166L27.3178 2.8894ZM13.4822 3.77696C13.4822 3.77696 13.5765 3.7534 13.6314 3.7534C13.6864 3.7534 13.7492 3.76125 13.8042 3.78481C14.9663 4.24038 16.1284 4.69594 17.2906 5.15936C18.4998 5.63848 19.7091 6.10976 20.9183 6.58888C21.0518 6.64386 21.0753 6.67528 21.0753 6.84808C21.0753 7.7435 21.0753 8.64677 21.0753 9.54218V11.3644C21.0753 12.2599 21.0753 13.1474 21.0675 14.0428C21.0675 14.1842 20.9733 14.3806 20.879 14.4591C19.7876 15.3467 18.6883 16.2264 17.5968 17.0982C16.6545 17.8523 15.7123 18.6063 14.7779 19.3603C14.6208 19.4939 14.5187 19.5096 14.3146 19.4389C11.9118 18.6299 9.51688 17.8287 7.10625 17.0354C6.87854 16.9569 6.80002 16.8705 6.74505 16.6348C6.50948 15.5745 6.25821 14.5062 6.00694 13.4459C5.81064 12.5897 5.60648 11.7415 5.41017 10.8853C5.38662 10.7911 5.41017 10.6497 5.45729 10.5868C7.52242 7.60212 10.2314 5.31645 13.498 3.78481L13.4822 3.77696ZM2.08084 23.8296L3.48638 22.133C4.39724 21.0412 5.30024 19.9494 6.2111 18.8498C6.30533 18.7398 6.34459 18.7241 6.50163 18.7791C7.38893 19.0776 8.27623 19.3761 9.16353 19.6667C10.6869 20.1772 12.218 20.6878 13.7414 21.2062C13.8356 21.2376 13.9612 21.3868 13.9926 21.4889C14.6208 23.9081 15.2411 26.3901 15.8379 28.8565C15.8615 28.9664 15.8222 29.1549 15.7437 29.257C14.6601 30.7337 13.5137 32.2575 12.2495 33.9148C12.1866 33.9933 12.0531 34.064 11.9982 34.0562C9.97231 33.7498 7.84436 33.4042 5.29239 32.9801C5.19816 32.9644 5.07253 32.8937 5.03327 32.823C3.32934 30.1603 2.30855 27.2541 1.99446 24.183L1.97091 23.9945C1.99446 23.9474 2.03372 23.8846 2.08084 23.8296ZM13.7963 35.0144C14.9271 33.4749 16.1049 31.9119 17.2906 30.3567C17.3455 30.286 17.4869 30.2232 17.5811 30.2232C19.0338 30.2232 20.5021 30.2153 22.0019 30.2153C23.5017 30.2153 24.9072 30.2153 26.4305 30.2232C26.5248 30.2232 26.6583 30.286 26.6975 30.3331C27.7262 31.6684 28.7469 33.0194 29.7756 34.3861L30.3724 35.1794L29.7991 36.1926C28.7862 37.9756 27.7733 39.7428 26.7603 41.5023C26.7289 41.5572 26.6111 41.6279 26.4855 41.6593C23.643 42.3034 20.8084 42.3427 18.0601 41.7693C17.9737 41.7536 17.8716 41.6829 17.8245 41.6122C16.3012 39.248 14.9742 37.1744 13.7806 35.2736C13.7571 35.2265 13.7649 35.0694 13.7963 35.0301V35.0144ZM31.825 33.9698C30.655 32.446 29.4615 30.8672 28.1816 29.1549C28.1502 29.1157 28.1345 29.0136 28.1502 28.9429C28.7705 26.4294 29.3908 23.916 30.0347 21.4104C30.0504 21.3632 30.1368 21.269 30.1918 21.2454C32.7987 20.3657 35.2015 19.5646 37.5571 18.787C37.5571 18.787 37.5728 18.787 37.5807 18.787C37.6357 18.787 37.7299 18.8184 37.7613 18.8498C39.1354 20.4757 40.5331 22.1566 41.9308 23.8531C41.9779 23.9081 42.0015 24.0102 42.0329 24.1202C42.0486 24.1673 42.0565 24.2144 42.0722 24.2616C41.6481 27.4348 40.6352 30.2467 38.9627 32.8544C38.9234 32.9094 38.8213 32.9801 38.735 32.988C36.3322 33.3885 34.1336 33.7341 32.0292 34.064C31.9742 34.0719 31.8643 34.0247 31.825 33.9776V33.9698ZM39.0648 17.2161C39.3396 15.9672 39.6301 14.7262 39.9285 13.4773L40.0306 13.0374C41.0592 14.7262 42.0957 18.7398 42.1114 21.1276L41.7973 20.7506C40.9179 19.6902 40.0306 18.6377 39.1668 17.5695C39.0962 17.4831 39.0491 17.3103 39.0726 17.2161H39.0648ZM4.94689 17.2161C4.97045 17.3182 4.94689 17.4595 4.89978 17.5067C3.96537 18.6456 3.03095 19.7766 2.08869 20.9077L1.90024 21.1355C1.93164 18.6927 2.94458 14.7654 3.98107 13.061L4.59354 15.653C4.71918 16.1714 4.84482 16.6977 4.94689 17.2239V17.2161ZM7.03558 35.1637C7.63235 35.2579 8.19771 35.3443 8.75522 35.4307L9.17924 35.4935C10.043 35.6271 10.9067 35.7685 11.7705 35.9177C11.904 35.9413 12.0217 36.0041 12.0531 36.0512C12.9719 37.465 13.8749 38.8867 14.7857 40.3084L15.1312 40.8425C11.8568 39.7036 9.10071 37.8185 6.7529 35.1165L7.04344 35.1637H7.03558ZM37.2823 35.1087C35.0915 37.6457 32.4846 39.4994 29.3437 40.7561L30.019 39.57C30.6629 38.4468 31.3068 37.3237 31.9349 36.1926C32.0449 35.9884 32.1627 35.9177 32.4139 35.8784C33.6232 35.6978 34.8324 35.5014 36.0417 35.305L37.2823 35.1087Z" fill="#BDBDBD"/>
</svg>
