<svg width="30" height="30" viewBox="0 0 30 30" fill="none" xmlns="http://www.w3.org/2000/svg">
<path d="M7.63481 22.4996L9.20802 20.2702L7.82641 16.157L5.29813 15.4128L2.17398 17.7595C2.27417 19.4405 2.79272 21.0705 3.68274 22.4996H7.63481Z" fill="white"/>
<path d="M22.4994 20.4106C21.8631 20.5343 21.4278 20.8595 21.4278 21.1606C21.4278 21.4618 21.8625 21.7864 22.4994 21.9106V20.4106Z" fill="white"/>
<path d="M14.5626 20.8923H10.0797L8.50648 23.1218L9.8084 26.9936C10.6293 27.2074 11.4736 27.317 12.3214 27.3205C13.1669 27.3205 14.0095 27.2156 14.8298 27.0088L16.1364 23.1218L14.5632 20.8923H14.5626Z" fill="white"/>
<path d="M18.214 22.4996C18.214 25.1626 20.3726 27.3211 23.0356 27.3211C25.6987 27.3211 27.8572 25.1626 27.8572 22.4996C27.8572 19.8365 25.6987 17.678 23.0356 17.678C20.3744 17.6809 18.2176 19.8377 18.214 22.4996ZM20.3568 21.1601C20.3568 20.2379 21.2626 19.4914 22.4995 19.3221V19.2852C22.4995 18.9893 22.7392 18.7496 23.035 18.7496C23.3309 18.7496 23.5706 18.9893 23.5706 19.2852V19.3221C24.8075 19.4914 25.7133 20.2373 25.7133 21.1601C25.7133 21.456 25.4737 21.6957 25.1778 21.6957C24.8819 21.6957 24.6422 21.456 24.6422 21.1601C24.6422 20.8642 24.2075 20.5344 23.5706 20.4102V22.0004C24.8075 22.1697 25.7133 22.9156 25.7133 23.8384C25.7133 24.7612 24.8075 25.5071 23.5706 25.6765V25.7139C23.5706 26.0098 23.3309 26.2495 23.035 26.2495C22.7392 26.2495 22.4995 26.0098 22.4995 25.7139V25.677C21.2626 25.5077 20.3568 24.7618 20.3568 23.839C20.3568 23.5431 20.5964 23.3035 20.8923 23.3035C21.1882 23.3035 21.4278 23.5431 21.4278 23.839C21.4278 24.1349 21.8626 24.4648 22.4995 24.589V22.9988C21.2626 22.8294 20.3568 22.0836 20.3568 21.1607V21.1601Z" fill="white"/>
<path d="M1.6072 29.9994H28.3922C29.2799 29.9994 29.9994 29.2799 29.9994 28.3922V1.6072C29.9994 0.71952 29.2799 0 28.3922 0H1.6072C0.71952 0 0 0.71952 0 1.6072V28.3922C0 29.2799 0.71952 29.9994 1.6072 29.9994ZM6.42879 1.07166C6.72468 1.07166 6.96432 1.31131 6.96432 1.6072C6.96432 1.90309 6.72468 2.14274 6.42879 2.14274C6.13289 2.14274 5.89325 1.90309 5.89325 1.6072C5.89325 1.31131 6.13289 1.07166 6.42879 1.07166ZM4.28605 1.07166C4.58194 1.07166 4.82159 1.31131 4.82159 1.6072C4.82159 1.90309 4.58194 2.14274 4.28605 2.14274C3.99016 2.14274 3.75051 1.90309 3.75051 1.6072C3.75051 1.31131 3.99016 1.07166 4.28605 1.07166ZM2.14332 1.07166C2.43921 1.07166 2.67886 1.31131 2.67886 1.6072C2.67886 1.90309 2.43921 2.14274 2.14332 2.14274C1.84743 2.14274 1.60778 1.90309 1.60778 1.6072C1.60778 1.31131 1.84743 1.07166 2.14332 1.07166ZM1.60778 3.21439H28.3928C28.6887 3.21439 28.9283 3.45403 28.9283 3.74993C28.9283 4.04582 28.6887 4.28546 28.3928 4.28546H1.60778C1.31189 4.28546 1.07225 4.04582 1.07225 3.74993C1.07225 3.45403 1.31189 3.21439 1.60778 3.21439ZM12.322 5.89266C18.336 5.89032 23.2853 10.6246 23.5501 16.6327C26.1874 16.8559 28.353 18.81 28.844 21.4109C29.335 24.0118 28.0319 26.621 25.6577 27.7911C23.2835 28.9612 20.4201 28.4034 18.6577 26.4288C14.6663 29.1528 9.38127 29.0221 5.5288 26.1054C1.67634 23.1886 0.118359 18.1368 1.65759 13.5566C3.19681 8.97639 7.4899 5.89149 12.322 5.89325V5.89266Z" fill="white"/>
<path d="M17.1427 22.4995C17.1468 19.8605 18.9034 17.5455 21.444 16.8313L19.3241 15.2961L16.8216 16.144L15.4359 20.2689L17.0079 22.4995H17.1427Z" fill="white"/>
<path d="M22.4576 16.243C22.3082 14.5966 21.7598 13.0116 20.8598 11.6248L20.0348 14.487L22.4576 16.243Z" fill="white"/>
<path d="M8.88052 15.9295L10.1877 19.8206H14.455L15.7622 15.9295L12.3217 13.512L8.88052 15.9295Z" fill="white"/>
<path d="M4.3092 23.4622C5.40078 24.7969 6.81169 25.8334 8.41185 26.4762L7.39821 23.4622H4.3092Z" fill="white"/>
<path d="M24.5135 23.73C24.5135 23.4294 24.0788 23.1042 23.4419 22.98V24.4799C24.0782 24.3557 24.5135 24.0305 24.5135 23.73Z" fill="white"/>
<path d="M16.9861 23.4622L15.9684 26.4832C16.6422 26.2125 17.2844 25.8703 17.8843 25.4619C17.507 24.8485 17.2463 24.1705 17.1156 23.4627H16.9861V23.4622Z" fill="white"/>
<path d="M3.55919 11.667C2.6844 13.0668 2.16644 14.6593 2.05043 16.3058L4.43867 14.5122L3.55978 11.667H3.55919Z" fill="white"/>
<path d="M8.01893 15.026L11.6564 12.4696V9.81246L8.46658 7.57129C6.86114 8.20468 5.44203 9.23414 4.34166 10.5642L5.49007 14.2813L8.01835 15.026H8.01893Z" fill="white"/>
<path d="M12.7285 12.4698L16.3542 15.0186L18.8485 14.1737L19.9283 10.4337C18.852 9.16169 17.478 8.17616 15.9282 7.56445L12.7285 9.81265V12.4698Z" fill="white"/>
<path d="M14.6447 7.15523C13.0381 6.7527 11.3565 6.75504 9.75166 7.16343L12.192 8.87844L14.6447 7.15523Z" fill="white"/>
</svg>
