<svg width="20" height="20" viewBox="0 0 20 20" fill="none" xmlns="http://www.w3.org/2000/svg">
<path d="M12.5005 18.9581H7.50052C6.40052 18.9581 5.48386 18.8498 4.70886 18.6164C4.42552 18.5331 4.24219 18.2581 4.25886 17.9664C4.46719 15.4748 6.99219 13.5164 10.0005 13.5164C13.0088 13.5164 15.5255 15.4664 15.7422 17.9664C15.7672 18.2664 15.5838 18.5331 15.2922 18.6164C14.5172 18.8498 13.6005 18.9581 12.5005 18.9581ZM5.60052 17.5498C6.15052 17.6581 6.77552 17.7081 7.50052 17.7081H12.5005C13.2255 17.7081 13.8505 17.6581 14.4005 17.5498C13.9588 15.9498 12.1338 14.7664 10.0005 14.7664C7.86719 14.7664 6.04219 15.9498 5.60052 17.5498Z" fill="white"/>
<path d="M12.5 1.66663H7.5C3.33333 1.66663 1.66667 3.33329 1.66667 7.49996V12.5C1.66667 15.65 2.61667 17.375 4.88333 18.0166C5.06667 15.85 7.29167 14.1416 10 14.1416C12.7083 14.1416 14.9333 15.85 15.1167 18.0166C17.3833 17.375 18.3333 15.65 18.3333 12.5V7.49996C18.3333 3.33329 16.6667 1.66663 12.5 1.66663ZM10 11.8083C8.35 11.8083 7.01667 10.4666 7.01667 8.81663C7.01667 7.16664 8.35 5.83329 10 5.83329C11.65 5.83329 12.9833 7.16664 12.9833 8.81663C12.9833 10.4666 11.65 11.8083 10 11.8083Z" stroke="white" stroke-width="1.5" stroke-linecap="round" stroke-linejoin="round"/>
<path d="M9.99992 12.4334C8.00827 12.4334 6.3916 10.8084 6.3916 8.81671C6.3916 6.82506 8.00827 5.20837 9.99992 5.20837C11.9916 5.20837 13.6083 6.82506 13.6083 8.81671C13.6083 10.8084 11.9916 12.4334 9.99992 12.4334ZM9.99992 6.45837C8.69992 6.45837 7.6416 7.51672 7.6416 8.81671C7.6416 10.125 8.69992 11.1834 9.99992 11.1834C11.2999 11.1834 12.3582 10.125 12.3582 8.81671C12.3582 7.51672 11.2999 6.45837 9.99992 6.45837Z" fill="white"/>
</svg>
