<svg width="30" height="31" viewBox="0 0 30 31" fill="none" xmlns="http://www.w3.org/2000/svg">
<path d="M4.20338 30.307H15.2034C17.1353 30.3047 18.7015 28.739 18.7033 26.8072V21.9162C20.8924 20.4291 22.2031 17.9541 22.2031 15.3073C22.2031 12.6606 20.8924 10.1855 18.7033 8.69841V3.80749C18.7009 1.87562 17.1353 0.309961 15.2034 0.307617H4.20338C2.2715 0.309961 0.705261 1.87562 0.703503 3.80749V26.8077C0.705846 28.7396 2.2715 30.3059 4.20338 30.3076V30.307ZM21.2035 15.3067C21.1994 19.1711 18.0675 22.303 14.2032 22.3071C13.2381 22.3082 12.283 22.1073 11.4 21.7176C11.0783 21.5787 10.7683 21.4141 10.473 21.2254C9.79509 20.7977 9.19625 20.2557 8.70288 19.624V10.9901C9.19566 10.359 9.79391 9.81757 10.4707 9.38983C10.7683 9.20056 11.0801 9.03474 11.4041 8.89529C12.286 8.50622 13.2387 8.30582 14.2026 8.30699C18.0669 8.3111 21.1988 11.443 21.2029 15.3073L21.2035 15.3067ZM10.7033 8.12183C10.4396 8.24781 10.1836 8.38844 9.93571 8.54372C9.49449 8.8238 9.08199 9.14607 8.70346 9.50643V7.30619H10.7033V8.12183ZM8.70346 21.1065C9.08199 21.4662 9.49449 21.7879 9.93571 22.0674C10.1836 22.2233 10.4396 22.3645 10.7039 22.4911V23.3067H8.70405V21.1065H8.70346ZM14.4651 1.30607L14.1153 2.17738C13.9647 2.55766 13.5973 2.80669 13.1883 2.8061H6.21904C5.80946 2.80728 5.44149 2.55825 5.29031 2.17738L4.94167 1.30607H14.4645H14.4651ZM1.70313 3.80632C1.70723 2.55532 2.63713 1.50002 3.87759 1.33947L4.36158 2.54946C4.66335 3.31061 5.39988 3.80925 6.21845 3.80632H13.1877C14.0063 3.80925 14.7428 3.31002 15.0446 2.54946L15.5286 1.33947C16.7696 1.50061 17.6995 2.55532 17.7031 3.80632V8.12418C15.8356 7.20189 13.6793 7.05365 11.7029 7.71225V7.30678C11.7029 6.75423 11.2553 6.30656 10.7027 6.30656H8.70288C8.15033 6.30656 7.70266 6.75423 7.70266 7.30678V23.3073C7.70266 23.8598 8.15033 24.3075 8.70288 24.3075H10.7027C11.2553 24.3075 11.7029 23.8598 11.7029 23.3073V22.9018C13.6793 23.5604 15.8356 23.4122 17.7031 22.4899V26.8077C17.7013 28.1877 16.5833 29.3062 15.2028 29.308H4.20279C2.82288 29.3062 1.7043 28.1882 1.70255 26.8077V3.80749L1.70313 3.80632Z" fill="#828282"/>
<path fill-rule="evenodd" clip-rule="evenodd" d="M4.20327 27.8075H15.2033C15.4793 27.8075 15.7031 27.5837 15.7031 27.3077C15.7031 27.0317 15.4793 26.8079 15.2033 26.8079H4.20327C3.92729 26.8079 3.70346 27.0317 3.70346 27.3077C3.70346 27.5837 3.92729 27.8075 4.20327 27.8075Z" fill="#828282"/>
<path d="M13.7037 9.80694V10.3384C12.0103 10.53 10.7036 11.6744 10.7036 13.0572C10.7036 14.44 12.0103 15.5844 13.7037 15.776V19.2706C12.5781 19.103 11.7038 18.3864 11.7038 17.5573C11.7038 17.2813 11.48 17.0575 11.204 17.0575C10.928 17.0575 10.7042 17.2813 10.7042 17.5573C10.7042 18.9395 12.0109 20.0845 13.7042 20.2761V20.8075C13.7042 21.0835 13.9281 21.3074 14.2041 21.3074C14.48 21.3074 14.7039 21.0835 14.7039 20.8075V20.2761C16.3973 20.0845 17.7039 18.9401 17.7039 17.5573C17.7039 16.1744 16.3973 15.0301 14.7039 14.8385V11.3439C15.8295 11.5115 16.7037 12.2281 16.7037 13.0572C16.7037 13.3332 16.9276 13.557 17.2035 13.557C17.4795 13.557 17.7033 13.3332 17.7033 13.0572C17.7033 11.6749 16.3967 10.53 14.7033 10.3384V9.80694C14.7033 9.53096 14.4795 9.30713 14.2035 9.30713C13.9275 9.30713 13.7037 9.53096 13.7037 9.80694ZM11.7038 13.0572C11.7038 12.2281 12.5781 11.5115 13.7037 11.3439V14.7699C12.5781 14.6023 11.7038 13.8857 11.7038 13.0566V13.0572ZM16.7037 17.5573C16.7037 18.3864 15.8295 19.103 14.7039 19.2706V15.8446C15.8295 16.0121 16.7037 16.7288 16.7037 17.5579V17.5573Z" fill="#828282"/>
<path fill-rule="evenodd" clip-rule="evenodd" d="M23.2032 15.3074C23.2032 15.5834 23.4271 15.8072 23.7031 15.8072H28.703C28.9789 15.8072 29.2028 15.5834 29.2028 15.3074C29.2028 15.0314 28.9789 14.8076 28.703 14.8076H23.7031C23.4271 14.8076 23.2032 15.0314 23.2032 15.3074Z" fill="#828282"/>
<path fill-rule="evenodd" clip-rule="evenodd" d="M23.2032 13.307H27.2035C27.4794 13.307 27.7033 13.0832 27.7033 12.8072C27.7033 12.5312 27.4794 12.3074 27.2035 12.3074H23.2032C22.9272 12.3074 22.7034 12.5312 22.7034 12.8072C22.7034 13.0832 22.9272 13.307 23.2032 13.307Z" fill="#828282"/>
<path fill-rule="evenodd" clip-rule="evenodd" d="M23.2031 18.3075H27.2033C27.4793 18.3075 27.7031 18.0837 27.7031 17.8077C27.7031 17.5317 27.4793 17.3079 27.2033 17.3079H23.2031C22.9271 17.3079 22.7032 17.5317 22.7032 17.8077C22.7032 18.0837 22.9271 18.3075 23.2031 18.3075Z" fill="#828282"/>
</svg>
