<svg width="44" height="44" viewBox="0 0 44 44" fill="none" xmlns="http://www.w3.org/2000/svg">
<path d="M40.2358 21.4C40.2358 26.4813 40.2358 31.5548 40.2358 36.6361C40.2358 39.0199 38.2911 40.8705 35.9072 40.7215C35.4759 40.698 35.0447 40.5569 34.6369 40.4157C33.6175 40.055 32.6059 39.6708 31.5944 39.2787C30.5671 38.8866 29.5948 38.9415 28.5989 39.4355C27.0071 40.2197 25.3996 40.9568 23.7685 41.6547C22.6237 42.1487 21.4396 42.1016 20.2947 41.5841C18.8362 40.9254 17.3855 40.2589 15.927 39.5923C14.7586 39.0513 13.5667 39.0042 12.3512 39.3728C11.1044 39.7492 9.88115 40.204 8.61082 40.4784C6.36814 40.9646 4 39.0042 4 36.7145C4 26.4813 4 16.2402 4 6.00703C4 3.91334 5.61536 2.20387 7.71689 2.0392C7.93645 2.02352 8.15602 2.00784 8.37558 2.00784C17.5423 2.00784 26.7091 2.02352 35.8759 2C38.2519 2 39.5614 3.39579 39.9927 4.68964C40.1495 5.16014 40.2201 5.66984 40.2279 6.16386C40.2436 11.2452 40.2358 16.3186 40.2358 21.4ZM22.0591 18.5535C18.695 18.5535 15.331 18.5535 11.9592 18.5535C11.0652 18.5535 10.5398 19.071 10.4614 19.9728C10.383 20.8275 10.9006 21.5333 11.7318 21.6901C11.9435 21.7293 12.1709 21.745 12.3904 21.745C18.8832 21.745 25.3839 21.745 31.8767 21.745C32.0962 21.745 32.3472 21.7764 32.5275 21.6823C32.8804 21.5019 33.2646 21.3137 33.4999 21.0157C33.8606 20.5609 33.892 19.9963 33.594 19.4631C33.2725 18.8985 32.802 18.5456 32.1119 18.5456C28.7636 18.5456 25.4152 18.5456 22.0591 18.5456V18.5535ZM22.1218 13.6761C22.9844 13.6761 23.8548 13.6761 24.7174 13.6761C27.2188 13.6761 29.7203 13.6761 32.2217 13.6761C33.0372 13.6761 33.641 13.135 33.7586 12.3587C33.8841 11.551 33.4999 10.8453 32.7471 10.61C32.4413 10.5159 32.0962 10.4924 31.7747 10.4924C25.3447 10.4924 18.9068 10.4924 12.4767 10.4924C12.2415 10.4924 11.9984 10.4924 11.771 10.5473C11.1044 10.7119 10.6653 11.1432 10.5085 11.8098C10.2889 12.7586 11.1123 13.6839 12.1709 13.6839C15.4879 13.6839 18.8048 13.6839 22.1296 13.6839L22.1218 13.6761ZM17.1189 26.5911C15.4565 26.5911 13.7862 26.5832 12.1238 26.5911C11.1201 26.5911 10.4301 27.2968 10.4536 28.2456C10.4771 29.2415 11.0731 29.7983 12.1238 29.8061C15.4094 29.8061 18.695 29.8061 21.9807 29.8061C23.0236 29.8061 23.7293 29.1396 23.7293 28.1751C23.7293 27.1635 23.0942 26.5911 21.9807 26.5911C20.3653 26.5911 18.7421 26.5911 17.1267 26.5911H17.1189Z" fill="white"/>
</svg>
