<svg width="30" height="30" viewBox="0 0 30 30" fill="none" xmlns="http://www.w3.org/2000/svg">
<path d="M27.4638 27.9997V19.9989C27.4638 18.8944 26.5685 17.9985 25.4635 17.9985H22.2977C24.2324 16.1248 25.3633 13.5725 25.4517 10.8802C25.4635 10.7507 25.4635 10.627 25.4635 10.4975C25.4588 6.08261 22.6973 2.14052 18.5502 0.627084C16.2322 -0.209028 13.6952 -0.209028 11.3773 0.627084C7.22895 2.13935 4.46691 6.08203 4.46163 10.4975C4.46163 10.627 4.46163 10.7518 4.47218 10.8538C4.55362 13.5555 5.68563 16.1183 7.62738 17.9985H4.46163C3.35717 17.9985 2.46129 18.8938 2.46129 19.9989V27.9997C2.46129 29.1041 3.35658 30 4.46163 30H25.4635C26.5679 30 27.4638 29.1047 27.4638 27.9997ZM18.9333 17.9985L19.4372 16.4986H22.3212C21.8676 17.0552 21.3526 17.5585 20.7849 17.9985H18.9333ZM12.047 17.9985L11.4019 16.0796L12.8708 13.9984H17.0549L18.5238 16.0796L17.8787 17.9985H12.047ZM14.9625 7.10857L18.1746 9.3673L16.9529 12.9983H12.9716L11.7499 9.3673L14.962 7.10857H14.9625ZM23.0336 15.4984H19.3371L17.8681 13.416L19.1595 9.57706L21.5184 8.88274L24.4369 11.0747C24.3455 12.6432 23.8627 14.1637 23.0331 15.4978L23.0336 15.4984ZM23.0225 5.48146C23.8451 6.78982 24.3309 8.28158 24.4358 9.82373L22.1999 8.14389L23.0231 5.48146H23.0225ZM22.2901 4.46371L21.2196 7.92827L18.8566 8.62376L15.4629 6.2373V3.7565L18.4441 1.66124C19.9452 2.25009 21.2694 3.21452 22.2907 4.46312L22.2901 4.46371ZM17.2465 1.28097L14.9625 2.88582L12.6786 1.28039C14.1792 0.913601 15.7465 0.913601 17.2471 1.28039L17.2465 1.28097ZM11.481 1.66182L14.4622 3.75709V6.23788L11.0685 8.62435L8.70547 7.92886L7.63499 4.46371C8.65567 3.21569 9.98044 2.25126 11.4816 1.66241L11.481 1.66182ZM7.72522 8.14389L5.48934 9.82373C5.59422 8.28158 6.07936 6.78924 6.90259 5.48087L7.72581 8.14389H7.72522ZM5.48817 11.0747L8.40665 8.88274L10.7656 9.57706L12.057 13.416L10.588 15.4984H6.89146C6.06296 14.1637 5.58075 12.6432 5.48817 11.0753V11.0747ZM7.60394 16.498H10.4879L10.9917 17.998H9.1414C8.57364 17.5579 8.05745 17.0546 7.60394 16.498ZM3.46146 27.9991V19.9983C3.46146 19.4458 3.90911 18.9981 4.46163 18.9981H25.4635C26.016 18.9981 26.4636 19.4458 26.4636 19.9983V27.9991C26.4636 28.5516 26.016 28.9992 25.4635 28.9992H4.46163C3.90911 28.9992 3.46146 28.5516 3.46146 27.9991Z" fill="#828282"/>
<path fill-rule="evenodd" clip-rule="evenodd" d="M11.4625 20.999C11.1865 20.999 10.9627 21.2228 10.9627 21.4988V26.4991C10.9627 26.7751 11.1865 26.9989 11.4625 26.9989C11.7385 26.9989 11.9623 26.7751 11.9623 26.4991V21.4988C11.9623 21.2228 11.7385 20.999 11.4625 20.999Z" fill="#828282"/>
<path fill-rule="evenodd" clip-rule="evenodd" d="M18.149 21.0347C18.0259 20.9855 17.8882 20.9873 17.7663 21.0394C17.6445 21.0916 17.5484 21.19 17.4992 21.3136L15.9629 25.1538L14.4272 21.3136C14.3246 21.057 14.0334 20.9322 13.7768 21.0353C13.5202 21.1384 13.3954 21.4291 13.4985 21.6857L15.4988 26.686C15.5744 26.8764 15.7584 27.0012 15.9635 27.0012C16.1685 27.0012 16.3525 26.8764 16.4281 26.686L18.4284 21.6857C18.4777 21.5626 18.4765 21.425 18.4237 21.3025C18.371 21.18 18.2732 21.0839 18.1495 21.0347H18.149Z" fill="#828282"/>
<path fill-rule="evenodd" clip-rule="evenodd" d="M23.4632 21.9991C23.7392 21.9991 23.963 21.7753 23.963 21.4993C23.963 21.2233 23.7392 20.9995 23.4632 20.9995H20.4627C20.1867 20.9995 19.9629 21.2233 19.9629 21.4993V26.4996C19.9629 26.7755 20.1867 26.9994 20.4627 26.9994H23.4632C23.7392 26.9994 23.963 26.7755 23.963 26.4996C23.963 26.2236 23.7392 25.9998 23.4632 25.9998H20.9631V24.4998H23.4632C23.7392 24.4998 23.963 24.276 23.963 24C23.963 23.7241 23.7392 23.5002 23.4632 23.5002H20.9631V22.0003H23.4632V21.9991Z" fill="#828282"/>
<path fill-rule="evenodd" clip-rule="evenodd" d="M9.46224 25.9998H6.9621V21.4993C6.9621 21.2233 6.73828 20.9995 6.46231 20.9995C6.18634 20.9995 5.96252 21.2233 5.96252 21.4993V26.4996C5.96252 26.7755 6.18634 26.9994 6.46231 26.9994H9.46283C9.7388 26.9994 9.96262 26.7755 9.96262 26.4996C9.96262 26.2236 9.7388 25.9998 9.46283 25.9998H9.46224Z" fill="#828282"/>
</svg>
