<svg width="44" height="44" viewBox="0 0 44 44" fill="none" xmlns="http://www.w3.org/2000/svg">
<path d="M8 10.807H34.3899C34.3899 11.0165 34.3899 11.2027 34.3899 11.389C34.3899 19.9477 34.3899 28.5063 34.3899 37.0573C34.3899 39.7032 32.4966 41.5888 29.8429 41.5965C24.0698 41.5965 18.2968 41.5965 12.5238 41.5965C9.90883 41.5965 8 39.6955 8 37.0883C8 28.5141 8 19.9399 8 11.3657C8 11.195 8 11.0243 8 10.8148V10.807ZM23.0922 28.5063C23.0456 28.4831 22.9913 28.452 22.9447 28.4287C22.9447 28.2425 22.9447 28.064 22.9447 27.8778C22.9447 25.0922 22.9447 22.3143 22.9447 19.5286C22.9447 18.6829 22.5723 18.1164 21.8739 17.8914C20.5781 17.4646 19.4452 18.2871 19.4374 19.6993C19.4297 22.516 19.4374 25.3327 19.4374 28.1494C19.4374 28.3201 19.4374 28.4986 19.4374 28.6693C18.8555 28.2348 18.4132 27.7537 17.9476 27.3036C17.2182 26.5898 16.1785 26.5742 15.5034 27.2415C14.8206 27.9089 14.8128 28.9486 15.5267 29.6858C16.4733 30.6635 17.42 31.6334 18.4054 32.5568C20.0194 34.0699 22.2231 34.0466 23.8215 32.5102C24.7759 31.5946 25.6993 30.6479 26.6305 29.7091C27.3521 28.9719 27.3676 27.9477 26.7003 27.2648C26.0252 26.5665 24.9699 26.582 24.2173 27.3114C23.8215 27.6916 23.4646 28.1106 23.0844 28.5063H23.0922Z" fill="white"/>
<path d="M5.51407 18.9311C3.95442 18.3104 2.71291 17.3715 1.75073 16.0834C-2.23763 10.7837 0.967026 3.03976 7.53929 2.09311C7.9583 2.03103 8.39283 2 8.8196 2C17.6188 2 26.4103 2 35.2095 2C40.2687 2 44.2726 6.21338 43.9855 11.2726C43.7915 14.6634 42.1154 17.1154 39.1203 18.6751C38.9418 18.7682 38.7556 18.8303 38.515 18.9389C38.515 18.6828 38.515 18.4966 38.515 18.3104C38.515 15.8894 38.515 13.4685 38.515 11.0398C38.515 10.5975 38.4685 10.1474 38.3909 9.7129C38.1736 8.47139 37.1416 7.88167 35.6751 7.56353C35.3802 7.50146 35.0621 7.50922 34.7517 7.50922C26.2473 7.50922 17.743 7.50922 9.23861 7.50922C9.12222 7.50922 8.99807 7.50922 8.88168 7.50922C6.63143 7.4549 5.6615 8.68089 5.55287 10.9389C5.43648 13.3909 5.52959 15.8506 5.52183 18.3104C5.52183 18.4966 5.52183 18.6828 5.52183 18.9311H5.51407Z" fill="white"/>
</svg>
