<svg width="44" height="44" viewBox="0 0 44 44" fill="none" xmlns="http://www.w3.org/2000/svg">
<path d="M27.4302 26.5552C26.8561 27.6494 26.8096 28.7513 27.5 29.8067C28.0818 30.6913 29.1213 30.6913 29.7574 29.8532C30.0289 29.4963 30.2073 29.0928 30.347 28.6659C30.5254 28.1227 30.8667 27.8356 31.3166 27.8434C31.7433 27.8434 32.0691 28.1305 32.2475 28.6582C32.4104 29.1393 32.5966 29.5972 32.9457 29.9774C33.574 30.6603 34.4196 30.6448 35.0169 29.9231C35.4358 29.4187 35.5832 28.8134 35.591 28.0684C35.6142 27.2226 35.1953 26.4543 34.6446 25.7404C33.7214 24.5453 32.5966 23.5442 31.5416 22.4811C31.3554 22.2949 31.2236 22.3259 31.0529 22.5044C30.3315 23.2416 29.5945 23.9555 28.8731 24.6928C28.3223 25.2515 27.8025 25.849 27.4379 26.5552H27.4302Z" fill="white"/>
<path d="M43.8759 13.231C43.4182 11.6868 42.0451 10.6469 40.4238 10.6469C36.5141 10.6469 32.6121 10.6469 28.7024 10.6547C28.3378 10.6547 28.268 10.5616 28.268 10.2123C28.2835 8.00846 28.2757 5.80459 28.2757 3.60071C28.2757 1.55203 26.7165 0 24.6685 0C17.6559 0 10.6432 0 3.63046 0C1.5825 0 0.0232713 1.55978 0.0232713 3.60846C0.0232713 13.2 0.0465444 22.7915 0 32.3908C0 34.1601 1.27221 36.17 3.78561 36.1623C8.46333 36.1545 13.1488 36.1623 17.8265 36.1623C18.5092 36.1623 18.5014 36.1623 18.5092 36.8607C18.5247 38.1799 18.4161 39.4991 18.5557 40.8106C18.7264 42.4092 19.6728 43.4102 21.1855 43.8991C21.263 43.9224 21.3639 43.8914 21.4027 44H40.9901C41.1065 43.8293 41.3004 43.9146 41.4478 43.8681C42.6114 43.4801 43.3949 42.7196 43.8216 41.5788C43.8759 41.4392 43.8526 41.2684 44 41.1676V13.588C43.8371 13.5182 43.9147 13.363 43.8759 13.2543V13.231ZM39.5317 36.4882C39.5317 36.9305 39.5395 37.3728 39.5317 37.8152C39.5162 38.3429 39.1206 38.7309 38.6086 38.7386C38.0656 38.7464 37.6544 38.3584 37.6467 37.8074C37.6389 36.9228 37.6389 36.0303 37.6467 35.1457C37.6467 34.618 38.0578 34.2222 38.5698 34.2067C39.0896 34.1912 39.5162 34.6102 39.5317 35.1534C39.5395 35.5958 39.5317 36.0381 39.5317 36.4804V36.4882ZM32.0148 20.3161C33.4034 21.6974 34.8851 22.9933 36.0952 24.5453C36.9252 25.6007 37.4993 26.7647 37.4683 28.0607C37.4683 29.2169 37.189 30.187 36.5374 31.0406C35.3117 32.6547 33.0698 32.8176 31.6657 31.3587C31.3477 31.0328 31.2158 31.0483 30.9133 31.3665C29.4704 32.8642 27.1199 32.6547 25.9485 30.8931C24.7772 29.1393 24.8315 27.3157 25.8399 25.4998C26.5691 24.1961 27.6551 23.1873 28.6946 22.1397C29.2997 21.5266 29.9203 20.9369 30.5409 20.3393C31.0374 19.866 31.5339 19.8272 32.0148 20.3083V20.3161ZM24.7073 15.885C25.2659 15.885 25.6537 16.2885 25.677 16.9171C25.6925 17.3284 25.677 17.7474 25.677 18.1665C25.677 18.57 25.6848 18.9658 25.677 19.3693C25.6615 19.9824 25.2426 20.4247 24.7151 20.4247C24.1876 20.4247 23.7609 19.9824 23.7454 19.3771C23.7299 18.5623 23.7299 17.7474 23.7454 16.9249C23.7609 16.2885 24.1488 15.8928 24.7073 15.885ZM29.2687 34.1757L30.8822 32.7788C31.0607 32.6236 31.3244 32.6236 31.5028 32.7788L33.1164 34.1757C33.4499 34.4628 33.2482 35.006 32.8061 35.006H29.5867C29.1523 35.006 28.9429 34.4628 29.2764 34.1757H29.2687ZM18.4859 30.9009C14.5529 30.9009 10.6199 30.9009 6.67912 30.9009C6.46191 30.9009 6.25246 30.8854 6.04301 30.8543C5.58533 30.7767 5.29055 30.443 5.25952 29.9697C5.25176 29.8533 5.25952 29.7446 5.25952 29.6282C5.25952 21.9146 5.25952 14.2011 5.25952 6.47972C5.25952 5.52522 5.56206 5.23033 6.52398 5.23033C11.6206 5.23033 16.7094 5.23033 21.8061 5.23033C22.737 5.23033 23.0395 5.53298 23.0395 6.46419C23.0395 7.85326 23.0395 9.24233 23.0395 10.6314C22.4111 10.6702 21.775 10.5926 21.1544 10.74C21.1544 9.66913 21.1467 8.59047 21.1544 7.51957C21.1544 7.24021 21.1079 7.11605 20.7898 7.11605C16.3681 7.12381 11.9464 7.12381 7.52468 7.11605C7.21438 7.11605 7.14457 7.20917 7.14457 7.50406C7.14457 14.5347 7.15233 21.5654 7.14457 28.5961C7.14457 28.9531 7.26869 29.0152 7.58674 29.0152C11.225 29.0074 14.8554 29.0074 18.4937 29.0074C18.5169 29.3256 18.5324 29.636 18.5324 29.9541C18.5324 30.2723 18.5169 30.5827 18.5014 30.9009H18.4859Z" fill="white"/>
</svg>
