<svg width="30" height="31" viewBox="0 0 30 31" fill="none" xmlns="http://www.w3.org/2000/svg">
<path fill-rule="evenodd" clip-rule="evenodd" d="M11.0077 12.8969C11.0077 13.7851 11.9446 14.5527 13.1505 14.7322V11.0615C11.9446 11.241 11.0077 12.0087 11.0077 12.8969Z" fill="white"/>
<path fill-rule="evenodd" clip-rule="evenodd" d="M14.2214 19.5538C15.4273 19.3743 16.3642 18.6066 16.3642 17.7184C16.3642 16.8302 15.4273 16.0625 14.2214 15.8831V19.5538Z" fill="white"/>
<path d="M13.6854 7.80763C12.6524 7.80589 11.6305 8.02033 10.6854 8.43707C10.3383 8.58664 10.0039 8.76383 9.68518 8.96688C8.9604 9.42567 8.32015 10.0059 7.79248 10.6822V19.9329C8.32045 20.609 8.96109 21.1889 9.68622 21.6472C10.0027 21.8492 10.3348 22.0254 10.6794 22.1743C11.6262 22.593 12.6501 22.8087 13.6853 22.8075C17.8274 22.8075 21.1853 19.4497 21.1853 15.3076C21.1853 11.1654 17.8275 7.80763 13.6854 7.80763ZM17.4353 17.7184C17.4353 19.1996 16.0355 20.4259 14.2211 20.6311V21.2005C14.2211 21.4964 13.9812 21.7362 13.6854 21.7362C13.3895 21.7362 13.1497 21.4964 13.1497 21.2005V20.6311C11.3352 20.4259 9.93537 19.1996 9.93537 17.7184C9.93537 17.4225 10.1752 17.1827 10.4711 17.1827C10.7669 17.1827 11.0068 17.4225 11.0068 17.7184C11.0068 18.6066 11.9437 19.3742 13.1496 19.5537V15.8096C11.3352 15.6044 9.93532 14.3782 9.93532 12.8969C9.93532 11.4157 11.3352 10.1894 13.1496 9.98425V9.41477C13.1496 9.11892 13.3895 8.87907 13.6853 8.87907C13.9812 8.87907 14.221 9.11892 14.221 9.41477V9.98425C16.0355 10.1894 17.4353 11.4157 17.4353 12.8969C17.4353 13.1928 17.1955 13.4326 16.8996 13.4326C16.6037 13.4326 16.3639 13.1928 16.3639 12.8969C16.3639 12.0087 15.427 11.2411 14.2211 11.0616V14.8057C16.0355 15.0109 17.4353 16.2371 17.4353 17.7184Z" fill="white"/>
<path fill-rule="evenodd" clip-rule="evenodd" d="M9.93526 23.0053C9.65254 22.8703 9.37778 22.7192 9.11244 22.5526C8.63999 22.2528 8.1979 21.9076 7.79246 21.522V23.8791H9.93526V23.0053Z" fill="white"/>
<path fill-rule="evenodd" clip-rule="evenodd" d="M7.79246 9.09341C8.1983 8.70813 8.64054 8.36315 9.11299 8.06324C9.37828 7.8967 9.65278 7.74535 9.93531 7.61006V6.73633H7.79251L7.79246 9.09341Z" fill="white"/>
<path fill-rule="evenodd" clip-rule="evenodd" d="M5.13059 1.91476H12.5974C13.0359 1.9163 13.4307 1.64907 13.5922 1.24139L13.9656 0.307617H3.76235L4.13735 1.24139C4.2987 1.64852 4.69261 1.9156 5.13059 1.91476Z" fill="white"/>
<path d="M11.0069 23.4446V23.8791C11.0069 24.4708 10.5272 24.9505 9.93546 24.9505H7.79262C7.20091 24.9505 6.72117 24.4708 6.72117 23.8791V6.73624C6.72117 6.14453 7.20086 5.66479 7.79262 5.66479H9.93546C10.5272 5.66479 11.0069 6.14448 11.0069 6.73624V7.17071C13.1242 6.46504 15.4345 6.62372 17.4355 7.61211V2.98625C17.4313 1.64569 16.4351 0.515459 15.1056 0.343018L14.5871 1.63945C14.2639 2.45481 13.4745 2.98912 12.5974 2.98625H5.13067C4.2536 2.98912 3.46419 2.45481 3.141 1.63945L2.62244 0.343018C1.29302 0.515459 0.296802 1.64569 0.292642 2.98625V27.6291C0.294424 29.1076 1.4926 30.3059 2.97123 30.3077H14.7569C16.2355 30.3059 17.4337 29.1077 17.4355 27.6291V23.0032C15.4345 23.9916 13.1242 24.1503 11.0069 23.4446ZM15.2926 28.1648C15.2926 28.4606 15.0527 28.7005 14.7569 28.7005H2.97118C2.67533 28.7005 2.43548 28.4606 2.43548 28.1648C2.43548 27.8689 2.67533 27.6291 2.97118 27.6291H14.7569C15.0528 27.6291 15.2926 27.8689 15.2926 28.1648Z" fill="white"/>
<path fill-rule="evenodd" clip-rule="evenodd" d="M29.2215 14.772H23.8644C23.5685 14.772 23.3287 15.0118 23.3287 15.3077C23.3287 15.6035 23.5685 15.8434 23.8644 15.8434H29.2215C29.5173 15.8434 29.7572 15.6035 29.7572 15.3077C29.7572 15.0118 29.5174 14.772 29.2215 14.772Z" fill="white"/>
<path fill-rule="evenodd" clip-rule="evenodd" d="M23.3285 13.1647H27.6142C27.9101 13.1647 28.1499 12.9248 28.1499 12.629C28.1499 12.3331 27.9101 12.0933 27.6142 12.0933H23.3285C23.0326 12.0933 22.7928 12.3331 22.7928 12.629C22.7928 12.9248 23.0326 13.1647 23.3285 13.1647Z" fill="white"/>
<path fill-rule="evenodd" clip-rule="evenodd" d="M27.6142 17.4504H23.3285C23.0326 17.4504 22.7928 17.6903 22.7928 17.9861C22.7928 18.282 23.0326 18.5218 23.3285 18.5218H27.6142C27.9101 18.5218 28.1499 18.282 28.1499 17.9861C28.1499 17.6903 27.9101 17.4504 27.6142 17.4504Z" fill="white"/>
</svg>
