<svg width="30" height="30" viewBox="0 0 30 30" fill="none" xmlns="http://www.w3.org/2000/svg">
<path d="M27.8838 24.9178C26.5813 24.3545 22.9276 23.3677 23.1962 21.6048C23.3874 20.3488 25.7803 20.7675 25.8214 19.5377C25.847 18.7057 24.6636 18.5455 23.9609 18.5039C19.2424 17.9822 14.0743 17.8374 9.42312 18.8034V22.5708C11.361 23.6047 10.4206 25.8421 7.87292 25.8421C5.32518 25.8421 4.39494 23.5785 6.32272 22.5708V19.6407C4.00248 20.4161 0.2452 22.0182 0.120731 24.473C-0.0186259 27.3209 4.05906 28.4935 6.51865 28.9848L6.68421 29.0211C10.5272 29.8513 14.465 30.1556 18.3902 29.9258C21.4626 29.7495 24.5142 29.31 27.5121 28.6132C28.68 28.2773 30.6959 27.6621 29.7139 26.2048C29.2321 25.6182 28.5996 25.1733 27.8843 24.9178H27.8838ZM20.7932 27.3935C19.6516 27.3935 18.7261 26.468 18.7261 25.3264C18.7261 24.1847 19.6516 23.2593 20.7932 23.2593C21.9349 23.2593 22.8603 24.1847 22.8603 25.3264C22.8603 26.468 21.9349 27.3935 20.7932 27.3935Z" fill="white"/>
<path d="M7.35577 1.22239V23.7762C7.35577 24.0614 7.58744 24.2931 7.87271 24.2931C8.15797 24.2931 8.38964 24.0614 8.38964 23.7762C8.38964 -0.457038 8.45694 1.10388 8.26577 0.886505C8.12522 0.722136 7.89713 0.662582 7.69405 0.73762C7.49097 0.812658 7.35637 1.00621 7.35637 1.22239H7.35577Z" fill="white"/>
<path d="M20.9011 10.1632C21.0143 10.0638 21.078 9.92083 21.0768 9.77016V2.27645C21.0756 2.08707 20.9714 1.91317 20.8041 1.82324C20.6367 1.73332 20.4342 1.74285 20.2758 1.84707C16.4876 4.20899 12.6993 -1.39328 8.90571 0.33796C9.08854 0.596425 9.1874 0.904917 9.18979 1.22175V9.01024C13.0918 7.58928 16.9985 13.5584 20.9005 10.1626L20.9011 10.1632Z" fill="white"/>
</svg>
