<svg width="30" height="30" viewBox="0 0 30 30" fill="none" xmlns="http://www.w3.org/2000/svg">
<path d="M27.5 4.00024H2.50032C2.22435 4.00024 2.00053 4.22407 2.00053 4.50004C2.00053 4.77601 2.22435 4.99984 2.50032 4.99984H27.5C27.776 4.99984 27.9998 4.77601 27.9998 4.50004C27.9998 4.22407 27.776 4.00024 27.5 4.00024Z" fill="#828282"/>
<path d="M3.00081 2.99984C3.27684 2.99984 3.50061 2.77607 3.50061 2.50004C3.50061 2.22401 3.27684 2.00024 3.00081 2.00024C2.72478 2.00024 2.50102 2.22401 2.50102 2.50004C2.50102 2.77607 2.72478 2.99984 3.00081 2.99984Z" fill="#828282"/>
<path d="M5.00037 2.99984C5.2764 2.99984 5.50017 2.77607 5.50017 2.50004C5.50017 2.22401 5.2764 2.00024 5.00037 2.00024C4.72434 2.00024 4.50058 2.22401 4.50058 2.50004C4.50058 2.77607 4.72434 2.99984 5.00037 2.99984Z" fill="#828282"/>
<path d="M7.00041 2.99984C7.27644 2.99984 7.50021 2.77607 7.50021 2.50004C7.50021 2.22401 7.27644 2.00024 7.00041 2.00024C6.72438 2.00024 6.50062 2.22401 6.50062 2.50004C6.50062 2.77607 6.72438 2.99984 7.00041 2.99984Z" fill="#828282"/>
<path d="M27.4999 0H2.50015C1.12029 0.00175778 0.00175778 1.1197 0 2.50014V27.4998C0.00175778 28.8797 1.11971 29.9982 2.50015 30H27.4999C28.8797 29.9982 29.9982 28.8803 30 27.4998V2.50014C29.9982 1.12029 28.8803 0.00175778 27.4999 0ZM28.9998 27.4993C28.9998 28.3278 28.3284 28.9992 27.4999 28.9992H2.50015C1.67165 28.9992 1.00018 28.3278 1.00018 27.4993V2.49956C1.00018 1.67106 1.67165 0.999586 2.50015 0.999586H27.4999C28.3284 0.999586 28.9998 1.67106 28.9998 2.49956V27.4993Z" fill="#828282"/>
<path d="M22.9791 16.5242C22.7652 11.7437 19.347 7.71192 14.666 6.71819C9.98503 5.72445 5.22379 8.01953 3.08575 12.3003C0.947706 16.5811 1.97249 21.7665 5.57945 24.9118C9.18582 28.057 14.4621 28.3676 18.413 25.667C20.0589 27.5027 22.726 28.0184 24.9367 26.9274C27.148 25.8364 28.3614 23.4059 27.9056 20.9831C27.4497 18.5603 25.4359 16.7375 22.9791 16.5242ZM16.9997 21.9997H16.8738L15.4054 19.9185L16.6992 16.0684L19.0364 15.2768L21.0151 16.71C18.6444 17.3768 17.005 19.5365 17.0009 21.9991L16.9997 21.9997ZM8.12589 21.9997H4.43748C3.60663 20.6656 3.12208 19.1445 3.02892 17.5754L5.94506 15.3852L8.30518 16.0795L9.5948 19.9185L8.12647 21.9997H8.12589ZM4.44276 11.9909L5.26305 14.6464L3.03419 16.3203C3.14258 14.7835 3.62598 13.297 4.44276 11.9909ZM10.5083 19.4996L9.28836 15.8674L12.4998 13.611L15.7113 15.8674L14.4914 19.4996H10.5083ZM20.4696 11.8497C21.3104 13.1446 21.8219 14.6253 21.9608 16.1627L19.6991 14.5216L20.469 11.8503L20.4696 11.8497ZM19.7196 10.8419L18.7118 14.3329L16.3839 15.1215L13.0002 12.7403V10.2607L15.9867 8.16073C17.4333 8.73201 18.7159 9.6525 19.7202 10.8402V10.8425L19.7196 10.8419ZM14.7884 7.77988L12.4992 9.38825L10.2212 7.78809C11.7194 7.40723 13.2885 7.40489 14.7879 7.78047V7.7793L14.7884 7.77988ZM9.02235 8.16777L11.9994 10.2595V12.7392L8.60458 15.1251L6.24331 14.4301L5.17106 10.9609C6.19819 9.7193 7.52355 8.75838 9.02235 8.16718V8.16777ZM5.14176 22.9993H8.02452L8.97079 25.8123C7.47785 25.2129 6.16069 24.245 5.14176 22.9993ZM10.1538 26.1944L8.93857 22.5804L10.4069 20.4992H14.591L16.0593 22.5804L14.84 26.2084C14.0748 26.4018 13.2885 26.4996 12.4992 26.4996C11.7077 26.4967 10.9196 26.3942 10.1538 26.195V26.1944ZM16.0259 25.8188L16.974 22.9993H17.0952C17.2183 23.6602 17.462 24.293 17.8148 24.8655C17.2546 25.2469 16.6552 25.5663 16.0265 25.8188H16.0259ZM22.4992 26.499C20.0137 26.499 17.9993 24.4841 17.9993 21.9991C17.9993 19.5142 20.0143 17.4992 22.4992 17.4992C24.9841 17.4992 26.9991 19.5142 26.9991 21.9991C26.9962 24.4835 24.9836 26.4961 22.4992 26.499Z" fill="#828282"/>
<path d="M24.0004 20.7499C24.0004 21.0259 24.2243 21.2497 24.5002 21.2497C24.7762 21.2497 25 21.0259 25 20.7499C25 19.8892 24.1545 19.1926 23.0003 19.0344V18.9998C23.0003 18.7238 22.7764 18.5 22.5005 18.5C22.2245 18.5 22.0007 18.7238 22.0007 18.9998V19.0344C20.8464 19.1926 20.0009 19.8886 20.0009 20.7499C20.0009 21.6113 20.8464 22.3073 22.0007 22.4655V23.9497C21.4065 23.8343 21.0005 23.5308 21.0005 23.2495C21.0005 22.9683 20.7767 22.7497 20.5007 22.7497C20.2247 22.7497 20.0009 22.9735 20.0009 23.2495C20.0009 24.1102 20.8464 24.8069 22.0007 24.9651V24.9997C22.0007 25.2756 22.2245 25.4995 22.5005 25.4995C22.7764 25.4995 23.0003 25.2756 23.0003 24.9997V24.9651C24.1545 24.8069 25 24.1108 25 23.2495C25 22.3882 24.1545 21.6921 23.0003 21.5339V20.0498C23.5944 20.1658 24.0004 20.4693 24.0004 20.7499ZM21.0005 20.7499C21.0005 20.4693 21.4065 20.1658 22.0007 20.0498V21.4495C21.4065 21.3335 21.0005 21.03 21.0005 20.7494V20.7499ZM24.0004 23.2501C24.0004 23.5308 23.5944 23.8343 23.0003 23.9503V22.5505C23.5944 22.6665 24.0004 22.97 24.0004 23.2507V23.2501Z" fill="#828282"/>
</svg>
