<svg width="42" height="41" viewBox="0 0 42 41" fill="none" xmlns="http://www.w3.org/2000/svg">
<path d="M21 3.68699C26.6069 3.68699 27.2689 3.70624 29.482 3.80732C31.5272 3.89877 32.6387 4.23089 33.3797 4.51006C34.3578 4.88068 35.0593 5.32351 35.7953 6.04069C36.5314 6.75787 36.9859 7.43654 37.3663 8.39439C37.6528 9.11638 37.9936 10.1994 38.0875 12.1921C38.1863 14.3484 38.211 14.9982 38.211 20.4565C38.211 25.9148 38.1913 26.5646 38.0875 28.7209C37.9936 30.7137 37.6528 31.7966 37.3663 32.5186C36.9859 33.4717 36.5314 34.1552 35.7953 34.8723C35.0593 35.5895 34.3627 36.0323 33.3797 36.403C32.6387 36.6821 31.5272 37.0143 29.482 37.1057C27.2689 37.202 26.6069 37.226 21 37.226C15.3931 37.226 14.7311 37.2068 12.518 37.1057C10.4728 37.0143 9.36133 36.6821 8.62032 36.403C7.6422 36.0323 6.94072 35.5895 6.20466 34.8723C5.46859 34.1552 5.01411 33.4765 4.63373 32.5186C4.34721 31.7966 4.00635 30.7137 3.91249 28.7209C3.81369 26.5646 3.78899 25.9148 3.78899 20.4565C3.78899 14.9982 3.80875 14.3484 3.91249 12.1921C4.00635 10.1994 4.34721 9.11638 4.63373 8.39439C5.01411 7.44136 5.46859 6.75787 6.20466 6.04069C6.94072 5.32351 7.63726 4.88068 8.62032 4.51006C9.36133 4.23089 10.4728 3.89877 12.518 3.80732C14.7311 3.71105 15.398 3.68699 21 3.68699ZM21 0C15.2992 0 14.5829 0.0240666 12.3451 0.125146C10.1122 0.226225 8.58574 0.567969 7.247 1.07818C5.86874 1.60283 4.69795 2.30076 3.52717 3.43669C2.36133 4.57263 1.64008 5.71338 1.10656 7.06111C0.587861 8.3607 0.23218 9.84801 0.12844 12.0284C0.0246992 14.2089 0 14.9068 0 20.4613C0 26.0159 0.0246992 26.7138 0.12844 28.8942C0.23218 31.0698 0.582921 32.5571 1.10656 33.8615C1.64502 35.2045 2.36133 36.3452 3.52717 37.486C4.69301 38.6219 5.8638 39.3246 7.247 39.8445C8.5808 40.3499 10.1073 40.6964 12.3451 40.7975C14.5829 40.8986 15.2992 40.9227 21 40.9227C26.7008 40.9227 27.4171 40.8986 29.6549 40.7975C31.8878 40.6964 33.4143 40.3547 34.753 39.8445C36.1313 39.3198 37.302 38.6219 38.4728 37.486C39.6387 36.35 40.3599 35.2093 40.8934 33.8615C41.4121 32.562 41.7678 31.0746 41.8716 28.8942C41.9753 26.7138 42 26.0159 42 20.4613C42 14.9068 41.9753 14.2089 41.8716 12.0284C41.7678 9.85282 41.4171 8.36551 40.8934 7.06111C40.355 5.7182 39.6387 4.57745 38.4728 3.43669C37.307 2.30076 36.1362 1.59801 34.753 1.07818C33.4192 0.572782 31.8927 0.226225 29.6549 0.125146C27.4171 0.0240666 26.7008 0 21 0Z" fill="#9680EA"/>
<path d="M20.5 9.74353C14.7014 9.74353 10 14.5425 10 20.4614C10 26.3802 14.7014 31.1792 20.5 31.1792C26.2986 31.1792 31 26.3802 31 20.4614C31 14.5425 26.2986 9.74353 20.5 9.74353ZM20.5 27.4216C16.7369 27.4216 13.6813 24.3074 13.6813 20.4614C13.6813 16.6153 16.7321 13.5012 20.5 13.5012C24.2679 13.5012 27.3187 16.6153 27.3187 20.4614C27.3187 24.3074 24.2679 27.4216 20.5 27.4216Z" fill="#9680EA"/>
<path d="M31.5 11.6922C32.8807 11.6922 34 10.6016 34 9.25631C34 7.91101 32.8807 6.82043 31.5 6.82043C30.1193 6.82043 29 7.91101 29 9.25631C29 10.6016 30.1193 11.6922 31.5 11.6922Z" fill="#9680EA"/>
</svg>
