<svg width="30" height="31" viewBox="0 0 30 31" fill="none" xmlns="http://www.w3.org/2000/svg">
<path d="M2.67883 8.69067V18.3334C2.67883 18.6293 2.91848 18.869 3.21438 18.869H10.1788V8.15454H3.21438C2.91848 8.15454 2.67883 8.39418 2.67883 8.69008V8.69067ZM4.28606 10.2979H8.57161C8.77142 10.2979 8.95423 10.4092 9.04622 10.5862C9.13821 10.7631 9.12474 10.977 9.00989 11.1405L7.72552 12.9762H8.03548C8.33138 12.9762 8.57103 13.2159 8.57103 13.5118C8.57103 13.8077 8.33138 14.0473 8.03548 14.0473H6.97552L5.26107 16.4971C5.15384 16.6606 4.96633 16.7526 4.7718 16.7374C4.57727 16.7221 4.40618 16.6026 4.32532 16.425C4.24446 16.2475 4.26672 16.0395 4.38333 15.8831L5.66712 14.0473H4.82103C4.52513 14.0473 4.28548 13.8077 4.28548 13.5118C4.28548 13.2159 4.52513 12.9762 4.82103 12.9762H6.41712L7.54212 11.369H4.28548C3.98958 11.369 3.74993 11.1293 3.74993 10.8334C3.74993 10.5375 3.98958 10.2979 4.28548 10.2979H4.28606Z" fill="white"/>
<path d="M11.2498 18.8695H18.7497V8.15503H11.2498V18.8695ZM12.857 10.2978H17.1425C17.3423 10.2978 17.5251 10.4091 17.6171 10.5861C17.7091 10.763 17.6956 10.9769 17.5808 11.1404L16.2964 12.9761H16.6064C16.9023 12.9761 17.1419 13.2158 17.1419 13.5117C17.1419 13.8076 16.9023 14.0472 16.6064 14.0472H15.5464L13.832 16.497C13.7247 16.6605 13.5373 16.7525 13.3427 16.7373C13.1482 16.722 12.9771 16.6025 12.8962 16.4249C12.8154 16.2474 12.8376 16.0394 12.9542 15.883L14.238 14.0472H13.3919C13.096 14.0472 12.8564 13.8076 12.8564 13.5117C12.8564 13.2158 13.096 12.9761 13.3919 12.9761H14.988L16.113 11.3689H12.8564C12.5605 11.3689 12.3208 11.1292 12.3208 10.8333C12.3208 10.5374 12.5605 10.2978 12.8564 10.2978H12.857Z" fill="white"/>
<path d="M26.7856 8.15503H19.8212V18.8695H26.7856C27.0815 18.8695 27.3212 18.6298 27.3212 18.3339V8.69116C27.3212 8.39526 27.0815 8.15562 26.7856 8.15562V8.15503ZM26.1528 11.1404L24.8684 12.9761H25.1784C25.4743 12.9761 25.7139 13.2158 25.7139 13.5117C25.7139 13.8076 25.4743 14.0472 25.1784 14.0472H24.1184L22.404 16.497C22.2311 16.729 21.9047 16.7818 21.6674 16.616C21.4301 16.4501 21.368 16.1255 21.5268 15.8835L22.8106 14.0478H21.9645C21.6686 14.0478 21.429 13.8082 21.429 13.5123C21.429 13.2164 21.6686 12.9767 21.9645 12.9767H23.5606L24.6856 11.3695H21.429C21.1331 11.3695 20.8934 11.1298 20.8934 10.8339C20.8934 10.538 21.1331 10.2984 21.429 10.2984H25.7145C25.9143 10.2984 26.0971 10.4097 26.1891 10.5867C26.2811 10.7636 26.2671 10.9775 26.1528 11.141V11.1404Z" fill="white"/>
<path d="M28.3928 0.655029H1.60723C0.719535 0.655029 0 1.37456 0 2.26225V22.0839H30V2.26225C30 1.37456 29.2805 0.655029 28.3928 0.655029ZM6.42832 1.72671C6.72422 1.72671 6.96387 1.96635 6.96387 2.26225C6.96387 2.55815 6.72422 2.79779 6.42832 2.79779C6.13242 2.79779 5.89277 2.55815 5.89277 2.26225C5.89277 1.96635 6.13242 1.72671 6.42832 1.72671ZM4.28555 1.72671C4.58145 1.72671 4.8211 1.96635 4.8211 2.26225C4.8211 2.55815 4.58145 2.79779 4.28555 2.79779C3.98965 2.79779 3.75 2.55815 3.75 2.26225C3.75 1.96635 3.98965 1.72671 4.28555 1.72671ZM2.14277 1.72671C2.43867 1.72671 2.67832 1.96635 2.67832 2.26225C2.67832 2.55815 2.43867 2.79779 2.14277 2.79779C1.84687 2.79779 1.60723 2.55815 1.60723 2.26225C1.60723 1.96635 1.84687 1.72671 2.14277 1.72671ZM28.3928 18.3339C28.3928 19.2216 27.6733 19.9412 26.7856 19.9412H3.21387C2.32617 19.9412 1.60664 19.2216 1.60664 18.3339V8.69116C1.60664 7.80346 2.32617 7.08393 3.21387 7.08393H26.7856C27.6733 7.08393 28.3928 7.80346 28.3928 8.69116V18.3339ZM28.3928 4.94116H1.60723C1.31133 4.94116 1.07168 4.70151 1.07168 4.40562C1.07168 4.10972 1.31133 3.87006 1.60723 3.87006H28.3928C28.6887 3.87006 28.9283 4.10972 28.9283 4.40562C28.9283 4.70151 28.6887 4.94116 28.3928 4.94116Z" fill="white"/>
<path fill-rule="evenodd" clip-rule="evenodd" d="M7.50011 29.5833C6.90831 29.5833 6.42843 30.0631 6.42843 30.6549H23.5712C23.5712 30.0631 23.0913 29.5833 22.4995 29.5833H7.49953H7.50011Z" fill="white"/>
<path d="M0 24.7623C0 25.6499 0.719535 26.3695 1.60723 26.3695H28.3928C29.2805 26.3695 30 25.6499 30 24.7623V23.155H0V24.7623ZM13.3928 24.2267H16.6072C16.9031 24.2267 17.1428 24.4664 17.1428 24.7623C17.1428 25.0582 16.9031 25.2978 16.6072 25.2978H13.3928C13.0969 25.2978 12.8572 25.0582 12.8572 24.7623C12.8572 24.4664 13.0969 24.2267 13.3928 24.2267Z" fill="white"/>
<path fill-rule="evenodd" clip-rule="evenodd" d="M10.7144 27.4404H19.2861V28.5121H10.7144V27.4404Z" fill="white"/>
</svg>
