<svg width="24" height="24" viewBox="0 0 24 24" fill="none" xmlns="http://www.w3.org/2000/svg">
<path d="M2.88446 24H11.9503C13.5424 23.9981 14.8333 22.7456 14.8347 21.2002V17.2875C16.6389 16.0978 17.7192 14.1178 17.7192 12.0005C17.7192 9.88313 16.6389 7.90312 14.8347 6.71344V2.79984C14.8328 1.25437 13.5424 0.001875 11.9503 0H2.88446C1.29229 0.001875 0.00193167 1.25437 0 2.79984V21.1997C0.00193167 22.7452 1.29229 23.9981 2.88446 23.9995V24ZM16.8953 12C16.8919 15.0914 14.3108 17.5969 11.1259 17.6002C10.3306 17.6011 9.5434 17.4403 8.81565 17.1286C8.55053 17.0175 8.29506 16.8858 8.05167 16.7348C7.49294 16.3927 6.9994 15.9591 6.59278 15.4537V8.54672C6.99891 8.04187 7.49197 7.60875 8.04974 7.26656C8.29506 7.11516 8.55197 6.9825 8.81903 6.87094C9.54582 6.55969 10.331 6.39937 11.1254 6.40031C14.3103 6.40359 16.8915 8.90906 16.8948 12.0005L16.8953 12ZM8.24146 6.25219C8.02415 6.35297 7.81311 6.46547 7.60884 6.58969C7.2452 6.81375 6.90523 7.07156 6.59326 7.35984V5.59969H8.24146V6.25219ZM6.59326 16.6397C6.90523 16.9275 7.2452 17.1848 7.60884 17.4084C7.81311 17.5331 8.02415 17.6461 8.24194 17.7473V18.3998H6.59375V16.6397H6.59326ZM11.3418 0.800156L11.0535 1.49719C10.9294 1.80141 10.6266 2.00062 10.2895 2.00016H4.5457C4.20814 2.00109 3.90487 1.80187 3.78027 1.49719L3.49294 0.800156H11.3413H11.3418ZM0.824339 2.79984C0.827719 1.79906 1.59411 0.954844 2.61644 0.826406L3.01533 1.79437C3.26403 2.40328 3.87106 2.80219 4.5457 2.79984H10.2895C10.9641 2.80219 11.5712 2.40281 11.8199 1.79437L12.2188 0.826406C13.2416 0.955312 14.008 1.79906 14.0109 2.79984V6.25406C12.4718 5.51625 10.6947 5.39766 9.0658 5.92453V5.60016C9.0658 5.15812 8.69685 4.8 8.24146 4.8H6.59326C6.13787 4.8 5.76892 5.15812 5.76892 5.60016V18.4003C5.76892 18.8423 6.13787 19.2005 6.59326 19.2005H8.24146C8.69685 19.2005 9.0658 18.8423 9.0658 18.4003V18.0759C10.6947 18.6028 12.4718 18.4842 14.0109 17.7464V21.2006C14.0094 22.3045 13.088 23.1994 11.9503 23.2008H2.88446C1.74719 23.1994 0.825305 22.305 0.823856 21.2006V2.79984H0.824339Z" fill="#828282"/>
<path fill-rule="evenodd" clip-rule="evenodd" d="M2.88458 21.9999H11.9504C12.1778 21.9999 12.3623 21.8208 12.3623 21.6C12.3623 21.3793 12.1778 21.2002 11.9504 21.2002H2.88458C2.65713 21.2002 2.47266 21.3793 2.47266 21.6C2.47266 21.8208 2.65713 21.9999 2.88458 21.9999Z" fill="#828282"/>
<path d="M10.7144 7.59979V8.02495C9.31873 8.17823 8.24182 9.0937 8.24182 10.2C8.24182 11.3062 9.31873 12.2217 10.7144 12.375V15.1706C9.78667 15.0365 9.06616 14.4632 9.06616 13.8C9.06616 13.5792 8.88169 13.4001 8.65423 13.4001C8.42678 13.4001 8.2423 13.5792 8.2423 13.8C8.2423 14.9057 9.31921 15.8217 10.7148 15.9749V16.4001C10.7148 16.6209 10.8993 16.7999 11.1268 16.7999C11.3542 16.7999 11.5387 16.6209 11.5387 16.4001V15.9749C12.9343 15.8217 14.0112 14.9062 14.0112 13.8C14.0112 12.6937 12.9343 11.7782 11.5387 11.625V8.82933C12.4664 8.96339 13.1869 9.53667 13.1869 10.2C13.1869 10.4207 13.3714 10.5998 13.5988 10.5998C13.8263 10.5998 14.0107 10.4207 14.0107 10.2C14.0107 9.09417 12.9338 8.17823 11.5382 8.02495V7.59979C11.5382 7.37901 11.3537 7.19995 11.1263 7.19995C10.8988 7.19995 10.7144 7.37901 10.7144 7.59979ZM9.06616 10.2C9.06616 9.53667 9.78667 8.96339 10.7144 8.82933V11.5701C9.78667 11.436 9.06616 10.8628 9.06616 10.1995V10.2ZM13.1869 13.8C13.1869 14.4632 12.4664 15.0365 11.5387 15.1706V12.4298C12.4664 12.5639 13.1869 13.1371 13.1869 13.8004V13.8Z" fill="#828282"/>
<path d="M21.0314 14.8828C20.943 14.8828 20.8542 14.8659 20.7687 14.8317C20.5123 14.7286 20.3461 14.4876 20.3461 14.2181V13.2262H19.119C18.8172 13.2262 18.5719 12.9881 18.5719 12.6951V11.3311C18.5719 11.0381 18.8172 10.8 19.119 10.8H20.3461V9.78184C20.3461 9.51231 20.5118 9.27137 20.7687 9.16825C21.0251 9.06512 21.3178 9.12184 21.5143 9.31216L23.7995 11.5303C23.9289 11.6559 23.9999 11.8223 23.9999 12C23.9999 12.1776 23.9289 12.344 23.7995 12.4697L21.5143 14.6878C21.383 14.8153 21.2091 14.8828 21.0314 14.8828ZM19.3933 12.4298H21.1676V13.8979L23.1229 12L21.1676 10.102V11.5968H19.3933V12.4293V12.4298Z" fill="#828282"/>
</svg>
