<svg width="30" height="30" viewBox="0 0 30 30" fill="none" xmlns="http://www.w3.org/2000/svg">
<g clip-path="url(#clip0_1674_13330)">
<g clip-path="url(#clip1_1674_13330)">
<g clip-path="url(#clip2_1674_13330)">
<path d="M26.2068 17.8587L26.1854 17.5652C25.8418 13.0915 23.7587 10.287 21.9211 7.8133C20.2195 5.52272 18.7498 3.54467 18.7498 0.626048C18.7498 0.391681 18.6186 0.177471 18.4104 0.0700136C18.2017 -0.0380292 17.9509 -0.0203346 17.7611 0.117649C15.0012 2.09265 12.6984 5.42142 11.894 8.59755C11.3356 10.8088 11.2617 13.2947 11.2513 14.9365C8.70258 14.392 8.12522 10.5793 8.11913 10.5378C8.09042 10.3401 7.9696 10.1679 7.79383 10.0739C7.61624 9.98119 7.40748 9.97445 7.22742 10.0636C7.09378 10.1283 3.94688 11.7273 3.76378 18.1126C3.75095 18.325 3.75037 18.5374 3.75037 18.7504C3.75037 24.9532 8.79715 29.9999 14.9999 29.9999C21.2027 29.9999 26.2495 24.9532 26.2495 18.7504C26.2495 18.4391 26.2282 18.1486 26.2068 17.8587ZM14.9999 28.75C12.9321 28.75 11.2501 26.9581 11.2501 24.7554C11.2501 24.6804 11.2495 24.6047 11.255 24.5119C11.28 23.583 11.4564 22.9489 11.6499 22.5271C12.0124 23.3059 12.6611 24.0218 13.7134 24.0218C14.0589 24.0218 14.3384 23.7422 14.3384 23.3968C14.3384 22.5069 14.3567 21.4804 14.5783 20.5539C14.7754 19.7318 15.2466 18.8583 15.8435 18.1577C16.109 19.0671 16.6266 19.8031 17.1319 20.5215C17.8552 21.5493 18.6028 22.6119 18.734 24.424C18.742 24.5314 18.7499 24.6394 18.7499 24.7553C18.7498 26.9581 17.0678 28.75 14.9999 28.75ZM18.9497 27.9334C19.5984 27.0487 19.9998 25.9552 19.9998 24.7554C19.9998 24.6083 19.9907 24.4716 19.9723 24.2159C19.824 22.1756 18.9372 20.9146 18.1542 19.802C17.4871 18.8548 16.9116 18.0364 16.9116 16.8755C16.9116 16.6381 16.7773 16.4214 16.5649 16.3158C16.3537 16.2096 16.0986 16.2334 15.91 16.3769C14.7113 17.2826 13.7116 18.8072 13.3625 20.2628C13.1843 21.0093 13.122 21.8167 13.1001 22.4808C12.6667 22.0145 12.5324 21.1503 12.5313 21.1387C12.5032 20.9379 12.3799 20.7627 12.1999 20.6693C12.021 20.5766 11.8068 20.5741 11.6268 20.6669C11.4693 20.7475 10.0857 21.5409 10.0064 24.4595C10.0009 24.5584 10.0003 24.6572 10.0003 24.7555C10.0003 25.9552 10.4016 27.0488 11.0503 27.9335C7.49595 26.3987 5.00048 22.8616 5.00048 18.7505C5.00048 18.5631 4.99989 18.3764 5.01266 18.1682C5.12006 14.422 6.31879 12.5641 7.10122 11.7445C7.64682 13.6975 9.07622 16.2505 11.8752 16.2505C12.2207 16.2505 12.5002 15.971 12.5002 15.6256C12.5002 13.5339 12.5472 11.117 13.1063 8.90398C13.741 6.39673 15.4798 3.68933 17.5787 1.85653C17.9272 4.53346 19.3853 6.49628 20.9179 8.55853C22.7397 11.0108 24.6232 13.5467 24.9387 17.6531L24.9601 17.9521C24.9796 18.2121 24.9998 18.4715 24.9998 18.7504C24.9996 22.8616 22.5041 26.3986 18.9497 27.9334Z" fill="#828282"/>
</g>
</g>
</g>
<defs>
<clipPath id="clip0_1674_13330">
<rect width="30" height="30" fill="white"/>
</clipPath>
<clipPath id="clip1_1674_13330">
<rect width="30" height="30" fill="white"/>
</clipPath>
<clipPath id="clip2_1674_13330">
<rect width="30" height="30" fill="white"/>
</clipPath>
</defs>
</svg>
