<svg width="44" height="44" viewBox="0 0 44 44" fill="none" xmlns="http://www.w3.org/2000/svg">
<path d="M43.8439 34.7877C43.818 34.3995 43.7835 34.02 43.7576 33.6318C43.6541 32.0188 43.5419 30.3972 43.4298 28.7842L43.3349 27.404C43.1968 25.3856 43.0502 23.3672 42.9121 21.3488C42.8862 20.9347 42.8604 20.5207 42.8345 20.1066C42.7741 19.0802 42.7137 18.0278 42.567 16.9927C42.1961 14.2756 40.6604 12.3003 38.1153 11.2652C35.5703 10.2388 33.146 10.6011 30.9116 12.3521C29.8245 13.1974 28.772 14.1117 27.754 14.983C27.383 15.3021 27.0379 15.4315 26.5979 15.4142C25.8473 15.3884 25.0795 15.3884 24.3376 15.397C24.0356 15.397 23.7337 15.397 23.4317 15.397C23.3109 15.397 23.1988 15.397 23.078 15.3883H23.0262C23.0262 15.0261 23.0176 14.6724 23.009 14.3188C22.9917 13.4476 22.9745 12.6195 23.0435 11.7828C23.1729 10.3768 24.3031 9.3762 25.8042 9.35032C26.132 9.35032 26.4513 9.35032 26.7791 9.35032C27.1414 9.35032 27.5038 9.35032 27.8661 9.35032C29.8849 9.31582 31.6535 8.01334 32.266 6.09842C32.8958 4.12312 32.1884 2.02705 30.5061 0.888452C30.0833 0.603802 29.6002 0.42267 29.1257 0.250154C28.91 0.172523 28.6944 0.0948833 28.4873 0H21.7408L21.7149 0.00863418C21.0851 0.439922 20.9125 0.905709 21.1972 1.406C21.4474 1.84592 21.8702 1.89766 22.1721 1.89766H22.1807C23.8458 1.89766 25.8042 1.88904 27.7453 1.89766C29.2638 1.90629 30.4198 2.97589 30.5578 4.49403C30.6873 5.87415 29.6347 7.16801 28.2112 7.3664C27.6332 7.45266 27.0379 7.44404 26.4513 7.43541C26.1924 7.43541 25.925 7.43541 25.6662 7.43541C24.5015 7.46129 23.4748 7.8667 22.6121 8.64301C21.5078 9.6436 20.9988 10.9375 21.0592 12.5936C21.0851 13.2405 21.0765 13.8875 21.0678 14.5603C21.0678 14.8277 21.0678 15.1037 21.0678 15.3797H20.2396C19.0836 15.3797 17.9965 15.3797 16.8922 15.3711C16.806 15.3711 16.6765 15.2676 16.5903 15.1986C16.1417 14.8277 15.7017 14.4568 15.2617 14.0859C14.5542 13.4993 13.8295 12.8869 13.1048 12.3003C11.6037 11.0841 9.71432 10.5407 7.77318 10.7649C5.82342 10.9892 4.09796 11.9639 2.9074 13.4993C1.94977 14.7328 1.45801 16.1819 1.34586 18.0365C1.2337 20.0463 1.07841 22.0906 0.931747 24.0659C0.854101 25.1268 0.776456 26.1878 0.69881 27.2488C0.60391 28.6548 0.50901 30.0608 0.41411 31.4581C0.327837 32.7261 0.241564 33.9941 0.155291 35.2621C0.129409 35.6071 0.0949001 35.9522 0.0517637 36.2886C0.0345091 36.4525 0.0172546 36.6163 0 36.7802V38.583V38.6089C0.00862729 38.6434 0.0172545 38.6693 0.0345091 38.7038C0.060391 38.7642 0.0776455 38.8245 0.0862728 38.8763C0.578028 41.7746 3.15759 43.9655 6.09949 43.9827H6.14263C8.18729 43.9827 9.84373 43.1633 11.2068 41.4899C12.3111 40.127 13.4586 38.7469 14.5629 37.4185L15.184 36.6681C15.926 35.771 16.875 35.2966 17.9965 35.2448C18.3847 35.2276 18.6953 35.1068 18.8938 34.8912C19.0577 34.71 19.1267 34.4772 19.1181 34.2011C19.0836 33.6232 18.6177 33.2782 17.9102 33.3213C16.202 33.4076 14.7699 34.1494 13.6397 35.5122L12.9668 36.3231C11.8366 37.7032 10.6633 39.1264 9.49864 40.5238C8.26494 41.9988 6.25478 42.4732 4.49482 41.7142C2.78661 40.9724 1.73408 39.1523 1.94114 37.2805C1.9929 36.832 2.01878 36.3662 2.04467 35.9263C2.05329 35.7365 2.07055 35.5467 2.07918 35.3656L2.20859 33.4852C2.28623 32.3035 2.3725 31.1304 2.45015 29.9486C2.59681 27.8785 2.74348 25.7997 2.89014 23.7295L2.93328 23.1257C2.97641 22.5477 3.01092 21.9698 3.04543 21.3919C3.1317 20.0635 3.21798 18.6834 3.35601 17.3378C3.56307 15.3539 4.65873 13.8875 6.53085 13.0853C8.36847 12.3003 10.1802 12.5246 11.759 13.7236C12.5354 14.3101 13.2946 14.9484 14.028 15.5695C14.5629 16.018 15.1064 16.4838 15.6585 16.9237C15.926 17.1394 16.3142 17.2774 16.6334 17.2774C20.1965 17.3033 23.8113 17.3033 27.3744 17.2774C27.6936 17.2774 28.0818 17.1308 28.3493 16.9151C29.1775 16.2509 30.0143 15.5522 30.8167 14.8794C31.1876 14.5689 31.5672 14.2498 31.9468 13.9392C33.3962 12.7402 35.2942 12.3521 37.0283 12.8955C38.7451 13.4303 40.0047 14.7587 40.4965 16.527C40.6863 17.2256 40.738 17.9847 40.7812 18.7093C40.7984 18.9163 40.8071 19.1319 40.8243 19.3389C40.9192 20.5379 40.9969 21.7628 41.0745 22.9445C41.1176 23.5742 41.1608 24.2039 41.2039 24.8336C41.2902 26.0757 41.3765 27.3092 41.4627 28.5513C41.5317 29.5864 41.6094 30.6214 41.6784 31.6565C41.7215 32.2431 41.7561 32.8383 41.7906 33.4248C41.8682 34.6669 41.9459 35.9435 42.0666 37.2029C42.2478 39.1696 41.2212 40.981 39.513 41.7228C37.7444 42.4905 35.7083 41.9816 34.4574 40.4634L32.9821 38.6779C32.1021 37.6083 31.2221 36.5473 30.3422 35.4864C29.1947 34.0976 27.7195 33.3731 25.9681 33.3299C25.9595 33.3299 25.9422 33.3299 25.9336 33.3299C25.347 33.3299 24.9329 33.6836 24.907 34.227C24.8897 34.503 24.9846 34.7618 25.1572 34.9516C25.3297 35.1413 25.5799 35.2448 25.856 35.2448C27.1328 35.2707 28.1681 35.8228 29.1171 37.0045C30.5665 38.8159 31.8864 40.4117 33.1547 41.8867C34.328 43.2582 36.0448 44 37.7961 44C38.5295 44 39.28 43.8706 39.9961 43.5946C42.429 42.6716 44.0423 40.3427 43.9992 37.7981C43.9819 36.7889 43.9043 35.7624 43.8352 34.7704L43.8439 34.7877Z" fill="#BDBDBD"/>
<path d="M9.67118 28.9308C9.78334 30.2333 10.8704 31.2943 12.1386 31.346C12.1817 31.346 12.2249 31.346 12.268 31.346C13.6139 31.346 14.6923 30.4748 14.9166 29.181C14.9856 28.8101 14.9942 28.4305 15.0115 28.0337C15.0115 27.8871 15.0201 27.7318 15.0287 27.5766H15.3307C15.6154 27.5766 15.9001 27.5766 16.1762 27.5766C17.5651 27.5421 18.7471 26.3345 18.7557 24.9285C18.7643 23.4793 17.6083 22.2804 16.1675 22.2545C16.0209 22.2545 15.8742 22.2545 15.7275 22.2545C15.486 22.2545 15.2444 22.2545 14.9856 22.2545C14.9856 22.1423 14.9856 22.0388 14.9856 21.9353C14.9856 21.6507 14.9856 21.3833 14.9856 21.1159C14.9425 19.684 13.8382 18.5368 12.4837 18.4937C12.4492 18.4937 12.4147 18.4937 12.3801 18.4937C10.8963 18.4937 9.78334 19.4856 9.66255 20.9434C9.63667 21.2539 9.6453 21.5644 9.65393 21.8922C9.65393 22.013 9.65393 22.1337 9.65393 22.2631H9.32609C9.03276 22.2631 8.76532 22.2631 8.48924 22.2631C7.00535 22.289 5.85792 23.4621 5.86655 24.9371C5.8838 26.4035 7.04849 27.5679 8.52375 27.5852C8.78257 27.5852 9.04139 27.5852 9.32609 27.5852H9.6453C9.6453 27.7146 9.6453 27.8353 9.6453 27.9561C9.6453 28.2925 9.62804 28.6117 9.66255 28.9308H9.67118ZM11.5692 23.1171C11.5692 22.7634 11.5692 22.4011 11.5692 22.0475C11.5692 21.7801 11.5692 21.504 11.5692 21.2367C11.5692 20.7364 11.8711 20.4 12.3111 20.4C12.7339 20.4 13.0358 20.7277 13.0445 21.2108C13.0531 21.573 13.0531 21.944 13.0445 22.3062C13.0445 22.5219 13.0445 22.7462 13.0445 22.9618C13.0445 23.8244 13.3895 24.1694 14.2436 24.1694H14.813C15.1926 24.1694 15.5722 24.1694 15.9518 24.1694C16.4609 24.1694 16.7887 24.4627 16.7887 24.9112C16.7887 25.377 16.4867 25.6703 15.9777 25.6789C15.5981 25.6875 15.2013 25.6789 14.8303 25.6789C14.5974 25.6789 14.3731 25.6789 14.1401 25.6789C13.3982 25.6789 13.0531 26.0153 13.0358 26.7571C13.0358 27.0935 13.0358 27.4299 13.0358 27.7663C13.0358 28.0682 13.0358 28.3788 13.0358 28.6807C13.0358 29.0257 12.8719 29.25 12.5441 29.3707C12.2421 29.4829 11.9833 29.4225 11.7935 29.1982C11.6641 29.0516 11.5778 28.8187 11.5692 28.603C11.5433 28.2063 11.5519 27.8008 11.5519 27.4041C11.5519 27.2315 11.5519 27.0677 11.5519 26.9038C11.5519 25.9894 11.2327 25.6703 10.3355 25.6703H10.2578C10.1025 25.6703 9.93863 25.6703 9.78334 25.6703C9.41236 25.6703 9.04139 25.6703 8.67042 25.6703C8.36846 25.6703 8.1269 25.5754 7.97161 25.4115C7.8422 25.2735 7.78181 25.0924 7.78181 24.8767C7.79906 24.4195 8.1269 24.1521 8.67904 24.1521C8.87747 24.1521 9.0759 24.1521 9.27433 24.1521H9.89549C10.0939 24.1521 10.2837 24.1521 10.4821 24.1521C11.1464 24.1435 11.5347 23.764 11.5433 23.1084L11.5692 23.1171Z" fill="#BDBDBD"/>
<path d="M34.9232 24.5662H34.9319C36.502 24.5662 37.8306 23.2292 37.8393 21.6593C37.8393 20.8916 37.5459 20.167 37.0024 19.6064C36.4503 19.0543 35.7256 18.7438 34.9578 18.7438H34.9405C33.3099 18.7438 32.0245 19.9859 32.0159 21.5817C32.0159 22.3925 32.3178 23.1429 32.8786 23.7122C33.4221 24.2556 34.1468 24.5575 34.9146 24.5575L34.9232 24.5662ZM33.9311 21.6334C33.9397 21.1245 34.397 20.6673 34.906 20.6501H34.9232C35.1734 20.6501 35.4064 20.745 35.5875 20.9261C35.7773 21.1159 35.8895 21.3746 35.8895 21.6334C35.8895 21.9094 35.7946 22.1596 35.6134 22.3407C35.4323 22.5219 35.1907 22.6167 34.9146 22.6167C34.6472 22.6167 34.3884 22.5046 34.1986 22.3149C34.0174 22.1251 33.9139 21.8836 33.9225 21.6334H33.9311Z" fill="#BDBDBD"/>
<path d="M29.419 24.2469H29.3932C28.6426 24.2469 27.9006 24.5575 27.3485 25.1095C26.7963 25.6616 26.4771 26.4206 26.4858 27.1797C26.4944 28.8014 27.7885 30.0693 29.419 30.0693H29.4277C31.041 30.0693 32.3006 28.7841 32.2919 27.1625C32.2919 25.5667 30.9978 24.2642 29.4104 24.2556L29.419 24.2469ZM28.4355 27.1452C28.4355 26.8778 28.5391 26.6363 28.7202 26.4551C28.9014 26.2826 29.143 26.1877 29.419 26.1877H29.4449C29.9712 26.1964 30.4026 26.6363 30.4026 27.1625C30.4026 27.4212 30.2904 27.6714 30.1006 27.8698C29.9108 28.0595 29.6606 28.163 29.419 28.163C29.1602 28.163 28.9187 28.0509 28.7289 27.8611C28.5477 27.6714 28.4442 27.4212 28.4528 27.1538L28.4355 27.1452Z" fill="#BDBDBD"/>
<path d="M21.9996 33.3558C21.4819 33.3558 21.0678 33.7698 21.0678 34.2873C21.0678 34.5461 21.1627 34.7963 21.3439 34.9774C21.5251 35.1586 21.758 35.2621 22.0082 35.2707H22.0168C22.2584 35.2707 22.4913 35.1758 22.6725 34.9947C22.8623 34.8135 22.9658 34.5634 22.9658 34.3046C22.9658 34.0458 22.8623 33.8043 22.6898 33.6232C22.5086 33.442 22.267 33.3471 22.0082 33.3558H21.9996Z" fill="#BDBDBD"/>
</svg>
