<svg width="39" height="36" viewBox="0 0 39 36" fill="none" xmlns="http://www.w3.org/2000/svg">
<g clip-path="url(#clip0_205_3335)">
<path d="M39 13.2028C38.6076 13.5925 38.1087 13.4451 37.6664 13.3993C37.1509 13.3436 36.6321 13.3469 36.1167 13.2945C35.099 13.1963 34.0714 13.1766 33.0504 13.121C32.6912 13.1013 32.4285 12.8688 32.4618 12.6167C32.5017 12.3154 32.7644 12.1812 33.1402 12.2106C34.0082 12.2794 34.8795 12.3252 35.7508 12.3776C36.6355 12.43 37.5168 12.4824 38.4014 12.5348C38.6408 12.5479 38.8237 12.6789 39 12.8262V13.1995V13.2028Z" fill="#CDCECD"/>
<path d="M29.6283 22.7644C24.836 23.2818 20.0404 23.8024 15.2481 24.3198C14.6994 23.4128 14.154 22.5024 13.6019 21.602C12.4479 19.7191 11.2873 17.8428 10.13 15.9632C10.6853 15.1315 11.2374 14.2965 11.7994 13.4681C14.0143 10.2034 16.2359 6.94196 18.4541 3.68054C18.5439 3.72966 18.5904 3.80497 18.5904 3.90976C18.3078 4.17172 18.2412 4.43041 18.4907 4.78078C18.8 5.21956 19.0461 5.70092 19.3188 6.16262C20.3298 7.90139 21.3374 9.64343 22.3551 11.3789C23.4426 13.2323 24.5367 15.0824 25.6275 16.9358C26.6485 18.6713 27.6828 20.3969 28.6705 22.1455C28.8833 22.5188 29.0663 22.6924 29.4786 22.5024C29.5751 22.5647 29.6117 22.6596 29.6316 22.7644H29.6283Z" fill="#D4C9FF"/>
<path d="M18.5904 3.90647C18.5904 3.80496 18.5439 3.72964 18.4541 3.67725C18.4142 3.1697 18.2911 2.67197 18.4242 2.1546C18.6969 1.08384 19.5715 0.25211 20.639 0.0883839C21.7698 -0.0851653 22.8473 0.38309 23.4293 1.36217C24.8061 3.67725 26.163 6.00215 27.5232 8.32378C29.7613 12.1353 31.9995 15.9501 34.231 19.7649C34.9394 20.9765 34.6534 22.4631 33.5725 23.2588C32.3886 24.1299 30.9153 24.0251 29.881 22.9936C29.8012 22.915 29.7148 22.843 29.6316 22.7644C29.6117 22.6596 29.5751 22.5646 29.4786 22.5024C29.3789 22.1913 29.1727 21.9327 29.0097 21.6543C27.6462 19.3196 26.276 16.9881 24.9059 14.6567C23.6321 12.4857 22.3617 10.3147 21.088 8.14369C20.2566 6.7291 19.4252 5.32106 18.5938 3.90647H18.5904Z" fill="#FFC8FD"/>
<path d="M8.8396 28.6946C8.38398 28.9566 7.92837 29.2218 7.46943 29.4772C7.00716 29.7359 6.67127 29.6409 6.38194 29.2021C6.10923 28.7896 5.89972 28.3344 5.57048 27.9546C5.53722 27.8727 5.51726 27.7876 5.47403 27.7155C4.7956 26.6087 4.12049 25.5019 3.42543 24.4017C3.07956 23.8549 2.79355 23.272 2.36787 22.7743C2.22819 22.3551 1.94218 22.0146 1.71936 21.6413C1.30366 20.9438 1.36684 20.672 2.08186 20.2463C4.09056 19.0512 6.09593 17.856 8.1013 16.6575C8.87951 16.1925 8.91609 16.1925 9.58787 16.723C9.59785 16.8801 9.67766 17.0046 9.75748 17.1323C10.8283 18.8678 11.8826 20.6098 12.9667 22.3388C13.4091 23.0461 13.7948 23.7926 14.3203 24.4476C14.5231 25.1254 14.4433 25.3186 13.8281 25.6919C13.4456 25.9244 13.0665 26.1634 12.6841 26.3992C12.5311 26.481 12.3681 26.5531 12.2218 26.6415C11.0977 27.3258 9.94039 27.9578 8.84625 28.688L8.8396 28.6946Z" fill="#FFC8FD"/>
<path d="M13.1364 27.2145C14.4101 29.2676 15.6871 31.3174 16.9542 33.3738C17.177 33.734 17.0939 34.0877 16.7247 34.3136C15.87 34.8474 15.0054 35.368 14.134 35.8788C13.7416 36.1081 13.3858 36 13.1364 35.5972C11.8593 33.531 10.5856 31.4648 9.31184 29.3986C9.97032 29.1104 10.5523 28.688 11.1775 28.3376C11.8327 27.9676 12.4546 27.5452 13.1364 27.2145Z" fill="#0F5FC2"/>
<path d="M4.82886 28.3639C4.39652 28.6226 3.97084 28.8911 3.53185 29.14C3.176 29.343 2.7869 29.2611 2.56741 28.914C1.74264 27.5977 0.927858 26.2748 0.119722 24.9453C-0.116399 24.5589 -0.00665265 24.1987 0.392426 23.9498C0.78818 23.7043 1.19724 23.4783 1.59964 23.2426C2.5142 24.7325 3.42543 26.2224 4.34663 27.7057C4.48964 27.9349 4.57278 28.21 4.82553 28.3639H4.82886Z" fill="#D4C9FF"/>
<path d="M14.317 24.4508C13.7915 23.7959 13.4057 23.0493 12.9634 22.342C11.8793 20.6163 10.825 18.871 9.75416 17.1355C9.67434 17.0078 9.5912 16.8834 9.58455 16.7262C9.75748 16.4642 9.90714 16.1859 10.1333 15.96C11.2906 17.8395 12.4513 19.7191 13.6053 21.5987C14.1607 22.5024 14.7027 23.4128 15.2515 24.3165C14.9422 24.3624 14.6296 24.4049 14.3203 24.4508H14.317Z" fill="#BAA8FF"/>
<path d="M4.82886 28.3638C4.57611 28.2099 4.49296 27.9348 4.34996 27.7056C3.42875 26.2223 2.51752 24.7291 1.60297 23.2424C1.83244 23.0525 2.09849 22.915 2.36122 22.7775C2.7869 23.2719 3.07623 23.8581 3.41878 24.4049C4.11051 25.5019 4.78562 26.6119 5.46738 27.7187C5.51062 27.7907 5.53389 27.8792 5.56383 27.9577C5.31773 28.092 5.07163 28.2295 4.82553 28.3638H4.82886Z" fill="#BAA8FF"/>
<path d="M28.7171 5.85805C28.3313 5.86788 28.1617 5.61901 28.298 5.25554C28.3778 5.04597 28.4743 4.84296 28.5741 4.63994C29.2758 3.22862 29.9775 1.8173 30.6825 0.40599C30.8588 0.0556166 31.1149 -0.0786385 31.3576 0.039244C31.637 0.173499 31.6836 0.438735 31.494 0.818578C30.7191 2.37397 29.9409 3.93264 29.166 5.48803C29.0696 5.68123 28.9765 5.88098 28.7171 5.85478V5.85805Z" fill="#CDCECD"/>
<path d="M35.3484 6.89617C35.3717 7.10574 35.2254 7.21053 35.0491 7.31204C33.6357 8.11429 32.2256 8.9231 30.8122 9.72863C30.5595 9.87271 30.3067 9.91855 30.1105 9.63694C29.9542 9.411 30.0407 9.13594 30.3566 8.95584C31.504 8.29439 32.6546 7.64276 33.8053 6.98786C34.078 6.83068 34.3441 6.66041 34.6268 6.51961C35.0358 6.31659 35.3584 6.49013 35.3484 6.89617Z" fill="#CDCECD"/>
<path d="M13.1364 27.2144C12.4579 27.5452 11.8327 27.9676 11.1775 28.3376C10.5556 28.688 9.97365 29.1104 9.31184 29.3985C9.15554 29.1628 8.99591 28.9303 8.8396 28.6945C9.93374 27.9643 11.0944 27.3356 12.2151 26.648C12.3648 26.5563 12.5244 26.4842 12.6774 26.4056C12.8104 26.684 13.0432 26.9132 13.133 27.2144H13.1364Z" fill="#084B9E"/>
<path d="M18.5904 3.90649C19.4218 5.31781 20.2566 6.72912 21.0847 8.14371C22.3584 10.3147 23.6288 12.4857 24.9025 14.6567C26.2727 16.9882 27.6429 19.3196 29.0064 21.6544C29.1694 21.9327 29.3755 22.1914 29.4753 22.5025C29.0629 22.6924 28.88 22.5188 28.6672 22.1455C27.6761 20.3937 26.6419 18.668 25.6242 16.9358C24.5334 15.0824 23.4392 13.2356 22.3518 11.3789C21.3341 9.64344 20.3298 7.9014 19.3154 6.16263C19.046 5.69765 18.7999 5.2163 18.4873 4.78079C18.2379 4.43042 18.3044 4.17173 18.5871 3.90977L18.5904 3.90649Z" fill="#BAA8FF"/>
</g>
<defs>
<clipPath id="clip0_205_3335">
<rect width="39" height="36" fill="white"/>
</clipPath>
</defs>
</svg>
