<svg width="42" height="34" viewBox="0 0 42 34" fill="none" xmlns="http://www.w3.org/2000/svg">
<path d="M13.2034 33.2628C29.0562 33.2628 37.7255 20.4684 37.7255 9.36981C37.7255 9.00439 37.7159 8.64365 37.7014 8.28292C39.3843 7.09763 40.846 5.6172 42 3.93532C40.4566 4.60526 38.7929 5.05502 37.0523 5.25647C38.8314 4.21642 40.1969 2.57201 40.8412 0.613723C39.1776 1.57413 37.3312 2.27686 35.3694 2.65166C33.7971 1.02131 31.5565 0 29.0803 0C24.3201 0 20.4591 3.76198 20.4591 8.39535C20.4591 9.05593 20.536 9.69307 20.6851 10.3115C13.5208 9.96011 7.16909 6.61978 2.92341 1.53665C2.18294 2.77815 1.75501 4.2211 1.75501 5.75775C1.75501 8.67176 3.27442 11.2438 5.59199 12.7476C4.17837 12.7055 2.85129 12.326 1.6877 11.6982C1.6877 11.731 1.6877 11.7685 1.6877 11.806C1.6877 15.8725 4.65918 19.269 8.60194 20.0373C7.8759 20.2294 7.11619 20.3325 6.33245 20.3325C5.7795 20.3325 5.23617 20.281 4.71207 20.1826C5.80835 23.5182 8.99142 25.945 12.7611 26.0153C9.80882 28.2687 6.09685 29.6086 2.05793 29.6086C1.36073 29.6086 0.677962 29.5711 0 29.4915C3.81294 31.8714 8.3423 33.2628 13.2082 33.2628" fill="#9680EA"/>
</svg>
