<svg width="30" height="30" viewBox="0 0 30 30" fill="none" xmlns="http://www.w3.org/2000/svg">
<path d="M15 5C9.47407 5 5 9.47407 5 15C5 20.5259 9.47407 25 15 25C20.5259 25 25 20.5259 25 15C25 9.47407 20.5259 5 15 5ZM15.2222 9.22222C15.9629 9.22222 16.5704 9.82222 16.5704 10.5704C16.5704 11.3111 15.9704 11.9185 15.2222 11.9185C14.4741 11.9185 13.8741 11.3185 13.8741 10.5704C13.8741 9.82222 14.4815 9.22222 15.2222 9.22222ZM17.2148 19.9111C17.2148 20.1407 17.0222 20.3333 16.7926 20.3333H13.6445C13.4148 20.3333 13.2222 20.1481 13.2222 19.9111V19.0741C13.2222 18.8445 13.4074 18.6519 13.6445 18.6519H14.1778V14.4445H13.6445C13.4148 14.4445 13.2222 14.2593 13.2222 14.0222V13.1778C13.2222 12.9481 13.4074 12.7555 13.6445 12.7555H15.8371C16.0667 12.7555 16.2593 12.9407 16.2593 13.1778V18.6519H16.7926C17.0222 18.6519 17.2148 18.8371 17.2148 19.0741V19.9111Z" fill="#2B3240"/>
</svg>
