<?xml version="1.0" encoding="UTF-8"?><svg id="_圖層_2" xmlns="http://www.w3.org/2000/svg" viewBox="0 0 127.86 91.87"><defs><style>.cls-1{fill:#f3f;}.cls-2{fill:#5932ea;}.cls-3{fill:#1a1a1a;}</style></defs><g id="_圖層_1-2"><g><g><path class="cls-1" d="M63.93,0c8.84,0,16.01,7.17,16.01,16.01s-7.17,16.01-16.01,16.01c8.84,0,16.01,7.17,16.01,16.01s-7.17,16.01-16.01,16.01c17.68,0,32.02-14.34,32.02-32.02S81.62,0,63.93,0Z"/><path class="cls-2" d="M47.92,48.03c0-8.84,7.17-16.01,16.01-16.01-8.84,0-16.01-7.17-16.01-16.01S55.09,0,63.93,0C46.25,0,31.91,14.34,31.91,32.02s14.34,32.02,32.02,32.02c-8.84,0-16.01-7.17-16.01-16.01Z"/></g><g><polygon class="cls-3" points="127.86 76.28 116.95 76.28 116.95 79.08 121 79.08 121 91.87 123.81 91.87 123.81 79.08 127.86 79.08 127.86 76.28"/><polygon class="cls-3" points="79.53 76.28 68.61 76.28 68.61 79.08 72.66 79.08 72.66 91.87 75.47 91.87 75.47 79.08 79.53 79.08 79.53 76.28"/><polygon class="cls-3" points="113.05 79.08 113.05 76.28 103.7 76.28 103.7 76.89 103.7 76.89 103.7 91.87 103.7 91.87 106.5 91.87 113.05 91.87 113.05 89.06 106.5 89.06 106.5 85.48 112.27 85.48 112.27 82.67 106.5 82.67 106.5 79.08 113.05 79.08"/><path class="cls-3" d="M99.8,87.27c0-1.45-.68-2.75-1.73-3.59,.6-.78,.95-1.75,.95-2.8,0-2.54-2.06-4.6-4.6-4.6h-5.54v15.59h0s6.32,0,6.32,0h0c2.54,0,4.6-2.06,4.6-4.6Zm-5.38-8.19h0c.99,0,1.79,.8,1.79,1.79s-.8,1.79-1.79,1.79h0s-2.73,0-2.73,0v-3.59h2.73Zm.78,9.98h0s-3.51,0-3.51,0v-3.59h3.51c.99,0,1.79,.8,1.79,1.79s-.8,1.79-1.79,1.79Z"/><path class="cls-3" d="M7.87,82.67h0s-3.27,0-3.27,0h0c-.99,0-1.79-.8-1.79-1.79s.8-1.79,1.79-1.79h2.49c.99,0,1.79,.8,1.79,1.79h2.81c0-2.54-2.06-4.6-4.6-4.6h-2.49s0,0,0,0c-2.54,0-4.6,2.06-4.6,4.6s2.06,4.6,4.6,4.6h0s3.27,0,3.27,0h0c.99,0,1.79,.8,1.79,1.79s-.8,1.79-1.79,1.79h0s-3.28,0-3.28,0c-.99,0-1.79-.8-1.79-1.79H0c0,2.54,2.06,4.6,4.6,4.6h0s0,0,0,0h3.27c2.54,0,4.6-2.06,4.6-4.6s-2.06-4.6-4.6-4.6Z"/><path class="cls-3" d="M63.03,91.87h3.24l-4-6.93c1.45-.77,2.44-2.3,2.44-4.06,0-2.54-2.06-4.6-4.6-4.6h-6.32v15.59h2.81v-6.39h2.74l3.69,6.39Zm-6.43-12.79h3.51c.99,0,1.79,.8,1.79,1.79s-.8,1.79-1.79,1.79h0s-3.51,0-3.51,0v-3.59Z"/><path class="cls-3" d="M44.83,76.28h-3.9l-5.07,15.59h2.95l1.17-3.59h5.8l1.17,3.59h2.95l-5.07-15.59Zm-3.94,9.2l1.99-6.12,1.99,6.12h-3.98Z"/><polygon class="cls-3" points="29.16 76.28 29.16 76.28 28.3 76.28 24.17 85.14 20.04 76.28 19.18 76.28 19.18 76.28 16.37 76.28 16.37 91.87 19.18 91.87 19.18 81.08 22.54 88.28 22.7 88.28 25.63 88.28 25.8 88.28 29.16 81.08 29.16 91.87 31.97 91.87 31.97 76.28 29.16 76.28"/></g></g></g></svg>