<svg width="26" height="26" viewBox="0 0 26 26" fill="none" xmlns="http://www.w3.org/2000/svg">
<path d="M2.16663 5.41659C2.16663 4.8175 2.65196 4.33325 3.24996 4.33325H17.3333C17.9313 4.33325 18.4166 4.8175 18.4166 5.41659C18.4166 6.01567 17.9313 6.49992 17.3333 6.49992H3.24996C2.65196 6.49992 2.16663 6.01567 2.16663 5.41659ZM22.75 11.9166H3.24996C2.65196 11.9166 2.16663 12.4008 2.16663 12.9999C2.16663 13.599 2.65196 14.0833 3.24996 14.0833H22.75C23.348 14.0833 23.8333 13.599 23.8333 12.9999C23.8333 12.4008 23.348 11.9166 22.75 11.9166ZM13 19.4999H3.24996C2.65196 19.4999 2.16663 19.9842 2.16663 20.5833C2.16663 21.1823 2.65196 21.6666 3.24996 21.6666H13C13.598 21.6666 14.0833 21.1823 14.0833 20.5833C14.0833 19.9842 13.598 19.4999 13 19.4999Z" fill="#5932EA"/>
</svg>
