<svg width="30" height="30" viewBox="0 0 30 30" fill="none" xmlns="http://www.w3.org/2000/svg">
<path d="M13.6192 18.3252L20.3165 21.8846V7.36597L13.6192 10.8786V18.3252Z" fill="#2B3240"/>
<path d="M22.6583 14.0165H25V15.1873H22.6583V14.0165Z" fill="#2B3240"/>
<path d="M24.0633 10.2229L24.5317 11.3001L22.3305 12.1899L21.8621 11.1127L24.0633 10.2229Z" fill="#2B3240"/>
<path d="M24.0633 18.9809L21.8621 18.091L22.3305 17.0139L24.5317 17.9037L24.0633 18.9809Z" fill="#2B3240"/>
<path d="M12.4015 11.2532H7.24974V12.4241H7.0624C5.89154 12.4709 4.95485 13.5013 5.00168 14.6722C5.04852 15.7962 5.93837 16.686 7.0624 16.7328H7.24974V17.9037H8.5611L9.87247 22.634H13.7129L12.4015 18.1379V11.2532Z" fill="#2B3240"/>
</svg>
