<svg width="30" height="30" viewBox="0 0 30 30" fill="none" xmlns="http://www.w3.org/2000/svg">
<path d="M16.3099 5C21.8399 5 26.3199 9.5 26.3199 15C26.3199 20.5 21.8399 25 16.3099 25C12.7999 25 9.72993 23.18 7.93993 20.43L9.51993 19.18C10.9299 21.47 13.4399 23 16.3199 23C18.4417 23 20.4765 22.1571 21.9768 20.6569C23.4771 19.1566 24.3199 17.1217 24.3199 15C24.3199 12.8783 23.4771 10.8434 21.9768 9.34315C20.4765 7.84285 18.4417 7 16.3199 7C12.2399 7 8.87993 10.06 8.38993 14H11.1499L7.40993 17.73L3.67993 14H6.36993C6.86993 8.95 11.1299 5 16.3099 5ZM19.2699 13.24C19.7699 13.25 20.1799 13.65 20.1799 14.16V18.77C20.1799 19.27 19.7699 19.69 19.2599 19.69H13.7299C13.2199 19.69 12.8099 19.27 12.8099 18.77V14.16C12.8099 13.65 13.2199 13.25 13.7199 13.24V12.23C13.7199 10.7 14.9699 9.46 16.4899 9.46C18.0199 9.46 19.2699 10.7 19.2699 12.23V13.24ZM16.4899 10.86C15.7399 10.86 15.1199 11.47 15.1199 12.23V13.24H17.8699V12.23C17.8699 11.47 17.2499 10.86 16.4899 10.86Z" fill="#2B3240"/>
</svg>
