<svg width="30" height="30" viewBox="0 0 30 30" fill="none" xmlns="http://www.w3.org/2000/svg">
<path d="M18.1905 22.619L16.3333 24.4524C15.9683 24.8175 15.5238 25 15 25C14.4762 25 14.0317 24.8175 13.6667 24.4524L11.8095 22.619H9.28571C8.7619 22.619 8.31333 22.4324 7.94 22.059C7.56667 21.6857 7.38032 21.2375 7.38095 20.7143V18.1905L5.54762 16.3333C5.18254 15.9683 5 15.5238 5 15C5 14.4762 5.18254 14.0317 5.54762 13.6667L7.38095 11.8095V9.28571C7.38095 8.7619 7.56762 8.31333 7.94095 7.94C8.31429 7.56667 8.76254 7.38032 9.28571 7.38095H11.8095L13.6667 5.54762C14.0317 5.18254 14.4762 5 15 5C15.5238 5 15.9683 5.18254 16.3333 5.54762L18.1905 7.38095H20.7143C21.2381 7.38095 21.6867 7.56762 22.06 7.94095C22.4333 8.31429 22.6197 8.76254 22.619 9.28571V11.8095L24.4524 13.6667C24.8175 14.0317 25 14.4762 25 15C25 15.5238 24.8175 15.9683 24.4524 16.3333L22.619 18.1905V20.7143C22.619 21.2381 22.4324 21.6867 22.059 22.06C21.6857 22.4333 21.2375 22.6197 20.7143 22.619H18.1905ZM15 17.3571L16.8333 18.4524C17.0079 18.5635 17.1784 18.5597 17.3448 18.441C17.5111 18.3222 17.5708 18.1594 17.5238 17.9524L17.0476 15.881L18.6667 14.4762C18.8254 14.3333 18.873 14.1629 18.8095 13.9648C18.746 13.7667 18.6032 13.6594 18.381 13.6429L16.2619 13.4762L15.4286 11.5C15.3492 11.3095 15.2063 11.2143 15 11.2143C14.7937 11.2143 14.6508 11.3095 14.5714 11.5L13.7381 13.4762L11.619 13.6429C11.3968 13.6587 11.254 13.766 11.1905 13.9648C11.127 14.1635 11.1746 14.334 11.3333 14.4762L12.9524 15.881L12.4762 17.9524C12.4286 18.1587 12.4883 18.3216 12.6552 18.441C12.8222 18.5603 12.9927 18.5641 13.1667 18.4524L15 17.3571Z" fill="#2B3240"/>
</svg>
