<svg width="30" height="30" viewBox="0 0 30 30" fill="none" xmlns="http://www.w3.org/2000/svg">
<path d="M24.8122 12.232C24.7183 12.1381 24.6244 12.0912 24.5305 12.0912H18.8028C19.554 12.0912 20.3051 11.8095 20.8685 11.2461C21.4319 10.7297 21.7136 9.97851 21.7136 9.18039C21.7136 8.42922 21.4319 7.67804 20.8685 7.11466C20.3521 6.55128 19.6009 6.26959 18.8028 6.26959C17.9577 6.22264 17.1596 6.59823 16.6432 7.25551L14.9531 9.41513L13.3099 7.25551C12.7934 6.59823 11.9953 6.22264 11.1502 6.26959C10.3991 6.26959 9.64789 6.55128 9.08451 7.11466C8.52113 7.6311 8.23943 8.38227 8.23943 9.18039C8.23943 9.93156 8.52113 10.6827 9.08451 11.2461C9.60094 11.8095 10.3521 12.0912 11.1502 12.0912H5.42253C5.18779 12.0912 5 12.232 5 12.4668C5 12.4668 5 12.4668 5 12.5137V16.6452C5 16.8799 5.14085 17.0677 5.37559 17.0677C5.37559 17.0677 5.37559 17.0677 5.42253 17.0677H6.69014V22.4668C6.69014 23.171 7.20657 23.7344 7.9108 23.7344H7.95775H22.0423C22.7465 23.7344 23.2629 23.171 23.3099 22.5137V17.0677H24.5775C24.8122 17.0677 25 16.9269 25 16.6921V16.6452V12.5137C24.9061 12.4198 24.9061 12.279 24.8122 12.232ZM17.9108 8.33532C18.1455 8.05363 18.4742 7.91278 18.8028 7.91278C19.5071 7.91278 20.0235 8.47616 20.0704 9.13344C20.0704 9.83767 19.5071 10.3541 18.8497 10.4011H16.3145L17.9108 8.33532ZM11.1033 10.448C10.3991 10.448 9.88263 9.88462 9.88263 9.22734C9.88263 8.52312 10.446 8.00668 11.1033 8.00668C11.4319 8.00668 11.7605 8.14752 11.9953 8.42922L13.6385 10.4949L11.1033 10.448ZM17.0188 14.5794V21.387C17.0188 21.5748 16.9249 21.7626 16.7841 21.9034C16.5963 22.0442 16.4085 22.0912 16.1737 22.0912H13.6855C13.4507 22.0912 13.2629 22.0442 13.0751 21.9034C12.9343 21.8095 12.8404 21.6217 12.8404 21.387V12.0912H16.9718V14.5794H17.0188Z" fill="#2B3240"/>
</svg>
