<?xml version="1.0" encoding="UTF-8" standalone="no"?>
<!DOCTYPE svg PUBLIC "-//W3C//DTD SVG 1.1//EN" "http://www.w3.org/Graphics/SVG/1.1/DTD/svg11.dtd">
<svg width="100%" height="100%" viewBox="0 0 30 21" version="1.1" xmlns="http://www.w3.org/2000/svg" xmlns:xlink="http://www.w3.org/1999/xlink" xml:space="preserve" xmlns:serif="http://www.serif.com/" style="fill-rule:evenodd;clip-rule:evenodd;stroke-linejoin:round;stroke-miterlimit:2;">
    <g>
        <g>
            <g transform="matrix(1,0,0,1,-0.67,-6.84)">
                <path d="M22.304,26.88C22.309,26.88 22.315,26.88 22.32,26.88C23.818,26.88 25.05,25.648 25.05,24.15C25.05,24.139 25.05,24.129 25.05,24.118C25.05,24.13 25.05,15.74 25.05,15.74C25.05,15.741 25.05,15.735 25.05,15.73C25.05,14.232 23.818,13 22.32,13C22.315,13 22.309,13 22.304,13C22.31,13 3.41,13 3.41,13C3.41,13 3.41,13 3.41,13C1.907,13 0.67,14.237 0.67,15.74C0.67,15.745 0.67,15.75 0.67,15.756C0.67,15.75 0.67,24.14 0.67,24.14C0.67,25.643 1.907,26.88 3.41,26.88L22.31,26.88L22.304,26.88ZM22.313,24.88L3.41,24.88C3.004,24.88 2.67,24.546 2.67,24.14L2.67,15.74C2.67,15.334 3.004,15 3.41,15L22.32,15C22.72,15 23.05,15.33 23.05,15.73L23.05,24.15C23.05,24.55 22.721,24.88 22.32,24.88L22.313,24.88Z"/>
            </g>
            <path d="M7.46,7.52L7.46,18.64L9.46,18.64L9.46,7.52L7.46,7.52Z"/>
            <path d="M14.92,7.54L14.92,18.67L16.92,18.67L16.92,7.54L14.92,7.54Z"/>
            <path d="M4.74,10.65L5.53,12.27L7.31,12.52L6.03,13.78L6.33,15.55L4.74,14.71L3.15,15.55L3.45,13.78L2.17,12.52L3.94,12.27L4.74,10.65Z" style="fill-rule:nonzero;"/>
            <path d="M12.19,10.65L12.99,12.27L14.77,12.52L13.48,13.78L13.78,15.55L12.19,14.71L10.6,15.55L10.91,13.78L9.62,12.52L11.4,12.27L12.19,10.65Z" style="fill-rule:nonzero;"/>
            <path d="M19.67,10.65L20.47,12.27L22.24,12.52L20.96,13.78L21.26,15.55L19.67,14.71L18.08,15.55L18.38,13.78L17.1,12.52L18.88,12.27L19.67,10.65Z" style="fill-rule:nonzero;"/>
        </g>
        <g transform="matrix(1,0,0,1,-0.67,-6.84)">
            <path d="M23.56,22.38L25.57,22.38C26.916,22.353 28,21.246 28,19.91C28,19.91 28,12.4 28,12.4L26,12.4L26,19.91C26,20.164 25.794,20.375 25.54,20.38C25.56,20.38 23.56,20.38 23.56,20.38L23.56,22.38Z"/>
        </g>
        <path d="M26.34,0C24.397,0 22.82,1.577 22.82,3.52C22.82,5.463 24.397,7.04 26.34,7.04C28.283,7.04 29.86,5.463 29.86,3.52C29.86,1.577 28.283,0 26.34,0ZM26.34,2C27.179,2 27.86,2.681 27.86,3.52C27.86,4.359 27.179,5.04 26.34,5.04C25.501,5.04 24.82,4.359 24.82,3.52C24.82,2.681 25.501,2 26.34,2Z"/>
    </g>
</svg>
