<?xml version="1.0" encoding="UTF-8" standalone="no"?>
<!DOCTYPE svg PUBLIC "-//W3C//DTD SVG 1.1//EN" "http://www.w3.org/Graphics/SVG/1.1/DTD/svg11.dtd">
<svg width="100%" height="100%" viewBox="0 0 31 31" version="1.1" xmlns="http://www.w3.org/2000/svg" xmlns:xlink="http://www.w3.org/1999/xlink" xml:space="preserve" xmlns:serif="http://www.serif.com/" style="fill-rule:evenodd;clip-rule:evenodd;stroke-linejoin:round;stroke-miterlimit:2;">
    <g>
        <g transform="matrix(1,0,0,1,-0.97,-0.97)">
            <path d="M10.394,2.069C10.823,1.889 11.261,1.731 11.714,1.592C14.51,0.758 17.49,0.758 20.282,1.591C20.588,1.681 20.901,1.779 21.191,1.89L21.269,1.89L21.437,1.952C21.893,2.121 22.337,2.319 22.751,2.537C24.532,3.436 26.117,4.682 27.412,6.202C27.593,6.416 27.775,6.64 27.943,6.861C28.277,7.296 28.583,7.75 28.856,8.214C30.274,10.564 31.015,13.261 31,16.006L31,16L31,17.125L30.998,17.159C30.924,18.217 30.733,19.263 30.429,20.274C30.181,21.11 29.863,21.922 29.48,22.697C29.168,23.338 28.808,23.954 28.401,24.54C28.136,24.923 27.849,25.295 27.549,25.659C26.414,27.025 25.038,28.172 23.5,29.036C22.485,29.621 21.404,30.082 20.287,30.408C19.849,30.539 19.405,30.647 18.956,30.732L18.864,30.75L18.746,30.75C17.838,30.926 16.915,31.01 16.003,31C15.335,31.002 14.668,30.959 14.006,30.87L13.739,30.87L13.669,30.86C13.009,30.766 12.357,30.621 11.726,30.429C9.257,29.698 7.017,28.344 5.227,26.501C4.779,26.045 4.363,25.558 3.994,25.056C3.391,24.263 2.871,23.408 2.451,22.518C2.101,21.8 1.816,21.052 1.601,20.283C1.304,19.328 1.104,18.345 1.005,17.349L1,17.3L1,16.041C0.999,14.592 1.204,13.151 1.609,11.765C1.946,10.587 2.429,9.455 3.046,8.397C3.32,7.925 3.622,7.469 3.95,7.03C4.139,6.778 4.339,6.525 4.545,6.276C5.816,4.766 7.377,3.525 9.143,2.626C9.444,2.475 9.746,2.325 10.073,2.19L10.394,2.069ZM20.906,3.89L20.799,3.89L20.613,3.812C20.336,3.696 20.022,3.599 19.714,3.508C17.291,2.786 14.709,2.786 12.294,3.506C11.905,3.625 11.523,3.764 11.13,3.929L10.81,4.049C10.546,4.159 10.292,4.287 10.044,4.411C8.524,5.186 7.174,6.258 6.081,7.557C5.901,7.775 5.721,8.002 5.551,8.229C5.27,8.605 5.011,8.997 4.774,9.404C4.24,10.319 3.823,11.297 3.53,12.32C3.178,13.528 2.999,14.781 3,16.04L3,17.197C3.088,18.047 3.26,18.887 3.519,19.717L3.523,19.731C3.707,20.389 3.95,21.028 4.254,21.653C4.62,22.428 5.066,23.162 5.596,23.858C5.918,24.296 6.271,24.711 6.657,25.103C8.212,26.704 10.154,27.878 12.301,28.513C12.82,28.671 13.349,28.791 13.886,28.87L14.139,28.87L14.207,28.879C14.8,28.962 15.398,29.002 16.011,29C16.83,29.009 17.649,28.932 18.452,28.77L18.55,28.75L18.673,28.75C19.024,28.681 19.371,28.594 19.72,28.49C20.691,28.207 21.624,27.809 22.51,27.298C23.845,26.548 25.032,25.559 26.008,24.384C26.271,24.065 26.524,23.737 26.758,23.4C27.106,22.899 27.414,22.372 27.684,21.817C28.019,21.138 28.296,20.432 28.512,19.702C28.772,18.839 28.935,17.951 29,17.052L29,16L29,15.994C29.013,13.617 28.371,11.282 27.138,9.238C26.902,8.836 26.641,8.449 26.355,8.076C26.205,7.88 26.047,7.684 25.889,7.498C24.767,6.182 23.394,5.102 21.841,4.319L21.834,4.315C21.532,4.156 21.223,4.014 20.906,3.89Z"/>
        </g>
        <path d="M15.03,9.88L9.61,13.81L11.68,20.19L18.38,20.19L20.45,13.81L15.03,9.88Z" style="fill-rule:nonzero;"/>
        <path d="M20.03,14.03L29.03,10.03" style="fill:none;fill-rule:nonzero;"/>
        <path d="M20.233,14.487L29.233,10.487L28.827,9.573L19.827,13.573L20.233,14.487Z"/>
        <g transform="matrix(1,0,0,1,-0.97,-0.97)">
            <path d="M30,16L30,16.5L29.17,17.14L23.65,13.34L25.55,6.92L26.64,6.92C26.81,7.12 26.98,7.33 27.14,7.54C27.45,7.919 27.737,8.317 28,8.73C29.322,10.923 30.014,13.439 30,16Z" style="fill-rule:nonzero;"/>
        </g>
        <path d="M15.03,1.53L15.03,10.49" style="fill:none;fill-rule:nonzero;"/>
        <path d="M14.53,1.53L14.53,10.49L15.53,10.49L15.53,1.53L14.53,1.53Z"/>
        <g transform="matrix(1,0,0,1,-0.97,-0.97)">
            <path d="M21.36,3.72L15.94,7.66L10.52,3.72L10.76,3C11.166,2.829 11.579,2.679 12,2.55C14.61,1.772 17.39,1.772 20,2.55C20.34,2.65 20.69,2.76 21,2.89L21.09,2.89L21.36,3.72Z" style="fill-rule:nonzero;"/>
        </g>
        <path d="M18.15,19.5L22.75,26.9" style="fill:none;fill-rule:nonzero;"/>
        <path d="M17.725,19.764L22.325,27.164L23.175,26.636L18.575,19.236L17.725,19.764Z"/>
        <g transform="matrix(1,0,0,1,-0.97,-0.97)">
            <path d="M27.54,24C27.29,24.36 27.02,24.71 26.74,25.05C25.692,26.307 24.425,27.365 23,28.17C22.055,28.715 21.048,29.145 20,29.45C19.595,29.571 19.185,29.671 18.77,29.75L18.65,29.75L18.39,29.54L20.75,23.27L27.45,23.58L27.54,24Z" style="fill-rule:nonzero;"/>
        </g>
        <path d="M12.02,19.5L8.12,27.29" style="fill:none;fill-rule:nonzero;"/>
        <path d="M11.573,19.276L7.673,27.066L8.567,27.514L12.467,19.724L11.573,19.276Z"/>
        <g transform="matrix(1,0,0,1,-0.97,-0.97)">
            <path d="M14.43,29.21L13.81,29.85C13.201,29.763 12.599,29.629 12.01,29.45C9.705,28.768 7.615,27.504 5.94,25.78C5.525,25.358 5.141,24.907 4.79,24.43L11.29,23.29L14.43,29.21Z" style="fill-rule:nonzero;"/>
        </g>
        <path d="M10.31,14.03L1.31,10.03" style="fill:none;fill-rule:nonzero;"/>
        <path d="M10.513,13.573L1.513,9.573L1.107,10.487L10.107,14.487L10.513,13.573Z"/>
        <g transform="matrix(1,0,0,1,-0.97,-0.97)">
            <path d="M7.39,13.34L2,17L2,16C1.999,14.646 2.191,13.299 2.57,12C2.887,10.915 3.338,9.874 3.91,8.9C4.165,8.461 4.446,8.037 4.75,7.63C4.93,7.39 5.12,7.15 5.31,6.92L5.49,6.92L7.39,13.34Z" style="fill-rule:nonzero;"/>
        </g>
    </g>
</svg>
