<svg width="40" height="40" viewBox="0 0 40 40" fill="none" xmlns="http://www.w3.org/2000/svg">
<path d="M39.9222 3.7098C39.7778 3.29309 39.6055 3.17641 39.3388 3.0764C38.7554 2.85415 37.7664 3.18752 37.7664 3.18752C37.7664 3.18752 2.71265 15.7889 0.712438 17.1835C0.279058 17.4835 0.134597 17.6557 0.0679232 17.8613C-0.276558 18.8559 0.801336 19.2948 0.801336 19.2948L9.83564 22.2396C9.83564 22.2396 10.1746 22.2896 10.2912 22.2118C12.347 20.9117 30.9712 9.15483 32.0436 8.76034C32.2158 8.71034 32.3381 8.7659 32.3047 8.88258C31.8769 10.3939 15.7029 24.7676 15.7029 24.7676C15.7029 24.7676 15.6418 24.8454 15.6029 24.9343L15.5807 24.9232L14.7362 33.8853C14.7362 33.8853 14.3806 36.63 17.1309 33.8853C19.07 31.9462 20.9424 30.3293 21.8814 29.5404C24.9873 31.685 28.3321 34.0575 29.7711 35.2965C30.4934 35.9188 31.1046 36.0188 31.5991 36.0022C32.9659 35.9522 33.3493 34.4464 33.3493 34.4464C33.3493 34.4464 39.7389 8.73812 39.95 5.2933C39.9722 4.95438 40 4.74324 40 4.50989C40 4.18763 39.9722 3.86537 39.9222 3.7098Z" fill="#9680EA"/>
</svg>
