<svg width="14" height="14" viewBox="0 0 14 14" fill="none" xmlns="http://www.w3.org/2000/svg">
<path d="M6.33333 10.3333H7.66666V6.33334H6.33333V10.3333ZM7 5.00001C7.18888 5.00001 7.34733 4.93601 7.47533 4.80801C7.60333 4.68001 7.66711 4.52179 7.66666 4.33334C7.66666 4.14445 7.60266 3.98601 7.47466 3.85801C7.34666 3.73001 7.18844 3.66623 7 3.66668C6.81111 3.66668 6.65266 3.73068 6.52466 3.85868C6.39666 3.98668 6.33288 4.1449 6.33333 4.33334C6.33333 4.52223 6.39733 4.68068 6.52533 4.80868C6.65333 4.93668 6.81155 5.00045 7 5.00001ZM7 13.6667C6.07777 13.6667 5.21111 13.4916 4.4 13.1413C3.58888 12.7911 2.88333 12.3162 2.28333 11.7167C1.68333 11.1167 1.20844 10.4111 0.858662 9.60001C0.508884 8.7889 0.333773 7.92223 0.333328 7.00001C0.333328 6.07779 0.508439 5.21112 0.858662 4.40001C1.20888 3.5889 1.68377 2.88334 2.28333 2.28334C2.88333 1.68334 3.58888 1.20845 4.4 0.858677C5.21111 0.508899 6.07777 0.333788 7 0.333344C7.92222 0.333344 8.78888 0.508455 9.59999 0.858677C10.4111 1.2089 11.1167 1.68379 11.7167 2.28334C12.3167 2.88334 12.7918 3.5889 13.142 4.40001C13.4922 5.21112 13.6671 6.07779 13.6667 7.00001C13.6667 7.92223 13.4916 8.7889 13.1413 9.60001C12.7911 10.4111 12.3162 11.1167 11.7167 11.7167C11.1167 12.3167 10.4111 12.7918 9.59999 13.142C8.78888 13.4922 7.92222 13.6671 7 13.6667ZM7 12.3333C8.48888 12.3333 9.74999 11.8167 10.7833 10.7833C11.8167 9.75001 12.3333 8.4889 12.3333 7.00001C12.3333 5.51112 11.8167 4.25001 10.7833 3.21668C9.74999 2.18334 8.48888 1.66668 7 1.66668C5.51111 1.66668 4.24999 2.18334 3.21666 3.21668C2.18333 4.25001 1.66666 5.51112 1.66666 7.00001C1.66666 8.4889 2.18333 9.75001 3.21666 10.7833C4.24999 11.8167 5.51111 12.3333 7 12.3333Z" fill="white" fill-opacity="0.3"/>
</svg>
