<svg width="65" height="10" viewBox="0 0 65 10" fill="none" xmlns="http://www.w3.org/2000/svg">
<path d="M5.84661 1.76516C4.49169 -0.0131728 2.03943 -0.517739 0 0.572547C0.797426 2.36146 1.3902 4.46441 5.31735 4.58437C5.77604 4.59849 6.28414 4.58438 6.8381 4.54203C6.76048 3.41646 6.39352 2.48496 5.84661 1.76516Z" fill="white"/>
<path d="M5.12328 5.42413C2.75923 5.5441 1.65484 6.40151 0.963262 7.46357C0.553964 8.0881 0.29286 8.77967 0 9.4289C2.86156 10.9567 6.55936 9.34775 6.8381 5.45589C6.20299 5.40649 5.63138 5.39943 5.12328 5.42413Z" fill="white"/>
<path d="M17.1387 2.39258H12.5684V4.22656H16.7637V5.72656H12.5684V7.94727H17.3496V9.5H10.8047V0.863281H17.1387V2.39258ZM22.5586 3.11328H24.3516L22.0488 9.5H20.2852L17.9941 3.11328H19.8691L21.1992 7.82422L22.5586 3.11328ZM28.166 8.32227C28.6543 8.32227 29.0293 8.14844 29.291 7.80078C29.5527 7.45312 29.6836 6.95898 29.6836 6.31836C29.6836 5.67773 29.5527 5.18555 29.291 4.8418C29.0293 4.49414 28.6543 4.32031 28.166 4.32031C27.6777 4.32031 27.3008 4.49414 27.0352 4.8418C26.7734 5.18555 26.6426 5.67773 26.6426 6.31836C26.6426 6.95898 26.7734 7.45312 27.0352 7.80078C27.3008 8.14844 27.6777 8.32227 28.166 8.32227ZM31.4355 6.31836C31.4355 7.25586 31.166 8.05859 30.627 8.72656C30.0879 9.39062 29.2695 9.72266 28.1719 9.72266C27.0742 9.72266 26.2559 9.39062 25.7168 8.72656C25.1777 8.05859 24.9082 7.25586 24.9082 6.31836C24.9082 5.39648 25.1777 4.59766 25.7168 3.92188C26.2559 3.24609 27.0742 2.9082 28.1719 2.9082C29.2695 2.9082 30.0879 3.24609 30.627 3.92188C31.166 4.59766 31.4355 5.39648 31.4355 6.31836ZM34.3418 9.5H32.6719V0.863281H34.3418V9.5ZM37.6406 3.11328V6.96289C37.6406 7.32617 37.6836 7.59961 37.7695 7.7832C37.9219 8.10742 38.2207 8.26953 38.666 8.26953C39.2363 8.26953 39.627 8.03906 39.8379 7.57812C39.9473 7.32812 40.002 6.99805 40.002 6.58789V3.11328H41.6953V9.5H40.0723V8.59766C40.0566 8.61719 40.0176 8.67578 39.9551 8.77344C39.8926 8.87109 39.8184 8.95703 39.7324 9.03125C39.4707 9.26562 39.2168 9.42578 38.9707 9.51172C38.7285 9.59766 38.4434 9.64062 38.1152 9.64062C37.1699 9.64062 36.5332 9.30078 36.2051 8.62109C36.0215 8.24609 35.9297 7.69336 35.9297 6.96289V3.11328H37.6406ZM42.6562 4.36133V3.17188H43.5469V1.39062H45.1992V3.17188H46.2363V4.36133H45.1992V7.73633C45.1992 7.99805 45.2324 8.16211 45.2988 8.22852C45.3652 8.29102 45.5684 8.32227 45.9082 8.32227C45.959 8.32227 46.0117 8.32227 46.0664 8.32227C46.125 8.31836 46.1816 8.31445 46.2363 8.31055V9.55859L45.4453 9.58789C44.6562 9.61523 44.1172 9.47852 43.8281 9.17773C43.6406 8.98633 43.5469 8.69141 43.5469 8.29297V4.36133H42.6562ZM49.0254 2.35156H47.332V0.810547H49.0254V2.35156ZM47.332 3.11328H49.0254V9.5H47.332V3.11328ZM53.5137 8.32227C54.002 8.32227 54.377 8.14844 54.6387 7.80078C54.9004 7.45312 55.0312 6.95898 55.0312 6.31836C55.0312 5.67773 54.9004 5.18555 54.6387 4.8418C54.377 4.49414 54.002 4.32031 53.5137 4.32031C53.0254 4.32031 52.6484 4.49414 52.3828 4.8418C52.1211 5.18555 51.9902 5.67773 51.9902 6.31836C51.9902 6.95898 52.1211 7.45312 52.3828 7.80078C52.6484 8.14844 53.0254 8.32227 53.5137 8.32227ZM56.7832 6.31836C56.7832 7.25586 56.5137 8.05859 55.9746 8.72656C55.4355 9.39062 54.6172 9.72266 53.5195 9.72266C52.4219 9.72266 51.6035 9.39062 51.0645 8.72656C50.5254 8.05859 50.2559 7.25586 50.2559 6.31836C50.2559 5.39648 50.5254 4.59766 51.0645 3.92188C51.6035 3.24609 52.4219 2.9082 53.5195 2.9082C54.6172 2.9082 55.4355 3.24609 55.9746 3.92188C56.5137 4.59766 56.7832 5.39648 56.7832 6.31836ZM61.5234 2.96094C62.1836 2.96094 62.7227 3.13477 63.1406 3.48242C63.5625 3.82617 63.7734 4.39844 63.7734 5.19922V9.5H62.0625V5.61523C62.0625 5.2793 62.0176 5.02148 61.9277 4.8418C61.7637 4.51367 61.4512 4.34961 60.9902 4.34961C60.4238 4.34961 60.0352 4.58984 59.8242 5.07031C59.7148 5.32422 59.6602 5.64844 59.6602 6.04297V9.5H57.9961V3.125H59.6074V4.05664C59.8223 3.72852 60.0254 3.49219 60.2168 3.34766C60.5605 3.08984 60.9961 2.96094 61.5234 2.96094Z" fill="white"/>
</svg>
