<svg width="30" height="30" viewBox="0 0 30 30" fill="none" xmlns="http://www.w3.org/2000/svg">
<path d="M8.25386 16.6192C7.95735 16.6192 7.69572 16.625 7.43409 16.6192C6.12595 16.5727 5.02712 15.5029 5.01549 14.1948C4.99223 11.9448 4.99223 9.68898 5.01549 7.43316C5.02712 6.13084 6.13177 5.06107 7.43409 5.00874C7.5213 5.00293 7.60851 5.00293 7.69572 5.00293C12.5678 5.00293 17.4341 5.00293 22.3062 5.00293C23.3294 5.00293 24.1201 5.39828 24.655 6.27619C24.8992 6.67735 24.998 7.11921 24.998 7.58433C24.998 9.73549 25.0097 11.8867 24.9922 14.0378C24.9806 15.5262 23.8992 16.596 22.4108 16.6192C22.2015 16.625 21.9922 16.6192 21.7597 16.6192C21.7539 16.718 21.748 16.8053 21.748 16.8867C21.748 18.7064 21.7539 20.5204 21.748 22.3401C21.7422 23.468 21.2422 24.3169 20.2015 24.7762C19.876 24.9215 19.4864 24.9855 19.126 24.9855C16.376 25.0029 13.6318 24.9971 10.8818 24.9913C9.35851 24.9855 8.25967 23.8867 8.25386 22.3576C8.24805 20.5378 8.25386 18.7239 8.25386 16.9041C8.25386 16.8285 8.25386 16.7413 8.25386 16.6192ZM21.7655 15.2297C21.9922 15.2297 22.1957 15.2297 22.405 15.2297C23.126 15.218 23.6027 14.7471 23.6085 14.0204C23.6143 11.8808 23.6143 9.74712 23.6085 7.60758C23.6085 6.87502 23.126 6.39828 22.3876 6.39828C17.469 6.39828 12.5446 6.39828 7.62595 6.39828C6.87595 6.39828 6.40502 6.87502 6.40502 7.63084C6.39921 8.34014 6.40502 9.05526 6.40502 9.77037C6.40502 11.189 6.40502 12.6076 6.40502 14.0204C6.40502 14.5262 6.62595 14.9041 7.07944 15.125C7.45735 15.3053 7.85851 15.2122 8.24223 15.2297C8.24223 13.8169 8.24223 12.439 8.24223 11.0553C8.18409 11.0494 8.13758 11.0436 8.09688 11.0494C7.65502 11.0901 7.31781 10.7122 7.32944 10.3401C7.34107 9.93898 7.64921 9.65991 8.1027 9.65409C8.39921 9.64828 8.69572 9.64828 8.99805 9.64828C13.0039 9.64828 17.0097 9.64828 21.0155 9.64828C21.3876 9.64828 21.7597 9.64246 22.126 9.68316C22.4748 9.72386 22.7073 10.0553 22.6841 10.4041C22.6608 10.7471 22.3818 11.0262 22.0329 11.0494C21.9457 11.0553 21.8643 11.0553 21.7713 11.0611C21.7655 12.4506 21.7655 13.8227 21.7655 15.2297ZM15.7015 18.9041C15.7015 18.7646 15.7015 18.6832 15.7015 18.6076C15.7015 17.1134 15.7015 15.6134 15.7015 14.1192C15.7015 13.6541 15.3643 13.346 14.9167 13.3925C14.5562 13.4273 14.3062 13.7297 14.3062 14.1425C14.3062 15.6367 14.3062 17.1367 14.3062 18.6308C14.3062 18.7064 14.3062 18.782 14.3062 18.9215C13.7655 18.375 13.2713 17.875 12.7713 17.3808C12.4515 17.0611 12.0329 17.0436 11.7422 17.3285C11.4457 17.6192 11.4632 18.0436 11.7887 18.3692C12.6725 19.2529 13.5562 20.1367 14.4399 21.0204C14.812 21.3925 15.1899 21.3925 15.562 21.0204C16.0329 20.5553 16.498 20.0843 16.9632 19.6192C17.3934 19.189 17.8294 18.7587 18.2597 18.3227C18.469 18.1134 18.5213 17.8576 18.4283 17.5785C18.3294 17.3053 18.126 17.1599 17.8411 17.1308C17.6085 17.1076 17.4167 17.1948 17.2539 17.3576C16.748 17.8576 16.248 18.3576 15.7015 18.9041Z" fill="#2B3240"/>
</svg>
