<svg width="20" height="20" viewBox="0 0 20 20" fill="none" xmlns="http://www.w3.org/2000/svg">
<path d="M0.833252 12.7083C0.488074 12.7083 0.208252 12.9881 0.208252 13.3333C0.208252 13.6784 0.488074 13.9583 0.833252 13.9583H3.33325C3.67843 13.9583 3.95825 13.6784 3.95825 13.3333C3.95825 12.9881 3.67843 12.7083 3.33325 12.7083H0.833252Z" fill="white"/>
<path d="M0.833252 15.2083C0.488074 15.2083 0.208252 15.4881 0.208252 15.8333C0.208252 16.1784 0.488074 16.4583 0.833252 16.4583H5.83325C6.17843 16.4583 6.45825 16.1784 6.45825 15.8333C6.45825 15.4881 6.17843 15.2083 5.83325 15.2083H0.833252Z" fill="white"/>
<path d="M2.59071 4.24172L2.5 4.16667C2.757 3.81294 3.0305 3.55276 3.38423 3.29576C4.4795 2.5 6.04189 2.5 9.16667 2.5H10.8333C13.9581 2.5 15.5205 2.5 16.6158 3.29576C16.9695 3.55276 17.2214 3.78443 17.4784 4.13816L17.3738 4.24225L15.4505 6.16551C14.0491 7.56689 13.0416 8.5725 12.1726 9.23558C11.318 9.88758 10.6713 10.1491 9.99992 10.1491C9.3285 10.1491 8.68175 9.88758 7.82717 9.23558C6.95817 8.5725 5.95066 7.56689 4.54927 6.16551L2.92989 4.54613L2.59071 4.24172Z" fill="white"/>
<path d="M1.6665 9.9999C1.6665 7.79997 1.6665 6.37445 1.94419 5.34113L2.06971 5.45379L3.69904 7.0831C5.05926 8.44332 6.12525 9.50932 7.06879 10.2292C8.03456 10.9661 8.94517 11.399 9.99975 11.399C11.0543 11.399 11.9649 10.9661 12.9307 10.2292C13.8742 9.50932 14.9402 8.44332 16.3004 7.08312L18.0527 5.33081C18.3332 6.36495 18.3332 7.79264 18.3332 9.9999C18.3332 13.1247 18.3332 14.6871 17.5374 15.7823C17.2804 16.1361 16.9693 16.4472 16.6156 16.7042C15.5203 17.4999 13.9579 17.4999 10.8332 17.4999H9.1665C7.9762 17.4999 7.0126 17.4999 6.21518 17.4559C6.95154 17.2832 7.49984 16.6222 7.49984 15.8332C7.49984 14.9127 6.75365 14.1666 5.83317 14.1666H4.77687C4.91868 13.9214 4.99984 13.6368 4.99984 13.3332C4.99984 12.4127 4.25365 11.6666 3.33317 11.6666H1.67251C1.6665 11.1657 1.6665 10.6128 1.6665 9.9999Z" fill="white"/>
</svg>
