<svg width="18" height="18" viewBox="0 0 18 18" fill="none" xmlns="http://www.w3.org/2000/svg">
<path d="M17.4569 15.0669C17.3821 14.7079 17.0306 14.4775 16.6714 14.5522C16.3123 14.6269 16.0819 14.9786 16.1567 15.3376C16.1997 15.5445 16.1484 15.7564 16.016 15.9193C15.9393 16.0137 15.7683 16.1719 15.4848 16.1719H2.51518C2.2317 16.1719 2.06067 16.0136 1.98397 15.9193C1.85152 15.7565 1.80025 15.5445 1.84332 15.3376C2.53248 12.0275 5.4522 9.60941 8.82394 9.52786C8.88235 9.53012 8.94102 9.53125 8.99999 9.53125C9.05916 9.53125 9.11806 9.53009 9.17669 9.52783C11.5518 9.58481 13.747 10.7878 15.0765 12.7704C15.2807 13.0751 15.6932 13.1564 15.9978 12.9522C16.3025 12.748 16.3838 12.3355 16.1796 12.0308C15.0899 10.4058 13.5077 9.22406 11.7037 8.63028C12.803 7.80588 13.5156 6.4924 13.5156 5.01562C13.5156 2.52572 11.4899 0.5 8.99999 0.5C6.51005 0.5 4.48436 2.52572 4.48436 5.01562C4.48436 6.4933 5.19783 7.80748 6.29835 8.63181C5.29004 8.96378 4.34391 9.48032 3.51583 10.1614C1.99738 11.4104 0.941622 13.1526 0.543085 15.0669C0.418175 15.6668 0.567821 16.2829 0.953575 16.7573C1.33744 17.2293 1.90664 17.5 2.51518 17.5H15.4848C16.0933 17.5 16.6625 17.2293 17.0464 16.7573C17.4322 16.2829 17.5818 15.6668 17.4569 15.0669ZM5.81249 5.01562C5.81249 3.25802 7.24238 1.82812 8.99999 1.82812C10.7576 1.82812 12.1875 3.25802 12.1875 5.01562C12.1875 6.71911 10.8443 8.11477 9.16132 8.19907C9.10763 8.19808 9.05384 8.19758 8.99999 8.19758C8.9464 8.19758 8.89281 8.19811 8.83928 8.19911C7.15605 8.11514 5.81249 6.71934 5.81249 5.01562Z" fill="white"/>
</svg>
