<svg width="17" height="17" viewBox="0 0 17 17" fill="none" xmlns="http://www.w3.org/2000/svg">
<g clip-path="url(#clip0_1258_9264)">
<path d="M12.2045 8.53018C11.8778 8.37489 11.5444 8.24112 11.2053 8.12906C12.3037 7.30455 13.0156 5.99167 13.0156 4.51562C13.0156 2.02572 10.9899 0 8.49999 0C6.01005 0 3.98436 2.02572 3.98436 4.51562C3.98436 5.9933 4.69783 7.30748 5.79835 8.13181C4.79004 8.46378 3.84391 8.98032 3.01583 9.66145C1.49738 10.9104 0.441622 12.6526 0.0430849 14.567C-0.0818253 15.1668 0.0678212 15.7829 0.453575 16.2573C0.837436 16.7293 1.40664 17 2.01518 17H10.1933C10.5601 17 10.8574 16.7027 10.8574 16.3359C10.8574 15.9692 10.5601 15.6719 10.1933 15.6719H2.01518C1.7317 15.6719 1.56067 15.5136 1.48397 15.4193C1.35152 15.2565 1.30025 15.0445 1.34332 14.8376C2.03245 11.5275 4.9522 9.10941 8.32395 9.02786C8.38235 9.03012 8.44102 9.03125 8.49999 9.03125C8.55952 9.03125 8.61879 9.03009 8.67776 9.0278C9.71104 9.05204 10.7048 9.28784 11.6343 9.72971C11.9656 9.88709 12.3617 9.74628 12.5191 9.41501C12.6766 9.08378 12.5357 8.68763 12.2045 8.53018ZM8.66195 7.69904C8.60806 7.69808 8.55408 7.69758 8.49999 7.69758C8.4464 7.69758 8.39281 7.69811 8.33928 7.69911C6.65605 7.61514 5.31249 6.21934 5.31249 4.51562C5.31249 2.75802 6.74238 1.32812 8.49999 1.32812C10.2576 1.32812 11.6875 2.75802 11.6875 4.51562C11.6875 6.21891 10.3446 7.61444 8.66195 7.69904Z" fill="white"/>
<path d="M16.3359 13.1816H14.5098V11.3555C14.5098 10.9887 14.2125 10.6914 13.8457 10.6914C13.4789 10.6914 13.1816 10.9887 13.1816 11.3555V13.1816H11.3555C10.9887 13.1816 10.6914 13.4789 10.6914 13.8457C10.6914 14.2125 10.9887 14.5098 11.3555 14.5098H13.1816V16.3359C13.1816 16.7027 13.4789 17 13.8457 17C14.2125 17 14.5098 16.7027 14.5098 16.3359V14.5098H16.3359C16.7027 14.5098 17 14.2125 17 13.8457C17 13.4789 16.7027 13.1816 16.3359 13.1816Z" fill="white"/>
</g>
<defs>
<clipPath id="clip0_1258_9264">
<rect width="17" height="17" fill="white"/>
</clipPath>
</defs>
</svg>
