<svg width="20" height="20" viewBox="0 0 20 20" fill="none" xmlns="http://www.w3.org/2000/svg">
<path d="M12.5005 18.9581H7.50053C6.40053 18.9581 5.48386 18.8498 4.70886 18.6164C4.42553 18.5331 4.24219 18.2581 4.25886 17.9664C4.46719 15.4748 6.99219 13.5164 10.0005 13.5164C13.0088 13.5164 15.5255 15.4664 15.7422 17.9664C15.7672 18.2664 15.5838 18.5331 15.2922 18.6164C14.5172 18.8498 13.6005 18.9581 12.5005 18.9581ZM5.60053 17.5498C6.15053 17.6581 6.77553 17.7081 7.50053 17.7081H12.5005C13.2255 17.7081 13.8505 17.6581 14.4005 17.5498C13.9588 15.9498 12.1338 14.7664 10.0005 14.7664C7.86719 14.7664 6.04219 15.9498 5.60053 17.5498Z" fill="white"/>
<path d="M12.5001 1.66675H7.50008C3.33341 1.66675 1.66675 3.33341 1.66675 7.50008V12.5001C1.66675 15.6501 2.61675 17.3751 4.88341 18.0167C5.06675 15.8501 7.29175 14.1417 10.0001 14.1417C12.7084 14.1417 14.9334 15.8501 15.1167 18.0167C17.3834 17.3751 18.3334 15.6501 18.3334 12.5001V7.50008C18.3334 3.33341 16.6667 1.66675 12.5001 1.66675ZM10.0001 11.8084C8.35008 11.8084 7.01675 10.4667 7.01675 8.81675C7.01675 7.16676 8.35008 5.83341 10.0001 5.83341C11.6501 5.83341 12.9834 7.16676 12.9834 8.81675C12.9834 10.4667 11.6501 11.8084 10.0001 11.8084Z" stroke="white" stroke-width="1.5" stroke-linecap="round" stroke-linejoin="round"/>
<path d="M9.99992 12.4333C8.00827 12.4333 6.3916 10.8083 6.3916 8.81659C6.3916 6.82494 8.00827 5.20825 9.99992 5.20825C11.9916 5.20825 13.6083 6.82494 13.6083 8.81659C13.6083 10.8083 11.9916 12.4333 9.99992 12.4333ZM9.99992 6.45825C8.69992 6.45825 7.6416 7.5166 7.6416 8.81659C7.6416 10.1249 8.69992 11.1833 9.99992 11.1833C11.2999 11.1833 12.3583 10.1249 12.3583 8.81659C12.3583 7.5166 11.2999 6.45825 9.99992 6.45825Z" fill="white"/>
</svg>
