<svg width="40" height="40" viewBox="0 0 40 40" fill="none" xmlns="http://www.w3.org/2000/svg">
<path d="M1.66675 25.4167C0.976391 25.4167 0.416748 25.9764 0.416748 26.6667C0.416748 27.3571 0.976391 27.9167 1.66675 27.9167H6.66675C7.3571 27.9167 7.91675 27.3571 7.91675 26.6667C7.91675 25.9764 7.3571 25.4167 6.66675 25.4167H1.66675Z" fill="#828282"/>
<path d="M1.66675 30.4167C0.976391 30.4167 0.416748 30.9764 0.416748 31.6667C0.416748 32.3571 0.976391 32.9167 1.66675 32.9167H11.6667C12.3571 32.9167 12.9167 32.3571 12.9167 31.6667C12.9167 30.9764 12.3571 30.4167 11.6667 30.4167H1.66675Z" fill="#828282"/>
<path d="M5.18142 8.48345L5 8.33333C5.514 7.62588 6.061 7.10552 6.76845 6.59152C8.959 5 12.0838 5 18.3333 5H21.6667C27.9162 5 31.041 5 33.2315 6.59152C33.939 7.10552 34.4428 7.56887 34.9568 8.27632L34.7475 8.4845L30.901 12.331C28.0982 15.1338 26.0832 17.145 24.3452 18.4712C22.636 19.7752 21.3425 20.2982 19.9998 20.2982C18.657 20.2982 17.3635 19.7752 15.6544 18.4712C13.9163 17.145 11.9013 15.1338 9.09855 12.331L5.85978 9.09225L5.18142 8.48345Z" fill="#828282"/>
<path d="M3.3335 20C3.3335 15.6002 3.3335 12.7491 3.88886 10.6825L4.13991 10.9078L7.39856 14.1664C10.119 16.8869 12.251 19.0189 14.1381 20.4587C16.0696 21.9324 17.8908 22.7982 20 22.7982C22.109 22.7982 23.9303 21.9324 25.8618 20.4587C27.7488 19.0189 29.8808 16.8869 32.6013 14.1665L36.1058 10.6619C36.6668 12.7301 36.6668 15.5855 36.6668 20C36.6668 26.2495 36.6668 29.3744 35.0753 31.5649C34.5613 32.2724 33.9392 32.8945 33.2317 33.4085C31.0412 35 27.9163 35 21.6668 35H18.3335C15.9529 35 14.0257 35 12.4308 34.9121C13.9036 34.5667 15.0002 33.2447 15.0002 31.6667C15.0002 29.8257 13.5078 28.3334 11.6668 28.3334H9.55423C9.83785 27.843 10.0002 27.2739 10.0002 26.6667C10.0002 24.8257 8.50778 23.3334 6.66683 23.3334H3.34551C3.3335 22.3315 3.3335 21.2259 3.3335 20Z" fill="#828282"/>
</svg>
