<svg width="18" height="18" viewBox="0 0 18 18" fill="none" xmlns="http://www.w3.org/2000/svg">
<g clip-path="url(#clip0_699_31420)">
<path d="M12.7174 9.78271C11.7449 9.78271 10.9565 10.571 10.9565 11.5436C10.9565 12.5161 11.7449 13.3045 12.7174 13.3045H18V9.78271H12.7174ZM12.7174 12.1305C12.3933 12.1305 12.1304 11.8677 12.1304 11.5436C12.1304 11.2194 12.3932 10.9566 12.7174 10.9566C13.0416 10.9566 13.3044 11.2194 13.3044 11.5436C13.3044 11.8677 13.0416 12.1305 12.7174 12.1305Z" fill="white"/>
<path d="M12.7174 8.60866H15.6522V6.84779C15.6522 5.8768 14.8623 5.08691 13.8913 5.08691H0.586969C0.262934 5.08691 0 5.34981 0 5.67385V17.413C0 17.737 0.262934 17.9999 0.586969 17.9999H13.8913C14.8623 17.9999 15.6522 17.2101 15.6522 16.2391V14.4782H12.7174C11.0991 14.4782 9.78261 13.1617 9.78261 11.5434C9.78261 9.92512 11.0991 8.60866 12.7174 8.60866Z" fill="white"/>
<path d="M16.2392 5.08691H16.2336C16.6038 5.57815 16.8262 6.18667 16.8262 6.84779V8.60866H18.0001V6.84779C18.0001 5.8768 17.2102 5.08691 16.2392 5.08691Z" fill="white"/>
<path d="M16.8262 14.4783V16.2391C16.8262 16.9003 16.6039 17.5088 16.2336 18H16.2392C17.2102 18 18.0001 17.2101 18.0001 16.2391V14.4783H16.8262Z" fill="white"/>
<path d="M9.61053 0.17194C9.38128 -0.0573135 9.00982 -0.0573135 8.78053 0.17194L8.26465 0.687823L11.4899 3.91299H13.3516L9.61053 0.17194Z" fill="white"/>
<path d="M6.08887 0.171967C5.85962 -0.0573223 5.48819 -0.0573223 5.2589 0.171967L1.51782 3.91301H9.82999L6.08887 0.171967Z" fill="white"/>
</g>
<defs>
<clipPath id="clip0_699_31420">
<rect width="18" height="18" fill="white"/>
</clipPath>
</defs>
</svg>
