<svg width="30" height="30" viewBox="0 0 30 30" fill="none" xmlns="http://www.w3.org/2000/svg">
<path d="M15 0C6.71605 0 0 6.71605 0 15C0 23.284 6.71605 30 15 30C23.284 30 30 23.284 30 15C30 6.71605 23.284 0 15 0ZM19.3086 20.9136C18.6543 21.7099 17.8025 22.2469 16.8086 22.5185C16.3765 22.6358 16.179 22.8642 16.2037 23.3148C16.2222 23.7593 16.2037 24.1975 16.1975 24.642C16.1975 25.037 15.9938 25.2469 15.6049 25.2593C15.3519 25.2654 15.0988 25.2716 14.8457 25.2716C14.6235 25.2716 14.4012 25.2716 14.179 25.2654C13.7593 25.2593 13.5617 25.0185 13.5617 24.6111C13.5556 24.2901 13.5556 23.963 13.5556 23.642C13.5494 22.9259 13.5247 22.9012 12.8395 22.7901C11.963 22.6481 11.0988 22.4506 10.2963 22.0617C9.66667 21.7531 9.59877 21.5988 9.77778 20.9321C9.91358 20.4383 10.0494 19.9444 10.2037 19.4568C10.3148 19.0988 10.4198 18.9383 10.6111 18.9383C10.7222 18.9383 10.8642 18.9938 11.0556 19.0926C11.9444 19.5556 12.8889 19.8148 13.8827 19.9383C14.0494 19.9568 14.216 19.9691 14.3827 19.9691C14.8457 19.9691 15.2963 19.8827 15.7346 19.6914C16.8395 19.2099 17.0123 17.9321 16.0802 17.1667C15.7654 16.9074 15.4012 16.716 15.0247 16.5494C14.0556 16.1235 13.0494 15.8025 12.1358 15.2531C10.6543 14.3642 9.71605 13.1481 9.82716 11.3457C9.95062 9.30864 11.1049 8.03704 12.9753 7.35802C13.7469 7.08025 13.7531 7.08642 13.7531 6.28395C13.7531 6.01235 13.7469 5.74074 13.7593 5.46296C13.7778 4.85802 13.8765 4.75309 14.4815 4.73457C14.5494 4.73457 14.6235 4.73457 14.6914 4.73457C14.8086 4.73457 14.9259 4.73457 15.0432 4.73457C15.0926 4.73457 15.142 4.73457 15.1852 4.73457C16.3333 4.73457 16.3333 4.78395 16.3395 6.02469C16.3457 6.93827 16.3457 6.93827 17.2531 7.08025C17.9506 7.19136 18.6111 7.39506 19.2531 7.67901C19.6049 7.83333 19.7407 8.08025 19.6296 8.45679C19.4691 9.01235 19.3148 9.57407 19.142 10.1235C19.0309 10.4568 18.9259 10.6111 18.7284 10.6111C18.6173 10.6111 18.4815 10.5679 18.3086 10.4815C17.4198 10.0494 16.4877 9.83951 15.5123 9.83951C15.3889 9.83951 15.2593 9.84568 15.1358 9.85185C14.8457 9.87037 14.5617 9.90741 14.2901 10.0247C13.3272 10.4444 13.1728 11.5062 13.9938 12.1605C14.4074 12.4938 14.8827 12.7284 15.3704 12.9321C16.2222 13.284 17.0741 13.6235 17.8827 14.0679C20.4259 15.4877 21.1173 18.716 19.3086 20.9136Z" fill="#9680EA"/>
</svg>
