<svg width="30" height="30" viewBox="0 0 30 30" fill="none" xmlns="http://www.w3.org/2000/svg">
<g clip-path="url(#clip0_907_2292)">
<path d="M19.4385 13.614L18.7856 12.9636L15.5801 9.76784C15.2587 9.44669 14.7378 9.44669 14.4164 9.76784L11.2189 12.9556L10.5623 13.6103C9.52114 14.6567 9.52535 16.3489 10.5717 17.3901C11.4552 18.2692 12.8289 18.421 13.883 17.756L13.5198 19.7158C13.4552 20.0626 13.684 20.3962 14.0308 20.4608C14.0695 20.468 14.1088 20.4716 14.1481 20.4716H15.8519C16.2047 20.4718 16.4909 20.186 16.4911 19.8332C16.4911 19.7938 16.4875 19.7545 16.4803 19.7158L16.1128 17.745C17.1699 18.4147 18.5498 18.2634 19.4366 17.3806C20.4772 16.3451 20.4814 14.6622 19.446 13.6216C19.4435 13.6191 19.441 13.6165 19.4385 13.614Z" fill="#9680EA"/>
<path d="M4.28895 14.6326C4.37602 12.0452 5.40006 9.57747 7.1705 7.68868L7.16497 7.68376L4.13337 4.65216C1.55989 7.34755 0.0858014 10.9069 0 14.6326H4.28713H4.28895Z" fill="#9680EA"/>
<path d="M7.68923 7.1705C9.57792 5.40021 12.0453 4.37617 14.6325 4.28895C14.6321 4.28672 14.6321 4.28444 14.6325 4.28221V0C10.9073 0.0858014 7.34846 1.55969 4.65332 4.13277L7.68431 7.16497L7.68923 7.1705Z" fill="#9680EA"/>
<path d="M22.3111 22.8289C20.4223 24.5996 17.9547 25.6239 15.3672 25.7111C15.3675 25.7133 15.3675 25.7156 15.3672 25.7178V30C19.0938 29.9151 22.6542 28.4409 25.35 25.8667L22.3184 22.8344L22.3111 22.8289Z" fill="#9680EA"/>
<path d="M14.6327 25.7111C12.0451 25.624 9.5771 24.5998 7.6882 22.8289L7.68389 22.8344L4.65234 25.8667C7.34819 28.4409 10.9086 29.9151 14.6352 30V25.7178C14.634 25.7157 14.6332 25.7135 14.6327 25.7111Z" fill="#9680EA"/>
<path d="M7.17063 22.3108C5.40034 20.4221 4.3763 17.9547 4.28908 15.3675H0.00195312C0.0863853 19.0938 1.55987 22.6542 4.1335 25.3503L7.1651 22.3181C7.16632 22.3153 7.16824 22.3127 7.17063 22.3108Z" fill="#9680EA"/>
<path d="M25.7106 15.3675C25.6236 17.9549 24.5995 20.4226 22.8291 22.3114C22.8312 22.3124 22.8331 22.3139 22.8346 22.3157L25.8662 25.3503C28.4405 22.6545 29.9147 19.0941 29.9996 15.3675H25.7125H25.7106Z" fill="#9680EA"/>
<path d="M22.8291 7.68929C24.5994 9.57798 25.6234 12.0454 25.7106 14.6326H29.9978C29.9123 10.9073 28.4389 7.34826 25.8662 4.65277L22.8346 7.68437L22.8291 7.68929Z" fill="#9680EA"/>
<path d="M15.3672 4.28895C17.9546 4.37602 20.4223 5.40006 22.3111 7.1705L22.316 7.16497L25.347 4.13277C22.6517 1.55954 19.0926 0.0856492 15.3672 0V4.28221C15.3675 4.28444 15.3675 4.28672 15.3672 4.28895Z" fill="#9680EA"/>
</g>
<defs>
<clipPath id="clip0_907_2292">
<rect width="30" height="30" fill="white"/>
</clipPath>
</defs>
</svg>
