<svg width="20" height="20" viewBox="0 0 20 20" fill="none" xmlns="http://www.w3.org/2000/svg">
<path fill-rule="evenodd" clip-rule="evenodd" d="M9.02388 6.61154C9.02388 6.50471 9.08021 6.41317 9.17554 6.36496C9.27087 6.31675 9.378 6.32571 9.46404 6.38908L13.8896 9.64875C13.9626 9.70254 14.0021 9.78054 14.0021 9.87121C14.0021 9.96187 13.9626 10.0399 13.8896 10.0937L9.46404 13.3533C9.378 13.4167 9.27087 13.4256 9.17554 13.3774C9.08021 13.3292 9.02388 13.2377 9.02388 13.1308V11.3036H0.552917C0.248875 11.3036 0 11.0548 0 10.7507V8.99171C0 8.68767 0.248833 8.43879 0.552917 8.43879H9.02388V6.61154ZM1.13608 5.79483H3.78188C5.12379 3.70979 7.46496 2.32875 10.1287 2.32875C14.2943 2.32875 17.6712 5.70558 17.6712 9.87117C17.6712 14.0367 14.2943 17.4136 10.1287 17.4136C7.46492 17.4136 5.12375 16.0325 3.78188 13.9475H1.13608C2.68783 17.3653 6.13067 19.7424 10.1288 19.7424C15.5805 19.7424 20 15.3229 20 9.87117C20 4.41946 15.5805 0 10.1288 0C6.13067 0 2.68783 2.377 1.13608 5.79483Z" fill="#9680EA"/>
</svg>
