<svg width="41" height="40" viewBox="0 0 41 40" fill="none" xmlns="http://www.w3.org/2000/svg">
<g clip-path="url(#clip0_547_4145)">
<path d="M37.4306 0H3.40277C1.52439 0.0021718 0.00221705 1.49328 0 3.33332V31.3333C0.00221705 33.1734 1.52439 34.6645 3.40277 34.6666H13.6111V36H10.8889C9.38544 36 8.16667 37.1939 8.16667 38.6666C8.16667 39.403 8.77609 40 9.5278 40H31.3055C32.0572 40 32.6667 39.403 32.6667 38.6666C32.6667 37.1939 31.4479 36 29.9445 36H27.2223V34.6666H37.4305C39.3089 34.6644 40.831 33.1734 40.8333 31.3333V3.33332C40.831 1.49328 39.3089 0.0021718 37.4306 0ZM3.40277 1.33336H37.4305C38.5581 1.33336 39.4721 2.2288 39.4721 3.33332V28H1.36113V3.33332C1.36113 2.22873 2.27516 1.33336 3.40277 1.33336ZM31.3055 38.6666H9.5278C9.5278 37.9303 10.1372 37.3333 10.8889 37.3333H29.9445C30.6961 37.3333 31.3055 37.9303 31.3055 38.6666ZM25.8611 36H14.9722V34.6666H25.8611L25.8611 36ZM37.4306 33.3333H3.40277C2.27516 33.3333 1.36113 32.4378 1.36113 31.3333V29.3334H39.4722V31.3333C39.4723 32.4378 38.5581 33.3333 37.4306 33.3333Z" fill="white"/>
<path fill-rule="evenodd" clip-rule="evenodd" d="M22.4582 30.6667H18.3749C17.999 30.6667 17.6943 30.9652 17.6943 31.3334C17.6943 31.7016 17.999 32.0001 18.3749 32.0001H22.4582C22.8341 32.0001 23.1388 31.7016 23.1388 31.3334C23.1388 30.9652 22.8341 30.6667 22.4582 30.6667Z" fill="white"/>
<path fill-rule="evenodd" clip-rule="evenodd" d="M3.40273 6.66685H37.4305C37.8064 6.66685 38.111 6.36839 38.111 6.00017C38.111 5.63195 37.8064 5.3335 37.4305 5.3335H3.40273C3.02684 5.3335 2.72217 5.63195 2.72217 6.00017C2.72217 6.36839 3.02691 6.66685 3.40273 6.66685Z" fill="white"/>
<path d="M4.0834 4.0001C4.45927 4.0001 4.76397 3.70162 4.76397 3.33343C4.76397 2.96523 4.45927 2.66675 4.0834 2.66675C3.70753 2.66675 3.40283 2.96523 3.40283 3.33343C3.40283 3.70162 3.70753 4.0001 4.0834 4.0001Z" fill="white"/>
<path d="M6.80557 4.0001C7.18143 4.0001 7.48613 3.70162 7.48613 3.33343C7.48613 2.96523 7.18143 2.66675 6.80557 2.66675C6.4297 2.66675 6.125 2.96523 6.125 3.33343C6.125 3.70162 6.4297 4.0001 6.80557 4.0001Z" fill="white"/>
<path d="M9.52773 4.0001C9.9036 4.0001 10.2083 3.70162 10.2083 3.33343C10.2083 2.96523 9.9036 2.66675 9.52773 2.66675C9.15187 2.66675 8.84717 2.96523 8.84717 3.33343C8.84717 3.70162 9.15187 4.0001 9.52773 4.0001Z" fill="white"/>
<path d="M12.25 26.6667H28.5833C33.8454 26.6667 38.1111 22.488 38.1111 17.3334C38.1111 12.1787 33.8454 8 28.5833 8H12.25C6.9879 8 2.72217 12.1787 2.72217 17.3334C2.72217 22.488 6.9879 26.6667 12.25 26.6667ZM12.25 9.33342H28.5833C33.0936 9.33342 36.75 12.9151 36.75 17.3334C36.75 21.7517 33.0936 25.3334 28.5833 25.3334H12.25C7.73962 25.3334 4.0833 21.7517 4.0833 17.3334C4.0833 12.9151 7.73962 9.33342 12.25 9.33342Z" fill="white"/>
<path d="M19.0555 16.6667H21.7777C22.5294 16.6667 23.1388 16.0697 23.1388 15.3334V11.3334C23.1388 10.597 22.5294 10 21.7777 10H19.0555C18.3038 10 17.6943 10.597 17.6943 11.3334V15.3334C17.6943 16.0697 18.3038 16.6667 19.0555 16.6667ZM19.0555 11.3334H21.7777V15.3334H19.0555V11.3334Z" fill="white"/>
<path d="M8.84722 18.6667H10.2084V21.3334C10.2084 22.0697 10.8178 22.6667 11.5695 22.6667H14.2917C15.0434 22.6667 15.6528 22.0697 15.6528 21.3334V17.3334C15.6528 16.597 15.0434 16 14.2917 16H12.9306V13.3334C12.9306 12.597 12.3211 12 11.5694 12H8.84722C8.0955 12 7.48608 12.597 7.48608 13.3334V17.3334C7.48608 18.0698 8.0955 18.6667 8.84722 18.6667ZM14.2916 17.3334V21.3334H11.5694V18.6667C12.3211 18.6667 12.9306 18.0697 12.9306 17.3334H14.2916ZM8.84722 13.3334H11.5694V17.3334H8.84722V13.3334Z" fill="white"/>
<path d="M26.5416 18.6667H27.9027V21.3334C27.9027 22.0697 28.5121 22.6667 29.2638 22.6667H31.986C32.7377 22.6667 33.3472 22.0697 33.3472 21.3334V17.3334C33.3472 16.597 32.7377 16 31.986 16H30.6249V13.3334C30.6249 12.597 30.0155 12 29.2638 12H26.5416C25.7898 12 25.1804 12.597 25.1804 13.3334V17.3334C25.1804 18.0698 25.7898 18.6667 26.5416 18.6667ZM31.986 17.3334V21.3334H29.2638V18.6667C30.0155 18.6667 30.625 18.0697 30.625 17.3334H31.986ZM26.5416 13.3334H29.2638V17.3334H26.5416V13.3334Z" fill="white"/>
<path d="M19.0555 24.6667H21.7777C22.5294 24.6667 23.1388 24.0697 23.1388 23.3334V19.3334C23.1388 18.597 22.5294 18 21.7777 18H19.0555C18.3038 18 17.6943 18.597 17.6943 19.3334V23.3334C17.6943 24.0698 18.3038 24.6667 19.0555 24.6667ZM19.0555 19.3334H21.7777V23.3334H19.0555V19.3334Z" fill="white"/>
</g>
<defs>
<clipPath id="clip0_547_4145">
<rect width="40.8333" height="40" fill="white"/>
</clipPath>
</defs>
</svg>
