<svg width="41" height="40" viewBox="0 0 41 40" fill="none" xmlns="http://www.w3.org/2000/svg">
<g clip-path="url(#clip0_547_4146)">
<path d="M40.6401 13.9931C40.4086 13.5068 39.9977 13.1379 39.483 12.9545L33.6158 10.8625C33.4247 10.1088 32.7935 9.50408 31.9813 9.36393L23.0192 7.8159C22.5991 7.09567 21.756 6.68888 20.8846 6.83951L8.85344 8.91768C8.314 9.01081 7.84403 9.30416 7.5298 9.74361C7.49408 9.79361 7.46114 9.84494 7.43043 9.89728L1.34921 12.0655C0.286838 12.4443 -0.26297 13.5992 0.123826 14.64L6.195 30.98C6.38234 31.4841 6.75885 31.8866 7.25522 32.1134C7.53092 32.2393 7.82512 32.3026 8.1206 32.3026C8.35707 32.3026 8.59425 32.262 8.82314 32.1805L17.0987 29.2296L19.1256 28.8796L21.3216 29.2589L32.0093 33.0695C32.2381 33.1511 32.4753 33.1917 32.7119 33.1917C33.0072 33.1917 33.3016 33.1283 33.5773 33.0024C34.0737 32.7757 34.4501 32.3731 34.6375 31.8689L36.2574 27.509C36.4081 27.1036 36.1947 26.6553 35.7807 26.5078C35.3669 26.3601 34.9092 26.5693 34.7586 26.9747L33.1387 31.3346C33.0971 31.4466 33.0134 31.536 32.9031 31.5864C32.7928 31.6369 32.6691 31.6419 32.5549 31.6013L21.0749 27.5082C20.9605 27.4674 20.8693 27.3854 20.8179 27.2774C20.7663 27.1694 20.761 27.0482 20.8026 26.9362L26.8738 10.5963C26.9598 10.3651 27.2217 10.2456 27.4577 10.3295L38.9378 14.4229C39.052 14.4636 39.1432 14.5454 39.1946 14.6535C39.2462 14.7615 39.2515 14.8827 39.2099 14.9946L37.2142 20.3661C37.0634 20.7714 37.2769 21.2198 37.6908 21.3673C38.1047 21.5149 38.5625 21.3058 38.7129 20.9004L40.7086 15.529C40.8959 15.0248 40.8716 14.4794 40.6401 13.9931ZM15.5623 20.0946L14.1423 17.8251L16.2691 16.1682L15.5623 20.0946ZM9.13034 10.4564L17.5592 9.0005L16.687 13.8462L12.5972 17.0325C12.2819 17.2782 12.2032 17.7156 12.4136 18.0522L15.1443 22.4167L14.4922 26.0396C14.3971 26.5679 14.5176 27.101 14.8319 27.5405C14.9477 27.7026 15.085 27.8447 15.239 27.9643L12.3711 28.4597C12.1237 28.5022 11.887 28.34 11.8434 28.0978L8.76101 10.9733C8.71723 10.7309 8.88311 10.4991 9.13034 10.4564ZM8.66539 19.4403L9.16958 22.2415C8.68445 22.2994 8.19023 22.1034 7.87696 21.6935C7.4995 21.1996 7.50532 20.5386 7.89156 20.0485C8.02881 19.8744 8.19924 19.7386 8.39822 19.6451C8.50493 19.5949 8.59433 19.524 8.66539 19.4403ZM8.27756 30.7123C8.16327 30.753 8.03958 30.7477 7.92928 30.6973C7.81906 30.647 7.7354 30.5576 7.69377 30.4456L1.6226 14.1057C1.53663 13.8744 1.65873 13.6179 1.89471 13.5337L7.25793 11.6215L8.01836 15.846C7.27229 16.5192 6.90343 17.5417 7.08694 18.5308C7.09205 18.5584 7.09763 18.586 7.10353 18.6135C6.92904 18.754 6.77049 18.9144 6.62909 19.0937C5.79959 20.1462 5.78795 21.5673 6.60022 22.6301C7.1899 23.4016 8.08248 23.8177 8.99811 23.8176C9.14757 23.8176 9.29758 23.8051 9.44703 23.7826L10.2726 28.3691C10.3734 28.9292 10.7041 29.3934 11.152 29.6874L8.27756 30.7123ZM20.7943 20.6191C20.5904 20.334 20.5122 19.988 20.5738 19.6451C20.6356 19.3022 20.8299 19.0033 21.1211 18.8037L22.4707 17.8779L21.296 21.0396C21.0985 20.9443 20.9255 20.8025 20.7943 20.6191ZM23.4219 15.3181L20.2063 17.5237C19.5662 17.9627 19.1388 18.6198 19.0031 19.3737C18.8674 20.1276 19.0395 20.8882 19.4878 21.5153C19.8109 21.9674 20.2474 22.3084 20.7482 22.5141L19.3036 26.4019C19.1945 26.6954 19.1578 27.0027 19.1913 27.3043L16.4324 26.8278C16.3125 26.807 16.2081 26.7418 16.1383 26.6442C16.0685 26.5466 16.0417 26.4282 16.0628 26.3108L19.1452 9.18635C19.1889 8.94393 19.4254 8.78175 19.673 8.8244L25.4801 9.82752C25.4406 9.90252 25.405 9.98048 25.3747 10.0618L23.4219 15.3181Z" fill="white"/>
<path d="M33.3359 17.6527C32.6436 17.4058 31.8977 17.4218 31.2209 17.6958C30.8822 17.0599 30.3214 16.5779 29.629 16.331C28.8946 16.0692 28.1 16.1033 27.3918 16.4267C26.6835 16.7503 26.1463 17.3246 25.8789 18.0441C25.6116 18.7634 25.6463 19.5418 25.9766 20.2355L27.9812 24.4467C28.146 24.7927 28.4974 24.9962 28.8636 24.9962C29.001 24.9962 29.1405 24.9675 29.2729 24.907L33.5716 22.9434C34.2799 22.6198 34.8171 22.0455 35.0844 21.3261C35.3518 20.6068 35.3171 19.8284 34.9867 19.1346C34.6564 18.4408 34.0702 17.9145 33.3359 17.6527ZM33.5857 20.7918C33.4642 21.119 33.2198 21.3802 32.8976 21.5273L29.1635 23.2331L27.4223 19.5752C27.2721 19.2597 27.2563 18.9057 27.3779 18.5784C27.4994 18.2513 27.7438 17.99 28.066 17.8429C28.2473 17.76 28.4383 17.7209 28.6263 17.7209C29.1278 17.7209 29.6089 17.9996 29.8343 18.4734L30.1137 19.0603C30.2998 19.4513 30.774 19.6205 31.1735 19.4383L31.7728 19.1646C32.4377 18.8609 33.2312 19.1437 33.5412 19.7951C33.6914 20.1106 33.7072 20.4646 33.5857 20.7918Z" fill="white"/>
<path d="M36.7436 24.7214C37.184 24.7214 37.5411 24.3717 37.5411 23.9402C37.5411 23.5087 37.184 23.1589 36.7436 23.1589C36.3031 23.1589 35.946 23.5087 35.946 23.9402C35.946 24.3717 36.3031 24.7214 36.7436 24.7214Z" fill="white"/>
</g>
<defs>
<clipPath id="clip0_547_4146">
<rect width="40.8333" height="40" fill="white"/>
</clipPath>
</defs>
</svg>
