<svg width="41" height="40" viewBox="0 0 41 40" fill="none" xmlns="http://www.w3.org/2000/svg">
<g clip-path="url(#clip0_547_4143)">
<path d="M37.2427 8.66891C36.9929 8.31359 36.4964 8.22391 36.1336 8.46859C35.7708 8.71336 35.6793 9.19977 35.9292 9.55516C38.0939 12.6345 39.2383 16.2462 39.2383 20C39.2383 24.9248 37.2805 29.5549 33.7255 33.0373C30.1706 36.5197 25.4441 38.4375 20.4167 38.4375C15.3892 38.4375 10.6627 36.5197 7.10779 33.0373C3.55282 29.5549 1.59505 24.9248 1.59505 20C1.59505 15.0752 3.55282 10.4451 7.10779 6.96273C10.6627 3.48031 15.3892 1.5625 20.4167 1.5625C24.2488 1.5625 27.9358 2.68352 31.0792 4.8043C31.4418 5.04891 31.9384 4.95937 32.1883 4.60406C32.4382 4.24867 32.3466 3.76227 31.9839 3.5175C28.5732 1.21633 24.5734 0 20.4167 0C14.9632 0 9.83613 2.08031 5.97985 5.85789C2.12373 9.63539 0 14.6578 0 20C0 25.3422 2.12373 30.3646 5.97985 34.1421C9.83613 37.9197 14.9632 40 20.4167 40C25.8701 40 30.9972 37.9197 34.8535 34.1421C38.7096 30.3646 40.8333 25.3422 40.8333 20C40.8333 15.9283 39.5917 12.0101 37.2427 8.66891Z" fill="white"/>
<path d="M8.23573 8.06758C4.98207 11.2548 3.19019 15.4925 3.19019 20C3.19019 24.5075 4.98207 28.7452 8.23573 31.9324C11.4894 35.1197 15.8154 36.875 20.4167 36.875C25.0181 36.875 29.3441 35.1197 32.5978 31.9324C35.8514 28.7452 37.6433 24.5075 37.6433 20C37.6433 15.4925 35.8514 11.2548 32.5978 8.06758C29.3441 4.88031 25.0181 3.125 20.4167 3.125C15.8154 3.125 11.4894 4.88031 8.23573 8.06758ZM30.8862 8.63937L28.5246 10.9528C27.7187 10.2589 26.8196 9.66656 25.8484 9.19609L27.1271 6.17203C28.5025 6.81508 29.7675 7.64914 30.8862 8.63937ZM34.5328 13.4266L31.4457 14.6793C30.9655 13.7279 30.3609 12.8472 29.6524 12.0577L32.014 9.74422C33.0248 10.8401 33.8764 12.0793 34.5328 13.4266ZM35.1447 25.1304L32.0587 23.8781C32.4005 22.8963 32.6155 21.8577 32.6861 20.7812H36.0281C35.9498 22.2994 35.6439 23.7595 35.1447 25.1304ZM32.0141 30.2558L29.6525 27.9423C30.3609 27.1528 30.9655 26.2721 31.4458 25.3207L34.5329 26.5734C33.8764 27.9207 33.0248 29.1599 32.0141 30.2558ZM27.1271 33.828L25.8484 30.8039C26.8196 30.3334 27.7187 29.7412 28.5246 29.0472L30.8862 31.3606C29.7675 32.3509 28.5025 33.1849 27.1271 33.828ZM9.9473 31.3606L12.3089 29.0472C13.1148 29.7411 14.0139 30.3334 14.9851 30.8039L13.7064 33.828C12.331 33.1849 11.066 32.3509 9.9473 31.3606ZM6.3007 26.5734L9.38776 25.3207C9.86803 26.2721 10.4726 27.1528 11.1811 27.9423L8.81952 30.2558C7.80866 29.1599 6.95714 27.9207 6.3007 26.5734ZM5.68875 14.8696L8.77478 16.1219C8.43304 17.1037 8.21803 18.1423 8.14737 19.2188H4.80541C4.88365 17.7006 5.18958 16.2405 5.68875 14.8696ZM8.81944 9.74422L11.181 12.0577C10.4726 12.8472 9.86795 13.7279 9.38768 14.6793L6.30062 13.4266C6.95714 12.0793 7.80866 10.8401 8.81944 9.74422ZM13.7064 6.17203L14.9851 9.19609C14.0139 9.66656 13.1148 10.2588 12.3089 10.9528L9.9473 8.63937C11.066 7.64914 12.331 6.81508 13.7064 6.17203ZM31.1176 20C31.1176 25.78 26.3172 30.4824 20.4167 30.4824C14.5163 30.4824 9.71586 25.78 9.71586 20C9.71586 14.22 14.5163 9.51758 20.4167 9.51758C26.3172 9.51758 31.1176 14.22 31.1176 20ZM19.6192 7.98109C18.5203 8.05039 17.4601 8.26094 16.4578 8.5957L15.1796 5.57258C16.5791 5.08359 18.0695 4.78391 19.6192 4.70727V7.98109ZM4.80541 20.7812H8.14737C8.21811 21.8577 8.43304 22.8963 8.77478 23.8782L5.68875 25.1305C5.18958 23.7595 4.88365 22.2994 4.80541 20.7812ZM16.4578 31.4043C17.4601 31.7391 18.5203 31.9497 19.6192 32.0189V35.2927C18.0695 35.2161 16.5791 34.9164 15.1795 34.4274L16.4578 31.4043ZM21.2143 32.0189C22.3132 31.9496 23.3734 31.7391 24.3757 31.4043L25.6539 34.4274C24.2544 34.9164 22.7639 35.2161 21.2142 35.2927V32.0189H21.2143ZM36.0281 19.2188H32.6861C32.6154 18.1423 32.4005 17.1037 32.0587 16.1218L35.1447 14.8695C35.6439 16.2405 35.9498 17.7006 36.0281 19.2188ZM24.3757 8.5957C23.3734 8.26094 22.3132 8.05031 21.2143 7.98109V4.70727C22.764 4.78391 24.2544 5.08359 25.654 5.57258L24.3757 8.5957Z" fill="white"/>
<path d="M18.024 13.75C18.024 14.7684 18.6908 15.6369 19.6191 15.9594V17.7906C18.9404 18.0264 18.4019 18.554 18.1612 19.2188H16.2918C15.9626 18.3095 15.0761 17.6562 14.0364 17.6562C12.7171 17.6562 11.6438 18.7077 11.6438 20C11.6438 21.2923 12.7171 22.3438 14.0364 22.3438C15.076 22.3438 15.9626 21.6905 16.2918 20.7812H18.1612C18.4019 21.446 18.9404 21.9736 19.6191 22.2094V24.0406C18.6908 24.3631 18.024 25.2315 18.024 26.25C18.024 27.5423 19.0973 28.5938 20.4166 28.5938C21.7359 28.5938 22.8092 27.5423 22.8092 26.25C22.8092 25.2316 22.1424 24.3631 21.2141 24.0406V22.2094C21.8927 21.9736 22.4313 21.446 22.672 20.7812H24.5414C24.8706 21.6905 25.7571 22.3438 26.7968 22.3438C28.1161 22.3438 29.1894 21.2923 29.1894 20C29.1894 18.7077 28.1161 17.6562 26.7968 17.6562C25.7571 17.6562 24.8706 18.3095 24.5414 19.2188H22.672C22.4313 18.554 21.8927 18.0264 21.2141 17.7906V15.9594C22.1424 15.6369 22.8092 14.7685 22.8092 13.75C22.8092 12.4577 21.7359 11.4062 20.4166 11.4062C19.0973 11.4062 18.024 12.4577 18.024 13.75ZM14.0364 20.7812C13.5966 20.7812 13.2389 20.4308 13.2389 20C13.2389 19.5692 13.5966 19.2188 14.0364 19.2188C14.4761 19.2188 14.8339 19.5692 14.8339 20C14.8339 20.4308 14.4761 20.7812 14.0364 20.7812ZM20.4166 27.0312C19.9768 27.0312 19.6191 26.6808 19.6191 26.25C19.6191 25.8192 19.9768 25.4688 20.4166 25.4688C20.8563 25.4688 21.2141 25.8192 21.2141 26.25C21.2141 26.6808 20.8563 27.0312 20.4166 27.0312ZM20.4166 20.7812C19.9768 20.7812 19.6191 20.4308 19.6191 20C19.6191 19.5692 19.9768 19.2188 20.4166 19.2188C20.8563 19.2188 21.2141 19.5692 21.2141 20C21.2141 20.4308 20.8563 20.7812 20.4166 20.7812ZM26.7968 19.2188C27.2365 19.2188 27.5943 19.5692 27.5943 20C27.5943 20.4308 27.2365 20.7812 26.7968 20.7812C26.357 20.7812 25.9993 20.4308 25.9993 20C25.9993 19.5692 26.357 19.2188 26.7968 19.2188ZM21.2141 13.75C21.2141 14.1808 20.8563 14.5312 20.4166 14.5312C19.9768 14.5312 19.6191 14.1808 19.6191 13.75C19.6191 13.3192 19.9768 12.9688 20.4166 12.9688C20.8563 12.9688 21.2141 13.3192 21.2141 13.75Z" fill="white"/>
<path d="M34.2887 7.19238C34.7292 7.19238 35.0863 6.84261 35.0863 6.41113C35.0863 5.97966 34.7292 5.62988 34.2887 5.62988C33.8483 5.62988 33.4912 5.97966 33.4912 6.41113C33.4912 6.84261 33.8483 7.19238 34.2887 7.19238Z" fill="white"/>
</g>
<defs>
<clipPath id="clip0_547_4143">
<rect width="40.8333" height="40" fill="white"/>
</clipPath>
</defs>
</svg>
