<svg width="41" height="40" viewBox="0 0 41 40" fill="none" xmlns="http://www.w3.org/2000/svg">
<g clip-path="url(#clip0_547_4144)">
<path d="M40.1378 18.355L26.7564 5.24676C26.308 4.80738 25.7116 4.56543 25.0773 4.56543C24.4431 4.56543 23.8467 4.80738 23.3982 5.24668L16.2551 12.244H2.37447C1.06518 12.2441 0 13.2876 0 14.5702V33.1082C0 34.3907 1.06518 35.4343 2.37447 35.4343H8.2477C8.68809 35.4343 9.04522 35.0845 9.04522 34.653C9.04522 34.2215 8.68809 33.8718 8.2477 33.8718H2.37447C1.94469 33.8718 1.59505 33.5292 1.59505 33.1082V14.5702C1.59505 14.1492 1.94477 13.8066 2.37447 13.8066H21.2987C21.7286 13.8066 22.0782 14.1492 22.0782 14.5702V33.1082C22.0782 33.5292 21.7285 33.8718 21.2987 33.8718H15.4254C14.985 33.8718 14.6279 34.2215 14.6279 34.653C14.6279 35.0845 14.985 35.4343 15.4254 35.4343H21.2987C22.0604 35.4343 22.7389 35.0808 23.1737 34.5329L23.3983 34.7529C23.8468 35.1923 24.4432 35.4342 25.0774 35.4342C25.7117 35.4342 26.3081 35.1922 26.7565 34.7529L40.1379 21.6446C40.5863 21.2053 40.8334 20.6211 40.8334 19.9998C40.8334 19.3785 40.5863 18.7944 40.1378 18.355ZM23.6663 13.8984C23.6663 13.5318 23.8121 13.1871 24.0768 12.9279C24.3414 12.6687 24.6932 12.5259 25.0674 12.5259C25.4417 12.5259 25.7935 12.6687 26.0582 12.9279C26.3229 13.1871 26.4686 13.5318 26.4686 13.8984C26.4686 14.265 26.3228 14.6096 26.0582 14.8689C25.7936 15.1282 25.4418 15.271 25.0674 15.271C24.6932 15.271 24.3414 15.1282 24.0768 14.8689C23.8121 14.6097 23.6663 14.265 23.6663 13.8984ZM39.0099 20.5398L25.6286 33.6482C25.4814 33.7924 25.2856 33.8718 25.0774 33.8718C24.8693 33.8718 24.6735 33.7923 24.5262 33.6482L23.6734 32.8126V28.6905C24.1031 28.9164 24.5858 29.0364 25.0873 29.0364C25.8876 29.0364 26.64 28.7311 27.2058 28.1767C27.7718 27.6223 28.0834 26.8853 28.0834 26.1013C28.0834 25.3173 27.7718 24.5803 27.2058 24.026C26.6399 23.4716 25.8876 23.1663 25.0873 23.1663C24.5857 23.1663 24.1031 23.2863 23.6734 23.5122V16.4975C24.0982 16.7168 24.5737 16.8335 25.0675 16.8335C25.8678 16.8335 26.6203 16.5282 27.1861 15.9739C27.7521 15.4195 28.0637 14.6825 28.0637 13.8985C28.0637 13.1145 27.7521 12.3775 27.1861 11.8232C26.6202 11.2688 25.8678 10.9635 25.0675 10.9635C24.2673 10.9635 23.5148 11.2688 22.949 11.8232C22.7356 12.0321 22.5585 12.2671 22.4205 12.5208C22.0863 12.3446 21.7043 12.2443 21.2988 12.2443H18.5111L24.5263 6.35176C24.6735 6.20754 24.8693 6.12809 25.0775 6.12809C25.2857 6.12809 25.4814 6.20754 25.6287 6.35176L39.01 19.46C39.1573 19.6043 39.2384 19.796 39.2384 20C39.2384 20.2039 39.1572 20.3956 39.0099 20.5398ZM24.0965 25.1308C24.3611 24.8716 24.713 24.7288 25.0873 24.7288C25.4616 24.7288 25.8134 24.8716 26.078 25.1308C26.3426 25.39 26.4884 25.7347 26.4884 26.1013C26.4884 26.4679 26.3426 26.8125 26.078 27.0718C25.8134 27.331 25.4616 27.4738 25.0873 27.4738C24.713 27.4738 24.3612 27.331 24.0965 27.0718C23.5502 26.5367 23.5502 25.666 24.0965 25.1308Z" fill="#9680EA"/>
<path d="M31.306 17.0745C30.5056 17.0745 29.7533 17.3798 29.1874 17.9341C28.6215 18.4884 28.3098 19.2255 28.3098 20.0095C28.3098 20.7934 28.6215 21.5305 29.1874 22.0848C29.7533 22.6392 30.5056 22.9445 31.306 22.9445C32.1063 22.9445 32.8587 22.6392 33.4246 22.0849C34.5927 20.9405 34.5927 19.0785 33.4246 17.9341C32.8587 17.3798 32.1063 17.0745 31.306 17.0745ZM32.2967 20.9801C32.0321 21.2393 31.6802 21.3821 31.306 21.3821C30.9317 21.3821 30.5799 21.2393 30.3153 20.9801C30.0507 20.7209 29.9049 20.3762 29.9049 20.0096C29.9049 19.643 30.0507 19.2984 30.3153 19.0391C30.5799 18.7799 30.9317 18.637 31.306 18.637C31.6802 18.637 32.032 18.7799 32.2967 19.0391C32.843 19.5742 32.843 20.4449 32.2967 20.9801Z" fill="#9680EA"/>
<path d="M16.2479 22.4667C17.8999 22.4667 19.244 21.15 19.244 19.5317C19.244 17.9133 17.8999 16.5967 16.2479 16.5967C14.5959 16.5967 13.2517 17.9133 13.2517 19.5317C13.2517 21.15 14.5958 22.4667 16.2479 22.4667ZM16.2479 18.1591C17.0205 18.1591 17.6489 18.7748 17.6489 19.5316C17.6489 20.2884 17.0204 20.9041 16.2479 20.9041C15.4753 20.9041 14.8468 20.2884 14.8468 19.5316C14.8468 18.7748 15.4752 18.1591 16.2479 18.1591Z" fill="#9680EA"/>
<path d="M7.42535 16.5967C5.77327 16.5967 4.4292 17.9133 4.4292 19.5317C4.4292 21.15 5.77335 22.4667 7.42535 22.4667C9.07734 22.4667 10.4215 21.15 10.4215 19.5317C10.4215 17.9133 9.07742 16.5967 7.42535 16.5967ZM7.42535 20.9043C6.6527 20.9043 6.02425 20.2886 6.02425 19.5318C6.02425 18.775 6.65278 18.1593 7.42535 18.1593C8.19791 18.1593 8.82644 18.775 8.82644 19.5318C8.82644 20.2886 8.19799 20.9043 7.42535 20.9043Z" fill="#9680EA"/>
<path d="M19.244 28.1467C19.244 26.5283 17.8999 25.2117 16.2479 25.2117C14.5959 25.2117 13.2517 26.5283 13.2517 28.1467C13.2517 29.765 14.5959 31.0817 16.2479 31.0817C17.8999 31.0817 19.244 29.765 19.244 28.1467ZM14.8467 28.1467C14.8467 27.3899 15.4752 26.7742 16.2478 26.7742C17.0203 26.7742 17.6489 27.3899 17.6489 28.1467C17.6489 28.9035 17.0203 29.5192 16.2478 29.5192C15.4752 29.5192 14.8467 28.9035 14.8467 28.1467Z" fill="#9680EA"/>
<path d="M7.42535 25.2117C5.77327 25.2117 4.4292 26.5283 4.4292 28.1467C4.4292 29.765 5.77335 31.0817 7.42535 31.0817C9.07734 31.0817 10.4215 29.765 10.4215 28.1467C10.4215 26.5283 9.07742 25.2117 7.42535 25.2117ZM7.42535 29.5192C6.6527 29.5192 6.02425 28.9035 6.02425 28.1467C6.02425 27.3899 6.65278 26.7742 7.42535 26.7742C8.19791 26.7742 8.82644 27.3899 8.82644 28.1467C8.82644 28.9035 8.19799 29.5192 7.42535 29.5192Z" fill="#9680EA"/>
<path d="M11.8366 35.4343C12.2771 35.4343 12.6341 35.0845 12.6341 34.6531C12.6341 34.2216 12.2771 33.8718 11.8366 33.8718C11.3961 33.8718 11.0391 34.2216 11.0391 34.6531C11.0391 35.0845 11.3961 35.4343 11.8366 35.4343Z" fill="#9680EA"/>
</g>
<defs>
<clipPath id="clip0_547_4144">
<rect width="40.8333" height="40" fill="#9680EA"/>
</clipPath>
</defs>
</svg>
