<svg width="41" height="40" viewBox="0 0 41 40" fill="none" xmlns="http://www.w3.org/2000/svg">
<g clip-path="url(#clip0_547_4148)">
<path d="M40.0358 34.2188H39.2383V13.6665C39.2383 11.6076 37.9533 9.75961 36.0482 8.98203V0.78125C36.0482 0.349766 35.691 0 35.2506 0H5.58268C5.14221 0 4.78516 0.349766 4.78516 0.78125V8.98156C2.85881 9.76141 1.59505 11.5886 1.59505 13.6665V34.2188H0.797526C0.357052 34.2188 0 34.5685 0 35C0 37.757 2.2897 40 5.10417 40H35.7292C38.5436 40 40.8333 37.757 40.8333 35C40.8333 34.5685 40.4762 34.2188 40.0358 34.2188ZM37.6432 13.6665V34.2188H36.0482V10.747C37.0218 11.3866 37.6432 12.4753 37.6432 13.6665ZM34.4531 1.5625V6.25H6.38021V1.5625H34.4531ZM3.1901 13.6665C3.1901 12.4622 3.80324 11.3796 4.78516 10.7424V34.2188H3.1901V13.6665ZM35.7292 38.4375H5.10417C3.44348 38.4375 2.04853 37.3016 1.68645 35.7812H16.4688C16.9093 35.7812 17.2664 35.4315 17.2664 35C17.2664 34.5685 16.9093 34.2188 16.4688 34.2188H6.38021V7.8125H34.4531V34.2188H23.6466C23.2062 34.2188 22.849 34.5685 22.849 35C22.849 35.4315 23.2062 35.7812 23.6466 35.7812H39.1468C38.7848 37.3016 37.3899 38.4375 35.7292 38.4375Z" fill="#9680EA"/>
<path d="M23.3737 4.68335H31.9596C32.4 4.68335 32.7572 4.33358 32.7572 3.9021C32.7572 3.47062 32.4 3.12085 31.9596 3.12085H23.3737C22.9333 3.12085 22.5762 3.47062 22.5762 3.9021C22.5762 4.33358 22.9333 4.68335 23.3737 4.68335Z" fill="#9680EA"/>
<path d="M27.0438 20.1213C27.3406 20.1213 27.6237 19.9964 27.8201 19.7788L31.5623 15.6359C31.9089 15.2523 31.9089 14.6737 31.5623 14.2901L27.8202 10.1473C27.6236 9.92953 27.3405 9.80469 27.0438 9.80469C26.747 9.80469 26.464 9.92961 26.2676 10.1472L22.5254 14.2901C22.1787 14.6738 22.1787 15.2523 22.5253 15.6359L26.2675 19.7787C26.464 19.9964 26.747 20.1213 27.0438 20.1213ZM27.0439 11.6456L30.0403 14.963L27.0439 18.2803L24.0473 14.963L27.0439 11.6456Z" fill="#9680EA"/>
<path d="M24.935 30.2379C24.7756 30.4841 24.5979 30.7032 24.4054 30.8896C24.1754 31.1124 24.1055 31.4491 24.2284 31.7421C24.3513 32.0351 24.6427 32.2264 24.9661 32.2264H29.7347C30.0573 32.2264 30.3491 32.0354 30.4726 31.7435C30.5968 31.4498 30.5267 31.1104 30.2956 30.8871C30.0987 30.6968 29.9174 30.4721 29.7553 30.2189C30.6574 30.0101 31.4351 29.3917 31.8223 28.4925C32.3493 27.2692 31.9886 25.8926 30.9247 25.0671C30.9247 25.0671 30.9247 25.0671 30.9246 25.0671C30.7421 24.9254 30.5475 24.8066 30.342 24.7111C30.3068 23.9518 29.9681 23.2266 29.4003 22.7044C28.7915 22.1443 27.9964 21.8643 27.1591 21.9157C25.662 22.0078 24.46 23.1832 24.3632 24.6496C24.3614 24.6776 24.36 24.7057 24.3589 24.7338C24.1548 24.8287 23.9614 24.9468 23.7798 25.0873C22.715 25.9118 22.3527 27.288 22.8783 28.5117C23.2634 29.4078 24.0368 30.026 24.935 30.2379ZM24.7692 26.3132C24.9453 26.1768 25.1442 26.0855 25.3605 26.0417C25.7914 25.9546 26.0689 25.5421 25.9805 25.1199C25.9554 24.9999 25.9469 24.8756 25.9552 24.7503C25.9996 24.0776 26.5724 23.5175 27.2593 23.4752C27.651 23.451 28.024 23.5817 28.3085 23.8435C28.5932 24.1055 28.7501 24.4603 28.7501 24.8428C28.7501 24.9303 28.7413 25.019 28.724 25.1064C28.6408 25.5259 28.9172 25.933 29.3443 26.0202C29.56 26.0642 29.7585 26.1557 29.9344 26.2921C30.4295 26.6764 30.5976 27.3166 30.3527 27.8852C30.0776 28.5241 29.3851 28.8614 28.7066 28.6874C28.4223 28.6145 28.1195 28.7009 27.9196 28.9123C27.7196 29.1238 27.6549 29.4259 27.7509 29.6983C27.8709 30.0385 28.0141 30.362 28.1776 30.6641H26.5248C26.6843 30.3696 26.8242 30.0554 26.942 29.7254C27.0392 29.4534 26.9756 29.151 26.7765 28.9388C26.5775 28.7265 26.2751 28.6392 25.9903 28.7108C25.313 28.882 24.6226 28.5432 24.3488 27.9059C24.1044 27.3371 24.2733 26.6971 24.7692 26.3132Z" fill="#9680EA"/>
<path d="M18.7917 23.7151C18.1819 23.1178 17.3712 22.7888 16.5088 22.7888C15.6605 22.7888 14.8621 23.1072 14.2559 23.6862C12.9947 22.482 10.9689 22.4918 9.71993 23.7151C8.4612 24.9483 8.4612 26.9547 9.71993 28.1878L13.5509 31.9406C13.7453 32.131 14.0006 32.2262 14.2558 32.2262C14.5111 32.2262 14.7664 32.131 14.9607 31.9406L18.7917 28.1877C20.0504 26.9547 20.0504 24.9482 18.7917 23.7151ZM17.6638 27.083L14.2558 30.4214L10.8478 27.083C10.2109 26.4591 10.2109 25.4439 10.8478 24.82C11.1662 24.508 11.5845 24.352 12.0028 24.352C12.4212 24.352 12.8395 24.508 13.1579 24.82L13.6918 25.343C14.0033 25.6481 14.5083 25.6481 14.8198 25.343L15.3537 24.82C15.9906 24.1961 17.027 24.1962 17.6638 24.82C18.3007 25.4439 18.3007 26.4591 17.6638 27.083Z" fill="#9680EA"/>
<path d="M11.6789 18.3627C11.5633 18.5175 11.4398 18.6589 11.31 18.7847C11.08 19.0074 11.0101 19.3442 11.133 19.6372C11.2559 19.9302 11.5473 20.1215 11.8707 20.1215H16.6393C16.9618 20.1215 17.2537 19.9305 17.3772 19.6385C17.5014 19.3449 17.4313 19.0056 17.2003 18.7823C17.0709 18.6573 16.9481 18.5167 16.8329 18.3625C17.428 18.2596 17.9906 17.9805 18.4394 17.5409C19.6141 16.3902 19.6141 14.5177 18.4394 13.3669L15.19 10.1838C14.6748 9.67931 13.8366 9.67923 13.3214 10.1839L10.0722 13.3669C9.50305 13.9243 9.1897 14.6656 9.1897 15.4539C9.1897 16.2423 9.50313 16.9835 10.0722 17.5409C10.521 17.9807 11.0835 18.2599 11.6789 18.3627ZM11.1999 14.4717L14.2556 11.4784L17.3113 14.4718C17.5791 14.7342 17.7267 15.0829 17.7267 15.4539C17.7267 15.8249 17.5791 16.1737 17.3113 16.436C16.903 16.8361 16.2946 16.9536 15.7616 16.7356C15.4691 16.6159 15.1319 16.6774 14.9028 16.8923C14.6737 17.1071 14.5964 17.4344 14.7058 17.7259C14.8162 18.0203 14.9418 18.2983 15.0821 18.5589H13.4278C13.57 18.2959 13.6968 18.0171 13.8062 17.7256C13.9156 17.434 13.8382 17.1066 13.609 16.8918C13.3798 16.677 13.0425 16.6156 12.75 16.7354C12.2168 16.9537 11.6084 16.8362 11.1998 16.4359C10.932 16.1736 10.7845 15.8249 10.7845 15.4538C10.7845 15.0828 10.9321 14.7341 11.1999 14.4717Z" fill="#9680EA"/>
<path d="M9.92033 4.68335C10.3608 4.68335 10.7179 4.33357 10.7179 3.9021C10.7179 3.47063 10.3608 3.12085 9.92033 3.12085C9.47987 3.12085 9.1228 3.47063 9.1228 3.9021C9.1228 4.33357 9.47987 4.68335 9.92033 4.68335Z" fill="#9680EA"/>
<path d="M14.0771 4.68335C14.5175 4.68335 14.8746 4.33357 14.8746 3.9021C14.8746 3.47063 14.5175 3.12085 14.0771 3.12085C13.6366 3.12085 13.2795 3.47063 13.2795 3.9021C13.2795 4.33357 13.6366 4.68335 14.0771 4.68335Z" fill="#9680EA"/>
<path d="M18.2338 4.68335C18.6743 4.68335 19.0313 4.33357 19.0313 3.9021C19.0313 3.47063 18.6743 3.12085 18.2338 3.12085C17.7933 3.12085 17.4363 3.47063 17.4363 3.9021C17.4363 4.33357 17.7933 4.68335 18.2338 4.68335Z" fill="#9680EA"/>
<path d="M20.0578 35.7812C20.4982 35.7812 20.8553 35.4315 20.8553 35C20.8553 34.5685 20.4982 34.2188 20.0578 34.2188C19.6173 34.2188 19.2603 34.5685 19.2603 35C19.2603 35.4315 19.6173 35.7812 20.0578 35.7812Z" fill="#9680EA"/>
</g>
<defs>
<clipPath id="clip0_547_4148">
<rect width="40.8333" height="40" fill="#9680EA"/>
</clipPath>
</defs>
</svg>
