<svg width="41" height="40" viewBox="0 0 41 40" fill="none" xmlns="http://www.w3.org/2000/svg">
<g clip-path="url(#clip0_547_4147)">
<path d="M34.8535 5.85789C30.9972 2.08031 25.8701 0 20.4167 0C14.9632 0 9.83613 2.08031 5.97985 5.85789C2.12373 9.63539 0 14.6578 0 20C0 25.3422 2.12373 30.3646 5.97985 34.1421C9.83613 37.9197 14.9632 40 20.4167 40C25.8701 40 30.9972 37.9197 34.8535 34.1421C38.7096 30.3646 40.8333 25.3422 40.8333 20C40.8333 14.6578 38.7096 9.63539 34.8535 5.85789ZM37.8653 13.0634L36.4045 13.8895C36.3403 13.9259 36.2796 13.9211 36.2401 13.9107C36.2005 13.9003 36.1455 13.8748 36.1085 13.8118L33.7334 9.78188C33.6736 9.68055 33.7092 9.55039 33.8127 9.49188L35.2679 8.66891C36.346 10.0193 37.2165 11.497 37.8653 13.0634ZM23.0085 1.73617V3.38148C23.0085 3.49859 22.9113 3.59375 22.7918 3.59375H18.0416C17.922 3.59375 17.8248 3.49852 17.8248 3.38148V1.73617C18.6767 1.62187 19.5419 1.5625 20.4167 1.5625C21.2914 1.5625 22.1566 1.62187 23.0085 1.73617ZM5.56546 8.66891L7.02062 9.49188C7.12414 9.55047 7.15971 9.68055 7.09998 9.78188L4.72486 13.8118C4.68778 13.8748 4.63283 13.9003 4.59327 13.9107C4.55379 13.9211 4.4931 13.9257 4.42882 13.8895L2.96807 13.0634C3.61686 11.497 4.48736 10.0193 5.56546 8.66891ZM2.96807 26.9366L4.42882 26.1105C4.4931 26.0741 4.55371 26.0789 4.59327 26.0893C4.63283 26.0997 4.68786 26.1252 4.72486 26.1882L7.09998 30.2181C7.15971 30.3195 7.12414 30.4496 7.02062 30.5081L5.56546 31.3311C4.48736 29.9807 3.61686 28.503 2.96807 26.9366ZM17.8248 38.2638V36.6185C17.8248 36.5014 17.922 36.4062 18.0416 36.4062H22.7918C22.9113 36.4062 23.0085 36.5015 23.0085 36.6185V38.2638C22.1566 38.3781 21.2914 38.4375 20.4167 38.4375C19.5419 38.4375 18.6767 38.3781 17.8248 38.2638ZM24.6036 37.982V36.6186C24.6036 35.64 23.7908 34.8438 22.7918 34.8438H18.0416C17.0426 34.8438 16.2297 35.64 16.2297 36.6186V37.982C12.8013 37.2228 9.65397 35.5316 7.10779 33.0373C6.94111 32.874 6.77913 32.7074 6.61955 32.5392L7.81815 31.8613C8.68338 31.372 8.98078 30.2844 8.48129 29.4369L6.10618 25.407C5.86421 24.9964 5.4735 24.7027 5.00607 24.5801C4.53856 24.4573 4.0504 24.5203 3.6313 24.7574L2.42424 25.4401C1.87849 23.7003 1.59505 21.8716 1.59505 20C1.59505 18.1284 1.87849 16.2997 2.42424 14.56L3.6313 15.2427C3.91043 15.4005 4.22027 15.4812 4.53417 15.4812C4.69153 15.4812 4.85 15.4609 5.00607 15.4199C5.4735 15.2973 5.86421 15.0035 6.10618 14.593L8.48129 10.5631C8.98078 9.71562 8.6833 8.62805 7.81815 8.13867L6.61955 7.46078C6.77913 7.29258 6.94111 7.12594 7.10779 6.96273C9.65397 4.46844 12.8013 2.77727 16.2297 2.01805V3.38141C16.2297 4.36 17.0425 5.15617 18.0416 5.15617H22.7918C23.7908 5.15617 24.6036 4.36 24.6036 3.38141V2.01805C28.032 2.77719 31.1794 4.46844 33.7255 6.96273C33.8922 7.12602 34.0542 7.29258 34.2138 7.46078L33.0152 8.13867C32.1499 8.62805 31.8526 9.71562 32.352 10.5631L34.7272 14.593C34.9691 15.0036 35.3598 15.2973 35.8273 15.4199C35.9834 15.4609 36.1417 15.4812 36.2992 15.4812C36.6131 15.4812 36.9229 15.4005 37.202 15.2427L38.4091 14.56C38.9548 16.2997 39.2383 18.1284 39.2383 20C39.2383 21.8716 38.9548 23.7003 38.4091 25.44L37.202 24.7573C36.783 24.5203 36.2948 24.4573 35.8273 24.58C35.3598 24.7027 34.9691 24.9964 34.7272 25.4069L32.352 29.4368C31.8526 30.2843 32.15 31.3719 33.0152 31.8613L34.2138 32.5391C34.0542 32.7073 33.8922 32.874 33.7255 33.0372C31.1794 35.5315 28.032 37.2227 24.6036 37.982ZM35.2679 31.3311L33.8127 30.5081C33.7092 30.4495 33.6736 30.3195 33.7334 30.2181L36.1085 26.1882C36.1456 26.1252 36.2005 26.0997 36.2401 26.0893C36.2795 26.0789 36.3403 26.0742 36.4045 26.1105L37.8653 26.9366C37.2165 28.503 36.346 29.9807 35.2679 31.3311Z" fill="#9680EA"/>
<path d="M20.4166 6.71875C12.9407 6.71875 6.85864 12.6767 6.85864 20C6.85864 22.9366 7.81735 25.7198 9.63108 28.0487C11.3863 30.3024 13.8758 31.9753 16.641 32.7592C16.7151 32.7802 16.7897 32.7902 16.8631 32.7902C17.2091 32.7902 17.5279 32.5678 17.6288 32.2259C17.7513 31.8114 17.5075 31.3781 17.0845 31.2582C14.6452 30.5667 12.4486 29.0902 10.8992 27.1009C9.29939 25.0466 8.45369 22.5912 8.45369 20C8.45369 13.5383 13.8202 8.28125 20.4166 8.28125C27.0129 8.28125 32.3795 13.5383 32.3795 20C32.3795 22.5912 31.5338 25.0466 29.934 27.1009C28.3847 29.0904 26.1881 30.5668 23.7489 31.2583C23.3258 31.3783 23.0821 31.8115 23.2046 32.2259C23.327 32.6405 23.7695 32.8791 24.1924 32.7592C26.9576 31.9753 29.4471 30.3023 31.2022 28.0487C33.0158 25.7197 33.9745 22.9365 33.9745 20C33.9745 12.6767 27.8924 6.71875 20.4166 6.71875Z" fill="#9680EA"/>
<path d="M24.4961 27.7555C24.621 27.4667 24.5575 27.1326 24.3348 26.9073C23.8125 26.379 23.3734 25.7086 23.0361 24.9315C24.7645 25.0335 26.4761 24.1559 27.3296 22.5864C28.4143 20.5918 27.7996 18.1219 25.8996 16.8413C25.8995 16.8413 25.8995 16.8413 25.8995 16.8413C25.6013 16.6403 25.284 16.4764 24.9508 16.3512C24.9524 16.3047 24.9531 16.2583 24.9531 16.212C24.9531 13.7616 22.918 11.7681 20.4166 11.7681C17.9191 11.7681 15.9267 13.6835 15.8809 16.129C15.8792 16.2155 15.8802 16.302 15.8837 16.3884C15.5516 16.5131 15.2353 16.6762 14.9378 16.8763C13.0349 18.156 12.418 20.6267 13.5032 22.6232C14.0453 23.6206 14.9429 24.3717 16.0304 24.7381C16.5989 24.9296 17.192 25.0078 17.7789 24.9735C17.4439 25.7329 17.011 26.3889 16.4985 26.9074C16.2758 27.1328 16.2122 27.4667 16.3372 27.7556C16.4621 28.0444 16.7512 28.2321 17.0715 28.2321H23.7617C24.082 28.232 24.3712 28.0443 24.4961 27.7555ZM18.6781 26.6695C19.1453 25.9131 19.5138 25.0438 19.7657 24.0939C19.8424 23.8047 19.744 23.4981 19.5121 23.3038C19.2804 23.1097 18.9558 23.0619 18.6761 23.181C17.2814 23.7744 15.6275 23.2069 14.9113 21.8889C14.2194 20.6162 14.6277 18.9803 15.8407 18.1645C16.1675 17.9448 16.5288 17.7938 16.915 17.7156C17.3457 17.6285 17.6233 17.2162 17.5351 16.7941C17.4917 16.5863 17.4717 16.3721 17.4757 16.1577C17.5055 14.5724 18.7972 13.3307 20.4167 13.3307C22.0386 13.3307 23.3581 14.6233 23.3581 16.2121C23.3581 16.396 23.3398 16.5821 23.3033 16.7653C23.2201 17.1848 23.4965 17.592 23.9235 17.6792C24.3088 17.7578 24.6694 17.909 24.9953 18.1287H24.9953C26.2063 18.9449 26.6132 20.5804 25.9217 21.852C25.203 23.1736 23.5456 23.7391 22.1484 23.1396C21.8691 23.0196 21.5448 23.0663 21.3123 23.2595C21.0799 23.4528 20.9803 23.7589 21.0556 24.0483C21.3078 25.0163 21.6803 25.9012 22.155 26.6696H18.6781V26.6695Z" fill="#9680EA"/>
<path d="M20.4167 33.2812C20.8571 33.2812 21.2142 32.9315 21.2142 32.5C21.2142 32.0685 20.8571 31.7188 20.4167 31.7188C19.9762 31.7188 19.6191 32.0685 19.6191 32.5C19.6191 32.9315 19.9762 33.2812 20.4167 33.2812Z" fill="#9680EA"/>
</g>
<defs>
<clipPath id="clip0_547_4147">
<rect width="40.8333" height="40" fill="#9680EA"/>
</clipPath>
</defs>
</svg>
