<svg width="46" height="50" viewBox="0 0 46 50" fill="none" xmlns="http://www.w3.org/2000/svg">
<path d="M45.9613 24.25C45.9613 30.6016 45.9613 36.9435 45.9613 43.2951C45.9613 46.2749 43.5304 48.5881 40.5507 48.4019C40.0116 48.3725 39.4725 48.1961 38.9628 48.0196C37.6885 47.5687 36.4241 47.0885 35.1596 46.5984C33.8755 46.1083 32.6601 46.1769 31.4153 46.7944C29.4255 47.7746 27.4161 48.696 25.3773 49.5683C23.9462 50.1859 22.4661 50.1271 21.035 49.4801C19.2119 48.6568 17.3985 47.8236 15.5754 46.9904C14.1149 46.3141 12.625 46.2553 11.1057 46.716C9.54717 47.1865 8.01807 47.755 6.43016 48.098C3.62681 48.7058 0.666626 46.2553 0.666626 43.3931C0.666626 30.6016 0.666626 17.8003 0.666626 5.00879C0.666626 2.39167 2.68582 0.254838 5.31274 0.0489977C5.58719 0.0293938 5.86165 0.00979654 6.1361 0.00979654C17.5946 0.00979654 29.053 0.0294058 40.5115 0C43.4814 0 45.1184 1.74474 45.6575 3.36205C45.8535 3.95017 45.9417 4.5873 45.9515 5.20482C45.9711 11.5565 45.9613 17.8983 45.9613 24.25ZM23.2405 20.6919C19.0354 20.6919 14.8304 20.6919 10.6156 20.6919C9.49816 20.6919 8.84143 21.3388 8.74341 22.466C8.64539 23.5344 9.29232 24.4166 10.3313 24.6126C10.596 24.6616 10.8802 24.6812 11.1547 24.6812C19.2707 24.6812 27.3965 24.6812 35.5125 24.6812C35.7869 24.6812 36.1006 24.7205 36.326 24.6028C36.7671 24.3774 37.2474 24.1421 37.5415 23.7697C37.9924 23.2012 38.0316 22.4954 37.6591 21.8289C37.2572 21.1231 36.6691 20.6821 35.8065 20.6821C31.6211 20.6821 27.4357 20.6821 23.2405 20.6821V20.6919ZM23.3189 14.5951C24.3971 14.5951 25.4851 14.5951 26.5633 14.5951C29.6901 14.5951 32.8169 14.5951 35.9438 14.5951C36.9632 14.5951 37.7179 13.9187 37.8649 12.9483C38.0218 11.9387 37.5415 11.0566 36.6005 10.7625C36.2182 10.6449 35.7869 10.6155 35.3851 10.6155C27.3475 10.6155 19.3001 10.6155 11.2625 10.6155C10.9684 10.6155 10.6646 10.6155 10.3803 10.6841C9.54717 10.8899 8.99826 11.429 8.80222 12.2622C8.52777 13.4482 9.55697 14.6049 10.8802 14.6049C15.0264 14.6049 19.1727 14.6049 23.3287 14.6049L23.3189 14.5951ZM17.0652 30.7388C14.9872 30.7388 12.8994 30.729 10.8214 30.7388C9.56678 30.7388 8.7042 31.621 8.73361 32.8071C8.76301 34.0519 9.50797 34.7478 10.8214 34.7576C14.9284 34.7576 19.0354 34.7576 23.1424 34.7576C24.4461 34.7576 25.3283 33.9245 25.3283 32.7188C25.3283 31.4544 24.5343 30.7388 23.1424 30.7388C21.1232 30.7388 19.0942 30.7388 17.0751 30.7388H17.0652Z" fill="#C6BBEE"/>
</svg>
