<svg width="120" height="120" viewBox="0 0 120 120" fill="none" xmlns="http://www.w3.org/2000/svg">
<path d="M77.9992 56.1818H41.9992C41.4739 56.1819 40.9537 56.0833 40.4683 55.8914C39.983 55.6996 39.542 55.4184 39.1705 55.0638C38.799 54.7092 38.5044 54.2882 38.3034 53.8249C38.1025 53.3616 37.9991 52.8651 37.9992 52.3636V39C37.9992 33.4305 40.3171 28.089 44.4429 24.1508C48.5687 20.2125 54.1645 18 59.9992 18C65.834 18 71.4298 20.2125 75.5556 24.1508C79.6814 28.089 81.9992 33.4305 81.9992 39V52.3636C81.9994 52.8651 81.896 53.3616 81.695 53.8249C81.494 54.2882 81.1994 54.7092 80.828 55.0638C80.4565 55.4184 80.0155 55.6996 79.5301 55.8914C79.0448 56.0833 78.5246 56.1819 77.9992 56.1818ZM45.9992 48.5455H73.9992V39C73.9992 35.4557 72.5242 32.0566 69.8987 29.5505C67.2732 27.0443 63.7123 25.6364 59.9992 25.6364C56.2862 25.6364 52.7252 27.0443 50.0997 29.5505C47.4742 32.0566 45.9992 35.4557 45.9992 39V48.5455Z" fill="#C6BBEE"/>
<path d="M80 48.5451H40C35.7579 48.5494 31.6909 50.1599 28.6913 53.0231C25.6917 55.8864 24.0045 59.7686 24 63.8178V86.7269C24.0045 90.7762 25.6917 94.6584 28.6913 97.5216C31.6909 100.385 35.7579 101.995 40 102H80C84.2421 101.995 88.3091 100.385 91.3087 97.5216C94.3083 94.6584 95.9955 90.7762 96 86.7269V63.8178C95.9955 59.7686 94.3083 55.8864 91.3087 53.0231C88.3091 50.1599 84.2421 48.5494 80 48.5451ZM60 79.0906C58.4178 79.0906 56.871 78.6427 55.5554 77.8036C54.2398 76.9645 53.2145 75.7719 52.609 74.3765C52.0035 72.9811 51.845 71.4457 52.1537 69.9644C52.4624 68.4831 53.2243 67.1224 54.3431 66.0545C55.462 64.9865 56.8874 64.2592 58.4393 63.9646C59.9911 63.6699 61.5997 63.8211 63.0615 64.3991C64.5233 64.9771 65.7727 65.9559 66.6518 67.2117C67.5308 68.4675 68 69.9439 68 71.4542C67.9999 73.4795 67.1571 75.4218 65.6568 76.8539C64.1565 78.2859 62.1217 79.0905 60 79.0906Z" fill="#C6BBEE"/>
</svg>
