<svg width="17" height="18" viewBox="0 0 17 18" fill="none" xmlns="http://www.w3.org/2000/svg">
<path d="M8.44914 2.6239C5.27753 2.6239 2.69724 5.2042 2.69724 8.37578C2.69724 11.5474 5.27753 14.1277 8.44914 14.1277C11.6208 14.1277 14.201 11.5474 14.201 8.37574C14.201 5.20417 11.6207 2.6239 8.44914 2.6239ZM9.65561 10.3815C9.47276 10.5312 9.24675 10.6363 8.9782 10.6975V11.5471C8.9782 11.8222 8.75518 12.0452 8.48012 12.0452C8.20507 12.0452 7.98205 11.8221 7.98205 11.5471V10.7423C7.66313 10.7093 7.38094 10.6329 7.1359 10.5127C6.79793 10.347 6.62909 10.1558 6.62909 9.93894C6.62909 9.82419 6.67093 9.70463 6.7549 9.58035C6.8387 9.45604 6.93552 9.39385 7.04523 9.39385C7.11605 9.39385 7.2048 9.42582 7.31135 9.48977C7.41773 9.55372 7.55804 9.61903 7.73226 9.68583C7.90648 9.7526 8.1128 9.78594 8.35159 9.78594C8.82255 9.78594 9.05802 9.65266 9.05802 9.38598C9.05802 9.23716 8.97989 9.11939 8.82374 9.03247C8.66745 8.94567 8.47949 8.87439 8.25956 8.81851C8.03959 8.76276 7.81802 8.69612 7.59493 8.61856C7.37168 8.54103 7.18209 8.41071 7.02593 8.22783C6.86965 8.04494 6.79162 7.8108 6.79162 7.52542C6.79162 7.12977 6.92862 6.78924 7.20281 6.50386C7.38888 6.31002 7.64882 6.18216 7.98201 6.11994V5.30072C7.98201 5.02564 8.20504 4.80264 8.48009 4.80264C8.75518 4.80264 8.97817 5.02567 8.97817 5.30072V6.10838C9.18638 6.1379 9.38059 6.18714 9.55998 6.2573C9.86913 6.37846 10.0238 6.52505 10.0238 6.69717C10.0238 6.80564 9.98073 6.93148 9.89467 7.07489C9.80861 7.21832 9.70176 7.29004 9.57433 7.29004C9.52323 7.29004 9.38454 7.2503 9.15836 7.17051C8.93198 7.09089 8.71998 7.05098 8.52246 7.05098C8.30564 7.05098 8.13993 7.09448 8.02521 7.18127C7.91049 7.26806 7.85309 7.36415 7.85309 7.46967C7.85309 7.57519 7.91046 7.66198 8.02521 7.73011C8.13996 7.79841 8.28177 7.85114 8.45074 7.88833C8.61958 7.92555 8.80096 7.97661 8.9946 8.04176C9.18828 8.1069 9.368 8.1828 9.53355 8.26963C9.6991 8.35659 9.83822 8.49152 9.95071 8.67437C10.0631 8.85725 10.1194 9.07898 10.1194 9.33943C10.1194 9.78099 9.96476 10.1284 9.65561 10.3815Z" fill="white"/>
<path d="M16.5018 7.80273C16.2267 7.80273 16.0037 8.02576 16.0037 8.30081C16.0037 9.70264 15.6018 11.0618 14.8414 12.2315C14.2994 13.0651 13.5967 13.7731 12.7776 14.3176L12.8234 14.1189C12.8853 13.8508 12.7182 13.5834 12.4501 13.5215C12.182 13.4596 11.9147 13.6268 11.8528 13.8948L11.5539 15.1897C11.5528 15.1945 11.5523 15.1994 11.5513 15.2042C11.5499 15.2113 11.5482 15.2182 11.5471 15.2254C11.5467 15.2281 11.5465 15.2309 11.5461 15.2336C11.5452 15.2405 11.5446 15.2473 11.5439 15.2542C11.5433 15.2608 11.5424 15.2674 11.542 15.274C11.5418 15.2771 11.5418 15.2802 11.5417 15.2834C11.5414 15.2904 11.5415 15.2973 11.5416 15.3042C11.5416 15.3104 11.5414 15.3165 11.5416 15.3227C11.5417 15.326 11.5421 15.3292 11.5423 15.3325C11.5427 15.3396 11.5435 15.3467 11.5443 15.3537C11.5449 15.3596 11.5452 15.3654 11.5461 15.3712C11.5465 15.3744 11.5471 15.3776 11.5477 15.3808C11.5488 15.3882 11.5504 15.3954 11.5519 15.4028C11.5531 15.4082 11.5539 15.4137 11.5552 15.4191C11.556 15.4221 11.5568 15.425 11.5576 15.4279C11.5597 15.4358 11.5622 15.4435 11.5646 15.4512C11.5662 15.4561 11.5673 15.4611 11.5691 15.466C11.57 15.4686 11.5711 15.4711 11.5721 15.4737C11.5749 15.4814 11.5781 15.4888 11.5813 15.4963C11.5836 15.5018 11.5856 15.5074 11.5881 15.5128C11.5891 15.5148 11.5902 15.5168 11.5912 15.5189C11.5933 15.5231 11.5955 15.5273 11.5977 15.5315C11.6011 15.538 11.6045 15.5445 11.6081 15.5508C11.6099 15.5539 11.6118 15.5569 11.6136 15.5599C11.6155 15.5631 11.6174 15.5662 11.6194 15.5693C11.6237 15.5761 11.6282 15.5827 11.6328 15.5892C11.6348 15.592 11.6368 15.5949 11.6389 15.5978C11.6474 15.6093 11.6563 15.6205 11.6657 15.6312C11.6658 15.6314 11.666 15.6316 11.6662 15.6318C11.6684 15.6343 11.6708 15.6367 11.6731 15.6392C11.6751 15.6414 11.6771 15.6434 11.6792 15.6456C11.685 15.6517 11.691 15.6578 11.6971 15.6636C11.6996 15.666 11.7022 15.6682 11.7048 15.6706C11.7075 15.673 11.7101 15.6754 11.7129 15.6778C11.7186 15.6828 11.7244 15.6875 11.7303 15.6921C11.7338 15.6949 11.7372 15.6977 11.7408 15.7004C11.7427 15.7018 11.7444 15.7033 11.7463 15.7047C11.7482 15.706 11.7502 15.7072 11.7521 15.7086C11.7597 15.7139 11.7673 15.7192 11.7751 15.7241C11.7775 15.7255 11.78 15.7268 11.7824 15.7283C11.7868 15.7309 11.7913 15.7335 11.7958 15.736C11.8015 15.7392 11.8072 15.7423 11.813 15.7453C11.8172 15.7474 11.8214 15.7495 11.8256 15.7515C11.8287 15.7529 11.8317 15.7545 11.8348 15.7559C11.8428 15.7595 11.8509 15.7627 11.8591 15.7658C11.8619 15.7669 11.8646 15.7681 11.8674 15.7692C11.8696 15.77 11.8718 15.7706 11.8739 15.7714C11.8778 15.7728 11.8817 15.774 11.8857 15.7752C11.8936 15.7778 11.9017 15.7803 11.9098 15.7825C11.9113 15.7829 11.9127 15.7835 11.9143 15.7839L13.2804 16.1381C13.3224 16.149 13.3644 16.1541 13.4058 16.1541C13.6273 16.1541 13.8294 16.0053 13.8876 15.7809C13.9566 15.5146 13.7968 15.2428 13.5305 15.1738L13.3569 15.1288C14.2768 14.5119 15.0663 13.7132 15.6765 12.7745C16.5423 11.4428 16.9999 9.89588 16.9999 8.30081C16.9999 8.02573 16.7769 7.80273 16.5018 7.80273Z" fill="white"/>
<path d="M3.80535 2.33949C3.80535 2.33842 3.80519 2.33743 3.80516 2.33637C3.80516 2.33537 3.80525 2.33444 3.80525 2.33344C3.80516 2.32833 3.80442 2.32335 3.80416 2.31827C3.80373 2.3095 3.80346 2.30077 3.80253 2.29204C3.8023 2.28985 3.80207 2.28769 3.8018 2.28553C3.8011 2.27946 3.79991 2.27358 3.79898 2.2676C3.79775 2.2597 3.79672 2.2518 3.79509 2.24393C3.79456 2.24137 3.79407 2.23885 3.7935 2.23632C3.79217 2.23025 3.79038 2.22441 3.78882 2.21843C3.78696 2.21126 3.78527 2.20405 3.78308 2.19695C3.78225 2.19429 3.78145 2.19163 3.78058 2.18898C3.77859 2.18287 3.77614 2.17699 3.77391 2.17098C3.77149 2.16444 3.76923 2.15783 3.76651 2.15136C3.76541 2.14877 3.76435 2.14621 3.76322 2.14366C3.76046 2.13735 3.75724 2.13134 3.75422 2.12516C3.75133 2.11928 3.74868 2.11337 3.74556 2.1076C3.74429 2.10527 3.74307 2.10295 3.74177 2.10066C3.73795 2.09385 3.73367 2.08741 3.72959 2.08084C3.7265 2.07586 3.72368 2.07078 3.72039 2.06589C3.71909 2.06397 3.7178 2.06211 3.71647 2.06022C3.71162 2.05324 3.70634 2.04667 3.70116 2.04C3.6999 2.03837 3.69874 2.03671 3.69748 2.03512C3.69535 2.03246 3.69359 2.0296 3.69144 2.02698C3.69124 2.02675 3.69104 2.02655 3.69084 2.02632C3.68977 2.02502 3.68861 2.02379 3.68755 2.02253C3.68177 2.01572 3.67556 2.00932 3.66945 2.00281C3.66547 1.99859 3.66178 1.99408 3.65763 1.98996C3.65664 1.989 3.65561 1.9881 3.65461 1.98714C3.64804 1.98076 3.64107 1.97485 3.63416 1.96881C3.62998 1.96516 3.62599 1.96121 3.62168 1.95769C3.62038 1.95662 3.61909 1.95556 3.61776 1.9545C3.61065 1.94882 3.60315 1.94371 3.59574 1.93843C3.59136 1.93531 3.58718 1.93195 3.5827 1.92897C3.58133 1.92807 3.58004 1.92711 3.57868 1.92621C3.57084 1.9211 3.56261 1.91661 3.55451 1.91197C3.54992 1.90934 3.54548 1.90652 3.54083 1.90403C3.53973 1.90347 3.5387 1.90273 3.53761 1.90217C3.52897 1.89765 3.51998 1.8938 3.51104 1.88979C3.50646 1.88773 3.50201 1.88547 3.49736 1.88354C3.4871 1.87929 3.47655 1.87567 3.46595 1.87212C3.46117 1.87053 3.45652 1.8687 3.45168 1.86724C3.44115 1.86405 3.43043 1.86153 3.41964 1.85904C3.41436 1.85781 3.40918 1.85638 3.40383 1.85535C3.3936 1.85336 3.38318 1.852 3.37272 1.85064C3.36708 1.84991 3.36156 1.84885 3.35585 1.84828C3.35482 1.84818 3.35379 1.84812 3.35273 1.84802C3.3443 1.84725 3.33573 1.84712 3.32717 1.84679C3.32245 1.84659 3.31774 1.84616 3.31302 1.84612C3.31113 1.84609 3.30927 1.84583 3.30738 1.84583C3.30728 1.84583 3.30721 1.84583 3.30711 1.84583C3.30704 1.84583 3.30695 1.84583 3.30688 1.84583C3.30555 1.84583 3.30419 1.84583 3.30286 1.84583C3.30183 1.84583 3.30084 1.84599 3.29981 1.84599C3.29881 1.84599 3.29781 1.84589 3.29682 1.84589L1.77536 1.8778C1.50034 1.88358 1.2821 2.11122 1.28784 2.38624C1.29352 2.6577 1.51541 2.87385 1.78559 2.87385C1.78914 2.87385 1.79269 2.87382 1.79625 2.87375L2.05134 2.86841C0.735777 4.35902 0 6.27901 0 8.30071C0 8.57579 0.223024 8.79878 0.498077 8.79878C0.77313 8.79878 0.996154 8.57576 0.996154 8.30071C0.996154 6.51373 1.65045 4.81722 2.81949 3.50395L2.82059 3.62939C2.82301 3.90298 3.04554 4.12305 3.31857 4.12305C3.32006 4.12305 3.32159 4.12305 3.32308 4.12305C3.59817 4.12059 3.81913 3.89561 3.81671 3.62056L3.80535 2.33949Z" fill="white"/>
</svg>
