<svg width="50" height="50" viewBox="0 0 50 50" fill="none" xmlns="http://www.w3.org/2000/svg">
<g clip-path="url(#clip0_1066_15269)">
<path fill-rule="evenodd" clip-rule="evenodd" d="M16.0713 30.3119V32.0873C19.2393 31.8295 22.126 30.1674 23.9385 27.5561C23.5898 26.936 23.2959 26.2876 23.0586 25.6177C21.6582 28.2495 19.0371 30.0102 16.0713 30.3119Z" fill="#C6BBEE"/>
<path d="M22.3213 21.4283C22.3213 17.4831 19.123 14.2859 15.1787 14.2859C11.2344 14.2859 8.03613 17.4841 8.03613 21.4283C8.03613 25.3726 11.2344 28.5708 15.1787 28.5708C19.1221 28.5659 22.3174 25.3706 22.3213 21.4283ZM19.0273 22.7554C18.7793 23.1304 18.4512 23.4468 18.0664 23.6793L18.3174 24.44C18.4971 24.9839 18.4043 25.5816 18.0693 26.0464C17.7334 26.5112 17.1953 26.7856 16.6221 26.7856H13.7344C13.1611 26.7856 12.623 26.5112 12.2871 26.0464C11.9512 25.5816 11.8584 24.9849 12.0381 24.44L12.2871 23.6851C11.9033 23.4527 11.5752 23.1373 11.3281 22.7623C10.8291 21.9977 10.6543 21.067 10.8418 20.1735C11.3457 18.1159 12.71 16.3757 14.5869 15.3943L14.5918 15.4011C14.7461 15.2654 14.9424 15.1873 15.1484 15.1794C15.3467 15.1726 15.541 15.2322 15.7012 15.3494C16.3984 15.7488 17.043 16.2351 17.6191 16.7946C18.5762 17.7077 19.2373 18.8864 19.5166 20.1793C19.7002 21.069 19.5244 21.9957 19.0273 22.7564V22.7554Z" fill="#C6BBEE"/>
<path d="M38.3926 25.8921C38.8855 25.8921 39.2852 25.4925 39.2852 24.9995C39.2852 24.5065 38.8855 24.1069 38.3926 24.1069C37.8996 24.1069 37.5 24.5065 37.5 24.9995C37.5 25.4925 37.8996 25.8921 38.3926 25.8921Z" fill="#C6BBEE"/>
<path fill-rule="evenodd" clip-rule="evenodd" d="M16.0713 10.7703V12.5456C19.0371 12.8474 21.6582 14.6081 23.0586 17.2399C23.2959 16.57 23.5898 15.9215 23.9385 15.3014C22.126 12.6902 19.2393 11.0281 16.0713 10.7703Z" fill="#C6BBEE"/>
<path fill-rule="evenodd" clip-rule="evenodd" d="M8.2666 29.603C9.96289 31.0425 12.0684 31.9146 14.2852 32.0981V30.312C12.54 30.1382 10.8867 29.4507 9.53125 28.3384L8.26562 29.604L8.2666 29.603Z" fill="#C6BBEE"/>
<path d="M31.25 18.7495C31.743 18.7495 32.1426 18.3499 32.1426 17.8569C32.1426 17.364 31.743 16.9644 31.25 16.9644C30.757 16.9644 30.3574 17.364 30.3574 17.8569C30.3574 18.3499 30.757 18.7495 31.25 18.7495Z" fill="#C6BBEE"/>
<path fill-rule="evenodd" clip-rule="evenodd" d="M16.3632 18.0622C16.0039 17.7097 15.6083 17.3953 15.1835 17.1238C13.8916 17.8611 12.9541 19.0925 12.5888 20.5348C12.499 20.9616 12.581 21.4059 12.8144 21.7731C12.9843 22.0416 13.2558 22.2291 13.5664 22.2936C13.8183 22.3424 14.0371 22.4977 14.166 22.7184C14.2949 22.9391 14.3242 23.2057 14.2431 23.4498L13.7334 24.9986H16.6211L16.1074 23.442C16.0253 23.1979 16.0527 22.9303 16.1826 22.7086C16.3124 22.4869 16.5312 22.3307 16.7832 22.2819C17.0957 22.2174 17.3681 22.0299 17.539 21.7614C17.7734 21.3991 17.8544 20.9577 17.7656 20.5358C17.5546 19.5895 17.0654 18.7282 16.3613 18.0622H16.3632Z" fill="#C6BBEE"/>
<path d="M2.67871 42.8566H47.3213C48.8008 42.8566 50 41.6574 50 40.1779V37.4993H0V40.1779C0 41.6574 1.19922 42.8566 2.67871 42.8566ZM22.3213 39.2854H27.6787C28.1719 39.2854 28.5713 39.6848 28.5713 40.1779C28.5713 40.6711 28.1719 41.0705 27.6787 41.0705H22.3213C21.8281 41.0705 21.4287 40.6711 21.4287 40.1779C21.4287 39.6848 21.8281 39.2854 22.3213 39.2854Z" fill="#C6BBEE"/>
<path fill-rule="evenodd" clip-rule="evenodd" d="M17.8564 44.6426H32.1426V46.4287H17.8564V44.6426Z" fill="#C6BBEE"/>
<path fill-rule="evenodd" clip-rule="evenodd" d="M12.5 48.2139C11.5137 48.2139 10.7139 49.0137 10.7139 50H39.2852C39.2852 49.0137 38.4854 48.2139 37.499 48.2139H12.499H12.5Z" fill="#C6BBEE"/>
<path fill-rule="evenodd" clip-rule="evenodd" d="M14.2852 12.5456V10.7595C12.0674 10.9431 9.96289 11.8152 8.2666 13.2546L9.53223 14.5203C10.8867 13.407 12.541 12.7204 14.2861 12.5466L14.2852 12.5456Z" fill="#C6BBEE"/>
<path fill-rule="evenodd" clip-rule="evenodd" d="M6.29492 22.3218H4.50879C4.69238 24.5395 5.56445 26.6439 7.00391 28.3402L8.26953 27.0746C7.15625 25.7201 6.46973 24.0659 6.2959 22.3208L6.29492 22.3218Z" fill="#C6BBEE"/>
<path fill-rule="evenodd" clip-rule="evenodd" d="M8.26953 15.782L7.00391 14.5164C5.56445 16.2126 4.69238 18.318 4.50879 20.5348H6.29492C6.46875 18.7897 7.15625 17.1364 8.26855 15.781L8.26953 15.782Z" fill="#C6BBEE"/>
<path d="M34.8213 10.7146C28.9043 10.7146 24.1074 15.5114 24.1074 21.4283C24.1074 27.3452 28.9043 32.1419 34.8213 32.1419C40.7383 32.1419 45.5352 27.3452 45.5352 21.4283C45.5283 15.5134 40.7354 10.7205 34.8213 10.7146ZM28.5713 17.8571C28.5713 16.7741 29.2236 15.7965 30.2246 15.3825C31.2256 14.9684 32.3779 15.1969 33.1436 15.9635C33.9092 16.7301 34.1387 17.8815 33.7246 18.8824C33.3096 19.8834 32.333 20.5357 31.25 20.5357C29.7705 20.5357 28.5713 19.3365 28.5713 17.8571ZM30.9883 26.5239C30.6377 26.8618 30.0811 26.8578 29.7363 26.5131C29.3916 26.1684 29.3867 25.6118 29.7256 25.2612L38.6543 16.3327C39.0049 15.9948 39.5615 15.9987 39.9063 16.3434C40.251 16.6881 40.2559 17.2448 39.917 17.5953L30.9883 26.5239ZM38.3926 27.6782C36.9131 27.6782 35.7139 26.4789 35.7139 24.9995C35.7139 23.52 36.9131 22.3208 38.3926 22.3208C39.8721 22.3208 41.0713 23.52 41.0713 24.9995C41.0713 26.4789 39.8721 27.6782 38.3926 27.6782Z" fill="#C6BBEE"/>
<path d="M50 2.67868C50 1.19921 48.8008 0 47.3213 0H2.67871C1.19922 0 0 1.19921 0 2.67868V35.7141H50V2.67868ZM10.7139 1.7861C11.207 1.7861 11.6064 2.18552 11.6064 2.67868C11.6064 3.17183 11.207 3.57123 10.7139 3.57123C10.2207 3.57123 9.82129 3.17183 9.82129 2.67868C9.82129 2.18552 10.2207 1.7861 10.7139 1.7861ZM7.14258 1.7861C7.63574 1.7861 8.03516 2.18552 8.03516 2.67868C8.03516 3.17183 7.63574 3.57123 7.14258 3.57123C6.64942 3.57123 6.25 3.17183 6.25 2.67868C6.25 2.18552 6.64942 1.7861 7.14258 1.7861ZM3.57129 1.7861C4.06445 1.7861 4.46387 2.18552 4.46387 2.67868C4.46387 3.17183 4.06445 3.57123 3.57129 3.57123C3.07813 3.57123 2.67871 3.17183 2.67871 2.67868C2.67871 2.18552 3.07813 1.7861 3.57129 1.7861ZM34.8213 33.9281C30.9873 33.9261 27.3672 32.1605 25.0039 29.141C22.8047 31.9515 19.5068 33.6859 15.9453 33.9046C12.3838 34.1234 8.89844 32.808 6.37109 30.2885C6.36133 30.2797 6.34864 30.2768 6.33985 30.267C6.33106 30.2572 6.32715 30.2455 6.31836 30.2357C1.46484 25.3677 1.46484 17.4899 6.31836 12.6218C6.32715 12.6121 6.33008 12.5994 6.33985 12.5906C6.34961 12.5818 6.36133 12.5779 6.37109 12.5691C8.89844 10.0496 12.3838 8.73324 15.9453 8.95297C19.5068 9.17269 22.8047 10.906 25.0039 13.7165C28.6123 9.12384 34.9219 7.64438 40.1963 10.1541C45.4707 12.6638 48.3018 18.4938 47.0137 24.1909C45.7256 29.8881 40.6611 33.9329 34.8203 33.929L34.8213 33.9281ZM47.3213 7.14245H2.67871C2.18555 7.14245 1.78614 6.74303 1.78614 6.24988C1.78614 5.75672 2.18555 5.35733 2.67871 5.35733H47.3213C47.8145 5.35733 48.2139 5.75672 48.2139 6.24988C48.2139 6.74303 47.8145 7.14245 47.3213 7.14245Z" fill="#C6BBEE"/>
</g>
<defs>
<clipPath id="clip0_1066_15269">
<rect width="50" height="50" fill="white"/>
</clipPath>
</defs>
</svg>
