<svg width="15" height="12" viewBox="0 0 15 12" fill="none" xmlns="http://www.w3.org/2000/svg">
<path d="M14.9734 3.90711L13.2313 11.2559C13.1806 11.4687 13.067 11.6572 12.9083 11.7918C12.7496 11.9264 12.5546 11.9996 12.3539 12H2.64916C2.44844 11.9996 2.2535 11.9264 2.09476 11.7918C1.93603 11.6572 1.82245 11.4687 1.77176 11.2559L0.0296861 3.90711C-0.0126755 3.73022 -0.00964811 3.54395 0.0384347 3.36883C0.0865174 3.1937 0.177789 3.03653 0.30219 2.91462C0.426591 2.79271 0.579291 2.7108 0.743462 2.67793C0.907633 2.64505 1.0769 2.66248 1.23261 2.72829L4.11912 3.94612C4.14831 3.95856 4.18037 3.9604 4.21059 3.95137C4.24081 3.94234 4.26758 3.92292 4.28697 3.89596L6.78691 0.384583C6.87129 0.2649 6.97958 0.168003 7.10346 0.101334C7.22734 0.0346657 7.36352 0 7.50154 0C7.63956 0 7.77574 0.0346657 7.89962 0.101334C8.02351 0.168003 8.1318 0.2649 8.21617 0.384583L10.7161 3.89596C10.7355 3.92292 10.7623 3.94234 10.7925 3.95137C10.8227 3.9604 10.8548 3.95856 10.884 3.94612L13.7705 2.72829C13.9261 2.66537 14.0945 2.65008 14.2574 2.68408C14.4204 2.71807 14.5718 2.80006 14.6955 2.92124C14.8191 3.04242 14.9104 3.19822 14.9593 3.37191C15.0083 3.5456 15.0131 3.73062 14.9734 3.90711Z" fill="#FDD92A"/>
</svg>
