<svg width="20" height="20" viewBox="0 0 20 20" fill="none" xmlns="http://www.w3.org/2000/svg">
<path d="M16.875 3.125H3.125C2.79348 3.125 2.47554 3.25669 2.24112 3.49112C2.00669 3.72554 1.875 4.04348 1.875 4.375V15.625C1.875 15.9565 2.00669 16.2744 2.24112 16.5089C2.47554 16.7433 2.79348 16.875 3.125 16.875H16.875C17.2065 16.875 17.5244 16.7433 17.7589 16.5089C17.9933 16.2744 18.125 15.9565 18.125 15.625V4.375C18.125 4.04348 17.9933 3.72554 17.7589 3.49112C17.5244 3.25669 17.2065 3.125 16.875 3.125ZM9.77344 13.7266C9.69394 13.7477 9.611 13.7531 9.52944 13.7421C9.44788 13.7312 9.36925 13.7043 9.29812 13.6629C9.227 13.6216 9.16475 13.5666 9.11488 13.5011C9.06506 13.4356 9.02869 13.3609 9.00781 13.2812C8.90188 12.8814 8.66669 12.5278 8.33888 12.2754C8.01106 12.0231 7.609 11.8863 7.19531 11.8863C6.78162 11.8863 6.37956 12.0231 6.05174 12.2754C5.72392 12.5278 5.48873 12.8814 5.38281 13.2812C5.34679 13.4154 5.2676 13.5341 5.15747 13.6188C5.04734 13.7035 4.91238 13.7496 4.77344 13.75L4.61719 13.7266C4.53789 13.7066 4.46336 13.671 4.39792 13.6219C4.33248 13.5729 4.27745 13.5113 4.23602 13.4408C4.19458 13.3703 4.16757 13.2922 4.15656 13.2112C4.14555 13.1302 4.15076 13.0478 4.17188 12.9688C4.36213 12.23 4.81479 11.5857 5.44531 11.1562C5.09068 10.8086 4.84761 10.3633 4.74708 9.877C4.64655 9.39069 4.69312 8.8855 4.88086 8.42575C5.06859 7.966 5.38899 7.57263 5.80119 7.29569C6.21339 7.01875 6.69875 6.87087 7.19531 6.87087C7.69187 6.87087 8.17725 7.01875 8.58944 7.29569C9.00163 7.57263 9.322 7.966 9.50975 8.42575C9.6975 8.8855 9.74406 9.39069 9.64356 9.877C9.543 10.3633 9.29994 10.8086 8.94531 11.1562C9.57581 11.5857 10.0285 12.23 10.2188 12.9688C10.2399 13.0478 10.2451 13.1302 10.2341 13.2112C10.2231 13.2922 10.1961 13.3703 10.1546 13.4408C10.1132 13.5113 10.0581 13.5729 9.99269 13.6219C9.92725 13.671 9.85275 13.7066 9.77344 13.7266ZM15 11.875H11.875C11.7093 11.875 11.5503 11.8091 11.4331 11.6919C11.3159 11.5747 11.25 11.4157 11.25 11.25C11.25 11.0842 11.3159 10.9253 11.4331 10.8081C11.5503 10.6909 11.7093 10.625 11.875 10.625H15C15.1657 10.625 15.3247 10.6909 15.4419 10.8081C15.5591 10.9253 15.625 11.0842 15.625 11.25C15.625 11.4157 15.5591 11.5747 15.4419 11.6919C15.3247 11.8091 15.1657 11.875 15 11.875ZM15 9.375H11.875C11.7093 9.375 11.5503 9.30912 11.4331 9.19194C11.3159 9.07475 11.25 8.91575 11.25 8.75C11.25 8.58425 11.3159 8.42525 11.4331 8.30806C11.5503 8.19088 11.7093 8.125 11.875 8.125H15C15.1657 8.125 15.3247 8.19088 15.4419 8.30806C15.5591 8.42525 15.625 8.58425 15.625 8.75C15.625 8.91575 15.5591 9.07475 15.4419 9.19194C15.3247 9.30912 15.1657 9.375 15 9.375Z" fill="#5932EA"/>
<path d="M7.19534 10.625C7.88566 10.625 8.44534 10.0654 8.44534 9.375C8.44534 8.68463 7.88566 8.125 7.19534 8.125C6.50497 8.125 5.94531 8.68463 5.94531 9.375C5.94531 10.0654 6.50497 10.625 7.19534 10.625Z" fill="#5932EA"/>
</svg>
