<svg width="20" height="20" viewBox="0 0 20 20" fill="none" xmlns="http://www.w3.org/2000/svg">
<path d="M16.6818 8.72728C16.8577 8.72728 17 8.58583 17 8.40998V7.1374C17 7.02524 16.941 6.92116 16.8443 6.86398L10.6118 3.1627C10.225 2.94831 9.7887 2.94178 9.37947 3.16705L3.15568 6.86398C3.05903 6.92113 3 7.02524 3 7.1374V8.40998C3 8.58583 3.14232 8.72728 3.31819 8.72728H4.27274V14.4548C3.57079 14.4548 3 15.0256 3 15.7274V16.6819C3 16.8577 3.14232 17 3.31819 17H16.6818C16.8577 17 17 16.8577 17 16.6819V15.7274C17 15.0256 16.4292 14.4548 15.7273 14.4548V8.72728H16.6818ZM8.72728 14.4546H6.81818V8.72728H8.72728V14.4546ZM9.99939 7.45615C9.29714 7.45615 8.72602 6.8851 8.72602 6.18294C8.72602 5.48078 9.29714 4.90972 9.99939 4.90972C10.7016 4.90972 11.2727 5.48078 11.2727 6.18294C11.2727 6.8851 10.7016 7.45615 9.99939 7.45615ZM13.1818 14.4546H11.2727V8.72728H13.1818V14.4546Z" fill="#5932EA"/>
</svg>
