<svg width="20" height="20" viewBox="0 0 20 20" fill="none" xmlns="http://www.w3.org/2000/svg">
<path fill-rule="evenodd" clip-rule="evenodd" d="M3.125 3.12H16.875C17.2065 3.12 17.5244 3.25169 17.7589 3.48611C17.9933 3.72053 18.125 4.03848 18.125 4.37V15.62C18.125 15.9515 17.9933 16.2694 17.7589 16.5039C17.5244 16.7383 17.2065 16.87 16.875 16.87H3.125C2.79348 16.87 2.47554 16.7383 2.24112 16.5039C2.00669 16.2694 1.875 15.9515 1.875 15.62V4.37C1.875 4.03848 2.00669 3.72053 2.24112 3.48611C2.47554 3.25169 2.79348 3.12 3.125 3.12ZM11.875 11.87H15C15.1657 11.87 15.3247 11.8041 15.4419 11.6869C15.5591 11.5697 15.625 11.4107 15.625 11.245C15.625 11.0792 15.5591 10.9202 15.4419 10.8031C15.3247 10.6859 15.1657 10.62 15 10.62H11.875C11.7093 10.62 11.5503 10.6859 11.4331 10.8031C11.3159 10.9202 11.25 11.0792 11.25 11.245C11.25 11.4107 11.3159 11.5697 11.4331 11.6869C11.5503 11.8041 11.7093 11.87 11.875 11.87ZM11.875 9.37H15C15.1657 9.37 15.3247 9.30412 15.4419 9.18693C15.5591 9.06975 15.625 8.91075 15.625 8.745C15.625 8.57925 15.5591 8.42025 15.4419 8.30306C15.3247 8.18587 15.1657 8.12 15 8.12H11.875C11.7093 8.12 11.5503 8.18587 11.4331 8.30306C11.3159 8.42025 11.25 8.57925 11.25 8.745C11.25 8.91075 11.3159 9.06975 11.4331 9.18693C11.5503 9.30412 11.7093 9.37 11.875 9.37ZM5 12.1333C5 11.6917 5.3584 11.3333 5.8 11.3333H7.29333C7.36373 11.3333 7.432 11.3056 7.48213 11.2555C7.53227 11.2053 7.56 11.1371 7.56 11.0667C7.56 10.9963 7.53227 10.928 7.48213 10.8779C7.432 10.8277 7.36373 10.8 7.29333 10.8H6.86667C6.37173 10.8 5.89707 10.6037 5.5472 10.2528C5.19627 9.90293 5 9.42827 5 8.93333C5 8.4384 5.19627 7.96373 5.5472 7.61387C5.75413 7.40587 6.00587 7.25227 6.28 7.1616V6.8C6.28 6.3584 6.6384 6 7.08 6C7.5216 6 7.88 6.3584 7.88 6.8V7.06667H8.36C8.8016 7.06667 9.16 7.42507 9.16 7.86667C9.16 8.30827 8.8016 8.66667 8.36 8.66667H6.86667C6.79627 8.66667 6.728 8.6944 6.67787 8.74453C6.62773 8.79467 6.6 8.86293 6.6 8.93333C6.6 9.00373 6.62773 9.072 6.67787 9.12213C6.728 9.17227 6.79627 9.2 6.86667 9.2H7.29333C7.78827 9.2 8.26293 9.39627 8.6128 9.7472C8.96373 10.0971 9.16 10.5717 9.16 11.0667C9.16 11.5616 8.96373 12.0363 8.6128 12.3861C8.40587 12.5941 8.15413 12.7477 7.88 12.8384V13.2C7.88 13.6416 7.5216 14 7.08 14C6.6384 14 6.28 13.6416 6.28 13.2V12.9333H5.8C5.3584 12.9333 5 12.5749 5 12.1333Z" fill="#5932EA"/>
</svg>
