<svg width="20" height="20" viewBox="0 0 20 20" fill="none" xmlns="http://www.w3.org/2000/svg">
<path d="M12.9999 9.36364H6.99992C6.91236 9.36366 6.82566 9.34721 6.74477 9.31524C6.66388 9.28327 6.59037 9.23639 6.52846 9.1773C6.46655 9.1182 6.41745 9.04804 6.38395 8.97082C6.35046 8.89361 6.33323 8.81085 6.33325 8.72727V6.5C6.33325 5.57174 6.71956 4.6815 7.40719 4.02513C8.09483 3.36875 9.02746 3 9.99992 3C10.9724 3 11.905 3.36875 12.5926 4.02513C13.2803 4.6815 13.6666 5.57174 13.6666 6.5V8.72727C13.6666 8.81085 13.6494 8.89361 13.6159 8.97082C13.5824 9.04804 13.5333 9.1182 13.4714 9.1773C13.4095 9.23639 13.336 9.28327 13.2551 9.31524C13.1742 9.34721 13.0875 9.36366 12.9999 9.36364ZM7.66659 8.09091H12.3333V6.5C12.3333 5.90929 12.0874 5.34278 11.6498 4.92508C11.2122 4.50739 10.6188 4.27273 9.99992 4.27273C9.38108 4.27273 8.78759 4.50739 8.35 4.92508C7.91242 5.34278 7.66659 5.90929 7.66659 6.5V8.09091Z" fill="#5932EA"/>
<path d="M13.3333 8.09082H6.66667C5.95965 8.09154 5.28181 8.35995 4.78188 8.83716C4.28195 9.31437 4.00075 9.9614 4 10.6363V14.4545C4.00075 15.1293 4.28195 15.7764 4.78188 16.2536C5.28181 16.7308 5.95965 16.9992 6.66667 16.9999H13.3333C14.0403 16.9992 14.7182 16.7308 15.2181 16.2536C15.7181 15.7764 15.9992 15.1293 16 14.4545V10.6363C15.9992 9.9614 15.7181 9.31437 15.2181 8.83716C14.7182 8.35995 14.0403 8.09154 13.3333 8.09082ZM10 13.1817C9.73629 13.1817 9.47851 13.1071 9.25924 12.9672C9.03997 12.8274 8.86908 12.6286 8.76816 12.3961C8.66724 12.1635 8.64084 11.9076 8.69229 11.6607C8.74373 11.4138 8.87072 11.187 9.05719 11.009C9.24366 10.8311 9.48124 10.7098 9.73988 10.6607C9.99852 10.6116 10.2666 10.6368 10.5102 10.7332C10.7539 10.8295 10.9621 10.9926 11.1086 11.2019C11.2551 11.4112 11.3333 11.6573 11.3333 11.909C11.3333 12.2465 11.1928 12.5703 10.9428 12.8089C10.6928 13.0476 10.3536 13.1817 10 13.1817Z" fill="#5932EA"/>
</svg>
