<svg width="12" height="14" viewBox="0 0 12 14" fill="none" xmlns="http://www.w3.org/2000/svg">
<path d="M8.99992 6.36364H2.99992C2.91236 6.36366 2.82566 6.34721 2.74477 6.31524C2.66388 6.28327 2.59037 6.23639 2.52846 6.1773C2.46655 6.1182 2.41745 6.04804 2.38395 5.97082C2.35046 5.89361 2.33323 5.81085 2.33325 5.72727V3.5C2.33325 2.57174 2.71956 1.6815 3.40719 1.02513C4.09483 0.368749 5.02746 0 5.99992 0C6.97238 0 7.90501 0.368749 8.59264 1.02513C9.28028 1.6815 9.66659 2.57174 9.66659 3.5V5.72727C9.66661 5.81085 9.64938 5.89361 9.61588 5.97082C9.58239 6.04804 9.53329 6.1182 9.47137 6.1773C9.40946 6.23639 9.33596 6.28327 9.25507 6.31524C9.17417 6.34721 9.08747 6.36366 8.99992 6.36364ZM3.66659 5.09091H8.33325V3.5C8.33325 2.90929 8.08742 2.34278 7.64983 1.92508C7.21225 1.50739 6.61876 1.27273 5.99992 1.27273C5.38108 1.27273 4.78759 1.50739 4.35 1.92508C3.91242 2.34278 3.66659 2.90929 3.66659 3.5V5.09091Z" fill="#5932EA"/>
<path d="M9.33333 5.09082H2.66667C1.95965 5.09154 1.28181 5.35995 0.781881 5.83716C0.281947 6.31437 0.00075353 6.9614 0 7.63628V11.4545C0.00075353 12.1293 0.281947 12.7764 0.781881 13.2536C1.28181 13.7308 1.95965 13.9992 2.66667 13.9999H9.33333C10.0403 13.9992 10.7182 13.7308 11.2181 13.2536C11.7181 12.7764 11.9992 12.1293 12 11.4545V7.63628C11.9992 6.9614 11.7181 6.31437 11.2181 5.83716C10.7182 5.35995 10.0403 5.09154 9.33333 5.09082ZM6 10.1817C5.73629 10.1817 5.47851 10.1071 5.25924 9.96724C5.03997 9.82739 4.86908 9.62861 4.76816 9.39605C4.66724 9.16349 4.64084 8.90759 4.69229 8.66071C4.74373 8.41382 4.87072 8.18704 5.05719 8.00905C5.24366 7.83105 5.48124 7.70984 5.73988 7.66073C5.99852 7.61162 6.26661 7.63683 6.51024 7.73316C6.75388 7.82949 6.96212 7.99261 7.10863 8.20191C7.25513 8.41121 7.33333 8.65728 7.33333 8.909C7.33332 9.24655 7.19284 9.57026 6.9428 9.80895C6.69275 10.0476 6.35362 10.1817 6 10.1817Z" fill="#5932EA"/>
</svg>