<svg width="20" height="20" viewBox="0 0 20 20" fill="none" xmlns="http://www.w3.org/2000/svg">
<path fill-rule="evenodd" clip-rule="evenodd" d="M6 3H14C14.5303 3.00044 15.0386 3.15861 15.4136 3.43982C15.7885 3.72103 15.9994 4.10231 16 4.5V15.5C15.9994 15.8977 15.7885 16.279 15.4136 16.5602C15.0386 16.8414 14.5303 16.9996 14 17H6C5.46975 16.9996 4.96138 16.8414 4.58643 16.5602C4.21148 16.279 4.00058 15.8977 4 15.5V4.5C4.00058 4.10231 4.21148 3.72103 4.58643 3.43982C4.96138 3.15861 5.46975 3.00044 6 3ZM8 4H12L12.6667 3.5H7.33333L8 4ZM10 16C10.5523 16 11 15.5523 11 15C11 14.4477 10.5523 14 10 14C9.44772 14 9 14.4477 9 15C9 15.5523 9.44772 16 10 16Z" fill="#5932EA"/>
</svg>
