<svg width="20" height="20" viewBox="0 0 20 20" fill="none" xmlns="http://www.w3.org/2000/svg">
<path d="M13.5001 6.07752C13.5 6.68609 13.2947 7.28098 12.91 7.78695C12.5254 8.29293 11.9787 8.68726 11.3391 8.9201C10.6995 9.15294 9.9958 9.21382 9.31688 9.09504C8.63796 8.97626 8.01434 8.68316 7.52489 8.25281C7.03544 7.82245 6.70213 7.27416 6.56711 6.67727C6.4321 6.08038 6.50144 5.4617 6.76637 4.89945C7.0313 4.33721 7.47991 3.85666 8.05549 3.51856C8.63107 3.18046 9.30776 3 10 3C10.4597 3.00003 10.9148 3.07965 11.3395 3.23432C11.7642 3.389 12.15 3.61569 12.475 3.90147C12.8001 4.18724 13.0579 4.5265 13.2337 4.89986C13.4096 5.27323 13.5001 5.6734 13.5001 6.07752ZM10 10.0652C9.00884 10.0641 8.02832 10.2448 7.12099 10.5955C6.21367 10.9462 5.39946 11.4594 4.73032 12.1022C3.54913 13.2336 3.83845 15.0334 5.32568 15.839C6.73189 16.5981 8.34982 17 10 17C11.6502 17 13.2681 16.5981 14.6743 15.839C16.1616 15.0334 16.4509 13.2336 15.2697 12.1022C14.6005 11.4594 13.7863 10.9462 12.879 10.5955C11.9717 10.2448 10.9912 10.0641 10 10.0652Z" fill="#5932EA"/>
</svg>
