<svg width="30" height="30" viewBox="0 0 30 30" fill="none" xmlns="http://www.w3.org/2000/svg">
<g clip-path="url(#clip0_695_20675)">
<path d="M24.6761 22.7306C24.6949 22.5783 24.7834 22.4429 24.9146 22.3638L27.5601 20.7812L21.3626 18.7984L19.0494 18.0583L17.574 17.5867L17.789 18.2582L18.0902 19.1986L18.4652 20.371L18.7828 21.3636L20.7691 27.5728L22.3517 24.9273C22.4308 24.7954 22.5662 24.707 22.7185 24.6882C22.739 24.6859 22.7589 24.6841 22.7794 24.6841C22.9119 24.6841 23.0384 24.7369 23.1322 24.8306L27.8039 29.5023L29.5037 27.8031L24.8185 23.1443C24.7101 23.0353 24.6574 22.883 24.6767 22.7306H24.6761Z" fill="white"/>
<path d="M20.4381 4.19029C18.7313 2.33404 16.6272 1.17215 14.185 0.736208C10.4115 0.0623796 7.06465 1.02098 4.23692 3.5827C2.26114 5.37274 1.04825 7.67663 0.632815 10.43C0.604104 10.6204 0.581839 10.8114 0.559573 11.003L0.527344 11.2796V12.7942L0.528517 12.8077C0.542579 12.9114 0.555473 13.0157 0.568364 13.12C0.596489 13.3462 0.625198 13.5723 0.662112 13.7973C1.21231 17.1096 2.90508 19.7481 5.69356 21.6389C7.07461 22.5758 8.66777 23.1811 10.4285 23.4389C10.6166 23.4665 10.8053 23.4887 10.9939 23.511L11.2781 23.5444L12.8074 23.5432C12.9369 23.5251 13.067 23.5075 13.1971 23.4905C13.4783 23.453 13.7596 23.4155 14.0391 23.3669C15.4377 23.1243 16.735 22.645 17.9174 21.9378L17.932 21.9231L16.5152 17.4337C16.1115 16.9022 15.6979 16.3544 15.2648 15.7755C15.2502 15.7561 15.2402 15.6999 15.249 15.663C15.5725 14.3487 15.9 13.035 16.234 11.7231C16.2404 11.6985 16.2855 11.6493 16.3178 11.6387C17.6795 11.1776 18.9398 10.7581 20.1715 10.3544C20.1744 10.3538 20.1791 10.3532 20.1838 10.3532C20.2125 10.3532 20.2635 10.369 20.2775 10.3842C20.9953 11.2344 21.7295 12.1139 22.4584 12.9999C22.483 13.0298 22.4965 13.0831 22.5111 13.1393C22.5176 13.1639 22.524 13.1897 22.5316 13.2137C22.3154 14.8333 21.8021 16.2717 20.9643 17.6083L21.9451 17.93C22.7291 16.6298 23.2271 15.1942 23.4311 13.6356C23.9016 10.038 22.8949 6.86041 20.4398 4.19147L20.4381 4.19029ZM3.37207 6.0612C4.4543 4.50144 5.86875 3.30378 7.57735 2.5028C7.59668 2.49343 7.6248 2.48933 7.6541 2.48933C7.6834 2.48933 7.71738 2.4946 7.74317 2.50398C8.35137 2.74245 8.95898 2.98209 9.56602 3.22232C10.1977 3.47193 10.8293 3.72155 11.4615 3.96882C11.5318 3.99636 11.5436 4.01511 11.543 4.10418C11.54 4.5741 11.54 5.04402 11.5406 5.51394L11.5418 6.46549C11.543 6.93248 11.5441 7.39947 11.5348 7.86588C11.5336 7.93971 11.4873 8.0405 11.4363 8.08151C10.8656 8.5444 10.292 9.00378 9.71836 9.46316C9.22617 9.85749 8.73399 10.2518 8.24356 10.6479C8.15977 10.7159 8.10586 10.7258 8.00215 10.6901C6.74707 10.2671 5.49082 9.84752 4.2334 9.43443C4.11387 9.39517 4.07109 9.34774 4.04356 9.22469C3.91816 8.66864 3.78868 8.11374 3.65918 7.55886C3.55489 7.11238 3.45059 6.6653 3.34805 6.21881C3.33691 6.16842 3.34746 6.09461 3.37149 6.06063L3.37207 6.0612ZM3.29824 17.777C3.24961 17.7688 3.18515 17.7301 3.16289 17.695C2.27285 16.301 1.73731 14.7811 1.57149 13.1762L1.55918 13.0772C1.57266 13.0526 1.59082 13.0192 1.61485 12.9899L2.35195 12.1034C2.82715 11.5321 3.30293 10.9608 3.7752 10.3872C3.82325 10.3292 3.84492 10.3233 3.92695 10.3508C4.39102 10.5067 4.85567 10.662 5.32032 10.8173C6.11836 11.0839 6.91699 11.3505 7.71387 11.6217C7.7625 11.6387 7.83105 11.7149 7.84453 11.7688C8.17148 13.0345 8.49668 14.3299 8.81133 15.6196C8.82539 15.677 8.80254 15.7766 8.76387 15.8294C8.19551 16.6005 7.59785 17.3973 6.93574 18.2657C6.90469 18.3061 6.83203 18.3424 6.80391 18.3383C5.74629 18.1766 4.63184 17.9985 3.29766 17.777H3.29824ZM16.1033 18.5048L16.4168 18.9184L16.1156 19.4464C15.5848 20.3768 15.0574 21.3014 14.5248 22.2225C14.5084 22.2501 14.4469 22.2899 14.3807 22.3046C12.8941 22.6409 11.4105 22.6614 9.97207 22.362C9.92813 22.3532 9.87187 22.3157 9.84961 22.2811C9.05273 21.0448 8.36074 19.9602 7.73379 18.9659C7.72031 18.9419 7.72617 18.8604 7.74258 18.8376C8.33555 18.0336 8.9502 17.2134 9.57012 16.4013C9.59707 16.3655 9.67325 16.3309 9.72364 16.3303C10.4842 16.3274 11.2506 16.3257 12.0363 16.3257C12.8221 16.3257 13.5568 16.3274 14.3525 16.3303C14.4041 16.3303 14.4721 16.362 14.492 16.3878C15.0299 17.088 15.5631 17.7911 16.1033 18.5053V18.5048ZM20.7205 6.22176C20.6068 6.72098 20.4897 7.21901 20.3725 7.71765C20.2512 8.23503 20.1299 8.75241 20.0121 9.27038C19.9922 9.35827 19.9652 9.38697 19.8732 9.41744C18.5947 9.8399 17.3168 10.2653 16.0412 10.6977C15.9551 10.7264 15.9147 10.7177 15.8402 10.6579C15.409 10.311 14.9771 9.9653 14.5453 9.6196C13.9055 9.10749 13.2656 8.59538 12.6287 8.07917C12.5807 8.04049 12.5361 7.94674 12.535 7.88287C12.5262 7.4065 12.5273 6.92956 12.5285 6.45202L12.5297 5.49226C12.5303 5.03464 12.5314 4.57701 12.5262 4.1194C12.525 4.01803 12.5432 3.99049 12.6334 3.95474C13.1877 3.73678 13.7408 3.51588 14.2945 3.29556C14.9584 3.03131 15.6217 2.76646 16.2867 2.50572C16.3154 2.49517 16.3523 2.48933 16.3898 2.48933C16.435 2.48933 16.4813 2.49753 16.5141 2.51276C18.2115 3.31374 19.6154 4.50202 20.6865 6.04421C20.7158 6.08698 20.7316 6.16961 20.7199 6.22059L20.7205 6.22176Z" fill="white"/>
</g>
<defs>
<clipPath id="clip0_695_20675">
<rect width="30" height="30" fill="white"/>
</clipPath>
</defs>
</svg>
