<svg width="30" height="30" viewBox="0 0 30 30" fill="none" xmlns="http://www.w3.org/2000/svg">
<g clip-path="url(#clip0_695_20679)">
<path d="M26.7865 0H3.21491C1.44025 0.00210768 0.00210768 1.44025 0 3.21421V26.7858C0.00210768 28.5605 1.44025 29.9979 3.21421 30H26.7858C28.5605 29.9979 29.9979 28.5598 30 26.7858V3.21421C29.9979 1.43954 28.5598 0.00210768 26.7858 0H26.7865ZM3.21491 1.0714H26.7865C27.9696 1.07281 28.9279 2.0311 28.9293 3.21421V8.03588H1.07211V3.21421C1.07351 2.0311 2.0318 1.07281 3.21491 1.0714ZM26.7865 28.9293H3.21491C2.0318 28.9279 1.07351 27.9696 1.07211 26.7865V9.10728H28.93V26.7865C28.9286 27.9696 27.9703 28.9279 26.7872 28.9293H26.7865Z" fill="#828282"/>
<path d="M15.9123 6.73339C16.9134 6.72356 17.7164 5.90367 17.7066 4.90322C17.6968 3.91613 16.8994 3.11872 15.9123 3.10889C14.9111 3.11802 14.1074 3.9372 14.1165 4.93765C14.1257 5.92545 14.9245 6.72426 15.9123 6.73339ZM15.9123 4.18029C16.3212 4.18661 16.6479 4.52314 16.6415 4.93273C16.6352 5.33319 16.312 5.65567 15.9123 5.66199C15.5034 5.65567 15.1767 5.31914 15.183 4.90955C15.1893 4.50909 15.5125 4.18661 15.9123 4.18029Z" fill="#828282"/>
<path d="M20.6081 6.73339C21.6092 6.72356 22.4122 5.90367 22.4024 4.90322C22.3926 3.91613 21.5952 3.11872 20.6081 3.10889C19.6069 3.11802 18.8032 3.9372 18.8123 4.93765C18.8215 5.92545 19.6203 6.72426 20.6081 6.73339ZM20.6081 4.18029C21.017 4.18661 21.3437 4.52314 21.3373 4.93273C21.331 5.33319 21.0078 5.65567 20.6081 5.66199C20.1992 5.65567 19.8725 5.31914 19.8788 4.90955C19.8851 4.50909 20.2083 4.18661 20.6081 4.18029Z" fill="#828282"/>
<path d="M25.3048 6.73339C26.306 6.72426 27.1097 5.90507 27.1006 4.90463C27.0914 3.91683 26.2926 3.11802 25.3048 3.10889C24.3037 3.11802 23.4999 3.9365 23.5084 4.93695C23.5168 5.92545 24.3163 6.72426 25.3048 6.73339ZM25.3048 4.18029C25.7137 4.18661 26.0404 4.52314 26.0341 4.93273C26.0277 5.33319 25.7046 5.65567 25.3048 5.66199C24.8959 5.65567 24.5692 5.31914 24.5756 4.90955C24.5819 4.50909 24.9051 4.18661 25.3048 4.18029Z" fill="#828282"/>
<path d="M10.1942 17.7207C10.8757 16.8593 10.7295 15.6088 9.86749 14.9273C9.00615 14.2458 7.75559 14.3919 7.07411 15.254C6.7952 15.606 6.64414 16.0423 6.64555 16.4919C6.64766 16.9633 6.81768 17.4179 7.1261 17.7741C5.8903 18.3502 5.14418 19.6344 5.25589 20.9939C5.25589 21.5855 5.73573 22.0646 6.32659 22.0646H11.1187C11.7103 22.0646 12.1887 21.5848 12.1894 20.9939C12.304 19.586 11.4981 18.2645 10.1942 17.7214V17.7207ZM8.63801 15.5701C9.14666 15.5772 9.55344 15.9945 9.54712 16.5031C9.5408 17.0027 9.13753 17.4052 8.63801 17.4122C8.12936 17.4052 7.72257 16.9879 7.7289 16.4793C7.73522 15.9797 8.13849 15.5772 8.63801 15.5701ZM6.32659 20.9932C6.09053 17.6322 11.3885 17.7087 11.1187 20.9932H6.32659Z" fill="#828282"/>
<path d="M8.72221 11.6309C5.05133 11.6351 2.07599 14.6104 2.07178 18.2813C2.43711 27.104 15.0087 27.1012 15.3726 18.2813C15.3684 14.6104 12.3931 11.6351 8.72221 11.6309ZM8.72221 23.8603C5.64219 23.8568 3.14669 21.3613 3.14318 18.2813C3.4495 10.8798 13.9956 10.8819 14.3012 18.2813C14.2977 21.3613 11.8022 23.8568 8.72221 23.8603Z" fill="#828282"/>
<path d="M18.6108 13.3929H25.0392C25.335 13.3873 25.5704 13.1428 25.5648 12.847C25.5591 12.559 25.3273 12.3272 25.0392 12.3215H18.6108C18.315 12.3272 18.0797 12.5716 18.0853 12.8674C18.0909 13.1555 18.3228 13.3873 18.6108 13.3929Z" fill="#828282"/>
<path d="M18.6664 15.7253C18.3706 15.7323 18.1367 15.9782 18.1437 16.274C18.1507 16.5592 18.3805 16.7897 18.6664 16.7967H22.841C23.1368 16.7967 23.3771 16.5571 23.3771 16.2607C23.3771 15.9642 23.1375 15.7246 22.841 15.7246H18.6664V15.7253Z" fill="#828282"/>
<path d="M27.1826 18.7507H18.6107C18.3149 18.7557 18.0788 18.9987 18.0831 19.2945C18.0873 19.584 18.3212 19.8172 18.6107 19.8221H27.1819C27.4777 19.8165 27.7131 19.572 27.7074 19.2762C27.7018 18.9882 27.47 18.7564 27.1819 18.7507H27.1826Z" fill="#828282"/>
<path d="M24.5496 23.5717C24.5496 23.2759 24.31 23.0363 24.0142 23.0356H17.5851C17.2893 23.0356 17.0491 23.2752 17.0491 23.5717C17.0491 23.8682 17.2886 24.1078 17.5851 24.1078H24.0135C24.3093 24.1078 24.5489 23.8682 24.5496 23.5724V23.5717Z" fill="#828282"/>
<path d="M26.0558 25.4509H19.6274C19.3316 25.4509 19.0913 25.6905 19.0913 25.987C19.0913 26.2828 19.3316 26.523 19.6274 26.523H26.0558C26.3516 26.5174 26.5869 26.2729 26.5813 25.9771C26.5757 25.6891 26.3438 25.4572 26.0558 25.4516V25.4509Z" fill="#828282"/>
</g>
<defs>
<clipPath id="clip0_695_20679">
<rect width="30" height="30" fill="white"/>
</clipPath>
</defs>
</svg>
