<svg width="30" height="30" viewBox="0 0 30 30" fill="none" xmlns="http://www.w3.org/2000/svg">
<g clip-path="url(#clip0_695_20692)">
<path d="M22.7824 9.91678C22.5545 9.68709 22.1836 9.68533 21.9539 9.91326C21.7242 10.1412 21.7224 10.5121 21.9504 10.7418L21.9539 10.7453C22.0681 10.8601 22.2176 10.9176 22.367 10.9176C22.5164 10.9176 22.6658 10.8607 22.7806 10.7465C23.0103 10.5185 23.0103 10.1459 22.7824 9.91619V9.91678Z" fill="#828282"/>
<path d="M29.829 16.9626L24.3868 11.5204C24.1583 11.2919 23.7868 11.2919 23.5583 11.5204C23.3298 11.7489 23.3298 12.1204 23.5583 12.3489L27.8784 16.669H17.5759C16.721 16.669 16.0261 15.9735 16.0261 15.1192V4.81728L20.1968 8.98799C20.4253 9.2165 20.7968 9.2165 21.0253 8.98799C21.2538 8.75947 21.2538 8.38799 21.0253 8.15947L15.7325 2.8667C15.504 2.63818 15.1325 2.63818 14.904 2.8667L5.56299 12.2077C5.33447 12.4362 5.33447 12.8077 5.56299 13.0362L19.6589 27.1321C19.769 27.2423 19.9179 27.3038 20.0731 27.3038C20.2284 27.3038 20.3778 27.2423 20.4874 27.1321L29.8284 17.7911C29.9386 17.681 30.0001 17.5321 30.0001 17.3769C30.0001 17.2216 29.938 17.0722 29.8284 16.9626H29.829ZM14.8548 4.57412V12.0366H7.39229L14.8548 4.57412ZM19.4878 25.3034L7.39229 13.2079H14.8548V15.1192C14.8548 16.6198 16.0759 17.8409 17.5765 17.8409H19.4878V25.3034ZM20.6597 25.3034V17.8409H28.1222L20.6597 25.3034Z" fill="#828282"/>
<path d="M4.02187 14.8826H0.585937C0.2625 14.8826 0 15.1451 0 15.4685C0 15.7919 0.2625 16.0544 0.585937 16.0544H4.02129C4.34473 16.0544 4.60723 15.7919 4.60723 15.4685C4.60723 15.1451 4.34473 14.8826 4.02129 14.8826H4.02187Z" fill="#828282"/>
<path d="M5.76855 14.8826H5.75977C5.43633 14.8826 5.17383 15.1451 5.17383 15.4685C5.17383 15.7919 5.43633 16.0544 5.75977 16.0544H5.76855C6.09199 16.0544 6.35449 15.7919 6.35449 15.4685C6.35449 15.1451 6.09199 14.8826 5.76855 14.8826Z" fill="#828282"/>
<path d="M2.46216 8.73022H0.587158C0.263721 8.73022 0.0012207 8.99272 0.0012207 9.31616C0.0012207 9.6396 0.263721 9.9021 0.587158 9.9021H2.46216C2.7856 9.9021 3.0481 9.6396 3.0481 9.31616C3.0481 8.99272 2.7856 8.73022 2.46216 8.73022Z" fill="#828282"/>
<path d="M6.59233 8.73022H4.37573C4.05229 8.73022 3.78979 8.99272 3.78979 9.31616C3.78979 9.6396 4.05229 9.9021 4.37573 9.9021H6.59233C6.91577 9.9021 7.17827 9.6396 7.17827 9.31616C7.17827 8.99272 6.91577 8.73022 6.59233 8.73022Z" fill="#828282"/>
<path d="M7.86865 18.1052H4.5874C4.26396 18.1052 4.00146 18.3677 4.00146 18.6912C4.00146 19.0146 4.26396 19.2771 4.5874 19.2771H7.86865C8.19209 19.2771 8.45459 19.0146 8.45459 18.6912C8.45459 18.3677 8.19209 18.1052 7.86865 18.1052Z" fill="#828282"/>
<path d="M10.4302 21.8552H2.16846C1.84502 21.8552 1.58252 22.1177 1.58252 22.4412C1.58252 22.7646 1.84502 23.0271 2.16846 23.0271H10.4302C10.7536 23.0271 11.0161 22.7646 11.0161 22.4412C11.0161 22.1177 10.7536 21.8552 10.4302 21.8552Z" fill="#828282"/>
</g>
<defs>
<clipPath id="clip0_695_20692">
<rect width="30" height="30" fill="white"/>
</clipPath>
</defs>
</svg>
