<svg width="30" height="30" viewBox="0 0 30 30" fill="none" xmlns="http://www.w3.org/2000/svg">
<path d="M3.60558 30H14.9378C16.928 29.9977 18.5416 28.432 18.5434 26.5002V21.6094C20.7986 20.1223 22.149 17.6473 22.149 15.0006C22.149 12.3539 20.7986 9.87891 18.5434 8.3918V3.4998C18.541 1.56797 16.928 0.00234375 14.9378 0H3.60558C1.61536 0.00234375 0.00241458 1.56797 0 3.4998V26.4996C0.00241458 28.4314 1.61536 29.9977 3.60558 29.9994V30ZM21.1192 15C21.1149 18.8643 17.8884 21.9961 13.9074 22.0002C12.9132 22.0014 11.9293 21.8004 11.0196 21.4107C10.6882 21.2719 10.3688 21.1072 10.0646 20.9186C9.36617 20.4908 8.74925 19.9488 8.24098 19.3172V10.6834C8.74864 10.0523 9.36496 9.51094 10.0622 9.0832C10.3688 8.89395 10.69 8.72813 11.0238 8.58867C11.9323 8.19961 12.9138 7.99922 13.9068 8.00039C17.8878 8.00449 21.1143 11.1363 21.1186 15.0006L21.1192 15ZM10.3018 7.81523C10.0302 7.94121 9.76639 8.08184 9.51105 8.23711C9.0565 8.51719 8.63153 8.83945 8.24158 9.1998V6.99961H10.3018V7.81523ZM8.24158 20.7996C8.63153 21.1594 9.0565 21.4811 9.51105 21.7605C9.76639 21.9164 10.0302 22.0576 10.3024 22.1842V22.9998H8.24218V20.7996H8.24158ZM14.1772 1.0002L13.8169 1.87148C13.6617 2.25176 13.2832 2.50078 12.8619 2.5002H5.68212C5.26017 2.50137 4.88108 2.25234 4.72534 1.87148L4.36617 1.0002H14.1766H14.1772ZM1.03042 3.4998C1.03465 2.24883 1.99264 1.19355 3.27055 1.03301L3.76917 2.24297C4.08004 3.0041 4.83883 3.50273 5.68212 3.4998H12.8619C13.7052 3.50273 14.464 3.00352 14.7748 2.24297L15.2735 1.03301C16.552 1.19414 17.51 2.24883 17.5136 3.4998V7.81758C15.5898 6.89531 13.3683 6.74707 11.3322 7.40566V7.0002C11.3322 6.44766 10.8711 6 10.3018 6H8.24158C7.67234 6 7.21116 6.44766 7.21116 7.0002V23.0004C7.21116 23.5529 7.67234 24.0006 8.24158 24.0006H10.3018C10.8711 24.0006 11.3322 23.5529 11.3322 23.0004V22.5949C13.3683 23.2535 15.5898 23.1053 17.5136 22.183V26.5008C17.5118 27.8807 16.36 28.9992 14.9378 29.001H3.60558C2.18399 28.9992 1.03163 27.8812 1.02982 26.5008V3.4998H1.03042Z" fill="#828282"/>
<path fill-rule="evenodd" clip-rule="evenodd" d="M3.60573 27.4999H14.938C15.2223 27.4999 15.4529 27.276 15.4529 27C15.4529 26.7241 15.2223 26.5002 14.938 26.5002H3.60573C3.32141 26.5002 3.09082 26.7241 3.09082 27C3.09082 27.276 3.32141 27.4999 3.60573 27.4999Z" fill="#828282"/>
<path d="M13.3929 9.4998V10.0312C11.6484 10.2229 10.3022 11.3672 10.3022 12.75C10.3022 14.1328 11.6484 15.2771 13.3929 15.4687V18.9633C12.2333 18.7957 11.3327 18.0791 11.3327 17.25C11.3327 16.974 11.1021 16.7502 10.8178 16.7502C10.5334 16.7502 10.3028 16.974 10.3028 17.25C10.3028 18.6322 11.649 19.7771 13.3935 19.9687V20.5002C13.3935 20.7762 13.6241 21 13.9084 21C14.1927 21 14.4233 20.7762 14.4233 20.5002V19.9687C16.1679 19.7771 17.514 18.6328 17.514 17.25C17.514 15.8672 16.1679 14.7229 14.4233 14.5312V11.0367C15.5829 11.2043 16.4836 11.9209 16.4836 12.75C16.4836 13.026 16.7142 13.2498 16.9985 13.2498C17.2828 13.2498 17.5134 13.026 17.5134 12.75C17.5134 11.3678 16.1673 10.2229 14.4227 10.0312V9.4998C14.4227 9.22383 14.1921 9 13.9078 9C13.6235 9 13.3929 9.22383 13.3929 9.4998ZM11.3327 12.75C11.3327 11.9209 12.2333 11.2043 13.3929 11.0367V14.4627C12.2333 14.2951 11.3327 13.5785 11.3327 12.7494V12.75ZM16.4836 17.25C16.4836 18.0791 15.5829 18.7957 14.4233 18.9633V15.5373C15.5829 15.7049 16.4836 16.4215 16.4836 17.2506V17.25Z" fill="#828282"/>
<path d="M26.2892 18.6034C26.1787 18.6034 26.0677 18.5823 25.9608 18.5395C25.6403 18.4106 25.4326 18.1095 25.4326 17.7726V16.5327H23.8988C23.5215 16.5327 23.2148 16.2351 23.2148 15.8688V14.1638C23.2148 13.7976 23.5215 13.4999 23.8988 13.4999H25.4326V12.2272C25.4326 11.8903 25.6397 11.5892 25.9608 11.4603C26.2814 11.3313 26.6472 11.4022 26.8929 11.6401L29.7493 14.4128C29.9111 14.5698 29.9998 14.7778 29.9998 14.9999C29.9998 15.222 29.9111 15.43 29.7493 15.587L26.8929 18.3597C26.7287 18.519 26.5114 18.6034 26.2892 18.6034ZM24.2416 15.5372H26.4594V17.3724L28.9036 14.9999L26.4594 12.6274V14.496H24.2416V15.5366V15.5372Z" fill="#828282"/>
</svg>
