<svg width="30" height="30" viewBox="0 0 30 30" fill="none" xmlns="http://www.w3.org/2000/svg">
<path d="M19.3923 4.16303L19.1181 4.34176L14.4196 7.39558L13.1252 8.23699V9.635V16.9673V18.3653L20.4177 23.1054V3.49683L19.9202 3.82026L19.3923 4.16303Z" fill="white"/>
<path d="M0.373821 11.1362C0.148825 11.2241 0 11.4409 0 11.6823V14.9196C0 15.161 0.14824 15.3783 0.373821 15.4656L1.56442 15.9285V10.6733L0.373821 11.1362Z" fill="white"/>
<path d="M23.3203 1.5826C22.5797 1.5826 21.9329 1.98982 21.5901 2.59098V24.0107C21.9334 24.6124 22.5797 25.0191 23.3203 25.0191C24.4189 25.0191 25.3125 24.1255 25.3125 23.0269V3.57418C25.3125 2.47557 24.4189 1.58203 23.3203 1.58203V1.5826Z" fill="white"/>
<path d="M29.414 14.7951C29.7374 14.7951 29.9999 14.5326 29.9999 14.2092C29.9999 13.8858 29.7374 13.6233 29.414 13.6233H27.0703C26.7469 13.6233 26.4844 13.8858 26.4844 14.2092C26.4844 14.5326 26.7469 14.7951 27.0703 14.7951H29.414Z" fill="white"/>
<path d="M27.3844 10.8093C27.484 10.8093 27.5848 10.7841 27.6768 10.7308L29.7064 9.55891C29.9865 9.3972 30.0826 9.03863 29.9208 8.75856C29.7591 8.47849 29.4005 8.38238 29.1205 8.5441L27.0908 9.71595C26.8108 9.87767 26.7147 10.2363 26.8764 10.5163C26.9848 10.7044 27.1816 10.8093 27.3844 10.8093Z" fill="white"/>
<path d="M29.7071 18.8593L27.6775 17.6874C27.3974 17.5257 27.0388 17.6218 26.8771 17.9019C26.7154 18.1819 26.8115 18.5405 27.0916 18.7023L29.1212 19.8741C29.2132 19.9274 29.314 19.9526 29.4136 19.9526C29.6163 19.9526 29.8132 19.8477 29.9216 19.6596C30.0833 19.3796 29.9872 19.021 29.7071 18.8593Z" fill="white"/>
<path d="M13.7803 24.684L11.3393 17.8714H11.9528V8.73096H4.74591C3.85354 8.73096 3.10063 9.33857 2.87915 10.1624L2.86157 10.1694V16.4335L2.87915 16.4406C3.10063 17.2638 3.85354 17.872 4.74591 17.872H5.40683L5.99686 19.519H8.41614C8.73899 19.519 9.0009 19.7809 9.0009 20.1038C9.0009 20.4266 8.73899 20.6885 8.41614 20.6885H6.4158L7.02633 22.3918C7.1066 22.3502 7.19801 22.3262 7.29469 22.3262H9.46906C9.7919 22.3262 10.0538 22.5881 10.0538 22.911C10.0538 23.2338 9.7919 23.4957 9.46906 23.4957H7.42124L8.52279 26.5695C8.91946 27.6763 9.97588 28.4198 11.1512 28.4198C12.0588 28.4198 12.912 27.9769 13.4346 27.2351C13.9572 26.4933 14.0862 25.54 13.7797 24.6857L13.7803 24.684Z" fill="white"/>
</svg>
