<svg width="30" height="30" viewBox="0 0 30 30" fill="none" xmlns="http://www.w3.org/2000/svg">
<path d="M18.0225 29.673C17.3309 29.673 16.7128 29.1673 16.1125 28.6764C15.7456 28.376 15.2426 27.965 15.0003 27.965C14.7581 27.965 14.255 28.376 13.8881 28.6764C13.2303 29.214 12.4844 29.8251 11.663 29.6372C10.8154 29.4448 10.4006 28.5537 10.0343 27.7675C9.8515 27.3744 9.57472 26.7799 9.37784 26.6853C9.16946 26.5837 8.5213 26.7403 8.09303 26.8432C7.25886 27.0439 6.31411 27.2702 5.6455 26.7377C4.97497 26.202 4.98711 25.2266 4.99798 24.3669C5.00373 23.9284 5.0114 23.2655 4.87078 23.0878C4.73143 22.9133 4.08582 22.7753 3.65883 22.6838C2.8138 22.503 1.85755 22.2984 1.48233 21.5211C1.11287 20.756 1.54434 19.8879 1.92403 19.1222C2.12154 18.7252 2.41941 18.125 2.36699 17.8949C2.31969 17.6884 1.80641 17.2902 1.46699 17.0262C0.7792 16.4931 0 15.8878 0 15.0121C0 14.1363 0.77984 13.5317 1.46763 12.9979C1.80705 12.7346 2.32033 12.3357 2.36763 12.1292C2.42005 11.8991 2.12154 11.2989 1.92467 10.9013C1.54434 10.1355 1.11351 9.26814 1.48361 8.50173C1.85883 7.72509 2.81508 7.51989 3.65947 7.33899C4.08646 7.24759 4.73207 7.10953 4.87078 6.93566C5.01268 6.75796 5.00437 6.0951 4.99926 5.65597C4.98839 4.79559 4.97625 3.82079 5.64678 3.28513C6.31475 2.75203 7.26014 2.97896 8.0943 3.17967C8.52321 3.28258 9.17074 3.43855 9.37912 3.33819C9.576 3.24295 9.85277 2.64912 10.0356 2.256C10.4012 1.46978 10.8161 0.579357 11.6637 0.386316C12.4838 0.200306 13.231 0.808835 13.8887 1.34705C14.2556 1.64748 14.7587 2.0585 15.001 2.0585C15.2432 2.0585 15.7463 1.64748 16.1132 1.34705C16.7709 0.808835 17.5169 0.198389 18.3383 0.386316C19.1852 0.578718 19.6001 1.46978 19.9663 2.256C20.1492 2.64912 20.4259 3.24359 20.6228 3.33819C20.8318 3.43855 21.4787 3.28258 21.907 3.17967C22.7411 2.97896 23.6865 2.75203 24.3545 3.28513C25.025 3.82079 25.0129 4.79559 25.002 5.65597C24.9963 6.09446 24.9886 6.75796 25.1292 6.93502C25.2686 7.10953 25.9142 7.24759 26.3412 7.33899C27.1862 7.51989 28.1425 7.72445 28.5177 8.50173C28.8871 9.2675 28.4557 10.1355 28.076 10.9013C27.8785 11.2983 27.5806 11.8985 27.633 12.1286C27.6803 12.3351 28.1936 12.7339 28.533 12.9973C29.2208 13.531 30 14.1363 30 15.0114C30 15.8865 29.2202 16.4918 28.5324 17.0256C28.193 17.2889 27.6797 17.6872 27.6324 17.8943C27.58 18.1244 27.8785 18.7246 28.0753 19.1215C28.4557 19.8873 28.8865 20.7547 28.5164 21.5211C28.1412 22.2978 27.1849 22.5029 26.3405 22.6832C25.9135 22.7746 25.2679 22.9127 25.1286 23.0872C24.9873 23.2649 24.995 23.9278 25.0007 24.3669C25.0116 25.2266 25.0238 26.2014 24.3532 26.7371C23.6852 27.2702 22.7399 27.0426 21.9057 26.8425C21.4768 26.7396 20.8293 26.583 20.6209 26.6847C20.424 26.7793 20.1472 27.3737 19.9644 27.7668C19.5988 28.5531 19.1839 29.4441 18.3364 29.6365C18.2302 29.6608 18.1248 29.6717 18.0219 29.6717L18.0225 29.673ZM9.16754 25.2905C9.45007 25.2905 9.72109 25.3359 9.97102 25.4567C10.6064 25.7629 10.9445 26.4891 11.2712 27.1922C11.4329 27.5399 11.7698 28.2635 11.9654 28.3076C12.1469 28.3396 12.7401 27.8531 13.0245 27.6205C13.6375 27.1193 14.271 26.6009 15.0003 26.6009C15.7297 26.6009 16.3631 27.1193 16.9761 27.6205C17.2606 27.8531 17.8359 28.33 18.0359 28.3076C18.2309 28.2629 18.5677 27.5399 18.7295 27.1922C19.0561 26.4897 19.3942 25.7636 20.0296 25.4567C20.6759 25.1448 21.4627 25.3347 22.2247 25.5175C22.5909 25.6057 23.3554 25.7891 23.5024 25.6721C23.652 25.5526 23.6424 24.7638 23.6373 24.3848C23.6277 23.6037 23.6175 22.7957 24.063 22.2377C24.506 21.6828 25.2935 21.5141 26.0548 21.3511C26.4275 21.2712 27.2035 21.105 27.2885 20.9299C27.3677 20.7649 27.0206 20.0656 26.8538 19.7294C26.5042 19.0257 26.1424 18.297 26.3028 17.5938C26.4581 16.9112 27.0878 16.4222 27.6963 15.9498C28.0255 15.6947 28.6372 15.2204 28.6372 15.0127C28.6372 14.805 28.0255 14.3307 27.6969 14.075C27.0878 13.6026 26.4581 13.1143 26.3034 12.4309C26.1436 11.7272 26.5054 10.9991 26.8544 10.2953C27.0213 9.95911 27.3684 9.25983 27.2891 9.09491C27.2041 8.91913 26.4287 8.75357 26.0561 8.67367C25.2948 8.51067 24.5073 8.34255 24.0637 7.78772C23.6181 7.22969 23.6284 6.42174 23.638 5.64063C23.6424 5.26157 23.6527 4.47214 23.5031 4.35261C23.3567 4.23564 22.5922 4.4191 22.2253 4.50731C21.464 4.69012 20.6771 4.87997 20.0303 4.56803C19.3949 4.26185 19.0567 3.5357 18.7301 2.83321C18.5684 2.48548 18.2315 1.7619 18.0359 1.71779C17.8486 1.68519 17.2606 2.17227 16.9761 2.4043C16.3638 2.90608 15.7303 3.42384 15.001 3.42384C14.2716 3.42384 13.6382 2.90544 13.0252 2.4043C12.7407 2.17163 12.1475 1.68711 11.9654 1.71715C11.7704 1.76126 11.4329 2.48484 11.2718 2.83257C10.9452 3.53506 10.607 4.26121 9.97166 4.56739C9.32542 4.87869 8.53856 4.69012 7.77598 4.50667C7.40971 4.41846 6.64458 4.235 6.4982 4.35197C6.34863 4.4715 6.35821 5.26093 6.36333 5.63999C6.37292 6.4211 6.38314 7.22905 5.93761 7.78708C5.49464 8.34191 4.70714 8.51067 3.94584 8.67367C3.57318 8.75357 2.79718 8.91977 2.71217 9.09491C2.63291 9.25983 2.98 9.95911 3.14683 10.2953C3.49648 10.9991 3.85827 11.7278 3.69783 12.4309C3.5425 13.1136 2.91288 13.6026 2.30435 14.075C1.97516 14.3307 1.36408 14.805 1.36408 15.0127C1.36408 15.2204 1.9758 15.6954 2.30435 15.9504C2.91352 16.4228 3.54314 16.9112 3.69783 17.5938C3.85763 18.2976 3.49584 19.025 3.14683 19.7294C2.98 20.0656 2.63291 20.7649 2.71217 20.9299C2.79718 21.1063 3.57255 21.2718 3.94584 21.3517C4.70714 21.5147 5.49464 21.6828 5.93761 22.2383C6.38314 22.7963 6.37292 23.6043 6.36333 24.3854C6.35885 24.7645 6.34863 25.5539 6.4982 25.6734C6.64458 25.7891 7.40907 25.607 7.77598 25.5187C8.2426 25.4062 8.71945 25.2918 9.16754 25.2918V25.2905ZM10.7099 20.267L20.2553 10.7217C20.5218 10.4551 20.5218 10.0237 20.2553 9.75777C19.9887 9.49185 19.5572 9.49121 19.2913 9.75777L9.74603 19.3031C9.47948 19.5696 9.47948 20.0011 9.74603 20.267C9.87962 20.4006 10.0535 20.4671 10.228 20.4671C10.4025 20.4671 10.577 20.4006 10.7099 20.267ZM11.5914 13.9893C10.2759 13.9893 9.20525 12.9187 9.20525 11.6032C9.20525 10.2877 10.2759 9.217 11.5914 9.217C12.9069 9.217 13.9776 10.2877 13.9776 11.6032C13.9776 12.9187 12.9069 13.9893 11.5914 13.9893ZM11.5914 10.5804C11.0276 10.5804 10.5687 11.0394 10.5687 11.6032C10.5687 12.167 11.0276 12.6259 11.5914 12.6259C12.1552 12.6259 12.6142 12.167 12.6142 11.6032C12.6142 11.0394 12.1552 10.5804 11.5914 10.5804ZM18.4099 20.8078C17.0944 20.8078 16.0237 19.7371 16.0237 18.4216C16.0237 17.1061 17.0944 16.0354 18.4099 16.0354C19.7254 16.0354 20.796 17.1061 20.796 18.4216C20.796 19.7371 19.7254 20.8078 18.4099 20.8078ZM18.4099 17.3989C17.8461 17.3989 17.3871 17.8578 17.3871 18.4216C17.3871 18.9854 17.8461 19.4443 18.4099 19.4443C18.9736 19.4443 19.4326 18.9854 19.4326 18.4216C19.4326 17.8578 18.9736 17.3989 18.4099 17.3989Z" fill="#828282"/>
</svg>
