<svg width="30" height="30" viewBox="0 0 30 30" fill="none" xmlns="http://www.w3.org/2000/svg">
<path fill-rule="evenodd" clip-rule="evenodd" d="M11.0078 12.5893C11.0078 13.4775 11.9448 14.2451 13.1507 14.4246V10.7539C11.9448 10.9334 11.0078 11.701 11.0078 12.5893Z" fill="white"/>
<path fill-rule="evenodd" clip-rule="evenodd" d="M14.2214 19.2461C15.4273 19.0667 16.3643 18.299 16.3643 17.4108C16.3643 16.5226 15.4273 15.7549 14.2214 15.5754V19.2461Z" fill="white"/>
<path d="M13.6854 7.50001C12.6524 7.49828 11.6305 7.71271 10.6854 8.12946C10.3383 8.27902 10.0039 8.45622 9.68518 8.65926C8.9604 9.11805 8.32016 9.69832 7.79248 10.3746V19.6253C8.32045 20.3014 8.96109 20.8813 9.68622 21.3396C10.0027 21.5416 10.3348 21.7178 10.6794 21.8667C11.6262 22.2854 12.6501 22.5011 13.6853 22.4999C17.8274 22.4999 21.1853 19.1421 21.1853 14.9999C21.1853 10.8578 17.8275 7.50001 13.6854 7.50001ZM17.4353 17.4108C17.4353 18.892 16.0355 20.1183 14.2211 20.3234V20.8929C14.2211 21.1888 13.9812 21.4286 13.6854 21.4286C13.3895 21.4286 13.1497 21.1888 13.1497 20.8929V20.3234C11.3352 20.1183 9.93537 18.892 9.93537 17.4108C9.93537 17.1149 10.1752 16.8751 10.4711 16.8751C10.7669 16.8751 11.0068 17.1149 11.0068 17.4108C11.0068 18.299 11.9437 19.0666 13.1496 19.2461V15.502C11.3352 15.2968 9.93532 14.0706 9.93532 12.5893C9.93532 11.1081 11.3352 9.88181 13.1496 9.67663V9.10715C13.1496 8.8113 13.3895 8.57146 13.6853 8.57146C13.9812 8.57146 14.221 8.8113 14.221 9.10715V9.67663C16.0355 9.88181 17.4353 11.1081 17.4353 12.5893C17.4353 12.8852 17.1955 13.125 16.8996 13.125C16.6037 13.125 16.3639 12.8852 16.3639 12.5893C16.3639 11.7011 15.427 10.9334 14.2211 10.754V14.4981C16.0355 14.7032 17.4353 15.9295 17.4353 17.4108Z" fill="white"/>
<path fill-rule="evenodd" clip-rule="evenodd" d="M9.93528 22.6977C9.65256 22.5627 9.3778 22.4116 9.11246 22.245C8.64001 21.9452 8.19792 21.6 7.79248 21.2144V23.5714H9.93528V22.6977Z" fill="white"/>
<path fill-rule="evenodd" clip-rule="evenodd" d="M7.79248 8.7858C8.19832 8.40051 8.64056 8.05553 9.11301 7.75562C9.3783 7.58908 9.6528 7.43774 9.93533 7.30244V6.42871H7.79253L7.79248 8.7858Z" fill="white"/>
<path fill-rule="evenodd" clip-rule="evenodd" d="M5.13069 1.60714H12.5975C13.036 1.60868 13.4308 1.34145 13.5923 0.93377L13.9657 0H3.76245L4.13744 0.93377C4.29879 1.3409 4.69271 1.60799 5.13069 1.60714Z" fill="white"/>
<path d="M11.007 23.137V23.5715C11.007 24.1632 10.5273 24.6429 9.93554 24.6429H7.7927C7.20099 24.6429 6.72125 24.1632 6.72125 23.5715V6.42862C6.72125 5.83691 7.20094 5.35717 7.7927 5.35717H9.93554C10.5273 5.35717 11.007 5.83686 11.007 6.42862V6.86309C13.1243 6.15743 15.4346 6.3161 17.4356 7.3045V2.67863C17.4314 1.33807 16.4351 0.207842 15.1057 0.0354004L14.5872 1.33183C14.264 2.14719 13.4746 2.6815 12.5975 2.67863H5.13075C4.25368 2.6815 3.46427 2.14719 3.14108 1.33183L2.62252 0.0354004C1.2931 0.207842 0.296885 1.33807 0.292725 2.67863V27.3214C0.294507 28.8 1.49268 29.9983 2.97132 30H14.757C16.2356 29.9983 17.4338 28.8001 17.4356 27.3214V22.6955C15.4346 23.684 13.1243 23.8427 11.007 23.137ZM15.2927 27.8571C15.2927 28.153 15.0528 28.3928 14.757 28.3928H2.97127C2.67541 28.3928 2.43557 28.153 2.43557 27.8571C2.43557 27.5613 2.67541 27.3214 2.97127 27.3214H14.757C15.0529 27.3214 15.2927 27.5613 15.2927 27.8571Z" fill="white"/>
<path fill-rule="evenodd" clip-rule="evenodd" d="M29.2217 14.4644H23.8646C23.5687 14.4644 23.3289 14.7042 23.3289 15.0001C23.3289 15.2959 23.5687 15.5358 23.8646 15.5358H29.2217C29.5175 15.5358 29.7574 15.2959 29.7574 15.0001C29.7574 14.7042 29.5176 14.4644 29.2217 14.4644Z" fill="white"/>
<path fill-rule="evenodd" clip-rule="evenodd" d="M23.3287 12.857H27.6144C27.9103 12.857 28.1501 12.6172 28.1501 12.3213C28.1501 12.0255 27.9103 11.7856 27.6144 11.7856H23.3287C23.0328 11.7856 22.793 12.0255 22.793 12.3213C22.793 12.6171 23.0328 12.857 23.3287 12.857Z" fill="white"/>
<path fill-rule="evenodd" clip-rule="evenodd" d="M27.6144 17.1428H23.3287C23.0328 17.1428 22.793 17.3827 22.793 17.6785C22.793 17.9744 23.0328 18.2142 23.3287 18.2142H27.6144C27.9103 18.2142 28.1501 17.9744 28.1501 17.6785C28.1501 17.3827 27.9103 17.1428 27.6144 17.1428Z" fill="white"/>
</svg>
