<svg width="30" height="30" viewBox="0 0 30 30" fill="none" xmlns="http://www.w3.org/2000/svg">
<path d="M27.8837 24.9178C26.5812 24.3545 22.9276 23.3677 23.1962 21.6048C23.3873 20.3488 25.7802 20.7675 25.8213 19.5377C25.8469 18.7057 24.6636 18.5455 23.9608 18.5039C19.2424 17.9822 14.0742 17.8374 9.42305 18.8034V22.5708C11.3609 23.6047 10.4206 25.8421 7.87285 25.8421C5.32512 25.8421 4.39488 23.5785 6.32265 22.5708V19.6407C4.00242 20.4161 0.245137 22.0182 0.120668 24.473C-0.0186888 27.3209 4.059 28.4935 6.51859 28.9848L6.68414 29.0211C10.5272 29.8513 14.4649 30.1556 18.3901 29.9258C21.4625 29.7495 24.5141 29.31 27.5121 28.6132C28.6799 28.2773 30.6958 27.6621 29.7138 26.2048C29.232 25.6182 28.5995 25.1733 27.8843 24.9178H27.8837ZM20.7932 27.3935C19.6515 27.3935 18.726 26.468 18.726 25.3264C18.726 24.1847 19.6515 23.2593 20.7932 23.2593C21.9348 23.2593 22.8603 24.1847 22.8603 25.3264C22.8603 26.468 21.9348 27.3935 20.7932 27.3935Z" fill="white"/>
<path d="M7.35571 1.22239V23.7762C7.35571 24.0614 7.58738 24.2931 7.87265 24.2931C8.15791 24.2931 8.38957 24.0614 8.38957 23.7762C8.38957 -0.457038 8.45687 1.10388 8.2657 0.886505C8.12516 0.722136 7.89706 0.662582 7.69398 0.73762C7.4909 0.812658 7.35631 1.00621 7.35631 1.22239H7.35571Z" fill="white"/>
<path d="M20.9012 10.1632C21.0143 10.0638 21.0781 9.92083 21.0769 9.77016V2.27645C21.0757 2.08707 20.9715 1.91317 20.8041 1.82324C20.6368 1.73332 20.4343 1.74285 20.2759 1.84707C16.4876 4.20899 12.6994 -1.39328 8.90576 0.33796C9.08859 0.596425 9.18745 0.904917 9.18984 1.22175V9.01024C13.0918 7.58928 16.9986 13.5584 20.9006 10.1626L20.9012 10.1632Z" fill="white"/>
</svg>
