<svg width="30" height="30" viewBox="0 0 30 30" fill="none" xmlns="http://www.w3.org/2000/svg">
<g clip-path="url(#clip0_695_20702)">
<path d="M14.9799 6.51172C10.3118 6.51172 6.5144 10.3091 6.5144 14.9772C6.94031 26.1922 23.0214 26.1889 23.4453 14.9772C23.4453 10.3097 19.648 6.51172 14.9799 6.51172ZM14.9799 22.1402C11.0301 22.1402 7.81688 18.9269 7.81688 14.9772C8.17702 5.48732 21.784 5.48992 22.1428 14.9772C22.1428 18.9269 18.9296 22.1402 14.9799 22.1402Z" fill="#828282"/>
<path d="M19.5528 11.8793C19.334 11.7451 19.0559 11.7516 18.8442 11.8975L16.9224 13.2149L15.5275 11.0431C15.2904 10.6491 14.6685 10.6491 14.4314 11.0431L13.0365 13.2149L11.1147 11.8975C10.903 11.7523 10.6249 11.7451 10.4061 11.8793C10.1873 12.0134 10.0675 12.2641 10.1007 12.5188L10.8184 17.9911C10.8607 18.3155 11.1368 18.5577 11.4637 18.5577H18.4945C18.8214 18.5577 19.0976 18.3155 19.1399 17.9911L19.8576 12.5188C19.8908 12.2641 19.7716 12.0134 19.5521 11.8793H19.5528ZM17.9234 17.2559H12.0355L11.5823 13.7965L12.8535 14.6685C12.9987 14.7682 13.1778 14.8046 13.351 14.7695C13.5243 14.7343 13.6747 14.6314 13.7698 14.4829L14.9798 12.5995L16.1898 14.4829C16.2849 14.6314 16.436 14.7343 16.6085 14.7695C16.7811 14.804 16.9602 14.7675 17.1061 14.6685L18.3773 13.7965L17.924 17.2552L17.9234 17.2559Z" fill="#828282"/>
<path d="M15 0C6.71558 0 0 6.71557 0 15C0 23.2844 6.71558 30 15 30C23.2844 30 30 23.2844 30 15C30 6.71557 23.2844 0 15 0ZM27.6217 9.66895C28.226 11.0978 28.577 12.6028 28.6708 14.1534H26.0515C25.8562 11.6474 24.8272 9.37589 23.2421 7.61429L25.104 5.75239C26.1642 6.90899 27.0102 8.2232 27.6217 9.66895ZM21.9175 21.9448C20.0699 23.7924 17.6128 24.8103 14.9993 24.8103C12.3859 24.8103 9.92945 23.7924 8.08123 21.9448C6.23367 20.0972 5.21578 17.6401 5.21578 15.0267C5.21578 12.4133 6.23367 9.9568 8.08123 8.10858C9.9288 6.26102 12.3859 5.24313 14.9993 5.24313C17.6128 5.24313 20.0692 6.26102 21.9175 8.10858C23.765 9.95615 24.7829 12.4133 24.7829 15.0267C24.7829 17.6401 23.765 20.0966 21.9175 21.9448ZM24.1799 4.83415L22.3154 6.69864C20.5153 5.11613 18.1989 4.10801 15.6506 3.96083V1.31811C17.2702 1.393 18.8417 1.74858 20.331 2.37833C21.7481 2.97812 23.0402 3.80259 24.1799 4.83415ZM14.3481 1.31811V3.96083C11.8252 4.10671 9.52894 5.09594 7.73673 6.65175L5.87223 4.78726C6.99887 3.77784 8.2727 2.969 9.66765 2.37898C11.157 1.74923 12.7285 1.39365 14.3481 1.31876V1.31811ZM4.94356 5.7003L6.8048 7.56153C5.15131 9.37589 4.09239 11.7412 3.93479 14.3494H1.31746C1.39235 12.7298 1.74793 11.1583 2.37768 9.66895C2.99831 8.20171 3.86055 6.86928 4.94356 5.7003ZM2.37768 20.3317C1.74793 18.843 1.39235 17.2715 1.31746 15.6519H3.93153C4.0735 18.2099 5.08358 20.5368 6.6713 22.3427L4.8335 24.1805C3.80194 23.0408 2.97747 21.7488 2.37768 20.3317ZM5.75175 25.1046L7.58694 23.2694C9.39218 24.8936 11.7334 25.9337 14.3136 26.0913V28.6819C12.7063 28.6031 11.1466 28.2482 9.6683 27.623C8.2232 27.0115 6.90835 26.1655 5.75175 25.1053V25.1046ZM15.6161 28.6838V26.0952C18.2288 25.9519 20.6007 24.904 22.4235 23.259L24.2587 25.0942C23.0995 26.159 21.7814 27.0089 20.331 27.6217C18.8312 28.256 17.2481 28.6116 15.6161 28.6832V28.6838ZM25.1756 24.1694L23.3378 22.3316C24.9601 20.4808 25.976 18.0862 26.0763 15.4559H28.6891C28.6344 17.1445 28.2768 18.783 27.6217 20.3317C27.0245 21.7442 26.2026 23.0324 25.1756 24.1694Z" fill="#828282"/>
</g>
<defs>
<clipPath id="clip0_695_20702">
<rect width="30" height="30" fill="white"/>
</clipPath>
</defs>
</svg>
