<svg width="30" height="30" viewBox="0 0 30 30" fill="none" xmlns="http://www.w3.org/2000/svg">
<path d="M4.20349 29.9994H15.2035C17.1354 29.9971 18.7016 28.4314 18.7034 26.4995V21.6086C20.8925 20.1215 22.2033 17.6464 22.2033 14.9997C22.2033 12.353 20.8925 9.87793 18.7034 8.39079V3.49987C18.701 1.568 17.1354 0.0023438 15.2035 0H4.20349C2.27161 0.0023438 0.705371 1.568 0.703613 3.49987V26.5001C0.705957 28.432 2.27161 29.9982 4.20349 30V29.9994ZM21.2036 14.9991C21.1995 18.8635 18.0676 21.9954 14.2033 21.9995C13.2382 22.0006 12.2831 21.7996 11.4001 21.41C11.0784 21.2711 10.7685 21.1065 10.4731 20.9178C9.7952 20.49 9.19636 19.948 8.70299 19.3164V10.6824C9.19577 10.0514 9.79403 9.50995 10.4708 9.08221C10.7685 8.89295 11.0802 8.72712 11.4042 8.58767C12.2861 8.1986 13.2388 7.9982 14.2027 7.99938C18.067 8.00348 21.1989 11.1354 21.203 14.9997L21.2036 14.9991ZM10.7034 7.81421C10.4397 7.94019 10.1837 8.08082 9.93582 8.2361C9.49461 8.51618 9.0821 8.83845 8.70357 9.19881V6.99857H10.7034V7.81421ZM8.70357 20.7988C9.0821 21.1586 9.49461 21.4803 9.93582 21.7598C10.1837 21.9157 10.4397 22.0569 10.704 22.1834V22.9991H8.70416V20.7988H8.70357ZM14.4652 0.998458L14.1154 1.86976C13.9648 2.25004 13.5974 2.49907 13.1884 2.49849H6.21915C5.80957 2.49966 5.4416 2.25063 5.29042 1.86976L4.94178 0.998458H14.4646H14.4652ZM1.70324 3.4987C1.70734 2.2477 2.63725 1.19241 3.8777 1.03186L4.36169 2.24184C4.66346 3.00299 5.39999 3.50163 6.21856 3.4987H13.1878C14.0064 3.50163 14.7429 3.0024 15.0447 2.24184L15.5287 1.03186C16.7697 1.19299 17.6996 2.2477 17.7032 3.4987V7.81656C15.8357 6.89428 13.6795 6.74603 11.703 7.40464V6.99916C11.703 6.44661 11.2554 5.99895 10.7028 5.99895H8.70299C8.15044 5.99895 7.70277 6.44661 7.70277 6.99916V22.9997C7.70277 23.5522 8.15044 23.9999 8.70299 23.9999H10.7028C11.2554 23.9999 11.703 23.5522 11.703 22.9997V22.5942C13.6795 23.2528 15.8357 23.1046 17.7032 22.1823V26.5001C17.7014 27.88 16.5834 28.9986 15.2029 29.0004H4.2029C2.82299 28.9986 1.70441 27.8806 1.70266 26.5001V3.49987L1.70324 3.4987Z" fill="#828282"/>
<path fill-rule="evenodd" clip-rule="evenodd" d="M4.20343 27.4999H15.2034C15.4794 27.4999 15.7033 27.276 15.7033 27.0001C15.7033 26.7241 15.4794 26.5002 15.2034 26.5002H4.20343C3.92745 26.5002 3.70361 26.7241 3.70361 27.0001C3.70361 27.276 3.92745 27.4999 4.20343 27.4999Z" fill="#828282"/>
<path d="M13.7037 9.49932V10.0308C12.0103 10.2224 10.7036 11.3667 10.7036 12.7496C10.7036 14.1324 12.0103 15.2768 13.7037 15.4684V18.963C12.5781 18.7954 11.7038 18.0788 11.7038 17.2497C11.7038 16.9737 11.48 16.7499 11.204 16.7499C10.928 16.7499 10.7042 16.9737 10.7042 17.2497C10.7042 18.6319 12.0109 19.7769 13.7043 19.9685V20.4999C13.7043 20.7759 13.9281 20.9997 14.2041 20.9997C14.4801 20.9997 14.7039 20.7759 14.7039 20.4999V19.9685C16.3973 19.7769 17.7039 18.6325 17.7039 17.2497C17.7039 15.8668 16.3973 14.7225 14.7039 14.5309V11.0363C15.8295 11.2038 16.7037 11.9205 16.7037 12.7496C16.7037 13.0256 16.9276 13.2494 17.2035 13.2494C17.4795 13.2494 17.7034 13.0256 17.7034 12.7496C17.7034 11.3673 16.3967 10.2224 14.7033 10.0308V9.49932C14.7033 9.22334 14.4795 8.99951 14.2035 8.99951C13.9275 8.99951 13.7037 9.22334 13.7037 9.49932ZM11.7038 12.7496C11.7038 11.9205 12.5781 11.2038 13.7037 11.0363V14.4623C12.5781 14.2947 11.7038 13.5781 11.7038 12.749V12.7496ZM16.7037 17.2497C16.7037 18.0788 15.8295 18.7954 14.7039 18.963V15.5369C15.8295 15.7045 16.7037 16.4211 16.7037 17.2503V17.2497Z" fill="#828282"/>
<path fill-rule="evenodd" clip-rule="evenodd" d="M23.2034 14.9998C23.2034 15.2758 23.4272 15.4996 23.7032 15.4996H28.7031C28.9791 15.4996 29.2029 15.2758 29.2029 14.9998C29.2029 14.7238 28.9791 14.5 28.7031 14.5H23.7032C23.4272 14.5 23.2034 14.7238 23.2034 14.9998Z" fill="#828282"/>
<path fill-rule="evenodd" clip-rule="evenodd" d="M23.2032 12.9994H27.2035C27.4794 12.9994 27.7033 12.7756 27.7033 12.4996C27.7033 12.2236 27.4794 11.9998 27.2035 11.9998H23.2032C22.9272 11.9998 22.7034 12.2236 22.7034 12.4996C22.7034 12.7756 22.9272 12.9994 23.2032 12.9994Z" fill="#828282"/>
<path fill-rule="evenodd" clip-rule="evenodd" d="M23.2029 17.9999H27.2032C27.4792 17.9999 27.703 17.776 27.703 17.5001C27.703 17.2241 27.4792 17.0002 27.2032 17.0002H23.2029C22.927 17.0002 22.7031 17.2241 22.7031 17.5001C22.7031 17.776 22.927 17.9999 23.2029 17.9999Z" fill="#828282"/>
</svg>
