<svg width="30" height="30" viewBox="0 0 30 30" fill="none" xmlns="http://www.w3.org/2000/svg">
<path d="M4.60722 15.4685C4.60722 15.1451 4.34472 14.8826 4.02129 14.8826H0.585938C0.2625 14.8826 0 15.1451 0 15.4685C0 15.7919 0.2625 16.0544 0.585938 16.0544H4.02129C4.34472 16.0544 4.60722 15.7919 4.60722 15.4685Z" fill="white"/>
<path d="M5.76807 14.8826H5.75928C5.43584 14.8826 5.17334 15.1451 5.17334 15.4685C5.17334 15.7919 5.43584 16.0544 5.75928 16.0544H5.76807C6.09151 16.0544 6.35401 15.7919 6.35401 15.4685C6.35401 15.1451 6.09151 14.8826 5.76807 14.8826Z" fill="white"/>
<path d="M0.586426 9.9021H2.46142C2.78486 9.9021 3.04736 9.6396 3.04736 9.31616C3.04736 8.99272 2.78486 8.73022 2.46142 8.73022H0.586426C0.262988 8.73022 0.000488281 8.99272 0.000488281 9.31616C0.000488281 9.6396 0.262988 9.9021 0.586426 9.9021Z" fill="white"/>
<path d="M4.37573 9.9021H6.59233C6.91577 9.9021 7.17827 9.6396 7.17827 9.31616C7.17827 8.99272 6.91577 8.73022 6.59233 8.73022H4.37573C4.05229 8.73022 3.78979 8.99272 3.78979 9.31616C3.78979 9.6396 4.05229 9.9021 4.37573 9.9021Z" fill="white"/>
<path d="M4.00073 18.6912C4.00073 19.0146 4.26323 19.2771 4.58667 19.2771H7.86792C8.19136 19.2771 8.45386 19.0146 8.45386 18.6912C8.45386 18.3677 8.19136 18.1052 7.86792 18.1052H4.58667C4.26323 18.1052 4.00073 18.3677 4.00073 18.6912Z" fill="white"/>
<path d="M10.4297 21.8552H2.16797C1.84453 21.8552 1.58203 22.1177 1.58203 22.4412C1.58203 22.7646 1.84453 23.0271 2.16797 23.0271H10.4297C10.7531 23.0271 11.0156 22.7646 11.0156 22.4412C11.0156 22.1177 10.7531 21.8552 10.4297 21.8552Z" fill="white"/>
<path d="M29.8284 16.9626L24.7559 11.8901C24.7442 11.8761 24.7319 11.862 24.7184 11.8485L15.7325 2.8667C15.5034 2.63818 15.1325 2.63818 14.904 2.8667L5.56294 12.2077C5.33384 12.4368 5.33384 12.8077 5.56294 13.0362L19.6588 27.1321C19.769 27.2423 19.9178 27.3038 20.0731 27.3038C20.2284 27.3038 20.3778 27.2423 20.4874 27.1321L29.8284 17.7911C29.9385 17.681 30 17.5321 30 17.3769C30 17.2216 29.9385 17.0722 29.8284 16.9626ZM28.1731 17.8415H20.659V25.3556L20.2366 25.778C20.1721 25.8425 20.0678 25.8431 20.0028 25.7792L19.5147 25.2987L19.4877 25.2718V17.8415H17.5764C16.0735 17.8415 14.8547 16.6228 14.8547 15.1198V13.2085H7.23462L7.11391 13.0901L6.869 12.8487C6.80337 12.7843 6.80278 12.6782 6.86782 12.6132L7.4438 12.0372H14.8541V4.62685L14.911 4.57002L15.2579 4.22314C15.3229 4.1581 15.4278 4.1581 15.4928 4.22314L16.026 4.75576V15.1204C16.026 15.9765 16.7198 16.6702 17.5758 16.6702H27.9399L28.5252 17.2556C28.5903 17.3206 28.5903 17.4255 28.5252 17.4905L28.1737 17.8421L28.1731 17.8415Z" fill="white"/>
</svg>
