<svg width="30" height="30" viewBox="0 0 30 30" fill="none" xmlns="http://www.w3.org/2000/svg">
<path d="M29.8935 23.7189C29.8759 23.4542 29.8524 23.1954 29.8347 22.9308C29.7641 21.831 29.6877 20.7253 29.6112 19.6256L29.5465 18.6846C29.4524 17.3084 29.3524 15.9322 29.2583 14.556C29.2406 14.2737 29.223 13.9914 29.2053 13.7091C29.1641 13.0092 29.123 12.2917 29.023 11.586C28.77 9.73338 27.723 8.38659 25.9877 7.68084C24.2525 6.98098 22.5996 7.228 21.0761 8.42188C20.3349 8.99824 19.6173 9.62165 18.9232 10.2156C18.6702 10.4333 18.4349 10.5215 18.1349 10.5097C17.6232 10.4921 17.0997 10.4921 16.5938 10.4979C16.3879 10.4979 16.182 10.4979 15.9762 10.4979C15.8938 10.4979 15.8173 10.4979 15.735 10.4921H15.6997C15.6997 10.245 15.6938 10.0039 15.6879 9.76279C15.6762 9.16879 15.6644 8.6042 15.7115 8.03372C15.7997 7.07508 16.5703 6.39286 17.5938 6.37522C17.8173 6.37522 18.0349 6.37522 18.2585 6.37522C18.5055 6.37522 18.7526 6.37522 18.9996 6.37522C20.3761 6.35169 21.5819 5.46364 21.9996 4.15801C22.429 2.81122 21.9466 1.38208 20.7996 0.605763C20.5114 0.411683 20.182 0.288184 19.8584 0.17056C19.7114 0.117629 19.5643 0.0646932 19.4232 0H14.8232L14.8056 0.00588694C14.3762 0.299947 14.2585 0.617529 14.4527 0.958638C14.6232 1.25858 14.9115 1.29386 15.1174 1.29386H15.1232C16.2585 1.29386 17.5938 1.28798 18.9173 1.29386C19.9526 1.29974 20.7408 2.02902 20.8349 3.06411C20.9231 4.0051 20.2055 4.88728 19.2349 5.02255C18.8408 5.08136 18.4349 5.07548 18.0349 5.0696C17.8585 5.0696 17.6761 5.0696 17.4997 5.0696C16.7056 5.08724 16.0056 5.36366 15.4174 5.89296C14.6644 6.57518 14.3174 7.45736 14.3585 8.58655C14.3762 9.02764 14.3703 9.46873 14.3644 9.92747C14.3644 10.1098 14.3644 10.298 14.3644 10.4862H13.7997C13.0115 10.4862 12.2704 10.4862 11.5174 10.4803C11.4586 10.4803 11.3704 10.4097 11.3115 10.3627C11.0057 10.1098 10.7057 9.85689 10.4057 9.604C9.92334 9.20408 9.42923 8.78652 8.93512 8.38659C7.91161 7.55735 6.6234 7.18682 5.2999 7.33973C3.97051 7.49264 2.79406 8.15723 1.98231 9.20408C1.32939 10.0451 0.994099 11.0331 0.91763 12.2976C0.841161 13.6679 0.73528 15.0618 0.635282 16.4086C0.582342 17.1319 0.529402 17.8553 0.476461 18.5787C0.411757 19.5373 0.347052 20.496 0.282348 21.4487C0.223525 22.3133 0.164703 23.1778 0.10588 24.0423C0.0882335 24.2776 0.0647046 24.5128 0.0352934 24.7422C0.0235289 24.854 0.0117645 24.9657 0 25.0774V26.3066V26.3243C0.00588224 26.3478 0.0117645 26.3654 0.0235289 26.3889C0.0411757 26.4301 0.0529401 26.4713 0.0588223 26.5066C0.39411 28.4826 2.1529 29.9765 4.15874 29.9882H4.18815C5.58225 29.9882 6.71164 29.4295 7.64103 28.2886C8.39396 27.3593 9.1763 26.4183 9.92922 25.5126L10.3527 25.001C10.8586 24.3893 11.5057 24.0659 12.2704 24.0306C12.5351 24.0188 12.7468 23.9365 12.8821 23.7894C12.9939 23.6659 13.0409 23.5072 13.035 23.319C13.0115 22.9249 12.6939 22.6897 12.2115 22.7191C11.0468 22.7779 10.0704 23.2837 9.29982 24.2129L8.84101 24.7657C8.07043 25.7067 7.27045 26.6771 6.47635 27.6299C5.63519 28.6356 4.26462 28.959 3.06465 28.4415C1.89996 27.9357 1.18233 26.6948 1.3235 25.4185C1.3588 25.1127 1.37644 24.7951 1.39409 24.4952C1.39997 24.3658 1.41174 24.2364 1.41762 24.1129L1.50585 22.8308C1.55879 22.0251 1.61762 21.2252 1.67056 20.4195C1.77055 19.008 1.87055 17.5907 1.97055 16.1792L1.99996 15.7675C2.02937 15.3735 2.0529 14.9794 2.07643 14.5854C2.13525 13.6797 2.19408 12.7387 2.28819 11.8212C2.42937 10.4685 3.17641 9.46873 4.45286 8.92178C5.70577 8.38659 6.94104 8.5395 8.01749 9.35699C8.5469 9.75691 9.06453 10.1921 9.56452 10.6156C9.92922 10.9214 10.2998 11.239 10.6763 11.5389C10.8586 11.6859 11.1233 11.78 11.341 11.78C13.7703 11.7977 16.235 11.7977 18.6643 11.78C18.882 11.78 19.1467 11.6801 19.329 11.533C19.8937 11.0802 20.4643 10.6038 21.0114 10.1451C21.2643 9.93334 21.5231 9.71574 21.7819 9.50402C22.7701 8.68653 24.0642 8.42188 25.2466 8.79239C26.4171 9.15702 27.2759 10.0627 27.6112 11.2684C27.7406 11.7448 27.7759 12.2623 27.8053 12.7563C27.8171 12.8975 27.823 13.0445 27.8348 13.1856C27.8995 14.0031 27.9524 14.8383 28.0053 15.644C28.0348 16.0733 28.0642 16.5026 28.0936 16.932C28.1524 17.7789 28.2112 18.6199 28.27 19.4668C28.3171 20.1725 28.37 20.8783 28.4171 21.584C28.4465 21.9839 28.47 22.3897 28.4936 22.7896C28.5465 23.6365 28.5994 24.507 28.6818 25.3656C28.8053 26.7065 28.1053 27.9416 26.9407 28.4474C25.7348 28.9708 24.3466 28.6238 23.4937 27.5887L22.4878 26.3713C21.8878 25.642 21.2878 24.9186 20.6878 24.1953C19.9055 23.2484 18.8996 22.7544 17.7055 22.725C17.6997 22.725 17.6879 22.725 17.682 22.725C17.282 22.725 16.9997 22.9661 16.982 23.3366C16.9703 23.5248 17.035 23.7012 17.1526 23.8306C17.2703 23.96 17.4408 24.0306 17.6291 24.0306C18.4996 24.0482 19.2055 24.4246 19.8526 25.2303C20.8408 26.4654 21.7408 27.5534 22.6054 28.5591C23.4054 29.4942 24.576 30 25.7701 30C26.2701 30 26.7818 29.9118 27.2701 29.7236C28.9289 29.0943 30.0288 27.5064 29.9994 25.7714C29.9877 25.0833 29.9347 24.3834 29.8877 23.7071L29.8935 23.7189Z" fill="#828282"/>
<path d="M6.5941 19.7256C6.67057 20.6137 7.41173 21.3371 8.27642 21.3724C8.30583 21.3724 8.33524 21.3724 8.36465 21.3724C9.28228 21.3724 10.0176 20.7784 10.1705 19.8962C10.2176 19.6433 10.2234 19.3845 10.2352 19.114C10.2352 19.014 10.2411 18.9081 10.247 18.8023H10.4528C10.647 18.8023 10.8411 18.8023 11.0293 18.8023C11.9764 18.7788 12.7822 17.9554 12.7881 16.9968C12.794 16.0087 12.0058 15.1912 11.0234 15.1736C10.9234 15.1736 10.8234 15.1736 10.7234 15.1736C10.5587 15.1736 10.394 15.1736 10.2176 15.1736C10.2176 15.0971 10.2176 15.0266 10.2176 14.956C10.2176 14.7619 10.2176 14.5796 10.2176 14.3973C10.1881 13.421 9.43522 12.6388 8.51171 12.6094C8.48818 12.6094 8.46465 12.6094 8.44112 12.6094C7.42938 12.6094 6.67057 13.2857 6.58822 14.2796C6.57057 14.4914 6.57645 14.7031 6.58234 14.9266C6.58234 15.0089 6.58234 15.0912 6.58234 15.1795H6.35881C6.15881 15.1795 5.97646 15.1795 5.78823 15.1795C4.77649 15.1971 3.99415 15.9969 4.00003 17.0026C4.0118 18.0024 4.8059 18.7964 5.81176 18.8082C5.98823 18.8082 6.1647 18.8082 6.35881 18.8082H6.57645C6.57645 18.8964 6.57645 18.9787 6.57645 19.0611C6.57645 19.2904 6.56469 19.508 6.58822 19.7256H6.5941ZM7.88819 15.7617C7.88819 15.5206 7.88819 15.2736 7.88819 15.0324C7.88819 14.8501 7.88819 14.6619 7.88819 14.4796C7.88819 14.1385 8.09407 13.9091 8.39407 13.9091C8.68229 13.9091 8.88817 14.1326 8.89406 14.4619C8.89994 14.709 8.89994 14.9619 8.89406 15.2089C8.89406 15.3559 8.89406 15.5088 8.89406 15.6558C8.89406 16.244 9.12935 16.4792 9.71169 16.4792H10.0999C10.3587 16.4792 10.6176 16.4792 10.8764 16.4792C11.2234 16.4792 11.4469 16.6792 11.4469 16.985C11.4469 17.3026 11.2411 17.5025 10.894 17.5084C10.6352 17.5143 10.3646 17.5084 10.1117 17.5084C9.95286 17.5084 9.79992 17.5084 9.6411 17.5084C9.13523 17.5084 8.89994 17.7378 8.88817 18.2436C8.88817 18.4729 8.88817 18.7023 8.88817 18.9317C8.88817 19.1375 8.88817 19.3492 8.88817 19.5551C8.88817 19.7903 8.77641 19.9432 8.55289 20.0256C8.34701 20.102 8.17054 20.0609 8.04113 19.9079C7.9529 19.808 7.89408 19.6492 7.88819 19.5021C7.87055 19.2316 7.87643 18.9552 7.87643 18.6847C7.87643 18.567 7.87643 18.4553 7.87643 18.3435C7.87643 17.7201 7.65879 17.5025 7.04703 17.5025H6.99409C6.88821 17.5025 6.77645 17.5025 6.67057 17.5025C6.41763 17.5025 6.1647 17.5025 5.91176 17.5025C5.70588 17.5025 5.54118 17.4378 5.4353 17.3261C5.34707 17.232 5.30589 17.1085 5.30589 16.9615C5.31765 16.6498 5.54118 16.4674 5.91764 16.4674C6.05293 16.4674 6.18823 16.4674 6.32352 16.4674H6.74704C6.88233 16.4674 7.01174 16.4674 7.14703 16.4674C7.59996 16.4616 7.86466 16.2028 7.87055 15.7558L7.88819 15.7617Z" fill="#828282"/>
<path d="M23.8114 16.7496H23.8173C24.8879 16.7496 25.7937 15.838 25.7996 14.7676C25.7996 14.2442 25.5996 13.7502 25.229 13.3679C24.8526 12.9915 24.3585 12.7798 23.8349 12.7798H23.8232C22.7114 12.7798 21.835 13.6267 21.8291 14.7147C21.8291 15.2675 22.035 15.7792 22.4173 16.1674C22.7879 16.5379 23.282 16.7437 23.8055 16.7437L23.8114 16.7496ZM23.135 14.75C23.1408 14.403 23.4526 14.0913 23.7997 14.0795H23.8114C23.982 14.0795 24.1408 14.1442 24.2643 14.2677C24.3938 14.3971 24.4702 14.5736 24.4702 14.75C24.4702 14.9382 24.4055 15.1087 24.282 15.2323C24.1585 15.3558 23.9938 15.4204 23.8055 15.4204C23.6232 15.4204 23.4467 15.344 23.3173 15.2146C23.1938 15.0852 23.1232 14.9205 23.1291 14.75H23.135Z" fill="#828282"/>
<path d="M20.0584 16.532H20.0408C19.529 16.532 19.0232 16.7437 18.6467 17.1201C18.2702 17.4965 18.0526 18.014 18.0585 18.5316C18.0643 19.6373 18.9467 20.5018 20.0584 20.5018H20.0643C21.1643 20.5018 22.0231 19.6255 22.0172 18.5198C22.0172 17.4318 21.1349 16.5438 20.0525 16.5379L20.0584 16.532ZM19.3879 18.5081C19.3879 18.3257 19.4584 18.1611 19.582 18.0376C19.7055 17.9199 19.8702 17.8553 20.0584 17.8553H20.0761C20.4349 17.8611 20.729 18.1611 20.729 18.5198C20.729 18.6963 20.6525 18.8668 20.5231 19.0021C20.3937 19.1315 20.2231 19.2021 20.0584 19.2021C19.882 19.2021 19.7173 19.1256 19.5878 18.9962C19.4643 18.8668 19.3937 18.6963 19.3996 18.5139L19.3879 18.5081Z" fill="#828282"/>
<path d="M14.9998 22.7426C14.6469 22.7426 14.3645 23.0249 14.3645 23.3777C14.3645 23.5542 14.4292 23.7247 14.5527 23.8482C14.6763 23.9717 14.8351 24.0423 15.0057 24.0482H15.0115C15.1763 24.0482 15.3351 23.9835 15.4586 23.86C15.588 23.7365 15.6586 23.5659 15.6586 23.3895C15.6586 23.2131 15.588 23.0484 15.4704 22.9249C15.3468 22.8014 15.1821 22.7367 15.0057 22.7426H14.9998Z" fill="#828282"/>
</svg>
