<svg width="30" height="30" viewBox="0 0 30 30" fill="none" xmlns="http://www.w3.org/2000/svg">
<path d="M27.4637 27.9997V19.9989C27.4637 18.8944 26.5684 17.9985 25.4633 17.9985H22.2976C24.2323 16.1248 25.3632 13.5725 25.4516 10.8802C25.4634 10.7507 25.4633 10.627 25.4633 10.4975C25.4587 6.08261 22.6972 2.14052 18.55 0.627084C16.2321 -0.209028 13.6951 -0.209028 11.3772 0.627084C7.22884 2.13935 4.4668 6.08203 4.46152 10.4975C4.46152 10.627 4.46152 10.7518 4.47207 10.8538C4.55351 13.5555 5.68552 16.1183 7.62727 17.9985H4.46152C3.35706 17.9985 2.46118 18.8938 2.46118 19.9989V27.9997C2.46118 29.1041 3.35647 30 4.46152 30H25.4633C26.5678 30 27.4637 29.1047 27.4637 27.9997ZM18.9332 17.9985L19.4371 16.4986H22.321C21.8675 17.0552 21.3525 17.5585 20.7848 17.9985H18.9332ZM12.0469 17.9985L11.4018 16.0796L12.8707 13.9984H17.0548L18.5237 16.0796L17.8786 17.9985H12.0469ZM14.9624 7.10857L18.1745 9.3673L16.9528 12.9983H12.9715L11.7498 9.3673L14.9619 7.10857H14.9624ZM23.0335 15.4984H19.3369L17.868 13.416L19.1594 9.57706L21.5183 8.88274L24.4368 11.0747C24.3454 12.6432 23.8626 14.1637 23.0329 15.4978L23.0335 15.4984ZM23.0224 5.48146C23.845 6.78982 24.3308 8.28158 24.4356 9.82373L22.1998 8.14389L23.023 5.48146H23.0224ZM22.29 4.46371L21.2195 7.92827L18.8565 8.62376L15.4628 6.2373V3.7565L18.444 1.66124C19.9451 2.25009 21.2693 3.21452 22.2906 4.46312L22.29 4.46371ZM17.2464 1.28097L14.9624 2.88582L12.6785 1.28039C14.1791 0.913601 15.7464 0.913601 17.247 1.28039L17.2464 1.28097ZM11.4809 1.66182L14.4621 3.75709V6.23788L11.0684 8.62435L8.70536 7.92886L7.63488 4.46371C8.65556 3.21569 9.98033 2.25126 11.4815 1.66241L11.4809 1.66182ZM7.72511 8.14389L5.48923 9.82373C5.59411 8.28158 6.07925 6.78924 6.90247 5.48087L7.7257 8.14389H7.72511ZM5.48806 11.0747L8.40654 8.88274L10.7655 9.57706L12.0568 13.416L10.5879 15.4984H6.89135C6.06285 14.1637 5.58064 12.6432 5.48806 11.0753V11.0747ZM7.60383 16.498H10.4877L10.9916 17.9979H9.14129C8.57353 17.5579 8.05733 17.0546 7.60383 16.498ZM3.46135 27.9991V19.9983C3.46135 19.4458 3.909 18.9981 4.46152 18.9981H25.4633C26.0159 18.9981 26.4635 19.4458 26.4635 19.9983V27.9991C26.4635 28.5516 26.0159 28.9992 25.4633 28.9992H4.46152C3.909 28.9992 3.46135 28.5516 3.46135 27.9991Z" fill="#828282"/>
<path fill-rule="evenodd" clip-rule="evenodd" d="M11.4624 20.999C11.1865 20.999 10.9626 21.2228 10.9626 21.4988V26.4991C10.9626 26.7751 11.1865 26.9989 11.4624 26.9989C11.7384 26.9989 11.9622 26.7751 11.9622 26.4991V21.4988C11.9622 21.2228 11.7384 20.999 11.4624 20.999Z" fill="#828282"/>
<path fill-rule="evenodd" clip-rule="evenodd" d="M18.1488 21.0347C18.0258 20.9855 17.8881 20.9873 17.7662 21.0394C17.6443 21.0916 17.5483 21.19 17.499 21.3136L15.9627 25.1538L14.427 21.3136C14.3245 21.057 14.0333 20.9322 13.7767 21.0353C13.52 21.1384 13.3952 21.4291 13.4984 21.6857L15.4987 26.686C15.5743 26.8764 15.7583 27.0012 15.9633 27.0012C16.1684 27.0012 16.3524 26.8764 16.428 26.686L18.4283 21.6857C18.4775 21.5626 18.4764 21.425 18.4236 21.3025C18.3709 21.18 18.273 21.0839 18.1494 21.0347H18.1488Z" fill="#828282"/>
<path fill-rule="evenodd" clip-rule="evenodd" d="M23.4632 21.9991C23.7392 21.9991 23.963 21.7753 23.963 21.4993C23.963 21.2233 23.7392 20.9995 23.4632 20.9995H20.4627C20.1867 20.9995 19.9629 21.2233 19.9629 21.4993V26.4996C19.9629 26.7755 20.1867 26.9994 20.4627 26.9994H23.4632C23.7392 26.9994 23.963 26.7755 23.963 26.4996C23.963 26.2236 23.7392 25.9998 23.4632 25.9998H20.9631V24.4998H23.4632C23.7392 24.4998 23.963 24.276 23.963 24C23.963 23.7241 23.7392 23.5002 23.4632 23.5002H20.9631V22.0003H23.4632V21.9991Z" fill="#828282"/>
<path fill-rule="evenodd" clip-rule="evenodd" d="M9.46212 25.9998H6.96198V21.4993C6.96198 21.2233 6.73817 20.9995 6.4622 20.9995C6.18623 20.9995 5.9624 21.2233 5.9624 21.4993V26.4996C5.9624 26.7755 6.18623 26.9994 6.4622 26.9994H9.46271C9.73868 26.9994 9.9625 26.7755 9.9625 26.4996C9.9625 26.2236 9.73868 25.9998 9.46271 25.9998H9.46212Z" fill="#828282"/>
</svg>
