<svg width="30" height="30" viewBox="0 0 30 30" fill="none" xmlns="http://www.w3.org/2000/svg">
<path d="M7.6349 22.4996L9.20811 20.2702L7.8265 16.157L5.29823 15.4128L2.17407 17.7595C2.27427 19.4405 2.79281 21.0705 3.68283 22.4996H7.6349Z" fill="white"/>
<path d="M22.4994 20.4106C21.8631 20.5343 21.4277 20.8595 21.4277 21.1606C21.4277 21.4618 21.8625 21.7864 22.4994 21.9106V20.4106Z" fill="white"/>
<path d="M14.5627 20.8923H10.0798L8.50659 23.1218L9.80852 26.9936C10.6294 27.2074 11.4737 27.317 12.3216 27.3205C13.167 27.3205 14.0096 27.2156 14.8299 27.0088L16.1365 23.1218L14.5633 20.8923H14.5627Z" fill="white"/>
<path d="M18.2141 22.4996C18.2141 25.1626 20.3727 27.3211 23.0357 27.3211C25.6987 27.3211 27.8573 25.1626 27.8573 22.4996C27.8573 19.8365 25.6987 17.678 23.0357 17.678C20.3744 17.6809 18.2176 19.8377 18.2141 22.4996ZM20.3568 21.1601C20.3568 20.2379 21.2627 19.4914 22.4996 19.3221V19.2852C22.4996 18.9893 22.7392 18.7496 23.0351 18.7496C23.331 18.7496 23.5706 18.9893 23.5706 19.2852V19.3221C24.8075 19.4914 25.7134 20.2373 25.7134 21.1601C25.7134 21.456 25.4737 21.6957 25.1778 21.6957C24.8819 21.6957 24.6423 21.456 24.6423 21.1601C24.6423 20.8642 24.2075 20.5344 23.5706 20.4102V22.0004C24.8075 22.1697 25.7134 22.9156 25.7134 23.8384C25.7134 24.7612 24.8075 25.5071 23.5706 25.6765V25.7139C23.5706 26.0098 23.331 26.2495 23.0351 26.2495C22.7392 26.2495 22.4996 26.0098 22.4996 25.7139V25.677C21.2627 25.5077 20.3568 24.7618 20.3568 23.839C20.3568 23.5431 20.5965 23.3035 20.8924 23.3035C21.1883 23.3035 21.4279 23.5431 21.4279 23.839C21.4279 24.1349 21.8627 24.4648 22.4996 24.589V22.9988C21.2627 22.8294 20.3568 22.0836 20.3568 21.1607V21.1601Z" fill="white"/>
<path d="M1.6072 29.9994H28.3922C29.2799 29.9994 29.9994 29.2799 29.9994 28.3922V1.6072C29.9994 0.71952 29.2799 0 28.3922 0H1.6072C0.71952 0 0 0.71952 0 1.6072V28.3922C0 29.2799 0.71952 29.9994 1.6072 29.9994ZM6.42879 1.07166C6.72468 1.07166 6.96432 1.31131 6.96432 1.6072C6.96432 1.90309 6.72468 2.14274 6.42879 2.14274C6.13289 2.14274 5.89325 1.90309 5.89325 1.6072C5.89325 1.31131 6.13289 1.07166 6.42879 1.07166ZM4.28605 1.07166C4.58194 1.07166 4.82159 1.31131 4.82159 1.6072C4.82159 1.90309 4.58194 2.14274 4.28605 2.14274C3.99016 2.14274 3.75051 1.90309 3.75051 1.6072C3.75051 1.31131 3.99016 1.07166 4.28605 1.07166ZM2.14332 1.07166C2.43921 1.07166 2.67886 1.31131 2.67886 1.6072C2.67886 1.90309 2.43921 2.14274 2.14332 2.14274C1.84743 2.14274 1.60778 1.90309 1.60778 1.6072C1.60778 1.31131 1.84743 1.07166 2.14332 1.07166ZM1.60778 3.21439H28.3928C28.6887 3.21439 28.9283 3.45403 28.9283 3.74993C28.9283 4.04582 28.6887 4.28546 28.3928 4.28546H1.60778C1.31189 4.28546 1.07225 4.04582 1.07225 3.74993C1.07225 3.45403 1.31189 3.21439 1.60778 3.21439ZM12.322 5.89266C18.336 5.89032 23.2853 10.6246 23.5501 16.6327C26.1874 16.8559 28.353 18.81 28.844 21.4109C29.335 24.0118 28.0319 26.621 25.6577 27.7911C23.2835 28.9612 20.4201 28.4034 18.6577 26.4288C14.6663 29.1528 9.38127 29.0221 5.5288 26.1054C1.67634 23.1886 0.118359 18.1368 1.65759 13.5566C3.19681 8.97639 7.4899 5.89149 12.322 5.89325V5.89266Z" fill="white"/>
<path d="M17.1426 22.4995C17.1467 19.8605 18.9033 17.5455 21.4439 16.8313L19.324 15.2961L16.8215 16.144L15.4358 20.2689L17.0078 22.4995H17.1426Z" fill="white"/>
<path d="M22.4577 16.243C22.3083 14.5966 21.7599 13.0116 20.8599 11.6248L20.0349 14.487L22.4577 16.243Z" fill="white"/>
<path d="M8.88062 15.9295L10.1878 19.8206H14.4551L15.7623 15.9295L12.3218 13.512L8.88062 15.9295Z" fill="white"/>
<path d="M4.30908 23.4622C5.40066 24.7969 6.81157 25.8334 8.41174 26.4762L7.39809 23.4622H4.30908Z" fill="white"/>
<path d="M24.5136 23.73C24.5136 23.4294 24.0788 23.1042 23.4419 22.98V24.4799C24.0782 24.3557 24.5136 24.0305 24.5136 23.73Z" fill="white"/>
<path d="M16.986 23.4622L15.9683 26.4832C16.6421 26.2125 17.2843 25.8703 17.8843 25.4619C17.5069 24.8485 17.2462 24.1705 17.1155 23.4627H16.986V23.4622Z" fill="white"/>
<path d="M3.5593 11.667C2.68451 13.0668 2.16655 14.6593 2.05054 16.3058L4.43877 14.5122L3.55988 11.667H3.5593Z" fill="white"/>
<path d="M8.01882 15.026L11.6563 12.4696V9.81246L8.46647 7.57129C6.86104 8.20468 5.44192 9.23414 4.34155 10.5642L5.48997 14.2813L8.01824 15.026H8.01882Z" fill="white"/>
<path d="M12.7285 12.4698L16.3542 15.0186L18.8485 14.1737L19.9284 10.4337C18.852 9.16169 17.478 8.17616 15.9283 7.56445L12.7285 9.81265V12.4698Z" fill="white"/>
<path d="M14.6448 7.15523C13.0382 6.7527 11.3566 6.75504 9.75171 7.16343L12.1921 8.87844L14.6448 7.15523Z" fill="white"/>
</svg>
