<svg width="30" height="30" viewBox="0 0 30 30" fill="none" xmlns="http://www.w3.org/2000/svg">
<path d="M11.5908 12.5569C12.1557 12.5569 12.6136 12.0884 12.6136 11.5105C12.6136 10.9326 12.1557 10.4641 11.5908 10.4641C11.026 10.4641 10.5681 10.9326 10.5681 11.5105C10.5681 12.0884 11.026 12.5569 11.5908 12.5569Z" fill="white"/>
<path d="M18.4095 19.5325C18.9743 19.5325 19.4322 19.064 19.4322 18.4861C19.4322 17.9082 18.9743 17.4397 18.4095 17.4397C17.8446 17.4397 17.3867 17.9082 17.3867 18.4861C17.3867 19.064 17.8446 19.5325 18.4095 19.5325Z" fill="white"/>
<path d="M28.5324 17.0598C29.2202 16.5137 30 15.8944 30 14.999C30 14.1037 29.2202 13.4844 28.533 12.9383C28.1936 12.6688 27.6803 12.2607 27.633 12.0495C27.5806 11.814 27.8791 11.1999 28.076 10.7938C28.4557 10.0103 28.8871 9.12215 28.5177 8.33865C28.1425 7.54338 27.1862 7.33408 26.3412 7.149C25.9142 7.05548 25.2686 6.91422 25.1292 6.73568C24.988 6.55452 24.9963 5.87631 25.002 5.42701C25.0135 4.54672 25.025 3.54935 24.3545 3.0013C23.6865 2.45585 22.7411 2.68803 21.907 2.89339C21.4787 2.99869 20.8318 3.15826 20.6228 3.05558C20.4259 2.95814 20.1492 2.35055 19.9663 1.94834C19.6001 1.14391 19.1852 0.232225 18.3383 0.0353689C17.5169 -0.156255 16.7709 0.467669 16.1132 1.01834C15.7463 1.32507 15.2432 1.74626 15.001 1.74626C14.7587 1.74626 14.2556 1.32573 13.8887 1.01834C13.2316 0.467669 12.4844 -0.154947 11.6637 0.0353689C10.8161 0.232225 10.4018 1.14391 10.0356 1.94834C9.85277 2.35055 9.57599 2.95879 9.37911 3.05558C9.17073 3.15826 8.52385 2.99869 8.0943 2.89339C7.26014 2.68803 6.31475 2.45585 5.64678 3.0013C4.97625 3.54935 4.98839 4.54672 4.99926 5.42701C5.00501 5.87566 5.01268 6.55452 4.87078 6.73633C4.73143 6.91488 4.08646 7.05613 3.65947 7.149C2.81508 7.33408 1.85819 7.54338 1.48361 8.33865C1.11351 9.12215 1.54433 10.0103 1.92466 10.7938C2.12153 11.1999 2.41941 11.8147 2.36763 12.0501C2.32033 12.2614 1.80705 12.6695 1.46763 12.9389C0.77984 13.485 0 14.1044 0 14.9997C0 15.895 0.77984 16.515 1.46699 17.0605C1.80641 17.3306 2.31969 17.738 2.36699 17.9493C2.41941 18.1847 2.1209 18.7988 1.92403 19.205C1.54434 19.9885 1.11287 20.8766 1.48233 21.6595C1.85755 22.4547 2.8138 22.6647 3.65883 22.8491C4.08582 22.9426 4.73143 23.0839 4.87078 23.2624C5.01204 23.4436 5.00373 24.1218 4.99798 24.5711C4.98647 25.4514 4.97497 26.4487 5.6455 26.9968C6.31347 27.5422 7.25886 27.3101 8.09302 27.1047C8.52129 26.9994 9.16946 26.8385 9.37784 26.9432C9.57472 27.0406 9.85149 27.6482 10.0343 28.0504C10.4006 28.8542 10.8154 29.7659 11.663 29.9634C12.4844 30.1556 13.2303 29.5304 13.8881 28.9804C14.255 28.673 14.7581 28.2525 15.0003 28.2525C15.2426 28.2525 15.7456 28.673 16.1125 28.9804C16.7128 29.4827 17.3309 30 18.0225 30C18.126 30 18.2309 29.9882 18.337 29.964C19.1846 29.7672 19.5988 28.8555 19.9651 28.0511C20.1479 27.6488 20.4247 27.0406 20.6215 26.9438C20.8299 26.8405 21.4768 27.0001 21.9063 27.1054C22.7405 27.3101 23.6859 27.5429 24.3539 26.9974C25.0244 26.4494 25.0123 25.452 25.0014 24.5724C24.9956 24.1238 24.988 23.4449 25.1292 23.2631C25.2686 23.0845 25.9142 22.9433 26.3412 22.8497C27.1856 22.6653 28.1425 22.4554 28.517 21.6608C28.8871 20.8773 28.4563 19.9891 28.076 19.2056C27.8791 18.7995 27.5812 18.1854 27.633 17.9499C27.6803 17.738 28.1936 17.3306 28.533 17.0611L28.5324 17.0598ZM18.4092 20.9283C17.0937 20.9283 16.0231 19.8328 16.0231 18.4869C16.0231 17.1409 17.0937 16.0455 18.4092 16.0455C19.7247 16.0455 20.7954 17.1409 20.7954 18.4869C20.7954 19.8328 19.7247 20.9283 18.4092 20.9283ZM11.5908 9.06917C12.9063 9.06917 13.9769 10.1646 13.9769 11.5106C13.9769 12.8565 12.9063 13.952 11.5908 13.952C10.2753 13.952 9.20461 12.8565 9.20461 11.5106C9.20461 10.1646 10.2753 9.06917 11.5908 9.06917ZM9.74539 19.3887L19.2907 9.62246C19.5572 9.34974 19.9887 9.34974 20.2546 9.62246C20.5212 9.89518 20.5212 10.3366 20.2546 10.6087L10.7093 20.375C10.5757 20.5117 10.4018 20.5797 10.2273 20.5797C10.0528 20.5797 9.87834 20.5117 9.74539 20.375C9.47884 20.1023 9.47884 19.6608 9.74539 19.3887Z" fill="white"/>
<path d="M18.4095 19.5325C17.8457 19.5325 17.3867 19.0629 17.3867 18.4861C17.3867 17.9093 17.8457 17.4397 18.4095 17.4397C18.9732 17.4397 19.4322 17.9093 19.4322 18.4861C19.4322 19.0629 18.9732 19.5325 18.4095 19.5325Z" fill="white"/>
</svg>
