<svg width="30" height="30" viewBox="0 0 30 30" fill="none" xmlns="http://www.w3.org/2000/svg">
<path d="M5.26695 6.44301C5.41109 6.51742 5.58219 6.51742 5.72574 6.44301C7.70152 5.42113 7.99625 4.2645 7.99625 3.66567C8.02144 3.24497 7.8773 2.83129 7.59547 2.5184C7.31363 2.20551 6.91754 2.01802 6.49625 1.99927C6.13707 1.99985 5.78668 2.11411 5.49605 2.32505C5.20543 2.11353 4.85562 1.99985 4.49586 1.99927C4.07457 2.01802 3.67906 2.20492 3.39664 2.5184C3.1148 2.83188 2.97008 3.24497 2.99586 3.66567C2.99586 4.2645 3.29117 5.42113 5.26637 6.44301H5.26695ZM4.49644 2.99888C4.72672 3.00357 4.94176 3.11432 5.07887 3.29889C5.17086 3.436 5.32496 3.51861 5.49019 3.51979C5.65777 3.51569 5.81363 3.43424 5.91324 3.30006C6.05035 3.1149 6.26598 3.00357 6.49625 2.99888C6.82086 2.99888 6.99605 3.34225 6.99605 3.6651C6.99605 4.25162 6.45289 4.88734 5.49605 5.42992C4.53922 4.88676 3.99605 4.25162 3.99605 3.6651C3.99605 3.34225 4.17125 2.99888 4.49586 2.99888H4.49644Z" fill="#828282"/>
<path d="M5.78503 15.9522C6.03522 16.0688 6.33288 15.961 6.44948 15.7108L7.71511 12.9991H11.2782L12.5438 15.7108C12.6633 15.9563 12.9575 16.0612 13.2053 15.9452C13.4532 15.8292 13.5616 15.5368 13.4503 15.2878L9.95046 7.78779C9.86842 7.61201 9.69147 7.49951 9.49753 7.49951C9.30358 7.49951 9.12663 7.61201 9.0446 7.78779L5.54479 15.2878C5.42819 15.538 5.536 15.8356 5.7862 15.9522H5.78503ZM9.49635 9.18174L10.8112 11.9995H8.18093L9.49577 9.18174H9.49635Z" fill="#828282"/>
<path d="M3.49629 23.499C3.49805 24.8789 4.61602 25.9975 5.99648 25.9992H17.8512L18.3896 27.6809C18.4863 27.9937 18.7582 28.2205 19.0834 28.2586C19.4133 28.3014 19.7373 28.1443 19.9084 27.8584L21.348 25.4537L25.6195 29.7252C25.7953 29.901 26.0332 30 26.2816 30C26.5301 30 26.7686 29.901 26.9437 29.7252L28.7215 27.9498C28.8973 27.774 28.9963 27.5361 28.9963 27.2877C28.9963 27.0393 28.8973 26.8008 28.7215 26.6256L24.45 22.35L26.8605 20.9068C27.1406 20.7357 27.2953 20.417 27.2561 20.0912C27.2168 19.7654 26.9912 19.4924 26.6789 19.3922L20.4961 17.4146V5.00041C20.4943 3.62053 19.3764 2.50195 17.9959 2.50019C17.9941 1.12031 16.8756 0.00175781 15.4957 0H3.49629C2.11641 0.00175781 0.997852 1.11972 0.996094 2.50019V21C0.997852 22.3799 2.11582 23.4985 3.49629 23.5002V23.499ZM5.99648 24.999C5.16797 24.999 4.49648 24.3276 4.49648 23.499H15.4963C16.0008 23.4985 16.4936 23.3449 16.9096 23.0596L17.5307 24.999H5.99648ZM23.3871 21.8221C23.2553 21.9012 23.1668 22.0365 23.148 22.1895C23.1293 22.3424 23.1814 22.4953 23.2904 22.6043L27.9838 27.2713L26.284 28.9711L21.6041 24.2912C21.5104 24.1975 21.3832 24.1447 21.2508 24.1447C21.2303 24.1447 21.2098 24.1459 21.1898 24.1488C21.0369 24.1676 20.9016 24.2561 20.8225 24.3885L19.2369 27.0387L16.0371 17.035L26.0408 20.2348L23.3883 21.8221H23.3871ZM19.4965 4.99924V17.093L17.9965 16.6131V3.49923C18.825 3.49923 19.4965 4.17072 19.4965 4.99924ZM1.99629 2.49902C1.99629 1.6705 2.66777 0.999041 3.49629 0.999041H15.4963C16.3248 0.999041 16.9963 1.6705 16.9963 2.49902V16.2932L16.2187 16.043C15.8848 15.9363 15.5191 16.0254 15.2713 16.2732C15.0234 16.5211 14.9344 16.8867 15.041 17.2207L16.5779 22.0207C16.2979 22.3219 15.907 22.4947 15.4957 22.4994H3.49629C2.66777 22.4994 1.99629 21.8279 1.99629 20.9994V2.49962V2.49902Z" fill="#828282"/>
<path fill-rule="evenodd" clip-rule="evenodd" d="M3.49639 21.4991H4.99639C5.27236 21.4991 5.49619 21.2753 5.49619 20.9993C5.49619 20.7233 5.27236 20.4995 4.99639 20.4995H3.99619V19.4993C3.99619 19.2233 3.77236 18.9995 3.49639 18.9995C3.22041 18.9995 2.99658 19.2233 2.99658 19.4993V20.9993C2.99658 21.2753 3.22041 21.4991 3.49639 21.4991Z" fill="#828282"/>
</svg>
