<svg width="30" height="30" viewBox="0 0 30 30" fill="none" xmlns="http://www.w3.org/2000/svg">
<g clip-path="url(#clip0_695_20712)">
<path d="M23.3203 1.58203C22.4947 1.58203 21.7852 2.08653 21.4834 2.80372L19.118 4.3412C18.8467 4.51757 18.7693 4.88027 18.9463 5.15156C19.1227 5.42285 19.4853 5.49962 19.7566 5.32325L21.3281 4.30195V22.299L13.125 16.967V9.63398L15.3357 8.19726C15.607 8.02089 15.6844 7.65819 15.5074 7.3869C15.3311 7.11561 14.9678 7.03888 14.6971 7.21524L12.3656 8.73047H4.74609C3.85371 8.73047 3.10078 9.3381 2.8793 10.1619L0.373828 11.1363C0.148828 11.2236 0 11.441 0 11.6824V14.9197C0 15.1611 0.148242 15.3785 0.373828 15.4658L2.8793 16.4402C3.10078 17.2635 3.85371 17.8717 4.74609 17.8717H5.40703L8.52305 26.5682C8.91973 27.675 9.97617 28.4186 11.1516 28.4186C12.0592 28.4186 12.9123 27.9756 13.435 27.2338C13.957 26.492 14.0865 25.5387 13.7801 24.6844L11.3391 17.8717H12.365L21.4828 23.7984C21.7846 24.5156 22.4941 25.0201 23.3197 25.0201C24.4184 25.0201 25.3119 24.1266 25.3119 23.0279V3.57482C25.3119 2.47619 24.4184 1.58263 23.3197 1.58263L23.3203 1.58203ZM1.17187 12.0832L2.8125 11.4451V15.157L1.17187 14.5189V12.0832ZM3.98437 15.9375V10.6641C3.98437 10.2439 4.32598 9.90234 4.74609 9.90234H11.9531V16.6992H4.74609C4.32598 16.6992 3.98437 16.3576 3.98437 15.9375ZM12.6773 25.0787C12.8578 25.582 12.7846 26.1211 12.477 26.5582C12.1693 26.9953 11.6865 27.2461 11.1516 27.2461C10.4695 27.2461 9.85605 26.8148 9.62637 26.1721L8.66719 23.4961H9.43301C9.75645 23.4961 10.0189 23.2336 10.0189 22.9102C10.0189 22.5867 9.75645 22.3242 9.43301 22.3242H8.24707L7.65937 20.6836H8.41758C8.74102 20.6836 9.00352 20.4211 9.00352 20.0977C9.00352 19.7742 8.74102 19.5117 8.41758 19.5117H7.23926L6.65156 17.8711H10.0939L12.6768 25.0793L12.6773 25.0787ZM24.1406 23.0268C24.1406 23.4791 23.7727 23.8471 23.3203 23.8471C22.868 23.8471 22.5 23.4791 22.5 23.0268V3.57365C22.5 3.1213 22.868 2.75333 23.3203 2.75333C23.7727 2.75333 24.1406 3.1213 24.1406 3.57365V23.0268Z" fill="#828282"/>
<path d="M29.4141 14.7949C29.7375 14.7949 30 14.5324 30 14.209C30 13.8855 29.7375 13.623 29.4141 13.623H27.0703C26.7469 13.623 26.4844 13.8855 26.4844 14.209C26.4844 14.5324 26.7469 14.7949 27.0703 14.7949H29.4141Z" fill="#828282"/>
<path d="M27.3849 10.8089C27.4845 10.8089 27.5853 10.7836 27.6773 10.7303L29.7069 9.55845C29.987 9.39673 30.0831 9.03815 29.9214 8.75808C29.7597 8.478 29.4011 8.38189 29.121 8.54361L27.0913 9.71549C26.8112 9.87721 26.7151 10.2358 26.8769 10.5159C26.9853 10.704 27.1821 10.8089 27.3849 10.8089Z" fill="#828282"/>
<path d="M29.7069 18.859L27.6773 17.6872C27.3972 17.5254 27.0386 17.6216 26.8769 17.9016C26.7151 18.1817 26.8112 18.5403 27.0913 18.702L29.121 19.8739C29.2136 19.9272 29.3138 19.9524 29.4134 19.9524C29.6161 19.9524 29.813 19.8475 29.9214 19.6594C30.0831 19.3794 29.987 19.0208 29.7069 18.859Z" fill="#828282"/>
<path d="M17.2266 6.85547C17.3807 6.85547 17.5318 6.79276 17.6408 6.68378C17.7498 6.57479 17.8125 6.42363 17.8125 6.26953C17.8125 6.11543 17.7498 5.96427 17.6408 5.85528C17.5318 5.7463 17.3807 5.68359 17.2266 5.68359C17.0725 5.68359 16.9213 5.7463 16.8123 5.85528C16.7033 5.96427 16.6406 6.11543 16.6406 6.26953C16.6406 6.42363 16.7033 6.57479 16.8123 6.68378C16.9213 6.79276 17.0725 6.85547 17.2266 6.85547Z" fill="#828282"/>
</g>
<defs>
<clipPath id="clip0_695_20712">
<rect width="30" height="30" fill="white"/>
</clipPath>
</defs>
</svg>
