<svg width="30" height="30" viewBox="0 0 30 30" fill="none" xmlns="http://www.w3.org/2000/svg">
<path fill-rule="evenodd" clip-rule="evenodd" d="M4.80762 4.75146C5.83418 4.16904 6.41602 3.48758 6.41602 2.85887C6.41602 2.51258 6.22793 2.14404 5.87988 2.14404C5.63262 2.14873 5.40176 2.26766 5.25469 2.46571C5.14805 2.60985 4.98047 2.69714 4.80118 2.70183C4.62422 2.70066 4.45899 2.61221 4.35996 2.46514C4.21231 2.26767 3.98203 2.1493 3.73535 2.14462C3.38731 2.14462 3.19922 2.51318 3.19922 2.85947C3.19922 3.48818 3.78164 4.1702 4.80762 4.75204V4.75146Z" fill="white"/>
<path d="M2.66309 23.0561H15.532C15.9727 23.052 16.3916 22.8674 16.6922 22.5457L15.0439 17.3983C14.9297 17.0402 15.0246 16.6483 15.2906 16.3822C15.5566 16.1162 15.9486 16.0213 16.3066 16.1355L17.1404 16.4039V1.60841C17.1404 0.720129 16.4203 0 15.532 0H2.66309C1.77481 0 1.05469 0.720129 1.05469 1.60841V21.4483C1.05469 22.3365 1.77481 23.0566 2.66309 23.0566V23.0561ZM9.09785 6.96974C9.30586 6.96974 9.49571 7.09043 9.5836 7.2791L13.3371 15.3223C13.4215 15.4963 13.4057 15.7025 13.2955 15.8619C13.1854 16.0213 12.9979 16.1086 12.8051 16.091C12.6123 16.0734 12.4441 15.9527 12.365 15.7764L11.008 12.8684H7.18711L5.83008 15.7764C5.75098 15.9527 5.58281 16.0734 5.39004 16.091C5.19726 16.1086 5.00977 16.0213 4.89961 15.8619C4.78945 15.7025 4.77363 15.4969 4.85801 15.3223L8.61153 7.2791C8.7 7.09043 8.88926 6.96974 9.09727 6.96974H9.09785ZM3.73594 1.07168C4.12148 1.07227 4.49649 1.19474 4.80821 1.4215C5.11993 1.19474 5.49551 1.07285 5.88047 1.07168C6.33223 1.0916 6.75644 1.29258 7.05937 1.62832C7.36172 1.96406 7.517 2.40762 7.48946 2.85879C7.48946 3.50215 7.17305 4.7414 5.0543 5.83769C4.89961 5.91738 4.71621 5.91738 4.56211 5.83769C2.44336 4.7414 2.12696 3.50156 2.12696 2.85879C2.09942 2.40762 2.25469 1.96406 2.55703 1.62832C2.85938 1.29258 3.28418 1.0916 3.73535 1.07168H3.73594ZM2.12754 19.8393C2.12754 19.5434 2.36778 19.3031 2.66368 19.3031C2.95958 19.3031 3.1998 19.5434 3.1998 19.8393V20.9115H4.27207C4.56797 20.9115 4.80821 21.1518 4.80821 21.4477C4.80821 21.7436 4.56797 21.9838 4.27207 21.9838H2.66368C2.36778 21.9838 2.12754 21.7436 2.12754 21.4477V19.8393Z" fill="white"/>
<path fill-rule="evenodd" clip-rule="evenodd" d="M3.73545 24.1284C3.73545 25.0167 4.45557 25.7368 5.34385 25.7368H17.7136L17.0474 23.6567C16.6009 23.9632 16.073 24.1272 15.5315 24.1278H3.73486L3.73545 24.1284Z" fill="white"/>
<path fill-rule="evenodd" clip-rule="evenodd" d="M23.9943 22.3295L26.8361 20.6291L16.1082 17.1973L19.54 27.9252L21.2404 25.0834C21.3253 24.9416 21.4707 24.8467 21.6347 24.8268C21.6564 24.8238 21.6781 24.8227 21.7003 24.8227C21.8427 24.8227 21.9787 24.8795 22.0794 24.9797L27.0986 29.9988L28.9214 28.176L23.8906 23.1686C23.774 23.052 23.7177 22.8879 23.7382 22.7238C23.7587 22.5598 23.8531 22.4145 23.9949 22.3301L23.9943 22.3295Z" fill="white"/>
<path fill-rule="evenodd" clip-rule="evenodd" d="M9.09736 8.77393L7.68701 11.7956H10.5077L9.09736 8.77393Z" fill="white"/>
<path fill-rule="evenodd" clip-rule="evenodd" d="M19.8218 4.28856C19.8218 3.40028 19.1017 2.68018 18.2134 2.68018V16.7438L19.8218 17.2589V4.28916V4.28856Z" fill="white"/>
</svg>
