<svg width="30" height="31" viewBox="0 0 30 31" fill="none" xmlns="http://www.w3.org/2000/svg">
<path d="M11.7856 7.9124C12.8109 7.33057 13.3928 6.64973 13.3928 6.02161C13.3928 5.67533 13.2047 5.30737 12.8572 5.30737C12.6106 5.31206 12.3797 5.43042 12.2326 5.62905C12.1318 5.77553 11.966 5.86341 11.7879 5.86458H11.7791C11.6022 5.86341 11.4369 5.77494 11.3385 5.62787C11.1914 5.43042 10.9606 5.31206 10.7145 5.30737C10.367 5.30737 10.179 5.67533 10.179 6.02161C10.179 6.64973 10.7608 7.33057 11.7861 7.9124H11.7856Z" fill="white"/>
<path d="M21.8861 24.5925L21.2592 25.8464C20.9867 26.3913 20.4301 26.7353 19.8213 26.7353H10.1787C9.56993 26.7353 9.0133 26.3913 8.74084 25.8464L8.1139 24.5925H0.535537C0.239645 24.5925 0 24.8322 0 25.1281V26.1997C0 27.0874 0.719513 27.8069 1.60719 27.8069H28.3922C29.2799 27.8069 29.9994 27.0874 29.9994 26.1997V25.1281C29.9994 24.8322 29.7598 24.5925 29.4639 24.5925H21.8855H21.8861ZM1.60778 26.7353C1.31188 26.7353 1.07224 26.4956 1.07224 26.1997C1.07224 25.9038 1.31188 25.6642 1.60778 25.6642C1.90367 25.6642 2.14331 25.9038 2.14331 26.1997C2.14331 26.4956 1.90367 26.7353 1.60778 26.7353ZM3.75051 26.7353C3.45462 26.7353 3.21498 26.4956 3.21498 26.1997C3.21498 25.9038 3.45462 25.6642 3.75051 25.6642C4.04641 25.6642 4.28604 25.9038 4.28604 26.1997C4.28604 26.4956 4.04641 26.7353 3.75051 26.7353ZM6.9649 26.7353H5.89324C5.59735 26.7353 5.3577 26.4956 5.3577 26.1997C5.3577 25.9038 5.59735 25.6642 5.89324 25.6642H6.9649C7.2608 25.6642 7.50044 25.9038 7.50044 26.1997C7.50044 26.4956 7.2608 26.7353 6.9649 26.7353Z" fill="white"/>
<path d="M10.1784 25.6637H19.8209C20.0248 25.6649 20.2117 25.55 20.3032 25.3672L20.6881 24.592H9.31177L9.69906 25.3672C9.78988 25.5489 9.97562 25.6637 10.1784 25.6637Z" fill="white"/>
<path d="M27.0776 7.29598C27.2897 7.66453 27.346 8.1028 27.2329 8.51237L27.0536 9.18618L28.393 10.0604V4.77064C28.393 4.47475 28.1534 4.23511 27.8575 4.23511H23.0359V5.72043L26.0997 6.53838C26.5139 6.6497 26.8661 6.92216 27.0782 7.2954L27.0776 7.29598Z" fill="white"/>
<path d="M28.393 16.0972L23.5532 23.5208H28.393V16.0972Z" fill="white"/>
<path d="M2.76673 8.51017C2.53704 7.65413 3.04328 6.77348 3.89932 6.54204L6.9643 5.72116V4.23584H2.14271C1.84682 4.23584 1.60718 4.47548 1.60718 4.77138V10.0617L2.9466 9.1875L2.76673 8.51017Z" fill="white"/>
<path d="M15.0001 11.0002L13.3003 15.1287H16.6998L15.0001 11.0002Z" fill="white"/>
<path d="M7.72768 23.521H22.2739L29.3794 12.6216C29.4567 12.5021 29.4837 12.3562 29.4532 12.2174C29.4245 12.0785 29.3407 11.9572 29.2218 11.881L26.7615 10.2738L25.1602 16.2614C25.0799 16.5427 24.7893 16.7073 24.5068 16.6323C24.2244 16.5567 24.0545 16.269 24.1254 15.9854L26.199 8.23247C26.2365 8.09653 26.2177 7.95181 26.148 7.82935C26.0771 7.70455 25.9588 7.61373 25.8199 7.57623L23.0356 6.83035V20.8428C23.0356 21.1387 22.7959 21.3783 22.5 21.3783C22.2041 21.3783 21.9645 21.1387 21.9645 20.8428V3.70033C21.9645 3.40444 21.7249 3.16479 21.429 3.16479H8.57199C8.2761 3.16479 8.03646 3.40444 8.03646 3.70033V20.8428C8.03646 21.1387 7.79681 21.3783 7.50092 21.3783C7.20503 21.3783 6.96539 21.1387 6.96539 20.8428V6.83035L4.1799 7.57682C4.04162 7.61432 3.92443 7.70455 3.85353 7.82935C3.78381 7.95122 3.76564 8.09595 3.80256 8.2313L5.87615 15.9854C5.95232 16.2714 5.78299 16.5643 5.49764 16.6411C5.45194 16.6534 5.40565 16.6593 5.35819 16.6593C5.11562 16.6593 4.9041 16.4958 4.84141 16.262L3.24007 10.2774L0.782111 11.8799C0.66141 11.9566 0.57645 12.0785 0.546568 12.2185C0.5161 12.3586 0.54364 12.5045 0.621568 12.6246L7.72885 23.5216L7.72768 23.521ZM14.5057 9.38733C14.5889 9.18753 14.784 9.05804 15.0002 9.05804C15.2164 9.05804 15.4115 9.18811 15.4947 9.38733L17.9919 15.4534L19.2435 18.4926C19.356 18.7662 19.2259 19.0797 18.9523 19.1922C18.6786 19.3047 18.3652 19.1746 18.2527 18.901L17.1435 16.1993H12.8581L11.7448 18.9034C11.6323 19.177 11.3188 19.3076 11.0452 19.1946C10.7716 19.0815 10.6409 18.7686 10.754 18.495L12.0055 15.4558L14.5033 9.38967L14.5068 9.38675L14.5057 9.38733ZM10.7147 4.23528C11.0997 4.23587 11.4747 4.35833 11.7864 4.58449C12.0981 4.35833 12.4725 4.23587 12.8581 4.23528C13.3092 4.2552 13.7334 4.45559 14.0358 4.79133C14.3381 5.12706 14.4928 5.57002 14.4652 6.0206C14.4652 6.66336 14.1494 7.90142 12.0331 8.99652C11.8784 9.07679 11.695 9.07679 11.5403 8.99652C9.42452 7.90142 9.10812 6.66277 9.10812 6.0206C9.08058 5.57002 9.23526 5.12706 9.5376 4.79133C9.83994 4.45559 10.2642 4.2552 10.7153 4.23528H10.7147Z" fill="white"/>
<path d="M6.44859 23.5209L1.60767 16.0955V23.5209H6.44859Z" fill="white"/>
</svg>
