<svg width="30" height="30" viewBox="0 0 30 30" fill="none" xmlns="http://www.w3.org/2000/svg">
<path fill-rule="evenodd" clip-rule="evenodd" d="M15.6733 5.66208L19.3373 8.21347L21.8889 7.46963L23.045 3.76506C21.9426 2.43118 20.513 1.40022 18.8921 0.770996L15.6733 3.00953V5.66208Z" fill="white"/>
<path fill-rule="evenodd" clip-rule="evenodd" d="M10.9294 8.21352L14.5934 5.66213V3.00957L11.3746 0.769287C9.75429 1.39851 8.32413 2.42947 7.22168 3.76335L8.37786 7.46851L10.9294 8.21352Z" fill="white"/>
<path fill-rule="evenodd" clip-rule="evenodd" d="M17.6004 0.361266C15.9806 -0.0416461 14.2853 -0.0416461 12.665 0.361266L15.1327 2.07818L17.5998 0.361266H17.6004Z" fill="white"/>
<path fill-rule="evenodd" clip-rule="evenodd" d="M11.9848 18.2373H18.2812L18.9774 16.1853L17.3919 13.9602H12.874L11.2886 16.1853L11.9848 18.2373Z" fill="white"/>
<path fill-rule="evenodd" clip-rule="evenodd" d="M21.4198 18.2373C22.0322 17.7666 22.589 17.2286 23.0785 16.6333H19.9648L19.4204 18.2373H21.4198Z" fill="white"/>
<path fill-rule="evenodd" clip-rule="evenodd" d="M7.18848 16.6333C7.67799 17.2286 8.23424 17.7666 8.84717 18.2373H10.8448L10.3004 16.6333H7.18848Z" fill="white"/>
<path d="M26.4707 19.3062H3.79583C3.19943 19.3062 2.71582 19.7851 2.71582 20.3757V28.9304C2.71582 29.5211 3.19943 30 3.79583 30H26.4707C27.0671 30 27.5507 29.5211 27.5507 28.9304V20.3757C27.5507 19.7851 27.0671 19.3062 26.4707 19.3062ZM9.19469 27.8609H5.95525C5.65706 27.8609 5.41555 27.6217 5.41555 27.3264V21.9798C5.41555 21.6844 5.65706 21.4453 5.95525 21.4453C6.25345 21.4453 6.49496 21.6844 6.49496 21.9798V26.7919H9.1941C9.4923 26.7919 9.73381 27.0311 9.73381 27.3264C9.73381 27.6217 9.4923 27.8609 9.1941 27.8609H9.19469ZM11.8944 27.3264C11.8944 27.6217 11.6529 27.8609 11.3547 27.8609C11.0565 27.8609 10.815 27.6217 10.815 27.3264V21.9798C10.815 21.6844 11.0565 21.4453 11.3547 21.4453C11.6529 21.4453 11.8944 21.6844 11.8944 21.9798V27.3264ZM18.8746 22.1786L16.7152 27.5252C16.6331 27.7287 16.4347 27.862 16.2139 27.862C15.993 27.862 15.794 27.7287 15.7125 27.5252L13.5531 22.1786C13.4421 21.9043 13.5767 21.5926 13.8537 21.4833C14.1306 21.3739 14.4453 21.5067 14.5558 21.7809L16.2139 25.8872L17.872 21.7809C17.944 21.6037 18.1058 21.4774 18.2965 21.4505C18.4878 21.423 18.6786 21.4991 18.7978 21.6494C18.9171 21.7996 18.9467 22.0014 18.8746 22.1792V22.1786ZM24.3119 24.1183C24.6101 24.1183 24.8516 24.3575 24.8516 24.6528C24.8516 24.9481 24.6101 25.1873 24.3119 25.1873H21.6127V26.7913H24.3119C24.6101 26.7913 24.8516 27.0305 24.8516 27.3258C24.8516 27.6211 24.6101 27.8603 24.3119 27.8603H21.0724C20.7742 27.8603 20.5327 27.6211 20.5327 27.3258V21.9792C20.5327 21.6839 20.7742 21.4447 21.0724 21.4447H24.3119C24.6101 21.4447 24.8516 21.6839 24.8516 21.9792C24.8516 22.2745 24.6101 22.5137 24.3119 22.5137H21.6127V24.1177H24.3119V24.1183Z" fill="white"/>
<path fill-rule="evenodd" clip-rule="evenodd" d="M25.1654 9.49615C25.0529 7.84766 24.5326 6.2524 23.6514 4.85303L22.7695 7.7003L25.1654 9.49615Z" fill="white"/>
<path fill-rule="evenodd" clip-rule="evenodd" d="M25.1676 10.834L22.0405 8.49023L19.5129 9.23231L18.1289 13.3369L19.7027 15.5631H23.663C24.5518 14.1368 25.0686 12.5112 25.1665 10.834H25.1676Z" fill="white"/>
<path fill-rule="evenodd" clip-rule="evenodd" d="M17.149 12.89L18.458 9.00765L15.0168 6.59253L11.5757 9.00765L12.8846 12.89H17.1502H17.149Z" fill="white"/>
<path fill-rule="evenodd" clip-rule="evenodd" d="M6.38122 4.85229C5.4994 6.25166 4.97969 7.84693 4.86719 9.496L7.26304 7.70015L6.38122 4.85288V4.85229Z" fill="white"/>
<path fill-rule="evenodd" clip-rule="evenodd" d="M10.3296 15.5631L11.9034 13.3369L10.5194 9.23231L7.99173 8.49023L4.86523 10.8334C4.96426 12.51 5.48104 14.1357 6.36814 15.5631H10.3284H10.3296Z" fill="white"/>
</svg>
