<svg width="31" height="30" viewBox="0 0 31 30" fill="none" xmlns="http://www.w3.org/2000/svg">
<path d="M27.4993 0H2.50015C1.12029 0.00175778 0.00175778 1.1197 0 2.50014V23.4997C0.00175778 24.8796 1.1197 25.9981 2.50015 25.9999H10V27.0001H8.00023C6.89576 27.0001 6.00047 27.8954 6.00047 28.9998C6.00047 29.5523 6.44812 30 7.00064 30H23.0005C23.5531 30 24.0007 29.5523 24.0007 28.9998C24.0007 27.8954 23.1054 27.0001 22.0009 27.0001H20.0012V25.9999H27.501C28.8809 25.9981 29.9994 24.8802 30.0012 23.4997V2.50014C29.9994 1.12029 28.8815 0.00175778 27.501 0H27.4993ZM2.49956 1.00018H27.4993C28.3278 1.00018 28.9992 1.67164 28.9992 2.50014V20.9996H1.00018V2.50014C1.00018 1.67164 1.67165 1.00018 2.50015 1.00018H2.49956ZM22.9994 28.9998H7.00006C7.00006 28.4473 7.44771 27.9997 8.00023 27.9997H21.9998C22.5517 27.9997 22.9999 28.4473 22.9999 28.9998H22.9994ZM18.9992 27.0001H10.9996V25.9999H18.9992V27.0001ZM27.4993 25.0003H2.50015C1.67165 25.0003 1.00018 24.3288 1.00018 23.5003V22.0004H28.9998V23.5003C28.9998 24.3288 28.3284 25.0003 27.4999 25.0003H27.4993Z" fill="#828282"/>
<path fill-rule="evenodd" clip-rule="evenodd" d="M16.4996 23H13.4998C13.2238 23 13 23.2238 13 23.4998C13 23.7757 13.2238 23.9996 13.4998 23.9996H16.4996C16.7756 23.9996 16.9994 23.7757 16.9994 23.4998C16.9994 23.2238 16.7756 23 16.4996 23Z" fill="#828282"/>
<path fill-rule="evenodd" clip-rule="evenodd" d="M2.50004 5.00008H27.4997C27.7757 5.00008 27.9995 4.77626 27.9995 4.50028C27.9995 4.22431 27.7757 4.00049 27.4997 4.00049H2.50004C2.22407 4.00049 2.00024 4.22431 2.00024 4.50028C2.00024 4.77626 2.22407 5.00008 2.50004 5.00008Z" fill="#828282"/>
<path d="M2.99978 2.9998C3.27579 2.9998 3.49955 2.77604 3.49955 2.50002C3.49955 2.224 3.27579 2.00024 2.99978 2.00024C2.72376 2.00024 2.5 2.224 2.5 2.50002C2.5 2.77604 2.72376 2.9998 2.99978 2.9998Z" fill="#828282"/>
<path d="M4.99953 2.9998C5.27555 2.9998 5.49931 2.77604 5.49931 2.50002C5.49931 2.224 5.27555 2.00024 4.99953 2.00024C4.72351 2.00024 4.49976 2.224 4.49976 2.50002C4.49976 2.77604 4.72351 2.9998 4.99953 2.9998Z" fill="#828282"/>
<path d="M7.00002 2.9998C7.27604 2.9998 7.49979 2.77604 7.49979 2.50002C7.49979 2.224 7.27604 2.00024 7.00002 2.00024C6.724 2.00024 6.50024 2.224 6.50024 2.50002C6.50024 2.77604 6.724 2.9998 7.00002 2.9998Z" fill="#828282"/>
<path d="M20.499 5.99976C18.3517 6.00093 16.3244 6.98935 15.002 8.68085C13.7705 7.10712 11.9243 6.13627 9.92989 6.01323C7.93547 5.89019 5.98383 6.62785 4.56829 8.03812C4.56301 8.04339 4.55598 8.04456 4.55071 8.04983C4.54544 8.05511 4.54368 8.06155 4.53899 8.06741C1.82099 10.7936 1.82099 15.2049 4.53899 17.9311C4.54426 17.9364 4.54544 17.9434 4.55071 17.9487C4.55598 17.954 4.56243 17.9557 4.56829 17.9604C5.98324 19.3712 7.93489 20.1083 9.92989 19.9853C11.9249 19.8622 13.7711 18.8914 15.002 17.3177C17.0228 19.8898 20.5558 20.7182 23.5094 19.3127C26.4629 17.9071 28.0484 14.643 27.3271 11.4528C26.6059 8.26252 23.7701 5.99741 20.499 5.99976ZM14.405 9.5685C14.2099 9.91536 14.0453 10.2786 13.9123 10.6542C13.1277 9.18064 11.6606 8.19455 9.99961 8.02523V7.03154C11.7737 7.17567 13.3896 8.10668 14.405 9.56909V9.5685ZM3.52538 13.4993H4.52552C4.62336 14.476 5.00771 15.4023 5.63112 16.1611L4.92276 16.8694C4.11714 15.9191 3.6285 14.7408 3.52597 13.4993H3.52538ZM4.92217 9.12908L5.63053 9.83742C5.00713 10.5962 4.62278 11.5225 4.52493 12.4992H3.52479C3.62733 11.2577 4.11597 10.0788 4.92159 9.12908H4.92217ZM8.99947 8.02523C8.02277 8.12307 7.09646 8.50743 6.33771 9.13083L5.62936 8.42247C6.57969 7.61686 7.75794 7.12821 8.99947 7.02567V8.02582V8.02523ZM6.33771 16.8683C7.09646 17.4917 8.02277 17.876 8.99947 17.9739V18.974C7.75794 18.8715 6.57911 18.3828 5.62936 17.5772L6.33771 16.8688V16.8683ZM9.49925 16.9995C7.29039 16.9995 5.49929 15.209 5.49929 12.9996C5.49929 10.7901 7.28981 8.99959 9.49925 8.99959C11.7087 8.99959 13.4992 10.7901 13.4992 12.9996C13.4969 15.2078 11.7075 16.9966 9.49925 16.9995ZM9.99902 18.9681V17.9745C11.6601 17.8051 13.1272 16.8196 13.9117 15.3455C14.0447 15.7205 14.2093 16.0837 14.4044 16.4312C13.3896 17.8936 11.7731 18.824 9.99902 18.9687V18.9681ZM20.4984 18.9998C17.1851 18.9998 14.4988 16.3134 14.4988 13.0001C14.4988 9.68685 17.1851 7.00048 20.4984 7.00048C23.8117 7.00048 26.4981 9.68685 26.4981 13.0001C26.4945 16.3122 23.8105 18.9963 20.4984 18.9998Z" fill="#828282"/>
<path d="M10.8665 10.4043C10.5436 10.0908 10.1827 9.81834 9.79252 9.59453C9.70287 9.52891 9.5939 9.4955 9.48316 9.4996C9.36832 9.50371 9.25876 9.54707 9.17205 9.62206L9.16912 9.61796C8.11801 10.1675 7.35399 11.1425 7.07158 12.2944C6.96671 12.7947 7.06455 13.3162 7.34403 13.7445C7.4823 13.9542 7.66569 14.1312 7.88072 14.2612L7.74127 14.6843C7.63991 14.9889 7.69147 15.3241 7.87954 15.5848C8.06762 15.8455 8.36936 15.9996 8.69043 15.9996H10.3075C10.6286 15.9996 10.9303 15.8455 11.1184 15.5854C11.3065 15.3252 11.358 14.9907 11.2579 14.686L11.1172 14.2601C11.3329 14.1294 11.5162 13.9531 11.6551 13.7427C11.934 13.3168 12.0324 12.7971 11.9293 12.2985C11.7729 11.5749 11.4026 10.9152 10.8665 10.4048V10.4043ZM10.8225 13.1885C10.7264 13.339 10.5741 13.4439 10.3989 13.4802C10.2577 13.5078 10.1347 13.5951 10.0626 13.7193C9.98997 13.8435 9.97473 13.9935 10.0204 14.13L10.3081 14.9995H8.69102L8.97753 14.1318C9.02264 13.9952 9.00682 13.8464 8.93417 13.7222C8.86152 13.598 8.73906 13.5119 8.59786 13.4843C8.42385 13.448 8.2721 13.3431 8.17718 13.1926C8.04594 12.9869 8.00024 12.7385 8.04946 12.4994C8.25335 11.6927 8.77715 11.003 9.49957 10.5894C9.73744 10.7411 9.95891 10.9175 10.1599 11.1149C10.5554 11.487 10.8302 11.9692 10.9491 12.4994C10.9995 12.7367 10.9538 12.9846 10.8219 13.1885H10.8225Z" fill="#828282"/>
<path d="M22.4994 13.4998C21.671 13.4998 20.9995 14.1712 20.9995 14.9997C20.9995 15.8281 21.671 16.4996 22.4994 16.4996C23.3279 16.4996 23.9993 15.8281 23.9993 14.9997C23.9993 14.1712 23.3279 13.4998 22.4994 13.4998ZM22.4994 15.4995C22.2235 15.4995 21.9996 15.2756 21.9996 14.9997C21.9996 14.7237 22.2235 14.4999 22.4994 14.4999C22.7754 14.4999 22.9992 14.7237 22.9992 14.9997C22.9992 15.2756 22.7754 15.4995 22.4994 15.4995Z" fill="#828282"/>
<path d="M19.9995 11C19.9995 10.3936 19.6339 9.84639 19.0737 9.61437C18.5136 9.38236 17.8679 9.51066 17.4391 9.93954C17.0102 10.3684 16.8819 11.0135 17.1139 11.5742C17.3459 12.1349 17.8931 12.4999 18.4995 12.4999C19.328 12.4999 19.9995 11.8285 19.9995 11ZM17.9998 11C17.9998 10.7241 18.2236 10.5003 18.4995 10.5003C18.7755 10.5003 18.9993 10.7241 18.9993 11C18.9993 11.276 18.7755 11.4998 18.4995 11.4998C18.2236 11.4998 17.9998 11.276 17.9998 11Z" fill="#828282"/>
<path fill-rule="evenodd" clip-rule="evenodd" d="M23.3531 10.1466C23.158 9.95147 22.8416 9.95147 22.646 10.1466L17.6464 15.1461C17.5164 15.2715 17.4642 15.4578 17.5099 15.6324C17.5556 15.807 17.6921 15.9435 17.8667 15.9892C18.0413 16.0349 18.2277 15.9828 18.353 15.8527L23.3526 10.8532C23.5477 10.6581 23.5477 10.3417 23.3526 10.146L23.3531 10.1466Z" fill="#828282"/>
</svg>
