<svg width="30" height="30" viewBox="0 0 30 30" fill="none" xmlns="http://www.w3.org/2000/svg">
<g clip-path="url(#clip0_695_20728)">
<path d="M20.6077 4.18018C20.2073 4.1865 19.8848 4.50897 19.8785 4.90942C19.8722 5.3183 20.1989 5.65552 20.6077 5.66184C21.0082 5.65552 21.3307 5.33305 21.337 4.9326C21.3433 4.52372 21.0166 4.1865 20.6077 4.18018Z" fill="white"/>
<path d="M11.1184 20.9921C11.3881 17.7077 6.08955 17.6318 6.32631 20.9921H11.1184Z" fill="white"/>
<path d="M15.9119 4.18018C15.5115 4.1865 15.189 4.50897 15.1827 4.90942C15.1764 5.3183 15.5031 5.65552 15.9119 5.66184C16.3124 5.65552 16.6349 5.33305 16.6412 4.9326C16.6475 4.52372 16.3208 4.1865 15.9119 4.18018Z" fill="white"/>
<path d="M8.63769 17.4119C9.1372 17.4056 9.53976 17.0023 9.54679 16.5028C9.55381 15.9942 9.14633 15.5761 8.63769 15.5698C8.13889 15.5761 7.73563 15.9794 7.72861 16.4789C7.72158 16.9876 8.12905 17.4056 8.63769 17.4119Z" fill="white"/>
<path d="M25.3043 4.18018C24.9038 4.1865 24.5814 4.50897 24.575 4.90942C24.5687 5.3183 24.8954 5.65552 25.3043 5.66184C25.7047 5.65552 26.0272 5.33305 26.0335 4.9326C26.0398 4.52372 25.7132 4.1865 25.3043 4.18018Z" fill="white"/>
<path d="M8.72196 23.8598C11.8019 23.8563 14.2974 21.3608 14.3009 18.2809C13.9953 10.8817 3.44938 10.8796 3.14307 18.2809C3.14658 21.3608 5.64202 23.8563 8.72196 23.8598ZM7.12579 17.7737C6.81737 17.4175 6.64735 16.9622 6.64524 16.4915C6.64454 16.0426 6.79559 15.6063 7.07379 15.2536C7.75526 14.3923 9.00579 14.2462 9.86711 14.927C10.7284 15.6084 10.8746 16.8589 10.1938 17.7203C11.4977 18.2633 12.3035 19.5848 12.189 20.9927C12.189 21.5843 11.7092 22.0627 11.1183 22.0634H6.32629C5.73475 22.0634 5.25562 21.5835 5.25562 20.9927C5.14391 19.634 5.89072 18.349 7.12579 17.773V17.7737Z" fill="white"/>
<path d="M28.9286 9.10718H0V26.786C0.00210763 28.5606 1.44021 29.998 3.21414 30.0001H26.7852C28.5598 29.998 29.9972 28.5599 29.9993 26.786V9.10718H28.9279H28.9286ZM18.6104 12.3213H25.0386C25.3267 12.3269 25.5585 12.5588 25.5641 12.8468C25.5698 13.1426 25.3344 13.3871 25.0386 13.3927H18.6104C18.3223 13.3871 18.0905 13.1552 18.0849 12.8672C18.0793 12.5714 18.3146 12.3269 18.6104 12.3213ZM23.3764 16.2605C23.3764 16.5562 23.1369 16.7965 22.8404 16.7965H18.6659C18.3806 16.7895 18.1502 16.5598 18.1432 16.2738C18.1362 15.978 18.3701 15.7322 18.6659 15.7251H22.8404C23.1362 15.7251 23.3764 15.9647 23.3764 16.2612V16.2605ZM18.6104 18.7496H27.1821C27.4701 18.7552 27.702 18.987 27.7076 19.2751C27.7132 19.5709 27.4779 19.8153 27.1821 19.821H18.6111C18.3216 19.8167 18.0884 19.5828 18.0835 19.2934C18.0785 18.9976 18.3146 18.7538 18.6111 18.7496H18.6104ZM26.0552 26.5211H19.627C19.3312 26.5211 19.0909 26.2815 19.0909 25.9858C19.0909 25.69 19.3312 25.4497 19.627 25.4497H26.0552C26.3433 25.4554 26.5751 25.6872 26.5807 25.9752C26.5863 26.271 26.351 26.5155 26.0552 26.5211ZM17.5847 23.0351H24.0136C24.3094 23.0351 24.549 23.2754 24.549 23.5711C24.549 23.8676 24.3087 24.1072 24.0129 24.1072H17.5847C17.2889 24.1072 17.0493 23.8676 17.0493 23.5711C17.0493 23.2747 17.2889 23.0351 17.5847 23.0351ZM8.72208 11.63C12.3929 11.6342 15.3681 14.6095 15.3724 18.2803C15.0077 27.1 2.43712 27.1028 2.0718 18.2803C2.07601 14.6095 5.05129 11.6342 8.72208 11.63Z" fill="white"/>
<path d="M26.7852 0H3.21414C1.43951 0.00210763 0.00210763 1.44021 0 3.21414V8.03569H30V3.21414C29.9979 1.44021 28.5598 0.00210763 26.7852 0ZM15.9112 6.73317C14.9234 6.72404 14.1246 5.92525 14.1155 4.93747C14.1064 3.93635 14.9101 3.11789 15.9112 3.10875C16.8983 3.11859 17.6957 3.91598 17.7055 4.90305C17.7153 5.90417 16.9123 6.72334 15.9112 6.73317ZM20.607 6.73317C19.6192 6.72404 18.8204 5.92525 18.8113 4.93747C18.8022 3.93635 19.6059 3.11789 20.607 3.10875C21.5941 3.11859 22.3915 3.91598 22.4013 4.90305C22.4111 5.90417 21.6081 6.72334 20.607 6.73317ZM25.3035 6.73317C24.315 6.72474 23.5162 5.92525 23.5071 4.93677C23.498 3.93565 24.3024 3.11718 25.3035 3.10875C26.2913 3.11789 27.0901 3.91668 27.0992 4.90445C27.1083 5.90558 26.3046 6.72404 25.3035 6.73317Z" fill="white"/>
</g>
<defs>
<clipPath id="clip0_695_20728">
<rect width="30" height="30" fill="white"/>
</clipPath>
</defs>
</svg>
