<svg width="30" height="30" viewBox="0 0 30 30" fill="none" xmlns="http://www.w3.org/2000/svg">
<path fill-rule="evenodd" clip-rule="evenodd" d="M18.0147 13.5978L17.0251 12.8032C16.3724 13.1694 15.8737 13.7595 15.6206 14.4638H17.2565C17.42 14.1075 17.6831 13.8069 18.0147 13.5978Z" fill="white"/>
<path fill-rule="evenodd" clip-rule="evenodd" d="M24.5302 14.4645H26.1661C25.913 13.7602 25.4144 13.1702 24.7616 12.804L23.772 13.5961C24.1036 13.8059 24.3667 14.1077 24.5302 14.4645Z" fill="white"/>
<path fill-rule="evenodd" clip-rule="evenodd" d="M20.3579 12.8795V11.802C19.5809 11.8489 18.8151 12.0112 18.0862 12.2842L19.104 13.1016C19.5129 12.9832 19.9331 12.9088 20.3579 12.8795Z" fill="white"/>
<path fill-rule="evenodd" clip-rule="evenodd" d="M16.7931 17.0415L17.8548 16.2856C17.5946 16.0905 17.389 15.8327 17.2565 15.5356H15.6206C15.8339 16.1538 16.2464 16.6835 16.7931 17.0415Z" fill="white"/>
<path fill-rule="evenodd" clip-rule="evenodd" d="M21.429 12.8795C21.8532 12.9082 22.2728 12.9826 22.6812 13.1004L23.6989 12.283C22.97 12.01 22.2042 11.8477 21.4272 11.8008L21.4296 12.8795H21.429Z" fill="white"/>
<path fill-rule="evenodd" clip-rule="evenodd" d="M26.1663 15.5356H24.5304C24.398 15.8327 24.1917 16.0905 23.9321 16.2856L24.9938 17.0438C25.5411 16.6853 25.9542 16.155 26.1663 15.5356Z" fill="white"/>
<path fill-rule="evenodd" clip-rule="evenodd" d="M22.8657 16.8394C22.4004 16.9929 21.9176 17.0872 21.429 17.1206V18.1981C22.2973 18.1483 23.1516 17.9515 23.9543 17.6163L22.8657 16.8394Z" fill="white"/>
<path fill-rule="evenodd" clip-rule="evenodd" d="M14.4645 20.3572V20.0771C13.3225 21.2232 11.3689 21.9645 9.10723 21.9645C6.84551 21.9645 4.89199 21.2232 3.75 20.0771V20.3572C3.75 22.0992 6.20332 23.5717 9.10723 23.5717C12.0111 23.5717 14.4645 22.0998 14.4645 20.3572Z" fill="white"/>
<path fill-rule="evenodd" clip-rule="evenodd" d="M15.5361 17.3982V17.6783C15.5361 19.4203 17.9894 20.8927 20.8934 20.8927C23.7973 20.8927 26.2506 19.4209 26.2506 17.6783V17.3982C25.1086 18.5443 23.1551 19.2855 20.8934 19.2855C18.6316 19.2855 16.6787 18.5443 15.5361 17.3982Z" fill="white"/>
<path fill-rule="evenodd" clip-rule="evenodd" d="M12.9762 7.44678L11.9866 8.23897C12.3182 8.44873 12.5813 8.75049 12.7448 9.10733H14.3807C14.1276 8.40245 13.629 7.81299 12.9762 7.44678Z" fill="white"/>
<path d="M15.0005 22.0945C14.0185 23.608 11.7791 24.6427 9.10776 24.6427C8.20132 24.6463 7.29897 24.5179 6.42944 24.2625V27.3216C6.4312 28.7999 7.62944 29.9982 9.10776 29.9999H20.8933C22.3716 29.9982 23.5699 28.7999 23.5716 27.3216V24.2625C22.7021 24.5179 21.7998 24.6463 20.8933 24.6427C18.2214 24.6427 15.9826 23.608 15.0005 22.0945ZM21.4289 27.8572C21.4289 28.1531 21.1892 28.3927 20.8933 28.3927H9.10776C8.81186 28.3927 8.57222 28.1531 8.57222 27.8572C8.57222 27.5613 8.81186 27.3216 9.10776 27.3216H20.8933C21.1892 27.3216 21.4289 27.5613 21.4289 27.8572Z" fill="white"/>
<path d="M20.8932 16.0716C22.3724 16.0716 23.5715 15.5918 23.5715 14.9999C23.5715 14.408 22.3724 13.9282 20.8932 13.9282C19.414 13.9282 18.2148 14.408 18.2148 14.9999C18.2148 15.5918 19.414 16.0716 20.8932 16.0716Z" fill="white"/>
<path fill-rule="evenodd" clip-rule="evenodd" d="M20.3577 17.1206C19.869 17.0872 19.3862 16.9929 18.921 16.8394L17.8323 17.6163C18.635 17.9515 19.4887 18.1483 20.3577 18.1981V17.1206Z" fill="white"/>
<path fill-rule="evenodd" clip-rule="evenodd" d="M8.57149 7.52236V6.44482C7.79453 6.4917 7.02871 6.654 6.2998 6.92705L7.31758 7.74443C7.72656 7.62607 8.14668 7.55165 8.57149 7.52236Z" fill="white"/>
<path fill-rule="evenodd" clip-rule="evenodd" d="M9.10771 15.5355C12.011 15.5355 14.4649 14.0637 14.4649 12.3211V12.041C13.3229 13.1871 11.3694 13.9283 9.10771 13.9283C6.84599 13.9283 4.89248 13.1871 3.75049 12.041V12.3211C3.75049 14.0631 6.2038 15.5355 9.10771 15.5355Z" fill="white"/>
<path fill-rule="evenodd" clip-rule="evenodd" d="M9.10771 18.2145C12.011 18.2145 14.4649 16.7426 14.4649 15.0001V14.72C13.3229 15.8661 11.3694 16.6073 9.10771 16.6073C6.84599 16.6073 4.89248 15.8661 3.75049 14.72V15.0001C3.75049 16.742 6.2038 18.2145 9.10771 18.2145Z" fill="white"/>
<path fill-rule="evenodd" clip-rule="evenodd" d="M5.00742 11.6848L6.06914 10.929C5.80898 10.7338 5.60332 10.476 5.4709 10.179H3.83496C4.04766 10.7971 4.46015 11.3268 5.00742 11.6848Z" fill="white"/>
<path fill-rule="evenodd" clip-rule="evenodd" d="M15.5361 20.0771V20.3572C15.5361 22.0992 17.9894 23.5717 20.8934 23.5717C23.7973 23.5717 26.2506 22.0998 26.2506 20.3572V20.0771C25.1086 21.2232 23.1551 21.9645 20.8934 21.9645C18.6316 21.9645 16.6787 21.2232 15.5361 20.0771Z" fill="white"/>
<path fill-rule="evenodd" clip-rule="evenodd" d="M9.10771 20.8927C12.011 20.8927 14.4649 19.4209 14.4649 17.6783V17.3982C13.3229 18.5443 11.3694 19.2855 9.10771 19.2855C6.84599 19.2855 4.89248 18.5443 3.75049 17.3982V17.6783C3.75049 19.4203 6.2038 20.8927 9.10771 20.8927Z" fill="white"/>
<path fill-rule="evenodd" clip-rule="evenodd" d="M6.22837 8.24131L5.23872 7.44678C4.58599 7.81299 4.08735 8.40303 3.83423 9.10733H5.47017C5.63364 8.75108 5.89673 8.45049 6.22837 8.24131Z" fill="white"/>
<path d="M9.10776 10.7144C10.587 10.7144 11.7861 10.2346 11.7861 9.64273C11.7861 9.05085 10.587 8.57104 9.10776 8.57104C7.62857 8.57104 6.42944 9.05085 6.42944 9.64273C6.42944 10.2346 7.62857 10.7144 9.10776 10.7144Z" fill="white"/>
<path fill-rule="evenodd" clip-rule="evenodd" d="M8.57154 12.8407V11.7632C8.08287 11.7298 7.60005 11.6354 7.13482 11.4819L6.04614 12.2589C6.84888 12.594 7.70318 12.7909 8.57154 12.8407Z" fill="white"/>
<path fill-rule="evenodd" clip-rule="evenodd" d="M11.2669 1.60722H18.7334C19.1717 1.60898 19.5667 1.34179 19.7284 0.933981L20.1016 0H9.89868L10.2737 0.933981C10.4348 1.34121 10.8292 1.60839 11.2669 1.60722Z" fill="white"/>
<path fill-rule="evenodd" clip-rule="evenodd" d="M15.5359 9.64269V12.6017C16.6779 11.4556 18.6314 10.7144 20.8932 10.7144C21.7996 10.7108 22.702 10.8392 23.5715 11.0946V2.67881C23.5674 1.33819 22.5713 0.20791 21.2418 0.0356445L20.7232 1.33233C20.3998 2.14796 19.6105 2.68175 18.7334 2.6794H11.2668C10.3897 2.68233 9.60039 2.14796 9.27695 1.33233L8.7584 0.0356445C7.42891 0.20791 6.43281 1.33819 6.42871 2.67881V5.73799C7.29824 5.48252 8.20059 5.3542 9.10704 5.35772C12.7117 5.35772 15.5354 7.24033 15.5354 9.64326L15.5359 9.64269Z" fill="white"/>
<path fill-rule="evenodd" clip-rule="evenodd" d="M14.3807 10.1782H12.7447C12.6123 10.4753 12.4061 10.7331 12.1465 10.9282L13.2082 11.6864C13.7555 11.3278 14.1686 10.7976 14.3807 10.1782Z" fill="white"/>
<path fill-rule="evenodd" clip-rule="evenodd" d="M9.64331 6.44531V7.52285C10.0675 7.55156 10.4871 7.62597 10.8955 7.74374L11.9132 6.92636C11.1849 6.65449 10.4197 6.49219 9.64331 6.4459V6.44531Z" fill="white"/>
<path fill-rule="evenodd" clip-rule="evenodd" d="M11.08 11.4819C10.6148 11.6354 10.132 11.7298 9.64331 11.7632V12.8407C10.5117 12.7909 11.366 12.594 12.1687 12.2589L11.08 11.4819Z" fill="white"/>
</svg>
