<svg width="30" height="30" viewBox="0 0 30 30" fill="none" xmlns="http://www.w3.org/2000/svg">
<path d="M20.0663 17.8648H20.0486C19.8663 17.8648 19.6958 17.9295 19.5723 18.0471C19.4487 18.1648 19.3841 18.3295 19.3782 18.5177C19.3782 18.7001 19.4429 18.8707 19.5664 19.0001C19.6899 19.1295 19.8545 19.2001 20.0369 19.206C20.2074 19.206 20.378 19.1354 20.5015 19.0059C20.6308 18.8765 20.7073 18.7001 20.7073 18.5236C20.7073 18.1648 20.4132 17.8707 20.0545 17.8589L20.0663 17.8648Z" fill="white"/>
<path d="M10.8918 16.4764C10.6331 16.4764 10.3743 16.4764 10.1155 16.4764H9.72738C9.14515 16.4764 8.91579 16.2469 8.90991 15.6528C8.90991 15.5058 8.90991 15.3528 8.90991 15.2058C8.90991 14.9587 8.90991 14.7058 8.90991 14.4587C8.89815 14.1293 8.69819 13.9116 8.41002 13.9058C8.11008 13.9058 7.91012 14.1352 7.90424 14.4764C7.90424 14.6587 7.90424 14.8469 7.90424 15.0293C7.90424 15.2705 7.90424 15.5175 7.90424 15.7587C7.89836 16.2058 7.63371 16.4646 7.18087 16.4705C7.04561 16.4705 6.91622 16.4705 6.78096 16.4705H6.35752C6.22225 16.4705 6.08699 16.4705 5.95172 16.4705C5.56945 16.4705 5.34597 16.6528 5.34009 16.9646C5.34009 17.1116 5.38126 17.2352 5.46947 17.3293C5.57533 17.4411 5.74001 17.4999 5.94584 17.5058C6.19873 17.5058 6.45162 17.5058 6.7045 17.5058C6.81036 17.5058 6.9221 17.5058 7.02796 17.5058H7.08089C7.69253 17.5058 7.90424 17.7293 7.91012 18.3469C7.91012 18.4587 7.91012 18.5764 7.91012 18.6881C7.91012 18.9587 7.90425 19.2352 7.92189 19.5058C7.92777 19.6469 7.99246 19.8058 8.07479 19.9116C8.20418 20.0646 8.38061 20.1058 8.58645 20.0293C8.80405 19.9469 8.91579 19.7881 8.92167 19.5587C8.92167 19.3469 8.92167 19.1411 8.92167 18.9352C8.92167 18.7058 8.92167 18.4764 8.92167 18.2469C8.93343 17.7411 9.1628 17.5116 9.67445 17.5116C9.83324 17.5116 9.98615 17.5116 10.1449 17.5116C10.4037 17.5116 10.6684 17.5116 10.9271 17.5116C11.2741 17.4999 11.4858 17.2999 11.4799 16.9881C11.4799 16.6822 11.2565 16.4881 10.9095 16.4822L10.8918 16.4764Z" fill="white"/>
<path d="M23.8126 14.0823H23.8008C23.4538 14.0882 23.1421 14.3999 23.1362 14.7529C23.1362 14.9235 23.2009 15.0882 23.3244 15.2176C23.4538 15.347 23.6302 15.4235 23.8126 15.4235C24.0008 15.4235 24.1713 15.3587 24.2889 15.2352C24.4124 15.1117 24.4771 14.9411 24.4771 14.7529C24.4771 14.5705 24.4007 14.394 24.2713 14.2705C24.1478 14.147 23.9831 14.0823 23.8184 14.0823H23.8126Z" fill="white"/>
<path d="M29.8877 23.7235C29.87 23.4588 29.8465 23.2 29.8289 22.9353C29.7583 21.8353 29.6818 20.7294 29.6054 19.6294L29.5407 18.6882C29.4466 17.3118 29.3466 15.9353 29.2525 14.5588C29.2349 14.2765 29.2172 13.9941 29.1996 13.7118C29.1584 13.0118 29.1173 12.2941 29.0173 11.5882C28.7644 9.73529 27.7176 8.38823 25.9826 7.68235C24.2477 6.98235 22.5951 7.22942 21.0719 8.42353C20.3309 9 19.6134 9.62354 18.9195 10.2177C18.6666 10.4353 18.4313 10.5235 18.1314 10.5118C17.6197 10.4941 17.0963 10.4941 16.5905 10.5C16.3847 10.5 16.1789 10.5 15.973 10.5C15.8907 10.5 15.8142 10.5 15.7319 10.4941H15.6966C15.6966 10.2471 15.6907 10.0059 15.6849 9.76471C15.6731 9.17059 15.6613 8.60588 15.7084 8.0353C15.7966 7.07647 16.567 6.39412 17.5903 6.37647C17.8138 6.37647 18.0314 6.37647 18.2549 6.37647C18.5019 6.37647 18.7489 6.37647 18.9959 6.37647C20.3721 6.35294 21.5777 5.46471 21.9953 4.15883C22.4246 2.81177 21.9423 1.38235 20.7955 0.605882C20.5073 0.411764 20.178 0.28824 19.8545 0.170593C19.7075 0.117652 19.5605 0.0647059 19.4193 0H14.8203L14.8027 0.0058881C14.3734 0.294123 14.2558 0.61765 14.4498 0.958826C14.6204 1.25883 14.9086 1.29412 15.1144 1.29412H15.1203C16.2553 1.29412 17.5903 1.28823 18.9136 1.29412C19.9486 1.3 20.7367 2.02942 20.8308 3.06471C20.919 4.00589 20.2015 4.88824 19.2312 5.02353C18.8371 5.08236 18.4313 5.07648 18.0314 5.07059C17.855 5.07059 17.6727 5.07059 17.4962 5.07059C16.7023 5.08824 16.0024 5.36471 15.4143 5.89412C14.6615 6.57647 14.3146 7.45883 14.3557 8.58824C14.3734 9.02942 14.3675 9.47059 14.3616 9.92941C14.3616 10.1118 14.3616 10.3 14.3616 10.4882H13.797C13.009 10.4882 12.2679 10.4882 11.5152 10.4824C11.4564 10.4824 11.3681 10.4118 11.3093 10.3647C11.0035 10.1118 10.7036 9.85882 10.4036 9.60588C9.92139 9.20588 9.42738 8.78824 8.93337 8.38824C7.91006 7.55883 6.6221 7.18823 5.29886 7.34117C3.96973 7.49412 2.79351 8.15883 1.98192 9.20589C1.32912 10.0471 0.993902 11.0353 0.917448 12.3C0.840994 13.6706 0.735132 15.0647 0.635154 16.4118C0.582224 17.1353 0.529296 17.8588 0.476367 18.5824C0.411675 19.5412 0.346982 20.5 0.28229 21.4529C0.223479 22.3176 0.164671 23.1824 0.10586 24.0471C0.0882165 24.2824 0.0646905 24.5177 0.0352851 24.7471C0.0235229 24.8588 0.0117622 24.9706 0 25.0824V26.3118V26.3294C0.00588109 26.3529 0.0117627 26.3706 0.0235249 26.3941C0.0411681 26.4353 0.0529289 26.4765 0.05881 26.5118C0.394032 28.4882 2.15248 29.9824 4.15793 29.9941H4.18733C5.58115 29.9941 6.71032 29.4353 7.63953 28.2941C8.39231 27.3647 9.17449 26.4235 9.92727 25.5177L10.3507 25.0118C10.8565 24.4 11.5034 24.0765 12.2679 24.0412C12.3091 24.0412 12.3385 24.0235 12.3738 24.0176L17.9902 24.0588C18.7019 24.1588 19.3017 24.5353 19.8545 25.2294C20.8426 26.4647 21.7424 27.5529 22.6069 28.5588C23.4067 29.4941 24.5771 30 25.7709 30C26.2708 30 26.7825 29.9118 27.2706 29.7235C28.9291 29.0941 30.0288 27.5059 29.9994 25.7706C29.9877 25.0824 29.9347 24.3824 29.8877 23.7059V23.7235ZM23.8125 16.7529H23.8066C23.2832 16.7529 22.7892 16.5471 22.4187 16.1765C22.0364 15.7941 21.8247 15.2765 21.8306 14.7235C21.8365 13.6353 22.7128 12.7882 23.8243 12.7882H23.836C24.3595 12.7882 24.8535 13 25.2299 13.3765C25.6004 13.7529 25.8062 14.2529 25.8003 14.7765C25.7944 15.8471 24.8829 16.7529 23.8184 16.7588L23.8125 16.7529ZM20.0604 20.5C18.9489 20.5 18.0667 19.6353 18.0608 18.5294C18.0608 18.0118 18.2725 17.5 18.6489 17.1177C19.0253 16.7412 19.5311 16.5294 20.0427 16.5294H20.0604C21.1425 16.5353 22.0247 17.4294 22.0247 18.5118C22.0247 19.6176 21.166 20.4941 20.0721 20.4941H20.0663L20.0604 20.5ZM10.4507 18.8059H10.2449C10.239 18.9118 10.2331 19.0176 10.2331 19.1176C10.2213 19.3882 10.2154 19.6412 10.1684 19.9C10.0155 20.7765 9.28036 21.3765 8.36291 21.3765C8.3335 21.3765 8.30409 21.3765 8.27469 21.3765C7.40429 21.3412 6.66915 20.6177 6.5927 19.7294C6.57505 19.5118 6.58093 19.2941 6.58093 19.0647C6.58093 18.9824 6.58093 18.8941 6.58093 18.8118H6.36334C6.16926 18.8118 5.99283 18.8118 5.81639 18.8118C4.81073 18.8 4.01678 18.0059 4.00502 17.0059C3.99326 16 4.78132 15.2 5.79287 15.1824C5.97518 15.1824 6.16338 15.1824 6.36334 15.1824H6.58682C6.58682 15.1 6.58682 15.0118 6.58682 14.9294C6.58682 14.7059 6.57505 14.4941 6.5927 14.2824C6.67503 13.2882 7.43369 12.6118 8.44524 12.6118C8.46877 12.6118 8.49229 12.6118 8.51581 12.6118C9.43914 12.6412 10.1919 13.4235 10.2213 14.4C10.2272 14.5824 10.2213 14.7647 10.2213 14.9588C10.2213 15.0294 10.2213 15.1 10.2213 15.1765C10.3978 15.1765 10.5624 15.1765 10.7271 15.1765C10.8271 15.1765 10.9271 15.1765 11.027 15.1765C12.0092 15.2 12.7972 16.0177 12.7914 17C12.7855 17.9588 11.9798 18.7824 11.0329 18.8059C10.8388 18.8059 10.6506 18.8059 10.4566 18.8059H10.4507Z" fill="white"/>
</svg>
