<svg width="30" height="30" viewBox="0 0 30 30" fill="none" xmlns="http://www.w3.org/2000/svg">
<path fill-rule="evenodd" clip-rule="evenodd" d="M11.2288 12.5897C11.2288 13.478 12.2107 14.2456 13.4744 14.4249V10.7539C12.2107 10.9332 11.2288 11.7008 11.2288 12.5891V12.5897Z" fill="white"/>
<path fill-rule="evenodd" clip-rule="evenodd" d="M14.5977 19.2466C15.8614 19.0673 16.8433 18.2997 16.8433 17.4114C16.8433 16.5231 15.8614 15.7555 14.5977 15.5762V19.2471V19.2466Z" fill="white"/>
<path d="M14.0363 7.50001C12.9537 7.49825 11.8827 7.71271 10.8922 8.12932C10.5287 8.27874 10.1781 8.45628 9.84403 8.65902C9.08443 9.11782 8.41325 9.69791 7.8606 10.3747V19.6256C8.41387 20.3018 9.08504 20.8819 9.84525 21.3401C10.1769 21.5423 10.525 21.7186 10.8861 21.8675C11.8784 22.2864 12.9512 22.5021 14.0363 22.5009C18.3771 22.5009 21.8963 19.1428 21.8963 15.0007C21.8963 10.8587 18.3771 7.5006 14.0363 7.5006V7.50001ZM17.9663 17.4108C17.9663 18.892 16.4993 20.1184 14.5975 20.3235V20.893C14.5975 21.189 14.3464 21.4286 14.0363 21.4286C13.7261 21.4286 13.475 21.189 13.475 20.893V20.3235C11.5732 20.1184 10.1062 18.892 10.1062 17.4108C10.1062 17.1148 10.3574 16.8752 10.6675 16.8752C10.9776 16.8752 11.2287 17.1148 11.2287 17.4108C11.2287 18.2991 12.2106 19.0666 13.4744 19.2459V15.5017C11.5726 15.2966 10.1056 14.0703 10.1056 12.589C10.1056 11.1077 11.5726 9.88131 13.4744 9.67623V9.10668C13.4744 8.81078 13.7255 8.57113 14.0356 8.57113C14.3457 8.57113 14.5969 8.81078 14.5969 9.10668V9.67623C16.4987 9.88131 17.9657 11.1077 17.9657 12.589C17.9657 12.8849 17.7145 13.1245 17.4044 13.1245C17.0943 13.1245 16.8431 12.8849 16.8431 12.589C16.8431 11.7007 15.8612 10.9331 14.5975 10.7538V14.498C16.4993 14.7031 17.9663 15.9295 17.9663 17.4108Z" fill="white"/>
<path fill-rule="evenodd" clip-rule="evenodd" d="M10.1055 22.698C9.80891 22.5632 9.52152 22.412 9.24335 22.245C8.74841 21.945 8.2848 21.5999 7.85986 21.2144V23.5716H10.1055V22.698Z" fill="white"/>
<path fill-rule="evenodd" clip-rule="evenodd" d="M7.85986 8.78589C8.28541 8.40033 8.74841 8.05579 9.24396 7.75579C9.52214 7.58938 9.80952 7.43762 10.1055 7.30285V6.4292H7.85986V8.78647V8.78589Z" fill="white"/>
<path fill-rule="evenodd" clip-rule="evenodd" d="M5.07032 1.60726H12.8954C13.3547 1.60902 13.7686 1.34182 13.938 0.934003L14.3298 0H3.63647L4.02948 0.934003C4.19835 1.34124 4.61161 1.60843 5.07032 1.60726Z" fill="white"/>
<path d="M11.2288 23.1374V23.5716C11.2288 24.1634 10.7259 24.6433 10.1057 24.6433H7.86003C7.23983 24.6433 6.73691 24.1634 6.73691 23.5716V6.42845C6.73691 5.83664 7.23983 5.35674 7.86003 5.35674H10.1057C10.7259 5.35674 11.2288 5.83664 11.2288 6.42845V6.86263C13.448 6.15715 15.8687 6.31536 17.9657 7.30385V2.67837C17.9614 1.33772 16.9175 0.207425 15.5242 0.0351562L14.9807 1.33186C14.6418 2.1475 13.8146 2.6813 12.8954 2.67896H5.07034C4.15108 2.68189 3.32393 2.1475 2.98497 1.33186L2.44152 0.0351562C1.04821 0.207425 0.00429846 1.33772 0 2.67837V27.3216C0.0018422 28.8 1.25761 29.9982 2.80689 30H15.1582C16.7075 29.9982 17.9632 28.8 17.9651 27.3216V22.6956C15.8681 23.6841 13.4468 23.8428 11.2276 23.1368L11.2288 23.1374ZM15.7201 27.8578C15.7201 28.1537 15.4689 28.3933 15.1588 28.3933H2.8075C2.4974 28.3933 2.24625 28.1537 2.24625 27.8578C2.24625 27.5619 2.4974 27.3222 2.8075 27.3222H15.1588C15.4689 27.3222 15.7201 27.5619 15.7201 27.8578Z" fill="white"/>
<path fill-rule="evenodd" clip-rule="evenodd" d="M29.8983 14.7654L26.9926 11.9927C26.7734 11.7835 26.3982 11.9317 26.3982 12.2276V13.9984H24.3159C24.2195 13.9984 24.1421 14.0728 24.1421 14.1642V15.8693C24.1421 15.9613 24.2201 16.0351 24.3159 16.0351H26.3982V17.7731C26.3982 18.069 26.7734 18.2172 26.9926 18.008L29.8983 15.2353C30.034 15.1058 30.034 14.8955 29.8983 14.7654Z" fill="white"/>
</svg>
