<svg width="30" height="30" viewBox="0 0 30 30" fill="none" xmlns="http://www.w3.org/2000/svg">
<g clip-path="url(#clip0_695_20726)">
<path d="M29.7117 26.6311L25.4479 22.3632L27.8543 20.9229C28.1338 20.7518 28.2885 20.4337 28.2492 20.1085C28.21 19.7833 27.985 19.5102 27.6732 19.4106L21.4125 17.4079C22.1988 16.106 22.6975 14.6687 22.902 13.1071C23.3725 9.50947 22.3658 6.33193 19.9107 3.66298C18.2039 1.80673 16.0998 0.644805 13.6576 0.208868C9.88418 -0.464961 6.5373 0.493652 3.70957 3.05478C1.73379 4.84482 0.520898 7.14872 0.105469 9.90204C0.0767578 10.0919 0.0544922 10.2835 0.0322266 10.4751L0 10.7517V12.2663L0.0011719 12.2798C0.0152344 12.3835 0.028125 12.4878 0.0410157 12.5921C0.0691407 12.8183 0.0978516 13.0444 0.134766 13.2694C0.684961 16.5817 2.37773 19.2202 5.16621 21.111C6.54727 22.0479 8.14043 22.6532 9.90117 22.911C10.0893 22.9386 10.2779 22.9608 10.4666 22.9831L10.7508 23.0165L12.2801 23.0153C12.4096 22.9971 12.5396 22.9796 12.6697 22.9626C12.951 22.9251 13.2322 22.8876 13.5117 22.839C14.9104 22.5964 16.2076 22.1171 17.39 21.4098L19.3986 27.6852C19.4953 27.9975 19.7666 28.2237 20.0912 28.2618C20.4205 28.304 20.7439 28.1475 20.915 27.8628L22.3518 25.4622L26.6156 29.7261C26.7908 29.9019 27.0287 30.0003 27.2766 30.0003C27.5244 30.0003 27.7623 29.9019 27.9375 29.7261L29.7123 27.953C29.8881 27.7778 29.9865 27.5399 29.9865 27.2921C29.9865 27.0442 29.8881 26.8063 29.7123 26.6311H29.7117ZM20.4275 17.0927L17.9221 16.2905L17.2301 16.069C16.8967 15.9624 16.5316 16.0509 16.2844 16.2987C16.1109 16.471 16.016 16.7001 16.0096 16.9368C15.5982 16.396 15.1775 15.8376 14.7357 15.2475C14.7211 15.2282 14.7111 15.172 14.7199 15.1351C15.0434 13.8208 15.3709 12.5071 15.7049 11.1952C15.7113 11.1706 15.7564 11.1214 15.7887 11.1108C17.1504 10.6497 18.4107 10.2302 19.6424 9.82645C19.6453 9.82587 19.65 9.82528 19.6547 9.82528C19.6834 9.82528 19.7344 9.84109 19.7484 9.85632C20.4662 10.7065 21.2004 11.586 21.9293 12.472C21.9539 12.5018 21.9674 12.5552 21.982 12.6114C21.9885 12.636 21.9949 12.6618 22.0025 12.6858C21.7857 14.31 21.2695 15.7526 20.4275 17.0927ZM14.127 13.4745L13.8135 14.7325C13.7924 14.8181 13.7766 14.8321 13.6939 14.8321H13.6893C12.9615 14.8292 12.2344 14.8274 11.5066 14.8274C10.7789 14.8274 10.0518 14.8292 9.32402 14.8321C9.24316 14.8304 9.22148 14.8198 9.20039 14.7325L8.87227 13.4147C8.67363 12.6202 8.47559 11.8251 8.28164 11.0294C8.27227 10.9919 8.29746 10.9087 8.31914 10.8911C9.28125 10.1124 10.2486 9.33953 11.216 8.56726L11.5096 8.33466L13.7707 10.1423C14.0695 10.3802 14.3783 10.6263 14.6748 10.8764C14.7094 10.9052 14.7393 10.996 14.7316 11.0294C14.5336 11.845 14.3303 12.66 14.127 13.4739V13.4745ZM20.4316 9.00614C20.5758 8.35341 20.7287 7.70301 20.8822 7.05203L20.9373 6.82235C21.4764 7.70653 22.0154 9.8042 22.0248 11.0517L21.8596 10.8542C21.3979 10.3011 20.9367 9.74793 20.4814 9.18953C20.4445 9.14442 20.4205 9.05537 20.4311 9.00557L20.4316 9.00614ZM15.8625 1.96259C15.9076 1.96259 15.9539 1.97079 15.9867 1.98602C17.6842 2.787 19.0881 3.97528 20.1592 5.51747C20.1885 5.56024 20.2043 5.64287 20.1926 5.69385C20.0789 6.19307 19.9617 6.6911 19.8451 7.18974C19.7238 7.70712 19.6025 8.22449 19.4848 8.74304C19.4648 8.83093 19.4379 8.85966 19.3465 8.89013C18.068 9.31259 16.79 9.73798 15.5145 10.1704C15.4283 10.1991 15.3879 10.1903 15.3135 10.1306C14.8822 9.78368 14.4504 9.43799 14.0186 9.09229C13.3787 8.58018 12.7389 8.06807 12.102 7.55185C12.0539 7.51318 12.0094 7.41943 12.0082 7.35556C11.9994 6.87919 12.0006 6.40224 12.0018 5.92471L12.0029 4.96492C12.0035 4.5073 12.0047 4.0497 11.9994 3.59208C11.9982 3.49072 12.0164 3.46317 12.1066 3.42743C12.6609 3.20946 13.2141 2.98857 13.7678 2.76825C14.4316 2.504 15.0949 2.23915 15.76 1.97841C15.7887 1.96786 15.8256 1.96199 15.8631 1.96199L15.8625 1.96259ZM14.5137 1.4206L14.2875 1.51083C13.367 1.87822 12.4629 2.23914 11.5582 2.59774C11.5324 2.6077 11.4902 2.61004 11.4686 2.60126C10.4965 2.2204 9.525 1.83661 8.54766 1.44989L8.47266 1.42C9.74414 0.856324 12.8848 0.855152 14.5137 1.42V1.4206ZM2.84473 5.53446C3.92695 3.9747 5.34141 2.77704 7.05 1.97606C7.06934 1.96669 7.09746 1.96259 7.12676 1.96259C7.15605 1.96259 7.19004 1.96786 7.21582 1.97724C7.82402 2.21571 8.43164 2.45535 9.03867 2.69558C9.67031 2.94519 10.302 3.19482 10.9342 3.44208C11.0045 3.46962 11.0162 3.48837 11.0156 3.57744C11.0127 4.04736 11.0127 4.51728 11.0133 4.98721L11.0145 5.93875C11.0156 6.40574 11.0168 6.87273 11.0074 7.33914C11.0063 7.41297 10.96 7.51376 10.909 7.55477C10.3383 8.01766 9.76465 8.47704 9.19102 8.93642C8.69883 9.33075 8.20664 9.72507 7.71621 10.1212C7.63242 10.1891 7.57852 10.1991 7.47481 10.1634C6.21973 9.74032 4.96348 9.32078 3.70605 8.90769C3.58652 8.86844 3.54375 8.821 3.51621 8.69795C3.39082 8.1419 3.26133 7.587 3.13184 7.03212C3.02754 6.58564 2.92324 6.13915 2.8207 5.69208C2.80957 5.64168 2.82012 5.56787 2.84414 5.53389L2.84473 5.53446ZM2.07715 6.82996L2.39941 8.187C2.46445 8.46005 2.52891 8.73251 2.58516 9.00731C2.59629 9.06122 2.58105 9.13447 2.56172 9.15849C2.0748 9.7538 1.58203 10.3444 1.08926 10.935L0.991406 11.0528C1.00664 9.77549 1.5375 7.72119 2.07773 6.83056L2.07715 6.82996ZM2.7709 17.2503C2.72227 17.2421 2.65781 17.2034 2.63555 17.1682C1.74551 15.7743 1.20996 14.2544 1.04414 12.6495L1.03184 12.5505C1.04531 12.5259 1.06348 12.4925 1.0875 12.4632L1.82461 11.5767C2.2998 11.0054 2.77559 10.4341 3.24785 9.86044C3.2959 9.80243 3.31758 9.79657 3.39961 9.82411C3.86367 9.97997 4.32832 10.1353 4.79297 10.2899C5.59102 10.5565 6.38965 10.8231 7.18652 11.0944C7.23516 11.1114 7.30371 11.1876 7.31719 11.2415C7.64414 12.5071 7.96934 13.8026 8.28398 15.0923C8.29805 15.1497 8.2752 15.2493 8.23652 15.3021C7.66816 16.0731 7.07051 16.87 6.4084 17.7384C6.37734 17.7788 6.30469 17.8151 6.27656 17.811C5.21895 17.6493 4.10449 17.4712 2.77031 17.2497L2.7709 17.2503ZM3.525 18.3677L3.67676 18.3911C3.99023 18.4386 4.28262 18.4837 4.575 18.53L4.79648 18.5651C5.24883 18.636 5.70117 18.7069 6.15234 18.7854C6.22148 18.7972 6.28535 18.8317 6.30176 18.8575C6.78164 19.597 7.25566 20.3399 7.72969 21.0829L7.90899 21.363C6.19512 20.7659 4.75605 19.7833 3.525 18.3682V18.3677ZM13.8527 21.7778C12.3662 22.1142 10.8826 22.1347 9.44414 21.8353C9.4002 21.8265 9.34395 21.7889 9.32168 21.7544C8.52481 20.518 7.83281 19.4335 7.20586 18.4392C7.19238 18.4151 7.19824 18.3337 7.21465 18.3108C7.80762 17.5069 8.42227 16.6866 9.04219 15.8745C9.06914 15.8388 9.14531 15.8042 9.1957 15.8036C9.95625 15.8007 10.7227 15.7989 11.5084 15.7989C12.2941 15.7989 13.0289 15.8007 13.8246 15.8036C13.8762 15.8036 13.9441 15.8353 13.9641 15.861C14.502 16.5612 15.0352 17.2643 15.5754 17.9786L15.8889 18.3923L15.5877 18.9202C15.0568 19.8507 14.5295 20.7753 13.9969 21.6964C13.9805 21.7239 13.9189 21.7638 13.8527 21.7784V21.7778ZM15.3434 21.3161L15.6979 20.6962C16.0113 20.1489 16.3242 19.6011 16.633 19.0514L17.0783 20.4425C16.5369 20.7794 15.9598 21.07 15.3428 21.3167L15.3434 21.3161ZM27.276 28.9755L22.6043 24.3038C22.5105 24.2101 22.384 24.1573 22.2516 24.1573C22.2311 24.1573 22.2111 24.1585 22.1906 24.1614C22.0383 24.1802 21.9029 24.2686 21.8238 24.4005L20.2412 27.046L18.2549 20.8368L17.9373 19.8442L17.5623 18.6718L17.2611 17.7313L17.0461 17.0599L18.5215 17.5315L20.8348 18.2716L27.0322 20.2544L24.3867 21.837C24.2549 21.9161 24.167 22.0515 24.1482 22.2038C24.1295 22.3562 24.1816 22.5091 24.29 22.6175L28.9752 27.2763L27.2754 28.9755H27.276Z" fill="#828282"/>
</g>
<defs>
<clipPath id="clip0_695_20726">
<rect width="30" height="30" fill="white"/>
</clipPath>
</defs>
</svg>
