<svg width="30" height="30" viewBox="0 0 30 30" fill="none" xmlns="http://www.w3.org/2000/svg">
<path d="M28.1768 14.55C28.1768 18.361 28.1768 22.1661 28.1768 25.9771C28.1768 27.7649 26.7183 29.1529 24.9304 29.0411C24.607 29.0235 24.2835 28.9176 23.9777 28.8118C23.2131 28.5412 22.4545 28.2531 21.6958 27.959C20.9254 27.665 20.1961 27.7061 19.4492 28.0766C18.2553 28.6648 17.0497 29.2176 15.8264 29.741C14.9677 30.1115 14.0797 30.0762 13.221 29.6881C12.1271 29.1941 11.0391 28.6942 9.94524 28.1943C9.06895 27.7885 8.17501 27.7532 7.26343 28.0296C6.32833 28.3119 5.41087 28.653 4.45812 28.8588C2.77611 29.2235 1 27.7532 1 26.0359C1 18.361 1 10.6802 1 3.00527C1 1.435 2.21152 0.152903 3.78767 0.0293986C3.95234 0.0176363 4.11701 0.00587793 4.28169 0.00587793C11.1568 0.00587793 18.0318 0.0176435 24.9069 0C26.6889 0 27.671 1.04684 27.9945 2.01723C28.1121 2.3701 28.1651 2.75238 28.1709 3.12289C28.1827 6.93388 28.1768 10.739 28.1768 14.55ZM14.5443 12.4151C12.0213 12.4151 9.49827 12.4151 6.96937 12.4151C6.29892 12.4151 5.90488 12.8033 5.84607 13.4796C5.78726 14.1207 6.17542 14.65 6.79882 14.7676C6.95761 14.797 7.12816 14.8087 7.29284 14.8087C12.1624 14.8087 17.0379 14.8087 21.9075 14.8087C22.0722 14.8087 22.2604 14.8323 22.3956 14.7617C22.6603 14.6264 22.9485 14.4853 23.1249 14.2618C23.3954 13.9207 23.419 13.4972 23.1955 13.0973C22.9544 12.6739 22.6015 12.4092 22.0839 12.4092C19.5727 12.4092 17.0614 12.4092 14.5443 12.4092V12.4151ZM14.5914 8.75704C15.2383 8.75704 15.8911 8.75704 16.538 8.75704C18.4141 8.75704 20.2902 8.75704 22.1663 8.75704C22.7779 8.75704 23.2308 8.35124 23.319 7.769C23.4131 7.16324 23.1249 6.63394 22.5603 6.45751C22.331 6.38693 22.0722 6.36928 21.8311 6.36928C17.0085 6.36928 12.1801 6.36928 7.35753 6.36928C7.18109 6.36928 6.99878 6.36929 6.82822 6.41046C6.32833 6.53396 5.99898 6.85743 5.88136 7.35732C5.71668 8.06894 6.33421 8.76292 7.12816 8.76292C9.61589 8.76292 12.1036 8.76292 14.5972 8.76292L14.5914 8.75704ZM10.8392 18.4433C9.59237 18.4433 8.33968 18.4374 7.09288 18.4433C6.34009 18.4433 5.82255 18.9726 5.84019 19.6842C5.85783 20.4311 6.3048 20.8487 7.09288 20.8546C9.55708 20.8546 12.0213 20.8546 14.4855 20.8546C15.2677 20.8546 15.797 20.3547 15.797 19.6313C15.797 18.8726 15.3206 18.4433 14.4855 18.4433C13.274 18.4433 12.0566 18.4433 10.8451 18.4433H10.8392Z" fill="white"/>
</svg>
