<svg width="30" height="30" viewBox="0 0 30 30" fill="none" xmlns="http://www.w3.org/2000/svg">
<g clip-path="url(#clip0_695_20757)">
<path d="M7.81689 14.9765C7.81689 18.9263 11.0301 22.1395 14.9799 22.1395C18.9296 22.1395 22.1429 18.9263 22.1429 14.9765C21.784 5.48927 8.17703 5.48666 7.81689 14.9765ZM19.8583 12.5188L19.1406 17.9911C19.0983 18.3154 18.8222 18.5577 18.4953 18.5577H11.4645C11.1376 18.5577 10.8614 18.3154 10.8191 17.9911L10.1014 12.5188C10.0682 12.2641 10.1874 12.0134 10.4069 11.8792C10.6257 11.7451 10.9038 11.7522 11.1154 11.8975L13.0372 13.2149L14.4322 11.043C14.6692 10.649 15.2912 10.649 15.5282 11.043L16.9232 13.2149L18.845 11.8975C19.0566 11.7522 19.3347 11.7451 19.5535 11.8792C19.7723 12.0134 19.8922 12.2641 19.859 12.5188H19.8583Z" fill="white"/>
<path d="M16.6085 14.77C16.436 14.7349 16.2849 14.632 16.1898 14.4835L14.9798 12.6001L13.7698 14.4835C13.6747 14.6313 13.5236 14.7349 13.351 14.77C13.1785 14.8052 12.9987 14.7681 12.8535 14.6691L11.5823 13.7971L12.0355 17.2565H17.9234L18.3767 13.7977L17.1054 14.6697C16.9602 14.7694 16.7805 14.8059 16.6079 14.7707L16.6085 14.77Z" fill="white"/>
<path d="M21.9572 8.04287C20.0986 6.18423 17.6285 5.16113 15.0001 5.16113C12.3717 5.16113 9.9015 6.18488 8.04286 8.04287C6.18423 9.90085 5.16113 12.3717 5.16113 15.0001C5.16113 17.6285 6.18488 20.0986 8.04286 21.9572C9.90085 23.8159 12.3717 24.839 15.0001 24.839C17.6285 24.839 20.0986 23.8152 21.9572 21.9572C23.8159 20.0993 24.839 17.6285 24.839 15.0001C24.839 12.3717 23.8152 9.90151 21.9572 8.04287ZM6.51441 14.9773C6.51441 10.3092 10.3118 6.5118 14.9799 6.5118C19.648 6.5118 23.4453 10.3092 23.4453 14.9773C23.0214 26.1897 6.94032 26.1923 6.51441 14.9773Z" fill="white"/>
<path d="M15 0C6.71558 0 0 6.71559 0 15C0 23.2844 6.71558 30 15 30C23.2844 30 30 23.2844 30 15C30 6.71559 23.2844 0 15 0ZM24.2522 25.1001L22.5068 23.3548C20.6625 25.0187 18.2634 26.0789 15.6206 26.2235V28.6832C15.4148 28.6923 15.2077 28.6975 15.0007 28.6975C14.7675 28.6975 14.535 28.6917 14.3032 28.6799V26.2189C11.693 26.0594 9.32444 25.0076 7.49772 23.3645L5.75566 25.1066C5.60587 24.9698 5.45869 24.8292 5.31476 24.6852C5.1474 24.5179 4.98524 24.3466 4.82699 24.1714L6.57166 22.4267C4.96505 20.5994 3.94391 18.2458 3.79998 15.6577H1.31811C1.30769 15.4389 1.30248 15.2195 1.30248 14.9994C1.30248 14.7792 1.30769 14.5591 1.31811 14.3403H3.80324C3.96214 11.7015 5.03343 9.30817 6.70647 7.47297L4.939 5.70552C5.06143 5.57266 5.18647 5.44176 5.31476 5.31347C5.49841 5.12982 5.68662 4.95332 5.87874 4.7814L7.65011 6.55278C9.46316 4.97939 11.7861 3.97843 14.3383 3.8306V1.31746C14.5585 1.30704 14.7792 1.30183 15.0007 1.30183C15.2221 1.30183 15.4383 1.30704 15.6558 1.31746V3.8306C18.2334 3.97973 20.5772 4.99957 22.3981 6.60032L24.1727 4.82569C24.3472 4.98329 24.5192 5.1461 24.6865 5.31347C24.8305 5.45739 24.9711 5.60458 25.1079 5.75436L23.3359 7.52638C24.9392 9.30817 25.9799 11.6064 26.1779 14.1417H28.6715C28.6891 14.4263 28.6988 14.7115 28.6988 14.9994C28.6988 15.153 28.6956 15.3067 28.6904 15.4598H26.2033C26.1023 18.1201 25.074 20.5434 23.4329 22.4157L25.1815 24.1642C25.0213 24.3414 24.8572 24.5153 24.6872 24.6852C24.5452 24.8272 24.4006 24.9646 24.2535 25.0994L24.2522 25.1001Z" fill="white"/>
</g>
<defs>
<clipPath id="clip0_695_20757">
<rect width="30" height="30" fill="white"/>
</clipPath>
</defs>
</svg>
