<svg width="30" height="30" viewBox="0 0 30 30" fill="none" xmlns="http://www.w3.org/2000/svg">
<g clip-path="url(#clip0_695_20763)">
<path fill-rule="evenodd" clip-rule="evenodd" d="M9.64282 18.1872V19.2524C11.5436 19.0977 13.2756 18.1004 14.3631 16.5337C14.154 16.1616 13.9776 15.7726 13.8352 15.3706C12.995 16.9497 11.4223 18.0061 9.64282 18.1872Z" fill="white"/>
<path d="M13.3929 12.857C13.3929 10.4899 11.4739 8.57153 9.10733 8.57153C6.74072 8.57153 4.82178 10.4904 4.82178 12.857C4.82178 15.2236 6.74072 17.1425 9.10733 17.1425C11.4733 17.1395 13.3905 15.2224 13.3929 12.857ZM11.4165 13.6533C11.2677 13.8783 11.0708 14.0681 10.8399 14.2076L10.9905 14.664C11.0983 14.9904 11.0427 15.3489 10.8417 15.6278C10.6401 15.9067 10.3173 16.0714 9.97334 16.0714H8.24072C7.89678 16.0714 7.57392 15.9067 7.37236 15.6278C7.1708 15.3489 7.11514 14.9909 7.22295 14.664L7.37236 14.2111C7.14209 14.0716 6.94521 13.8824 6.79697 13.6574C6.49756 13.1986 6.39267 12.6402 6.50517 12.1041C6.80752 10.8695 7.62607 9.82542 8.75224 9.23657L8.75518 9.24066C8.84775 9.15921 8.96552 9.11235 9.08916 9.10766C9.2081 9.10356 9.32471 9.1393 9.4208 9.20961C9.83916 9.44926 10.2259 9.74104 10.5716 10.0768C11.1458 10.6246 11.5425 11.3318 11.7101 12.1076C11.8202 12.6414 11.7147 13.1974 11.4165 13.6539V13.6533Z" fill="white"/>
<path d="M23.0355 15.5352C23.3313 15.5352 23.5711 15.2954 23.5711 14.9997C23.5711 14.7039 23.3313 14.4641 23.0355 14.4641C22.7398 14.4641 22.5 14.7039 22.5 14.9997C22.5 15.2954 22.7398 15.5352 23.0355 15.5352Z" fill="white"/>
<path fill-rule="evenodd" clip-rule="evenodd" d="M9.64282 6.46216V7.52737C11.4223 7.70842 12.995 8.76485 13.8352 10.3439C13.9776 9.94197 14.154 9.55293 14.3631 9.18086C13.2756 7.6141 11.5436 6.61684 9.64282 6.46216Z" fill="white"/>
<path fill-rule="evenodd" clip-rule="evenodd" d="M4.96006 17.7617C5.97783 18.6254 7.24111 19.1486 8.57119 19.2588V18.1871C7.52412 18.0828 6.53213 17.6703 5.71885 17.0029L4.95947 17.7623L4.96006 17.7617Z" fill="white"/>
<path d="M18.7501 11.2498C19.0459 11.2498 19.2857 11.01 19.2857 10.7143C19.2857 10.4185 19.0459 10.1787 18.7501 10.1787C18.4544 10.1787 18.2146 10.4185 18.2146 10.7143C18.2146 11.01 18.4544 11.2498 18.7501 11.2498Z" fill="white"/>
<path fill-rule="evenodd" clip-rule="evenodd" d="M9.81799 10.8372C9.60237 10.6257 9.36506 10.4371 9.11017 10.2742C8.33498 10.7165 7.77248 11.4554 7.55334 12.3208C7.49944 12.5769 7.54865 12.8434 7.68869 13.0638C7.79064 13.2249 7.95354 13.3374 8.13987 13.3761C8.29104 13.4054 8.42229 13.4985 8.49963 13.6309C8.57698 13.7634 8.59455 13.9233 8.54592 14.0698L8.24006 14.9991H9.97268L9.66448 14.0651C9.61526 13.9186 9.63166 13.7581 9.70959 13.6251C9.78752 13.4921 9.91877 13.3983 10.0699 13.369C10.2574 13.3304 10.4209 13.2179 10.5235 13.0567C10.6641 12.8394 10.7127 12.5745 10.6594 12.3214C10.5328 11.7536 10.2393 11.2368 9.81682 10.8372H9.81799Z" fill="white"/>
<path d="M1.60723 25.7139H28.3928C29.2805 25.7139 30 24.9944 30 24.1067V22.4995H0V24.1067C0 24.9944 0.719531 25.7139 1.60723 25.7139ZM13.3928 23.5712H16.6072C16.9031 23.5712 17.1428 23.8108 17.1428 24.1067C17.1428 24.4026 16.9031 24.6422 16.6072 24.6422H13.3928C13.0969 24.6422 12.8572 24.4026 12.8572 24.1067C12.8572 23.8108 13.0969 23.5712 13.3928 23.5712Z" fill="white"/>
<path fill-rule="evenodd" clip-rule="evenodd" d="M10.7139 26.7856H19.2855V27.8573H10.7139V26.7856Z" fill="white"/>
<path fill-rule="evenodd" clip-rule="evenodd" d="M7.4999 28.9282C6.9081 28.9282 6.42822 29.4081 6.42822 29.9999H23.571C23.571 29.4081 23.0911 28.9282 22.4993 28.9282H7.49931H7.4999Z" fill="white"/>
<path fill-rule="evenodd" clip-rule="evenodd" d="M8.57109 7.52748V6.45581C7.24043 6.56597 5.97773 7.0892 4.95996 7.95287L5.71934 8.71226C6.53203 8.04429 7.52461 7.63236 8.57168 7.52806L8.57109 7.52748Z" fill="white"/>
<path fill-rule="evenodd" clip-rule="evenodd" d="M3.777 13.3932H2.70532C2.81548 14.7238 3.33872 15.9865 4.20239 17.0042L4.96176 16.2449C4.2938 15.4322 3.88188 14.4396 3.77759 13.3926L3.777 13.3932Z" fill="white"/>
<path fill-rule="evenodd" clip-rule="evenodd" d="M4.96176 9.46907L4.20239 8.70972C3.33872 9.72747 2.81548 10.9907 2.70532 12.3208H3.777C3.8813 11.2737 4.2938 10.2818 4.96118 9.46849L4.96176 9.46907Z" fill="white"/>
<path d="M20.8927 6.42871C17.3425 6.42871 14.4644 9.30679 14.4644 12.8569C14.4644 16.407 17.3425 19.2851 20.8927 19.2851C24.4429 19.2851 27.321 16.407 27.321 12.8569C27.3169 9.30796 24.4411 6.43223 20.8927 6.42871ZM17.1427 10.7142C17.1427 10.0644 17.5341 9.47787 18.1347 9.22944C18.7353 8.98101 19.4267 9.11811 19.886 9.57806C20.3454 10.038 20.4831 10.7288 20.2347 11.3294C19.9856 11.93 19.3997 12.3214 18.7499 12.3214C17.8622 12.3214 17.1427 11.6019 17.1427 10.7142ZM18.5929 15.9143C18.3825 16.117 18.0485 16.1147 17.8417 15.9078C17.6349 15.701 17.6319 15.367 17.8353 15.1567L23.1925 9.79955C23.4028 9.59681 23.7368 9.59916 23.9437 9.806C24.1505 10.0128 24.1534 10.3468 23.9501 10.5572L18.5929 15.9143ZM23.0355 16.6068C22.1478 16.6068 21.4282 15.8873 21.4282 14.9996C21.4282 14.112 22.1478 13.3924 23.0355 13.3924C23.9231 13.3924 24.6427 14.112 24.6427 14.9996C24.6427 15.8873 23.9231 16.6068 23.0355 16.6068Z" fill="white"/>
<path d="M30 1.60721C30 0.719528 29.2805 0 28.3928 0H1.60723C0.719531 0 0 0.719528 0 1.60721V21.4285H30V1.60721ZM6.42832 1.07166C6.72422 1.07166 6.96387 1.31131 6.96387 1.60721C6.96387 1.9031 6.72422 2.14274 6.42832 2.14274C6.13242 2.14274 5.89277 1.9031 5.89277 1.60721C5.89277 1.31131 6.13242 1.07166 6.42832 1.07166ZM4.28555 1.07166C4.58145 1.07166 4.8211 1.31131 4.8211 1.60721C4.8211 1.9031 4.58145 2.14274 4.28555 2.14274C3.98965 2.14274 3.75 1.9031 3.75 1.60721C3.75 1.31131 3.98965 1.07166 4.28555 1.07166ZM2.14277 1.07166C2.43867 1.07166 2.67832 1.31131 2.67832 1.60721C2.67832 1.9031 2.43867 2.14274 2.14277 2.14274C1.84688 2.14274 1.60723 1.9031 1.60723 1.60721C1.60723 1.31131 1.84688 1.07166 2.14277 1.07166ZM20.8928 20.3568C18.5924 20.3557 16.4203 19.2963 15.0023 17.4846C13.6828 19.1709 11.7041 20.2115 9.56719 20.3428C7.43028 20.474 5.33906 19.6848 3.82266 18.1731C3.8168 18.1678 3.80918 18.1661 3.80391 18.1602C3.79864 18.1543 3.79629 18.1473 3.79102 18.1414C0.878907 15.2206 0.878907 10.4939 3.79102 7.57309C3.79629 7.56724 3.79805 7.55963 3.80391 7.55436C3.80977 7.54908 3.8168 7.54673 3.82266 7.54145C5.33906 6.02976 7.43028 5.23995 9.56719 5.37178C11.7041 5.50361 13.6828 6.54362 15.0023 8.22992C17.1674 5.4743 20.9531 4.58663 24.1178 6.09246C27.2824 7.59829 28.9811 11.0963 28.2082 14.5146C27.4354 17.9329 24.3967 20.3598 20.8922 20.3574L20.8928 20.3568ZM28.3928 4.28547H1.60723C1.31133 4.28547 1.07168 4.04582 1.07168 3.74993C1.07168 3.45403 1.31133 3.2144 1.60723 3.2144H28.3928C28.6887 3.2144 28.9283 3.45403 28.9283 3.74993C28.9283 4.04582 28.6887 4.28547 28.3928 4.28547Z" fill="white"/>
</g>
<defs>
<clipPath id="clip0_695_20763">
<rect width="30" height="30" fill="white"/>
</clipPath>
</defs>
</svg>
