<svg width="30" height="31" viewBox="0 0 30 31" fill="none" xmlns="http://www.w3.org/2000/svg">
<path d="M28.9998 22.9884H28.5V14.5259L29.26 13.3605C29.4768 13.0265 29.5518 12.6205 29.4686 12.2314C29.3854 11.8424 29.1516 11.5019 28.8176 11.2857L28.4994 11.0783V5.48916C28.4994 4.66066 27.828 3.98919 26.9995 3.98919H22.4076C22.1966 3.39213 21.633 2.99194 20.9996 2.98901H8.99983C8.36644 2.99136 7.80278 3.39213 7.59185 3.98919H2.99995C2.17145 3.98919 1.49998 4.66066 1.49998 5.48916V11.0783L1.18475 11.284C0.489254 11.7357 0.290621 12.6656 0.741784 13.3617L1.49998 14.5241V22.9884H1.00018C0.447652 22.9884 0 23.4361 0 23.9886V25.4886C0.00175778 26.8684 1.11971 27.987 2.50015 27.9887H27.4999C28.8797 27.987 29.9982 26.869 30 25.4886V23.9886C30 23.4361 29.5524 22.9884 28.9998 22.9884ZM27.4999 22.9884H22.983L27.4999 16.0593V22.9884ZM27.4999 5.48858V10.4256L26.2501 9.60939L26.4188 8.98011C26.5225 8.59574 26.4698 8.18618 26.2712 7.84107C26.0725 7.49596 25.745 7.24401 25.3606 7.1403L22.5001 6.37508V4.98878H27.0001C27.276 4.98878 27.4999 5.2126 27.4999 5.48858ZM9.00042 3.98861H21.0002C21.2761 3.98861 21.5 4.21243 21.5 4.4884V20.4883C21.5 20.7643 21.7238 20.9881 21.9998 20.9881C22.2757 20.9881 22.4996 20.7643 22.4996 20.4883V7.40982L25.0993 8.1059C25.3659 8.17739 25.5241 8.4516 25.4526 8.71761L23.5161 15.9538C23.4499 16.2186 23.6087 16.4876 23.8724 16.5579C24.1361 16.6282 24.4073 16.4741 24.4823 16.2122L25.977 10.626L28.2733 12.1259C28.5047 12.2765 28.5703 12.5859 28.4203 12.8173L21.7888 22.9884H8.21234L1.58142 12.8173C1.50818 12.7054 1.48298 12.5689 1.51111 12.4388C1.53923 12.3088 1.61833 12.1945 1.73141 12.1224L4.02532 10.6266L5.51943 16.2122C5.56337 16.3874 5.69814 16.5257 5.87216 16.5737C6.04618 16.6218 6.2325 16.572 6.35964 16.4436C6.48679 16.3153 6.53484 16.1284 6.48503 15.9544L4.54972 8.71703C4.47941 8.45219 4.63526 8.17973 4.89951 8.10649L7.49927 7.40982V20.4883C7.49927 20.7643 7.72309 20.9881 7.99906 20.9881C8.27503 20.9881 8.49886 20.7643 8.49886 20.4883V4.4884C8.49886 4.21243 8.72269 3.98861 8.99866 3.98861H9.00042ZM20.3094 23.988L19.9502 24.7116C19.8652 24.8821 19.6906 24.9894 19.5002 24.9882H10.5004C10.3111 24.9882 10.1377 24.881 10.0527 24.7116L9.69122 23.988H20.3088H20.3094ZM2.50074 5.48858C2.50074 5.2126 2.72456 4.98878 3.00053 4.98878H7.50044V6.37508L4.63937 7.14088C3.84075 7.35709 3.3679 8.17856 3.58235 8.97776L3.75051 9.60998L2.50074 10.4262V5.48858ZM2.50074 16.0581L7.01881 22.9884H2.50074V16.0581ZM29.0004 25.4886C29.0004 26.3171 28.3289 26.9886 27.5004 26.9886H2.50074C1.67224 26.9886 1.00077 26.3171 1.00077 25.4886V23.9886H8.57386L9.15861 25.1599C9.41115 25.6696 9.93204 25.9907 10.5004 25.989H19.5002C20.0691 25.9913 20.5894 25.6696 20.842 25.1599L21.4267 23.9892H28.9998V25.4892L29.0004 25.4886Z" fill="#828282"/>
<path d="M2.50028 25.9884C2.77631 25.9884 3.00008 25.7646 3.00008 25.4886C3.00008 25.2125 2.77631 24.9888 2.50028 24.9888C2.22426 24.9888 2.00049 25.2125 2.00049 25.4886C2.00049 25.7646 2.22426 25.9884 2.50028 25.9884Z" fill="#828282"/>
<path d="M4.4998 25.9884C4.77583 25.9884 4.99959 25.7646 4.99959 25.4886C4.99959 25.2125 4.77583 24.9888 4.4998 24.9888C4.22377 24.9888 4 25.2125 4 25.4886C4 25.7646 4.22377 25.9884 4.4998 25.9884Z" fill="#828282"/>
<path d="M7.50021 24.9883H6.50004C6.22407 24.9883 6.00024 25.2121 6.00024 25.4881C6.00024 25.764 6.22407 25.9879 6.50004 25.9879H7.50021C7.77618 25.9879 8.00001 25.764 8.00001 25.4881C8.00001 25.2121 7.77618 24.9883 7.50021 24.9883Z" fill="#828282"/>
<path d="M11.7702 9.43243C11.9144 9.50684 12.086 9.50684 12.2302 9.43243C14.2053 8.41058 14.5001 7.25396 14.5001 6.65515C14.5258 6.23445 14.3811 5.82078 14.0993 5.5079C13.8175 5.19443 13.4214 5.00752 13.0001 4.98877C12.6409 4.98936 12.2905 5.10361 11.9999 5.31455C11.7093 5.10303 11.3595 4.98936 10.9997 4.98877C10.5785 5.00752 10.1824 5.19443 9.90054 5.5079C9.61871 5.82137 9.47398 6.23445 9.49976 6.65515C9.49976 7.25396 9.79507 8.41058 11.7696 9.43243H11.7702ZM11.0003 5.98836C11.2306 5.99305 11.4456 6.10379 11.5827 6.28836C11.6747 6.42546 11.8288 6.50807 11.9941 6.50924H11.9999C12.1657 6.50807 12.321 6.42604 12.4147 6.28952C12.5524 6.10378 12.7687 5.99246 12.9995 5.98836C13.3241 5.98836 13.4993 6.33172 13.4993 6.65515C13.4993 7.24166 12.9561 7.8768 11.9993 8.41996C11.0425 7.8768 10.4994 7.24166 10.4994 6.65515C10.4994 6.3323 10.6751 5.98836 10.9992 5.98836H11.0003Z" fill="#828282"/>
<path d="M12.2057 15.4599L11.0379 18.2964C10.9699 18.4616 10.9951 18.6508 11.1041 18.7921C11.2131 18.9333 11.3895 19.0059 11.5664 18.9825C11.7434 18.959 11.8945 18.8424 11.9625 18.6772L12.9996 16.1548H16.9997L18.0385 18.679C18.1065 18.8442 18.2577 18.9608 18.4346 18.9842C18.6116 19.0077 18.7879 18.9356 18.8969 18.7938C19.0059 18.652 19.0311 18.4634 18.9631 18.2981L17.7954 15.4617L15.4616 9.79809C15.3837 9.61177 15.2021 9.49048 14.9999 9.49048C14.7978 9.49048 14.6162 9.61177 14.5382 9.79809L12.2051 15.4599H12.2057ZM13.4132 15.1546L14.9999 11.3016L16.5866 15.1546H13.4138H13.4132Z" fill="#828282"/>
</svg>
