<svg width="30" height="30" viewBox="0 0 30 30" fill="none" xmlns="http://www.w3.org/2000/svg">
<path fill-rule="evenodd" clip-rule="evenodd" d="M9.51594 26.5C9.23995 26.5 9.01611 26.7239 9.01611 26.9998C9.01611 27.2758 9.23995 27.4997 9.51594 27.4997H20.5162C20.7922 27.4997 21.016 27.2758 21.016 26.9998C21.016 26.7239 20.7922 26.5 20.5162 26.5H9.51594Z" fill="#828282"/>
<path d="M6.01592 23.265V26.5001C6.01826 28.432 7.58395 29.9982 9.51586 30H20.5161C22.448 29.9977 24.0143 28.432 24.016 26.5001V23.265C25.5378 22.546 26.5163 21.3647 26.5163 20V15C26.5163 13.6353 25.5378 12.454 24.016 11.735V3.49994C24.0137 1.56803 22.448 0.00175788 20.5161 0H9.51586C7.58395 0.00234384 6.01768 1.56803 6.01592 3.49994V6.73503C4.49418 7.454 3.51562 8.6353 3.51562 10V20.0006C3.51562 21.3653 4.49418 22.5466 6.01592 23.2656V23.265ZM23.0164 26.5001C23.0146 27.88 21.8966 28.9986 20.5161 29.0003H9.51586C8.13593 28.9986 7.01733 27.8806 7.01557 26.5001V23.6447C7.82712 23.8832 8.66974 24.0027 9.51586 23.9998C12.0097 23.9998 14.0992 23.0335 15.0163 21.6214C15.9327 23.0341 18.0228 23.9998 20.5167 23.9998C21.3628 24.0027 22.2048 23.8832 23.017 23.6447V26.5001H23.0164ZM6.65872 12.4411L7.67477 11.7163C8.10897 11.8598 8.55957 11.9477 9.01604 11.9788V12.9843C8.20507 12.938 7.40816 12.754 6.65872 12.4411ZM6.12139 10.4998C6.24503 10.777 6.43723 11.0178 6.67981 11.2L5.68895 11.9073C5.178 11.5727 4.79302 11.0776 4.59438 10.4998H6.12139ZM9.01604 7.01512V8.02062C8.62051 8.04758 8.22851 8.11672 7.84763 8.22688L6.89779 7.46396C7.5775 7.21024 8.29179 7.05907 9.01662 7.01571L9.01604 7.01512ZM12.1369 7.46513L11.187 8.22806C10.8056 8.11731 10.413 8.04816 10.0163 8.02062V7.01512C10.7417 7.05848 11.456 7.20965 12.1369 7.46337V7.46513ZM12.9109 9.49959C12.7586 9.16735 12.5125 8.88608 12.2037 8.69096L13.1271 7.94914C13.7365 8.29134 14.2018 8.84155 14.4379 9.499H12.9109V9.49959ZM9.51645 10.9997C7.99061 10.9997 7.01615 10.4072 7.01615 9.99941C7.01615 9.59159 7.99002 8.99917 9.51645 8.99917C11.0429 8.99917 12.0167 9.59159 12.0167 9.99941C12.0167 10.4072 11.0429 10.9997 9.51645 10.9997ZM10.0163 11.9788C10.4727 11.9477 10.9233 11.8598 11.3575 11.7163L12.3736 12.4411C11.6241 12.754 10.8272 12.9374 10.0163 12.9843V11.9788ZM13.3434 11.9055L12.3525 11.2C12.5951 11.0178 12.7873 10.777 12.9109 10.4998H14.4379C14.2393 11.077 13.8543 11.5715 13.3434 11.9055ZM23.1371 12.464L22.1873 13.2269C21.8052 13.1167 21.4132 13.0476 21.0165 13.0206V12.0151C21.7419 12.0585 22.4568 12.2097 23.1371 12.4634V12.464ZM25.4382 15.4998C25.2395 16.077 24.8546 16.5716 24.3436 16.9056L23.3527 16.2001C23.5953 16.0178 23.7875 15.777 23.9112 15.4998H25.4382ZM17.6595 17.4411L18.6756 16.7163C19.1098 16.8598 19.5604 16.9477 20.0169 16.9788V17.9843C19.2059 17.938 18.409 17.754 17.6595 17.4411ZM17.1222 15.4998C17.2459 15.777 17.4381 16.0178 17.6806 16.2001L16.6898 16.9073C16.1788 16.5727 15.7938 16.0776 15.5952 15.4998H17.1222ZM20.5167 13.9998C22.0425 13.9998 23.017 14.5922 23.017 15C23.017 15.4078 22.0431 16.0002 20.5167 16.0002C18.9903 16.0002 18.0164 15.4078 18.0164 15C18.0164 14.5922 18.9903 13.9998 20.5167 13.9998ZM21.0165 16.9788C21.473 16.9477 21.9236 16.8598 22.3578 16.7163L23.3738 17.4411C22.6244 17.754 21.8275 17.9374 21.0165 17.9843V16.9788ZM20.0163 13.0206C19.6208 13.0476 19.2287 13.1167 18.8479 13.2269L17.898 12.464C18.5783 12.2091 19.2932 12.0579 20.0186 12.014L20.0169 13.0212L20.0163 13.0206ZM16.9054 12.9497L17.8289 13.6892C17.5195 13.8849 17.2734 14.1668 17.1216 14.4996H15.5946C15.8308 13.8421 16.2966 13.2913 16.9054 12.9497ZM25.5161 20C25.5161 21.626 23.2262 23.0001 20.5161 23.0001C17.806 23.0001 15.5161 21.626 15.5161 20V19.7387C16.582 20.808 18.4055 21.5001 20.5161 21.5001C22.6267 21.5001 24.4502 20.808 25.5161 19.7387V20ZM25.5161 17.4997C25.5161 19.1258 23.2262 20.4998 20.5161 20.4998C17.806 20.4998 15.5161 19.1258 15.5161 17.4997V17.2384C16.582 18.3078 18.4055 18.9998 20.5161 18.9998C22.6267 18.9998 24.4502 18.3078 25.5161 17.2384V17.4997ZM25.4376 14.4996H23.9106C23.7582 14.1674 23.5121 13.8861 23.2033 13.691L24.1268 12.9491C24.7362 13.2913 25.2014 13.8416 25.4376 14.499V14.4996ZM19.7772 0.999052L19.4274 1.87038C19.2768 2.25067 18.9094 2.4997 18.5004 2.49912H11.531C11.1214 2.50029 10.7534 2.25126 10.6022 1.87038L10.2536 0.999052H19.7772ZM7.01498 3.49936C7.01908 2.24833 7.949 1.19301 9.18948 1.03246L9.67349 2.24247C9.97526 3.00364 10.7118 3.50229 11.5304 3.49936H18.4998C19.3184 3.50229 20.055 3.00364 20.3567 2.24247L20.8407 1.03246C22.0818 1.19359 23.0117 2.24833 23.0152 3.49936V11.3547C22.2037 11.1163 21.3611 10.9967 20.5149 10.9997C18.4037 10.9997 16.5808 11.6917 15.5149 12.7611V9.99941C15.5149 7.75636 12.8793 5.99906 9.51469 5.99906C8.66856 5.99613 7.82654 6.11567 7.0144 6.35415V3.49877L7.01498 3.49936ZM5.90459 7.94972L6.82806 8.6892C6.51867 8.88491 6.27257 9.16676 6.12081 9.49959H4.59379C4.82993 8.84214 5.29577 8.29134 5.90459 7.94972ZM9.51528 13.9998C11.6265 13.9998 13.4494 13.3077 14.5153 12.2384V12.4997C14.5153 14.1257 12.2253 15.4998 9.51528 15.4998C6.80521 15.4998 4.51527 14.1257 4.51527 12.4997V12.2384C5.58114 13.3077 7.40465 13.9998 9.51528 13.9998ZM9.51528 16.5001C11.6265 16.5001 13.4494 15.808 14.5153 14.7387V15C14.5153 16.626 12.2253 18.0001 9.51528 18.0001C6.80521 18.0001 4.51527 16.626 4.51527 15V14.7387C5.58114 15.808 7.40465 16.5001 9.51528 16.5001ZM9.51528 19.0004C11.6265 19.0004 13.4494 18.3083 14.5153 17.239V17.5003C14.5153 19.1263 12.2253 20.5004 9.51528 20.5004C6.80521 20.5004 4.51527 19.1263 4.51527 17.5003V17.239C5.58114 18.3083 7.40465 19.0004 9.51528 19.0004ZM4.51527 19.7387C5.58114 20.808 7.40465 21.5001 9.51528 21.5001C11.6259 21.5001 13.4494 20.808 14.5153 19.7387V20C14.5153 21.626 12.2253 23.0001 9.51528 23.0001C6.80521 23.0001 4.51527 21.626 4.51527 20V19.7387Z" fill="#828282"/>
</svg>
