<svg width="52" height="52" viewBox="0 0 52 52" fill="none" xmlns="http://www.w3.org/2000/svg">
<path d="M26 6C30.1413 6 33.5 9.35866 33.5 13.5C33.5 17.6413 30.1413 20.9999 26 20.9999C30.1413 20.9999 33.5 24.3586 33.5 28.4999C33.5 32.6412 30.1413 35.9999 26 35.9999C34.2847 35.9999 40.9999 29.2846 40.9999 20.9999C40.9999 12.7153 34.2826 6 26 6Z" fill="#FF33FF"/>
<path d="M18.5 28.4979C18.5 24.3565 21.8586 20.9979 25.9999 20.9979C21.8586 20.9979 18.5 17.6392 18.5 13.4979C18.5 9.3566 21.8566 6 25.9999 6C17.7153 6 11 12.7153 11 20.9999C11 29.2846 17.7153 35.9999 25.9999 35.9999C21.8586 35.9999 18.5 32.6412 18.5 28.4999V28.4979Z" fill="#5932EA"/>
<path d="M46.9998 41H43.4146V41.9225H44.746V46.1222H45.6677V41.9225H46.9998V41Z" fill="#1A1A1A"/>
<path d="M31.1219 41H27.5366V41.9225H28.868V46.1222H29.7898V41.9225H31.1219V41Z" fill="#1A1A1A"/>
<path d="M42.1338 41.9225V41H39.0605V41.2027V46.1222H39.983H42.1338V45.2005H39.983V44.022H41.8777V43.1002H39.983V41.9225H42.1338Z" fill="#1A1A1A"/>
<path d="M37.7806 44.6112C37.7806 44.1335 37.5589 43.7077 37.2124 43.4306C37.4081 43.176 37.5246 42.8575 37.5246 42.511C37.5246 41.6762 36.8483 41 36.0136 41H34.1953V46.1222H36.2696C37.1044 46.1222 37.7806 45.446 37.7806 44.6112ZM36.0136 41.9225C36.3391 41.9225 36.6028 42.1862 36.6028 42.5117C36.6028 42.8372 36.3391 43.1009 36.0136 43.1009H35.1171V41.9232H36.0136V41.9225ZM36.2696 45.2005H35.1171V44.0227H36.2696C36.5951 44.0227 36.8589 44.2865 36.8589 44.6119C36.8589 44.9374 36.5951 45.2012 36.2696 45.2012V45.2005Z" fill="#1A1A1A"/>
<path d="M7.58638 43.1002H6.511C6.18551 43.1002 5.92175 42.8365 5.92175 42.511C5.92175 42.1855 6.18551 41.9218 6.511 41.9218H7.33033C7.65582 41.9218 7.91958 42.1855 7.91958 42.511H8.84133C8.84133 41.6762 8.1651 41 7.33033 41H6.511C5.67623 41 5 41.6762 5 42.511C5 43.3458 5.67623 44.022 6.511 44.022H7.58638C7.91186 44.022 8.17562 44.2858 8.17562 44.6112C8.17562 44.9367 7.91186 45.2005 7.58638 45.2005H6.5103C6.18551 45.2005 5.92175 44.9367 5.92175 44.6112H5C5 45.446 5.67623 46.1222 6.511 46.1222H7.58638C8.42114 46.1222 9.09738 45.446 9.09738 44.6112C9.09738 43.7765 8.42114 43.1002 7.58638 43.1002Z" fill="#1A1A1A"/>
<path d="M25.7036 46.1222H26.7685L25.4539 43.8459C25.9309 43.592 26.2557 43.0897 26.2557 42.511C26.2557 41.6762 25.5795 41 24.7447 41H22.6704V46.1222H23.5922V44.022H24.4908L25.7029 46.1222H25.7036ZM23.5929 41.9225H24.7454C25.0709 41.9225 25.3346 42.1862 25.3346 42.5117C25.3346 42.8372 25.0709 43.1009 24.7454 43.1009H23.5929V41.9232V41.9225Z" fill="#1A1A1A"/>
<path d="M19.7258 41H18.7564H18.4442L16.7803 46.1222H17.7497L18.1327 44.9445H20.038L20.421 46.1222H21.3904L19.7265 41H19.7258ZM18.4323 44.022L19.0854 42.0115L19.7384 44.022H18.4323Z" fill="#1A1A1A"/>
<path d="M14.5779 41H14.2966L12.9386 43.9126L11.5805 41H11.2999H10.3774V46.1222H11.2999V42.579L12.4026 44.9445H12.4573H13.4198H13.4752L14.5779 42.579V46.1222H15.4997V41H14.5779Z" fill="#1A1A1A"/>
</svg>
