<svg width="24" height="24" viewBox="0 0 24 24" fill="none" xmlns="http://www.w3.org/2000/svg">
<path d="M3.3627 23.9995H12.1627C13.7082 23.9977 14.9612 22.7451 14.9626 21.1996V17.2869C16.7139 16.0972 17.7625 14.1172 17.7625 11.9998C17.7625 9.88238 16.7139 7.90234 14.9626 6.71263V2.7999C14.9607 1.2544 13.7082 0.00187504 12.1627 0H3.3627C1.8172 0.00187504 0.564211 1.2544 0.562805 2.7999V21.2001C0.56468 22.7456 1.8172 23.9986 3.3627 24V23.9995ZM16.9628 11.9993C16.9595 15.0908 14.454 17.5963 11.3625 17.5996C10.5905 17.6005 9.82642 17.4397 9.12 17.128C8.86265 17.0169 8.61468 16.8852 8.37843 16.7342C7.83607 16.392 7.357 15.9584 6.9623 15.4531V8.54595C7.35653 8.04109 7.83513 7.60796 8.37655 7.26577C8.61468 7.11436 8.86406 6.9817 9.12328 6.87013C9.82877 6.55888 10.591 6.39856 11.3621 6.3995C14.4535 6.40278 16.9591 8.9083 16.9623 11.9998L16.9628 11.9993ZM8.56265 6.25137C8.35171 6.35215 8.14686 6.46466 7.94857 6.58888C7.5956 6.81295 7.26559 7.07076 6.96277 7.35905V5.59886H8.56265V6.25137ZM6.96277 16.6391C7.26559 16.9269 7.5956 17.1842 7.94857 17.4078C8.14686 17.5325 8.35171 17.6455 8.56312 17.7468V18.3993H6.96324V16.6391H6.96277ZM11.5721 0.798766L11.2922 1.49581C11.1718 1.80004 10.8779 1.99926 10.5507 1.99879H4.97523C4.64757 1.99973 4.35319 1.8005 4.23225 1.49581L3.95334 0.798766H11.5716H11.5721ZM1.36251 2.79896C1.36579 1.79816 2.10971 0.953926 3.10207 0.825486L3.48927 1.79347C3.73068 2.40239 4.31991 2.80131 4.97477 2.79896H10.5502C11.205 2.80131 11.7943 2.40192 12.0357 1.79347L12.4229 0.825486C13.4157 0.954394 14.1596 1.79816 14.1624 2.79896V6.25325C12.6685 5.51542 10.9435 5.39682 9.36235 5.92371V5.59933C9.36235 5.15729 9.00422 4.79916 8.56218 4.79916H6.9623C6.52026 4.79916 6.16213 5.15729 6.16213 5.59933V18.3997C6.16213 18.8418 6.52026 19.1999 6.9623 19.1999H8.56218C9.00422 19.1999 9.36235 18.8418 9.36235 18.3997V18.0754C10.9435 18.6022 12.6685 18.4836 14.1624 17.7458V21.2001C14.161 22.304 13.2666 23.1989 12.1622 23.2003H3.36223C2.25831 23.1989 1.36345 22.3045 1.36204 21.2001V2.7999L1.36251 2.79896Z" fill="#BDBDBD"/>
<path fill-rule="evenodd" clip-rule="evenodd" d="M3.36262 21.9999H12.1626C12.3834 21.9999 12.5625 21.8208 12.5625 21.6C12.5625 21.3793 12.3834 21.2002 12.1626 21.2002H3.36262C3.14183 21.2002 2.96277 21.3793 2.96277 21.6C2.96277 21.8208 3.14183 21.9999 3.36262 21.9999Z" fill="#BDBDBD"/>
<path d="M10.9629 7.59956V8.02472C9.60821 8.17801 8.56288 9.09349 8.56288 10.1998C8.56288 11.306 9.60821 12.2215 10.9629 12.3748V15.1705C10.0624 15.0364 9.36305 14.4631 9.36305 13.7998C9.36305 13.5791 9.18399 13.4 8.9632 13.4C8.74242 13.4 8.56335 13.5791 8.56335 13.7998C8.56335 14.9056 9.60868 15.8216 10.9634 15.9749V16.4C10.9634 16.6208 11.1425 16.7999 11.3632 16.7999C11.584 16.7999 11.7631 16.6208 11.7631 16.4V15.9749C13.1178 15.8216 14.1631 14.9061 14.1631 13.7998C14.1631 12.6936 13.1178 11.7781 11.7631 11.6248V8.82911C12.6636 8.96318 13.363 9.53647 13.363 10.1998C13.363 10.4206 13.542 10.5996 13.7628 10.5996C13.9836 10.5996 14.1627 10.4206 14.1627 10.1998C14.1627 9.09396 13.1173 8.17801 11.7626 8.02472V7.59956C11.7626 7.37877 11.5836 7.19971 11.3628 7.19971C11.142 7.19971 10.9629 7.37877 10.9629 7.59956ZM9.36305 10.1998C9.36305 9.53647 10.0624 8.96318 10.9629 8.82911V11.5699C10.0624 11.4359 9.36305 10.8626 9.36305 10.1993V10.1998ZM13.363 13.7998C13.363 14.4631 12.6636 15.0364 11.7631 15.1705V12.4297C12.6636 12.5637 13.363 13.137 13.363 13.8003V13.7998Z" fill="#BDBDBD"/>
<path fill-rule="evenodd" clip-rule="evenodd" d="M18.5626 11.9997C18.5626 12.2205 18.7417 12.3996 18.9625 12.3996H22.9624C23.1832 12.3996 23.3622 12.2205 23.3622 11.9997C23.3622 11.7789 23.1832 11.5999 22.9624 11.5999H18.9625C18.7417 11.5999 18.5626 11.7789 18.5626 11.9997Z" fill="#BDBDBD"/>
<path fill-rule="evenodd" clip-rule="evenodd" d="M18.5625 10.3993H21.7628C21.9836 10.3993 22.1626 10.2202 22.1626 9.99946C22.1626 9.77868 21.9836 9.59961 21.7628 9.59961H18.5625C18.3418 9.59961 18.1627 9.77868 18.1627 9.99946C18.1627 10.2202 18.3418 10.3993 18.5625 10.3993Z" fill="#BDBDBD"/>
<path fill-rule="evenodd" clip-rule="evenodd" d="M18.5624 14.3998H21.7627C21.9834 14.3998 22.1625 14.2207 22.1625 13.9999C22.1625 13.7792 21.9834 13.6001 21.7627 13.6001H18.5624C18.3417 13.6001 18.1626 13.7792 18.1626 13.9999C18.1626 14.2207 18.3417 14.3998 18.5624 14.3998Z" fill="#BDBDBD"/>
</svg>
