<svg width="24" height="24" viewBox="0 0 24 24" fill="none" xmlns="http://www.w3.org/2000/svg">
<path fill-rule="evenodd" clip-rule="evenodd" d="M8.80613 10.0716C8.80613 10.7821 9.55568 11.3963 10.5204 11.5398V8.60327C9.55568 8.74685 8.80613 9.36098 8.80613 10.0716Z" fill="#5932EA"/>
<path fill-rule="evenodd" clip-rule="evenodd" d="M11.3771 15.3968C12.3418 15.2532 13.0914 14.6391 13.0914 13.9285C13.0914 13.2179 12.3418 12.6038 11.3771 12.4602V15.3968Z" fill="#5932EA"/>
<path d="M10.9483 6.00001C10.1219 5.99862 9.30442 6.17017 8.54829 6.50357C8.27068 6.62321 8.00309 6.76497 7.74814 6.92741C7.16832 7.29444 6.65613 7.75866 6.23399 8.29969V15.7002C6.65636 16.2411 7.16888 16.7051 7.74898 17.0717C8.00214 17.2333 8.26783 17.3743 8.54354 17.4934C9.30093 17.8283 10.1201 18.0009 10.9483 17.9999C14.2619 17.9999 16.9482 15.3136 16.9482 11.9999C16.9482 8.68625 14.262 6.00001 10.9483 6.00001ZM13.9483 13.9286C13.9483 15.1136 12.8284 16.0946 11.3768 16.2588V16.7143C11.3768 16.951 11.185 17.1429 10.9483 17.1429C10.7116 17.1429 10.5197 16.951 10.5197 16.7143V16.2588C9.06817 16.0946 7.9483 15.1136 7.9483 13.9286C7.9483 13.6919 8.14017 13.5 8.37686 13.5C8.61354 13.5 8.80542 13.6919 8.80542 13.9286C8.80542 14.6392 9.55497 15.2533 10.5197 15.3969V12.4016C9.06813 12.2375 7.94826 11.2565 7.94826 10.0715C7.94826 8.88645 9.06813 7.90544 10.5197 7.7413V7.28572C10.5197 7.04904 10.7116 6.85716 10.9483 6.85716C11.1849 6.85716 11.3768 7.04904 11.3768 7.28572V7.7413C12.8284 7.90544 13.9482 8.88645 13.9482 10.0715C13.9482 10.3081 13.7564 10.5 13.5197 10.5C13.283 10.5 13.0911 10.3081 13.0911 10.0715C13.0911 9.36089 12.3416 8.74675 11.3768 8.60317V11.5984C12.8284 11.7626 13.9483 12.7436 13.9483 13.9286Z" fill="#5932EA"/>
<path fill-rule="evenodd" clip-rule="evenodd" d="M7.94821 18.1581C7.72203 18.0501 7.50223 17.9292 7.28995 17.796C6.912 17.5561 6.55832 17.2799 6.23397 16.9714V18.8571H7.94821V18.1581Z" fill="#5932EA"/>
<path fill-rule="evenodd" clip-rule="evenodd" d="M6.23397 7.02849C6.55864 6.72026 6.91243 6.44428 7.29039 6.20435C7.50263 6.07112 7.72223 5.95004 7.94825 5.84181V5.14282H6.23401L6.23397 7.02849Z" fill="#5932EA"/>
<path fill-rule="evenodd" clip-rule="evenodd" d="M4.10448 1.28572H10.0779C10.4287 1.28694 10.7445 1.07316 10.8738 0.747016L11.1725 0H3.00989L3.30988 0.747016C3.43896 1.07272 3.75409 1.28639 4.10448 1.28572Z" fill="#5932EA"/>
<path d="M8.80553 18.5096V18.8572C8.80553 19.3305 8.42178 19.7143 7.94837 19.7143H6.2341C5.76073 19.7143 5.37694 19.3306 5.37694 18.8572V5.14289C5.37694 4.66953 5.76069 4.28574 6.2341 4.28574H7.94837C8.42174 4.28574 8.80553 4.66949 8.80553 5.14289V5.49047C10.4994 4.92594 12.3476 5.05288 13.9484 5.8436V2.1429C13.9451 1.07046 13.148 0.166274 12.0845 0.0283203L11.6697 1.06547C11.4111 1.71775 10.7796 2.1452 10.0779 2.1429H4.10453C3.40288 2.1452 2.77136 1.71775 2.5128 1.06547L2.09795 0.0283203C1.03442 0.166274 0.237444 1.07046 0.234116 2.1429V21.8572C0.235542 23.04 1.19408 23.9986 2.37699 24H11.8056C12.9884 23.9986 13.947 23.0401 13.9484 21.8572V18.1564C12.3476 18.9472 10.4994 19.0741 8.80553 18.5096ZM12.2341 22.2857C12.2341 22.5224 12.0422 22.7143 11.8055 22.7143H2.37695C2.14026 22.7143 1.94839 22.5224 1.94839 22.2857C1.94839 22.049 2.14026 21.8572 2.37695 21.8572H11.8055C12.0422 21.8572 12.2341 22.049 12.2341 22.2857Z" fill="#5932EA"/>
<path fill-rule="evenodd" clip-rule="evenodd" d="M23.3772 11.5713H19.0915C18.8548 11.5713 18.6629 11.7632 18.6629 11.9998C18.6629 12.2365 18.8548 12.4284 19.0915 12.4284H23.3772C23.6139 12.4284 23.8057 12.2365 23.8057 11.9998C23.8057 11.7632 23.6139 11.5713 23.3772 11.5713Z" fill="#5932EA"/>
<path fill-rule="evenodd" clip-rule="evenodd" d="M18.6628 10.2858H22.0914C22.3281 10.2858 22.5199 10.094 22.5199 9.85727C22.5199 9.62059 22.3281 9.42871 22.0914 9.42871H18.6628C18.4261 9.42871 18.2342 9.62059 18.2342 9.85727C18.2342 10.0939 18.4261 10.2858 18.6628 10.2858Z" fill="#5932EA"/>
<path fill-rule="evenodd" clip-rule="evenodd" d="M22.0914 13.7144H18.6628C18.4261 13.7144 18.2342 13.9062 18.2342 14.1429C18.2342 14.3796 18.4261 14.5715 18.6628 14.5715H22.0914C22.3281 14.5715 22.5199 14.3796 22.5199 14.1429C22.5199 13.9062 22.3281 13.7144 22.0914 13.7144Z" fill="#5932EA"/>
</svg>
