<svg width="24" height="24" viewBox="0 0 24 24" fill="none" xmlns="http://www.w3.org/2000/svg">
<path d="M9.27265 10.0456C9.72452 10.0456 10.0908 9.6708 10.0908 9.20847C10.0908 8.74613 9.72452 8.37134 9.27265 8.37134C8.82078 8.37134 8.45446 8.74613 8.45446 9.20847C8.45446 9.6708 8.82078 10.0456 9.27265 10.0456Z" fill="#5932EA"/>
<path d="M14.7275 15.6262C15.1794 15.6262 15.5457 15.2514 15.5457 14.789C15.5457 14.3267 15.1794 13.9519 14.7275 13.9519C14.2756 13.9519 13.9093 14.3267 13.9093 14.789C13.9093 15.2514 14.2756 15.6262 14.7275 15.6262Z" fill="#5932EA"/>
<path d="M22.8259 13.6479C23.3761 13.211 24 12.7155 24 11.9992C24 11.283 23.3761 10.7875 22.8264 10.3506C22.5549 10.1351 22.1442 9.80858 22.1064 9.63959C22.0645 9.45123 22.3033 8.95993 22.4608 8.63502C22.7645 8.00822 23.1097 7.29772 22.8141 6.67092C22.514 6.0347 21.749 5.86727 21.0729 5.7192C20.7313 5.64438 20.2149 5.53138 20.1034 5.38854C19.9904 5.24362 19.997 4.70105 20.0016 4.34161C20.0108 3.63737 20.02 2.83948 19.4836 2.40104C18.9492 1.96468 18.1929 2.15043 17.5256 2.31471C17.183 2.39895 16.6655 2.52661 16.4982 2.44447C16.3407 2.36651 16.1193 1.88044 15.9731 1.55867C15.6801 0.915128 15.3482 0.18578 14.6706 0.0282951C14.0135 -0.125004 13.4167 0.374135 12.8905 0.814674C12.597 1.06006 12.1946 1.39701 12.0008 1.39701C11.807 1.39701 11.4045 1.06058 11.111 0.814674C10.5853 0.374135 9.98752 -0.123958 9.33092 0.0282951C8.65285 0.18578 8.32148 0.915128 8.02846 1.55867C7.88221 1.88044 7.66079 2.36703 7.50329 2.44447C7.33658 2.52661 6.81908 2.39895 6.47544 2.31471C5.80811 2.15043 5.0518 1.96468 4.51742 2.40104C3.981 2.83948 3.99071 3.63737 3.99941 4.34161C4.00401 4.70053 4.01015 5.24362 3.89662 5.38907C3.78514 5.5319 3.26917 5.6449 2.92758 5.7192C2.25206 5.86727 1.48655 6.0347 1.18689 6.67092C0.890806 7.29772 1.23546 8.00822 1.53973 8.63502C1.69723 8.95993 1.93553 9.45176 1.89411 9.64011C1.85626 9.80911 1.44564 10.1356 1.1741 10.3511C0.623872 10.788 0 11.2835 0 11.9998C0 12.716 0.623872 13.212 1.17359 13.6484C1.44513 13.8645 1.85575 14.1904 1.89359 14.3594C1.93553 14.5478 1.69672 15.0391 1.53922 15.364C1.23547 15.9908 0.890293 16.7013 1.18586 17.3276C1.48604 17.9638 2.25104 18.1317 2.92707 18.2793C3.26866 18.3541 3.78514 18.4671 3.89662 18.6099C4.00963 18.7549 4.00299 19.2974 3.99838 19.6569C3.98918 20.3611 3.97997 21.159 4.5164 21.5974C5.05078 22.0338 5.80709 21.8481 6.47442 21.6838C6.81704 21.5995 7.33557 21.4708 7.50227 21.5545C7.65977 21.6325 7.88119 22.1186 8.02744 22.4403C8.32045 23.0833 8.65234 23.8127 9.33041 23.9707C9.98752 24.1245 10.5843 23.6243 11.1105 23.1843C11.404 22.9384 11.8064 22.602 12.0003 22.602C12.1941 22.602 12.5965 22.9384 12.89 23.1843C13.3702 23.5861 13.8647 24 14.418 24C14.5008 24 14.5847 23.9906 14.6696 23.9712C15.3477 23.8137 15.679 23.0844 15.972 22.4408C16.1183 22.1191 16.3397 21.6325 16.4972 21.5551C16.6639 21.4724 17.1814 21.6001 17.5251 21.6843C18.1924 21.8481 18.9487 22.0343 19.4831 21.598C20.0195 21.1595 20.0098 20.3616 20.0011 19.6579C19.9965 19.299 19.9904 18.7559 20.1034 18.6105C20.2149 18.4676 20.7313 18.3546 21.0729 18.2798C21.7485 18.1322 22.514 17.9643 22.8136 17.3286C23.1097 16.7018 22.765 15.9913 22.4608 15.3645C22.3033 15.0396 22.065 14.5483 22.1064 14.3599C22.1442 14.1904 22.5549 13.8645 22.8264 13.6489L22.8259 13.6479ZM14.7274 16.7426C13.675 16.7426 12.8184 15.8662 12.8184 14.7895C12.8184 13.7127 13.675 12.8364 14.7274 12.8364C15.7798 12.8364 16.6363 13.7127 16.6363 14.7895C16.6363 15.8662 15.7798 16.7426 14.7274 16.7426ZM9.27262 7.25534C10.325 7.25534 11.1816 8.13171 11.1816 9.20847C11.1816 10.2852 10.325 11.1616 9.27262 11.1616C8.22023 11.1616 7.36369 10.2852 7.36369 9.20847C7.36369 8.13171 8.22023 7.25534 9.27262 7.25534ZM7.79631 15.511L15.4326 7.69797C15.6458 7.47979 15.991 7.47979 16.2037 7.69797C16.4169 7.91614 16.4169 8.26931 16.2037 8.48696L8.56745 16.3C8.46057 16.4093 8.32148 16.4637 8.18188 16.4637C8.04227 16.4637 7.90267 16.4093 7.79631 16.3C7.58307 16.0818 7.58307 15.7286 7.79631 15.511Z" fill="#5932EA"/>
<path d="M14.7275 15.6262C14.2765 15.6262 13.9093 15.2505 13.9093 14.789C13.9093 14.3276 14.2765 13.9519 14.7275 13.9519C15.1785 13.9519 15.5457 14.3276 15.5457 14.789C15.5457 15.2505 15.1785 15.6262 14.7275 15.6262Z" fill="#5932EA"/>
</svg>
