<svg width="24" height="24" viewBox="0 0 24 24" fill="none" xmlns="http://www.w3.org/2000/svg">
<path d="M11.4596 5.44592L12 6.00735L12.5404 5.44592C14.9133 2.98051 17.4289 2.74248 19.3119 3.60319C21.2421 4.48551 22.65 6.58012 22.65 9.0714C22.65 11.6092 21.6101 13.5638 20.1289 15.2318C18.9105 16.6037 17.4345 17.7415 16.004 18.8443C15.6652 19.1055 15.329 19.3647 14.9994 19.6245C14.4006 20.0965 13.86 20.5161 13.3371 20.8217C12.8139 21.1274 12.3796 21.2751 12 21.2751C11.6204 21.2751 11.1861 21.1274 10.6629 20.8217C10.14 20.5161 9.59939 20.0965 9.00069 19.6245C8.67103 19.3647 8.33478 19.1054 7.99599 18.8443C6.5655 17.7415 5.08953 16.6037 3.87114 15.2317C2.3899 13.5638 1.35 11.6092 1.35 9.0714C1.35 6.58012 2.75787 4.48551 4.68811 3.60319C6.57108 2.74248 9.08667 2.9805 11.4596 5.44592Z" stroke="#BDBDBD" stroke-width="1.5"/>
</svg>
