<svg width="24" height="24" viewBox="0 0 24 24" fill="none" xmlns="http://www.w3.org/2000/svg">
<path fill-rule="evenodd" clip-rule="evenodd" d="M9.45743 10.0717C9.45743 10.7823 10.2099 11.3964 11.1783 11.5398V8.60303C10.2099 8.74647 9.45743 9.36054 9.45743 10.0712V10.0717Z" fill="#5932EA"/>
<path fill-rule="evenodd" clip-rule="evenodd" d="M12.039 15.3972C13.0074 15.2538 13.7598 14.6397 13.7598 13.9291C13.7598 13.2185 13.0074 12.6044 12.039 12.4609V15.3977V15.3972Z" fill="#5932EA"/>
<path d="M11.6089 6.00001C10.7793 5.9986 9.9586 6.17017 9.19957 6.50346C8.921 6.62299 8.6523 6.76502 8.39631 6.92721C7.81422 7.29425 7.29989 7.75832 6.87638 8.29974V15.7005C7.30036 16.2415 7.81469 16.7055 8.39726 17.0721C8.65136 17.2338 8.91817 17.3749 9.19487 17.494C9.9553 17.8291 10.7774 18.0016 11.6089 18.0007C14.9353 18.0007 17.6322 15.3143 17.6322 12.0006C17.6322 8.68694 14.9353 6.00048 11.6089 6.00048V6.00001ZM14.6205 13.9286C14.6205 15.1136 13.4963 16.0947 12.039 16.2588V16.7144C12.039 16.9512 11.8465 17.1429 11.6089 17.1429C11.3712 17.1429 11.1788 16.9512 11.1788 16.7144V16.2588C9.72143 16.0947 8.59725 15.1136 8.59725 13.9286C8.59725 13.6919 8.78971 13.5002 9.02734 13.5002C9.26498 13.5002 9.45744 13.6919 9.45744 13.9286C9.45744 14.6392 10.2099 15.2533 11.1783 15.3968V12.4014C9.72096 12.2373 8.59678 11.2562 8.59678 10.0712C8.59678 8.88616 9.72096 7.90505 11.1783 7.74098V7.28535C11.1783 7.04862 11.3708 6.8569 11.6084 6.8569C11.846 6.8569 12.0385 7.04862 12.0385 7.28535V7.74098C13.4959 7.90505 14.62 8.88616 14.62 10.0712C14.62 10.3079 14.4276 10.4996 14.1899 10.4996C13.9523 10.4996 13.7598 10.3079 13.7598 10.0712C13.7598 9.36054 13.0074 8.74647 12.039 8.60303V11.5984C13.4963 11.7625 14.6205 12.7436 14.6205 13.9286Z" fill="#5932EA"/>
<path fill-rule="evenodd" clip-rule="evenodd" d="M8.59663 18.1583C8.36935 18.0505 8.14912 17.9296 7.93595 17.796C7.55667 17.556 7.2014 17.2799 6.87576 16.9714V18.8573H8.59663V18.1583Z" fill="#5932EA"/>
<path fill-rule="evenodd" clip-rule="evenodd" d="M6.87576 7.02866C7.20187 6.72022 7.55667 6.44459 7.93642 6.20458C8.14959 6.07145 8.36982 5.95004 8.59663 5.84223V5.14331H6.87576V7.02913V7.02866Z" fill="#5932EA"/>
<path fill-rule="evenodd" clip-rule="evenodd" d="M4.73812 1.28581H10.7346C11.0866 1.28721 11.4037 1.07346 11.5336 0.747202L11.8338 0H3.63934L3.94051 0.747202C4.06991 1.07299 4.38661 1.28674 4.73812 1.28581Z" fill="#5932EA"/>
<path d="M9.45743 18.5098V18.8572C9.45743 19.3306 9.07204 19.7146 8.59677 19.7146H6.8759C6.40063 19.7146 6.01523 19.3306 6.01523 18.8572V5.14271C6.01523 4.66926 6.40063 4.28535 6.8759 4.28535H8.59677C9.07204 4.28535 9.45743 4.66926 9.45743 5.14271V5.49006C11.1581 4.92567 13.013 5.05224 14.62 5.84303V2.14265C14.6167 1.07013 13.8168 0.165891 12.7491 0.0280762L12.3326 1.06544C12.0729 1.71795 11.439 2.14499 10.7346 2.14312H4.73811C4.03367 2.14546 3.39981 1.71795 3.14006 1.06544L2.72361 0.0280762C1.65589 0.165891 0.855925 1.07013 0.852631 2.14265V21.8573C0.854042 23.0399 1.81635 23.9985 3.0036 24H12.4686C13.6558 23.9985 14.6182 23.0399 14.6196 21.8573V18.1564C13.0126 18.9472 11.1571 19.0742 9.45649 18.5094L9.45743 18.5098ZM12.8992 22.2862C12.8992 22.5229 12.7067 22.7146 12.4691 22.7146H3.00407C2.76643 22.7146 2.57397 22.5229 2.57397 22.2862C2.57397 22.0494 2.76643 21.8577 3.00407 21.8577H12.4691C12.7067 21.8577 12.8992 22.0494 12.8992 22.2862Z" fill="#5932EA"/>
<path fill-rule="evenodd" clip-rule="evenodd" d="M23.7641 11.8124L21.5374 9.59419C21.3694 9.42684 21.0819 9.54544 21.0819 9.78216V11.1987H19.4862C19.4123 11.1987 19.353 11.2583 19.353 11.3314V12.6955C19.353 12.7691 19.4128 12.8282 19.4862 12.8282H21.0819V14.2185C21.0819 14.4552 21.3694 14.5738 21.5374 14.4065L23.7641 12.1883C23.8681 12.0847 23.8681 11.9164 23.7641 11.8124Z" fill="#5932EA"/>
</svg>
