<svg width="24" height="24" viewBox="0 0 24 24" fill="none" xmlns="http://www.w3.org/2000/svg">
<path d="M14.418 23.4571C13.8647 23.4571 13.3702 23.0526 12.89 22.6599C12.5965 22.4196 12.1941 22.0908 12.0003 22.0908C11.8064 22.0908 11.404 22.4196 11.1105 22.6599C10.5843 23.09 9.98752 23.5788 9.33041 23.4285C8.65234 23.2746 8.32046 22.5617 8.02745 21.9327C7.8812 21.6182 7.65977 21.1427 7.50227 21.067C7.33557 20.9857 6.81704 21.111 6.47443 21.1933C5.80709 21.3539 5.05129 21.5349 4.5164 21.1089C3.97997 20.6804 3.98969 19.9001 3.99838 19.2123C4.00299 18.8615 4.00912 18.3312 3.89662 18.189C3.78514 18.0494 3.26866 17.939 2.92707 17.8658C2.25104 17.7211 1.48604 17.5575 1.18586 16.9357C0.890293 16.3235 1.23547 15.6291 1.53922 15.0165C1.69723 14.6989 1.93553 14.2188 1.89359 14.0347C1.85575 13.8695 1.44513 13.5509 1.17359 13.3397C0.62336 12.9132 0 12.429 0 11.7284C0 11.0278 0.623872 10.5441 1.1741 10.1171C1.44564 9.9064 1.85626 9.58731 1.89411 9.42214C1.93604 9.23805 1.69723 8.75786 1.53973 8.43979C1.23547 7.82718 0.890806 7.13326 1.18689 6.52013C1.48706 5.89882 2.25206 5.73466 2.92758 5.58994C3.26917 5.51682 3.78566 5.40637 3.89662 5.26728C4.01015 5.12512 4.0035 4.59483 3.99941 4.24352C3.99071 3.55522 3.981 2.77538 4.51742 2.34686C5.0518 1.92038 5.80811 2.10192 6.47544 2.26249C6.81857 2.34482 7.33659 2.46959 7.5033 2.38931C7.6608 2.31311 7.88221 1.83804 8.02846 1.52355C8.32097 0.89457 8.65285 0.182236 9.33092 0.0278028C9.98701 -0.121005 10.5848 0.365818 11.111 0.796389C11.4045 1.03673 11.807 1.36555 12.0008 1.36555C12.1946 1.36555 12.597 1.03673 12.8905 0.796389C13.4167 0.365818 14.0135 -0.122539 14.6706 0.0278028C15.3482 0.181724 15.6801 0.89457 15.9731 1.52355C16.1193 1.83804 16.3407 2.31362 16.4982 2.38931C16.6655 2.46959 17.183 2.34482 17.5256 2.26249C18.1929 2.10192 18.9492 1.92038 19.4836 2.34686C20.02 2.77538 20.0103 3.55522 20.0016 4.24352C19.997 4.59432 19.9909 5.12512 20.1034 5.26677C20.2149 5.40637 20.7313 5.51682 21.0729 5.58994C21.749 5.73466 22.514 5.89831 22.8141 6.52013C23.1097 7.13275 22.7645 7.82718 22.4608 8.43979C22.3028 8.75735 22.0645 9.23754 22.1064 9.42163C22.1442 9.5868 22.5549 9.90589 22.8264 10.1166C23.3766 10.5436 24 11.0278 24 11.7279C24 12.4279 23.3761 12.9122 22.8259 13.3392C22.5544 13.5499 22.1437 13.8685 22.1059 14.0342C22.064 14.2183 22.3028 14.6984 22.4603 15.016C22.7645 15.6286 23.1092 16.3225 22.8131 16.9357C22.5129 17.557 21.7479 17.7211 21.0724 17.8653C20.7308 17.9384 20.2143 18.0489 20.1029 18.1885C19.9899 18.3307 19.996 18.861 20.0006 19.2123C20.0093 19.9001 20.019 20.6799 19.4826 21.1084C18.9482 21.5349 18.1919 21.3528 17.5246 21.1928C17.1814 21.1105 16.6634 20.9852 16.4967 21.0665C16.3392 21.1422 16.1178 21.6177 15.9715 21.9322C15.679 22.5612 15.3472 23.274 14.6691 23.428C14.5842 23.4474 14.4998 23.4561 14.4175 23.4561L14.418 23.4571ZM7.33403 19.9512C7.56005 19.9512 7.77687 19.9875 7.97682 20.0841C8.48512 20.3291 8.75563 20.91 9.01694 21.4725C9.14632 21.7507 9.41581 22.3296 9.57229 22.3648C9.71751 22.3904 10.1921 22.0013 10.4196 21.8151C10.91 21.4142 11.4168 20.9995 12.0003 20.9995C12.5837 20.9995 13.0905 21.4142 13.5809 21.8151C13.8085 22.0013 14.2687 22.3827 14.4287 22.3648C14.5847 22.329 14.8542 21.7507 14.9836 21.4725C15.2449 20.9105 15.5154 20.3296 16.0237 20.0841C16.5407 19.8346 17.1702 19.9865 17.7797 20.1327C18.0727 20.2033 18.6843 20.3501 18.802 20.2565C18.9216 20.1608 18.9139 19.5298 18.9098 19.2266C18.9022 18.6017 18.894 17.9553 19.2504 17.5089C19.6048 17.065 20.2348 16.93 20.8438 16.7996C21.142 16.7357 21.7628 16.6028 21.8308 16.4626C21.8942 16.3307 21.6165 15.7713 21.4831 15.5023C21.2033 14.9393 20.9139 14.3563 21.0422 13.7938C21.1665 13.2477 21.6702 12.8565 22.157 12.4786C22.4204 12.2745 22.9098 11.8951 22.9098 11.7289C22.9098 11.5627 22.4204 11.1833 22.1575 10.9787C21.6702 10.6008 21.1665 10.2102 21.0428 9.6635C20.9149 9.10049 21.2044 8.51803 21.4836 7.95502C21.617 7.68604 21.8947 7.12661 21.8313 6.99468C21.7633 6.85406 21.143 6.72161 20.8449 6.65769C20.2358 6.52729 19.6058 6.39279 19.2509 5.94893C18.8945 5.5025 18.9027 4.85614 18.9104 4.23125C18.9139 3.92801 18.9221 3.29646 18.8025 3.20084C18.6854 3.10726 18.0738 3.25403 17.7802 3.3246C17.1712 3.47085 16.5417 3.62272 16.0242 3.37318C15.5159 3.12823 15.2454 2.54731 14.9841 1.98532C14.8547 1.70713 14.5852 1.12827 14.4287 1.09298C14.2789 1.06691 13.8085 1.45657 13.5809 1.64219C13.091 2.04362 12.5842 2.45782 12.0008 2.45782C11.4173 2.45782 10.9105 2.0431 10.4201 1.64219C10.1926 1.45606 9.71803 1.06844 9.57229 1.09247C9.41632 1.12776 9.14632 1.70662 9.01745 1.98481C8.75614 2.5468 8.48563 3.12772 7.97733 3.37266C7.46034 3.6217 6.83084 3.47085 6.22078 3.32409C5.92777 3.25352 5.31566 3.10675 5.19856 3.20033C5.0789 3.29595 5.08657 3.9275 5.09066 4.23074C5.09833 4.85563 5.10651 5.50199 4.75009 5.94841C4.39571 6.39228 3.76571 6.52729 3.15667 6.65769C2.85855 6.72161 2.23775 6.85457 2.16973 6.99468C2.10632 7.12661 2.384 7.68604 2.51747 7.95502C2.79718 8.51803 3.08662 9.101 2.95826 9.6635C2.834 10.2096 2.3303 10.6008 1.84348 10.9787C1.58013 11.1833 1.09126 11.5627 1.09126 11.7289C1.09126 11.8951 1.58064 12.2751 1.84348 12.4791C2.33081 12.857 2.83451 13.2477 2.95826 13.7938C3.08611 14.3568 2.79667 14.9388 2.51747 15.5023C2.384 15.7713 2.10632 16.3307 2.16973 16.4626C2.23775 16.6038 2.85804 16.7362 3.15667 16.8001C3.76571 16.9305 4.39571 17.065 4.75009 17.5094C5.10651 17.9558 5.09833 18.6022 5.09066 19.2271C5.08708 19.5303 5.0789 20.1619 5.19856 20.2575C5.31566 20.3501 5.92726 20.2043 6.22078 20.1337C6.59408 20.0437 6.97556 19.9522 7.33403 19.9522V19.9512ZM8.56796 15.9323L16.2042 8.29611C16.4174 8.08287 16.4174 7.73769 16.2042 7.52496C15.991 7.31223 15.6458 7.31172 15.4331 7.52496L7.79682 15.1612C7.58358 15.3745 7.58358 15.7196 7.79682 15.9323C7.9037 16.0392 8.04278 16.0924 8.18239 16.0924C8.32199 16.0924 8.4616 16.0392 8.56796 15.9323ZM9.27314 10.9102C8.22074 10.9102 7.3642 10.0537 7.3642 9.00129C7.3642 7.94889 8.22074 7.09235 9.27314 7.09235C10.3255 7.09235 11.1821 7.94889 11.1821 9.00129C11.1821 10.0537 10.3255 10.9102 9.27314 10.9102ZM9.27314 8.1831C8.82211 8.1831 8.45495 8.55026 8.45495 9.00129C8.45495 9.45231 8.82211 9.81947 9.27314 9.81947C9.72416 9.81947 10.0913 9.45231 10.0913 9.00129C10.0913 8.55026 9.72416 8.1831 9.27314 8.1831ZM14.7279 16.365C13.6755 16.365 12.819 15.5084 12.819 14.456C12.819 13.4036 13.6755 12.5471 14.7279 12.5471C15.7803 12.5471 16.6368 13.4036 16.6368 14.456C16.6368 15.5084 15.7803 16.365 14.7279 16.365ZM14.7279 13.6378C14.2769 13.6378 13.9097 14.005 13.9097 14.456C13.9097 14.9071 14.2769 15.2742 14.7279 15.2742C15.1789 15.2742 15.5461 14.9071 15.5461 14.456C15.5461 14.005 15.1789 13.6378 14.7279 13.6378Z" fill="#BDBDBD"/>
</svg>
